<?xml version="1.0" encoding="UTF-8" standalone="no"?>
<!-- Created with Inkscape (http://www.inkscape.org/) -->

<svg
   width="55mm"
   height="56mm"
   viewBox="0 0 110 112"
   version="1.1"
   id="svg5"
   inkscape:version="1.1.2 (0a00cf5339, 2022-02-04)"
   sodipodi:docname="blobs.svg"
   xml:space="preserve"
   xmlns:inkscape="http://www.inkscape.org/namespaces/inkscape"
   xmlns:sodipodi="http://sodipodi.sourceforge.net/DTD/sodipodi-0.dtd"
   xmlns="http://www.w3.org/2000/svg"
   xmlns:svg="http://www.w3.org/2000/svg"><sodipodi:namedview
     id="namedview7"
     pagecolor="#ffffff"
     bordercolor="#666666"
     borderopacity="1.0"
     inkscape:showpageshadow="2"
     inkscape:pageopacity="0.0"
     inkscape:pagecheckerboard="0"
     inkscape:deskcolor="#d1d1d1"
     inkscape:document-units="mm"
     showgrid="true"
     inkscape:zoom="1"
     inkscape:cx="104"
     inkscape:cy="106"
     inkscape:window-width="1488"
     inkscape:window-height="885"
     inkscape:window-x="693"
     inkscape:window-y="587"
     inkscape:window-maximized="0"
     inkscape:current-layer="g21038"
     inkscape:pageshadow="2"><inkscape:grid
       type="axonomgrid"
       id="grid2793"
       empspacing="7"
       spacingy="3.0000001"
       originx="0"
       originy="0" /></sodipodi:namedview><defs
     id="defs2"><inkscape:path-effect
       effect="knot"
       id="path-effect4153"
       is_visible="true"
       lpeversion="1"
       switcher_size="1"
       interruption_width="2.5"
       prop_to_stroke_width="true"
       add_stroke_width="inkscape_1.0_and_up"
       both="false"
       inverse_width="false"
       add_other_stroke_width="inkscape_1.0_and_up"
       crossing_points_vector="216.30396 | 259.9407 | 0 | 1 | 0 | 0 | 0.31227384 | 1.3975186 | -1 | 213.22956 | 267.31971 | 0 | 3 | 3 | 5 | 0.96289936 | 2.5371477 | -1 | 214.83734 | 265.37547 | 0 | 4 | 2 | 3 | 0.6876544 | 2.9732047 | 1 | 215.65785 | 262.96648 | 0 | 5 | 1 | 3 | 0.50315906 | 1.6888083 | -1 | 208.02866 | 264.98308 | 0 | 1 | 5 | 5 | 1.6578262 | 2.989556 | -1 | 210.76291 | 266.74242 | 0 | 2 | 4 | 5 | 1.3000396 | 3.3831839 | 1 | 213.51383 | 258.04152 | 1 | 3 | 1 | 0 | 1.8115221 | 0.82411686 | 1 | 211.14847 | 257.82143 | 1 | 2 | 2 | 0 | 2.1207602 | 0.63078327 | -1 | 208.4312 | 261.79741 | 1 | 4 | 4 | 0 | 2.6584326 | 1.8080933 | -1 | 209.45238 | 259.17249 | 1 | 5 | 3 | 0 | 2.3696051 | 0.88978923 | 1 | 212.77778 | 259.23073 | 2 | 3 | 1 | 1 | 1.1040142 | 1.0487561 | 1 | 211.47714 | 265.21263 | 2 | 3 | 4 | 4 | 2.9085564 | 2.0215371 | 1 | 212.62459 | 263.80842 | 2 | 4 | 3 | 2 | 2.591246 | 2.5520333 | -1 | 213.8726 | 262.05743 | 2 | 5 | 2 | 2 | 2.1662181 | 1.5047975 | 1 | 210.45764 | 262.62253 | 3 | 4 | 3 | 1 | 1.5421985 | 2.1849328 | 1 | 211.61137 | 260.80952 | 3 | 5 | 2 | 1 | 1.2650423 | 1.2566056 | -1" /></defs><g
     inkscape:label="Layer 1"
     inkscape:groupmode="layer"
     id="layer1"><g
       id="g30441"
       transform="matrix(2,0,0,2,-42.435238,-59.5)"><path
         style="fill:#d7eef4;stroke:none;stroke-width:0.396876px;stroke-linecap:butt;stroke-linejoin:miter;stroke-opacity:1"
         d="m 48.497428,56 c -2.064742,4.768317 2.23789,7.277406 9.320827,13.621043 3.742463,3.35183 11.153967,-8.851906 9.369506,-11.94268 C 64.242786,52.577522 57.361274,49.81197 53.35635,50.191134 50.294927,50.480973 49.863843,52.8444 48.497428,56 Z"
         id="path21004"
         sodipodi:nodetypes="sssss" /><path
         style="fill:#ffd5d5;fill-opacity:1;stroke:none;stroke-width:0.396876px;stroke-linecap:butt;stroke-linejoin:miter;stroke-opacity:1"
         d="m 30.310886,59.000001 c -2.37624,3.725616 3.827784,8.044926 6.486759,9.647368 2.78268,1.58571 15.05949,10.278702 18.15585,5.997307 C 58.17839,70.185542 52.57023,65.243829 49.392397,62.862788 47.222422,61.236894 30.940203,56.572906 30.310886,59.000001 Z"
         id="path21006"
         sodipodi:nodetypes="ccssc" /><path
         style="fill:#ffd5d5;stroke:none;stroke-width:0.396876px;stroke-linecap:butt;stroke-linejoin:miter;stroke-opacity:1"
         d="m 42.75929,37.452873 c -1.823008,2.05663 0.541978,6.547128 6.154187,10.910448 3.07452,2.390345 16.47144,6.886681 18.570312,2.752697 C 68.859463,48.40646 62.684992,42.406807 56.167848,39.413621 50.171084,36.659435 43.517446,36.597558 42.75929,37.452873 Z"
         id="path21010"
         sodipodi:nodetypes="sssss" /><path
         style="fill:#ffeeaa;stroke:none;stroke-width:0.396876px;stroke-linecap:butt;stroke-linejoin:miter;stroke-opacity:1"
         d="m 49.904285,50.412196 c 1.987103,-1.863116 -7.202004,-6.35544 -10.480127,-9.296164 -1.650457,-1.480587 -5.57147,3.866115 -8.304379,8.77025 -3.406969,6.113719 2.208978,6.540324 10.907368,10.017105 8.357147,3.340384 5.264123,-7.041218 7.877138,-9.491191 z"
         id="path21012"
         sodipodi:nodetypes="sssss" /><g
         id="g21038"
         transform="matrix(3,0,0,3,-588.06215,-731.5)"><g
           id="g4150"
           inkscape:path-effect="#path-effect4153"
           style="stroke-width:0.76666667;stroke-miterlimit:4;stroke-dasharray:none"><path
             style="fill:none;stroke:#000000;stroke-width:0.76666667;stroke-linecap:round;stroke-miterlimit:4;stroke-dasharray:none"
             id="path21014"
             d="m 216.94966,254.75 c -0.10857,1.31639 -0.26671,2.74758 -0.47929,4.15805 m -0.35408,2.05161 c -0.25127,1.27552 -0.55275,2.47383 -0.90849,3.48243 m -0.82629,1.79754 c -0.41502,0.65928 -0.88236,1.07271 -1.40558,1.14158 -0.41193,0.0542 -0.86277,-0.0374 -1.33256,-0.21838 m -1.73545,-0.93788 c -1.54617,-0.99778 -3.04255,-2.21466 -3.84933,-1.83833 -1.44005,0.67172 -1.23328,2.36338 -1.23328,5.36338"
             sodipodi:nodetypes="cssc"
             inkscape:original-d="m 216.94966,254.75 c -0.43301,5.25 -1.65434,12.3259 -3.97373,12.63121 -2.2143,0.29147 -5.55255,-3.63121 -6.91734,-2.99459 -1.44005,0.67172 -1.23328,2.36338 -1.23328,5.36338" /><path
             style="fill:none;stroke:#0080ff;stroke-width:0.76666667;stroke-linecap:round;stroke-miterlimit:4;stroke-dasharray:none"
             id="path21016"
             d="m 220.41376,254.75 c 0.29488,3.06439 -0.40307,5.41291 -1.48193,5.83136 -1.43733,0.55748 -3.06429,-0.99141 -4.59992,-2.03864 m -1.72576,-0.83932 c -0.0951,-0.0179 -0.18929,-0.0291 -0.28251,-0.0327 -0.93895,-0.0367 -1.66903,0.25879 -2.23836,0.76532 m -1.12061,1.6459 c -0.50186,1.16534 -0.73133,2.57815 -0.85195,3.82616 m -0.14224,2.16611 c -0.0551,1.17219 -0.11408,2.80915 -0.11408,3.92586"
             sodipodi:nodetypes="csssc"
             inkscape:original-d="m 220.41376,254.75 c 0.29488,3.06439 -0.40307,5.41291 -1.48193,5.83136 -2.08971,0.81051 -4.58024,-2.83136 -6.60819,-2.91071 -3.60174,-0.14093 -4.13025,4.60723 -4.30043,7.40058 -0.0603,0.99012 -0.16681,3.42877 -0.16681,4.92877" /><path
             style="fill:none;stroke:#2ca02c;stroke-width:0.76666667;stroke-linecap:round;stroke-miterlimit:4;stroke-dasharray:none;stroke-opacity:1"
             id="path21018"
             d="m 210.02146,254.75 c 0,0.90831 0.20897,1.63888 0.54782,2.25179 m 1.36046,1.57376 c 0.17584,0.14671 0.35726,0.28702 0.54124,0.42324 0.97647,0.72299 1.69145,1.36959 1.6465,2.10494 m -0.72162,1.7858 c -0.38065,0.5247 -0.86163,0.99559 -1.33633,1.55938 m -1.05858,1.59783 c -0.31229,0.71196 -0.54648,1.82111 -0.54648,3.95326"
             sodipodi:nodetypes="csssc"
             inkscape:original-d="m 210.02146,254.75 c 0,2.14214 1.16225,3.29567 2.44952,4.24879 1.01458,0.75121 1.74686,1.41994 1.63774,2.19146 -0.27206,1.92365 -1.8566,2.59835 -2.93996,4.52024 -0.39232,0.69595 -0.71429,1.78951 -0.71429,4.28951" /><path
             style="fill:none;stroke:#ff0000;stroke-width:0.76666667;stroke-linecap:round;stroke-miterlimit:4;stroke-dasharray:none"
             id="path21020"
             d="m 214.35159,254.75 c 0.28976,0.83648 -0.22499,2.27359 -1.05454,3.67072 m -1.0805,1.5875 c -0.46746,0.6252 -0.9348,1.21512 -1.29646,1.7728 m -0.66773,1.80412 c 0.0254,0.56074 0.35165,1.08345 1.1395,1.57275 0.48581,0.30172 0.94748,0.76093 1.34018,1.32161 m 0.86267,1.72749 c 0.19013,0.57371 0.30637,1.18173 0.32386,1.79301"
             sodipodi:nodetypes="cssc"
             inkscape:original-d="m 214.35159,254.75 c 0.31983,0.92329 -0.3405,2.57837 -1.32246,4.10372 -1.67691,2.60486 -4.30671,4.64628 -1.63727,6.30417 1.32397,0.82227 2.46868,2.8143 2.52671,4.84211" /><path
             style="fill:none;stroke:#9955ff;stroke-width:0.76666667;stroke-linecap:round;stroke-miterlimit:4;stroke-dasharray:none;stroke-opacity:1"
             id="path21022"
             d="m 203.95928,254.75 c 0,2.96543 0.50351,4.47734 1.54245,5.46087 0.53348,0.50503 1.20814,0.87075 2.02829,1.22239 m 1.80628,0.71046 c 0.008,0.003 0.0151,0.006 0.0227,0.009 0.79792,0.3051 1.62367,0.70538 2.42477,1.15741 m 1.65391,1.02801 c 0.54898,0.37395 1.06379,0.75938 1.52298,1.13854 0.65078,0.53736 1.556,2.52365 1.556,4.52365"
             sodipodi:nodetypes="csssc"
             inkscape:original-d="m 203.95928,254.75 c 0,2.96543 0.50351,4.47734 1.54245,5.46087 0.88798,0.84063 2.16709,1.29526 3.85726,1.94152 1.95813,0.74872 4.08382,2.07066 5.60166,3.32396 0.65078,0.53736 1.556,2.52365 1.556,4.52365" /><path
             style="fill:none;stroke:#ffb380;stroke-width:0.76666667;stroke-linecap:round;stroke-miterlimit:4;stroke-dasharray:none"
             id="path21024"
             d="m 207.42338,254.75 c 0,0 0.7592,3.43872 2.59808,5 0.18832,0.15989 0.45167,0.34779 0.77038,0.55485 m 1.65771,0.98452 c 0.73252,0.40853 1.54115,0.83512 2.33335,1.23811 m 1.75278,0.86715 c 0.62911,0.30219 1.19005,0.56105 1.61913,0.74791 1.39286,0.60658 1.82594,2.35746 1.82594,5.85746"
             sodipodi:nodetypes="cssc"
             inkscape:original-d="m 207.42338,254.75 c 0,0 0.7592,3.43872 2.59808,5 1.29514,1.09963 6.13887,3.52395 8.13335,4.39254 1.39286,0.60658 1.82594,2.35746 1.82594,5.85746" /></g><circle
           style="opacity:0.9;fill:#000000;stroke:none;stroke-width:0.5;stroke-linecap:round;stroke-dasharray:none;stroke-opacity:1"
           id="circle21026"
           cx="212.18652"
           cy="255.5"
           r="0.63397455" /><circle
           style="opacity:0.9;fill:#000000;stroke:none;stroke-width:0.5;stroke-linecap:round;stroke-dasharray:none;stroke-opacity:1"
           id="circle21028"
           cx="206.12434"
           cy="259"
           r="0.63397455" /><circle
           style="opacity:0.9;fill:#000000;stroke:none;stroke-width:0.5;stroke-linecap:round;stroke-dasharray:none;stroke-opacity:1"
           id="circle21030"
           cx="206.12434"
           cy="266"
           r="0.63397455" /><circle
           style="opacity:0.9;fill:#000000;stroke:none;stroke-width:0.5;stroke-linecap:round;stroke-dasharray:none;stroke-opacity:1"
           id="circle21032"
           cx="212.18652"
           cy="269.5"
           r="0.63397455" /><circle
           style="opacity:0.9;fill:#000000;stroke:none;stroke-width:0.5;stroke-linecap:round;stroke-dasharray:none;stroke-opacity:1"
           id="circle21034"
           cx="218.2487"
           cy="266"
           r="0.63397455" /><circle
           style="opacity:0.9;fill:#000000;stroke:none;stroke-width:0.5;stroke-linecap:round;stroke-dasharray:none;stroke-opacity:1"
           id="circle21036"
           cx="218.2487"
           cy="259"
           r="0.63397455" /></g></g><g
       id="563412"
       transform="matrix(4,0,0,4,-818.43526,-1011.5)"><g
         id="g5850" /></g><text
       xml:space="preserve"
       style="font-size:7.05556px;line-height:1.25;font-family:sans-serif;letter-spacing:0px;word-spacing:0px;stroke-width:0.529167"
       x="16.003506"
       y="107.183"
       id="text21042"><tspan
         sodipodi:role="line"
         style="font-size:7.05556px;stroke-width:0.529167"
         x="16.003506"
         y="107.183"
         id="tspan665">R-rclc,ctc,ctc,crcl</tspan></text><text
       xml:space="preserve"
       style="font-size:9.87778px;line-height:1.25;font-family:sans-serif;letter-spacing:0px;word-spacing:0px;stroke-width:0.529167"
       x="73.153503"
       y="18.28299"
       id="text846"><tspan
         sodipodi:role="line"
         style="font-size:9.87778px;stroke-width:0.529167"
         x="73.153503"
         y="18.28299"
         id="tspan844">1</tspan></text><text
       xml:space="preserve"
       style="font-size:9.87778px;line-height:1.25;font-family:sans-serif;letter-spacing:0px;word-spacing:0px;stroke-width:0.529167"
       x="19.178507"
       y="24.632984"
       id="text2374"><tspan
         sodipodi:role="line"
         style="font-size:9.87778px;stroke-width:0.529167"
         x="19.178507"
         y="24.632984"
         id="tspan2372">2</tspan></text><text
       xml:space="preserve"
       style="font-size:9.87778px;line-height:1.25;font-family:sans-serif;letter-spacing:0px;word-spacing:0px;stroke-width:0.529167"
       x="30.820173"
       y="90.249657"
       id="text2640"><tspan
         sodipodi:role="line"
         style="font-size:9.87778px;stroke-width:0.529167"
         x="30.820173"
         y="90.249657"
         id="tspan2638">4</tspan></text><text
       xml:space="preserve"
       style="font-size:9.87778px;line-height:1.25;font-family:sans-serif;letter-spacing:0px;word-spacing:0px;stroke-width:0.529167"
       x="82.678497"
       y="88.132988"
       id="text2644"><tspan
         sodipodi:role="line"
         style="font-size:9.87778px;stroke-width:0.529167"
         x="82.678497"
         y="88.132988"
         id="tspan2642">3</tspan></text><g
       id="g5920"
       transform="matrix(4,0,0,4,-712.60196,-1011.5)"><g
         id="g5918" /></g></g></svg>
