<?xml version="1.0" encoding="UTF-8" standalone="no"?>
<!-- Created with Inkscape (http://www.inkscape.org/) -->

<svg
   width="49mm"
   height="56mm"
   viewBox="0 0 98 112"
   version="1.1"
   id="svg5"
   inkscape:version="1.1.2 (0a00cf5339, 2022-02-04)"
   sodipodi:docname="blobs.svg"
   xml:space="preserve"
   xmlns:inkscape="http://www.inkscape.org/namespaces/inkscape"
   xmlns:sodipodi="http://sodipodi.sourceforge.net/DTD/sodipodi-0.dtd"
   xmlns="http://www.w3.org/2000/svg"
   xmlns:svg="http://www.w3.org/2000/svg"><sodipodi:namedview
     id="namedview7"
     pagecolor="#ffffff"
     bordercolor="#666666"
     borderopacity="1.0"
     inkscape:showpageshadow="2"
     inkscape:pageopacity="0.0"
     inkscape:pagecheckerboard="0"
     inkscape:deskcolor="#d1d1d1"
     inkscape:document-units="mm"
     showgrid="true"
     inkscape:zoom="2.4141311"
     inkscape:cx="23.61098"
     inkscape:cy="144.56547"
     inkscape:window-width="2256"
     inkscape:window-height="1435"
     inkscape:window-x="0"
     inkscape:window-y="41"
     inkscape:window-maximized="1"
     inkscape:current-layer="layer1"
     inkscape:pageshadow="2"><inkscape:grid
       type="axonomgrid"
       id="grid2793"
       empspacing="7"
       spacingy="3.0000001"
       originx="0"
       originy="0" /></sodipodi:namedview><defs
     id="defs2" /><g
     inkscape:label="Layer 1"
     inkscape:groupmode="layer"
     id="layer1"><g
       id="g30441"
       transform="matrix(2,0,0,2,-42.435238,-59.5)"><path
         style="fill:#d7eef4;stroke:none;stroke-width:0.396876px;stroke-linecap:butt;stroke-linejoin:miter;stroke-opacity:1"
         d="m 48.497428,56 c -2.064742,4.768317 2.23789,7.277406 9.320827,13.621043 3.742463,3.35183 11.153967,-8.851906 9.369506,-11.94268 C 64.242786,52.577522 57.361274,49.81197 53.35635,50.191134 50.294927,50.480973 49.863843,52.8444 48.497428,56 Z"
         id="path21004"
         sodipodi:nodetypes="sssss" /><path
         style="fill:#ffd5d5;fill-opacity:1;stroke:none;stroke-width:0.396876px;stroke-linecap:butt;stroke-linejoin:miter;stroke-opacity:1"
         d="m 30.310886,59.000001 c -2.37624,3.725616 3.827784,8.044926 6.486759,9.647368 2.78268,1.58571 15.05949,10.278702 18.15585,5.997307 C 58.17839,70.185542 52.57023,65.243829 49.392397,62.862788 47.222422,61.236894 30.940203,56.572906 30.310886,59.000001 Z"
         id="path21006"
         sodipodi:nodetypes="ccssc" /><path
         style="fill:#ffd5d5;stroke:none;stroke-width:0.396876px;stroke-linecap:butt;stroke-linejoin:miter;stroke-opacity:1"
         d="m 42.75929,37.452873 c -1.823008,2.05663 -2.0559,4.165879 4.82061,8.919532 3.203483,2.214524 17.976946,10.085084 19.903889,4.743613 C 68.514984,48.257553 62.684992,42.406807 56.167848,39.413621 50.171084,36.659435 43.517446,36.597558 42.75929,37.452873 Z"
         id="path21010"
         sodipodi:nodetypes="sssss" /><path
         style="fill:#ffeeaa;stroke:none;stroke-width:0.396876px;stroke-linecap:butt;stroke-linejoin:miter;stroke-opacity:1"
         d="m 49.904285,50.412196 c 1.987103,-1.863116 -7.202004,-6.35544 -10.480127,-9.296164 -1.650457,-1.480587 -5.57147,3.866115 -8.304379,8.77025 -3.406969,6.113719 2.208978,6.540324 10.907368,10.017105 8.357147,3.340384 5.264123,-7.041218 7.877138,-9.491191 z"
         id="path21012"
         sodipodi:nodetypes="sssss" /><g
         id="g21038"
         transform="matrix(3,0,0,3,-588.06215,-731.5)"><path
           style="fill:none;stroke:#000000;stroke-width:0.5;stroke-dasharray:none"
           id="path21014"
           d="m 216.51666,258 c 1.13621,5.3414 -1.36711,8.52148 -3.6865,8.8268 -2.56154,0.33718 -5.09756,-2.51835 -6.7058,-2.8268"
           sodipodi:nodetypes="csc" /><path
           style="fill:none;stroke:#0080ff;stroke-width:0.5;stroke-dasharray:none"
           id="path21016"
           d="m 218.24871,261 c -11.31776,-9.83193 -9.94123,5.03968 -10.3923,6"
           sodipodi:nodetypes="cc" /><path
           style="fill:none;stroke:#2ca02c;stroke-width:0.5;stroke-dasharray:none;stroke-opacity:1"
           id="path21018"
           d="m 210.45448,256.5 c 0.39021,2.1 3.9355,2.70158 3.65424,4.69025 -0.37059,2.62024 -2.52577,3.25856 -3.65424,7.30975"
           sodipodi:nodetypes="csc" /><path
           style="fill:none;stroke:#ff0000;stroke-width:0.5;stroke-dasharray:none"
           id="path21020"
           d="m 213.91858,256.5 c -1.15162,2.85482 -6.23333,6.99439 -2.52672,8.65789 1.4219,0.63814 2.46869,1.3143 2.52672,3.34211"
           sodipodi:nodetypes="csc" /><path
           style="fill:none;stroke:#9955ff;stroke-width:0.5;stroke-dasharray:none;stroke-opacity:1"
           id="path21022"
           d="m 206.12436,261 c 2.45377,0.38543 8.59576,3.73565 10.3923,6"
           sodipodi:nodetypes="cc" /><path
           style="fill:none;stroke:#ffb380;stroke-width:0.5;stroke-dasharray:none"
           id="path21024"
           d="m 207.85641,258 10.3923,6"
           sodipodi:nodetypes="cc" /><circle
           style="opacity:0.9;fill:#000000;stroke:none;stroke-width:0.5;stroke-linecap:round;stroke-dasharray:none;stroke-opacity:1"
           id="circle21026"
           cx="212.18652"
           cy="255.5"
           r="0.63397455" /><circle
           style="opacity:0.9;fill:#000000;stroke:none;stroke-width:0.5;stroke-linecap:round;stroke-dasharray:none;stroke-opacity:1"
           id="circle21028"
           cx="206.12434"
           cy="259"
           r="0.63397455" /><circle
           style="opacity:0.9;fill:#000000;stroke:none;stroke-width:0.5;stroke-linecap:round;stroke-dasharray:none;stroke-opacity:1"
           id="circle21030"
           cx="206.12434"
           cy="266"
           r="0.63397455" /><circle
           style="opacity:0.9;fill:#000000;stroke:none;stroke-width:0.5;stroke-linecap:round;stroke-dasharray:none;stroke-opacity:1"
           id="circle21032"
           cx="212.18652"
           cy="269.5"
           r="0.63397455" /><circle
           style="opacity:0.9;fill:#000000;stroke:none;stroke-width:0.5;stroke-linecap:round;stroke-dasharray:none;stroke-opacity:1"
           id="circle21034"
           cx="218.2487"
           cy="266"
           r="0.63397455" /><circle
           style="opacity:0.9;fill:#000000;stroke:none;stroke-width:0.5;stroke-linecap:round;stroke-dasharray:none;stroke-opacity:1"
           id="circle21036"
           cx="218.2487"
           cy="259"
           r="0.63397455" /></g></g><g
       id="563412"
       transform="matrix(4,0,0,4,-818.43526,-1011.5)"><g
         id="g5850" /></g><text
       xml:space="preserve"
       style="font-size:7.05556px;line-height:1.25;font-family:sans-serif;letter-spacing:0px;word-spacing:0px;stroke-width:0.529167"
       x="16.003506"
       y="107.183"
       id="text21042"><tspan
         sodipodi:role="line"
         style="font-size:7.05556px;stroke-width:0.529167"
         x="16.003506"
         y="107.183"
         id="tspan665">R-rclc,ctc,ctc,crcl</tspan></text></g></svg>
