<?xml version="1.0" encoding="UTF-8" standalone="no"?>
<!--?xml version="1.0" encoding="UTF-8" standalone="no"?-->

<svg
   id="svg2"
   version="1.1"
   width="215.67873"
   height="148.39999"
   sodipodi:docname="connect-dots.svg"
   inkscape:version="1.1.2 (0a00cf5339, 2022-02-04)"
   xmlns:inkscape="http://www.inkscape.org/namespaces/inkscape"
   xmlns:sodipodi="http://sodipodi.sourceforge.net/DTD/sodipodi-0.dtd"
   xmlns="http://www.w3.org/2000/svg"
   xmlns:svg="http://www.w3.org/2000/svg">
  <sodipodi:namedview
     id="namedview1805"
     pagecolor="#ffffff"
     bordercolor="#000000"
     borderopacity="0.25"
     inkscape:pageshadow="2"
     inkscape:pageopacity="0.0"
     inkscape:pagecheckerboard="0"
     showgrid="false"
     showguides="false"
     inkscape:zoom="1"
     inkscape:cx="29"
     inkscape:cy="78"
     inkscape:window-width="2256"
     inkscape:window-height="1435"
     inkscape:window-x="0"
     inkscape:window-y="41"
     inkscape:window-maximized="1"
     inkscape:current-layer="svg2"
     lock-margins="true"
     fit-margin-top="4"
     fit-margin-left="4"
     fit-margin-right="4"
     fit-margin-bottom="4" />
  <defs
     id="defs11">
    <marker
       style="overflow:visible"
       id="marker6278"
       refX="0"
       refY="0"
       orient="auto"
       inkscape:stockid="Arrow1Mend"
       inkscape:isstock="true">
      <path
         transform="matrix(-0.4,0,0,-0.4,-4,0)"
         style="fill:context-stroke;fill-rule:evenodd;stroke:context-stroke;stroke-width:1pt"
         d="M 0,0 5,-5 -12.5,0 5,5 Z"
         id="path6276" />
    </marker>
  </defs>
  <g
     id="svg-r2-c11"
     style="opacity:1;stroke:none"
     transform="matrix(1.35,0,0,1.35,141.78727,-1313.6808)">
    <path
       style="fill:#ff0000;stroke:none;stroke-width:1"
       d="m -18.064645,978.05982 c 0,0.55229 -0.223858,1.05229 -0.585787,1.41422 -0.361929,0.36192 -0.861929,0.58578 -1.414213,0.58578 -0.552284,0 -1.052284,-0.22386 -1.414213,-0.58578 -0.361929,-0.36193 -0.585787,-0.86193 -0.585787,-1.41422 0,-0.55228 0.223858,-1.05228 0.585787,-1.41421 0.361929,-0.36193 0.861929,-0.58579 1.414213,-0.58579 0.552284,0 1.052284,0.22386 1.414213,0.58579 0.361929,0.36193 0.585787,0.86193 0.585787,1.41421 z"
       id="path5779" />
  </g>
  <g
     id="svg-r2-c10"
     style="opacity:1;stroke:none"
     transform="matrix(1.35,0,0,1.35,128.28727,-1313.6808)">
    <path
       style="fill:#ff0000;stroke:none;stroke-width:1"
       d="m -18.064645,978.05982 c 0,0.55229 -0.223858,1.05229 -0.585787,1.41422 -0.361929,0.36192 -0.861929,0.58578 -1.414213,0.58578 -0.552284,0 -1.052284,-0.22386 -1.414213,-0.58578 -0.361929,-0.36193 -0.585787,-0.86193 -0.585787,-1.41422 0,-0.55228 0.223858,-1.05228 0.585787,-1.41421 0.361929,-0.36193 0.861929,-0.58579 1.414213,-0.58579 0.552284,0 1.052284,0.22386 1.414213,0.58579 0.361929,0.36193 0.585787,0.86193 0.585787,1.41421 z"
       id="path5789" />
  </g>
  <g
     id="svg-r2-c9"
     style="opacity:1;stroke:none"
     transform="matrix(1.35,0,0,1.35,114.78727,-1313.6808)">
    <path
       style="fill:#ff0000;stroke:none;stroke-width:1"
       d="m -18.064645,978.05982 c 0,0.55229 -0.223858,1.05229 -0.585787,1.41422 -0.361929,0.36192 -0.861929,0.58578 -1.414213,0.58578 -0.552284,0 -1.052284,-0.22386 -1.414213,-0.58578 -0.361929,-0.36193 -0.585787,-0.86193 -0.585787,-1.41422 0,-0.55228 0.223858,-1.05228 0.585787,-1.41421 0.361929,-0.36193 0.861929,-0.58579 1.414213,-0.58579 0.552284,0 1.052284,0.22386 1.414213,0.58579 0.361929,0.36193 0.585787,0.86193 0.585787,1.41421 z"
       id="path5799" />
  </g>
  <g
     id="svg-r2-c8"
     style="opacity:1;stroke:none"
     transform="matrix(1.35,0,0,1.35,101.28727,-1313.6808)">
    <path
       style="fill:#ff0000;stroke:none;stroke-width:1"
       d="m -18.064645,978.05982 c 0,0.55229 -0.223858,1.05229 -0.585787,1.41422 -0.361929,0.36192 -0.861929,0.58578 -1.414213,0.58578 -0.552284,0 -1.052284,-0.22386 -1.414213,-0.58578 -0.361929,-0.36193 -0.585787,-0.86193 -0.585787,-1.41422 0,-0.55228 0.223858,-1.05228 0.585787,-1.41421 0.361929,-0.36193 0.861929,-0.58579 1.414213,-0.58579 0.552284,0 1.052284,0.22386 1.414213,0.58579 0.361929,0.36193 0.585787,0.86193 0.585787,1.41421 z"
       id="path5809" />
  </g>
  <g
     id="svg-r2-c7"
     style="opacity:1;stroke:none"
     transform="matrix(1.35,0,0,1.35,87.787271,-1313.6808)">
    <path
       style="fill:#ff0000;stroke:none;stroke-width:1"
       d="m -18.064645,978.05982 c 0,0.55229 -0.223858,1.05229 -0.585787,1.41422 -0.361929,0.36192 -0.861929,0.58578 -1.414213,0.58578 -0.552284,0 -1.052284,-0.22386 -1.414213,-0.58578 -0.361929,-0.36193 -0.585787,-0.86193 -0.585787,-1.41422 0,-0.55228 0.223858,-1.05228 0.585787,-1.41421 0.361929,-0.36193 0.861929,-0.58579 1.414213,-0.58579 0.552284,0 1.052284,0.22386 1.414213,0.58579 0.361929,0.36193 0.585787,0.86193 0.585787,1.41421 z"
       id="path5819" />
  </g>
  <g
     id="svg-r2-c6"
     style="opacity:1;stroke:none"
     transform="matrix(1.35,0,0,1.35,74.287271,-1313.6808)">
    <path
       style="fill:#ff0000;stroke:none;stroke-width:1"
       d="m -18.064645,978.05982 c 0,0.55229 -0.223858,1.05229 -0.585787,1.41422 -0.361929,0.36192 -0.861929,0.58578 -1.414213,0.58578 -0.552284,0 -1.052284,-0.22386 -1.414213,-0.58578 -0.361929,-0.36193 -0.585787,-0.86193 -0.585787,-1.41422 0,-0.55228 0.223858,-1.05228 0.585787,-1.41421 0.361929,-0.36193 0.861929,-0.58579 1.414213,-0.58579 0.552284,0 1.052284,0.22386 1.414213,0.58579 0.361929,0.36193 0.585787,0.86193 0.585787,1.41421 z"
       id="path5829" />
  </g>
  <g
     id="svg-r2-c5"
     style="opacity:1;stroke:none"
     transform="matrix(1.35,0,0,1.35,60.787271,-1313.6808)">
    <path
       style="fill:#ff0000;stroke:none;stroke-width:1"
       d="m -18.064645,978.05982 c 0,0.55229 -0.223858,1.05229 -0.585787,1.41422 -0.361929,0.36192 -0.861929,0.58578 -1.414213,0.58578 -0.552284,0 -1.052284,-0.22386 -1.414213,-0.58578 -0.361929,-0.36193 -0.585787,-0.86193 -0.585787,-1.41422 0,-0.55228 0.223858,-1.05228 0.585787,-1.41421 0.361929,-0.36193 0.861929,-0.58579 1.414213,-0.58579 0.552284,0 1.052284,0.22386 1.414213,0.58579 0.361929,0.36193 0.585787,0.86193 0.585787,1.41421 z"
       id="path5839" />
  </g>
  <g
     id="svg-r2-c4"
     style="opacity:1;stroke:none"
     transform="matrix(1.35,0,0,1.35,47.287271,-1313.6808)">
    <path
       style="fill:#ff0000;stroke:none;stroke-width:1"
       d="m -18.064645,978.05982 c 0,0.55229 -0.223858,1.05229 -0.585787,1.41422 -0.361929,0.36192 -0.861929,0.58578 -1.414213,0.58578 -0.552284,0 -1.052284,-0.22386 -1.414213,-0.58578 -0.361929,-0.36193 -0.585787,-0.86193 -0.585787,-1.41422 0,-0.55228 0.223858,-1.05228 0.585787,-1.41421 0.361929,-0.36193 0.861929,-0.58579 1.414213,-0.58579 0.552284,0 1.052284,0.22386 1.414213,0.58579 0.361929,0.36193 0.585787,0.86193 0.585787,1.41421 z"
       id="path5849" />
  </g>
  <g
     id="svg-r2-c3"
     style="opacity:1;stroke:none"
     transform="matrix(1.35,0,0,1.35,33.787271,-1313.6808)">
    <path
       style="fill:#ff0000;stroke:none;stroke-width:1"
       d="m -18.064645,978.05982 c 0,0.55229 -0.223858,1.05229 -0.585787,1.41422 -0.361929,0.36192 -0.861929,0.58578 -1.414213,0.58578 -0.552284,0 -1.052284,-0.22386 -1.414213,-0.58578 -0.361929,-0.36193 -0.585787,-0.86193 -0.585787,-1.41422 0,-0.55228 0.223858,-1.05228 0.585787,-1.41421 0.361929,-0.36193 0.861929,-0.58579 1.414213,-0.58579 0.552284,0 1.052284,0.22386 1.414213,0.58579 0.361929,0.36193 0.585787,0.86193 0.585787,1.41421 z"
       id="path5859" />
  </g>
  <g
     id="svg-r3-c11"
     style="opacity:1;stroke:none"
     transform="matrix(1.35,0,0,1.35,141.78727,-1300.1808)">
    <path
       style="fill:#ff0000;stroke:none;stroke-width:1"
       d="m -18.064645,978.05982 c 0,0.55229 -0.223858,1.05229 -0.585787,1.41422 -0.361929,0.36192 -0.861929,0.58578 -1.414213,0.58578 -0.552284,0 -1.052284,-0.22386 -1.414213,-0.58578 -0.361929,-0.36193 -0.585787,-0.86193 -0.585787,-1.41422 0,-0.55228 0.223858,-1.05228 0.585787,-1.41421 0.361929,-0.36193 0.861929,-0.58579 1.414213,-0.58579 0.552284,0 1.052284,0.22386 1.414213,0.58579 0.361929,0.36193 0.585787,0.86193 0.585787,1.41421 z"
       id="path3879" />
  </g>
  <g
     id="svg-r3-c10"
     style="opacity:1;stroke:none"
     transform="matrix(1.35,0,0,1.35,128.28727,-1300.1808)">
    <path
       style="fill:#ff0000;stroke:none;stroke-width:1"
       d="m -18.064645,978.05982 c 0,0.55229 -0.223858,1.05229 -0.585787,1.41422 -0.361929,0.36192 -0.861929,0.58578 -1.414213,0.58578 -0.552284,0 -1.052284,-0.22386 -1.414213,-0.58578 -0.361929,-0.36193 -0.585787,-0.86193 -0.585787,-1.41422 0,-0.55228 0.223858,-1.05228 0.585787,-1.41421 0.361929,-0.36193 0.861929,-0.58579 1.414213,-0.58579 0.552284,0 1.052284,0.22386 1.414213,0.58579 0.361929,0.36193 0.585787,0.86193 0.585787,1.41421 z"
       id="path3889" />
  </g>
  <g
     id="svg-r3-c9"
     style="opacity:1;stroke:none"
     transform="matrix(1.35,0,0,1.35,114.78727,-1300.1808)">
    <path
       style="fill:#ff0000;stroke:none;stroke-width:1"
       d="m -18.064645,978.05982 c 0,0.55229 -0.223858,1.05229 -0.585787,1.41422 -0.361929,0.36192 -0.861929,0.58578 -1.414213,0.58578 -0.552284,0 -1.052284,-0.22386 -1.414213,-0.58578 -0.361929,-0.36193 -0.585787,-0.86193 -0.585787,-1.41422 0,-0.55228 0.223858,-1.05228 0.585787,-1.41421 0.361929,-0.36193 0.861929,-0.58579 1.414213,-0.58579 0.552284,0 1.052284,0.22386 1.414213,0.58579 0.361929,0.36193 0.585787,0.86193 0.585787,1.41421 z"
       id="path3899" />
  </g>
  <g
     id="svg-r3-c8"
     style="opacity:1;stroke:none"
     transform="matrix(1.35,0,0,1.35,101.28727,-1300.1808)">
    <path
       style="fill:#ff0000;stroke:none;stroke-width:1"
       d="m -18.064645,978.05982 c 0,0.55229 -0.223858,1.05229 -0.585787,1.41422 -0.361929,0.36192 -0.861929,0.58578 -1.414213,0.58578 -0.552284,0 -1.052284,-0.22386 -1.414213,-0.58578 -0.361929,-0.36193 -0.585787,-0.86193 -0.585787,-1.41422 0,-0.55228 0.223858,-1.05228 0.585787,-1.41421 0.361929,-0.36193 0.861929,-0.58579 1.414213,-0.58579 0.552284,0 1.052284,0.22386 1.414213,0.58579 0.361929,0.36193 0.585787,0.86193 0.585787,1.41421 z"
       id="path3909" />
  </g>
  <g
     id="svg-r3-c7"
     style="opacity:1;stroke:none"
     transform="matrix(1.35,0,0,1.35,87.787271,-1300.1808)">
    <path
       style="fill:#ff0000;stroke:none;stroke-width:1"
       d="m -18.064645,978.05982 c 0,0.55229 -0.223858,1.05229 -0.585787,1.41422 -0.361929,0.36192 -0.861929,0.58578 -1.414213,0.58578 -0.552284,0 -1.052284,-0.22386 -1.414213,-0.58578 -0.361929,-0.36193 -0.585787,-0.86193 -0.585787,-1.41422 0,-0.55228 0.223858,-1.05228 0.585787,-1.41421 0.361929,-0.36193 0.861929,-0.58579 1.414213,-0.58579 0.552284,0 1.052284,0.22386 1.414213,0.58579 0.361929,0.36193 0.585787,0.86193 0.585787,1.41421 z"
       id="path3919" />
  </g>
  <g
     id="svg-r3-c6"
     style="opacity:1;stroke:none"
     transform="matrix(1.35,0,0,1.35,74.287271,-1300.1808)">
    <path
       style="fill:#ff0000;stroke:none;stroke-width:1"
       d="m -18.064645,978.05982 c 0,0.55229 -0.223858,1.05229 -0.585787,1.41422 -0.361929,0.36192 -0.861929,0.58578 -1.414213,0.58578 -0.552284,0 -1.052284,-0.22386 -1.414213,-0.58578 -0.361929,-0.36193 -0.585787,-0.86193 -0.585787,-1.41422 0,-0.55228 0.223858,-1.05228 0.585787,-1.41421 0.361929,-0.36193 0.861929,-0.58579 1.414213,-0.58579 0.552284,0 1.052284,0.22386 1.414213,0.58579 0.361929,0.36193 0.585787,0.86193 0.585787,1.41421 z"
       id="path3929" />
  </g>
  <g
     id="svg-r3-c5"
     style="opacity:1;stroke:none"
     transform="matrix(1.35,0,0,1.35,60.787271,-1300.1808)">
    <path
       style="fill:#ff0000;stroke:none;stroke-width:1"
       d="m -18.064645,978.05982 c 0,0.55229 -0.223858,1.05229 -0.585787,1.41422 -0.361929,0.36192 -0.861929,0.58578 -1.414213,0.58578 -0.552284,0 -1.052284,-0.22386 -1.414213,-0.58578 -0.361929,-0.36193 -0.585787,-0.86193 -0.585787,-1.41422 0,-0.55228 0.223858,-1.05228 0.585787,-1.41421 0.361929,-0.36193 0.861929,-0.58579 1.414213,-0.58579 0.552284,0 1.052284,0.22386 1.414213,0.58579 0.361929,0.36193 0.585787,0.86193 0.585787,1.41421 z"
       id="path3939" />
  </g>
  <g
     id="svg-r3-c4"
     style="opacity:1;stroke:none"
     transform="matrix(1.35,0,0,1.35,47.287271,-1300.1808)">
    <path
       style="fill:#ff0000;stroke:none;stroke-width:1"
       d="m -18.064645,978.05982 c 0,0.55229 -0.223858,1.05229 -0.585787,1.41422 -0.361929,0.36192 -0.861929,0.58578 -1.414213,0.58578 -0.552284,0 -1.052284,-0.22386 -1.414213,-0.58578 -0.361929,-0.36193 -0.585787,-0.86193 -0.585787,-1.41422 0,-0.55228 0.223858,-1.05228 0.585787,-1.41421 0.361929,-0.36193 0.861929,-0.58579 1.414213,-0.58579 0.552284,0 1.052284,0.22386 1.414213,0.58579 0.361929,0.36193 0.585787,0.86193 0.585787,1.41421 z"
       id="path3949" />
  </g>
  <g
     id="svg-r3-c3"
     style="opacity:1;stroke:none"
     transform="matrix(1.35,0,0,1.35,33.787271,-1300.1808)">
    <path
       style="fill:#ff0000;stroke:none;stroke-width:1"
       d="m -18.064645,978.05982 c 0,0.55229 -0.223858,1.05229 -0.585787,1.41422 -0.361929,0.36192 -0.861929,0.58578 -1.414213,0.58578 -0.552284,0 -1.052284,-0.22386 -1.414213,-0.58578 -0.361929,-0.36193 -0.585787,-0.86193 -0.585787,-1.41422 0,-0.55228 0.223858,-1.05228 0.585787,-1.41421 0.361929,-0.36193 0.861929,-0.58579 1.414213,-0.58579 0.552284,0 1.052284,0.22386 1.414213,0.58579 0.361929,0.36193 0.585787,0.86193 0.585787,1.41421 z"
       id="path3959" />
  </g>
  <g
     id="svg-r4-c11"
     style="opacity:1;stroke:none"
     transform="matrix(1.35,0,0,1.35,141.78727,-1286.6808)">
    <path
       style="fill:#ff0000;stroke:none;stroke-width:1"
       d="m -18.064645,978.05982 c 0,0.55229 -0.223858,1.05229 -0.585787,1.41422 -0.361929,0.36192 -0.861929,0.58578 -1.414213,0.58578 -0.552284,0 -1.052284,-0.22386 -1.414213,-0.58578 -0.361929,-0.36193 -0.585787,-0.86193 -0.585787,-1.41422 0,-0.55228 0.223858,-1.05228 0.585787,-1.41421 0.361929,-0.36193 0.861929,-0.58579 1.414213,-0.58579 0.552284,0 1.052284,0.22386 1.414213,0.58579 0.361929,0.36193 0.585787,0.86193 0.585787,1.41421 z"
       id="path5969" />
  </g>
  <g
     id="svg-r4-c10"
     style="opacity:1;stroke:none"
     transform="matrix(1.35,0,0,1.35,128.28727,-1286.6808)">
    <path
       style="fill:#ff0000;stroke:none;stroke-width:1"
       d="m -18.064645,978.05982 c 0,0.55229 -0.223858,1.05229 -0.585787,1.41422 -0.361929,0.36192 -0.861929,0.58578 -1.414213,0.58578 -0.552284,0 -1.052284,-0.22386 -1.414213,-0.58578 -0.361929,-0.36193 -0.585787,-0.86193 -0.585787,-1.41422 0,-0.55228 0.223858,-1.05228 0.585787,-1.41421 0.361929,-0.36193 0.861929,-0.58579 1.414213,-0.58579 0.552284,0 1.052284,0.22386 1.414213,0.58579 0.361929,0.36193 0.585787,0.86193 0.585787,1.41421 z"
       id="path5979" />
  </g>
  <g
     id="svg-r4-c9"
     style="opacity:1;stroke:none"
     transform="matrix(1.35,0,0,1.35,114.78727,-1286.6808)">
    <path
       style="fill:#ff0000;stroke:none;stroke-width:1"
       d="m -18.064645,978.05982 c 0,0.55229 -0.223858,1.05229 -0.585787,1.41422 -0.361929,0.36192 -0.861929,0.58578 -1.414213,0.58578 -0.552284,0 -1.052284,-0.22386 -1.414213,-0.58578 -0.361929,-0.36193 -0.585787,-0.86193 -0.585787,-1.41422 0,-0.55228 0.223858,-1.05228 0.585787,-1.41421 0.361929,-0.36193 0.861929,-0.58579 1.414213,-0.58579 0.552284,0 1.052284,0.22386 1.414213,0.58579 0.361929,0.36193 0.585787,0.86193 0.585787,1.41421 z"
       id="path5989" />
  </g>
  <g
     id="svg-r4-c8"
     style="opacity:1;stroke:none"
     transform="matrix(1.35,0,0,1.35,101.28727,-1286.6808)">
    <path
       style="fill:#ff0000;stroke:none;stroke-width:1"
       d="m -18.064645,978.05982 c 0,0.55229 -0.223858,1.05229 -0.585787,1.41422 -0.361929,0.36192 -0.861929,0.58578 -1.414213,0.58578 -0.552284,0 -1.052284,-0.22386 -1.414213,-0.58578 -0.361929,-0.36193 -0.585787,-0.86193 -0.585787,-1.41422 0,-0.55228 0.223858,-1.05228 0.585787,-1.41421 0.361929,-0.36193 0.861929,-0.58579 1.414213,-0.58579 0.552284,0 1.052284,0.22386 1.414213,0.58579 0.361929,0.36193 0.585787,0.86193 0.585787,1.41421 z"
       id="path5999" />
  </g>
  <g
     id="svg-r4-c7"
     style="opacity:1;stroke:none"
     transform="matrix(1.35,0,0,1.35,87.787271,-1286.6808)">
    <path
       style="fill:#ff0000;stroke:none;stroke-width:1"
       d="m -18.064645,978.05982 c 0,0.55229 -0.223858,1.05229 -0.585787,1.41422 -0.361929,0.36192 -0.861929,0.58578 -1.414213,0.58578 -0.552284,0 -1.052284,-0.22386 -1.414213,-0.58578 -0.361929,-0.36193 -0.585787,-0.86193 -0.585787,-1.41422 0,-0.55228 0.223858,-1.05228 0.585787,-1.41421 0.361929,-0.36193 0.861929,-0.58579 1.414213,-0.58579 0.552284,0 1.052284,0.22386 1.414213,0.58579 0.361929,0.36193 0.585787,0.86193 0.585787,1.41421 z"
       id="path6009" />
  </g>
  <g
     id="svg-r4-c6"
     style="opacity:1;stroke:none"
     transform="matrix(1.35,0,0,1.35,74.287271,-1286.6808)">
    <path
       style="fill:#ff0000;stroke:none;stroke-width:1"
       d="m -18.064645,978.05982 c 0,0.55229 -0.223858,1.05229 -0.585787,1.41422 -0.361929,0.36192 -0.861929,0.58578 -1.414213,0.58578 -0.552284,0 -1.052284,-0.22386 -1.414213,-0.58578 -0.361929,-0.36193 -0.585787,-0.86193 -0.585787,-1.41422 0,-0.55228 0.223858,-1.05228 0.585787,-1.41421 0.361929,-0.36193 0.861929,-0.58579 1.414213,-0.58579 0.552284,0 1.052284,0.22386 1.414213,0.58579 0.361929,0.36193 0.585787,0.86193 0.585787,1.41421 z"
       id="path6019" />
  </g>
  <g
     id="svg-r4-c5"
     style="opacity:1;stroke:none"
     transform="matrix(1.35,0,0,1.35,60.787271,-1286.6808)">
    <path
       style="fill:#ff0000;stroke:none;stroke-width:1"
       d="m -18.064645,978.05982 c 0,0.55229 -0.223858,1.05229 -0.585787,1.41422 -0.361929,0.36192 -0.861929,0.58578 -1.414213,0.58578 -0.552284,0 -1.052284,-0.22386 -1.414213,-0.58578 -0.361929,-0.36193 -0.585787,-0.86193 -0.585787,-1.41422 0,-0.55228 0.223858,-1.05228 0.585787,-1.41421 0.361929,-0.36193 0.861929,-0.58579 1.414213,-0.58579 0.552284,0 1.052284,0.22386 1.414213,0.58579 0.361929,0.36193 0.585787,0.86193 0.585787,1.41421 z"
       id="path6029" />
  </g>
  <g
     id="svg-r4-c4"
     style="opacity:1;stroke:none"
     transform="matrix(1.35,0,0,1.35,47.287271,-1286.6808)">
    <path
       style="fill:#ff0000;stroke:none;stroke-width:1"
       d="m -18.064645,978.05982 c 0,0.55229 -0.223858,1.05229 -0.585787,1.41422 -0.361929,0.36192 -0.861929,0.58578 -1.414213,0.58578 -0.552284,0 -1.052284,-0.22386 -1.414213,-0.58578 -0.361929,-0.36193 -0.585787,-0.86193 -0.585787,-1.41422 0,-0.55228 0.223858,-1.05228 0.585787,-1.41421 0.361929,-0.36193 0.861929,-0.58579 1.414213,-0.58579 0.552284,0 1.052284,0.22386 1.414213,0.58579 0.361929,0.36193 0.585787,0.86193 0.585787,1.41421 z"
       id="path6039" />
  </g>
  <g
     id="svg-r4-c3"
     style="opacity:1;stroke:none"
     transform="matrix(1.35,0,0,1.35,33.787271,-1286.6808)">
    <path
       style="fill:#ff0000;stroke:none;stroke-width:1"
       d="m -18.064645,978.05982 c 0,0.55229 -0.223858,1.05229 -0.585787,1.41422 -0.361929,0.36192 -0.861929,0.58578 -1.414213,0.58578 -0.552284,0 -1.052284,-0.22386 -1.414213,-0.58578 -0.361929,-0.36193 -0.585787,-0.86193 -0.585787,-1.41422 0,-0.55228 0.223858,-1.05228 0.585787,-1.41421 0.361929,-0.36193 0.861929,-0.58579 1.414213,-0.58579 0.552284,0 1.052284,0.22386 1.414213,0.58579 0.361929,0.36193 0.585787,0.86193 0.585787,1.41421 z"
       id="path6049" />
  </g>
  <g
     id="svg-r5-c11"
     style="opacity:1;stroke:none"
     transform="matrix(1.35,0,0,1.35,141.78727,-1273.1808)">
    <path
       style="fill:#ff0000;stroke:none;stroke-width:1"
       d="m -18.064645,978.05982 c 0,0.55229 -0.223858,1.05229 -0.585787,1.41422 -0.361929,0.36192 -0.861929,0.58578 -1.414213,0.58578 -0.552284,0 -1.052284,-0.22386 -1.414213,-0.58578 -0.361929,-0.36193 -0.585787,-0.86193 -0.585787,-1.41422 0,-0.55228 0.223858,-1.05228 0.585787,-1.41421 0.361929,-0.36193 0.861929,-0.58579 1.414213,-0.58579 0.552284,0 1.052284,0.22386 1.414213,0.58579 0.361929,0.36193 0.585787,0.86193 0.585787,1.41421 z"
       id="path4069" />
  </g>
  <g
     id="svg-r5-c10"
     style="opacity:1;stroke:none"
     transform="matrix(1.35,0,0,1.35,128.28727,-1273.1808)">
    <path
       style="fill:#ff0000;stroke:none;stroke-width:1"
       d="m -18.064645,978.05982 c 0,0.55229 -0.223858,1.05229 -0.585787,1.41422 -0.361929,0.36192 -0.861929,0.58578 -1.414213,0.58578 -0.552284,0 -1.052284,-0.22386 -1.414213,-0.58578 -0.361929,-0.36193 -0.585787,-0.86193 -0.585787,-1.41422 0,-0.55228 0.223858,-1.05228 0.585787,-1.41421 0.361929,-0.36193 0.861929,-0.58579 1.414213,-0.58579 0.552284,0 1.052284,0.22386 1.414213,0.58579 0.361929,0.36193 0.585787,0.86193 0.585787,1.41421 z"
       id="path4079" />
  </g>
  <g
     id="svg-r5-c9"
     style="opacity:1;stroke:none"
     transform="matrix(1.35,0,0,1.35,114.78727,-1273.1808)">
    <path
       style="fill:#ff0000;stroke:none;stroke-width:1"
       d="m -18.064645,978.05982 c 0,0.55229 -0.223858,1.05229 -0.585787,1.41422 -0.361929,0.36192 -0.861929,0.58578 -1.414213,0.58578 -0.552284,0 -1.052284,-0.22386 -1.414213,-0.58578 -0.361929,-0.36193 -0.585787,-0.86193 -0.585787,-1.41422 0,-0.55228 0.223858,-1.05228 0.585787,-1.41421 0.361929,-0.36193 0.861929,-0.58579 1.414213,-0.58579 0.552284,0 1.052284,0.22386 1.414213,0.58579 0.361929,0.36193 0.585787,0.86193 0.585787,1.41421 z"
       id="path4089" />
  </g>
  <g
     id="svg-r5-c8"
     style="opacity:1;stroke:none"
     transform="matrix(1.35,0,0,1.35,101.28727,-1273.1808)">
    <path
       style="fill:#ff0000;stroke:none;stroke-width:1"
       d="m -18.064645,978.05982 c 0,0.55229 -0.223858,1.05229 -0.585787,1.41422 -0.361929,0.36192 -0.861929,0.58578 -1.414213,0.58578 -0.552284,0 -1.052284,-0.22386 -1.414213,-0.58578 -0.361929,-0.36193 -0.585787,-0.86193 -0.585787,-1.41422 0,-0.55228 0.223858,-1.05228 0.585787,-1.41421 0.361929,-0.36193 0.861929,-0.58579 1.414213,-0.58579 0.552284,0 1.052284,0.22386 1.414213,0.58579 0.361929,0.36193 0.585787,0.86193 0.585787,1.41421 z"
       id="path4099" />
  </g>
  <g
     id="svg-r5-c7"
     style="opacity:1;stroke:none"
     transform="matrix(1.35,0,0,1.35,87.787271,-1273.1808)">
    <path
       style="fill:#ff0000;stroke:none;stroke-width:1"
       d="m -18.064645,978.05982 c 0,0.55229 -0.223858,1.05229 -0.585787,1.41422 -0.361929,0.36192 -0.861929,0.58578 -1.414213,0.58578 -0.552284,0 -1.052284,-0.22386 -1.414213,-0.58578 -0.361929,-0.36193 -0.585787,-0.86193 -0.585787,-1.41422 0,-0.55228 0.223858,-1.05228 0.585787,-1.41421 0.361929,-0.36193 0.861929,-0.58579 1.414213,-0.58579 0.552284,0 1.052284,0.22386 1.414213,0.58579 0.361929,0.36193 0.585787,0.86193 0.585787,1.41421 z"
       id="path4109" />
  </g>
  <g
     id="svg-r5-c6"
     style="opacity:1;stroke:none"
     transform="matrix(1.35,0,0,1.35,74.287271,-1273.1808)">
    <path
       style="fill:#ff0000;stroke:none;stroke-width:1"
       d="m -18.064645,978.05982 c 0,0.55229 -0.223858,1.05229 -0.585787,1.41422 -0.361929,0.36192 -0.861929,0.58578 -1.414213,0.58578 -0.552284,0 -1.052284,-0.22386 -1.414213,-0.58578 -0.361929,-0.36193 -0.585787,-0.86193 -0.585787,-1.41422 0,-0.55228 0.223858,-1.05228 0.585787,-1.41421 0.361929,-0.36193 0.861929,-0.58579 1.414213,-0.58579 0.552284,0 1.052284,0.22386 1.414213,0.58579 0.361929,0.36193 0.585787,0.86193 0.585787,1.41421 z"
       id="path4119" />
  </g>
  <g
     id="svg-r5-c5"
     style="opacity:1;stroke:none"
     transform="matrix(1.35,0,0,1.35,60.787271,-1273.1808)">
    <path
       style="fill:#ff0000;stroke:none;stroke-width:1"
       d="m -18.064645,978.05982 c 0,0.55229 -0.223858,1.05229 -0.585787,1.41422 -0.361929,0.36192 -0.861929,0.58578 -1.414213,0.58578 -0.552284,0 -1.052284,-0.22386 -1.414213,-0.58578 -0.361929,-0.36193 -0.585787,-0.86193 -0.585787,-1.41422 0,-0.55228 0.223858,-1.05228 0.585787,-1.41421 0.361929,-0.36193 0.861929,-0.58579 1.414213,-0.58579 0.552284,0 1.052284,0.22386 1.414213,0.58579 0.361929,0.36193 0.585787,0.86193 0.585787,1.41421 z"
       id="path4129" />
  </g>
  <g
     id="svg-r5-c4"
     style="opacity:1;stroke:none"
     transform="matrix(1.35,0,0,1.35,47.287271,-1273.1808)">
    <path
       style="fill:#ff0000;stroke:none;stroke-width:1"
       d="m -18.064645,978.05982 c 0,0.55229 -0.223858,1.05229 -0.585787,1.41422 -0.361929,0.36192 -0.861929,0.58578 -1.414213,0.58578 -0.552284,0 -1.052284,-0.22386 -1.414213,-0.58578 -0.361929,-0.36193 -0.585787,-0.86193 -0.585787,-1.41422 0,-0.55228 0.223858,-1.05228 0.585787,-1.41421 0.361929,-0.36193 0.861929,-0.58579 1.414213,-0.58579 0.552284,0 1.052284,0.22386 1.414213,0.58579 0.361929,0.36193 0.585787,0.86193 0.585787,1.41421 z"
       id="path4139" />
  </g>
  <g
     id="svg-r5-c3"
     style="opacity:1;stroke:none"
     transform="matrix(1.35,0,0,1.35,33.787271,-1273.1808)">
    <path
       style="fill:#ff0000;stroke:none;stroke-width:1"
       d="m -18.064645,978.05982 c 0,0.55229 -0.223858,1.05229 -0.585787,1.41422 -0.361929,0.36192 -0.861929,0.58578 -1.414213,0.58578 -0.552284,0 -1.052284,-0.22386 -1.414213,-0.58578 -0.361929,-0.36193 -0.585787,-0.86193 -0.585787,-1.41422 0,-0.55228 0.223858,-1.05228 0.585787,-1.41421 0.361929,-0.36193 0.861929,-0.58579 1.414213,-0.58579 0.552284,0 1.052284,0.22386 1.414213,0.58579 0.361929,0.36193 0.585787,0.86193 0.585787,1.41421 z"
       id="path4149" />
  </g>
  <g
     id="svg-r6-c11"
     style="opacity:1;stroke:none"
     transform="matrix(1.35,0,0,1.35,141.78727,-1259.6808)">
    <path
       style="fill:#ff0000;stroke:none;stroke-width:1"
       d="m -18.064645,978.05982 c 0,0.55229 -0.223858,1.05229 -0.585787,1.41422 -0.361929,0.36192 -0.861929,0.58578 -1.414213,0.58578 -0.552284,0 -1.052284,-0.22386 -1.414213,-0.58578 -0.361929,-0.36193 -0.585787,-0.86193 -0.585787,-1.41422 0,-0.55228 0.223858,-1.05228 0.585787,-1.41421 0.361929,-0.36193 0.861929,-0.58579 1.414213,-0.58579 0.552284,0 1.052284,0.22386 1.414213,0.58579 0.361929,0.36193 0.585787,0.86193 0.585787,1.41421 z"
       id="path6159" />
  </g>
  <g
     id="svg-r6-c10"
     style="opacity:1;stroke:none"
     transform="matrix(1.35,0,0,1.35,128.28727,-1259.6808)">
    <path
       style="fill:#ff0000;stroke:none;stroke-width:1"
       d="m -18.064645,978.05982 c 0,0.55229 -0.223858,1.05229 -0.585787,1.41422 -0.361929,0.36192 -0.861929,0.58578 -1.414213,0.58578 -0.552284,0 -1.052284,-0.22386 -1.414213,-0.58578 -0.361929,-0.36193 -0.585787,-0.86193 -0.585787,-1.41422 0,-0.55228 0.223858,-1.05228 0.585787,-1.41421 0.361929,-0.36193 0.861929,-0.58579 1.414213,-0.58579 0.552284,0 1.052284,0.22386 1.414213,0.58579 0.361929,0.36193 0.585787,0.86193 0.585787,1.41421 z"
       id="path6169" />
  </g>
  <g
     id="svg-r6-c9"
     style="opacity:1;stroke:none"
     transform="matrix(1.35,0,0,1.35,114.78727,-1259.6808)">
    <path
       style="fill:#ff0000;stroke:none;stroke-width:1"
       d="m -18.064645,978.05982 c 0,0.55229 -0.223858,1.05229 -0.585787,1.41422 -0.361929,0.36192 -0.861929,0.58578 -1.414213,0.58578 -0.552284,0 -1.052284,-0.22386 -1.414213,-0.58578 -0.361929,-0.36193 -0.585787,-0.86193 -0.585787,-1.41422 0,-0.55228 0.223858,-1.05228 0.585787,-1.41421 0.361929,-0.36193 0.861929,-0.58579 1.414213,-0.58579 0.552284,0 1.052284,0.22386 1.414213,0.58579 0.361929,0.36193 0.585787,0.86193 0.585787,1.41421 z"
       id="path6179" />
  </g>
  <g
     id="svg-r6-c8"
     style="opacity:1;stroke:none"
     transform="matrix(1.35,0,0,1.35,101.28727,-1259.6808)">
    <path
       style="fill:#ff0000;stroke:none;stroke-width:1"
       d="m -18.064645,978.05982 c 0,0.55229 -0.223858,1.05229 -0.585787,1.41422 -0.361929,0.36192 -0.861929,0.58578 -1.414213,0.58578 -0.552284,0 -1.052284,-0.22386 -1.414213,-0.58578 -0.361929,-0.36193 -0.585787,-0.86193 -0.585787,-1.41422 0,-0.55228 0.223858,-1.05228 0.585787,-1.41421 0.361929,-0.36193 0.861929,-0.58579 1.414213,-0.58579 0.552284,0 1.052284,0.22386 1.414213,0.58579 0.361929,0.36193 0.585787,0.86193 0.585787,1.41421 z"
       id="path6189" />
  </g>
  <g
     id="svg-r6-c7"
     style="opacity:1;stroke:none"
     transform="matrix(1.35,0,0,1.35,87.787271,-1259.6808)">
    <path
       style="fill:#ff0000;stroke:none;stroke-width:1"
       d="m -18.064645,978.05982 c 0,0.55229 -0.223858,1.05229 -0.585787,1.41422 -0.361929,0.36192 -0.861929,0.58578 -1.414213,0.58578 -0.552284,0 -1.052284,-0.22386 -1.414213,-0.58578 -0.361929,-0.36193 -0.585787,-0.86193 -0.585787,-1.41422 0,-0.55228 0.223858,-1.05228 0.585787,-1.41421 0.361929,-0.36193 0.861929,-0.58579 1.414213,-0.58579 0.552284,0 1.052284,0.22386 1.414213,0.58579 0.361929,0.36193 0.585787,0.86193 0.585787,1.41421 z"
       id="path6199" />
  </g>
  <g
     id="svg-r6-c6"
     style="opacity:1;stroke:none"
     transform="matrix(1.35,0,0,1.35,74.287271,-1259.6808)">
    <path
       style="fill:#ff0000;stroke:none;stroke-width:1"
       d="m -18.064645,978.05982 c 0,0.55229 -0.223858,1.05229 -0.585787,1.41422 -0.361929,0.36192 -0.861929,0.58578 -1.414213,0.58578 -0.552284,0 -1.052284,-0.22386 -1.414213,-0.58578 -0.361929,-0.36193 -0.585787,-0.86193 -0.585787,-1.41422 0,-0.55228 0.223858,-1.05228 0.585787,-1.41421 0.361929,-0.36193 0.861929,-0.58579 1.414213,-0.58579 0.552284,0 1.052284,0.22386 1.414213,0.58579 0.361929,0.36193 0.585787,0.86193 0.585787,1.41421 z"
       id="path6209" />
  </g>
  <g
     id="svg-r6-c5"
     style="opacity:1;stroke:none"
     transform="matrix(1.35,0,0,1.35,60.787271,-1259.6808)">
    <path
       style="fill:#ff0000;stroke:none;stroke-width:1"
       d="m -18.064645,978.05982 c 0,0.55229 -0.223858,1.05229 -0.585787,1.41422 -0.361929,0.36192 -0.861929,0.58578 -1.414213,0.58578 -0.552284,0 -1.052284,-0.22386 -1.414213,-0.58578 -0.361929,-0.36193 -0.585787,-0.86193 -0.585787,-1.41422 0,-0.55228 0.223858,-1.05228 0.585787,-1.41421 0.361929,-0.36193 0.861929,-0.58579 1.414213,-0.58579 0.552284,0 1.052284,0.22386 1.414213,0.58579 0.361929,0.36193 0.585787,0.86193 0.585787,1.41421 z"
       id="path6219" />
  </g>
  <g
     id="svg-r6-c4"
     style="opacity:1;stroke:none"
     transform="matrix(1.35,0,0,1.35,47.287271,-1259.6808)">
    <path
       style="fill:#ff0000;stroke:none;stroke-width:1"
       d="m -18.064645,978.05982 c 0,0.55229 -0.223858,1.05229 -0.585787,1.41422 -0.361929,0.36192 -0.861929,0.58578 -1.414213,0.58578 -0.552284,0 -1.052284,-0.22386 -1.414213,-0.58578 -0.361929,-0.36193 -0.585787,-0.86193 -0.585787,-1.41422 0,-0.55228 0.223858,-1.05228 0.585787,-1.41421 0.361929,-0.36193 0.861929,-0.58579 1.414213,-0.58579 0.552284,0 1.052284,0.22386 1.414213,0.58579 0.361929,0.36193 0.585787,0.86193 0.585787,1.41421 z"
       id="path6229" />
  </g>
  <g
     id="svg-r6-c3"
     style="opacity:1;stroke:none"
     transform="matrix(1.35,0,0,1.35,33.787271,-1259.6808)">
    <path
       style="fill:#ff0000;stroke:none;stroke-width:1"
       d="m -18.064645,978.05982 c 0,0.55229 -0.223858,1.05229 -0.585787,1.41422 -0.361929,0.36192 -0.861929,0.58578 -1.414213,0.58578 -0.552284,0 -1.052284,-0.22386 -1.414213,-0.58578 -0.361929,-0.36193 -0.585787,-0.86193 -0.585787,-1.41422 0,-0.55228 0.223858,-1.05228 0.585787,-1.41421 0.361929,-0.36193 0.861929,-0.58579 1.414213,-0.58579 0.552284,0 1.052284,0.22386 1.414213,0.58579 0.361929,0.36193 0.585787,0.86193 0.585787,1.41421 z"
       id="path6239" />
  </g>
  <g
     id="svg-r7-c11"
     style="opacity:1;stroke:none"
     transform="matrix(1.35,0,0,1.35,141.78727,-1246.1808)">
    <path
       style="fill:#ff0000;stroke:none;stroke-width:1"
       d="m -18.064645,978.05982 c 0,0.55229 -0.223858,1.05229 -0.585787,1.41422 -0.361929,0.36192 -0.861929,0.58578 -1.414213,0.58578 -0.552284,0 -1.052284,-0.22386 -1.414213,-0.58578 -0.361929,-0.36193 -0.585787,-0.86193 -0.585787,-1.41422 0,-0.55228 0.223858,-1.05228 0.585787,-1.41421 0.361929,-0.36193 0.861929,-0.58579 1.414213,-0.58579 0.552284,0 1.052284,0.22386 1.414213,0.58579 0.361929,0.36193 0.585787,0.86193 0.585787,1.41421 z"
       id="path4259" />
  </g>
  <g
     id="svg-r7-c10"
     style="opacity:1;stroke:none"
     transform="matrix(1.35,0,0,1.35,128.28727,-1246.1808)">
    <path
       style="fill:#ff0000;stroke:none;stroke-width:1"
       d="m -18.064645,978.05982 c 0,0.55229 -0.223858,1.05229 -0.585787,1.41422 -0.361929,0.36192 -0.861929,0.58578 -1.414213,0.58578 -0.552284,0 -1.052284,-0.22386 -1.414213,-0.58578 -0.361929,-0.36193 -0.585787,-0.86193 -0.585787,-1.41422 0,-0.55228 0.223858,-1.05228 0.585787,-1.41421 0.361929,-0.36193 0.861929,-0.58579 1.414213,-0.58579 0.552284,0 1.052284,0.22386 1.414213,0.58579 0.361929,0.36193 0.585787,0.86193 0.585787,1.41421 z"
       id="path4269" />
  </g>
  <g
     id="svg-r7-c9"
     style="opacity:1;stroke:none"
     transform="matrix(1.35,0,0,1.35,114.78727,-1246.1808)">
    <path
       style="fill:#ff0000;stroke:none;stroke-width:1"
       d="m -18.064645,978.05982 c 0,0.55229 -0.223858,1.05229 -0.585787,1.41422 -0.361929,0.36192 -0.861929,0.58578 -1.414213,0.58578 -0.552284,0 -1.052284,-0.22386 -1.414213,-0.58578 -0.361929,-0.36193 -0.585787,-0.86193 -0.585787,-1.41422 0,-0.55228 0.223858,-1.05228 0.585787,-1.41421 0.361929,-0.36193 0.861929,-0.58579 1.414213,-0.58579 0.552284,0 1.052284,0.22386 1.414213,0.58579 0.361929,0.36193 0.585787,0.86193 0.585787,1.41421 z"
       id="path4279" />
  </g>
  <g
     id="svg-r7-c8"
     style="opacity:1;stroke:none"
     transform="matrix(1.35,0,0,1.35,101.28727,-1246.1808)">
    <path
       style="fill:#ff0000;stroke:none;stroke-width:1"
       d="m -18.064645,978.05982 c 0,0.55229 -0.223858,1.05229 -0.585787,1.41422 -0.361929,0.36192 -0.861929,0.58578 -1.414213,0.58578 -0.552284,0 -1.052284,-0.22386 -1.414213,-0.58578 -0.361929,-0.36193 -0.585787,-0.86193 -0.585787,-1.41422 0,-0.55228 0.223858,-1.05228 0.585787,-1.41421 0.361929,-0.36193 0.861929,-0.58579 1.414213,-0.58579 0.552284,0 1.052284,0.22386 1.414213,0.58579 0.361929,0.36193 0.585787,0.86193 0.585787,1.41421 z"
       id="path4289" />
  </g>
  <g
     id="svg-r7-c7"
     style="opacity:1;stroke:none"
     transform="matrix(1.35,0,0,1.35,87.787271,-1246.1808)">
    <path
       style="fill:#ff0000;stroke:none;stroke-width:1"
       d="m -18.064645,978.05982 c 0,0.55229 -0.223858,1.05229 -0.585787,1.41422 -0.361929,0.36192 -0.861929,0.58578 -1.414213,0.58578 -0.552284,0 -1.052284,-0.22386 -1.414213,-0.58578 -0.361929,-0.36193 -0.585787,-0.86193 -0.585787,-1.41422 0,-0.55228 0.223858,-1.05228 0.585787,-1.41421 0.361929,-0.36193 0.861929,-0.58579 1.414213,-0.58579 0.552284,0 1.052284,0.22386 1.414213,0.58579 0.361929,0.36193 0.585787,0.86193 0.585787,1.41421 z"
       id="path4299" />
  </g>
  <g
     id="svg-r7-c6"
     style="opacity:1;stroke:none"
     transform="matrix(1.35,0,0,1.35,74.287271,-1246.1808)">
    <path
       style="fill:#ff0000;stroke:none;stroke-width:1"
       d="m -18.064645,978.05982 c 0,0.55229 -0.223858,1.05229 -0.585787,1.41422 -0.361929,0.36192 -0.861929,0.58578 -1.414213,0.58578 -0.552284,0 -1.052284,-0.22386 -1.414213,-0.58578 -0.361929,-0.36193 -0.585787,-0.86193 -0.585787,-1.41422 0,-0.55228 0.223858,-1.05228 0.585787,-1.41421 0.361929,-0.36193 0.861929,-0.58579 1.414213,-0.58579 0.552284,0 1.052284,0.22386 1.414213,0.58579 0.361929,0.36193 0.585787,0.86193 0.585787,1.41421 z"
       id="path4309" />
  </g>
  <g
     id="svg-r7-c5"
     style="opacity:1;stroke:none"
     transform="matrix(1.35,0,0,1.35,60.787271,-1246.1808)">
    <path
       style="fill:#ff0000;stroke:none;stroke-width:1"
       d="m -18.064645,978.05982 c 0,0.55229 -0.223858,1.05229 -0.585787,1.41422 -0.361929,0.36192 -0.861929,0.58578 -1.414213,0.58578 -0.552284,0 -1.052284,-0.22386 -1.414213,-0.58578 -0.361929,-0.36193 -0.585787,-0.86193 -0.585787,-1.41422 0,-0.55228 0.223858,-1.05228 0.585787,-1.41421 0.361929,-0.36193 0.861929,-0.58579 1.414213,-0.58579 0.552284,0 1.052284,0.22386 1.414213,0.58579 0.361929,0.36193 0.585787,0.86193 0.585787,1.41421 z"
       id="path4319" />
  </g>
  <g
     id="svg-r7-c4"
     style="opacity:1;stroke:none"
     transform="matrix(1.35,0,0,1.35,47.287271,-1246.1808)">
    <path
       style="fill:#ff0000;stroke:none;stroke-width:1"
       d="m -18.064645,978.05982 c 0,0.55229 -0.223858,1.05229 -0.585787,1.41422 -0.361929,0.36192 -0.861929,0.58578 -1.414213,0.58578 -0.552284,0 -1.052284,-0.22386 -1.414213,-0.58578 -0.361929,-0.36193 -0.585787,-0.86193 -0.585787,-1.41422 0,-0.55228 0.223858,-1.05228 0.585787,-1.41421 0.361929,-0.36193 0.861929,-0.58579 1.414213,-0.58579 0.552284,0 1.052284,0.22386 1.414213,0.58579 0.361929,0.36193 0.585787,0.86193 0.585787,1.41421 z"
       id="path4329" />
  </g>
  <g
     id="svg-r7-c3"
     style="opacity:1;stroke:none"
     transform="matrix(1.35,0,0,1.35,33.787271,-1246.1808)">
    <path
       style="fill:#ff0000;stroke:none;stroke-width:1"
       d="m -18.064645,978.05982 c 0,0.55229 -0.223858,1.05229 -0.585787,1.41422 -0.361929,0.36192 -0.861929,0.58578 -1.414213,0.58578 -0.552284,0 -1.052284,-0.22386 -1.414213,-0.58578 -0.361929,-0.36193 -0.585787,-0.86193 -0.585787,-1.41422 0,-0.55228 0.223858,-1.05228 0.585787,-1.41421 0.361929,-0.36193 0.861929,-0.58579 1.414213,-0.58579 0.552284,0 1.052284,0.22386 1.414213,0.58579 0.361929,0.36193 0.585787,0.86193 0.585787,1.41421 z"
       id="path4339" />
  </g>
  <g
     id="svg-r8-c11"
     style="opacity:1;stroke:none"
     transform="matrix(1.35,0,0,1.35,141.78727,-1232.6808)">
    <path
       style="fill:#ff0000;stroke:none;stroke-width:1"
       d="m -18.064645,978.05982 c 0,0.55229 -0.223858,1.05229 -0.585787,1.41422 -0.361929,0.36192 -0.861929,0.58578 -1.414213,0.58578 -0.552284,0 -1.052284,-0.22386 -1.414213,-0.58578 -0.361929,-0.36193 -0.585787,-0.86193 -0.585787,-1.41422 0,-0.55228 0.223858,-1.05228 0.585787,-1.41421 0.361929,-0.36193 0.861929,-0.58579 1.414213,-0.58579 0.552284,0 1.052284,0.22386 1.414213,0.58579 0.361929,0.36193 0.585787,0.86193 0.585787,1.41421 z"
       id="path6349" />
  </g>
  <g
     id="svg-r8-c10"
     style="opacity:1;stroke:none"
     transform="matrix(1.35,0,0,1.35,128.28727,-1232.6808)">
    <path
       style="fill:#ff0000;stroke:none;stroke-width:1"
       d="m -18.064645,978.05982 c 0,0.55229 -0.223858,1.05229 -0.585787,1.41422 -0.361929,0.36192 -0.861929,0.58578 -1.414213,0.58578 -0.552284,0 -1.052284,-0.22386 -1.414213,-0.58578 -0.361929,-0.36193 -0.585787,-0.86193 -0.585787,-1.41422 0,-0.55228 0.223858,-1.05228 0.585787,-1.41421 0.361929,-0.36193 0.861929,-0.58579 1.414213,-0.58579 0.552284,0 1.052284,0.22386 1.414213,0.58579 0.361929,0.36193 0.585787,0.86193 0.585787,1.41421 z"
       id="path6359" />
  </g>
  <g
     id="svg-r8-c9"
     style="opacity:1;stroke:none"
     transform="matrix(1.35,0,0,1.35,114.78727,-1232.6808)">
    <path
       style="fill:#ff0000;stroke:none;stroke-width:1"
       d="m -18.064645,978.05982 c 0,0.55229 -0.223858,1.05229 -0.585787,1.41422 -0.361929,0.36192 -0.861929,0.58578 -1.414213,0.58578 -0.552284,0 -1.052284,-0.22386 -1.414213,-0.58578 -0.361929,-0.36193 -0.585787,-0.86193 -0.585787,-1.41422 0,-0.55228 0.223858,-1.05228 0.585787,-1.41421 0.361929,-0.36193 0.861929,-0.58579 1.414213,-0.58579 0.552284,0 1.052284,0.22386 1.414213,0.58579 0.361929,0.36193 0.585787,0.86193 0.585787,1.41421 z"
       id="path6369" />
  </g>
  <g
     id="svg-r8-c8"
     style="opacity:1;stroke:none"
     transform="matrix(1.35,0,0,1.35,101.28727,-1232.6808)">
    <path
       style="fill:#ff0000;stroke:none;stroke-width:1"
       d="m -18.064645,978.05982 c 0,0.55229 -0.223858,1.05229 -0.585787,1.41422 -0.361929,0.36192 -0.861929,0.58578 -1.414213,0.58578 -0.552284,0 -1.052284,-0.22386 -1.414213,-0.58578 -0.361929,-0.36193 -0.585787,-0.86193 -0.585787,-1.41422 0,-0.55228 0.223858,-1.05228 0.585787,-1.41421 0.361929,-0.36193 0.861929,-0.58579 1.414213,-0.58579 0.552284,0 1.052284,0.22386 1.414213,0.58579 0.361929,0.36193 0.585787,0.86193 0.585787,1.41421 z"
       id="path6379" />
  </g>
  <g
     id="svg-r8-c7"
     style="opacity:1;stroke:none"
     transform="matrix(1.35,0,0,1.35,87.787271,-1232.6808)">
    <path
       style="fill:#ff0000;stroke:none;stroke-width:1"
       d="m -18.064645,978.05982 c 0,0.55229 -0.223858,1.05229 -0.585787,1.41422 -0.361929,0.36192 -0.861929,0.58578 -1.414213,0.58578 -0.552284,0 -1.052284,-0.22386 -1.414213,-0.58578 -0.361929,-0.36193 -0.585787,-0.86193 -0.585787,-1.41422 0,-0.55228 0.223858,-1.05228 0.585787,-1.41421 0.361929,-0.36193 0.861929,-0.58579 1.414213,-0.58579 0.552284,0 1.052284,0.22386 1.414213,0.58579 0.361929,0.36193 0.585787,0.86193 0.585787,1.41421 z"
       id="path6389" />
  </g>
  <g
     id="svg-r8-c6"
     style="opacity:1;stroke:none"
     transform="matrix(1.35,0,0,1.35,74.287271,-1232.6808)">
    <path
       style="fill:#ff0000;stroke:none;stroke-width:1"
       d="m -18.064645,978.05982 c 0,0.55229 -0.223858,1.05229 -0.585787,1.41422 -0.361929,0.36192 -0.861929,0.58578 -1.414213,0.58578 -0.552284,0 -1.052284,-0.22386 -1.414213,-0.58578 -0.361929,-0.36193 -0.585787,-0.86193 -0.585787,-1.41422 0,-0.55228 0.223858,-1.05228 0.585787,-1.41421 0.361929,-0.36193 0.861929,-0.58579 1.414213,-0.58579 0.552284,0 1.052284,0.22386 1.414213,0.58579 0.361929,0.36193 0.585787,0.86193 0.585787,1.41421 z"
       id="path6399" />
  </g>
  <g
     id="svg-r8-c5"
     style="opacity:1;stroke:none"
     transform="matrix(1.35,0,0,1.35,60.787271,-1232.6808)">
    <path
       style="fill:#ff0000;stroke:none;stroke-width:1"
       d="m -18.064645,978.05982 c 0,0.55229 -0.223858,1.05229 -0.585787,1.41422 -0.361929,0.36192 -0.861929,0.58578 -1.414213,0.58578 -0.552284,0 -1.052284,-0.22386 -1.414213,-0.58578 -0.361929,-0.36193 -0.585787,-0.86193 -0.585787,-1.41422 0,-0.55228 0.223858,-1.05228 0.585787,-1.41421 0.361929,-0.36193 0.861929,-0.58579 1.414213,-0.58579 0.552284,0 1.052284,0.22386 1.414213,0.58579 0.361929,0.36193 0.585787,0.86193 0.585787,1.41421 z"
       id="path6409" />
  </g>
  <g
     id="svg-r8-c4"
     style="opacity:1;stroke:none"
     transform="matrix(1.35,0,0,1.35,47.287271,-1232.6808)">
    <path
       style="fill:#ff0000;stroke:none;stroke-width:1"
       d="m -18.064645,978.05982 c 0,0.55229 -0.223858,1.05229 -0.585787,1.41422 -0.361929,0.36192 -0.861929,0.58578 -1.414213,0.58578 -0.552284,0 -1.052284,-0.22386 -1.414213,-0.58578 -0.361929,-0.36193 -0.585787,-0.86193 -0.585787,-1.41422 0,-0.55228 0.223858,-1.05228 0.585787,-1.41421 0.361929,-0.36193 0.861929,-0.58579 1.414213,-0.58579 0.552284,0 1.052284,0.22386 1.414213,0.58579 0.361929,0.36193 0.585787,0.86193 0.585787,1.41421 z"
       id="path6419" />
  </g>
  <g
     id="svg-r8-c3"
     style="opacity:1;stroke:none"
     transform="matrix(1.35,0,0,1.35,33.787271,-1232.6808)">
    <path
       style="fill:#ff0000;stroke:none;stroke-width:1"
       d="m -18.064645,978.05982 c 0,0.55229 -0.223858,1.05229 -0.585787,1.41422 -0.361929,0.36192 -0.861929,0.58578 -1.414213,0.58578 -0.552284,0 -1.052284,-0.22386 -1.414213,-0.58578 -0.361929,-0.36193 -0.585787,-0.86193 -0.585787,-1.41422 0,-0.55228 0.223858,-1.05228 0.585787,-1.41421 0.361929,-0.36193 0.861929,-0.58579 1.414213,-0.58579 0.552284,0 1.052284,0.22386 1.414213,0.58579 0.361929,0.36193 0.585787,0.86193 0.585787,1.41421 z"
       id="path6429" />
  </g>
  <g
     id="svg-r9-c11"
     style="opacity:1;stroke:none"
     transform="matrix(1.35,0,0,1.35,141.78727,-1219.1808)">
    <path
       style="fill:#ff0000;stroke:none;stroke-width:1"
       d="m -18.064645,978.05982 c 0,0.55229 -0.223858,1.05229 -0.585787,1.41422 -0.361929,0.36192 -0.861929,0.58578 -1.414213,0.58578 -0.552284,0 -1.052284,-0.22386 -1.414213,-0.58578 -0.361929,-0.36193 -0.585787,-0.86193 -0.585787,-1.41422 0,-0.55228 0.223858,-1.05228 0.585787,-1.41421 0.361929,-0.36193 0.861929,-0.58579 1.414213,-0.58579 0.552284,0 1.052284,0.22386 1.414213,0.58579 0.361929,0.36193 0.585787,0.86193 0.585787,1.41421 z"
       id="path4449" />
  </g>
  <g
     id="svg-r9-c10"
     style="opacity:1;stroke:none"
     transform="matrix(1.35,0,0,1.35,128.28727,-1219.1808)">
    <path
       style="fill:#ff0000;stroke:none;stroke-width:1"
       d="m -18.064645,978.05982 c 0,0.55229 -0.223858,1.05229 -0.585787,1.41422 -0.361929,0.36192 -0.861929,0.58578 -1.414213,0.58578 -0.552284,0 -1.052284,-0.22386 -1.414213,-0.58578 -0.361929,-0.36193 -0.585787,-0.86193 -0.585787,-1.41422 0,-0.55228 0.223858,-1.05228 0.585787,-1.41421 0.361929,-0.36193 0.861929,-0.58579 1.414213,-0.58579 0.552284,0 1.052284,0.22386 1.414213,0.58579 0.361929,0.36193 0.585787,0.86193 0.585787,1.41421 z"
       id="path4459" />
  </g>
  <g
     id="svg-r9-c9"
     style="opacity:1;stroke:none"
     transform="matrix(1.35,0,0,1.35,114.78727,-1219.1808)">
    <path
       style="fill:#ff0000;stroke:none;stroke-width:1"
       d="m -18.064645,978.05982 c 0,0.55229 -0.223858,1.05229 -0.585787,1.41422 -0.361929,0.36192 -0.861929,0.58578 -1.414213,0.58578 -0.552284,0 -1.052284,-0.22386 -1.414213,-0.58578 -0.361929,-0.36193 -0.585787,-0.86193 -0.585787,-1.41422 0,-0.55228 0.223858,-1.05228 0.585787,-1.41421 0.361929,-0.36193 0.861929,-0.58579 1.414213,-0.58579 0.552284,0 1.052284,0.22386 1.414213,0.58579 0.361929,0.36193 0.585787,0.86193 0.585787,1.41421 z"
       id="path4469" />
  </g>
  <g
     id="svg-r9-c8"
     style="opacity:1;stroke:none"
     transform="matrix(1.35,0,0,1.35,101.28727,-1219.1808)">
    <path
       style="fill:#ff0000;stroke:none;stroke-width:1"
       d="m -18.064645,978.05982 c 0,0.55229 -0.223858,1.05229 -0.585787,1.41422 -0.361929,0.36192 -0.861929,0.58578 -1.414213,0.58578 -0.552284,0 -1.052284,-0.22386 -1.414213,-0.58578 -0.361929,-0.36193 -0.585787,-0.86193 -0.585787,-1.41422 0,-0.55228 0.223858,-1.05228 0.585787,-1.41421 0.361929,-0.36193 0.861929,-0.58579 1.414213,-0.58579 0.552284,0 1.052284,0.22386 1.414213,0.58579 0.361929,0.36193 0.585787,0.86193 0.585787,1.41421 z"
       id="path4479" />
  </g>
  <g
     id="svg-r9-c7"
     style="opacity:1;stroke:none"
     transform="matrix(1.35,0,0,1.35,87.787271,-1219.1808)">
    <path
       style="fill:#ff0000;stroke:none;stroke-width:1"
       d="m -18.064645,978.05982 c 0,0.55229 -0.223858,1.05229 -0.585787,1.41422 -0.361929,0.36192 -0.861929,0.58578 -1.414213,0.58578 -0.552284,0 -1.052284,-0.22386 -1.414213,-0.58578 -0.361929,-0.36193 -0.585787,-0.86193 -0.585787,-1.41422 0,-0.55228 0.223858,-1.05228 0.585787,-1.41421 0.361929,-0.36193 0.861929,-0.58579 1.414213,-0.58579 0.552284,0 1.052284,0.22386 1.414213,0.58579 0.361929,0.36193 0.585787,0.86193 0.585787,1.41421 z"
       id="path4489" />
  </g>
  <g
     id="svg-r9-c6"
     style="opacity:1;stroke:none"
     transform="matrix(1.35,0,0,1.35,74.287271,-1219.1808)">
    <path
       style="fill:#ff0000;stroke:none;stroke-width:1"
       d="m -18.064645,978.05982 c 0,0.55229 -0.223858,1.05229 -0.585787,1.41422 -0.361929,0.36192 -0.861929,0.58578 -1.414213,0.58578 -0.552284,0 -1.052284,-0.22386 -1.414213,-0.58578 -0.361929,-0.36193 -0.585787,-0.86193 -0.585787,-1.41422 0,-0.55228 0.223858,-1.05228 0.585787,-1.41421 0.361929,-0.36193 0.861929,-0.58579 1.414213,-0.58579 0.552284,0 1.052284,0.22386 1.414213,0.58579 0.361929,0.36193 0.585787,0.86193 0.585787,1.41421 z"
       id="path4499" />
  </g>
  <g
     id="svg-r9-c5"
     style="opacity:1;stroke:none"
     transform="matrix(1.35,0,0,1.35,60.787271,-1219.1808)">
    <path
       style="fill:#ff0000;stroke:none;stroke-width:1"
       d="m -18.064645,978.05982 c 0,0.55229 -0.223858,1.05229 -0.585787,1.41422 -0.361929,0.36192 -0.861929,0.58578 -1.414213,0.58578 -0.552284,0 -1.052284,-0.22386 -1.414213,-0.58578 -0.361929,-0.36193 -0.585787,-0.86193 -0.585787,-1.41422 0,-0.55228 0.223858,-1.05228 0.585787,-1.41421 0.361929,-0.36193 0.861929,-0.58579 1.414213,-0.58579 0.552284,0 1.052284,0.22386 1.414213,0.58579 0.361929,0.36193 0.585787,0.86193 0.585787,1.41421 z"
       id="path4509" />
  </g>
  <g
     id="svg-r9-c4"
     style="opacity:1;stroke:none"
     transform="matrix(1.35,0,0,1.35,47.287271,-1219.1808)">
    <path
       style="fill:#ff0000;stroke:none;stroke-width:1"
       d="m -18.064645,978.05982 c 0,0.55229 -0.223858,1.05229 -0.585787,1.41422 -0.361929,0.36192 -0.861929,0.58578 -1.414213,0.58578 -0.552284,0 -1.052284,-0.22386 -1.414213,-0.58578 -0.361929,-0.36193 -0.585787,-0.86193 -0.585787,-1.41422 0,-0.55228 0.223858,-1.05228 0.585787,-1.41421 0.361929,-0.36193 0.861929,-0.58579 1.414213,-0.58579 0.552284,0 1.052284,0.22386 1.414213,0.58579 0.361929,0.36193 0.585787,0.86193 0.585787,1.41421 z"
       id="path4519" />
  </g>
  <g
     id="svg-r9-c3"
     style="opacity:1;stroke:none"
     transform="matrix(1.35,0,0,1.35,33.787271,-1219.1808)">
    <path
       style="fill:#ff0000;stroke:none;stroke-width:1"
       d="m -18.064645,978.05982 c 0,0.55229 -0.223858,1.05229 -0.585787,1.41422 -0.361929,0.36192 -0.861929,0.58578 -1.414213,0.58578 -0.552284,0 -1.052284,-0.22386 -1.414213,-0.58578 -0.361929,-0.36193 -0.585787,-0.86193 -0.585787,-1.41422 0,-0.55228 0.223858,-1.05228 0.585787,-1.41421 0.361929,-0.36193 0.861929,-0.58579 1.414213,-0.58579 0.552284,0 1.052284,0.22386 1.414213,0.58579 0.361929,0.36193 0.585787,0.86193 0.585787,1.41421 z"
       id="path4529" />
  </g>
  <g
     id="svg-r10-c11"
     style="opacity:1;stroke:none"
     transform="matrix(1.35,0,0,1.35,141.78727,-1205.6808)">
    <path
       style="fill:#ff0000;stroke:none;stroke-width:1"
       d="m -18.064645,978.05982 c 0,0.55229 -0.223858,1.05229 -0.585787,1.41422 -0.361929,0.36192 -0.861929,0.58578 -1.414213,0.58578 -0.552284,0 -1.052284,-0.22386 -1.414213,-0.58578 -0.361929,-0.36193 -0.585787,-0.86193 -0.585787,-1.41422 0,-0.55228 0.223858,-1.05228 0.585787,-1.41421 0.361929,-0.36193 0.861929,-0.58579 1.414213,-0.58579 0.552284,0 1.052284,0.22386 1.414213,0.58579 0.361929,0.36193 0.585787,0.86193 0.585787,1.41421 z"
       id="path6539" />
  </g>
  <g
     id="svg-r10-c10"
     style="opacity:1;stroke:none"
     transform="matrix(1.35,0,0,1.35,128.28727,-1205.6808)">
    <path
       style="fill:#ff0000;stroke:none;stroke-width:1"
       d="m -18.064645,978.05982 c 0,0.55229 -0.223858,1.05229 -0.585787,1.41422 -0.361929,0.36192 -0.861929,0.58578 -1.414213,0.58578 -0.552284,0 -1.052284,-0.22386 -1.414213,-0.58578 -0.361929,-0.36193 -0.585787,-0.86193 -0.585787,-1.41422 0,-0.55228 0.223858,-1.05228 0.585787,-1.41421 0.361929,-0.36193 0.861929,-0.58579 1.414213,-0.58579 0.552284,0 1.052284,0.22386 1.414213,0.58579 0.361929,0.36193 0.585787,0.86193 0.585787,1.41421 z"
       id="path6549" />
  </g>
  <g
     id="svg-r10-c9"
     style="opacity:1;stroke:none"
     transform="matrix(1.35,0,0,1.35,114.78727,-1205.6808)">
    <path
       style="fill:#ff0000;stroke:none;stroke-width:1"
       d="m -18.064645,978.05982 c 0,0.55229 -0.223858,1.05229 -0.585787,1.41422 -0.361929,0.36192 -0.861929,0.58578 -1.414213,0.58578 -0.552284,0 -1.052284,-0.22386 -1.414213,-0.58578 -0.361929,-0.36193 -0.585787,-0.86193 -0.585787,-1.41422 0,-0.55228 0.223858,-1.05228 0.585787,-1.41421 0.361929,-0.36193 0.861929,-0.58579 1.414213,-0.58579 0.552284,0 1.052284,0.22386 1.414213,0.58579 0.361929,0.36193 0.585787,0.86193 0.585787,1.41421 z"
       id="path6559" />
  </g>
  <g
     id="svg-r10-c8"
     style="opacity:1;stroke:none"
     transform="matrix(1.35,0,0,1.35,101.28727,-1205.6808)">
    <path
       style="fill:#ff0000;stroke:none;stroke-width:1"
       d="m -18.064645,978.05982 c 0,0.55229 -0.223858,1.05229 -0.585787,1.41422 -0.361929,0.36192 -0.861929,0.58578 -1.414213,0.58578 -0.552284,0 -1.052284,-0.22386 -1.414213,-0.58578 -0.361929,-0.36193 -0.585787,-0.86193 -0.585787,-1.41422 0,-0.55228 0.223858,-1.05228 0.585787,-1.41421 0.361929,-0.36193 0.861929,-0.58579 1.414213,-0.58579 0.552284,0 1.052284,0.22386 1.414213,0.58579 0.361929,0.36193 0.585787,0.86193 0.585787,1.41421 z"
       id="path6569" />
  </g>
  <g
     id="svg-r10-c7"
     style="opacity:1;stroke:none"
     transform="matrix(1.35,0,0,1.35,87.787271,-1205.6808)">
    <path
       style="fill:#ff0000;stroke:none;stroke-width:1"
       d="m -18.064645,978.05982 c 0,0.55229 -0.223858,1.05229 -0.585787,1.41422 -0.361929,0.36192 -0.861929,0.58578 -1.414213,0.58578 -0.552284,0 -1.052284,-0.22386 -1.414213,-0.58578 -0.361929,-0.36193 -0.585787,-0.86193 -0.585787,-1.41422 0,-0.55228 0.223858,-1.05228 0.585787,-1.41421 0.361929,-0.36193 0.861929,-0.58579 1.414213,-0.58579 0.552284,0 1.052284,0.22386 1.414213,0.58579 0.361929,0.36193 0.585787,0.86193 0.585787,1.41421 z"
       id="path6579" />
  </g>
  <g
     id="svg-r10-c6"
     style="opacity:1;stroke:none"
     transform="matrix(1.35,0,0,1.35,74.287271,-1205.6808)">
    <path
       style="fill:#ff0000;stroke:none;stroke-width:1"
       d="m -18.064645,978.05982 c 0,0.55229 -0.223858,1.05229 -0.585787,1.41422 -0.361929,0.36192 -0.861929,0.58578 -1.414213,0.58578 -0.552284,0 -1.052284,-0.22386 -1.414213,-0.58578 -0.361929,-0.36193 -0.585787,-0.86193 -0.585787,-1.41422 0,-0.55228 0.223858,-1.05228 0.585787,-1.41421 0.361929,-0.36193 0.861929,-0.58579 1.414213,-0.58579 0.552284,0 1.052284,0.22386 1.414213,0.58579 0.361929,0.36193 0.585787,0.86193 0.585787,1.41421 z"
       id="path6589" />
  </g>
  <g
     id="svg-r10-c5"
     style="opacity:1;stroke:none"
     transform="matrix(1.35,0,0,1.35,60.787271,-1205.6808)">
    <path
       style="fill:#ff0000;stroke:none;stroke-width:1"
       d="m -18.064645,978.05982 c 0,0.55229 -0.223858,1.05229 -0.585787,1.41422 -0.361929,0.36192 -0.861929,0.58578 -1.414213,0.58578 -0.552284,0 -1.052284,-0.22386 -1.414213,-0.58578 -0.361929,-0.36193 -0.585787,-0.86193 -0.585787,-1.41422 0,-0.55228 0.223858,-1.05228 0.585787,-1.41421 0.361929,-0.36193 0.861929,-0.58579 1.414213,-0.58579 0.552284,0 1.052284,0.22386 1.414213,0.58579 0.361929,0.36193 0.585787,0.86193 0.585787,1.41421 z"
       id="path6599" />
  </g>
  <g
     id="svg-r10-c4"
     style="opacity:1;stroke:none"
     transform="matrix(1.35,0,0,1.35,47.287271,-1205.6808)">
    <path
       style="fill:#ff0000;stroke:none;stroke-width:1"
       d="m -18.064645,978.05982 c 0,0.55229 -0.223858,1.05229 -0.585787,1.41422 -0.361929,0.36192 -0.861929,0.58578 -1.414213,0.58578 -0.552284,0 -1.052284,-0.22386 -1.414213,-0.58578 -0.361929,-0.36193 -0.585787,-0.86193 -0.585787,-1.41422 0,-0.55228 0.223858,-1.05228 0.585787,-1.41421 0.361929,-0.36193 0.861929,-0.58579 1.414213,-0.58579 0.552284,0 1.052284,0.22386 1.414213,0.58579 0.361929,0.36193 0.585787,0.86193 0.585787,1.41421 z"
       id="path6609" />
  </g>
  <g
     id="svg-r10-c3"
     style="opacity:1;stroke:none"
     transform="matrix(1.35,0,0,1.35,33.787271,-1205.6808)">
    <path
       style="fill:#ff0000;stroke:none;stroke-width:1"
       d="m -18.064645,978.05982 c 0,0.55229 -0.223858,1.05229 -0.585787,1.41422 -0.361929,0.36192 -0.861929,0.58578 -1.414213,0.58578 -0.552284,0 -1.052284,-0.22386 -1.414213,-0.58578 -0.361929,-0.36193 -0.585787,-0.86193 -0.585787,-1.41422 0,-0.55228 0.223858,-1.05228 0.585787,-1.41421 0.361929,-0.36193 0.861929,-0.58579 1.414213,-0.58579 0.552284,0 1.052284,0.22386 1.414213,0.58579 0.361929,0.36193 0.585787,0.86193 0.585787,1.41421 z"
       id="path6619" />
  </g>
  <g
     id="svg-r11-c11"
     style="opacity:1;stroke:none"
     transform="matrix(1.35,0,0,1.35,141.78727,-1192.1808)">
    <path
       style="fill:#ff0000;stroke:none;stroke-width:1"
       d="m -18.064645,978.05982 c 0,0.55229 -0.223858,1.05229 -0.585787,1.41422 -0.361929,0.36192 -0.861929,0.58578 -1.414213,0.58578 -0.552284,0 -1.052284,-0.22386 -1.414213,-0.58578 -0.361929,-0.36193 -0.585787,-0.86193 -0.585787,-1.41422 0,-0.55228 0.223858,-1.05228 0.585787,-1.41421 0.361929,-0.36193 0.861929,-0.58579 1.414213,-0.58579 0.552284,0 1.052284,0.22386 1.414213,0.58579 0.361929,0.36193 0.585787,0.86193 0.585787,1.41421 z"
       id="path4639" />
  </g>
  <g
     id="svg-r11-c10"
     style="opacity:1;stroke:none"
     transform="matrix(1.35,0,0,1.35,128.28727,-1192.1808)">
    <path
       style="fill:#ff0000;stroke:none;stroke-width:1"
       d="m -18.064645,978.05982 c 0,0.55229 -0.223858,1.05229 -0.585787,1.41422 -0.361929,0.36192 -0.861929,0.58578 -1.414213,0.58578 -0.552284,0 -1.052284,-0.22386 -1.414213,-0.58578 -0.361929,-0.36193 -0.585787,-0.86193 -0.585787,-1.41422 0,-0.55228 0.223858,-1.05228 0.585787,-1.41421 0.361929,-0.36193 0.861929,-0.58579 1.414213,-0.58579 0.552284,0 1.052284,0.22386 1.414213,0.58579 0.361929,0.36193 0.585787,0.86193 0.585787,1.41421 z"
       id="path4649" />
  </g>
  <g
     id="svg-r11-c9"
     style="opacity:1;stroke:none"
     transform="matrix(1.35,0,0,1.35,114.78727,-1192.1808)">
    <path
       style="fill:#ff0000;stroke:none;stroke-width:1"
       d="m -18.064645,978.05982 c 0,0.55229 -0.223858,1.05229 -0.585787,1.41422 -0.361929,0.36192 -0.861929,0.58578 -1.414213,0.58578 -0.552284,0 -1.052284,-0.22386 -1.414213,-0.58578 -0.361929,-0.36193 -0.585787,-0.86193 -0.585787,-1.41422 0,-0.55228 0.223858,-1.05228 0.585787,-1.41421 0.361929,-0.36193 0.861929,-0.58579 1.414213,-0.58579 0.552284,0 1.052284,0.22386 1.414213,0.58579 0.361929,0.36193 0.585787,0.86193 0.585787,1.41421 z"
       id="path4659" />
  </g>
  <g
     id="svg-r11-c8"
     style="opacity:1;stroke:none"
     transform="matrix(1.35,0,0,1.35,101.28727,-1192.1808)">
    <path
       style="fill:#ff0000;stroke:none;stroke-width:1"
       d="m -18.064645,978.05982 c 0,0.55229 -0.223858,1.05229 -0.585787,1.41422 -0.361929,0.36192 -0.861929,0.58578 -1.414213,0.58578 -0.552284,0 -1.052284,-0.22386 -1.414213,-0.58578 -0.361929,-0.36193 -0.585787,-0.86193 -0.585787,-1.41422 0,-0.55228 0.223858,-1.05228 0.585787,-1.41421 0.361929,-0.36193 0.861929,-0.58579 1.414213,-0.58579 0.552284,0 1.052284,0.22386 1.414213,0.58579 0.361929,0.36193 0.585787,0.86193 0.585787,1.41421 z"
       id="path4669" />
  </g>
  <g
     id="svg-r11-c7"
     style="opacity:1;stroke:none"
     transform="matrix(1.35,0,0,1.35,87.787271,-1192.1808)">
    <path
       style="fill:#ff0000;stroke:none;stroke-width:1"
       d="m -18.064645,978.05982 c 0,0.55229 -0.223858,1.05229 -0.585787,1.41422 -0.361929,0.36192 -0.861929,0.58578 -1.414213,0.58578 -0.552284,0 -1.052284,-0.22386 -1.414213,-0.58578 -0.361929,-0.36193 -0.585787,-0.86193 -0.585787,-1.41422 0,-0.55228 0.223858,-1.05228 0.585787,-1.41421 0.361929,-0.36193 0.861929,-0.58579 1.414213,-0.58579 0.552284,0 1.052284,0.22386 1.414213,0.58579 0.361929,0.36193 0.585787,0.86193 0.585787,1.41421 z"
       id="path4679" />
  </g>
  <g
     id="svg-r11-c6"
     style="opacity:1;stroke:none"
     transform="matrix(1.35,0,0,1.35,74.287271,-1192.1808)">
    <path
       style="fill:#ff0000;stroke:none;stroke-width:1"
       d="m -18.064645,978.05982 c 0,0.55229 -0.223858,1.05229 -0.585787,1.41422 -0.361929,0.36192 -0.861929,0.58578 -1.414213,0.58578 -0.552284,0 -1.052284,-0.22386 -1.414213,-0.58578 -0.361929,-0.36193 -0.585787,-0.86193 -0.585787,-1.41422 0,-0.55228 0.223858,-1.05228 0.585787,-1.41421 0.361929,-0.36193 0.861929,-0.58579 1.414213,-0.58579 0.552284,0 1.052284,0.22386 1.414213,0.58579 0.361929,0.36193 0.585787,0.86193 0.585787,1.41421 z"
       id="path4689" />
  </g>
  <g
     id="svg-r11-c5"
     style="opacity:1;stroke:none"
     transform="matrix(1.35,0,0,1.35,60.787271,-1192.1808)">
    <path
       style="fill:#ff0000;stroke:none;stroke-width:1"
       d="m -18.064645,978.05982 c 0,0.55229 -0.223858,1.05229 -0.585787,1.41422 -0.361929,0.36192 -0.861929,0.58578 -1.414213,0.58578 -0.552284,0 -1.052284,-0.22386 -1.414213,-0.58578 -0.361929,-0.36193 -0.585787,-0.86193 -0.585787,-1.41422 0,-0.55228 0.223858,-1.05228 0.585787,-1.41421 0.361929,-0.36193 0.861929,-0.58579 1.414213,-0.58579 0.552284,0 1.052284,0.22386 1.414213,0.58579 0.361929,0.36193 0.585787,0.86193 0.585787,1.41421 z"
       id="path4699" />
  </g>
  <g
     id="svg-r11-c4"
     style="opacity:1;stroke:none"
     transform="matrix(1.35,0,0,1.35,47.287271,-1192.1808)">
    <path
       style="fill:#ff0000;stroke:none;stroke-width:1"
       d="m -18.064645,978.05982 c 0,0.55229 -0.223858,1.05229 -0.585787,1.41422 -0.361929,0.36192 -0.861929,0.58578 -1.414213,0.58578 -0.552284,0 -1.052284,-0.22386 -1.414213,-0.58578 -0.361929,-0.36193 -0.585787,-0.86193 -0.585787,-1.41422 0,-0.55228 0.223858,-1.05228 0.585787,-1.41421 0.361929,-0.36193 0.861929,-0.58579 1.414213,-0.58579 0.552284,0 1.052284,0.22386 1.414213,0.58579 0.361929,0.36193 0.585787,0.86193 0.585787,1.41421 z"
       id="path4709" />
  </g>
  <g
     id="svg-r11-c3"
     style="opacity:1;stroke:none"
     transform="matrix(1.35,0,0,1.35,33.787271,-1192.1808)">
    <path
       style="fill:#ff0000;stroke:none;stroke-width:1"
       d="m -18.064645,978.05982 c 0,0.55229 -0.223858,1.05229 -0.585787,1.41422 -0.361929,0.36192 -0.861929,0.58578 -1.414213,0.58578 -0.552284,0 -1.052284,-0.22386 -1.414213,-0.58578 -0.361929,-0.36193 -0.585787,-0.86193 -0.585787,-1.41422 0,-0.55228 0.223858,-1.05228 0.585787,-1.41421 0.361929,-0.36193 0.861929,-0.58579 1.414213,-0.58579 0.552284,0 1.052284,0.22386 1.414213,0.58579 0.361929,0.36193 0.585787,0.86193 0.585787,1.41421 z"
       id="path4719" />
  </g>
  <g
     id="svg-r12-c11"
     style="opacity:1;stroke:none"
     transform="matrix(1.35,0,0,1.35,141.78727,-1178.6808)">
    <path
       style="fill:#ff0000;stroke:none;stroke-width:1"
       d="m -18.064645,978.05982 c 0,0.55229 -0.223858,1.05229 -0.585787,1.41422 -0.361929,0.36192 -0.861929,0.58578 -1.414213,0.58578 -0.552284,0 -1.052284,-0.22386 -1.414213,-0.58578 -0.361929,-0.36193 -0.585787,-0.86193 -0.585787,-1.41422 0,-0.55228 0.223858,-1.05228 0.585787,-1.41421 0.361929,-0.36193 0.861929,-0.58579 1.414213,-0.58579 0.552284,0 1.052284,0.22386 1.414213,0.58579 0.361929,0.36193 0.585787,0.86193 0.585787,1.41421 z"
       id="path6729" />
  </g>
  <g
     id="svg-r12-c10"
     style="opacity:1;stroke:none"
     transform="matrix(1.35,0,0,1.35,128.28727,-1178.6808)">
    <path
       style="fill:#ff0000;stroke:none;stroke-width:1"
       d="m -18.064645,978.05982 c 0,0.55229 -0.223858,1.05229 -0.585787,1.41422 -0.361929,0.36192 -0.861929,0.58578 -1.414213,0.58578 -0.552284,0 -1.052284,-0.22386 -1.414213,-0.58578 -0.361929,-0.36193 -0.585787,-0.86193 -0.585787,-1.41422 0,-0.55228 0.223858,-1.05228 0.585787,-1.41421 0.361929,-0.36193 0.861929,-0.58579 1.414213,-0.58579 0.552284,0 1.052284,0.22386 1.414213,0.58579 0.361929,0.36193 0.585787,0.86193 0.585787,1.41421 z"
       id="path6739" />
  </g>
  <g
     id="svg-r12-c9"
     style="opacity:1;stroke:none"
     transform="matrix(1.35,0,0,1.35,114.78727,-1178.6808)">
    <path
       style="fill:#ff0000;stroke:none;stroke-width:1"
       d="m -18.064645,978.05982 c 0,0.55229 -0.223858,1.05229 -0.585787,1.41422 -0.361929,0.36192 -0.861929,0.58578 -1.414213,0.58578 -0.552284,0 -1.052284,-0.22386 -1.414213,-0.58578 -0.361929,-0.36193 -0.585787,-0.86193 -0.585787,-1.41422 0,-0.55228 0.223858,-1.05228 0.585787,-1.41421 0.361929,-0.36193 0.861929,-0.58579 1.414213,-0.58579 0.552284,0 1.052284,0.22386 1.414213,0.58579 0.361929,0.36193 0.585787,0.86193 0.585787,1.41421 z"
       id="path6749" />
  </g>
  <g
     id="svg-r12-c8"
     style="opacity:1;stroke:none"
     transform="matrix(1.35,0,0,1.35,101.28727,-1178.6808)">
    <path
       style="fill:#ff0000;stroke:none;stroke-width:1"
       d="m -18.064645,978.05982 c 0,0.55229 -0.223858,1.05229 -0.585787,1.41422 -0.361929,0.36192 -0.861929,0.58578 -1.414213,0.58578 -0.552284,0 -1.052284,-0.22386 -1.414213,-0.58578 -0.361929,-0.36193 -0.585787,-0.86193 -0.585787,-1.41422 0,-0.55228 0.223858,-1.05228 0.585787,-1.41421 0.361929,-0.36193 0.861929,-0.58579 1.414213,-0.58579 0.552284,0 1.052284,0.22386 1.414213,0.58579 0.361929,0.36193 0.585787,0.86193 0.585787,1.41421 z"
       id="path6759" />
  </g>
  <g
     id="svg-r12-c7"
     style="opacity:1;stroke:none"
     transform="matrix(1.35,0,0,1.35,87.787271,-1178.6808)">
    <path
       style="fill:#ff0000;stroke:none;stroke-width:1"
       d="m -18.064645,978.05982 c 0,0.55229 -0.223858,1.05229 -0.585787,1.41422 -0.361929,0.36192 -0.861929,0.58578 -1.414213,0.58578 -0.552284,0 -1.052284,-0.22386 -1.414213,-0.58578 -0.361929,-0.36193 -0.585787,-0.86193 -0.585787,-1.41422 0,-0.55228 0.223858,-1.05228 0.585787,-1.41421 0.361929,-0.36193 0.861929,-0.58579 1.414213,-0.58579 0.552284,0 1.052284,0.22386 1.414213,0.58579 0.361929,0.36193 0.585787,0.86193 0.585787,1.41421 z"
       id="path6769" />
  </g>
  <g
     id="svg-r12-c6"
     style="opacity:1;stroke:none"
     transform="matrix(1.35,0,0,1.35,74.287271,-1178.6808)">
    <path
       style="fill:#ff0000;stroke:none;stroke-width:1"
       d="m -18.064645,978.05982 c 0,0.55229 -0.223858,1.05229 -0.585787,1.41422 -0.361929,0.36192 -0.861929,0.58578 -1.414213,0.58578 -0.552284,0 -1.052284,-0.22386 -1.414213,-0.58578 -0.361929,-0.36193 -0.585787,-0.86193 -0.585787,-1.41422 0,-0.55228 0.223858,-1.05228 0.585787,-1.41421 0.361929,-0.36193 0.861929,-0.58579 1.414213,-0.58579 0.552284,0 1.052284,0.22386 1.414213,0.58579 0.361929,0.36193 0.585787,0.86193 0.585787,1.41421 z"
       id="path6779" />
  </g>
  <g
     id="svg-r12-c5"
     style="opacity:1;stroke:none"
     transform="matrix(1.35,0,0,1.35,60.787271,-1178.6808)">
    <path
       style="fill:#ff0000;stroke:none;stroke-width:1"
       d="m -18.064645,978.05982 c 0,0.55229 -0.223858,1.05229 -0.585787,1.41422 -0.361929,0.36192 -0.861929,0.58578 -1.414213,0.58578 -0.552284,0 -1.052284,-0.22386 -1.414213,-0.58578 -0.361929,-0.36193 -0.585787,-0.86193 -0.585787,-1.41422 0,-0.55228 0.223858,-1.05228 0.585787,-1.41421 0.361929,-0.36193 0.861929,-0.58579 1.414213,-0.58579 0.552284,0 1.052284,0.22386 1.414213,0.58579 0.361929,0.36193 0.585787,0.86193 0.585787,1.41421 z"
       id="path6789" />
  </g>
  <g
     id="svg-r12-c4"
     style="opacity:1;stroke:none"
     transform="matrix(1.35,0,0,1.35,47.287271,-1178.6808)">
    <path
       style="fill:#ff0000;stroke:none;stroke-width:1"
       d="m -18.064645,978.05982 c 0,0.55229 -0.223858,1.05229 -0.585787,1.41422 -0.361929,0.36192 -0.861929,0.58578 -1.414213,0.58578 -0.552284,0 -1.052284,-0.22386 -1.414213,-0.58578 -0.361929,-0.36193 -0.585787,-0.86193 -0.585787,-1.41422 0,-0.55228 0.223858,-1.05228 0.585787,-1.41421 0.361929,-0.36193 0.861929,-0.58579 1.414213,-0.58579 0.552284,0 1.052284,0.22386 1.414213,0.58579 0.361929,0.36193 0.585787,0.86193 0.585787,1.41421 z"
       id="path6799" />
  </g>
  <g
     id="svg-r12-c3"
     style="opacity:1;stroke:none"
     transform="matrix(1.35,0,0,1.35,33.787271,-1178.6808)">
    <path
       style="fill:#ff0000;stroke:none;stroke-width:1"
       d="m -18.064645,978.05982 c 0,0.55229 -0.223858,1.05229 -0.585787,1.41422 -0.361929,0.36192 -0.861929,0.58578 -1.414213,0.58578 -0.552284,0 -1.052284,-0.22386 -1.414213,-0.58578 -0.361929,-0.36193 -0.585787,-0.86193 -0.585787,-1.41422 0,-0.55228 0.223858,-1.05228 0.585787,-1.41421 0.361929,-0.36193 0.861929,-0.58579 1.414213,-0.58579 0.552284,0 1.052284,0.22386 1.414213,0.58579 0.361929,0.36193 0.585787,0.86193 0.585787,1.41421 z"
       id="path6809" />
  </g>
  <g
     id="g50603"
     transform="matrix(0.25156244,0,0,0.25156243,-2.1204893,4.508294)">
    <g
       id="clones"
       transform="matrix(2,0,0,2,-250.04,-276.64)" />
    <g
       id="bdpqLegend"
       transform="matrix(2,0,0,2,-250.04,-276.64)" />
    <path
       id="r6c8-r7c9"
       class="link starts_at_r6c8 ends_at_r7c9"
       d="m 196.84,63.84 26.6,26.6 26.6,26.6"
       style="fill:#ff0000;stroke:#000000;stroke-width:3.8px;marker-end:url(#marker6278)" />
    <path
       id="r6c10-r7c9"
       class="link starts_at_r6c10 ends_at_r7c9"
       d="m 303.24,63.84 -26.6,26.6 -26.6,26.6"
       style="fill:#ff0000;stroke:#000000;stroke-width:3.8px;marker-end:url(#marker6278)" />
    <path
       id="r7c7-r8c8"
       class="link starts_at_r7c7 ends_at_r8c8"
       d="m 143.64,117.04 26.6,26.6 26.6,26.6"
       style="fill:#ff0000;stroke:#000000;stroke-width:3.8px;marker-end:url(#marker6278)" />
    <path
       id="r7c9-r8c8"
       class="link starts_at_r7c9 ends_at_r8c8"
       d="m 250.04,117.04 -26.6,26.6 -26.6,26.6"
       style="fill:#ff0000;stroke:#000000;stroke-width:3.8px;marker-end:url(#marker6278)" />
    <path
       id="r7c9-r8c10"
       class="link starts_at_r7c9 ends_at_r8c10"
       d="m 250.04,117.04 26.6,26.6 26.6,26.6"
       style="fill:#ff0000;stroke:#000000;stroke-width:3.8px;marker-end:url(#marker6278)" />
    <path
       id="r7c11-r8c10"
       class="link starts_at_r7c11 ends_at_r8c10"
       d="m 356.44,117.04 -26.6,26.6 -26.6,26.6"
       style="fill:#ff0000;stroke:#000000;stroke-width:3.8px;marker-end:url(#marker6278)" />
    <path
       id="r9c6-r9c7"
       class="link starts_at_r9c6 ends_at_r9c7"
       d="m 90.44,223.44 h 26.6 26.6"
       style="fill:#ff0000;stroke:#000000;stroke-width:3.8px;marker-end:url(#marker6278)" />
    <path
       id="r8c8-r9c7"
       class="link starts_at_r8c8 ends_at_r9c7"
       d="m 196.84,170.24 -26.6,26.6 -26.6,26.6"
       style="fill:#ff0000;stroke:#000000;stroke-width:3.8px;marker-end:url(#marker6278)" />
    <path
       id="r9c7-r9c8"
       class="link starts_at_r9c7 ends_at_r9c8"
       d="m 143.64,223.44 h 26.6 26.6"
       style="fill:#ff0000;stroke:#000000;stroke-width:3.8px;marker-end:url(#marker6278)" />
    <path
       id="r9c9-r9c8"
       class="link starts_at_r9c9 ends_at_r9c8"
       d="m 250.04,223.44 h -26.6 -26.6"
       style="fill:#ff0000;stroke:#000000;stroke-width:3.8px;marker-end:url(#marker6278)" />
    <path
       id="r8c8-r9c9"
       class="link starts_at_r8c8 ends_at_r9c9"
       d="m 196.84,170.24 26.6,26.6 26.6,26.6"
       style="fill:#ff0000;stroke:#000000;stroke-width:3.8px;marker-end:url(#marker6278)" />
    <path
       id="r8c10-r9c9"
       class="link starts_at_r8c10 ends_at_r9c9"
       d="m 303.24,170.24 -26.6,26.6 -26.6,26.6"
       style="fill:#ff0000;stroke:#000000;stroke-width:3.8px;marker-end:url(#marker6278)" />
    <path
       id="r9c9-r9c10"
       class="link starts_at_r9c9 ends_at_r9c10"
       d="m 250.04,223.44 h 26.6 26.6"
       style="fill:#ff0000;stroke:#000000;stroke-width:3.8px;marker-end:url(#marker6278)" />
    <path
       id="r9c11-r9c10"
       class="link starts_at_r9c11 ends_at_r9c10"
       d="m 356.44,223.44 h -26.6 -26.6"
       style="fill:#ff0000;stroke:#000000;stroke-width:3.8px;marker-end:url(#marker6278)" />
    <path
       id="r8c10-r9c11"
       class="link starts_at_r8c10 ends_at_r9c11"
       d="m 303.24,170.24 26.6,26.6 26.6,26.6"
       style="fill:#ff0000;stroke:#000000;stroke-width:3.8px;marker-end:url(#marker6278)" />
    <path
       id="r9c12-r9c11"
       class="link starts_at_r9c12 ends_at_r9c11"
       d="m 409.64,223.44 h -26.6 -26.6"
       style="fill:#ff0000;stroke:#000000;stroke-width:3.8px;marker-end:url(#marker6278)" />
    <path
       id="r9c8-r10c9"
       class="link starts_at_r9c8 ends_at_r10c9"
       d="m 196.84,223.44 26.6,26.6 26.6,26.6"
       style="fill:#ff0000;stroke:#000000;stroke-width:3.8px;marker-end:url(#marker6278)" />
    <path
       id="r9c10-r10c9"
       class="link starts_at_r9c10 ends_at_r10c9"
       d="m 303.24,223.44 -26.6,26.6 -26.6,26.6"
       style="fill:#ff0000;stroke:#000000;stroke-width:3.8px;marker-end:url(#marker6278)" />
    <path
       id="r11c7-r11c6"
       class="link starts_at_r11c7 ends_at_r11c6"
       d="m 143.64,329.84 h -26.6 -26.6"
       style="fill:#ff0000;stroke:#000000;stroke-width:3.8px;marker-end:url(#marker6278)" />
    <path
       id="r9c7-r11c7"
       class="link starts_at_r9c7 ends_at_r11c7"
       d="m 143.64,223.44 v 53.2 53.2"
       style="fill:#ff0000;stroke:#000000;stroke-width:3.8px;marker-end:url(#marker6278)" />
    <path
       id="r11c8-r11c7"
       class="link starts_at_r11c8 ends_at_r11c7"
       d="m 196.84,329.84 h -26.6 -26.6"
       style="fill:#ff0000;stroke:#000000;stroke-width:3.8px;marker-end:url(#marker6278)" />
    <path
       id="r9c8-r11c8"
       class="link starts_at_r9c8 ends_at_r11c8"
       d="m 196.84,223.44 v 53.2 53.2"
       style="fill:#ff0000;stroke:#000000;stroke-width:3.8px;marker-end:url(#marker6278)" />
    <path
       id="r10c9-r11c8"
       class="link starts_at_r10c9 ends_at_r11c8"
       d="m 250.04,276.64 -26.6,26.6 -26.6,26.6"
       style="fill:#ff0000;stroke:#000000;stroke-width:3.8px;marker-end:url(#marker6278)" />
    <path
       id="r11c8-r11c9"
       class="link starts_at_r11c8 ends_at_r11c9"
       d="m 196.84,329.84 h 26.6 26.6"
       style="fill:#ff0000;stroke:#000000;stroke-width:3.8px;marker-end:url(#marker6278)" />
    <path
       id="r11c10-r11c9"
       class="link starts_at_r11c10 ends_at_r11c9"
       d="m 303.24,329.84 h -26.6 -26.6"
       style="fill:#ff0000;stroke:#000000;stroke-width:3.8px;marker-end:url(#marker6278)" />
    <path
       id="r10c9-r11c10"
       class="link starts_at_r10c9 ends_at_r11c10"
       d="m 250.04,276.64 26.6,26.6 26.6,26.6"
       style="fill:#ff0000;stroke:#000000;stroke-width:3.8px;marker-end:url(#marker6278)" />
    <path
       id="r9c10-r11c10"
       class="link starts_at_r9c10 ends_at_r11c10"
       d="m 303.24,223.44 v 53.2 53.2"
       style="fill:#ff0000;stroke:#000000;stroke-width:3.8px;marker-end:url(#marker6278)" />
    <path
       id="r11c10-r11c11"
       class="link starts_at_r11c10 ends_at_r11c11"
       d="m 303.24,329.84 h 26.6 26.6"
       style="fill:#ff0000;stroke:#000000;stroke-width:3.8px;marker-end:url(#marker6278)" />
    <path
       id="r9c11-r11c11"
       class="link starts_at_r9c11 ends_at_r11c11"
       d="m 356.44,223.44 v 53.2 53.2"
       style="fill:#ff0000;stroke:#000000;stroke-width:3.8px;marker-end:url(#marker6278)" />
    <path
       id="r11c11-r11c12"
       class="link starts_at_r11c11 ends_at_r11c12"
       d="m 356.44,329.84 h 26.6 26.6"
       style="fill:#ff0000;stroke:#000000;stroke-width:3.8px;marker-end:url(#marker6278)" />
    <path
       id="r11c7-r12c8"
       class="link starts_at_r11c7 ends_at_r12c8"
       d="m 143.64,329.84 26.6,26.6 26.6,26.6"
       style="fill:#ff0000;stroke:#000000;stroke-width:3.8px;marker-end:url(#marker6278)" />
    <path
       id="r11c9-r12c8"
       class="link starts_at_r11c9 ends_at_r12c8"
       d="m 250.04,329.84 -26.6,26.6 -26.6,26.6"
       style="fill:#ff0000;stroke:#000000;stroke-width:3.8px;marker-end:url(#marker6278)" />
    <path
       id="r11c9-r12c10"
       class="link starts_at_r11c9 ends_at_r12c10"
       d="m 250.04,329.84 26.6,26.6 26.6,26.6"
       style="fill:#ff0000;stroke:#000000;stroke-width:3.8px;marker-end:url(#marker6278)" />
    <path
       id="r11c11-r12c10"
       class="link starts_at_r11c11 ends_at_r12c10"
       d="m 356.44,329.84 -26.6,26.6 -26.6,26.6"
       style="fill:#ff0000;stroke:#000000;stroke-width:3.8px;marker-end:url(#marker6278)" />
    <path
       id="r12c8-r13c7"
       class="link starts_at_r12c8 ends_at_r13c7"
       d="m 196.84,383.04 -26.6,26.6 -26.6,26.6"
       style="fill:#ff0000;stroke:#000000;stroke-width:3.8px;marker-end:url(#marker6278)" />
    <path
       id="r12c8-r13c9"
       class="link starts_at_r12c8 ends_at_r13c9"
       d="m 196.84,383.04 26.6,26.6 26.6,26.6"
       style="fill:#ff0000;stroke:#000000;stroke-width:3.8px;marker-end:url(#marker6278)" />
    <path
       id="r12c10-r13c9"
       class="link starts_at_r12c10 ends_at_r13c9"
       d="m 303.24,383.04 -26.6,26.6 -26.6,26.6"
       style="fill:#ff0000;stroke:#000000;stroke-width:3.8px;marker-end:url(#marker6278)" />
    <path
       id="r12c10-r13c11"
       class="link starts_at_r12c10 ends_at_r13c11"
       d="m 303.24,383.04 26.6,26.6 26.6,26.6"
       style="fill:#ff0000;stroke:#000000;stroke-width:3.8px;marker-end:url(#marker6278)" />
    <path
       id="r13c9-r14c8"
       class="link starts_at_r13c9 ends_at_r14c8"
       d="m 250.04,436.24 -26.6,26.6 -26.6,26.6"
       style="fill:#ff0000;stroke:#000000;stroke-width:3.8px;marker-end:url(#marker6278)" />
    <path
       id="r13c9-r14c10"
       class="link starts_at_r13c9 ends_at_r14c10"
       d="m 250.04,436.24 26.6,26.6 26.6,26.6"
       style="fill:#ff0000;stroke:#000000;stroke-width:3.8px;marker-end:url(#marker6278)" />
  </g>
  <g
     id="clones-3"
     transform="matrix(0.5,0,0,0.5,38.290221,-29.339842)" />
  <g
     id="bdpqLegend-6"
     transform="matrix(0.5,0,0,0.5,38.290221,-29.339842)" />
  <path
     id="r6c8-r7c9-7"
     class="link starts_at_r6c8 ends_at_r7c9"
     d="m 157.15806,24.158655 6.04785,5.337235 6.04785,5.337243"
     style="fill:none;stroke:#000000;stroke-width:0.95px" />
  <path
     id="r6c10-r7c9-5"
     class="link starts_at_r6c10 ends_at_r7c9"
     d="m 181.13439,23.90159 -5.94031,5.46577 -5.94032,5.465773"
     style="fill:none;stroke:#000000;stroke-width:0.95px" />
  <path
     id="r7c7-r8c8-3"
     class="link starts_at_r7c7 ends_at_r8c8"
     d="m 141.39155,33.808353 6.92786,5.66627 6.92788,5.66627"
     style="fill:none;stroke:#000000;stroke-width:0.95px" />
  <path
     id="r7c9-r8c8-5"
     class="link starts_at_r7c9 ends_at_r8c8"
     d="m 169.25376,34.833133 -7.00323,5.15388 -7.00324,5.15388"
     style="fill:none;stroke:#000000;stroke-width:0.95px" />
  <path
     id="r7c9-r8c10-6"
     class="link starts_at_r7c9 ends_at_r8c10"
     d="m 169.25376,34.833133 7.11923,5.03423 7.11921,5.03422"
     style="fill:none;stroke:#000000;stroke-width:0.95px" />
  <path
     id="r7c11-r8c10-2"
     class="link starts_at_r7c11 ends_at_r8c10"
     d="m 197.22289,33.367043 -6.86534,5.76727 -6.86535,5.76727"
     style="fill:none;stroke:#000000;stroke-width:0.95px" />
  <path
     id="r9c6-r9c7-9"
     class="link starts_at_r9c6 ends_at_r9c7"
     d="m 127.59539,59.776423 8.94727,0.53011 8.94727,0.53012"
     style="fill:none;stroke:#000000;stroke-width:0.95px" />
  <path
     id="r8c8-r9c7-1"
     class="link starts_at_r8c8 ends_at_r9c7"
     d="m 155.24729,45.140893 -4.87868,7.84788 -4.87868,7.84788"
     style="fill:none;stroke:#000000;stroke-width:0.95px" />
  <path
     id="r9c7-r9c8-2"
     class="link starts_at_r9c7 ends_at_r9c8"
     d="m 145.48993,60.836653 7.01835,0.87722 7.01835,0.87722"
     style="fill:none;stroke:#000000;stroke-width:0.95px" />
  <path
     id="r9c9-r9c8-7"
     class="link starts_at_r9c9 ends_at_r9c8"
     d="m 169.50097,52.199403 -4.98717,5.19584 -4.98717,5.19585"
     style="fill:none;stroke:#000000;stroke-width:0.95px" />
  <path
     id="r8c8-r9c9-0"
     class="link starts_at_r8c8 ends_at_r9c9"
     d="m 155.24729,45.140893 7.12684,3.52926 7.12684,3.52925"
     style="fill:none;stroke:#000000;stroke-width:0.95px" />
  <path
     id="r8c10-r9c9-9"
     class="link starts_at_r8c10 ends_at_r9c9"
     d="m 183.4922,44.901583 -6.99561,3.64891 -6.99562,3.64891"
     style="fill:none;stroke:#000000;stroke-width:0.95px" />
  <path
     id="r9c9-r9c10-3"
     class="link starts_at_r9c9 ends_at_r9c10"
     d="m 169.50097,52.199403 5.04516,5.11153 5.04514,5.11154"
     style="fill:none;stroke:#000000;stroke-width:0.95px" />
  <path
     id="r9c11-r9c10-6"
     class="link starts_at_r9c11 ends_at_r9c10"
     d="m 193.61038,60.437243 -7.00955,0.99261 -7.00956,0.99262"
     style="fill:none;stroke:#000000;stroke-width:0.95px" />
  <path
     id="r8c10-r9c11-0"
     class="link starts_at_r8c10 ends_at_r9c11"
     d="m 183.4922,44.901583 5.05909,7.76783 5.05909,7.76783"
     style="fill:none;stroke:#000000;stroke-width:0.95px" />
  <path
     id="r9c12-r9c11-6"
     class="link starts_at_r9c12 ends_at_r9c11"
     d="m 211.46146,58.841953 -8.92554,0.79764 -8.92554,0.79765"
     style="fill:none;stroke:#000000;stroke-width:0.95px" />
  <path
     id="r9c8-r10c9-2"
     class="link starts_at_r9c8 ends_at_r10c9"
     d="m 159.52663,62.591093 5.05049,3.24017 5.0505,3.24017"
     style="fill:none;stroke:#000000;stroke-width:0.95px" />
  <path
     id="r9c10-r10c9-6"
     class="link starts_at_r9c10 ends_at_r10c9"
     d="m 179.59127,62.422473 -4.98182,3.32448 -4.98183,3.32448"
     style="fill:none;stroke:#000000;stroke-width:0.95px" />
  <path
     id="r11c7-r11c6-1"
     class="link starts_at_r11c7 ends_at_r11c6"
     d="m 145.86602,78.489663 -9.03803,0.88899 -9.03802,0.88898"
     style="fill:none;stroke:#000000;stroke-width:0.95px" />
  <path
     id="r9c7-r11c7-8"
     class="link starts_at_r9c7 ends_at_r11c7"
     d="m 145.48993,60.836653 0.18805,8.8265 0.18804,8.82651"
     style="fill:none;stroke:#000000;stroke-width:0.95px" />
  <path
     id="r11c8-r11c7-7"
     class="link starts_at_r11c8 ends_at_r11c7"
     d="m 159.77806,75.983113 -6.95602,1.25328 -6.95602,1.25327"
     style="fill:none;stroke:#000000;stroke-width:0.95px" />
  <path
     id="r9c8-r11c8-9"
     class="link starts_at_r9c8 ends_at_r11c8"
     d="m 159.52663,62.591093 0.12571,6.69602 0.12572,6.696"
     style="fill:none;stroke:#000000;stroke-width:0.95px" />
  <path
     id="r10c9-r11c8-2"
     class="link starts_at_r10c9 ends_at_r11c8"
     d="m 169.62762,69.071433 -4.92478,3.45584 -4.92478,3.45584"
     style="fill:none;stroke:#000000;stroke-width:0.95px" />
  <path
     id="r11c8-r11c9-0"
     class="link starts_at_r11c8 ends_at_r11c9"
     d="m 159.77806,75.983113 5.03219,5.21636 5.0322,5.21635"
     style="fill:none;stroke:#000000;stroke-width:0.95px" />
  <path
     id="r11c10-r11c9-2"
     class="link starts_at_r11c10 ends_at_r11c9"
     d="m 179.70144,75.753323 -4.9295,5.33125 -4.92949,5.33125"
     style="fill:none;stroke:#000000;stroke-width:0.95px" />
  <path
     id="r10c9-r11c10-3"
     class="link starts_at_r10c9 ends_at_r11c10"
     d="m 169.62762,69.071433 5.03691,3.34095 5.03691,3.34094"
     style="fill:none;stroke:#000000;stroke-width:0.95px" />
  <path
     id="r9c10-r11c10-7"
     class="link starts_at_r9c10 ends_at_r11c10"
     d="m 179.59127,62.422473 0.0551,6.66542 0.0551,6.66543"
     style="fill:none;stroke:#000000;stroke-width:0.95px" />
  <path
     id="r11c10-r11c11-5"
     class="link starts_at_r11c10 ends_at_r11c11"
     d="m 179.70144,75.753323 6.98799,1.16808 6.98799,1.16808"
     style="fill:none;stroke:#000000;stroke-width:0.95px" />
  <path
     id="r9c11-r11c11-9"
     class="link starts_at_r9c11 ends_at_r11c11"
     d="m 193.61038,60.437243 0.0335,8.82612 0.0335,8.82612"
     style="fill:none;stroke:#000000;stroke-width:0.95px" />
  <path
     id="r11c11-r11c12-2"
     class="link starts_at_r11c11 ends_at_r11c12"
     d="m 193.67742,78.089483 8.98397,0.63244 8.98398,0.63244"
     style="fill:none;stroke:#000000;stroke-width:0.95px" />
  <path
     id="r11c7-r12c8-2"
     class="link starts_at_r11c7 ends_at_r12c8"
     d="m 145.86602,78.489663 5.00649,7.93113 5.00648,7.93113"
     style="fill:none;stroke:#000000;stroke-width:0.95px" />
  <path
     id="r11c9-r12c8-8"
     class="link starts_at_r11c9 ends_at_r12c8"
     d="m 169.84245,86.415823 -6.98173,3.96806 -6.98173,3.96804"
     style="fill:none;stroke:#000000;stroke-width:0.95px" />
  <path
     id="r11c9-r12c10-9"
     class="link starts_at_r11c9 ends_at_r12c10"
     d="m 169.84245,86.415823 7.05109,3.83853 7.05108,3.83852"
     style="fill:none;stroke:#000000;stroke-width:0.95px" />
  <path
     id="r11c11-r12c10-7"
     class="link starts_at_r11c11 ends_at_r12c10"
     d="m 193.67742,78.089483 -4.8664,8.0017 -4.8664,8.00169"
     style="fill:none;stroke:#000000;stroke-width:0.95px" />
  <path
     id="r12c8-r13c7-3"
     class="link starts_at_r12c8 ends_at_r13c7"
     d="m 155.87899,94.351923 -6.82055,5.981727 -6.82056,5.98172"
     style="fill:none;stroke:#000000;stroke-width:0.95px" />
  <path
     id="r12c8-r13c9-6"
     class="link starts_at_r12c8 ends_at_r13c9"
     d="m 155.87899,94.351923 7.05675,5.29533 7.05676,5.295317"
     style="fill:none;stroke:#000000;stroke-width:0.95px" />
  <path
     id="r12c10-r13c9-1"
     class="link starts_at_r12c10 ends_at_r13c9"
     d="m 183.94462,94.092873 -6.97606,5.42485 -6.97606,5.424847"
     style="fill:none;stroke:#000000;stroke-width:0.95px" />
  <path
     id="r12c10-r13c11-2"
     class="link starts_at_r12c10 ends_at_r13c11"
     d="m 183.94462,94.092873 6.95053,5.84692 6.95054,5.846897"
     style="fill:none;stroke:#000000;stroke-width:0.95px" />
  <path
     id="r13c9-r14c8-9"
     class="link starts_at_r13c9 ends_at_r14c8"
     d="m 169.9925,104.94257 -5.82314,5.81 -5.82316,5.80999"
     style="fill:none;stroke:#000000;stroke-width:0.95px" />
  <path
     id="r13c9-r14c10-3"
     class="link starts_at_r13c9 ends_at_r14c10"
     d="m 169.9925,104.94257 5.95033,5.68199 5.95032,5.68198"
     style="fill:none;stroke:#000000;stroke-width:0.95px" />
</svg>
