<?xml version="1.0" encoding="UTF-8" standalone="no"?>
<!--?xml version="1.0" encoding="UTF-8" standalone="no"?-->

<svg
   id="svg2"
   version="1.1"
   width="423.35745"
   height="288.79999"
   sodipodi:docname="GF-pair-diagram-2.svg"
   inkscape:version="1.1.2 (0a00cf5339, 2022-02-04)"
   xmlns:inkscape="http://www.inkscape.org/namespaces/inkscape"
   xmlns:sodipodi="http://sodipodi.sourceforge.net/DTD/sodipodi-0.dtd"
   xmlns="http://www.w3.org/2000/svg"
   xmlns:svg="http://www.w3.org/2000/svg">
  <sodipodi:namedview
     id="namedview1805"
     pagecolor="#ffffff"
     bordercolor="#000000"
     borderopacity="0.25"
     inkscape:pageshadow="2"
     inkscape:pageopacity="0.0"
     inkscape:pagecheckerboard="0"
     showgrid="false"
     showguides="false"
     inkscape:zoom="1.9066023"
     inkscape:cx="133.22128"
     inkscape:cy="147.90709"
     inkscape:window-width="2256"
     inkscape:window-height="1435"
     inkscape:window-x="0"
     inkscape:window-y="41"
     inkscape:window-maximized="1"
     inkscape:current-layer="svg2"
     lock-margins="true"
     fit-margin-top="4"
     fit-margin-left="4"
     fit-margin-right="4"
     fit-margin-bottom="4" />
  <defs
     id="defs11">
    <marker
       style="overflow:visible"
       id="marker6278"
       refX="0"
       refY="0"
       orient="auto"
       inkscape:stockid="Arrow1Mend"
       inkscape:isstock="true">
      <path
         transform="matrix(-0.4,0,0,-0.4,-4,0)"
         style="fill:context-stroke;fill-rule:evenodd;stroke:context-stroke;stroke-width:1pt"
         d="M 0,0 5,-5 -12.5,0 5,5 Z"
         id="path6276" />
    </marker>
  </defs>
  <g
     id="svg-r2-c11"
     style="opacity:1;stroke:none"
     transform="matrix(2.7,0,0,2.7,279.57454,-2631.3615)">
    <path
       style="fill:#ff0000;stroke:none;stroke-width:1"
       d="m -18.064645,978.05982 c 0,0.55229 -0.223858,1.05229 -0.585787,1.41422 -0.361929,0.36192 -0.861929,0.58578 -1.414213,0.58578 -0.552284,0 -1.052284,-0.22386 -1.414213,-0.58578 -0.361929,-0.36193 -0.585787,-0.86193 -0.585787,-1.41422 0,-0.55228 0.223858,-1.05228 0.585787,-1.41421 0.361929,-0.36193 0.861929,-0.58579 1.414213,-0.58579 0.552284,0 1.052284,0.22386 1.414213,0.58579 0.361929,0.36193 0.585787,0.86193 0.585787,1.41421 z"
       id="path5779" />
  </g>
  <g
     id="svg-r2-c10"
     style="opacity:1;stroke:none"
     transform="matrix(2.7,0,0,2.7,252.57454,-2631.3615)">
    <path
       style="fill:#ff0000;stroke:none;stroke-width:1"
       d="m -18.064645,978.05982 c 0,0.55229 -0.223858,1.05229 -0.585787,1.41422 -0.361929,0.36192 -0.861929,0.58578 -1.414213,0.58578 -0.552284,0 -1.052284,-0.22386 -1.414213,-0.58578 -0.361929,-0.36193 -0.585787,-0.86193 -0.585787,-1.41422 0,-0.55228 0.223858,-1.05228 0.585787,-1.41421 0.361929,-0.36193 0.861929,-0.58579 1.414213,-0.58579 0.552284,0 1.052284,0.22386 1.414213,0.58579 0.361929,0.36193 0.585787,0.86193 0.585787,1.41421 z"
       id="path5789" />
  </g>
  <g
     id="svg-r2-c9"
     style="opacity:1;stroke:none"
     transform="matrix(2.7,0,0,2.7,225.57454,-2631.3615)">
    <path
       style="fill:#ff0000;stroke:none;stroke-width:1"
       d="m -18.064645,978.05982 c 0,0.55229 -0.223858,1.05229 -0.585787,1.41422 -0.361929,0.36192 -0.861929,0.58578 -1.414213,0.58578 -0.552284,0 -1.052284,-0.22386 -1.414213,-0.58578 -0.361929,-0.36193 -0.585787,-0.86193 -0.585787,-1.41422 0,-0.55228 0.223858,-1.05228 0.585787,-1.41421 0.361929,-0.36193 0.861929,-0.58579 1.414213,-0.58579 0.552284,0 1.052284,0.22386 1.414213,0.58579 0.361929,0.36193 0.585787,0.86193 0.585787,1.41421 z"
       id="path5799" />
  </g>
  <g
     id="svg-r2-c8"
     style="opacity:1;stroke:none"
     transform="matrix(2.7,0,0,2.7,198.57454,-2631.3615)">
    <path
       style="fill:#ff0000;stroke:none;stroke-width:1"
       d="m -18.064645,978.05982 c 0,0.55229 -0.223858,1.05229 -0.585787,1.41422 -0.361929,0.36192 -0.861929,0.58578 -1.414213,0.58578 -0.552284,0 -1.052284,-0.22386 -1.414213,-0.58578 -0.361929,-0.36193 -0.585787,-0.86193 -0.585787,-1.41422 0,-0.55228 0.223858,-1.05228 0.585787,-1.41421 0.361929,-0.36193 0.861929,-0.58579 1.414213,-0.58579 0.552284,0 1.052284,0.22386 1.414213,0.58579 0.361929,0.36193 0.585787,0.86193 0.585787,1.41421 z"
       id="path5809" />
  </g>
  <g
     id="svg-r2-c7"
     style="opacity:1;stroke:none"
     transform="matrix(2.7,0,0,2.7,171.57454,-2631.3615)">
    <path
       style="fill:#ff0000;stroke:none;stroke-width:1"
       d="m -18.064645,978.05982 c 0,0.55229 -0.223858,1.05229 -0.585787,1.41422 -0.361929,0.36192 -0.861929,0.58578 -1.414213,0.58578 -0.552284,0 -1.052284,-0.22386 -1.414213,-0.58578 -0.361929,-0.36193 -0.585787,-0.86193 -0.585787,-1.41422 0,-0.55228 0.223858,-1.05228 0.585787,-1.41421 0.361929,-0.36193 0.861929,-0.58579 1.414213,-0.58579 0.552284,0 1.052284,0.22386 1.414213,0.58579 0.361929,0.36193 0.585787,0.86193 0.585787,1.41421 z"
       id="path5819" />
  </g>
  <g
     id="svg-r2-c6"
     style="opacity:1;stroke:none"
     transform="matrix(2.7,0,0,2.7,144.57454,-2631.3615)">
    <path
       style="fill:#ff0000;stroke:none;stroke-width:1"
       d="m -18.064645,978.05982 c 0,0.55229 -0.223858,1.05229 -0.585787,1.41422 -0.361929,0.36192 -0.861929,0.58578 -1.414213,0.58578 -0.552284,0 -1.052284,-0.22386 -1.414213,-0.58578 -0.361929,-0.36193 -0.585787,-0.86193 -0.585787,-1.41422 0,-0.55228 0.223858,-1.05228 0.585787,-1.41421 0.361929,-0.36193 0.861929,-0.58579 1.414213,-0.58579 0.552284,0 1.052284,0.22386 1.414213,0.58579 0.361929,0.36193 0.585787,0.86193 0.585787,1.41421 z"
       id="path5829" />
  </g>
  <g
     id="svg-r2-c5"
     style="opacity:1;stroke:none"
     transform="matrix(2.7,0,0,2.7,117.57454,-2631.3615)">
    <path
       style="fill:#ff0000;stroke:none;stroke-width:1"
       d="m -18.064645,978.05982 c 0,0.55229 -0.223858,1.05229 -0.585787,1.41422 -0.361929,0.36192 -0.861929,0.58578 -1.414213,0.58578 -0.552284,0 -1.052284,-0.22386 -1.414213,-0.58578 -0.361929,-0.36193 -0.585787,-0.86193 -0.585787,-1.41422 0,-0.55228 0.223858,-1.05228 0.585787,-1.41421 0.361929,-0.36193 0.861929,-0.58579 1.414213,-0.58579 0.552284,0 1.052284,0.22386 1.414213,0.58579 0.361929,0.36193 0.585787,0.86193 0.585787,1.41421 z"
       id="path5839" />
  </g>
  <g
     id="svg-r2-c4"
     style="opacity:1;stroke:none"
     transform="matrix(2.7,0,0,2.7,90.574542,-2631.3615)">
    <path
       style="fill:#ff0000;stroke:none;stroke-width:1"
       d="m -18.064645,978.05982 c 0,0.55229 -0.223858,1.05229 -0.585787,1.41422 -0.361929,0.36192 -0.861929,0.58578 -1.414213,0.58578 -0.552284,0 -1.052284,-0.22386 -1.414213,-0.58578 -0.361929,-0.36193 -0.585787,-0.86193 -0.585787,-1.41422 0,-0.55228 0.223858,-1.05228 0.585787,-1.41421 0.361929,-0.36193 0.861929,-0.58579 1.414213,-0.58579 0.552284,0 1.052284,0.22386 1.414213,0.58579 0.361929,0.36193 0.585787,0.86193 0.585787,1.41421 z"
       id="path5849" />
  </g>
  <g
     id="svg-r2-c3"
     style="opacity:1;stroke:none"
     transform="matrix(2.7,0,0,2.7,63.574542,-2631.3615)">
    <path
       style="fill:#ff0000;stroke:none;stroke-width:1"
       d="m -18.064645,978.05982 c 0,0.55229 -0.223858,1.05229 -0.585787,1.41422 -0.361929,0.36192 -0.861929,0.58578 -1.414213,0.58578 -0.552284,0 -1.052284,-0.22386 -1.414213,-0.58578 -0.361929,-0.36193 -0.585787,-0.86193 -0.585787,-1.41422 0,-0.55228 0.223858,-1.05228 0.585787,-1.41421 0.361929,-0.36193 0.861929,-0.58579 1.414213,-0.58579 0.552284,0 1.052284,0.22386 1.414213,0.58579 0.361929,0.36193 0.585787,0.86193 0.585787,1.41421 z"
       id="path5859" />
  </g>
  <g
     id="svg-r3-c11"
     style="opacity:1;stroke:none"
     transform="matrix(2.7,0,0,2.7,279.57454,-2604.3615)">
    <path
       style="fill:#ff0000;stroke:none;stroke-width:1"
       d="m -18.064645,978.05982 c 0,0.55229 -0.223858,1.05229 -0.585787,1.41422 -0.361929,0.36192 -0.861929,0.58578 -1.414213,0.58578 -0.552284,0 -1.052284,-0.22386 -1.414213,-0.58578 -0.361929,-0.36193 -0.585787,-0.86193 -0.585787,-1.41422 0,-0.55228 0.223858,-1.05228 0.585787,-1.41421 0.361929,-0.36193 0.861929,-0.58579 1.414213,-0.58579 0.552284,0 1.052284,0.22386 1.414213,0.58579 0.361929,0.36193 0.585787,0.86193 0.585787,1.41421 z"
       id="path3879" />
  </g>
  <g
     id="svg-r3-c10"
     style="opacity:1;stroke:none"
     transform="matrix(2.7,0,0,2.7,252.57454,-2604.3615)">
    <path
       style="fill:#ff0000;stroke:none;stroke-width:1"
       d="m -18.064645,978.05982 c 0,0.55229 -0.223858,1.05229 -0.585787,1.41422 -0.361929,0.36192 -0.861929,0.58578 -1.414213,0.58578 -0.552284,0 -1.052284,-0.22386 -1.414213,-0.58578 -0.361929,-0.36193 -0.585787,-0.86193 -0.585787,-1.41422 0,-0.55228 0.223858,-1.05228 0.585787,-1.41421 0.361929,-0.36193 0.861929,-0.58579 1.414213,-0.58579 0.552284,0 1.052284,0.22386 1.414213,0.58579 0.361929,0.36193 0.585787,0.86193 0.585787,1.41421 z"
       id="path3889" />
  </g>
  <g
     id="svg-r3-c9"
     style="opacity:1;stroke:none"
     transform="matrix(2.7,0,0,2.7,225.57454,-2604.3615)">
    <path
       style="fill:#ff0000;stroke:none;stroke-width:1"
       d="m -18.064645,978.05982 c 0,0.55229 -0.223858,1.05229 -0.585787,1.41422 -0.361929,0.36192 -0.861929,0.58578 -1.414213,0.58578 -0.552284,0 -1.052284,-0.22386 -1.414213,-0.58578 -0.361929,-0.36193 -0.585787,-0.86193 -0.585787,-1.41422 0,-0.55228 0.223858,-1.05228 0.585787,-1.41421 0.361929,-0.36193 0.861929,-0.58579 1.414213,-0.58579 0.552284,0 1.052284,0.22386 1.414213,0.58579 0.361929,0.36193 0.585787,0.86193 0.585787,1.41421 z"
       id="path3899" />
  </g>
  <g
     id="svg-r3-c8"
     style="opacity:1;stroke:none"
     transform="matrix(2.7,0,0,2.7,198.57454,-2604.3615)">
    <path
       style="fill:#ff0000;stroke:none;stroke-width:1"
       d="m -18.064645,978.05982 c 0,0.55229 -0.223858,1.05229 -0.585787,1.41422 -0.361929,0.36192 -0.861929,0.58578 -1.414213,0.58578 -0.552284,0 -1.052284,-0.22386 -1.414213,-0.58578 -0.361929,-0.36193 -0.585787,-0.86193 -0.585787,-1.41422 0,-0.55228 0.223858,-1.05228 0.585787,-1.41421 0.361929,-0.36193 0.861929,-0.58579 1.414213,-0.58579 0.552284,0 1.052284,0.22386 1.414213,0.58579 0.361929,0.36193 0.585787,0.86193 0.585787,1.41421 z"
       id="path3909" />
  </g>
  <g
     id="svg-r3-c7"
     style="opacity:1;stroke:none"
     transform="matrix(2.7,0,0,2.7,171.57454,-2604.3615)">
    <path
       style="fill:#ff0000;stroke:none;stroke-width:1"
       d="m -18.064645,978.05982 c 0,0.55229 -0.223858,1.05229 -0.585787,1.41422 -0.361929,0.36192 -0.861929,0.58578 -1.414213,0.58578 -0.552284,0 -1.052284,-0.22386 -1.414213,-0.58578 -0.361929,-0.36193 -0.585787,-0.86193 -0.585787,-1.41422 0,-0.55228 0.223858,-1.05228 0.585787,-1.41421 0.361929,-0.36193 0.861929,-0.58579 1.414213,-0.58579 0.552284,0 1.052284,0.22386 1.414213,0.58579 0.361929,0.36193 0.585787,0.86193 0.585787,1.41421 z"
       id="path3919" />
  </g>
  <g
     id="svg-r3-c6"
     style="opacity:1;stroke:none"
     transform="matrix(2.7,0,0,2.7,144.57454,-2604.3615)">
    <path
       style="fill:#ff0000;stroke:none;stroke-width:1"
       d="m -18.064645,978.05982 c 0,0.55229 -0.223858,1.05229 -0.585787,1.41422 -0.361929,0.36192 -0.861929,0.58578 -1.414213,0.58578 -0.552284,0 -1.052284,-0.22386 -1.414213,-0.58578 -0.361929,-0.36193 -0.585787,-0.86193 -0.585787,-1.41422 0,-0.55228 0.223858,-1.05228 0.585787,-1.41421 0.361929,-0.36193 0.861929,-0.58579 1.414213,-0.58579 0.552284,0 1.052284,0.22386 1.414213,0.58579 0.361929,0.36193 0.585787,0.86193 0.585787,1.41421 z"
       id="path3929" />
  </g>
  <g
     id="svg-r3-c5"
     style="opacity:1;stroke:none"
     transform="matrix(2.7,0,0,2.7,117.57454,-2604.3615)">
    <path
       style="fill:#ff0000;stroke:none;stroke-width:1"
       d="m -18.064645,978.05982 c 0,0.55229 -0.223858,1.05229 -0.585787,1.41422 -0.361929,0.36192 -0.861929,0.58578 -1.414213,0.58578 -0.552284,0 -1.052284,-0.22386 -1.414213,-0.58578 -0.361929,-0.36193 -0.585787,-0.86193 -0.585787,-1.41422 0,-0.55228 0.223858,-1.05228 0.585787,-1.41421 0.361929,-0.36193 0.861929,-0.58579 1.414213,-0.58579 0.552284,0 1.052284,0.22386 1.414213,0.58579 0.361929,0.36193 0.585787,0.86193 0.585787,1.41421 z"
       id="path3939" />
  </g>
  <g
     id="svg-r3-c4"
     style="opacity:1;stroke:none"
     transform="matrix(2.7,0,0,2.7,90.574542,-2604.3615)">
    <path
       style="fill:#ff0000;stroke:none;stroke-width:1"
       d="m -18.064645,978.05982 c 0,0.55229 -0.223858,1.05229 -0.585787,1.41422 -0.361929,0.36192 -0.861929,0.58578 -1.414213,0.58578 -0.552284,0 -1.052284,-0.22386 -1.414213,-0.58578 -0.361929,-0.36193 -0.585787,-0.86193 -0.585787,-1.41422 0,-0.55228 0.223858,-1.05228 0.585787,-1.41421 0.361929,-0.36193 0.861929,-0.58579 1.414213,-0.58579 0.552284,0 1.052284,0.22386 1.414213,0.58579 0.361929,0.36193 0.585787,0.86193 0.585787,1.41421 z"
       id="path3949" />
  </g>
  <g
     id="svg-r3-c3"
     style="opacity:1;stroke:none"
     transform="matrix(2.7,0,0,2.7,63.574542,-2604.3615)">
    <path
       style="fill:#ff0000;stroke:none;stroke-width:1"
       d="m -18.064645,978.05982 c 0,0.55229 -0.223858,1.05229 -0.585787,1.41422 -0.361929,0.36192 -0.861929,0.58578 -1.414213,0.58578 -0.552284,0 -1.052284,-0.22386 -1.414213,-0.58578 -0.361929,-0.36193 -0.585787,-0.86193 -0.585787,-1.41422 0,-0.55228 0.223858,-1.05228 0.585787,-1.41421 0.361929,-0.36193 0.861929,-0.58579 1.414213,-0.58579 0.552284,0 1.052284,0.22386 1.414213,0.58579 0.361929,0.36193 0.585787,0.86193 0.585787,1.41421 z"
       id="path3959" />
  </g>
  <g
     id="svg-r4-c11"
     style="opacity:1;stroke:none"
     transform="matrix(2.7,0,0,2.7,279.57454,-2577.3615)">
    <path
       style="fill:#ff0000;stroke:none;stroke-width:1"
       d="m -18.064645,978.05982 c 0,0.55229 -0.223858,1.05229 -0.585787,1.41422 -0.361929,0.36192 -0.861929,0.58578 -1.414213,0.58578 -0.552284,0 -1.052284,-0.22386 -1.414213,-0.58578 -0.361929,-0.36193 -0.585787,-0.86193 -0.585787,-1.41422 0,-0.55228 0.223858,-1.05228 0.585787,-1.41421 0.361929,-0.36193 0.861929,-0.58579 1.414213,-0.58579 0.552284,0 1.052284,0.22386 1.414213,0.58579 0.361929,0.36193 0.585787,0.86193 0.585787,1.41421 z"
       id="path5969" />
  </g>
  <g
     id="svg-r4-c10"
     style="opacity:1;stroke:none"
     transform="matrix(2.7,0,0,2.7,252.57454,-2577.3615)">
    <path
       style="fill:#ff0000;stroke:none;stroke-width:1"
       d="m -18.064645,978.05982 c 0,0.55229 -0.223858,1.05229 -0.585787,1.41422 -0.361929,0.36192 -0.861929,0.58578 -1.414213,0.58578 -0.552284,0 -1.052284,-0.22386 -1.414213,-0.58578 -0.361929,-0.36193 -0.585787,-0.86193 -0.585787,-1.41422 0,-0.55228 0.223858,-1.05228 0.585787,-1.41421 0.361929,-0.36193 0.861929,-0.58579 1.414213,-0.58579 0.552284,0 1.052284,0.22386 1.414213,0.58579 0.361929,0.36193 0.585787,0.86193 0.585787,1.41421 z"
       id="path5979" />
  </g>
  <g
     id="svg-r4-c9"
     style="opacity:1;stroke:none"
     transform="matrix(2.7,0,0,2.7,225.57454,-2577.3615)">
    <path
       style="fill:#ff0000;stroke:none;stroke-width:1"
       d="m -18.064645,978.05982 c 0,0.55229 -0.223858,1.05229 -0.585787,1.41422 -0.361929,0.36192 -0.861929,0.58578 -1.414213,0.58578 -0.552284,0 -1.052284,-0.22386 -1.414213,-0.58578 -0.361929,-0.36193 -0.585787,-0.86193 -0.585787,-1.41422 0,-0.55228 0.223858,-1.05228 0.585787,-1.41421 0.361929,-0.36193 0.861929,-0.58579 1.414213,-0.58579 0.552284,0 1.052284,0.22386 1.414213,0.58579 0.361929,0.36193 0.585787,0.86193 0.585787,1.41421 z"
       id="path5989" />
  </g>
  <g
     id="svg-r4-c8"
     style="opacity:1;stroke:none"
     transform="matrix(2.7,0,0,2.7,198.57454,-2577.3615)">
    <path
       style="fill:#ff0000;stroke:none;stroke-width:1"
       d="m -18.064645,978.05982 c 0,0.55229 -0.223858,1.05229 -0.585787,1.41422 -0.361929,0.36192 -0.861929,0.58578 -1.414213,0.58578 -0.552284,0 -1.052284,-0.22386 -1.414213,-0.58578 -0.361929,-0.36193 -0.585787,-0.86193 -0.585787,-1.41422 0,-0.55228 0.223858,-1.05228 0.585787,-1.41421 0.361929,-0.36193 0.861929,-0.58579 1.414213,-0.58579 0.552284,0 1.052284,0.22386 1.414213,0.58579 0.361929,0.36193 0.585787,0.86193 0.585787,1.41421 z"
       id="path5999" />
  </g>
  <g
     id="svg-r4-c7"
     style="opacity:1;stroke:none"
     transform="matrix(2.7,0,0,2.7,171.57454,-2577.3615)">
    <path
       style="fill:#ff0000;stroke:none;stroke-width:1"
       d="m -18.064645,978.05982 c 0,0.55229 -0.223858,1.05229 -0.585787,1.41422 -0.361929,0.36192 -0.861929,0.58578 -1.414213,0.58578 -0.552284,0 -1.052284,-0.22386 -1.414213,-0.58578 -0.361929,-0.36193 -0.585787,-0.86193 -0.585787,-1.41422 0,-0.55228 0.223858,-1.05228 0.585787,-1.41421 0.361929,-0.36193 0.861929,-0.58579 1.414213,-0.58579 0.552284,0 1.052284,0.22386 1.414213,0.58579 0.361929,0.36193 0.585787,0.86193 0.585787,1.41421 z"
       id="path6009" />
  </g>
  <g
     id="svg-r4-c6"
     style="opacity:1;stroke:none"
     transform="matrix(2.7,0,0,2.7,144.57454,-2577.3615)">
    <path
       style="fill:#ff0000;stroke:none;stroke-width:1"
       d="m -18.064645,978.05982 c 0,0.55229 -0.223858,1.05229 -0.585787,1.41422 -0.361929,0.36192 -0.861929,0.58578 -1.414213,0.58578 -0.552284,0 -1.052284,-0.22386 -1.414213,-0.58578 -0.361929,-0.36193 -0.585787,-0.86193 -0.585787,-1.41422 0,-0.55228 0.223858,-1.05228 0.585787,-1.41421 0.361929,-0.36193 0.861929,-0.58579 1.414213,-0.58579 0.552284,0 1.052284,0.22386 1.414213,0.58579 0.361929,0.36193 0.585787,0.86193 0.585787,1.41421 z"
       id="path6019" />
  </g>
  <g
     id="svg-r4-c5"
     style="opacity:1;stroke:none"
     transform="matrix(2.7,0,0,2.7,117.57454,-2577.3615)">
    <path
       style="fill:#ff0000;stroke:none;stroke-width:1"
       d="m -18.064645,978.05982 c 0,0.55229 -0.223858,1.05229 -0.585787,1.41422 -0.361929,0.36192 -0.861929,0.58578 -1.414213,0.58578 -0.552284,0 -1.052284,-0.22386 -1.414213,-0.58578 -0.361929,-0.36193 -0.585787,-0.86193 -0.585787,-1.41422 0,-0.55228 0.223858,-1.05228 0.585787,-1.41421 0.361929,-0.36193 0.861929,-0.58579 1.414213,-0.58579 0.552284,0 1.052284,0.22386 1.414213,0.58579 0.361929,0.36193 0.585787,0.86193 0.585787,1.41421 z"
       id="path6029" />
  </g>
  <g
     id="svg-r4-c4"
     style="opacity:1;stroke:none"
     transform="matrix(2.7,0,0,2.7,90.574542,-2577.3615)">
    <path
       style="fill:#ff0000;stroke:none;stroke-width:1"
       d="m -18.064645,978.05982 c 0,0.55229 -0.223858,1.05229 -0.585787,1.41422 -0.361929,0.36192 -0.861929,0.58578 -1.414213,0.58578 -0.552284,0 -1.052284,-0.22386 -1.414213,-0.58578 -0.361929,-0.36193 -0.585787,-0.86193 -0.585787,-1.41422 0,-0.55228 0.223858,-1.05228 0.585787,-1.41421 0.361929,-0.36193 0.861929,-0.58579 1.414213,-0.58579 0.552284,0 1.052284,0.22386 1.414213,0.58579 0.361929,0.36193 0.585787,0.86193 0.585787,1.41421 z"
       id="path6039" />
  </g>
  <g
     id="svg-r4-c3"
     style="opacity:1;stroke:none"
     transform="matrix(2.7,0,0,2.7,63.574542,-2577.3615)">
    <path
       style="fill:#ff0000;stroke:none;stroke-width:1"
       d="m -18.064645,978.05982 c 0,0.55229 -0.223858,1.05229 -0.585787,1.41422 -0.361929,0.36192 -0.861929,0.58578 -1.414213,0.58578 -0.552284,0 -1.052284,-0.22386 -1.414213,-0.58578 -0.361929,-0.36193 -0.585787,-0.86193 -0.585787,-1.41422 0,-0.55228 0.223858,-1.05228 0.585787,-1.41421 0.361929,-0.36193 0.861929,-0.58579 1.414213,-0.58579 0.552284,0 1.052284,0.22386 1.414213,0.58579 0.361929,0.36193 0.585787,0.86193 0.585787,1.41421 z"
       id="path6049" />
  </g>
  <g
     id="svg-r5-c11"
     style="opacity:1;stroke:none"
     transform="matrix(2.7,0,0,2.7,279.57454,-2550.3615)">
    <path
       style="fill:#ff0000;stroke:none;stroke-width:1"
       d="m -18.064645,978.05982 c 0,0.55229 -0.223858,1.05229 -0.585787,1.41422 -0.361929,0.36192 -0.861929,0.58578 -1.414213,0.58578 -0.552284,0 -1.052284,-0.22386 -1.414213,-0.58578 -0.361929,-0.36193 -0.585787,-0.86193 -0.585787,-1.41422 0,-0.55228 0.223858,-1.05228 0.585787,-1.41421 0.361929,-0.36193 0.861929,-0.58579 1.414213,-0.58579 0.552284,0 1.052284,0.22386 1.414213,0.58579 0.361929,0.36193 0.585787,0.86193 0.585787,1.41421 z"
       id="path4069" />
  </g>
  <g
     id="svg-r5-c10"
     style="opacity:1;stroke:none"
     transform="matrix(2.7,0,0,2.7,252.57454,-2550.3615)">
    <path
       style="fill:#ff0000;stroke:none;stroke-width:1"
       d="m -18.064645,978.05982 c 0,0.55229 -0.223858,1.05229 -0.585787,1.41422 -0.361929,0.36192 -0.861929,0.58578 -1.414213,0.58578 -0.552284,0 -1.052284,-0.22386 -1.414213,-0.58578 -0.361929,-0.36193 -0.585787,-0.86193 -0.585787,-1.41422 0,-0.55228 0.223858,-1.05228 0.585787,-1.41421 0.361929,-0.36193 0.861929,-0.58579 1.414213,-0.58579 0.552284,0 1.052284,0.22386 1.414213,0.58579 0.361929,0.36193 0.585787,0.86193 0.585787,1.41421 z"
       id="path4079" />
  </g>
  <g
     id="svg-r5-c9"
     style="opacity:1;stroke:none"
     transform="matrix(2.7,0,0,2.7,225.57454,-2550.3615)">
    <path
       style="fill:#ff0000;stroke:none;stroke-width:1"
       d="m -18.064645,978.05982 c 0,0.55229 -0.223858,1.05229 -0.585787,1.41422 -0.361929,0.36192 -0.861929,0.58578 -1.414213,0.58578 -0.552284,0 -1.052284,-0.22386 -1.414213,-0.58578 -0.361929,-0.36193 -0.585787,-0.86193 -0.585787,-1.41422 0,-0.55228 0.223858,-1.05228 0.585787,-1.41421 0.361929,-0.36193 0.861929,-0.58579 1.414213,-0.58579 0.552284,0 1.052284,0.22386 1.414213,0.58579 0.361929,0.36193 0.585787,0.86193 0.585787,1.41421 z"
       id="path4089" />
  </g>
  <g
     id="svg-r5-c8"
     style="opacity:1;stroke:none"
     transform="matrix(2.7,0,0,2.7,198.57454,-2550.3615)">
    <path
       style="fill:#ff0000;stroke:none;stroke-width:1"
       d="m -18.064645,978.05982 c 0,0.55229 -0.223858,1.05229 -0.585787,1.41422 -0.361929,0.36192 -0.861929,0.58578 -1.414213,0.58578 -0.552284,0 -1.052284,-0.22386 -1.414213,-0.58578 -0.361929,-0.36193 -0.585787,-0.86193 -0.585787,-1.41422 0,-0.55228 0.223858,-1.05228 0.585787,-1.41421 0.361929,-0.36193 0.861929,-0.58579 1.414213,-0.58579 0.552284,0 1.052284,0.22386 1.414213,0.58579 0.361929,0.36193 0.585787,0.86193 0.585787,1.41421 z"
       id="path4099" />
  </g>
  <g
     id="svg-r5-c7"
     style="opacity:1;stroke:none"
     transform="matrix(2.7,0,0,2.7,171.57454,-2550.3615)">
    <path
       style="fill:#ff0000;stroke:none;stroke-width:1"
       d="m -18.064645,978.05982 c 0,0.55229 -0.223858,1.05229 -0.585787,1.41422 -0.361929,0.36192 -0.861929,0.58578 -1.414213,0.58578 -0.552284,0 -1.052284,-0.22386 -1.414213,-0.58578 -0.361929,-0.36193 -0.585787,-0.86193 -0.585787,-1.41422 0,-0.55228 0.223858,-1.05228 0.585787,-1.41421 0.361929,-0.36193 0.861929,-0.58579 1.414213,-0.58579 0.552284,0 1.052284,0.22386 1.414213,0.58579 0.361929,0.36193 0.585787,0.86193 0.585787,1.41421 z"
       id="path4109" />
  </g>
  <g
     id="svg-r5-c6"
     style="opacity:1;stroke:none"
     transform="matrix(2.7,0,0,2.7,144.57454,-2550.3615)">
    <path
       style="fill:#ff0000;stroke:none;stroke-width:1"
       d="m -18.064645,978.05982 c 0,0.55229 -0.223858,1.05229 -0.585787,1.41422 -0.361929,0.36192 -0.861929,0.58578 -1.414213,0.58578 -0.552284,0 -1.052284,-0.22386 -1.414213,-0.58578 -0.361929,-0.36193 -0.585787,-0.86193 -0.585787,-1.41422 0,-0.55228 0.223858,-1.05228 0.585787,-1.41421 0.361929,-0.36193 0.861929,-0.58579 1.414213,-0.58579 0.552284,0 1.052284,0.22386 1.414213,0.58579 0.361929,0.36193 0.585787,0.86193 0.585787,1.41421 z"
       id="path4119" />
  </g>
  <g
     id="svg-r5-c5"
     style="opacity:1;stroke:none"
     transform="matrix(2.7,0,0,2.7,117.57454,-2550.3615)">
    <path
       style="fill:#ff0000;stroke:none;stroke-width:1"
       d="m -18.064645,978.05982 c 0,0.55229 -0.223858,1.05229 -0.585787,1.41422 -0.361929,0.36192 -0.861929,0.58578 -1.414213,0.58578 -0.552284,0 -1.052284,-0.22386 -1.414213,-0.58578 -0.361929,-0.36193 -0.585787,-0.86193 -0.585787,-1.41422 0,-0.55228 0.223858,-1.05228 0.585787,-1.41421 0.361929,-0.36193 0.861929,-0.58579 1.414213,-0.58579 0.552284,0 1.052284,0.22386 1.414213,0.58579 0.361929,0.36193 0.585787,0.86193 0.585787,1.41421 z"
       id="path4129" />
  </g>
  <g
     id="svg-r5-c4"
     style="opacity:1;stroke:none"
     transform="matrix(2.7,0,0,2.7,90.574542,-2550.3615)">
    <path
       style="fill:#ff0000;stroke:none;stroke-width:1"
       d="m -18.064645,978.05982 c 0,0.55229 -0.223858,1.05229 -0.585787,1.41422 -0.361929,0.36192 -0.861929,0.58578 -1.414213,0.58578 -0.552284,0 -1.052284,-0.22386 -1.414213,-0.58578 -0.361929,-0.36193 -0.585787,-0.86193 -0.585787,-1.41422 0,-0.55228 0.223858,-1.05228 0.585787,-1.41421 0.361929,-0.36193 0.861929,-0.58579 1.414213,-0.58579 0.552284,0 1.052284,0.22386 1.414213,0.58579 0.361929,0.36193 0.585787,0.86193 0.585787,1.41421 z"
       id="path4139" />
  </g>
  <g
     id="svg-r5-c3"
     style="opacity:1;stroke:none"
     transform="matrix(2.7,0,0,2.7,63.574542,-2550.3615)">
    <path
       style="fill:#ff0000;stroke:none;stroke-width:1"
       d="m -18.064645,978.05982 c 0,0.55229 -0.223858,1.05229 -0.585787,1.41422 -0.361929,0.36192 -0.861929,0.58578 -1.414213,0.58578 -0.552284,0 -1.052284,-0.22386 -1.414213,-0.58578 -0.361929,-0.36193 -0.585787,-0.86193 -0.585787,-1.41422 0,-0.55228 0.223858,-1.05228 0.585787,-1.41421 0.361929,-0.36193 0.861929,-0.58579 1.414213,-0.58579 0.552284,0 1.052284,0.22386 1.414213,0.58579 0.361929,0.36193 0.585787,0.86193 0.585787,1.41421 z"
       id="path4149" />
  </g>
  <g
     id="svg-r6-c11"
     style="opacity:1;stroke:none"
     transform="matrix(2.7,0,0,2.7,279.57454,-2523.3615)">
    <path
       style="fill:#ff0000;stroke:none;stroke-width:1"
       d="m -18.064645,978.05982 c 0,0.55229 -0.223858,1.05229 -0.585787,1.41422 -0.361929,0.36192 -0.861929,0.58578 -1.414213,0.58578 -0.552284,0 -1.052284,-0.22386 -1.414213,-0.58578 -0.361929,-0.36193 -0.585787,-0.86193 -0.585787,-1.41422 0,-0.55228 0.223858,-1.05228 0.585787,-1.41421 0.361929,-0.36193 0.861929,-0.58579 1.414213,-0.58579 0.552284,0 1.052284,0.22386 1.414213,0.58579 0.361929,0.36193 0.585787,0.86193 0.585787,1.41421 z"
       id="path6159" />
  </g>
  <g
     id="svg-r6-c10"
     style="opacity:1;stroke:none"
     transform="matrix(2.7,0,0,2.7,252.57454,-2523.3615)">
    <path
       style="fill:#ff0000;stroke:none;stroke-width:1"
       d="m -18.064645,978.05982 c 0,0.55229 -0.223858,1.05229 -0.585787,1.41422 -0.361929,0.36192 -0.861929,0.58578 -1.414213,0.58578 -0.552284,0 -1.052284,-0.22386 -1.414213,-0.58578 -0.361929,-0.36193 -0.585787,-0.86193 -0.585787,-1.41422 0,-0.55228 0.223858,-1.05228 0.585787,-1.41421 0.361929,-0.36193 0.861929,-0.58579 1.414213,-0.58579 0.552284,0 1.052284,0.22386 1.414213,0.58579 0.361929,0.36193 0.585787,0.86193 0.585787,1.41421 z"
       id="path6169" />
  </g>
  <g
     id="svg-r6-c9"
     style="opacity:1;stroke:none"
     transform="matrix(2.7,0,0,2.7,225.57454,-2523.3615)">
    <path
       style="fill:#ff0000;stroke:none;stroke-width:1"
       d="m -18.064645,978.05982 c 0,0.55229 -0.223858,1.05229 -0.585787,1.41422 -0.361929,0.36192 -0.861929,0.58578 -1.414213,0.58578 -0.552284,0 -1.052284,-0.22386 -1.414213,-0.58578 -0.361929,-0.36193 -0.585787,-0.86193 -0.585787,-1.41422 0,-0.55228 0.223858,-1.05228 0.585787,-1.41421 0.361929,-0.36193 0.861929,-0.58579 1.414213,-0.58579 0.552284,0 1.052284,0.22386 1.414213,0.58579 0.361929,0.36193 0.585787,0.86193 0.585787,1.41421 z"
       id="path6179" />
  </g>
  <g
     id="svg-r6-c8"
     style="opacity:1;stroke:none"
     transform="matrix(2.7,0,0,2.7,198.57454,-2523.3615)">
    <path
       style="fill:#ff0000;stroke:none;stroke-width:1"
       d="m -18.064645,978.05982 c 0,0.55229 -0.223858,1.05229 -0.585787,1.41422 -0.361929,0.36192 -0.861929,0.58578 -1.414213,0.58578 -0.552284,0 -1.052284,-0.22386 -1.414213,-0.58578 -0.361929,-0.36193 -0.585787,-0.86193 -0.585787,-1.41422 0,-0.55228 0.223858,-1.05228 0.585787,-1.41421 0.361929,-0.36193 0.861929,-0.58579 1.414213,-0.58579 0.552284,0 1.052284,0.22386 1.414213,0.58579 0.361929,0.36193 0.585787,0.86193 0.585787,1.41421 z"
       id="path6189" />
  </g>
  <g
     id="svg-r6-c7"
     style="opacity:1;stroke:none"
     transform="matrix(2.7,0,0,2.7,171.57454,-2523.3615)">
    <path
       style="fill:#ff0000;stroke:none;stroke-width:1"
       d="m -18.064645,978.05982 c 0,0.55229 -0.223858,1.05229 -0.585787,1.41422 -0.361929,0.36192 -0.861929,0.58578 -1.414213,0.58578 -0.552284,0 -1.052284,-0.22386 -1.414213,-0.58578 -0.361929,-0.36193 -0.585787,-0.86193 -0.585787,-1.41422 0,-0.55228 0.223858,-1.05228 0.585787,-1.41421 0.361929,-0.36193 0.861929,-0.58579 1.414213,-0.58579 0.552284,0 1.052284,0.22386 1.414213,0.58579 0.361929,0.36193 0.585787,0.86193 0.585787,1.41421 z"
       id="path6199" />
  </g>
  <g
     id="svg-r6-c6"
     style="opacity:1;stroke:none"
     transform="matrix(2.7,0,0,2.7,144.57454,-2523.3615)">
    <path
       style="fill:#ff0000;stroke:none;stroke-width:1"
       d="m -18.064645,978.05982 c 0,0.55229 -0.223858,1.05229 -0.585787,1.41422 -0.361929,0.36192 -0.861929,0.58578 -1.414213,0.58578 -0.552284,0 -1.052284,-0.22386 -1.414213,-0.58578 -0.361929,-0.36193 -0.585787,-0.86193 -0.585787,-1.41422 0,-0.55228 0.223858,-1.05228 0.585787,-1.41421 0.361929,-0.36193 0.861929,-0.58579 1.414213,-0.58579 0.552284,0 1.052284,0.22386 1.414213,0.58579 0.361929,0.36193 0.585787,0.86193 0.585787,1.41421 z"
       id="path6209" />
  </g>
  <g
     id="svg-r6-c5"
     style="opacity:1;stroke:none"
     transform="matrix(2.7,0,0,2.7,117.57454,-2523.3615)">
    <path
       style="fill:#ff0000;stroke:none;stroke-width:1"
       d="m -18.064645,978.05982 c 0,0.55229 -0.223858,1.05229 -0.585787,1.41422 -0.361929,0.36192 -0.861929,0.58578 -1.414213,0.58578 -0.552284,0 -1.052284,-0.22386 -1.414213,-0.58578 -0.361929,-0.36193 -0.585787,-0.86193 -0.585787,-1.41422 0,-0.55228 0.223858,-1.05228 0.585787,-1.41421 0.361929,-0.36193 0.861929,-0.58579 1.414213,-0.58579 0.552284,0 1.052284,0.22386 1.414213,0.58579 0.361929,0.36193 0.585787,0.86193 0.585787,1.41421 z"
       id="path6219" />
  </g>
  <g
     id="svg-r6-c4"
     style="opacity:1;stroke:none"
     transform="matrix(2.7,0,0,2.7,90.574542,-2523.3615)">
    <path
       style="fill:#ff0000;stroke:none;stroke-width:1"
       d="m -18.064645,978.05982 c 0,0.55229 -0.223858,1.05229 -0.585787,1.41422 -0.361929,0.36192 -0.861929,0.58578 -1.414213,0.58578 -0.552284,0 -1.052284,-0.22386 -1.414213,-0.58578 -0.361929,-0.36193 -0.585787,-0.86193 -0.585787,-1.41422 0,-0.55228 0.223858,-1.05228 0.585787,-1.41421 0.361929,-0.36193 0.861929,-0.58579 1.414213,-0.58579 0.552284,0 1.052284,0.22386 1.414213,0.58579 0.361929,0.36193 0.585787,0.86193 0.585787,1.41421 z"
       id="path6229" />
  </g>
  <g
     id="svg-r6-c3"
     style="opacity:1;stroke:none"
     transform="matrix(2.7,0,0,2.7,63.574542,-2523.3615)">
    <path
       style="fill:#ff0000;stroke:none;stroke-width:1"
       d="m -18.064645,978.05982 c 0,0.55229 -0.223858,1.05229 -0.585787,1.41422 -0.361929,0.36192 -0.861929,0.58578 -1.414213,0.58578 -0.552284,0 -1.052284,-0.22386 -1.414213,-0.58578 -0.361929,-0.36193 -0.585787,-0.86193 -0.585787,-1.41422 0,-0.55228 0.223858,-1.05228 0.585787,-1.41421 0.361929,-0.36193 0.861929,-0.58579 1.414213,-0.58579 0.552284,0 1.052284,0.22386 1.414213,0.58579 0.361929,0.36193 0.585787,0.86193 0.585787,1.41421 z"
       id="path6239" />
  </g>
  <g
     id="svg-r7-c11"
     style="opacity:1;stroke:none"
     transform="matrix(2.7,0,0,2.7,279.57454,-2496.3615)">
    <path
       style="fill:#ff0000;stroke:none;stroke-width:1"
       d="m -18.064645,978.05982 c 0,0.55229 -0.223858,1.05229 -0.585787,1.41422 -0.361929,0.36192 -0.861929,0.58578 -1.414213,0.58578 -0.552284,0 -1.052284,-0.22386 -1.414213,-0.58578 -0.361929,-0.36193 -0.585787,-0.86193 -0.585787,-1.41422 0,-0.55228 0.223858,-1.05228 0.585787,-1.41421 0.361929,-0.36193 0.861929,-0.58579 1.414213,-0.58579 0.552284,0 1.052284,0.22386 1.414213,0.58579 0.361929,0.36193 0.585787,0.86193 0.585787,1.41421 z"
       id="path4259" />
  </g>
  <g
     id="svg-r7-c10"
     style="opacity:1;stroke:none"
     transform="matrix(2.7,0,0,2.7,252.57454,-2496.3615)">
    <path
       style="fill:#ff0000;stroke:none;stroke-width:1"
       d="m -18.064645,978.05982 c 0,0.55229 -0.223858,1.05229 -0.585787,1.41422 -0.361929,0.36192 -0.861929,0.58578 -1.414213,0.58578 -0.552284,0 -1.052284,-0.22386 -1.414213,-0.58578 -0.361929,-0.36193 -0.585787,-0.86193 -0.585787,-1.41422 0,-0.55228 0.223858,-1.05228 0.585787,-1.41421 0.361929,-0.36193 0.861929,-0.58579 1.414213,-0.58579 0.552284,0 1.052284,0.22386 1.414213,0.58579 0.361929,0.36193 0.585787,0.86193 0.585787,1.41421 z"
       id="path4269" />
  </g>
  <g
     id="svg-r7-c9"
     style="opacity:1;stroke:none"
     transform="matrix(2.7,0,0,2.7,225.57454,-2496.3615)">
    <path
       style="fill:#ff0000;stroke:none;stroke-width:1"
       d="m -18.064645,978.05982 c 0,0.55229 -0.223858,1.05229 -0.585787,1.41422 -0.361929,0.36192 -0.861929,0.58578 -1.414213,0.58578 -0.552284,0 -1.052284,-0.22386 -1.414213,-0.58578 -0.361929,-0.36193 -0.585787,-0.86193 -0.585787,-1.41422 0,-0.55228 0.223858,-1.05228 0.585787,-1.41421 0.361929,-0.36193 0.861929,-0.58579 1.414213,-0.58579 0.552284,0 1.052284,0.22386 1.414213,0.58579 0.361929,0.36193 0.585787,0.86193 0.585787,1.41421 z"
       id="path4279" />
  </g>
  <g
     id="svg-r7-c8"
     style="opacity:1;stroke:none"
     transform="matrix(2.7,0,0,2.7,198.57454,-2496.3615)">
    <path
       style="fill:#ff0000;stroke:none;stroke-width:1"
       d="m -18.064645,978.05982 c 0,0.55229 -0.223858,1.05229 -0.585787,1.41422 -0.361929,0.36192 -0.861929,0.58578 -1.414213,0.58578 -0.552284,0 -1.052284,-0.22386 -1.414213,-0.58578 -0.361929,-0.36193 -0.585787,-0.86193 -0.585787,-1.41422 0,-0.55228 0.223858,-1.05228 0.585787,-1.41421 0.361929,-0.36193 0.861929,-0.58579 1.414213,-0.58579 0.552284,0 1.052284,0.22386 1.414213,0.58579 0.361929,0.36193 0.585787,0.86193 0.585787,1.41421 z"
       id="path4289" />
  </g>
  <g
     id="svg-r7-c7"
     style="opacity:1;stroke:none"
     transform="matrix(2.7,0,0,2.7,171.57454,-2496.3615)">
    <path
       style="fill:#ff0000;stroke:none;stroke-width:1"
       d="m -18.064645,978.05982 c 0,0.55229 -0.223858,1.05229 -0.585787,1.41422 -0.361929,0.36192 -0.861929,0.58578 -1.414213,0.58578 -0.552284,0 -1.052284,-0.22386 -1.414213,-0.58578 -0.361929,-0.36193 -0.585787,-0.86193 -0.585787,-1.41422 0,-0.55228 0.223858,-1.05228 0.585787,-1.41421 0.361929,-0.36193 0.861929,-0.58579 1.414213,-0.58579 0.552284,0 1.052284,0.22386 1.414213,0.58579 0.361929,0.36193 0.585787,0.86193 0.585787,1.41421 z"
       id="path4299" />
  </g>
  <g
     id="svg-r7-c6"
     style="opacity:1;stroke:none"
     transform="matrix(2.7,0,0,2.7,144.57454,-2496.3615)">
    <path
       style="fill:#ff0000;stroke:none;stroke-width:1"
       d="m -18.064645,978.05982 c 0,0.55229 -0.223858,1.05229 -0.585787,1.41422 -0.361929,0.36192 -0.861929,0.58578 -1.414213,0.58578 -0.552284,0 -1.052284,-0.22386 -1.414213,-0.58578 -0.361929,-0.36193 -0.585787,-0.86193 -0.585787,-1.41422 0,-0.55228 0.223858,-1.05228 0.585787,-1.41421 0.361929,-0.36193 0.861929,-0.58579 1.414213,-0.58579 0.552284,0 1.052284,0.22386 1.414213,0.58579 0.361929,0.36193 0.585787,0.86193 0.585787,1.41421 z"
       id="path4309" />
  </g>
  <g
     id="svg-r7-c5"
     style="opacity:1;stroke:none"
     transform="matrix(2.7,0,0,2.7,117.57454,-2496.3615)">
    <path
       style="fill:#ff0000;stroke:none;stroke-width:1"
       d="m -18.064645,978.05982 c 0,0.55229 -0.223858,1.05229 -0.585787,1.41422 -0.361929,0.36192 -0.861929,0.58578 -1.414213,0.58578 -0.552284,0 -1.052284,-0.22386 -1.414213,-0.58578 -0.361929,-0.36193 -0.585787,-0.86193 -0.585787,-1.41422 0,-0.55228 0.223858,-1.05228 0.585787,-1.41421 0.361929,-0.36193 0.861929,-0.58579 1.414213,-0.58579 0.552284,0 1.052284,0.22386 1.414213,0.58579 0.361929,0.36193 0.585787,0.86193 0.585787,1.41421 z"
       id="path4319" />
  </g>
  <g
     id="svg-r7-c4"
     style="opacity:1;stroke:none"
     transform="matrix(2.7,0,0,2.7,90.574542,-2496.3615)">
    <path
       style="fill:#ff0000;stroke:none;stroke-width:1"
       d="m -18.064645,978.05982 c 0,0.55229 -0.223858,1.05229 -0.585787,1.41422 -0.361929,0.36192 -0.861929,0.58578 -1.414213,0.58578 -0.552284,0 -1.052284,-0.22386 -1.414213,-0.58578 -0.361929,-0.36193 -0.585787,-0.86193 -0.585787,-1.41422 0,-0.55228 0.223858,-1.05228 0.585787,-1.41421 0.361929,-0.36193 0.861929,-0.58579 1.414213,-0.58579 0.552284,0 1.052284,0.22386 1.414213,0.58579 0.361929,0.36193 0.585787,0.86193 0.585787,1.41421 z"
       id="path4329" />
  </g>
  <g
     id="svg-r7-c3"
     style="opacity:1;stroke:none"
     transform="matrix(2.7,0,0,2.7,63.574542,-2496.3615)">
    <path
       style="fill:#ff0000;stroke:none;stroke-width:1"
       d="m -18.064645,978.05982 c 0,0.55229 -0.223858,1.05229 -0.585787,1.41422 -0.361929,0.36192 -0.861929,0.58578 -1.414213,0.58578 -0.552284,0 -1.052284,-0.22386 -1.414213,-0.58578 -0.361929,-0.36193 -0.585787,-0.86193 -0.585787,-1.41422 0,-0.55228 0.223858,-1.05228 0.585787,-1.41421 0.361929,-0.36193 0.861929,-0.58579 1.414213,-0.58579 0.552284,0 1.052284,0.22386 1.414213,0.58579 0.361929,0.36193 0.585787,0.86193 0.585787,1.41421 z"
       id="path4339" />
  </g>
  <g
     id="svg-r8-c11"
     style="opacity:1;stroke:none"
     transform="matrix(2.7,0,0,2.7,279.57454,-2469.3615)">
    <path
       style="fill:#ff0000;stroke:none;stroke-width:1"
       d="m -18.064645,978.05982 c 0,0.55229 -0.223858,1.05229 -0.585787,1.41422 -0.361929,0.36192 -0.861929,0.58578 -1.414213,0.58578 -0.552284,0 -1.052284,-0.22386 -1.414213,-0.58578 -0.361929,-0.36193 -0.585787,-0.86193 -0.585787,-1.41422 0,-0.55228 0.223858,-1.05228 0.585787,-1.41421 0.361929,-0.36193 0.861929,-0.58579 1.414213,-0.58579 0.552284,0 1.052284,0.22386 1.414213,0.58579 0.361929,0.36193 0.585787,0.86193 0.585787,1.41421 z"
       id="path6349" />
  </g>
  <g
     id="svg-r8-c10"
     style="opacity:1;stroke:none"
     transform="matrix(2.7,0,0,2.7,252.57454,-2469.3615)">
    <path
       style="fill:#ff0000;stroke:none;stroke-width:1"
       d="m -18.064645,978.05982 c 0,0.55229 -0.223858,1.05229 -0.585787,1.41422 -0.361929,0.36192 -0.861929,0.58578 -1.414213,0.58578 -0.552284,0 -1.052284,-0.22386 -1.414213,-0.58578 -0.361929,-0.36193 -0.585787,-0.86193 -0.585787,-1.41422 0,-0.55228 0.223858,-1.05228 0.585787,-1.41421 0.361929,-0.36193 0.861929,-0.58579 1.414213,-0.58579 0.552284,0 1.052284,0.22386 1.414213,0.58579 0.361929,0.36193 0.585787,0.86193 0.585787,1.41421 z"
       id="path6359" />
  </g>
  <g
     id="svg-r8-c9"
     style="opacity:1;stroke:none"
     transform="matrix(2.7,0,0,2.7,225.57454,-2469.3615)">
    <path
       style="fill:#ff0000;stroke:none;stroke-width:1"
       d="m -18.064645,978.05982 c 0,0.55229 -0.223858,1.05229 -0.585787,1.41422 -0.361929,0.36192 -0.861929,0.58578 -1.414213,0.58578 -0.552284,0 -1.052284,-0.22386 -1.414213,-0.58578 -0.361929,-0.36193 -0.585787,-0.86193 -0.585787,-1.41422 0,-0.55228 0.223858,-1.05228 0.585787,-1.41421 0.361929,-0.36193 0.861929,-0.58579 1.414213,-0.58579 0.552284,0 1.052284,0.22386 1.414213,0.58579 0.361929,0.36193 0.585787,0.86193 0.585787,1.41421 z"
       id="path6369" />
  </g>
  <g
     id="svg-r8-c8"
     style="opacity:1;stroke:none"
     transform="matrix(2.7,0,0,2.7,198.57454,-2469.3615)">
    <path
       style="fill:#ff0000;stroke:none;stroke-width:1"
       d="m -18.064645,978.05982 c 0,0.55229 -0.223858,1.05229 -0.585787,1.41422 -0.361929,0.36192 -0.861929,0.58578 -1.414213,0.58578 -0.552284,0 -1.052284,-0.22386 -1.414213,-0.58578 -0.361929,-0.36193 -0.585787,-0.86193 -0.585787,-1.41422 0,-0.55228 0.223858,-1.05228 0.585787,-1.41421 0.361929,-0.36193 0.861929,-0.58579 1.414213,-0.58579 0.552284,0 1.052284,0.22386 1.414213,0.58579 0.361929,0.36193 0.585787,0.86193 0.585787,1.41421 z"
       id="path6379" />
  </g>
  <g
     id="svg-r8-c7"
     style="opacity:1;stroke:none"
     transform="matrix(2.7,0,0,2.7,171.57454,-2469.3615)">
    <path
       style="fill:#ff0000;stroke:none;stroke-width:1"
       d="m -18.064645,978.05982 c 0,0.55229 -0.223858,1.05229 -0.585787,1.41422 -0.361929,0.36192 -0.861929,0.58578 -1.414213,0.58578 -0.552284,0 -1.052284,-0.22386 -1.414213,-0.58578 -0.361929,-0.36193 -0.585787,-0.86193 -0.585787,-1.41422 0,-0.55228 0.223858,-1.05228 0.585787,-1.41421 0.361929,-0.36193 0.861929,-0.58579 1.414213,-0.58579 0.552284,0 1.052284,0.22386 1.414213,0.58579 0.361929,0.36193 0.585787,0.86193 0.585787,1.41421 z"
       id="path6389" />
  </g>
  <g
     id="svg-r8-c6"
     style="opacity:1;stroke:none"
     transform="matrix(2.7,0,0,2.7,144.57454,-2469.3615)">
    <path
       style="fill:#ff0000;stroke:none;stroke-width:1"
       d="m -18.064645,978.05982 c 0,0.55229 -0.223858,1.05229 -0.585787,1.41422 -0.361929,0.36192 -0.861929,0.58578 -1.414213,0.58578 -0.552284,0 -1.052284,-0.22386 -1.414213,-0.58578 -0.361929,-0.36193 -0.585787,-0.86193 -0.585787,-1.41422 0,-0.55228 0.223858,-1.05228 0.585787,-1.41421 0.361929,-0.36193 0.861929,-0.58579 1.414213,-0.58579 0.552284,0 1.052284,0.22386 1.414213,0.58579 0.361929,0.36193 0.585787,0.86193 0.585787,1.41421 z"
       id="path6399" />
  </g>
  <g
     id="svg-r8-c5"
     style="opacity:1;stroke:none"
     transform="matrix(2.7,0,0,2.7,117.57454,-2469.3615)">
    <path
       style="fill:#ff0000;stroke:none;stroke-width:1"
       d="m -18.064645,978.05982 c 0,0.55229 -0.223858,1.05229 -0.585787,1.41422 -0.361929,0.36192 -0.861929,0.58578 -1.414213,0.58578 -0.552284,0 -1.052284,-0.22386 -1.414213,-0.58578 -0.361929,-0.36193 -0.585787,-0.86193 -0.585787,-1.41422 0,-0.55228 0.223858,-1.05228 0.585787,-1.41421 0.361929,-0.36193 0.861929,-0.58579 1.414213,-0.58579 0.552284,0 1.052284,0.22386 1.414213,0.58579 0.361929,0.36193 0.585787,0.86193 0.585787,1.41421 z"
       id="path6409" />
  </g>
  <g
     id="svg-r8-c4"
     style="opacity:1;stroke:none"
     transform="matrix(2.7,0,0,2.7,90.574542,-2469.3615)">
    <path
       style="fill:#ff0000;stroke:none;stroke-width:1"
       d="m -18.064645,978.05982 c 0,0.55229 -0.223858,1.05229 -0.585787,1.41422 -0.361929,0.36192 -0.861929,0.58578 -1.414213,0.58578 -0.552284,0 -1.052284,-0.22386 -1.414213,-0.58578 -0.361929,-0.36193 -0.585787,-0.86193 -0.585787,-1.41422 0,-0.55228 0.223858,-1.05228 0.585787,-1.41421 0.361929,-0.36193 0.861929,-0.58579 1.414213,-0.58579 0.552284,0 1.052284,0.22386 1.414213,0.58579 0.361929,0.36193 0.585787,0.86193 0.585787,1.41421 z"
       id="path6419" />
  </g>
  <g
     id="svg-r8-c3"
     style="opacity:1;stroke:none"
     transform="matrix(2.7,0,0,2.7,63.574542,-2469.3615)">
    <path
       style="fill:#ff0000;stroke:none;stroke-width:1"
       d="m -18.064645,978.05982 c 0,0.55229 -0.223858,1.05229 -0.585787,1.41422 -0.361929,0.36192 -0.861929,0.58578 -1.414213,0.58578 -0.552284,0 -1.052284,-0.22386 -1.414213,-0.58578 -0.361929,-0.36193 -0.585787,-0.86193 -0.585787,-1.41422 0,-0.55228 0.223858,-1.05228 0.585787,-1.41421 0.361929,-0.36193 0.861929,-0.58579 1.414213,-0.58579 0.552284,0 1.052284,0.22386 1.414213,0.58579 0.361929,0.36193 0.585787,0.86193 0.585787,1.41421 z"
       id="path6429" />
  </g>
  <g
     id="svg-r9-c11"
     style="opacity:1;stroke:none"
     transform="matrix(2.7,0,0,2.7,279.57454,-2442.3615)">
    <path
       style="fill:#ff0000;stroke:none;stroke-width:1"
       d="m -18.064645,978.05982 c 0,0.55229 -0.223858,1.05229 -0.585787,1.41422 -0.361929,0.36192 -0.861929,0.58578 -1.414213,0.58578 -0.552284,0 -1.052284,-0.22386 -1.414213,-0.58578 -0.361929,-0.36193 -0.585787,-0.86193 -0.585787,-1.41422 0,-0.55228 0.223858,-1.05228 0.585787,-1.41421 0.361929,-0.36193 0.861929,-0.58579 1.414213,-0.58579 0.552284,0 1.052284,0.22386 1.414213,0.58579 0.361929,0.36193 0.585787,0.86193 0.585787,1.41421 z"
       id="path4449" />
  </g>
  <g
     id="svg-r9-c10"
     style="opacity:1;stroke:none"
     transform="matrix(2.7,0,0,2.7,252.57454,-2442.3615)">
    <path
       style="fill:#ff0000;stroke:none;stroke-width:1"
       d="m -18.064645,978.05982 c 0,0.55229 -0.223858,1.05229 -0.585787,1.41422 -0.361929,0.36192 -0.861929,0.58578 -1.414213,0.58578 -0.552284,0 -1.052284,-0.22386 -1.414213,-0.58578 -0.361929,-0.36193 -0.585787,-0.86193 -0.585787,-1.41422 0,-0.55228 0.223858,-1.05228 0.585787,-1.41421 0.361929,-0.36193 0.861929,-0.58579 1.414213,-0.58579 0.552284,0 1.052284,0.22386 1.414213,0.58579 0.361929,0.36193 0.585787,0.86193 0.585787,1.41421 z"
       id="path4459" />
  </g>
  <g
     id="svg-r9-c9"
     style="opacity:1;stroke:none"
     transform="matrix(2.7,0,0,2.7,225.57454,-2442.3615)">
    <path
       style="fill:#ff0000;stroke:none;stroke-width:1"
       d="m -18.064645,978.05982 c 0,0.55229 -0.223858,1.05229 -0.585787,1.41422 -0.361929,0.36192 -0.861929,0.58578 -1.414213,0.58578 -0.552284,0 -1.052284,-0.22386 -1.414213,-0.58578 -0.361929,-0.36193 -0.585787,-0.86193 -0.585787,-1.41422 0,-0.55228 0.223858,-1.05228 0.585787,-1.41421 0.361929,-0.36193 0.861929,-0.58579 1.414213,-0.58579 0.552284,0 1.052284,0.22386 1.414213,0.58579 0.361929,0.36193 0.585787,0.86193 0.585787,1.41421 z"
       id="path4469" />
  </g>
  <g
     id="svg-r9-c8"
     style="opacity:1;stroke:none"
     transform="matrix(2.7,0,0,2.7,198.57454,-2442.3615)">
    <path
       style="fill:#ff0000;stroke:none;stroke-width:1"
       d="m -18.064645,978.05982 c 0,0.55229 -0.223858,1.05229 -0.585787,1.41422 -0.361929,0.36192 -0.861929,0.58578 -1.414213,0.58578 -0.552284,0 -1.052284,-0.22386 -1.414213,-0.58578 -0.361929,-0.36193 -0.585787,-0.86193 -0.585787,-1.41422 0,-0.55228 0.223858,-1.05228 0.585787,-1.41421 0.361929,-0.36193 0.861929,-0.58579 1.414213,-0.58579 0.552284,0 1.052284,0.22386 1.414213,0.58579 0.361929,0.36193 0.585787,0.86193 0.585787,1.41421 z"
       id="path4479" />
  </g>
  <g
     id="svg-r9-c7"
     style="opacity:1;stroke:none"
     transform="matrix(2.7,0,0,2.7,171.57454,-2442.3615)">
    <path
       style="fill:#ff0000;stroke:none;stroke-width:1"
       d="m -18.064645,978.05982 c 0,0.55229 -0.223858,1.05229 -0.585787,1.41422 -0.361929,0.36192 -0.861929,0.58578 -1.414213,0.58578 -0.552284,0 -1.052284,-0.22386 -1.414213,-0.58578 -0.361929,-0.36193 -0.585787,-0.86193 -0.585787,-1.41422 0,-0.55228 0.223858,-1.05228 0.585787,-1.41421 0.361929,-0.36193 0.861929,-0.58579 1.414213,-0.58579 0.552284,0 1.052284,0.22386 1.414213,0.58579 0.361929,0.36193 0.585787,0.86193 0.585787,1.41421 z"
       id="path4489" />
  </g>
  <g
     id="svg-r9-c6"
     style="opacity:1;stroke:none"
     transform="matrix(2.7,0,0,2.7,144.57454,-2442.3615)">
    <path
       style="fill:#ff0000;stroke:none;stroke-width:1"
       d="m -18.064645,978.05982 c 0,0.55229 -0.223858,1.05229 -0.585787,1.41422 -0.361929,0.36192 -0.861929,0.58578 -1.414213,0.58578 -0.552284,0 -1.052284,-0.22386 -1.414213,-0.58578 -0.361929,-0.36193 -0.585787,-0.86193 -0.585787,-1.41422 0,-0.55228 0.223858,-1.05228 0.585787,-1.41421 0.361929,-0.36193 0.861929,-0.58579 1.414213,-0.58579 0.552284,0 1.052284,0.22386 1.414213,0.58579 0.361929,0.36193 0.585787,0.86193 0.585787,1.41421 z"
       id="path4499" />
  </g>
  <g
     id="svg-r9-c5"
     style="opacity:1;stroke:none"
     transform="matrix(2.7,0,0,2.7,117.57454,-2442.3615)">
    <path
       style="fill:#ff0000;stroke:none;stroke-width:1"
       d="m -18.064645,978.05982 c 0,0.55229 -0.223858,1.05229 -0.585787,1.41422 -0.361929,0.36192 -0.861929,0.58578 -1.414213,0.58578 -0.552284,0 -1.052284,-0.22386 -1.414213,-0.58578 -0.361929,-0.36193 -0.585787,-0.86193 -0.585787,-1.41422 0,-0.55228 0.223858,-1.05228 0.585787,-1.41421 0.361929,-0.36193 0.861929,-0.58579 1.414213,-0.58579 0.552284,0 1.052284,0.22386 1.414213,0.58579 0.361929,0.36193 0.585787,0.86193 0.585787,1.41421 z"
       id="path4509" />
  </g>
  <g
     id="svg-r9-c4"
     style="opacity:1;stroke:none"
     transform="matrix(2.7,0,0,2.7,90.574542,-2442.3615)">
    <path
       style="fill:#ff0000;stroke:none;stroke-width:1"
       d="m -18.064645,978.05982 c 0,0.55229 -0.223858,1.05229 -0.585787,1.41422 -0.361929,0.36192 -0.861929,0.58578 -1.414213,0.58578 -0.552284,0 -1.052284,-0.22386 -1.414213,-0.58578 -0.361929,-0.36193 -0.585787,-0.86193 -0.585787,-1.41422 0,-0.55228 0.223858,-1.05228 0.585787,-1.41421 0.361929,-0.36193 0.861929,-0.58579 1.414213,-0.58579 0.552284,0 1.052284,0.22386 1.414213,0.58579 0.361929,0.36193 0.585787,0.86193 0.585787,1.41421 z"
       id="path4519" />
  </g>
  <g
     id="svg-r9-c3"
     style="opacity:1;stroke:none"
     transform="matrix(2.7,0,0,2.7,63.574542,-2442.3615)">
    <path
       style="fill:#ff0000;stroke:none;stroke-width:1"
       d="m -18.064645,978.05982 c 0,0.55229 -0.223858,1.05229 -0.585787,1.41422 -0.361929,0.36192 -0.861929,0.58578 -1.414213,0.58578 -0.552284,0 -1.052284,-0.22386 -1.414213,-0.58578 -0.361929,-0.36193 -0.585787,-0.86193 -0.585787,-1.41422 0,-0.55228 0.223858,-1.05228 0.585787,-1.41421 0.361929,-0.36193 0.861929,-0.58579 1.414213,-0.58579 0.552284,0 1.052284,0.22386 1.414213,0.58579 0.361929,0.36193 0.585787,0.86193 0.585787,1.41421 z"
       id="path4529" />
  </g>
  <g
     id="svg-r10-c11"
     style="opacity:1;stroke:none"
     transform="matrix(2.7,0,0,2.7,279.57454,-2415.3615)">
    <path
       style="fill:#ff0000;stroke:none;stroke-width:1"
       d="m -18.064645,978.05982 c 0,0.55229 -0.223858,1.05229 -0.585787,1.41422 -0.361929,0.36192 -0.861929,0.58578 -1.414213,0.58578 -0.552284,0 -1.052284,-0.22386 -1.414213,-0.58578 -0.361929,-0.36193 -0.585787,-0.86193 -0.585787,-1.41422 0,-0.55228 0.223858,-1.05228 0.585787,-1.41421 0.361929,-0.36193 0.861929,-0.58579 1.414213,-0.58579 0.552284,0 1.052284,0.22386 1.414213,0.58579 0.361929,0.36193 0.585787,0.86193 0.585787,1.41421 z"
       id="path6539" />
  </g>
  <g
     id="svg-r10-c10"
     style="opacity:1;stroke:none"
     transform="matrix(2.7,0,0,2.7,252.57454,-2415.3615)">
    <path
       style="fill:#ff0000;stroke:none;stroke-width:1"
       d="m -18.064645,978.05982 c 0,0.55229 -0.223858,1.05229 -0.585787,1.41422 -0.361929,0.36192 -0.861929,0.58578 -1.414213,0.58578 -0.552284,0 -1.052284,-0.22386 -1.414213,-0.58578 -0.361929,-0.36193 -0.585787,-0.86193 -0.585787,-1.41422 0,-0.55228 0.223858,-1.05228 0.585787,-1.41421 0.361929,-0.36193 0.861929,-0.58579 1.414213,-0.58579 0.552284,0 1.052284,0.22386 1.414213,0.58579 0.361929,0.36193 0.585787,0.86193 0.585787,1.41421 z"
       id="path6549" />
  </g>
  <g
     id="svg-r10-c9"
     style="opacity:1;stroke:none"
     transform="matrix(2.7,0,0,2.7,225.57454,-2415.3615)">
    <path
       style="fill:#ff0000;stroke:none;stroke-width:1"
       d="m -18.064645,978.05982 c 0,0.55229 -0.223858,1.05229 -0.585787,1.41422 -0.361929,0.36192 -0.861929,0.58578 -1.414213,0.58578 -0.552284,0 -1.052284,-0.22386 -1.414213,-0.58578 -0.361929,-0.36193 -0.585787,-0.86193 -0.585787,-1.41422 0,-0.55228 0.223858,-1.05228 0.585787,-1.41421 0.361929,-0.36193 0.861929,-0.58579 1.414213,-0.58579 0.552284,0 1.052284,0.22386 1.414213,0.58579 0.361929,0.36193 0.585787,0.86193 0.585787,1.41421 z"
       id="path6559" />
  </g>
  <g
     id="svg-r10-c8"
     style="opacity:1;stroke:none"
     transform="matrix(2.7,0,0,2.7,198.57454,-2415.3615)">
    <path
       style="fill:#ff0000;stroke:none;stroke-width:1"
       d="m -18.064645,978.05982 c 0,0.55229 -0.223858,1.05229 -0.585787,1.41422 -0.361929,0.36192 -0.861929,0.58578 -1.414213,0.58578 -0.552284,0 -1.052284,-0.22386 -1.414213,-0.58578 -0.361929,-0.36193 -0.585787,-0.86193 -0.585787,-1.41422 0,-0.55228 0.223858,-1.05228 0.585787,-1.41421 0.361929,-0.36193 0.861929,-0.58579 1.414213,-0.58579 0.552284,0 1.052284,0.22386 1.414213,0.58579 0.361929,0.36193 0.585787,0.86193 0.585787,1.41421 z"
       id="path6569" />
  </g>
  <g
     id="svg-r10-c7"
     style="opacity:1;stroke:none"
     transform="matrix(2.7,0,0,2.7,171.57454,-2415.3615)">
    <path
       style="fill:#ff0000;stroke:none;stroke-width:1"
       d="m -18.064645,978.05982 c 0,0.55229 -0.223858,1.05229 -0.585787,1.41422 -0.361929,0.36192 -0.861929,0.58578 -1.414213,0.58578 -0.552284,0 -1.052284,-0.22386 -1.414213,-0.58578 -0.361929,-0.36193 -0.585787,-0.86193 -0.585787,-1.41422 0,-0.55228 0.223858,-1.05228 0.585787,-1.41421 0.361929,-0.36193 0.861929,-0.58579 1.414213,-0.58579 0.552284,0 1.052284,0.22386 1.414213,0.58579 0.361929,0.36193 0.585787,0.86193 0.585787,1.41421 z"
       id="path6579" />
  </g>
  <g
     id="svg-r10-c6"
     style="opacity:1;stroke:none"
     transform="matrix(2.7,0,0,2.7,144.57454,-2415.3615)">
    <path
       style="fill:#ff0000;stroke:none;stroke-width:1"
       d="m -18.064645,978.05982 c 0,0.55229 -0.223858,1.05229 -0.585787,1.41422 -0.361929,0.36192 -0.861929,0.58578 -1.414213,0.58578 -0.552284,0 -1.052284,-0.22386 -1.414213,-0.58578 -0.361929,-0.36193 -0.585787,-0.86193 -0.585787,-1.41422 0,-0.55228 0.223858,-1.05228 0.585787,-1.41421 0.361929,-0.36193 0.861929,-0.58579 1.414213,-0.58579 0.552284,0 1.052284,0.22386 1.414213,0.58579 0.361929,0.36193 0.585787,0.86193 0.585787,1.41421 z"
       id="path6589" />
  </g>
  <g
     id="svg-r10-c5"
     style="opacity:1;stroke:none"
     transform="matrix(2.7,0,0,2.7,117.57454,-2415.3615)">
    <path
       style="fill:#ff0000;stroke:none;stroke-width:1"
       d="m -18.064645,978.05982 c 0,0.55229 -0.223858,1.05229 -0.585787,1.41422 -0.361929,0.36192 -0.861929,0.58578 -1.414213,0.58578 -0.552284,0 -1.052284,-0.22386 -1.414213,-0.58578 -0.361929,-0.36193 -0.585787,-0.86193 -0.585787,-1.41422 0,-0.55228 0.223858,-1.05228 0.585787,-1.41421 0.361929,-0.36193 0.861929,-0.58579 1.414213,-0.58579 0.552284,0 1.052284,0.22386 1.414213,0.58579 0.361929,0.36193 0.585787,0.86193 0.585787,1.41421 z"
       id="path6599" />
  </g>
  <g
     id="svg-r10-c4"
     style="opacity:1;stroke:none"
     transform="matrix(2.7,0,0,2.7,90.574542,-2415.3615)">
    <path
       style="fill:#ff0000;stroke:none;stroke-width:1"
       d="m -18.064645,978.05982 c 0,0.55229 -0.223858,1.05229 -0.585787,1.41422 -0.361929,0.36192 -0.861929,0.58578 -1.414213,0.58578 -0.552284,0 -1.052284,-0.22386 -1.414213,-0.58578 -0.361929,-0.36193 -0.585787,-0.86193 -0.585787,-1.41422 0,-0.55228 0.223858,-1.05228 0.585787,-1.41421 0.361929,-0.36193 0.861929,-0.58579 1.414213,-0.58579 0.552284,0 1.052284,0.22386 1.414213,0.58579 0.361929,0.36193 0.585787,0.86193 0.585787,1.41421 z"
       id="path6609" />
  </g>
  <g
     id="svg-r10-c3"
     style="opacity:1;stroke:none"
     transform="matrix(2.7,0,0,2.7,63.574542,-2415.3615)">
    <path
       style="fill:#ff0000;stroke:none;stroke-width:1"
       d="m -18.064645,978.05982 c 0,0.55229 -0.223858,1.05229 -0.585787,1.41422 -0.361929,0.36192 -0.861929,0.58578 -1.414213,0.58578 -0.552284,0 -1.052284,-0.22386 -1.414213,-0.58578 -0.361929,-0.36193 -0.585787,-0.86193 -0.585787,-1.41422 0,-0.55228 0.223858,-1.05228 0.585787,-1.41421 0.361929,-0.36193 0.861929,-0.58579 1.414213,-0.58579 0.552284,0 1.052284,0.22386 1.414213,0.58579 0.361929,0.36193 0.585787,0.86193 0.585787,1.41421 z"
       id="path6619" />
  </g>
  <g
     id="svg-r11-c11"
     style="opacity:1;stroke:none"
     transform="matrix(2.7,0,0,2.7,279.57454,-2388.3615)">
    <path
       style="fill:#ff0000;stroke:none;stroke-width:1"
       d="m -18.064645,978.05982 c 0,0.55229 -0.223858,1.05229 -0.585787,1.41422 -0.361929,0.36192 -0.861929,0.58578 -1.414213,0.58578 -0.552284,0 -1.052284,-0.22386 -1.414213,-0.58578 -0.361929,-0.36193 -0.585787,-0.86193 -0.585787,-1.41422 0,-0.55228 0.223858,-1.05228 0.585787,-1.41421 0.361929,-0.36193 0.861929,-0.58579 1.414213,-0.58579 0.552284,0 1.052284,0.22386 1.414213,0.58579 0.361929,0.36193 0.585787,0.86193 0.585787,1.41421 z"
       id="path4639" />
  </g>
  <g
     id="svg-r11-c10"
     style="opacity:1;stroke:none"
     transform="matrix(2.7,0,0,2.7,252.57454,-2388.3615)">
    <path
       style="fill:#ff0000;stroke:none;stroke-width:1"
       d="m -18.064645,978.05982 c 0,0.55229 -0.223858,1.05229 -0.585787,1.41422 -0.361929,0.36192 -0.861929,0.58578 -1.414213,0.58578 -0.552284,0 -1.052284,-0.22386 -1.414213,-0.58578 -0.361929,-0.36193 -0.585787,-0.86193 -0.585787,-1.41422 0,-0.55228 0.223858,-1.05228 0.585787,-1.41421 0.361929,-0.36193 0.861929,-0.58579 1.414213,-0.58579 0.552284,0 1.052284,0.22386 1.414213,0.58579 0.361929,0.36193 0.585787,0.86193 0.585787,1.41421 z"
       id="path4649" />
  </g>
  <g
     id="svg-r11-c9"
     style="opacity:1;stroke:none"
     transform="matrix(2.7,0,0,2.7,225.57454,-2388.3615)">
    <path
       style="fill:#ff0000;stroke:none;stroke-width:1"
       d="m -18.064645,978.05982 c 0,0.55229 -0.223858,1.05229 -0.585787,1.41422 -0.361929,0.36192 -0.861929,0.58578 -1.414213,0.58578 -0.552284,0 -1.052284,-0.22386 -1.414213,-0.58578 -0.361929,-0.36193 -0.585787,-0.86193 -0.585787,-1.41422 0,-0.55228 0.223858,-1.05228 0.585787,-1.41421 0.361929,-0.36193 0.861929,-0.58579 1.414213,-0.58579 0.552284,0 1.052284,0.22386 1.414213,0.58579 0.361929,0.36193 0.585787,0.86193 0.585787,1.41421 z"
       id="path4659" />
  </g>
  <g
     id="svg-r11-c8"
     style="opacity:1;stroke:none"
     transform="matrix(2.7,0,0,2.7,198.57454,-2388.3615)">
    <path
       style="fill:#ff0000;stroke:none;stroke-width:1"
       d="m -18.064645,978.05982 c 0,0.55229 -0.223858,1.05229 -0.585787,1.41422 -0.361929,0.36192 -0.861929,0.58578 -1.414213,0.58578 -0.552284,0 -1.052284,-0.22386 -1.414213,-0.58578 -0.361929,-0.36193 -0.585787,-0.86193 -0.585787,-1.41422 0,-0.55228 0.223858,-1.05228 0.585787,-1.41421 0.361929,-0.36193 0.861929,-0.58579 1.414213,-0.58579 0.552284,0 1.052284,0.22386 1.414213,0.58579 0.361929,0.36193 0.585787,0.86193 0.585787,1.41421 z"
       id="path4669" />
  </g>
  <g
     id="svg-r11-c7"
     style="opacity:1;stroke:none"
     transform="matrix(2.7,0,0,2.7,171.57454,-2388.3615)">
    <path
       style="fill:#ff0000;stroke:none;stroke-width:1"
       d="m -18.064645,978.05982 c 0,0.55229 -0.223858,1.05229 -0.585787,1.41422 -0.361929,0.36192 -0.861929,0.58578 -1.414213,0.58578 -0.552284,0 -1.052284,-0.22386 -1.414213,-0.58578 -0.361929,-0.36193 -0.585787,-0.86193 -0.585787,-1.41422 0,-0.55228 0.223858,-1.05228 0.585787,-1.41421 0.361929,-0.36193 0.861929,-0.58579 1.414213,-0.58579 0.552284,0 1.052284,0.22386 1.414213,0.58579 0.361929,0.36193 0.585787,0.86193 0.585787,1.41421 z"
       id="path4679" />
  </g>
  <g
     id="svg-r11-c6"
     style="opacity:1;stroke:none"
     transform="matrix(2.7,0,0,2.7,144.57454,-2388.3615)">
    <path
       style="fill:#ff0000;stroke:none;stroke-width:1"
       d="m -18.064645,978.05982 c 0,0.55229 -0.223858,1.05229 -0.585787,1.41422 -0.361929,0.36192 -0.861929,0.58578 -1.414213,0.58578 -0.552284,0 -1.052284,-0.22386 -1.414213,-0.58578 -0.361929,-0.36193 -0.585787,-0.86193 -0.585787,-1.41422 0,-0.55228 0.223858,-1.05228 0.585787,-1.41421 0.361929,-0.36193 0.861929,-0.58579 1.414213,-0.58579 0.552284,0 1.052284,0.22386 1.414213,0.58579 0.361929,0.36193 0.585787,0.86193 0.585787,1.41421 z"
       id="path4689" />
  </g>
  <g
     id="svg-r11-c5"
     style="opacity:1;stroke:none"
     transform="matrix(2.7,0,0,2.7,117.57454,-2388.3615)">
    <path
       style="fill:#ff0000;stroke:none;stroke-width:1"
       d="m -18.064645,978.05982 c 0,0.55229 -0.223858,1.05229 -0.585787,1.41422 -0.361929,0.36192 -0.861929,0.58578 -1.414213,0.58578 -0.552284,0 -1.052284,-0.22386 -1.414213,-0.58578 -0.361929,-0.36193 -0.585787,-0.86193 -0.585787,-1.41422 0,-0.55228 0.223858,-1.05228 0.585787,-1.41421 0.361929,-0.36193 0.861929,-0.58579 1.414213,-0.58579 0.552284,0 1.052284,0.22386 1.414213,0.58579 0.361929,0.36193 0.585787,0.86193 0.585787,1.41421 z"
       id="path4699" />
  </g>
  <g
     id="svg-r11-c4"
     style="opacity:1;stroke:none"
     transform="matrix(2.7,0,0,2.7,90.574542,-2388.3615)">
    <path
       style="fill:#ff0000;stroke:none;stroke-width:1"
       d="m -18.064645,978.05982 c 0,0.55229 -0.223858,1.05229 -0.585787,1.41422 -0.361929,0.36192 -0.861929,0.58578 -1.414213,0.58578 -0.552284,0 -1.052284,-0.22386 -1.414213,-0.58578 -0.361929,-0.36193 -0.585787,-0.86193 -0.585787,-1.41422 0,-0.55228 0.223858,-1.05228 0.585787,-1.41421 0.361929,-0.36193 0.861929,-0.58579 1.414213,-0.58579 0.552284,0 1.052284,0.22386 1.414213,0.58579 0.361929,0.36193 0.585787,0.86193 0.585787,1.41421 z"
       id="path4709" />
  </g>
  <g
     id="svg-r11-c3"
     style="opacity:1;stroke:none"
     transform="matrix(2.7,0,0,2.7,63.574542,-2388.3615)">
    <path
       style="fill:#ff0000;stroke:none;stroke-width:1"
       d="m -18.064645,978.05982 c 0,0.55229 -0.223858,1.05229 -0.585787,1.41422 -0.361929,0.36192 -0.861929,0.58578 -1.414213,0.58578 -0.552284,0 -1.052284,-0.22386 -1.414213,-0.58578 -0.361929,-0.36193 -0.585787,-0.86193 -0.585787,-1.41422 0,-0.55228 0.223858,-1.05228 0.585787,-1.41421 0.361929,-0.36193 0.861929,-0.58579 1.414213,-0.58579 0.552284,0 1.052284,0.22386 1.414213,0.58579 0.361929,0.36193 0.585787,0.86193 0.585787,1.41421 z"
       id="path4719" />
  </g>
  <g
     id="svg-r12-c11"
     style="opacity:1;stroke:none"
     transform="matrix(2.7,0,0,2.7,279.57454,-2361.3615)">
    <path
       style="fill:#ff0000;stroke:none;stroke-width:1"
       d="m -18.064645,978.05982 c 0,0.55229 -0.223858,1.05229 -0.585787,1.41422 -0.361929,0.36192 -0.861929,0.58578 -1.414213,0.58578 -0.552284,0 -1.052284,-0.22386 -1.414213,-0.58578 -0.361929,-0.36193 -0.585787,-0.86193 -0.585787,-1.41422 0,-0.55228 0.223858,-1.05228 0.585787,-1.41421 0.361929,-0.36193 0.861929,-0.58579 1.414213,-0.58579 0.552284,0 1.052284,0.22386 1.414213,0.58579 0.361929,0.36193 0.585787,0.86193 0.585787,1.41421 z"
       id="path6729" />
  </g>
  <g
     id="svg-r12-c10"
     style="opacity:1;stroke:none"
     transform="matrix(2.7,0,0,2.7,252.57454,-2361.3615)">
    <path
       style="fill:#ff0000;stroke:none;stroke-width:1"
       d="m -18.064645,978.05982 c 0,0.55229 -0.223858,1.05229 -0.585787,1.41422 -0.361929,0.36192 -0.861929,0.58578 -1.414213,0.58578 -0.552284,0 -1.052284,-0.22386 -1.414213,-0.58578 -0.361929,-0.36193 -0.585787,-0.86193 -0.585787,-1.41422 0,-0.55228 0.223858,-1.05228 0.585787,-1.41421 0.361929,-0.36193 0.861929,-0.58579 1.414213,-0.58579 0.552284,0 1.052284,0.22386 1.414213,0.58579 0.361929,0.36193 0.585787,0.86193 0.585787,1.41421 z"
       id="path6739" />
  </g>
  <g
     id="svg-r12-c9"
     style="opacity:1;stroke:none"
     transform="matrix(2.7,0,0,2.7,225.57454,-2361.3615)">
    <path
       style="fill:#ff0000;stroke:none;stroke-width:1"
       d="m -18.064645,978.05982 c 0,0.55229 -0.223858,1.05229 -0.585787,1.41422 -0.361929,0.36192 -0.861929,0.58578 -1.414213,0.58578 -0.552284,0 -1.052284,-0.22386 -1.414213,-0.58578 -0.361929,-0.36193 -0.585787,-0.86193 -0.585787,-1.41422 0,-0.55228 0.223858,-1.05228 0.585787,-1.41421 0.361929,-0.36193 0.861929,-0.58579 1.414213,-0.58579 0.552284,0 1.052284,0.22386 1.414213,0.58579 0.361929,0.36193 0.585787,0.86193 0.585787,1.41421 z"
       id="path6749" />
  </g>
  <g
     id="svg-r12-c8"
     style="opacity:1;stroke:none"
     transform="matrix(2.7,0,0,2.7,198.57454,-2361.3615)">
    <path
       style="fill:#ff0000;stroke:none;stroke-width:1"
       d="m -18.064645,978.05982 c 0,0.55229 -0.223858,1.05229 -0.585787,1.41422 -0.361929,0.36192 -0.861929,0.58578 -1.414213,0.58578 -0.552284,0 -1.052284,-0.22386 -1.414213,-0.58578 -0.361929,-0.36193 -0.585787,-0.86193 -0.585787,-1.41422 0,-0.55228 0.223858,-1.05228 0.585787,-1.41421 0.361929,-0.36193 0.861929,-0.58579 1.414213,-0.58579 0.552284,0 1.052284,0.22386 1.414213,0.58579 0.361929,0.36193 0.585787,0.86193 0.585787,1.41421 z"
       id="path6759" />
  </g>
  <g
     id="svg-r12-c7"
     style="opacity:1;stroke:none"
     transform="matrix(2.7,0,0,2.7,171.57454,-2361.3615)">
    <path
       style="fill:#ff0000;stroke:none;stroke-width:1"
       d="m -18.064645,978.05982 c 0,0.55229 -0.223858,1.05229 -0.585787,1.41422 -0.361929,0.36192 -0.861929,0.58578 -1.414213,0.58578 -0.552284,0 -1.052284,-0.22386 -1.414213,-0.58578 -0.361929,-0.36193 -0.585787,-0.86193 -0.585787,-1.41422 0,-0.55228 0.223858,-1.05228 0.585787,-1.41421 0.361929,-0.36193 0.861929,-0.58579 1.414213,-0.58579 0.552284,0 1.052284,0.22386 1.414213,0.58579 0.361929,0.36193 0.585787,0.86193 0.585787,1.41421 z"
       id="path6769" />
  </g>
  <g
     id="svg-r12-c6"
     style="opacity:1;stroke:none"
     transform="matrix(2.7,0,0,2.7,144.57454,-2361.3615)">
    <path
       style="fill:#ff0000;stroke:none;stroke-width:1"
       d="m -18.064645,978.05982 c 0,0.55229 -0.223858,1.05229 -0.585787,1.41422 -0.361929,0.36192 -0.861929,0.58578 -1.414213,0.58578 -0.552284,0 -1.052284,-0.22386 -1.414213,-0.58578 -0.361929,-0.36193 -0.585787,-0.86193 -0.585787,-1.41422 0,-0.55228 0.223858,-1.05228 0.585787,-1.41421 0.361929,-0.36193 0.861929,-0.58579 1.414213,-0.58579 0.552284,0 1.052284,0.22386 1.414213,0.58579 0.361929,0.36193 0.585787,0.86193 0.585787,1.41421 z"
       id="path6779" />
  </g>
  <g
     id="svg-r12-c5"
     style="opacity:1;stroke:none"
     transform="matrix(2.7,0,0,2.7,117.57454,-2361.3615)">
    <path
       style="fill:#ff0000;stroke:none;stroke-width:1"
       d="m -18.064645,978.05982 c 0,0.55229 -0.223858,1.05229 -0.585787,1.41422 -0.361929,0.36192 -0.861929,0.58578 -1.414213,0.58578 -0.552284,0 -1.052284,-0.22386 -1.414213,-0.58578 -0.361929,-0.36193 -0.585787,-0.86193 -0.585787,-1.41422 0,-0.55228 0.223858,-1.05228 0.585787,-1.41421 0.361929,-0.36193 0.861929,-0.58579 1.414213,-0.58579 0.552284,0 1.052284,0.22386 1.414213,0.58579 0.361929,0.36193 0.585787,0.86193 0.585787,1.41421 z"
       id="path6789" />
  </g>
  <g
     id="svg-r12-c4"
     style="opacity:1;stroke:none"
     transform="matrix(2.7,0,0,2.7,90.574542,-2361.3615)">
    <path
       style="fill:#ff0000;stroke:none;stroke-width:1"
       d="m -18.064645,978.05982 c 0,0.55229 -0.223858,1.05229 -0.585787,1.41422 -0.361929,0.36192 -0.861929,0.58578 -1.414213,0.58578 -0.552284,0 -1.052284,-0.22386 -1.414213,-0.58578 -0.361929,-0.36193 -0.585787,-0.86193 -0.585787,-1.41422 0,-0.55228 0.223858,-1.05228 0.585787,-1.41421 0.361929,-0.36193 0.861929,-0.58579 1.414213,-0.58579 0.552284,0 1.052284,0.22386 1.414213,0.58579 0.361929,0.36193 0.585787,0.86193 0.585787,1.41421 z"
       id="path6799" />
  </g>
  <g
     id="svg-r12-c3"
     style="opacity:1;stroke:none"
     transform="matrix(2.7,0,0,2.7,63.574542,-2361.3615)">
    <path
       style="fill:#ff0000;stroke:none;stroke-width:1"
       d="m -18.064645,978.05982 c 0,0.55229 -0.223858,1.05229 -0.585787,1.41422 -0.361929,0.36192 -0.861929,0.58578 -1.414213,0.58578 -0.552284,0 -1.052284,-0.22386 -1.414213,-0.58578 -0.361929,-0.36193 -0.585787,-0.86193 -0.585787,-1.41422 0,-0.55228 0.223858,-1.05228 0.585787,-1.41421 0.361929,-0.36193 0.861929,-0.58579 1.414213,-0.58579 0.552284,0 1.052284,0.22386 1.414213,0.58579 0.361929,0.36193 0.585787,0.86193 0.585787,1.41421 z"
       id="path6809" />
  </g>
  <g
     id="g50603"
     transform="matrix(0.50312487,0,0,0.50312486,-8.2409785,5.016687)">
    <g
       id="clones"
       transform="matrix(2,0,0,2,-250.04,-276.64)" />
    <g
       id="bdpqLegend"
       transform="matrix(2,0,0,2,-250.04,-276.64)" />
    <path
       id="r6c8-r7c9"
       class="link starts_at_r6c8 ends_at_r7c9"
       d="m 196.84,63.84 26.6,26.6 26.6,26.6"
       style="fill:#ff0000;stroke:#000000;stroke-width:3.8px;marker-end:url(#marker6278)" />
    <path
       id="r6c10-r7c9"
       class="link starts_at_r6c10 ends_at_r7c9"
       d="m 303.24,63.84 -26.6,26.6 -26.6,26.6"
       style="fill:#ff0000;stroke:#000000;stroke-width:3.8px;marker-end:url(#marker6278)" />
    <path
       id="r7c7-r8c8"
       class="link starts_at_r7c7 ends_at_r8c8"
       d="m 143.64,117.04 26.6,26.6 26.6,26.6"
       style="fill:#ff0000;stroke:#000000;stroke-width:3.8px;marker-end:url(#marker6278)" />
    <path
       id="r7c9-r8c8"
       class="link starts_at_r7c9 ends_at_r8c8"
       d="m 250.04,117.04 -26.6,26.6 -26.6,26.6"
       style="fill:#ff0000;stroke:#000000;stroke-width:3.8px;marker-end:url(#marker6278)" />
    <path
       id="r7c9-r8c10"
       class="link starts_at_r7c9 ends_at_r8c10"
       d="m 250.04,117.04 26.6,26.6 26.6,26.6"
       style="fill:#ff0000;stroke:#000000;stroke-width:3.8px;marker-end:url(#marker6278)" />
    <path
       id="r7c11-r8c10"
       class="link starts_at_r7c11 ends_at_r8c10"
       d="m 356.44,117.04 -26.6,26.6 -26.6,26.6"
       style="fill:#ff0000;stroke:#000000;stroke-width:3.8px;marker-end:url(#marker6278)" />
    <path
       id="r9c6-r9c7"
       class="link starts_at_r9c6 ends_at_r9c7"
       d="m 90.44,223.44 h 26.6 26.6"
       style="fill:#ff0000;stroke:#000000;stroke-width:3.8px;marker-end:url(#marker6278)" />
    <path
       id="r8c8-r9c7"
       class="link starts_at_r8c8 ends_at_r9c7"
       d="m 196.84,170.24 -26.6,26.6 -26.6,26.6"
       style="fill:#ff0000;stroke:#000000;stroke-width:3.8px;marker-end:url(#marker6278)" />
    <path
       id="r9c7-r9c8"
       class="link starts_at_r9c7 ends_at_r9c8"
       d="m 143.64,223.44 h 26.6 26.6"
       style="fill:#ff0000;stroke:#000000;stroke-width:3.8px;marker-end:url(#marker6278)" />
    <path
       id="r9c9-r9c8"
       class="link starts_at_r9c9 ends_at_r9c8"
       d="m 250.04,223.44 h -26.6 -26.6"
       style="fill:#ff0000;stroke:#000000;stroke-width:3.8px;marker-end:url(#marker6278)" />
    <path
       id="r8c8-r9c9"
       class="link starts_at_r8c8 ends_at_r9c9"
       d="m 196.84,170.24 26.6,26.6 26.6,26.6"
       style="fill:#ff0000;stroke:#000000;stroke-width:3.8px;marker-end:url(#marker6278)" />
    <path
       id="r8c10-r9c9"
       class="link starts_at_r8c10 ends_at_r9c9"
       d="m 303.24,170.24 -26.6,26.6 -26.6,26.6"
       style="fill:#ff0000;stroke:#000000;stroke-width:3.8px;marker-end:url(#marker6278)" />
    <path
       id="r9c9-r9c10"
       class="link starts_at_r9c9 ends_at_r9c10"
       d="m 250.04,223.44 h 26.6 26.6"
       style="fill:#ff0000;stroke:#000000;stroke-width:3.8px;marker-end:url(#marker6278)" />
    <path
       id="r9c11-r9c10"
       class="link starts_at_r9c11 ends_at_r9c10"
       d="m 356.44,223.44 h -26.6 -26.6"
       style="fill:#ff0000;stroke:#000000;stroke-width:3.8px;marker-end:url(#marker6278)" />
    <path
       id="r8c10-r9c11"
       class="link starts_at_r8c10 ends_at_r9c11"
       d="m 303.24,170.24 26.6,26.6 26.6,26.6"
       style="fill:#ff0000;stroke:#000000;stroke-width:3.8px;marker-end:url(#marker6278)" />
    <path
       id="r9c12-r9c11"
       class="link starts_at_r9c12 ends_at_r9c11"
       d="m 409.64,223.44 h -26.6 -26.6"
       style="fill:#ff0000;stroke:#000000;stroke-width:3.8px;marker-end:url(#marker6278)" />
    <path
       id="r9c8-r10c9"
       class="link starts_at_r9c8 ends_at_r10c9"
       d="m 196.84,223.44 26.6,26.6 26.6,26.6"
       style="fill:#ff0000;stroke:#000000;stroke-width:3.8px;marker-end:url(#marker6278)" />
    <path
       id="r9c10-r10c9"
       class="link starts_at_r9c10 ends_at_r10c9"
       d="m 303.24,223.44 -26.6,26.6 -26.6,26.6"
       style="fill:#ff0000;stroke:#000000;stroke-width:3.8px;marker-end:url(#marker6278)" />
    <path
       id="r11c7-r11c6"
       class="link starts_at_r11c7 ends_at_r11c6"
       d="m 143.64,329.84 h -26.6 -26.6"
       style="fill:#ff0000;stroke:#000000;stroke-width:3.8px;marker-end:url(#marker6278)" />
    <path
       id="r9c7-r11c7"
       class="link starts_at_r9c7 ends_at_r11c7"
       d="m 143.64,223.44 v 53.2 53.2"
       style="fill:#ff0000;stroke:#000000;stroke-width:3.8px;marker-end:url(#marker6278)" />
    <path
       id="r11c8-r11c7"
       class="link starts_at_r11c8 ends_at_r11c7"
       d="m 196.84,329.84 h -26.6 -26.6"
       style="fill:#ff0000;stroke:#000000;stroke-width:3.8px;marker-end:url(#marker6278)" />
    <path
       id="r9c8-r11c8"
       class="link starts_at_r9c8 ends_at_r11c8"
       d="m 196.84,223.44 v 53.2 53.2"
       style="fill:#ff0000;stroke:#000000;stroke-width:3.8px;marker-end:url(#marker6278)" />
    <path
       id="r10c9-r11c8"
       class="link starts_at_r10c9 ends_at_r11c8"
       d="m 250.04,276.64 -26.6,26.6 -26.6,26.6"
       style="fill:#ff0000;stroke:#000000;stroke-width:3.8px;marker-end:url(#marker6278)" />
    <path
       id="r11c8-r11c9"
       class="link starts_at_r11c8 ends_at_r11c9"
       d="m 196.84,329.84 h 26.6 26.6"
       style="fill:#ff0000;stroke:#000000;stroke-width:3.8px;marker-end:url(#marker6278)" />
    <path
       id="r11c10-r11c9"
       class="link starts_at_r11c10 ends_at_r11c9"
       d="m 303.24,329.84 h -26.6 -26.6"
       style="fill:#ff0000;stroke:#000000;stroke-width:3.8px;marker-end:url(#marker6278)" />
    <path
       id="r10c9-r11c10"
       class="link starts_at_r10c9 ends_at_r11c10"
       d="m 250.04,276.64 26.6,26.6 26.6,26.6"
       style="fill:#ff0000;stroke:#000000;stroke-width:3.8px;marker-end:url(#marker6278)" />
    <path
       id="r9c10-r11c10"
       class="link starts_at_r9c10 ends_at_r11c10"
       d="m 303.24,223.44 v 53.2 53.2"
       style="fill:#ff0000;stroke:#000000;stroke-width:3.8px;marker-end:url(#marker6278)" />
    <path
       id="r11c10-r11c11"
       class="link starts_at_r11c10 ends_at_r11c11"
       d="m 303.24,329.84 h 26.6 26.6"
       style="fill:#ff0000;stroke:#000000;stroke-width:3.8px;marker-end:url(#marker6278)" />
    <path
       id="r9c11-r11c11"
       class="link starts_at_r9c11 ends_at_r11c11"
       d="m 356.44,223.44 v 53.2 53.2"
       style="fill:#ff0000;stroke:#000000;stroke-width:3.8px;marker-end:url(#marker6278)" />
    <path
       id="r11c11-r11c12"
       class="link starts_at_r11c11 ends_at_r11c12"
       d="m 356.44,329.84 h 26.6 26.6"
       style="fill:#ff0000;stroke:#000000;stroke-width:3.8px;marker-end:url(#marker6278)" />
    <path
       id="r11c7-r12c8"
       class="link starts_at_r11c7 ends_at_r12c8"
       d="m 143.64,329.84 26.6,26.6 26.6,26.6"
       style="fill:#ff0000;stroke:#000000;stroke-width:3.8px;marker-end:url(#marker6278)" />
    <path
       id="r11c9-r12c8"
       class="link starts_at_r11c9 ends_at_r12c8"
       d="m 250.04,329.84 -26.6,26.6 -26.6,26.6"
       style="fill:#ff0000;stroke:#000000;stroke-width:3.8px;marker-end:url(#marker6278)" />
    <path
       id="r11c9-r12c10"
       class="link starts_at_r11c9 ends_at_r12c10"
       d="m 250.04,329.84 26.6,26.6 26.6,26.6"
       style="fill:#ff0000;stroke:#000000;stroke-width:3.8px;marker-end:url(#marker6278)" />
    <path
       id="r11c11-r12c10"
       class="link starts_at_r11c11 ends_at_r12c10"
       d="m 356.44,329.84 -26.6,26.6 -26.6,26.6"
       style="fill:#ff0000;stroke:#000000;stroke-width:3.8px;marker-end:url(#marker6278)" />
    <path
       id="r12c8-r13c7"
       class="link starts_at_r12c8 ends_at_r13c7"
       d="m 196.84,383.04 -26.6,26.6 -26.6,26.6"
       style="fill:#ff0000;stroke:#000000;stroke-width:3.8px;marker-end:url(#marker6278)" />
    <path
       id="r12c8-r13c9"
       class="link starts_at_r12c8 ends_at_r13c9"
       d="m 196.84,383.04 26.6,26.6 26.6,26.6"
       style="fill:#ff0000;stroke:#000000;stroke-width:3.8px;marker-end:url(#marker6278)" />
    <path
       id="r12c10-r13c9"
       class="link starts_at_r12c10 ends_at_r13c9"
       d="m 303.24,383.04 -26.6,26.6 -26.6,26.6"
       style="fill:#ff0000;stroke:#000000;stroke-width:3.8px;marker-end:url(#marker6278)" />
    <path
       id="r12c10-r13c11"
       class="link starts_at_r12c10 ends_at_r13c11"
       d="m 303.24,383.04 26.6,26.6 26.6,26.6"
       style="fill:#ff0000;stroke:#000000;stroke-width:3.8px;marker-end:url(#marker6278)" />
    <path
       id="r13c9-r14c8"
       class="link starts_at_r13c9 ends_at_r14c8"
       d="m 250.04,436.24 -26.6,26.6 -26.6,26.6"
       style="fill:#ff0000;stroke:#000000;stroke-width:3.8px;marker-end:url(#marker6278)" />
    <path
       id="r13c9-r14c10"
       class="link starts_at_r13c9 ends_at_r14c10"
       d="m 250.04,436.24 26.6,26.6 26.6,26.6"
       style="fill:#ff0000;stroke:#000000;stroke-width:3.8px;marker-end:url(#marker6278)" />
  </g>
  <g
     id="clones-3"
     transform="translate(72.580432,-62.679584)" />
  <g
     id="bdpqLegend-6"
     transform="translate(72.580432,-62.679584)" />
  <path
     id="r6c8-r7c9-7"
     class="link starts_at_r6c8 ends_at_r7c9"
     d="m 310.31612,44.31741 12.0957,10.67447 12.0957,10.67448"
     style="fill:none;stroke:#000000;stroke-width:1.9px" />
  <path
     id="r6c10-r7c9-5"
     class="link starts_at_r6c10 ends_at_r7c9"
     d="M 358.26877,43.80328 346.38815,54.73482 334.50752,65.66636"
     style="fill:none;stroke:#000000;stroke-width:1.9px" />
  <path
     id="r7c7-r8c8-3"
     class="link starts_at_r7c7 ends_at_r8c8"
     d="m 278.78309,63.6168 13.85573,11.33254 13.85575,11.33255"
     style="fill:none;stroke:#000000;stroke-width:1.9px" />
  <path
     id="r7c9-r8c8-5"
     class="link starts_at_r7c9 ends_at_r8c8"
     d="M 334.50752,65.66636 320.50105,75.97412 306.49457,86.28189"
     style="fill:none;stroke:#000000;stroke-width:1.9px" />
  <path
     id="r7c9-r8c10-6"
     class="link starts_at_r7c9 ends_at_r8c10"
     d="m 334.50752,65.66636 14.23845,10.06846 14.23843,10.06845"
     style="fill:none;stroke:#000000;stroke-width:1.9px" />
  <path
     id="r7c11-r8c10-2"
     class="link starts_at_r7c11 ends_at_r8c10"
     d="M 390.44577,62.73419 376.71509,74.26873 362.9844,85.80327"
     style="fill:none;stroke:#000000;stroke-width:1.9px" />
  <path
     id="r9c6-r9c7-9"
     class="link starts_at_r9c6 ends_at_r9c7"
     d="m 251.19077,115.55294 17.89455,1.06023 17.89454,1.06023"
     style="fill:none;stroke:#000000;stroke-width:1.9px" />
  <path
     id="r8c8-r9c7-1"
     class="link starts_at_r8c8 ends_at_r9c7"
     d="m 306.49457,86.28189 -9.75736,15.69576 -9.75735,15.69575"
     style="fill:none;stroke:#000000;stroke-width:1.9px" />
  <path
     id="r9c7-r9c8-2"
     class="link starts_at_r9c7 ends_at_r9c8"
     d="m 286.97986,117.6734 14.03669,1.75444 14.0367,1.75444"
     style="fill:none;stroke:#000000;stroke-width:1.9px" />
  <path
     id="r9c9-r9c8-7"
     class="link starts_at_r9c9 ends_at_r9c8"
     d="m 335.00194,100.3989 -9.97435,10.39169 -9.97434,10.39169"
     style="fill:none;stroke:#000000;stroke-width:1.9px" />
  <path
     id="r8c8-r9c9-0"
     class="link starts_at_r8c8 ends_at_r9c9"
     d="m 306.49457,86.28189 14.25369,7.05851 14.25368,7.0585"
     style="fill:none;stroke:#000000;stroke-width:1.9px" />
  <path
     id="r8c10-r9c9-9"
     class="link starts_at_r8c10 ends_at_r9c9"
     d="m 362.9844,85.80327 -13.99122,7.29782 -13.99124,7.29781"
     style="fill:none;stroke:#000000;stroke-width:1.9px" />
  <path
     id="r9c9-r9c10-3"
     class="link starts_at_r9c9 ends_at_r9c10"
     d="m 335.00194,100.3989 10.09031,10.22307 10.09029,10.22307"
     style="fill:none;stroke:#000000;stroke-width:1.9px" />
  <path
     id="r9c11-r9c10-6"
     class="link starts_at_r9c11 ends_at_r9c10"
     d="m 383.22075,116.87458 -14.01909,1.98523 -14.01912,1.98523"
     style="fill:none;stroke:#000000;stroke-width:1.9px" />
  <path
     id="r8c10-r9c11-0"
     class="link starts_at_r8c10 ends_at_r9c11"
     d="m 362.9844,85.80327 10.11818,15.53566 10.11817,15.53565"
     style="fill:none;stroke:#000000;stroke-width:1.9px" />
  <path
     id="r9c12-r9c11-6"
     class="link starts_at_r9c12 ends_at_r9c11"
     d="m 418.92291,113.684 -17.85107,1.59529 -17.85109,1.59529"
     style="fill:none;stroke:#000000;stroke-width:1.9px" />
  <path
     id="r9c8-r10c9-2"
     class="link starts_at_r9c8 ends_at_r10c9"
     d="m 315.05325,121.18228 10.10099,6.48035 10.10099,6.48033"
     style="fill:none;stroke:#000000;stroke-width:1.9px" />
  <path
     id="r9c10-r10c9-6"
     class="link starts_at_r9c10 ends_at_r10c9"
     d="m 355.18254,120.84504 -9.96365,6.64896 -9.96366,6.64896"
     style="fill:none;stroke:#000000;stroke-width:1.9px" />
  <path
     id="r11c7-r11c6-1"
     class="link starts_at_r11c7 ends_at_r11c6"
     d="m 287.73203,152.97943 -18.07605,1.77798 -18.07605,1.77796"
     style="fill:none;stroke:#000000;stroke-width:1.9px" />
  <path
     id="r9c7-r11c7-8"
     class="link starts_at_r9c7 ends_at_r11c7"
     d="m 286.97986,117.6734 0.37609,17.65301 0.37608,17.65302"
     style="fill:none;stroke:#000000;stroke-width:1.9px" />
  <path
     id="r11c8-r11c7-7"
     class="link starts_at_r11c8 ends_at_r11c7"
     d="m 315.55611,147.96633 -13.91203,2.50656 -13.91205,2.50654"
     style="fill:none;stroke:#000000;stroke-width:1.9px" />
  <path
     id="r9c8-r11c8-9"
     class="link starts_at_r9c8 ends_at_r11c8"
     d="m 315.05325,121.18228 0.25143,13.39204 0.25143,13.39201"
     style="fill:none;stroke:#000000;stroke-width:1.9px" />
  <path
     id="r10c9-r11c8-2"
     class="link starts_at_r10c9 ends_at_r11c8"
     d="m 335.25523,134.14296 -9.84956,6.91169 -9.84956,6.91168"
     style="fill:none;stroke:#000000;stroke-width:1.9px" />
  <path
     id="r11c8-r11c9-0"
     class="link starts_at_r11c8 ends_at_r11c9"
     d="m 315.55611,147.96633 10.06439,10.43271 10.0644,10.43271"
     style="fill:none;stroke:#000000;stroke-width:1.9px" />
  <path
     id="r11c10-r11c9-2"
     class="link starts_at_r11c10 ends_at_r11c9"
     d="m 355.40287,147.50674 -9.85899,10.6625 -9.85898,10.66251"
     style="fill:none;stroke:#000000;stroke-width:1.9px" />
  <path
     id="r10c9-r11c10-3"
     class="link starts_at_r10c9 ends_at_r11c10"
     d="m 335.25523,134.14296 10.07382,6.6819 10.07382,6.68188"
     style="fill:none;stroke:#000000;stroke-width:1.9px" />
  <path
     id="r9c10-r11c10-7"
     class="link starts_at_r9c10 ends_at_r11c10"
     d="m 355.18254,120.84504 0.11021,13.33085 0.11019,13.33085"
     style="fill:none;stroke:#000000;stroke-width:1.9px" />
  <path
     id="r11c10-r11c11-5"
     class="link starts_at_r11c10 ends_at_r11c11"
     d="m 355.40287,147.50674 13.97598,2.33617 13.97598,2.33616"
     style="fill:none;stroke:#000000;stroke-width:1.9px" />
  <path
     id="r9c11-r11c11-9"
     class="link starts_at_r9c11 ends_at_r11c11"
     d="m 383.22075,116.87458 0.0671,17.65224 0.0671,17.65225"
     style="fill:none;stroke:#000000;stroke-width:1.9px" />
  <path
     id="r11c11-r11c12-2"
     class="link starts_at_r11c11 ends_at_r11c12"
     d="m 383.35483,152.17907 17.96794,1.26487 17.96796,1.26488"
     style="fill:none;stroke:#000000;stroke-width:1.9px" />
  <path
     id="r11c7-r12c8-2"
     class="link starts_at_r11c7 ends_at_r12c8"
     d="m 287.73203,152.97943 10.01298,15.86226 10.01296,15.86226"
     style="fill:none;stroke:#000000;stroke-width:1.9px" />
  <path
     id="r11c9-r12c8-8"
     class="link starts_at_r11c9 ends_at_r12c8"
     d="m 335.6849,168.83175 -13.96346,7.93611 -13.96346,7.93609"
     style="fill:none;stroke:#000000;stroke-width:1.9px" />
  <path
     id="r11c9-r12c10-9"
     class="link starts_at_r11c9 ends_at_r12c10"
     d="m 335.6849,168.83175 14.10218,7.67705 14.10216,7.67704"
     style="fill:none;stroke:#000000;stroke-width:1.9px" />
  <path
     id="r11c11-r12c10-7"
     class="link starts_at_r11c11 ends_at_r12c10"
     d="m 383.35483,152.17907 -9.7328,16.0034 -9.73279,16.00337"
     style="fill:none;stroke:#000000;stroke-width:1.9px" />
  <path
     id="r12c8-r13c7-3"
     class="link starts_at_r12c8 ends_at_r13c7"
     d="m 307.75797,184.70395 -13.6411,11.96345 -13.64111,11.96344"
     style="fill:none;stroke:#000000;stroke-width:1.9px" />
  <path
     id="r12c8-r13c9-6"
     class="link starts_at_r12c8 ends_at_r13c9"
     d="m 307.75797,184.70395 14.11351,10.59066 14.11352,10.59064"
     style="fill:none;stroke:#000000;stroke-width:1.9px" />
  <path
     id="r12c10-r13c9-1"
     class="link starts_at_r12c10 ends_at_r13c9"
     d="m 363.88924,184.18584 -13.95212,10.84971 -13.95212,10.8497"
     style="fill:none;stroke:#000000;stroke-width:1.9px" />
  <path
     id="r12c10-r13c11-2"
     class="link starts_at_r12c10 ends_at_r13c11"
     d="m 363.88924,184.18584 13.90106,11.69384 13.90107,11.69381"
     style="fill:none;stroke:#000000;stroke-width:1.9px" />
  <path
     id="r13c9-r14c8-9"
     class="link starts_at_r13c9 ends_at_r14c8"
     d="m 335.985,205.88525 -11.64629,11.62 -11.64632,11.61998"
     style="fill:none;stroke:#000000;stroke-width:1.9px" />
  <path
     id="r13c9-r14c10-3"
     class="link starts_at_r13c9 ends_at_r14c10"
     d="m 335.985,205.88525 11.90065,11.36397 11.90065,11.36396"
     style="fill:none;stroke:#000000;stroke-width:1.9px" />
</svg>
