<?xml version="1.0" encoding="UTF-8" standalone="no"?>
<!-- Created with Inkscape (http://www.inkscape.org/) -->

<svg
   width="273mm"
   height="40mm"
   viewBox="0 0 546 80"
   version="1.1"
   id="svg5"
   inkscape:version="1.2.2 (732a01da63, 2022-12-09, custom)"
   sodipodi:docname="same-drostes.svg"
   xml:space="preserve"
   xmlns:inkscape="http://www.inkscape.org/namespaces/inkscape"
   xmlns:sodipodi="http://sodipodi.sourceforge.net/DTD/sodipodi-0.dtd"
   xmlns="http://www.w3.org/2000/svg"
   xmlns:svg="http://www.w3.org/2000/svg"><sodipodi:namedview
     id="namedview7"
     pagecolor="#ffffff"
     bordercolor="#666666"
     borderopacity="1.0"
     inkscape:showpageshadow="2"
     inkscape:pageopacity="0.0"
     inkscape:pagecheckerboard="0"
     inkscape:deskcolor="#d1d1d1"
     inkscape:document-units="mm"
     showgrid="true"
     inkscape:zoom="1.4795612"
     inkscape:cx="517.0452"
     inkscape:cy="77.387811"
     inkscape:window-width="2256"
     inkscape:window-height="1480"
     inkscape:window-x="0"
     inkscape:window-y="0"
     inkscape:window-maximized="1"
     inkscape:current-layer="layer1"
     showguides="true"
     inkscape:pageshadow="2"><inkscape:grid
   type="axonomgrid"
   id="grid2793"
   empspacing="7"
   spacingy="1"
   originx="0"
   originy="0" />
</sodipodi:namedview><defs
     id="defs2"><rect
   x="-11.456084"
   y="59.527561"
   width="22.912169"
   height="92.598427"
   id="rect14527" />
</defs><g
     inkscape:label="Layer 1"
     inkscape:groupmode="layer"
     id="layer1">














































<g
   id="g80545"
   transform="matrix(4,0,0,4,-41.569221,-11)"><text
     x="12"
     y="21"
     style="font-size:2.46944px;line-height:1.25;font-family:sans-serif;stroke-width:0.264583"
     id="text19989">2345 bdpq</text><path
     style="fill:none;stroke:#2ca02c;stroke-width:0.7;stroke-dasharray:none"
     d="m 13.856407,6 v 9"
     id="123456_2" /><path
     style="fill:none;stroke:#ff0000;stroke-width:0.7;stroke-dasharray:none"
     d="m 16.454483,4.5 v 12"
     id="123456_3" /><path
     style="fill:none;stroke:#000000;stroke-width:0.7;stroke-dasharray:none"
     d="m 19.918584,4.5 v 12"
     id="123456_4" /><path
     style="fill:none;stroke:#9955ff;stroke-width:0.7;stroke-dasharray:none;stroke-opacity:1"
     d="m 22.516661,6 v 9"
     id="123456_5" /><g
     id="g61674" /></g><g
   id="g13097"
   transform="matrix(4,0,0,4,-17.817911,-25)"><path
     style="fill:none;stroke:#2ca02c;stroke-width:0.7;stroke-dasharray:none"
     d="m 13.856407,90 v 9"
     id="125436_2"
     transform="translate(91.057024,-80.500001)" /><path
     style="fill:none;stroke:#ff0000;stroke-width:0.7;stroke-dasharray:none"
     d="m 22.516661,90 -6.062178,10.5"
     id="125436_5"
     transform="translate(91.057024,-80.500001)" /><path
     style="fill:none;stroke:#000000;stroke-width:0.7;stroke-dasharray:none"
     d="m 19.918584,88.5 v 12"
     id="125436_4"
     transform="translate(91.057024,-80.500001)" /><path
     style="fill:none;stroke:#9955ff;stroke-width:0.7;stroke-dasharray:none;stroke-opacity:1"
     d="M 16.454483,88.5 22.516661,99"
     id="125436_3"
     transform="translate(91.057024,-80.500001)" /><g
     id="g43772"
     transform="translate(91.057023,-80.5)">
<text
   x="12"
   y="105"
   style="font-size:2.46944px;line-height:1.25;font-family:sans-serif;stroke-width:0.264583"
   id="text43762">2543 bp</text>






</g></g><g
   id="g1330"
   transform="matrix(4,0,0,4,54.928219,-11)"><path
     style="fill:none;stroke:#2ca02c;stroke-width:0.7;stroke-dasharray:none"
     d="m 13.856407,6 c 3.398521,2.5731401 9.966072,2.9891747 9.730857,4.670557 C 23.367953,12.238257 17.320508,12 13.856407,15"
     id="path1308"
     sodipodi:nodetypes="csc" /><path
     style="fill:none;stroke:#ff0000;stroke-width:0.7;stroke-dasharray:none"
     d="m 16.454483,4.5 c 4.418249,1.6780443 5.491824,3.914 5.196152,6 -0.278334,1.963676 -1.688976,3.756891 -5.196152,6"
     id="path1310"
     sodipodi:nodetypes="csc" /><path
     style="fill:none;stroke:#000000;stroke-width:0.7;stroke-dasharray:none"
     d="m 19.918584,4.5 c -4.234965,2.2291049 -5.159603,4.0982709 -5.196153,6 -0.04044,2.104274 1.228909,4.208229 5.196153,6"
     id="path1312"
     sodipodi:nodetypes="csc" /><path
     style="fill:none;stroke:#9955ff;stroke-width:0.7;stroke-dasharray:none;stroke-opacity:1"
     d="M 22.516661,6 C 18.577229,9.0574572 12.61416,8.9561563 12.779915,10.62138 12.937616,12.205691 19.052558,12 22.516661,15"
     id="path1314"
     sodipodi:nodetypes="csc" /><g
     id="g1328" /></g><g
   id="g13149"
   transform="matrix(4,0,0,4,442.90762,-430.99999)"><path
     style="fill:none;stroke:#2ca02c;stroke-width:0.7;stroke-dasharray:none"
     d="m 16.454483,109.5 c 5.196151,2 7.244502,5.6681 -2.598076,10.5"
     id="path13139"
     sodipodi:nodetypes="cc" /><path
     style="fill:none;stroke:#ff0000;stroke-width:0.7;stroke-dasharray:none"
     d="m 13.856407,111 c 7.278588,2.33876 12.162229,5.11121 2.598076,10.5"
     id="path13141"
     sodipodi:nodetypes="cc" /><g
     id="g13143"
     transform="translate(4.319915e-6,105)" /><path
     style="fill:none;stroke:#000000;stroke-width:0.7;stroke-dasharray:none"
     d="m 22.516661,111 c -4.766878,2.73736 -13.8408508,5.5359 -2.598077,10.5"
     id="path13145"
     sodipodi:nodetypes="cc" /><path
     style="fill:none;stroke:#9955ff;stroke-width:0.7;stroke-dasharray:none;stroke-opacity:1"
     d="m 19.918584,109.5 c -9.857279,5.60231 -4.238945,8.17062 2.598077,10.5"
     id="path13147"
     sodipodi:nodetypes="cc" /></g><text
   xml:space="preserve"
   style="font-size:9.87778px;line-height:1.25;font-family:sans-serif;letter-spacing:0px;word-spacing:0px;stroke-width:2.11666"
   x="103.0538"
   y="73.666656"
   id="text626"><tspan
     sodipodi:role="line"
     id="tspan624"
     style="font-size:9.87778px;stroke-width:2.11666"
     x="103.0538"
     y="73.666656">ctcttctc</tspan></text><text
   xml:space="preserve"
   style="font-size:9.87778px;line-height:1.25;font-family:sans-serif;letter-spacing:0px;word-spacing:0px;stroke-width:2.11666"
   x="492.89233"
   y="73.000008"
   id="text969"><tspan
     sodipodi:role="line"
     id="tspan967"
     style="font-size:9.87778px;stroke-width:2.11666"
     x="492.89233"
     y="73.000008">ctctctc</tspan></text></g></svg>
