<?xml version="1.0" encoding="UTF-8" standalone="no"?>
<!-- Created with Inkscape (http://www.inkscape.org/) -->

<svg
   width="54mm"
   height="56mm"
   viewBox="0 0 108 112"
   version="1.1"
   id="svg5"
   inkscape:version="1.1.2 (0a00cf5339, 2022-02-04)"
   sodipodi:docname="too-complicated-blobs.svg"
   xml:space="preserve"
   xmlns:inkscape="http://www.inkscape.org/namespaces/inkscape"
   xmlns:sodipodi="http://sodipodi.sourceforge.net/DTD/sodipodi-0.dtd"
   xmlns="http://www.w3.org/2000/svg"
   xmlns:svg="http://www.w3.org/2000/svg"><sodipodi:namedview
     id="namedview7"
     pagecolor="#ffffff"
     bordercolor="#666666"
     borderopacity="1.0"
     inkscape:showpageshadow="2"
     inkscape:pageopacity="0.0"
     inkscape:pagecheckerboard="0"
     inkscape:deskcolor="#d1d1d1"
     inkscape:document-units="mm"
     showgrid="true"
     inkscape:zoom="1"
     inkscape:cx="102"
     inkscape:cy="105.5"
     inkscape:window-width="1488"
     inkscape:window-height="854"
     inkscape:window-x="65"
     inkscape:window-y="106"
     inkscape:window-maximized="0"
     inkscape:current-layer="g5914"
     inkscape:pageshadow="2"><inkscape:grid
       type="axonomgrid"
       id="grid2793"
       empspacing="7"
       spacingy="3.0000001"
       originx="0"
       originy="0" /></sodipodi:namedview><defs
     id="defs2"><inkscape:path-effect
       effect="knot"
       id="path-effect1600"
       is_visible="true"
       lpeversion="1"
       switcher_size="2"
       interruption_width="2.3"
       prop_to_stroke_width="true"
       add_stroke_width="inkscape_1.0_and_up"
       both="false"
       inverse_width="false"
       add_other_stroke_width="inkscape_1.0_and_up"
       crossing_points_vector="216.77329 | 259.8017 | 0 | 1 | 0 | 0 | 0.11815919 | 0.04576241 | -1 | 213.33772 | 266.71482 | 0 | 3 | 3 | 5 | 0.92726303 | 1.5994565 | -1 | 215.21184 | 265.43166 | 0 | 4 | 2 | 3 | 0.64278728 | 0.84929666 | 1 | 216.4836 | 262.98091 | 0 | 5 | 1 | 3 | 0.36778541 | 0.83015235 | -1 | 208.03033 | 264.95899 | 0 | 1 | 5 | 5 | 1.6632395 | 0.79307236 | -1 | 211.13403 | 266.6409 | 0 | 2 | 4 | 5 | 1.2225042 | 1.8231369 | 1 | 211.15454 | 257.7622 | 1 | 2 | 2 | 0 | 0.29626645 | 0.23339472 | -1 | 213.18822 | 257.8379 | 1 | 3 | 1 | 0 | 0.18455855 | 0.14631834 | 1 | 208.46319 | 261.58213 | 1 | 4 | 4 | 0 | 0.59664616 | 0.25270387 | -1 | 209.52565 | 258.96374 | 1 | 5 | 3 | 0 | 0.43109149 | 0.16062268 | 1 | 212.48866 | 258.85402 | 2 | 3 | 1 | 1 | 0.49172618 | 0.24930141 | 1 | 211.6767 | 265.62093 | 2 | 3 | 4 | 4 | 1.6988186 | 1.1184033 | 1 | 213.00958 | 263.6971 | 2 | 4 | 3 | 2 | 1.3944862 | 0.64448512 | -1 | 214.03989 | 261.57004 | 2 | 5 | 2 | 2 | 1.0501286 | 0.59500586 | 1 | 210.2631 | 262.25599 | 3 | 4 | 3 | 1 | 0.5879458 | 0.41159382 | 1 | 211.563 | 260.14 | 3 | 5 | 2 | 1 | 0.37579288 | 0.35666729 | -1" /></defs><g
     inkscape:label="Layer 1"
     inkscape:groupmode="layer"
     id="layer1"><g
       id="563412"
       transform="matrix(4,0,0,4,-924.26863,-1011.5)"><g
         id="g5850" /></g><g
       id="g5916"
       transform="matrix(2,0,0,2,-42.435283,-59.499999)"
       style="stroke-width:2.3;stroke-miterlimit:4;stroke-dasharray:none"><path
         style="fill:#ffeeaa;stroke:none;stroke-width:2.3;stroke-linecap:butt;stroke-linejoin:miter;stroke-opacity:1;stroke-miterlimit:4;stroke-dasharray:none"
         d="m 66.517673,59.664919 c 1.223515,-1.147172 0.51018,-5.914924 -4.741695,-5.845274 -2.443095,0.0324 -2.109539,-0.950515 -4.580951,1.897796 -4.80047,5.53256 -10.158079,0.398212 -12.471209,5.513753 -2.721566,6.018807 -2.37769,-0.731193 5.555914,10.563193 5.173205,7.364646 13.624926,-9.679494 16.237941,-12.129468 z"
         id="path6727"
         sodipodi:nodetypes="ssssss" /><path
         style="fill:#d7eef4;stroke:none;stroke-width:2.3;stroke-linecap:butt;stroke-linejoin:miter;stroke-opacity:1;stroke-miterlimit:4;stroke-dasharray:none"
         d="m 41.905121,51.148787 c 0.277143,2.66816 6.971123,5.453023 11.850108,5.33908 4.189732,-0.09785 6.567004,-2.966221 7.816185,-2.6415 2.514486,0.653633 4.293735,3.04059 5.221279,0.151217 0.563433,-1.755137 -9.936244,-6.12524 -13.941168,-5.746076 -3.061423,0.289839 -11.203289,0.424152 -10.946404,2.897279 z"
         id="path6725"
         sodipodi:nodetypes="ssssss" /><path
         style="fill:#ffd5d5;stroke:none;stroke-width:2.3;stroke-linecap:butt;stroke-linejoin:miter;stroke-opacity:1;stroke-miterlimit:4;stroke-dasharray:none"
         d="m 42.75929,37.452873 c -0.797991,1.533934 -1.7122,4.297127 0.431256,6.270962 1.572487,1.448049 2.303969,0.951563 7.157379,4.306671 1.601739,1.107264 4.231432,0.60216 7.235826,1.600951 3.004394,0.998791 6.383489,3.501478 7.34696,0.830743 C 65.961906,47.603735 62.684992,42.406807 56.167848,39.413621 50.171084,36.659435 43.645167,35.75 42.75929,37.452873 Z"
         id="path5886"
         sodipodi:nodetypes="sssssss" /><path
         style="fill:#d7eef4;stroke:none;stroke-width:2.3;stroke-linecap:butt;stroke-linejoin:miter;stroke-opacity:1;stroke-miterlimit:4;stroke-dasharray:none"
         d="m 37.050423,69.586927 c 1.739029,1.557512 18.286087,7.413075 20.172393,4.161798 0.987511,-1.702096 -5.78342,-12.498724 -14.437193,-11.029964 -5.806901,0.985575 -10.828517,-8.920861 -13.770939,-6.177627 -4.320603,4.028117 6.073979,11.352918 8.035739,13.045793 z"
         id="path5882"
         sodipodi:nodetypes="csssc" /><path
         style="fill:#ffeeaa;stroke:none;stroke-width:2.3;stroke-linecap:butt;stroke-linejoin:miter;stroke-opacity:1;stroke-miterlimit:4;stroke-dasharray:none"
         d="m 41.367293,42.791834 c -5.196152,-3.000001 -17.078004,6.451023 -12.342848,9.788997 5.946494,3.302963 4.081742,-8.29643 12.091792,-3.439569 5.127006,3.108739 7.482429,3.543345 8.788936,1.285484 1.306508,-2.257864 -4.640765,-5.384912 -8.53788,-7.634912 z"
         id="path5888"
         sodipodi:nodetypes="scsss" /><g
         id="g5914"
         transform="matrix(3,0,0,3,-588.06215,-731.5)"
         style="stroke-width:0.76666667;stroke-miterlimit:4;stroke-dasharray:none"><path
           style="fill:#ffd5d5;fill-opacity:1;stroke:none;stroke-width:2.29999996;stroke-linecap:butt;stroke-linejoin:miter;stroke-opacity:1;stroke-miterlimit:4;stroke-dasharray:none"
           d="m 30.456017,49.746566 c -2.37624,3.725616 2.124907,5.792796 5.114504,6.629622 9.373684,2.623813 15.868875,7.873813 18.060148,5.356229 3.612943,-4.15096 -4.400384,-6.549787 -7.933885,-8.361513 -6.786131,-3.47944 -12.443923,-7.120903 -15.240767,-3.624338 z"
           id="path5884"
           sodipodi:nodetypes="csssc"
           transform="matrix(0.33333334,0,0,0.33333334,196.02072,243.83333)" /><g
           id="g1579"
           style="stroke-width:0.76666667;stroke-miterlimit:4;stroke-dasharray:none"
           inkscape:path-effect="#path-effect1600"><path
             style="fill:none;stroke:#000000;stroke-width:0.76666667;stroke-linecap:round;stroke-miterlimit:4;stroke-dasharray:none"
             id="path5890"
             d="m 217.8157,254.75 c -0.72625,1.2579 -1.23238,2.46675 -1.53747,3.53066 m -0.35034,1.95648 c -0.004,0.0833 -0.006,0.16445 -0.006,0.2433 2.9e-4,1.46461 -0.24047,2.78585 -0.64518,3.87011 m -0.8253,1.58869 c -0.55982,0.78088 -1.23808,1.27721 -1.95974,1.39783 -0.46269,0.0773 -0.88868,0.0279 -1.28699,-0.10536 m -1.52443,-0.92663 c -0.99918,-0.83656 -1.86636,-1.88446 -2.83261,-2.04348 -1.58957,-0.2616 -2.88861,1.9884 -2.88861,4.9884"
             sodipodi:nodetypes="csssc"
             inkscape:original-d="m 217.8157,254.75 c -1.29904,2.25 -1.89382,4.34306 -1.89355,5.73044 7.3e-4,3.74045 -1.57068,6.54581 -3.43022,6.85663 -2.47046,0.41293 -3.89494,-2.78761 -5.64403,-3.07547 -1.58957,-0.2616 -2.88861,1.9884 -2.88861,4.9884" /><path
             style="fill:none;stroke:#0080ff;stroke-width:0.76666667;stroke-linecap:round;stroke-miterlimit:4;stroke-dasharray:none"
             id="path5892"
             d="m 220.41377,254.75 c 0,3.5 -0.91249,7.18926 -3.05444,5.50381 -0.67741,-0.53304 -1.92483,-1.57475 -3.15536,-2.33811 m -1.58098,-0.78436 c -0.48168,-0.15765 -0.90995,-0.1946 -1.23546,-0.0446 -0.57846,0.26649 -1.05305,0.70585 -1.44626,1.25433 m -0.82764,1.56453 c -0.49546,1.24541 -0.78465,2.67493 -1.00194,3.90742 m -0.34559,1.93814 c -0.0235,0.1119 -0.0472,0.21645 -0.0713,0.31279 -0.29375,1.17207 -0.27137,1.68609 -0.27137,3.18609"
             sodipodi:nodetypes="csssc"
             inkscape:original-d="m 220.41377,254.75 c 0,3.5 -0.91249,7.18926 -3.05444,5.50381 -1.27568,-1.00381 -4.57287,-3.81158 -5.9718,-3.16711 -2.88465,1.32892 -3.18644,6.95691 -3.69277,8.97721 -0.29375,1.17207 -0.27137,1.68609 -0.27137,3.18609" /><path
             style="fill:none;stroke:#2ca02c;stroke-width:0.76666667;stroke-linecap:round;stroke-miterlimit:4;stroke-dasharray:none;stroke-opacity:1"
             id="path5894"
             d="m 210.02147,254.75 c -0.17439,0.70477 0.03,1.33963 0.38701,1.88426 m 1.24068,1.29322 c 0.23495,0.18795 0.45229,0.34506 0.61826,0.46829 0.92807,0.68909 1.51896,1.4317 1.58402,2.19211 m -0.34415,1.8204 c -0.3255,0.92501 -0.83412,1.81248 -1.3639,2.53088 m -1.22221,1.32668 c -0.0787,0.0625 -0.15425,0.11712 -0.22587,0.16307 -0.4233,0.27157 -0.67384,1.82109 -0.67384,2.82109"
             sodipodi:nodetypes="csssc"
             inkscape:original-d="m 210.02147,254.75 c -0.43302,1.75 1.46912,3.06898 2.24595,3.64577 1.03543,0.7688 1.65116,1.60423 1.5852,2.45666 -0.18072,2.33546 -2.0991,4.89757 -3.15731,5.57648 -0.4233,0.27157 -0.67384,1.82109 -0.67384,2.82109" /><path
             style="fill:none;stroke:#ff0000;stroke-width:0.76666667;stroke-linecap:round;stroke-miterlimit:4;stroke-dasharray:none"
             id="path5896"
             d="m 214.35159,254.75 c 0,1 -0.42981,1.7515 -0.65933,2.23593 -0.13811,0.2915 -0.32305,0.62421 -0.53521,0.98567 m -0.92493,1.53228 c -0.46824,0.77818 -0.94242,1.60033 -1.29362,2.38448 m -0.5329,1.70046 c -0.0995,0.77811 0.0936,1.42317 0.77462,1.81103 0.48741,0.27761 1.02725,0.59144 1.52135,0.974 m 1.2103,1.32154 c 0.25816,0.44542 0.42264,0.95769 0.43972,1.55461"
             sodipodi:nodetypes="cssc"
             inkscape:original-d="m 214.35159,254.75 c 0,1 -0.42981,1.7515 -0.65933,2.23593 -1.07272,2.26407 -4.96983,7.01407 -2.51204,8.41392 1.35428,0.77134 3.11334,1.82234 3.17137,3.85015" /><path
             style="fill:none;stroke:#9955ff;stroke-width:0.76666667;stroke-linecap:round;stroke-miterlimit:4;stroke-dasharray:none;stroke-opacity:1"
             id="path5898"
             d="m 203.95929,254.75 c 0,5 1.28648,5.78387 3.09951,6.43702 0.20069,0.0723 0.41778,0.15432 0.64791,0.24477 m 1.64507,0.69343 c 0.88184,0.39369 1.82493,0.84718 2.71362,1.31609 m 1.53719,0.86395 c 1.10166,0.66594 1.954,1.30869 2.23063,1.80294 0.14056,0.25112 1.11645,1.6418 1.11645,3.1418"
             sodipodi:nodetypes="cssc"
             inkscape:original-d="m 203.95929,254.75 c 0,5 1.28648,5.78387 3.09951,6.43702 2.6099,0.94023 7.99243,3.52401 8.77442,4.92118 0.14056,0.25112 1.11645,1.6418 1.11645,3.1418" /><path
             style="fill:none;stroke:#ffb380;stroke-width:0.76666667;stroke-linecap:round;stroke-miterlimit:4;stroke-dasharray:none"
             id="path5900"
             d="m 207.42339,254.75 c 0.26424,2.37469 0.12408,2.57162 1.14457,3.66081 0.29919,0.31933 1.21015,0.89244 2.36781,1.56005 m 1.53649,0.86521 c 0.80952,0.4477 1.65621,0.90653 2.45177,1.33796 m 1.63364,0.89016 c 0.49129,0.27046 0.92081,0.51127 1.25421,0.70743 2.16124,1.27163 2.60189,1.97838 2.60189,5.47838"
             sodipodi:nodetypes="cszc"
             inkscape:original-d="m 207.42339,254.75 c 0.26424,2.37469 0.12408,2.57162 1.14457,3.66081 0.88215,0.94154 7.08267,4.08919 9.24392,5.36081 2.16124,1.27163 2.60189,1.97838 2.60189,5.47838" /></g><circle
           style="opacity:0.9;fill:#000000;stroke:none;stroke-width:0.76666667;stroke-linecap:round;stroke-dasharray:none;stroke-opacity:1;stroke-miterlimit:4"
           id="circle5902"
           cx="212.18652"
           cy="255.5"
           r="0.63397455" /><circle
           style="opacity:0.9;fill:#000000;stroke:none;stroke-width:0.76666667;stroke-linecap:round;stroke-dasharray:none;stroke-opacity:1;stroke-miterlimit:4"
           id="circle5904"
           cx="206.12434"
           cy="259"
           r="0.63397455" /><circle
           style="opacity:0.9;fill:#000000;stroke:none;stroke-width:0.76666667;stroke-linecap:round;stroke-dasharray:none;stroke-opacity:1;stroke-miterlimit:4"
           id="circle5906"
           cx="206.12434"
           cy="266"
           r="0.63397455" /><circle
           style="opacity:0.9;fill:#000000;stroke:none;stroke-width:0.76666667;stroke-linecap:round;stroke-dasharray:none;stroke-opacity:1;stroke-miterlimit:4"
           id="circle5908"
           cx="212.18652"
           cy="269.5"
           r="0.63397455" /><circle
           style="opacity:0.9;fill:#000000;stroke:none;stroke-width:0.76666667;stroke-linecap:round;stroke-dasharray:none;stroke-opacity:1;stroke-miterlimit:4"
           id="circle5910"
           cx="218.2487"
           cy="266"
           r="0.63397455" /><circle
           style="opacity:0.9;fill:#000000;stroke:none;stroke-width:0.76666667;stroke-linecap:round;stroke-dasharray:none;stroke-opacity:1;stroke-miterlimit:4"
           id="circle5912"
           cx="218.2487"
           cy="259"
           r="0.63397455" /></g></g><g
       id="g5920"
       transform="matrix(4,0,0,4,-818.43533,-1011.5)"><g
         id="g5918" /></g><text
       xml:space="preserve"
       style="font-size:7.05556px;line-height:1.25;font-family:sans-serif;letter-spacing:0px;word-spacing:0px;stroke-width:0.529167"
       x="16.003479"
       y="107.183"
       id="text5924"><tspan
         sodipodi:role="line"
         style="font-size:7.05556px;stroke-width:0.529167"
         x="16.003479"
         y="107.183"
         id="tspan5922">R-rclc,cr,c,lcr,rc,crcl</tspan></text><text
       xml:space="preserve"
       style="font-size:9.87778px;line-height:1.25;font-family:sans-serif;letter-spacing:0px;word-spacing:0px;stroke-width:0.529167"
       x="73.153458"
       y="18.28299"
       id="text5928"><tspan
         sodipodi:role="line"
         style="font-size:9.87778px;stroke-width:0.529167"
         x="73.153458"
         y="18.28299"
         id="tspan5926">1</tspan></text><text
       xml:space="preserve"
       style="font-size:9.87778px;line-height:1.25;font-family:sans-serif;letter-spacing:0px;word-spacing:0px;stroke-width:0.529167"
       x="19.178474"
       y="24.632984"
       id="text5932"><tspan
         sodipodi:role="line"
         style="font-size:9.87778px;stroke-width:0.529167"
         x="19.178474"
         y="24.632984"
         id="tspan5930">2</tspan></text><text
       xml:space="preserve"
       style="font-size:9.87778px;line-height:1.25;font-family:sans-serif;letter-spacing:0px;word-spacing:0px;stroke-width:0.529167"
       x="30.820145"
       y="90.249657"
       id="text5936"><tspan
         sodipodi:role="line"
         style="font-size:9.87778px;stroke-width:0.529167"
         x="30.820145"
         y="90.249657"
         id="tspan5934">6</tspan></text><text
       xml:space="preserve"
       style="font-size:9.87778px;line-height:1.25;font-family:sans-serif;letter-spacing:0px;word-spacing:0px;stroke-width:0.529167"
       x="86.911774"
       y="87.074654"
       id="text5940"><tspan
         sodipodi:role="line"
         style="font-size:9.87778px;stroke-width:0.529167"
         x="86.911774"
         y="87.074654"
         id="tspan5938">5</tspan></text><text
       xml:space="preserve"
       style="font-size:9.87778px;line-height:1.25;font-family:sans-serif;letter-spacing:0px;word-spacing:0px;stroke-width:0.529167"
       x="91.145111"
       y="52.149628"
       id="text6830"><tspan
         sodipodi:role="line"
         style="font-size:9.87778px;stroke-width:0.529167"
         x="91.145111"
         y="52.149628"
         id="tspan6828">3</tspan></text><text
       xml:space="preserve"
       style="font-size:9.87778px;line-height:1.25;font-family:sans-serif;letter-spacing:0px;word-spacing:0px;stroke-width:0.529167"
       x="9.6534414"
       y="51.091286"
       id="text6834"><tspan
         sodipodi:role="line"
         style="font-size:9.87778px;stroke-width:0.529167"
         x="9.6534414"
         y="51.091286"
         id="tspan6832">4</tspan></text></g></svg>
