<?xml version="1.0" encoding="UTF-8" standalone="no"?>
<!-- Created with Inkscape (http://www.inkscape.org/) -->

<svg
   width="54mm"
   height="56mm"
   viewBox="0 0 108 112"
   version="1.1"
   id="svg5"
   inkscape:version="1.1.2 (0a00cf5339, 2022-02-04)"
   sodipodi:docname="too-complicated-blobs.svg"
   xml:space="preserve"
   xmlns:inkscape="http://www.inkscape.org/namespaces/inkscape"
   xmlns:sodipodi="http://sodipodi.sourceforge.net/DTD/sodipodi-0.dtd"
   xmlns="http://www.w3.org/2000/svg"
   xmlns:svg="http://www.w3.org/2000/svg"><sodipodi:namedview
     id="namedview7"
     pagecolor="#ffffff"
     bordercolor="#666666"
     borderopacity="1.0"
     inkscape:showpageshadow="2"
     inkscape:pageopacity="0.0"
     inkscape:pagecheckerboard="0"
     inkscape:deskcolor="#d1d1d1"
     inkscape:document-units="mm"
     showgrid="true"
     inkscape:zoom="5.5940476"
     inkscape:cx="102.07278"
     inkscape:cy="105.82677"
     inkscape:window-width="2256"
     inkscape:window-height="1435"
     inkscape:window-x="0"
     inkscape:window-y="41"
     inkscape:window-maximized="1"
     inkscape:current-layer="g5916"
     inkscape:pageshadow="2"><inkscape:grid
       type="axonomgrid"
       id="grid2793"
       empspacing="7"
       spacingy="3.0000001"
       originx="0"
       originy="0" /></sodipodi:namedview><defs
     id="defs2" /><g
     inkscape:label="Layer 1"
     inkscape:groupmode="layer"
     id="layer1"><g
       id="563412"
       transform="matrix(4,0,0,4,-924.26863,-1011.5)"><g
         id="g5850" /></g><g
       id="g5916"
       transform="matrix(2,0,0,2,-42.435283,-59.499999)"><path
         style="fill:#ffeeaa;stroke:none;stroke-width:0.396876px;stroke-linecap:butt;stroke-linejoin:miter;stroke-opacity:1"
         d="m 66.517673,59.664919 c 1.223515,-1.147172 0.51018,-5.914924 -4.741695,-5.845274 -2.443095,0.0324 -2.109539,-0.950515 -4.580951,1.897796 -4.80047,5.53256 -10.158079,0.398212 -12.471209,5.513753 -2.721566,6.018807 -2.37769,-0.731193 5.555914,10.563193 5.173205,7.364646 13.624926,-9.679494 16.237941,-12.129468 z"
         id="path6727"
         sodipodi:nodetypes="ssssss" /><path
         style="fill:#d7eef4;stroke:none;stroke-width:0.396876px;stroke-linecap:butt;stroke-linejoin:miter;stroke-opacity:1"
         d="m 41.905121,51.148787 c 0.277143,2.66816 6.971123,5.453023 11.850108,5.33908 4.189732,-0.09785 6.567004,-2.966221 7.816185,-2.6415 C 64.0859,54.5 64.0859,56 65.013444,53.110627 65.576877,51.35549 56.856449,47.872344 52.851525,48.251508 49.790102,48.541347 41.648236,48.67566 41.905121,51.148787 Z"
         id="path6725"
         sodipodi:nodetypes="ssssss" /><path
         style="fill:#ffd5d5;stroke:none;stroke-width:0.396876px;stroke-linecap:butt;stroke-linejoin:miter;stroke-opacity:1"
         d="m 42.75929,37.452873 c -0.797991,1.533934 -1.7122,4.297127 0.431256,6.270962 1.572487,1.448049 2.303969,0.951563 7.157379,4.306671 1.601739,1.107264 4.231432,0.60216 7.235826,1.600951 3.004394,0.998791 6.383489,3.501478 7.34696,0.830743 C 65.961906,47.603735 62.684992,42.406807 56.167848,39.413621 50.171084,36.659435 43.645167,35.75 42.75929,37.452873 Z"
         id="path5886"
         sodipodi:nodetypes="sssssss" /><path
         style="fill:#d7eef4;stroke:none;stroke-width:0.396876px;stroke-linecap:butt;stroke-linejoin:miter;stroke-opacity:1"
         d="m 37.050423,69.586927 c 1.739029,1.557512 18.286087,7.413075 20.172393,4.161798 0.987511,-1.702096 -5.78342,-12.498724 -14.437193,-11.029964 -5.806901,0.985575 -10.828517,-8.920861 -13.770939,-6.177627 -4.320603,4.028117 6.073979,11.352918 8.035739,13.045793 z"
         id="path5882"
         sodipodi:nodetypes="csssc" /><path
         style="fill:#ffd5d5;fill-opacity:1;stroke:none;stroke-width:0.396876px;stroke-linecap:butt;stroke-linejoin:miter;stroke-opacity:1"
         d="m 30.456017,49.746566 c -2.37624,3.725616 2.124907,5.792796 5.114504,6.629622 9.373684,2.623813 15.868875,7.873813 18.060148,5.356229 3.612943,-4.15096 -4.400384,-6.549787 -7.933885,-8.361513 -6.786131,-3.47944 -12.443923,-7.120903 -15.240767,-3.624338 z"
         id="path5884"
         sodipodi:nodetypes="csssc" /><path
         style="fill:#ffeeaa;stroke:none;stroke-width:0.396876px;stroke-linecap:butt;stroke-linejoin:miter;stroke-opacity:1"
         d="m 41.367293,42.791834 c -5.196152,-3.000001 -17.078004,6.451023 -12.342848,9.788997 5.946494,3.302963 4.081742,-8.29643 12.091792,-3.439569 5.127006,3.108739 7.482429,3.543345 8.788936,1.285484 1.306508,-2.257864 -4.640765,-5.384912 -8.53788,-7.634912 z"
         id="path5888"
         sodipodi:nodetypes="scsss" /><g
         id="g5914"
         transform="matrix(3,0,0,3,-588.06215,-731.5)"><path
           style="fill:none;stroke:#000000;stroke-width:0.5;stroke-dasharray:none"
           id="path5890"
           d="m 216.51666,258 c 1.13621,5.3414 -1.36711,8.52148 -3.6865,8.8268 -2.56154,0.33718 -5.09756,-2.51835 -6.7058,-2.8268"
           sodipodi:nodetypes="csc" /><path
           style="fill:none;stroke:#0080ff;stroke-width:0.5;stroke-dasharray:none"
           id="path5892"
           d="m 218.24871,261 c -11.31776,-9.83193 -9.94123,5.03968 -10.3923,6"
           sodipodi:nodetypes="cc" /><path
           style="fill:none;stroke:#2ca02c;stroke-width:0.5;stroke-dasharray:none;stroke-opacity:1"
           id="path5894"
           d="m 210.45448,256.5 c 0.39021,2.1 3.9355,2.70158 3.65424,4.69025 -0.37059,2.62024 -2.52577,3.25856 -3.65424,7.30975"
           sodipodi:nodetypes="csc" /><path
           style="fill:none;stroke:#ff0000;stroke-width:0.5;stroke-dasharray:none"
           id="path5896"
           d="m 213.91858,256.5 c -1.15162,2.85482 -6.44497,7.23635 -2.73836,8.89985 1.4219,0.63814 2.68033,1.07234 2.73836,3.10015"
           sodipodi:nodetypes="csc" /><path
           style="fill:none;stroke:#9955ff;stroke-width:0.5;stroke-dasharray:none;stroke-opacity:1"
           id="path5898"
           d="m 206.12436,261 c 2.45377,0.38543 7.90885,2.25 10.3923,6"
           sodipodi:nodetypes="cc" /><path
           style="fill:none;stroke:#ffb380;stroke-width:0.5;stroke-dasharray:none"
           id="path5900"
           d="m 207.85641,258 10.3923,6"
           sodipodi:nodetypes="cc" /><circle
           style="opacity:0.9;fill:#000000;stroke:none;stroke-width:0.5;stroke-linecap:round;stroke-dasharray:none;stroke-opacity:1"
           id="circle5902"
           cx="212.18652"
           cy="255.5"
           r="0.63397455" /><circle
           style="opacity:0.9;fill:#000000;stroke:none;stroke-width:0.5;stroke-linecap:round;stroke-dasharray:none;stroke-opacity:1"
           id="circle5904"
           cx="206.12434"
           cy="259"
           r="0.63397455" /><circle
           style="opacity:0.9;fill:#000000;stroke:none;stroke-width:0.5;stroke-linecap:round;stroke-dasharray:none;stroke-opacity:1"
           id="circle5906"
           cx="206.12434"
           cy="266"
           r="0.63397455" /><circle
           style="opacity:0.9;fill:#000000;stroke:none;stroke-width:0.5;stroke-linecap:round;stroke-dasharray:none;stroke-opacity:1"
           id="circle5908"
           cx="212.18652"
           cy="269.5"
           r="0.63397455" /><circle
           style="opacity:0.9;fill:#000000;stroke:none;stroke-width:0.5;stroke-linecap:round;stroke-dasharray:none;stroke-opacity:1"
           id="circle5910"
           cx="218.2487"
           cy="266"
           r="0.63397455" /><circle
           style="opacity:0.9;fill:#000000;stroke:none;stroke-width:0.5;stroke-linecap:round;stroke-dasharray:none;stroke-opacity:1"
           id="circle5912"
           cx="218.2487"
           cy="259"
           r="0.63397455" /></g></g><g
       id="g5920"
       transform="matrix(4,0,0,4,-818.43533,-1011.5)"><g
         id="g5918" /></g><text
       xml:space="preserve"
       style="font-size:7.05556px;line-height:1.25;font-family:sans-serif;letter-spacing:0px;word-spacing:0px;stroke-width:0.529167"
       x="16.003479"
       y="107.183"
       id="text5924"><tspan
         sodipodi:role="line"
         style="font-size:7.05556px;stroke-width:0.529167"
         x="16.003479"
         y="107.183"
         id="tspan5922">R-rclc,cr,c,lcr,rc,crcl</tspan></text><text
       xml:space="preserve"
       style="font-size:9.87778px;line-height:1.25;font-family:sans-serif;letter-spacing:0px;word-spacing:0px;stroke-width:0.529167"
       x="73.153458"
       y="18.28299"
       id="text5928"><tspan
         sodipodi:role="line"
         style="font-size:9.87778px;stroke-width:0.529167"
         x="73.153458"
         y="18.28299"
         id="tspan5926">1</tspan></text><text
       xml:space="preserve"
       style="font-size:9.87778px;line-height:1.25;font-family:sans-serif;letter-spacing:0px;word-spacing:0px;stroke-width:0.529167"
       x="19.178474"
       y="24.632984"
       id="text5932"><tspan
         sodipodi:role="line"
         style="font-size:9.87778px;stroke-width:0.529167"
         x="19.178474"
         y="24.632984"
         id="tspan5930">2</tspan></text><text
       xml:space="preserve"
       style="font-size:9.87778px;line-height:1.25;font-family:sans-serif;letter-spacing:0px;word-spacing:0px;stroke-width:0.529167"
       x="30.820145"
       y="90.249657"
       id="text5936"><tspan
         sodipodi:role="line"
         style="font-size:9.87778px;stroke-width:0.529167"
         x="30.820145"
         y="90.249657"
         id="tspan5934">6</tspan></text><text
       xml:space="preserve"
       style="font-size:9.87778px;line-height:1.25;font-family:sans-serif;letter-spacing:0px;word-spacing:0px;stroke-width:0.529167"
       x="82.678436"
       y="88.132988"
       id="text5940"><tspan
         sodipodi:role="line"
         style="font-size:9.87778px;stroke-width:0.529167"
         x="82.678436"
         y="88.132988"
         id="tspan5938">5</tspan></text><text
       xml:space="preserve"
       style="font-size:9.87778px;line-height:1.25;font-family:sans-serif;letter-spacing:0px;word-spacing:0px;stroke-width:0.529167"
       x="91.145111"
       y="55.324631"
       id="text6830"><tspan
         sodipodi:role="line"
         style="font-size:9.87778px;stroke-width:0.529167"
         x="91.145111"
         y="55.324631"
         id="tspan6828">3</tspan></text><text
       xml:space="preserve"
       style="font-size:9.87778px;line-height:1.25;font-family:sans-serif;letter-spacing:0px;word-spacing:0px;stroke-width:0.529167"
       x="9.6534414"
       y="51.091286"
       id="text6834"><tspan
         sodipodi:role="line"
         style="font-size:9.87778px;stroke-width:0.529167"
         x="9.6534414"
         y="51.091286"
         id="tspan6832">4</tspan></text></g></svg>
