<?xml version="1.0" encoding="UTF-8" standalone="no"?>
<!-- Created with Inkscape (http://www.inkscape.org/) -->

<svg
   width="76mm"
   height="42mm"
   viewBox="0 0 152 84"
   version="1.1"
   id="svg5"
   inkscape:version="1.2.2 (732a01da63, 2022-12-09, custom)"
   sodipodi:docname="3-pair-permutations.svg"
   xml:space="preserve"
   xmlns:inkscape="http://www.inkscape.org/namespaces/inkscape"
   xmlns:sodipodi="http://sodipodi.sourceforge.net/DTD/sodipodi-0.dtd"
   xmlns="http://www.w3.org/2000/svg"
   xmlns:svg="http://www.w3.org/2000/svg"><sodipodi:namedview
     id="namedview7"
     pagecolor="#ffffff"
     bordercolor="#666666"
     borderopacity="1.0"
     inkscape:showpageshadow="2"
     inkscape:pageopacity="0.0"
     inkscape:pagecheckerboard="0"
     inkscape:deskcolor="#d1d1d1"
     inkscape:document-units="mm"
     showgrid="true"
     inkscape:zoom="4.5877"
     inkscape:cx="160.53796"
     inkscape:cy="119.77679"
     inkscape:window-width="2560"
     inkscape:window-height="1380"
     inkscape:window-x="0"
     inkscape:window-y="36"
     inkscape:window-maximized="1"
     inkscape:current-layer="layer1"
     showguides="true"
     inkscape:pageshadow="2"><inkscape:grid
   type="axonomgrid"
   id="grid2793"
   empspacing="7"
   spacingy="1"
   originx="0"
   originy="0" />
</sodipodi:namedview><defs
     id="defs2"><rect
   x="-11.456084"
   y="59.527561"
   width="22.912169"
   height="92.598427"
   id="rect14527" />
</defs><g
     inkscape:label="Layer 1"
     inkscape:groupmode="layer"
     id="layer1">














































<g
   id="123">
<text
   x="12"
   y="21"
   style="font-size:3.52777px;line-height:1.25;font-family:sans-serif;stroke-width:0.264583"
   id="text19862"><tspan
     id="tspan19860">123 *+</tspan></text>
<path
   style="fill:none;stroke:#0000ff;stroke-width:0.8px"
   id="123_1"
   d="m 13.856407,6 v 9" />
<path
   style="fill:none;stroke:#00ff00;stroke-width:0.8px"
   id="123_2"
   d="m 18.186533,4.5 v 12" />
<path
   style="fill:none;stroke:#ff0000;stroke-width:0.8px"
   id="123_3"
   d="m 22.516661,6 v 9" />
</g>
<g
   id="132">
<text
   x="36.25"
   y="21"
   style="font-size:3.52777px;line-height:1.25;font-family:sans-serif;stroke-width:0.264583"
   id="text19870"><tspan
     id="tspan19868">132 +</tspan></text>
<path
   style="fill:none;stroke:#0000ff;stroke-width:0.8px"
   id="132_1"
   d="m 38.106407,6 v 9" />
<path
   style="fill:none;stroke:#00ff00;stroke-width:0.8px"
   id="132_3"
   d="M 46.766661,6 42.436533,16.5" />
<path
   style="fill:none;stroke:#ff0000;stroke-width:0.8px"
   id="132_2"
   d="M 42.436533,4.5 46.766661,15" />
</g>
<g
   id="213"
   style="opacity:0.2">
<text
   x="60.5"
   y="21"
   style="font-size:3.52777px;line-height:1.25;font-family:sans-serif;stroke-width:0.264583"
   id="text19878"><tspan
     id="tspan19876">213 +</tspan></text>
<path
   style="fill:none;stroke:#0000ff;stroke-width:0.8px"
   id="213_2"
   d="M 66.686533,4.5 62.356407,15" />
<path
   style="fill:none;stroke:#00ff00;stroke-width:0.8px"
   id="213_1"
   d="m 62.356407,6 4.330126,10.5" />
<path
   style="fill:none;stroke:#ff0000;stroke-width:0.8px"
   id="213_3"
   d="m 71.016661,6 v 9" />
</g>
<g
   id="231">
<text
   x="84.75"
   y="21"
   style="font-size:3.52777px;line-height:1.25;font-family:sans-serif;stroke-width:0.264583"
   id="text19886"><tspan
     id="tspan19884">231 </tspan></text>
<path
   style="fill:none;stroke:#0000ff;stroke-width:0.8px"
   id="231_2"
   d="M 90.936533,4.5 86.606407,15" />
<path
   style="fill:none;stroke:#00ff00;stroke-width:0.8px"
   id="231_3"
   d="M 95.266661,6 90.936533,16.5" />
<path
   style="fill:none;stroke:#ff0000;stroke-width:0.8px"
   id="231_1"
   d="m 86.606407,6 8.660254,9" />
</g>
<g
   id="312"
   style="opacity:0.2">
<text
   x="109"
   y="21"
   style="font-size:3.52777px;line-height:1.25;font-family:sans-serif;stroke-width:0.264583"
   id="text19894"><tspan
     id="tspan19892">312 </tspan></text>
<path
   style="fill:none;stroke:#0000ff;stroke-width:0.8px"
   id="312_3"
   d="m 119.51666,6 -8.66025,9" />
<path
   style="fill:none;stroke:#00ff00;stroke-width:0.8px"
   id="312_1"
   d="m 110.85641,6 4.33012,10.5" />
<path
   style="fill:none;stroke:#ff0000;stroke-width:0.8px"
   id="312_2"
   d="M 115.18653,4.5 119.51666,15" />
</g>
<g
   id="321">
<text
   x="133.25"
   y="21"
   style="font-size:3.52777px;line-height:1.25;font-family:sans-serif;stroke-width:0.264583"
   id="text19902"><tspan
     id="tspan19900">321 *+</tspan></text>
<path
   style="fill:none;stroke:#0000ff;stroke-width:0.8px"
   id="321_3"
   d="m 143.76666,6 -8.66025,9" />
<path
   style="fill:none;stroke:#00ff00;stroke-width:0.8px"
   id="321_2"
   d="m 139.43653,4.5 v 12" />
<path
   style="fill:none;stroke:#ff0000;stroke-width:0.8px"
   id="321_1"
   d="m 135.10641,6 8.66025,9" />
</g>
<g
   id="g20049"
   transform="translate(-5.394489e-7,21)">

<path
   style="fill:none;stroke:#0000ff;stroke-width:0.8px"
   id="path20043"
   d="m 13.856407,6 c 6.50744,1.1916793 11.648423,2.7630764 0,9"
   sodipodi:nodetypes="cc" />
<path
   style="fill:none;stroke:#00ff00;stroke-width:0.8px"
   id="path20045"
   d="m 18.186533,4.5 c -2.598075,3.5 2.882043,7.977908 0,12"
   sodipodi:nodetypes="cc" />
<path
   style="fill:none;stroke:#ff0000;stroke-width:0.8px"
   id="path20047"
   d="m 22.516661,6 c -7.588898,4.37473 -10.768156,7.950653 0,9"
   sodipodi:nodetypes="cc" />
</g><g
   id="g20061"
   transform="translate(-5.394489e-7,21)">

<path
   style="fill:none;stroke:#0000ff;stroke-width:0.8px"
   id="path20055"
   d="m 38.106407,6 c 8.063176,2.219064 10.348488,4.997727 0,9"
   sodipodi:nodetypes="cc" />
<path
   style="fill:none;stroke:#00ff00;stroke-width:0.8px"
   id="path20057"
   d="m 46.766661,6 c -6.929492,4 -6.929492,6 -4.330128,10.5"
   sodipodi:nodetypes="cc" />
<path
   style="fill:none;stroke:#ff0000;stroke-width:0.8px"
   id="path20059"
   d="M 42.436533,4.5 C 39.742046,7.940539 39.837169,10 46.766661,15"
   sodipodi:nodetypes="cc" />
</g><g
   id="g20073"
   transform="translate(-5.394489e-7,21)">

<path
   style="fill:none;stroke:#0000ff;stroke-width:0.8px"
   id="path20067"
   d="M 90.936533,4.5 C 91.798693,8 95.262795,11 86.606407,15"
   sodipodi:nodetypes="cc" />
<path
   style="fill:none;stroke:#00ff00;stroke-width:0.8px"
   id="path20069"
   d="M 95.266661,6 C 91.094234,7.1434646 85.706143,7.0031216 90.936533,16.5"
   sodipodi:nodetypes="cc" />
<path
   style="fill:none;stroke:#ff0000;stroke-width:0.8px"
   id="path20071"
   d="m 86.606407,6 8.660254,9" />
</g><g
   id="g20085"
   transform="translate(-5.394489e-7,21)">

<path
   style="fill:none;stroke:#0000ff;stroke-width:0.8px"
   id="path20079"
   d="m 143.76666,6 c -3.35208,2.6146668 -8.66025,4.151597 -8.66025,9"
   sodipodi:nodetypes="cc" />
<path
   style="fill:none;stroke:#00ff00;stroke-width:0.8px"
   id="path20081"
   d="m 139.43653,4.5 v 12" />
<path
   style="fill:none;stroke:#ff0000;stroke-width:0.8px"
   id="path20083"
   d="m 135.10641,6 c 0.53966,4.527396 3.69525,7.352443 8.66025,9"
   sodipodi:nodetypes="cc" />
</g><g
   id="g20093"
   transform="translate(-5.3944898e-7,42)">

<path
   style="fill:none;stroke:#0000ff;stroke-width:0.8px"
   id="path20087"
   d="m 13.856407,6 c 1.274831,1.6386209 7.116667,5.363249 0,9"
   sodipodi:nodetypes="cc" />
<path
   style="fill:none;stroke:#00ff00;stroke-width:0.8px"
   id="path20089"
   d="m 18.186533,4.5 c 2.848975,4.8106826 1.707439,8.485856 0,12"
   sodipodi:nodetypes="cc" />
<path
   style="fill:none;stroke:#ff0000;stroke-width:0.8px"
   id="path20091"
   d="m 22.516661,6 c -9.526279,1.5000014 -9.700237,7.455616 0,9"
   sodipodi:nodetypes="cc" />
</g><g
   id="g20163"
   transform="translate(-5.394489e-7,21)">

<path
   style="fill:none;stroke:#0000ff;stroke-width:0.8px"
   id="path20157"
   d="m 143.76666,6 c -3.35208,2.6146668 -8.66025,4.151597 -8.66025,9"
   sodipodi:nodetypes="cc" />
<path
   style="fill:none;stroke:#00ff00;stroke-width:0.8px"
   id="path20159"
   d="m 139.43653,4.5 v 12" />
<path
   style="fill:none;stroke:#ff0000;stroke-width:0.8px"
   id="path20161"
   d="m 135.10641,6 c 0.53966,4.527396 3.69525,7.352443 8.66025,9"
   sodipodi:nodetypes="cc" />
</g><g
   id="g20171"
   transform="translate(-5.394489e-7,42.166668)">

<path
   style="fill:none;stroke:#0000ff;stroke-width:0.8px"
   id="path20165"
   d="m 38.106407,6 c 6.06089,5.333333 8.739422,4.144961 0,9"
   sodipodi:nodetypes="cc" />
<path
   style="fill:none;stroke:#00ff00;stroke-width:0.8px"
   id="path20167"
   d="M 46.766661,6 C 35.507043,5.3333333 39.83717,12.18062 42.436533,16.5"
   sodipodi:nodetypes="cc" />
<path
   style="fill:none;stroke:#ff0000;stroke-width:0.8px"
   id="path20169"
   d="m 42.436533,4.5 c -1.264076,8.132697 -2.099967,7.138165 4.330128,10.5"
   sodipodi:nodetypes="cc" />
</g><g
   id="g20179"
   transform="translate(-5.394489e-7,42.166668)">

<path
   style="fill:none;stroke:#0000ff;stroke-width:0.8px"
   id="path20173"
   d="m 90.936533,4.5 c -3.362585,5.867398 2.961758,7.26462 -4.330126,10.5"
   sodipodi:nodetypes="cc" />
<path
   style="fill:none;stroke:#00ff00;stroke-width:0.8px"
   id="path20175"
   d="m 95.266661,6 c -7.630567,5.546815 -9.530143,4.333333 -4.330128,10.5"
   sodipodi:nodetypes="cc" />
<path
   style="fill:none;stroke:#ff0000;stroke-width:0.8px"
   id="path20177"
   d="m 86.606407,6 c 4.274599,0.2361832 7.920316,1.9687843 8.660254,9"
   sodipodi:nodetypes="cc" />
</g><g
   id="g20355"
   transform="translate(-0.0038653,63.000001)">

<path
   style="fill:none;stroke:#0000ff;stroke-width:0.8px"
   id="path20349"
   d="M 90.936533,4.5 C 90.436326,7.542558 93.050474,10.257169 86.606407,15"
   sodipodi:nodetypes="cc" />
<path
   style="fill:none;stroke:#00ff00;stroke-width:0.8px"
   id="path20351"
   d="M 95.266661,6 C 91.137415,7.2326147 86.657793,8.9678865 90.936533,16.5"
   sodipodi:nodetypes="cc" />
<path
   style="fill:none;stroke:#ff0000;stroke-width:0.8px"
   id="path20353"
   d="M 86.606407,6 C 91.802241,6.9999387 94.400636,5.5 93.683441,8.8826444 93.243194,10.959066 86.606407,9.0000001 86.606407,12 c 0,1.288993 2.598076,3.5 8.660254,3"
   sodipodi:nodetypes="cssc" />
</g></g></svg>
