<?xml version="1.0" encoding="UTF-8" standalone="no"?>
<!-- Created with Inkscape (http://www.inkscape.org/) -->

<svg
   width="103mm"
   height="44mm"
   viewBox="0 0 206 88"
   version="1.1"
   id="svg5"
   inkscape:version="1.2.2 (732a01da63, 2022-12-09, custom)"
   sodipodi:docname="3-pairs-to-bounce-into-4.svg"
   xml:space="preserve"
   xmlns:inkscape="http://www.inkscape.org/namespaces/inkscape"
   xmlns:sodipodi="http://sodipodi.sourceforge.net/DTD/sodipodi-0.dtd"
   xmlns="http://www.w3.org/2000/svg"
   xmlns:svg="http://www.w3.org/2000/svg"><sodipodi:namedview
     id="namedview7"
     pagecolor="#ffffff"
     bordercolor="#666666"
     borderopacity="1.0"
     inkscape:showpageshadow="2"
     inkscape:pageopacity="0.0"
     inkscape:pagecheckerboard="0"
     inkscape:deskcolor="#d1d1d1"
     inkscape:document-units="mm"
     showgrid="true"
     inkscape:zoom="3.0596398"
     inkscape:cx="257.21982"
     inkscape:cy="82.199219"
     inkscape:window-width="1680"
     inkscape:window-height="990"
     inkscape:window-x="0"
     inkscape:window-y="36"
     inkscape:window-maximized="1"
     inkscape:current-layer="layer1"
     showguides="true"
     inkscape:pageshadow="2"><inkscape:grid
   type="axonomgrid"
   id="grid2793"
   empspacing="7"
   spacingy="1"
   originx="0"
   originy="0" />
</sodipodi:namedview><defs
     id="defs2"><rect
   x="-11.456084"
   y="59.527561"
   width="22.912169"
   height="92.598427"
   id="rect14527" />
</defs><g
     inkscape:label="Layer 1"
     inkscape:groupmode="layer"
     id="layer1">
<rect
   style="opacity:0.9;fill:#cccccc;stroke-width:0.562084;stroke-linecap:round"
   id="rect23121"
   width="218.23839"
   height="23.713804"
   x="-6.0621777"
   y="-1.3569025"
   ry="0" /><g
   id="123"
   transform="translate(0.186533,-0.50000036)">
<text
   x="12"
   y="21"
   style="font-size:3.52777px;line-height:1.25;font-family:sans-serif;stroke-width:0.264583"
   id="text2469"><tspan
     id="tspan2467">123 bdpq</tspan></text>
<path
   style="fill:none;stroke:#0000ff;stroke-width:0.8px"
   d="M 12,4 V 16"
   id="123_1" />
<path
   style="fill:none;stroke:#00ff00;stroke-width:0.8px"
   d="M 15,4 V 16"
   id="123_2" />
<path
   style="fill:none;stroke:#ff0000;stroke-width:0.8px"
   d="M 18,4 V 16"
   id="123_3" />
</g>
<g
   id="132"
   transform="translate(0.186533,-0.50000036)">
<text
   x="36.25"
   y="21"
   style="font-size:3.52777px;line-height:1.25;font-family:sans-serif;stroke-width:0.264583"
   id="text2477"><tspan
     id="tspan2475">132 bp</tspan></text>
<path
   style="fill:none;stroke:#0000ff;stroke-width:0.8px"
   d="M 36.25,4 V 16"
   id="132_1" />
<path
   style="fill:none;stroke:#00ff00;stroke-width:0.8px"
   d="m 42.25,4 -3,12"
   id="132_3" />
<path
   style="fill:none;stroke:#ff0000;stroke-width:0.8px"
   d="m 39.25,4 3,12"
   id="132_2" />
</g>
<g
   id="213"
   transform="translate(0.186533,-0.50000036)">
<text
   x="60.5"
   y="21"
   style="font-size:3.52777px;line-height:1.25;font-family:sans-serif;stroke-width:0.264583"
   id="text2485"><tspan
     id="tspan2483">213 bp</tspan></text>
<path
   style="fill:none;stroke:#0000ff;stroke-width:0.8px"
   d="m 63.5,4 -3,12"
   id="213_2" />
<path
   style="fill:none;stroke:#00ff00;stroke-width:0.8px"
   d="m 60.5,4 3,12"
   id="213_1" />
<path
   style="fill:none;stroke:#ff0000;stroke-width:0.8px"
   d="M 66.5,4 V 16"
   id="213_3" />
</g>
<g
   id="231"
   transform="translate(0.186533,-0.50000036)">
<text
   x="84.75"
   y="21"
   style="font-size:3.52777px;line-height:1.25;font-family:sans-serif;stroke-width:0.264583"
   id="text2493"><tspan
     id="tspan2491">231 </tspan></text>
<path
   style="fill:none;stroke:#0000ff;stroke-width:0.8px"
   d="m 87.75,4 -3,12"
   id="231_2" />
<path
   style="fill:none;stroke:#00ff00;stroke-width:0.8px"
   d="m 90.75,4 -3,12"
   id="231_3" />
<path
   style="fill:none;stroke:#ff0000;stroke-width:0.8px"
   d="m 84.75,4 6,12"
   id="231_1" />
</g>
<g
   id="321"
   transform="translate(0.186533,-0.50000036)">
<text
   x="109"
   y="21"
   style="font-size:3.52777px;line-height:1.25;font-family:sans-serif;stroke-width:0.264583"
   id="text2501"><tspan
     id="tspan2499">321 bdpq</tspan></text>
<path
   style="fill:none;stroke:#0000ff;stroke-width:0.8px"
   d="m 115,4 -6,12"
   id="321_3" />
<path
   style="fill:none;stroke:#00ff00;stroke-width:0.8px"
   d="M 112,4 V 16"
   id="321_2" />
<path
   style="fill:none;stroke:#ff0000;stroke-width:0.8px"
   d="m 109,4 6,12"
   id="321_1" />
</g>

<g
   id="g2679"
   transform="translate(0.186533,-0.50000036)">




</g><g
   id="g2739"
   transform="translate(0.186533,20.666666)">
<text
   x="12"
   y="21"
   style="font-size:3.52777px;line-height:1.25;font-family:sans-serif;stroke-width:0.264583"
   id="text2731"><tspan
     id="tspan2729">123</tspan></text>

<path
   style="fill:none;stroke:#00ff00;stroke-width:0.8px"
   d="M 15,4 V 16"
   id="path2735" />
<path
   style="fill:none;stroke:#ff0000;stroke-width:0.8px"
   d="M 18,4 V 16"
   id="path2737" />
</g><g
   id="g2751"
   transform="translate(0.186533,20.666666)">
<text
   x="36.25"
   y="21"
   style="font-size:3.52777px;line-height:1.25;font-family:sans-serif;stroke-width:0.264583"
   id="text2743"><tspan
     id="tspan2741">132&gt;1</tspan></text>

<path
   style="fill:none;stroke:#00ff00;stroke-width:0.8px"
   d="m 42.25,4 -3,12"
   id="path2747" />
<path
   style="fill:none;stroke:#ff0000;stroke-width:0.8px"
   d="m 39.25,4 3,12"
   id="path2749" /><path
   style="fill:none;stroke:#0000ff;stroke-width:0.8px"
   d="m 45.712815,13.833333 -9.526279,2.500001"
   id="path3505" /><path
   style="fill:none;stroke:#0000ff;stroke-width:0.4;stroke-dasharray:0.4, 0.4;stroke-dashoffset:0"
   d="m 45.650635,8.1666665 c 0,0 3.195727,1.8888885 3.20609,2.8333335 0.01036,0.944444 -3.14391,2.833333 -3.14391,2.833333"
   id="path3503"
   sodipodi:nodetypes="czc" /><path
   style="fill:none;stroke:#0000ff;stroke-width:0.8px"
   d="m 36.186533,4.3333333 9.464102,3.8333332"
   id="path2793-3" />
</g><g
   id="g2763"
   transform="translate(0.186533,20.666666)">
<text
   x="60.5"
   y="21"
   style="font-size:3.52777px;line-height:1.25;font-family:sans-serif;stroke-width:0.264583"
   id="text2755"><tspan
     id="tspan2753">213&gt;2</tspan></text>
<path
   style="fill:none;stroke:#0000ff;stroke-width:0.8px"
   d="M 69.961523,13.833333 60.5,16"
   id="path3511" /><path
   style="fill:none;stroke:#0000ff;stroke-width:0.4;stroke-dasharray:0.4, 0.4;stroke-dashoffset:0"
   d="m 69.961523,7.8333332 c 0,0 3.175,1.9999999 3.175,2.9999998 0,1 -3.175,3 -3.175,3"
   id="path3509"
   sodipodi:nodetypes="czc" /><path
   style="fill:none;stroke:#0000ff;stroke-width:0.8px"
   d="m 63.5,4 6.461523,3.8333332"
   id="path2757" />
<path
   style="fill:none;stroke:#00ff00;stroke-width:0.8px"
   d="m 60.5,4 3,12"
   id="path2759" />
<path
   style="fill:none;stroke:#ff0000;stroke-width:0.8px"
   d="M 66.5,4 V 16"
   id="path2761" />
</g><g
   id="g2775"
   transform="translate(0.186533,20.666666)">
<text
   x="84.75"
   y="21"
   style="font-size:3.52777px;line-height:1.25;font-family:sans-serif;stroke-width:0.264583"
   id="text2767"><tspan
     id="tspan2765">231&gt;2 </tspan></text>
<path
   style="fill:none;stroke:#0000ff;stroke-width:0.8px"
   d="m 94.210237,13.833333 -9.52628,2.5"
   id="path3521" /><path
   style="fill:none;stroke:#0000ff;stroke-width:0.4;stroke-dasharray:0.4, 0.4;stroke-dashoffset:0"
   d="m 94.145477,8.1666663 c 0,0 3.196587,1.8888887 3.20738,2.8333337 0.01079,0.944444 -3.14262,2.833333 -3.14262,2.833333"
   id="path3519"
   sodipodi:nodetypes="czc" /><path
   style="fill:none;stroke:#0000ff;stroke-width:0.8px"
   d="m 87.683954,4.3333331 6.461523,3.8333332"
   id="path2757-6" />
<path
   style="fill:none;stroke:#00ff00;stroke-width:0.8px"
   d="m 90.75,4 -3,12"
   id="path2771" />
<path
   style="fill:none;stroke:#ff0000;stroke-width:0.8px"
   d="m 84.75,4 6,12"
   id="path2773" />
</g><g
   id="g2787"
   transform="translate(0.186533,20.666666)">
<text
   x="109"
   y="21"
   style="font-size:3.52777px;line-height:1.25;font-family:sans-serif;stroke-width:0.264583"
   id="text2779"><tspan
     id="tspan2777">321&gt;3</tspan></text>
<path
   style="fill:none;stroke:#0000ff;stroke-width:0.8px"
   d="M 118.45894,13.833333 109,16"
   id="path3531" /><path
   style="fill:none;stroke:#0000ff;stroke-width:0.4;stroke-dasharray:0.4, 0.4;stroke-dashoffset:0"
   d="m 118.45894,7.8333332 c 0,0 3.175,1.9999999 3.175,2.9999998 0,1 -3.175,3 -3.175,3"
   id="path3529"
   sodipodi:nodetypes="czc" /><path
   style="fill:none;stroke:#0000ff;stroke-width:0.8px"
   d="m 115,4 3.45894,3.8333332"
   id="path2781" />
<path
   style="fill:none;stroke:#00ff00;stroke-width:0.8px"
   d="M 112,4 V 16"
   id="path2783" />
<path
   style="fill:none;stroke:#ff0000;stroke-width:0.8px"
   d="m 109,4 6,12"
   id="path2785" />
</g><g
   id="g2799"
   transform="translate(0.186533,20.666666)">
<text
   x="12"
   y="21"
   style="font-size:3.52777px;line-height:1.25;font-family:sans-serif;stroke-width:0.264583"
   id="text2791"><tspan
     id="tspan2789">123&gt;1</tspan></text>
<path
   style="fill:none;stroke:#0000ff;stroke-width:0.8px"
   d="M 21.464102,13.833333 12,16"
   id="path3541" /><path
   style="fill:none;stroke:#0000ff;stroke-width:0.4;stroke-dasharray:0.4, 0.4;stroke-dashoffset:0"
   d="m 21.464102,7.8333332 c 0,0 3.175,1.9999999 3.175,2.9999998 0,1 -3.175,3 -3.175,3"
   id="path3539"
   sodipodi:nodetypes="czc" /><path
   style="fill:none;stroke:#0000ff;stroke-width:0.8px"
   d="m 12,4 9.464102,3.8333332"
   id="path2793" />
<path
   style="fill:none;stroke:#00ff00;stroke-width:0.8px"
   d="M 15,4 V 16"
   id="path2795" />
<path
   style="fill:none;stroke:#ff0000;stroke-width:0.8px"
   d="M 18,4 V 16"
   id="path2797" />
</g><g
   id="g2905"
   transform="translate(0.186533,41.499999)">
<text
   x="12"
   y="21"
   style="font-size:3.52777px;line-height:1.25;font-family:sans-serif;stroke-width:0.264583"
   id="text2897"><tspan
     id="tspan2895">123&gt;2</tspan></text>
<path
   style="fill:none;stroke:#0000ff;stroke-width:0.8px"
   d="M 12,4 V 16"
   id="path2899" />
<path
   style="fill:none;stroke:#00ff00;stroke-width:0.8px"
   d="M 21.464102,14 15,16"
   id="path3553" /><path
   style="fill:none;stroke:#00ff00;stroke-width:0.4;stroke-dasharray:0.4, 0.4;stroke-dashoffset:0"
   d="m 21.464102,7.9999997 c 0,0 3.175,2.0000001 3.175,3.0000003 0,1 -3.175,3 -3.175,3"
   id="path3551"
   sodipodi:nodetypes="czc" /><path
   style="fill:none;stroke:#00ff00;stroke-width:0.8px"
   d="m 15,4 6.464102,3.9999997"
   id="path2901" />
<path
   style="fill:none;stroke:#ff0000;stroke-width:0.8px"
   d="M 18,4 V 16"
   id="path2903" />
</g><g
   id="g2917"
   transform="translate(0.186533,41.499999)">
<text
   x="36.25"
   y="21"
   style="font-size:3.52777px;line-height:1.25;font-family:sans-serif;stroke-width:0.264583"
   id="text2909"><tspan
     id="tspan2907">132&gt;3</tspan></text>
<path
   style="fill:none;stroke:#0000ff;stroke-width:0.8px"
   d="M 36.25,4 V 16"
   id="path2911" />
<path
   style="fill:none;stroke:#00ff00;stroke-width:0.8px"
   d="M 45.712812,14 39.25,16"
   id="path3563" /><path
   style="fill:none;stroke:#00ff00;stroke-width:0.4;stroke-dasharray:0.4, 0.4;stroke-dashoffset:0"
   d="m 45.712812,7.9999997 c 0,0 3.175,2.0000001 3.175,3.0000003 0,1 -3.175,3 -3.175,3"
   id="path3561"
   sodipodi:nodetypes="czc" /><path
   style="fill:none;stroke:#00ff00;stroke-width:0.8px"
   d="m 42.25,4 3.462812,3.9999997"
   id="path2913" />
<path
   style="fill:none;stroke:#ff0000;stroke-width:0.8px"
   d="m 39.25,4 3,12"
   id="path2915" />
</g><g
   id="g2929"
   transform="translate(0.186533,41.499999)"
   style="opacity:0.3">
<text
   x="60.5"
   y="21"
   style="font-size:3.52777px;line-height:1.25;font-family:sans-serif;stroke-width:0.264583"
   id="text2921"><tspan
     id="tspan2919">213&gt;1</tspan></text>
<path
   style="fill:none;stroke:#0000ff;stroke-width:0.8px"
   d="m 63.5,4 -3,12"
   id="path2923" />
<path
   style="fill:none;stroke:#00ff00;stroke-width:0.8px"
   d="M 69.961523,14 63.5,16"
   id="path3573" /><path
   style="fill:none;stroke:#00ff00;stroke-width:0.4;stroke-dasharray:0.4, 0.4;stroke-dashoffset:0"
   d="m 69.961523,7.9999997 c 0,0 3.175,2.0000001 3.175,3.0000003 0,1 -3.175,3 -3.175,3"
   id="path3571"
   sodipodi:nodetypes="czc" /><path
   style="fill:none;stroke:#00ff00;stroke-width:0.8px"
   d="m 60.5,4 9.461523,3.9999997"
   id="path2925" />
<path
   style="fill:none;stroke:#ff0000;stroke-width:0.8px"
   d="M 66.5,4 V 16"
   id="path2927" />
</g><g
   id="g2941"
   transform="translate(0.186533,41.499999)">
<text
   x="84.75"
   y="21"
   style="font-size:3.52777px;line-height:1.25;font-family:sans-serif;stroke-width:0.264583"
   id="text2933"><tspan
     id="tspan2931">231&gt;3 </tspan></text>
<path
   style="fill:none;stroke:#0000ff;stroke-width:0.8px"
   d="m 87.75,4 -3,12"
   id="path2935" />
<path
   style="fill:none;stroke:#00ff00;stroke-width:0.8px"
   d="M 94.210234,14 87.75,16"
   id="path3583" /><path
   style="fill:none;stroke:#00ff00;stroke-width:0.4;stroke-dasharray:0.4, 0.4;stroke-dashoffset:0"
   d="m 94.210234,7.9999997 c 0,0 3.175,2.0000001 3.175,3.0000003 0,1 -3.175,3 -3.175,3"
   id="path3581"
   sodipodi:nodetypes="czc" /><path
   style="fill:none;stroke:#00ff00;stroke-width:0.8px"
   d="m 90.75,4 3.460234,3.9999997"
   id="path2937" />
<path
   style="fill:none;stroke:#ff0000;stroke-width:0.8px"
   d="m 84.75,4 6,12"
   id="path2939" />
</g><g
   id="g2953"
   transform="translate(0.186533,41.499999)">
<text
   x="109"
   y="21"
   style="font-size:3.52777px;line-height:1.25;font-family:sans-serif;stroke-width:0.264583"
   id="text2945"><tspan
     id="tspan2943">321&gt;2</tspan></text>
<path
   style="fill:none;stroke:#0000ff;stroke-width:0.8px"
   d="m 115,4 -6,12"
   id="path2947" />
<path
   style="fill:none;stroke:#00ff00;stroke-width:0.8px"
   d="M 118.45894,14 112,16"
   id="path3593" /><path
   style="fill:none;stroke:#00ff00;stroke-width:0.4;stroke-dasharray:0.4, 0.4;stroke-dashoffset:0"
   d="m 118.45894,7.9999997 c 0,0 3.175,2.0000001 3.175,3.0000003 0,1 -3.175,3 -3.175,3"
   id="path3591"
   sodipodi:nodetypes="czc" /><path
   style="fill:none;stroke:#00ff00;stroke-width:0.8px"
   d="m 112,4 6.45894,3.9999997"
   id="path2949" />
<path
   style="fill:none;stroke:#ff0000;stroke-width:0.8px"
   d="m 109,4 6,12"
   id="path2951" />
</g><g
   id="g2965"
   transform="translate(0.186533,62.499998)">
<text
   x="12"
   y="21"
   style="font-size:3.52777px;line-height:1.25;font-family:sans-serif;stroke-width:0.264583"
   id="text2957"><tspan
     id="tspan2955">123&gt;3</tspan></text>
<path
   style="fill:none;stroke:#0000ff;stroke-width:0.8px"
   d="M 12,4 V 16"
   id="path2959" />
<path
   style="fill:none;stroke:#00ff00;stroke-width:0.8px"
   d="M 15,4 V 16"
   id="path2961" />
<path
   style="fill:none;stroke:#ff0000;stroke-width:0.8px"
   d="M 21.464102,14 18,16"
   id="path3605" /><path
   style="fill:none;stroke:#ff0000;stroke-width:0.4;stroke-dasharray:0.4, 0.4;stroke-dashoffset:0"
   d="m 21.464102,8.0000001 c 0,0 3.175,1.9999999 3.175,2.9999999 0,1 -3.175,3 -3.175,3"
   id="path3603"
   sodipodi:nodetypes="czc" /><path
   style="fill:none;stroke:#ff0000;stroke-width:0.8px"
   d="m 18,4 3.464102,4.0000001"
   id="path2963" />
</g><g
   id="g2977"
   transform="translate(0.186533,62.499998)"
   style="opacity:0.3">
<text
   x="36.25"
   y="21"
   style="font-size:3.52777px;line-height:1.25;font-family:sans-serif;stroke-width:0.264583"
   id="text2969"><tspan
     id="tspan2967">132&gt;2</tspan></text>
<path
   style="fill:none;stroke:#0000ff;stroke-width:0.8px"
   d="M 36.25,4 V 16"
   id="path2971" />
<path
   style="fill:none;stroke:#00ff00;stroke-width:0.8px"
   d="m 42.25,4 -3,12"
   id="path2973" />
<path
   style="fill:none;stroke:#ff0000;stroke-width:0.8px"
   d="M 45.712812,14 42.25,16"
   id="path3615" /><path
   style="fill:none;stroke:#ff0000;stroke-width:0.4;stroke-dasharray:0.4, 0.4;stroke-dashoffset:0"
   d="m 45.712812,8.0000001 c 0,0 3.175,1.9999999 3.175,2.9999999 0,1 -3.175,3 -3.175,3"
   id="path3613"
   sodipodi:nodetypes="czc" /><path
   style="fill:none;stroke:#ff0000;stroke-width:0.8px"
   d="m 39.25,4 6.462812,4.0000001"
   id="path2975" />
</g><g
   id="g2989"
   transform="translate(0.186533,62.499998)">
<text
   x="60.5"
   y="21"
   style="font-size:3.52777px;line-height:1.25;font-family:sans-serif;stroke-width:0.264583"
   id="text2981"><tspan
     id="tspan2979">213&gt;3</tspan></text>
<path
   style="fill:none;stroke:#0000ff;stroke-width:0.8px"
   d="m 63.5,4 -3,12"
   id="path2983" />
<path
   style="fill:none;stroke:#00ff00;stroke-width:0.8px"
   d="m 60.5,4 3,12"
   id="path2985" />
<path
   style="fill:none;stroke:#ff0000;stroke-width:0.8px"
   d="M 69.961523,14 66.5,16"
   id="path3625" /><path
   style="fill:none;stroke:#ff0000;stroke-width:0.4;stroke-dasharray:0.4, 0.4;stroke-dashoffset:0"
   d="m 69.961523,8.0000001 c 0,0 3.175,1.9999999 3.175,2.9999999 0,1 -3.175,3 -3.175,3"
   id="path3623"
   sodipodi:nodetypes="czc" /><path
   style="fill:none;stroke:#ff0000;stroke-width:0.8px"
   d="m 66.5,4 3.461523,4.0000001"
   id="path2987" />
</g><g
   id="g3001"
   transform="translate(0.186533,62.499998)">
<text
   x="84.75"
   y="21"
   style="font-size:3.52777px;line-height:1.25;font-family:sans-serif;stroke-width:0.264583"
   id="text2993"><tspan
     id="tspan2991">231&gt;1</tspan></text>
<path
   style="fill:none;stroke:#0000ff;stroke-width:0.8px"
   d="m 87.75,4 -3,12"
   id="path2995" />
<path
   style="fill:none;stroke:#00ff00;stroke-width:0.8px"
   d="m 90.75,4 -3,12"
   id="path2997" />
<path
   style="fill:none;stroke:#ff0000;stroke-width:0.8px"
   d="M 94.210234,14 90.75,16"
   id="path3635" /><path
   style="fill:none;stroke:#ff0000;stroke-width:0.4;stroke-dasharray:0.4, 0.4;stroke-dashoffset:0"
   d="m 94.210234,8.0000001 c 0,0 3.175,1.9999999 3.175,2.9999999 0,1 -3.175,3 -3.175,3"
   id="path3633"
   sodipodi:nodetypes="czc" /><path
   style="fill:none;stroke:#ff0000;stroke-width:0.8px"
   d="m 84.75,4 9.460234,4.0000001"
   id="path2999" />
</g><g
   id="g3013"
   transform="translate(0.186533,62.499998)"
   style="opacity:0.3">
<text
   x="109"
   y="21"
   style="font-size:3.52777px;line-height:1.25;font-family:sans-serif;stroke-width:0.264583"
   id="text3005"><tspan
     id="tspan3003">321&gt;1</tspan></text>
<path
   style="fill:none;stroke:#0000ff;stroke-width:0.8px"
   d="m 115,4 -6,12"
   id="path3007" />
<path
   style="fill:none;stroke:#00ff00;stroke-width:0.8px"
   d="M 112,4 V 16"
   id="path3009" />
<path
   style="fill:none;stroke:#ff0000;stroke-width:0.8px"
   d="M 118.45894,14 115,16"
   id="path3645" /><path
   style="fill:none;stroke:#ff0000;stroke-width:0.4;stroke-dasharray:0.4, 0.4;stroke-dashoffset:0"
   d="m 118.45894,8.0000001 c 0,0 3.175,1.9999999 3.175,2.9999999 0,1 -3.175,3 -3.175,3"
   id="path3643"
   sodipodi:nodetypes="czc" /><path
   style="fill:none;stroke:#ff0000;stroke-width:0.8px"
   d="m 109,4 9.45894,4.0000001"
   id="path3011" />
</g><g
   id="g5825"
   transform="translate(145.6788,-0.50000008)">
<text
   x="14.116667"
   y="21"
   style="font-size:3.52777px;line-height:1.25;font-family:sans-serif;stroke-width:0.264583"
   id="text5817"><tspan
     id="tspan5815">23</tspan></text>

<path
   style="fill:none;stroke:#00ff00;stroke-width:0.8px"
   d="M 15,4 V 16"
   id="path5821" />
<path
   style="fill:none;stroke:#ff0000;stroke-width:0.8px"
   d="M 18,4 V 16"
   id="path5823" />
</g><g
   id="g5837"
   transform="translate(145.6788,-0.50000008)">
<text
   x="38.366669"
   y="21"
   style="font-size:3.52777px;line-height:1.25;font-family:sans-serif;stroke-width:0.264583"
   id="text5829"><tspan
     id="tspan5827">32</tspan></text>

<path
   style="fill:none;stroke:#00ff00;stroke-width:0.8px"
   d="m 42.25,4 -3,12"
   id="path5833" />
<path
   style="fill:none;stroke:#ff0000;stroke-width:0.8px"
   d="m 39.25,4 3,12"
   id="path5835" />
</g><g
   id="g5949"
   transform="translate(145.6788,20.499999)">
<text
   x="14.116667"
   y="21"
   style="font-size:3.52777px;line-height:1.25;font-family:sans-serif;stroke-width:0.264583"
   id="text5943"><tspan
     id="tspan5941">3&lt;23&gt;2</tspan></text>

<path
   style="fill:none;stroke:#00ff00;stroke-width:0.8px"
   d="M 21.464099,14 15,16"
   id="path8794" /><path
   style="fill:none;stroke:#00ff00;stroke-width:0.4;stroke-dasharray:0.4,0.4;stroke-dashoffset:0"
   d="m 21.464099,8.0000003 c 0,0 3.175,1.5439539 3.175,2.9999997 0,1.456046 -3.175,3 -3.175,3"
   id="path8792"
   sodipodi:nodetypes="czc" /><path
   style="fill:none;stroke:#00ff00;stroke-width:0.8px"
   d="m 15,4 6.464099,4.0000003"
   id="path5945" />
<path
   style="fill:none;stroke:#ff0000;stroke-width:0.8px"
   d="M 8.4737184,13.5 18,16"
   id="path8772" /><path
   style="fill:none;stroke:#ff0000;stroke-width:0.4;stroke-dasharray:0.4,0.4;stroke-dashoffset:0"
   d="m 8.4737184,6.5000004 c 0,0 -3.1749999,1.9248233 -3.175,3.4999996 0,1.575176 3.175,3.5 3.175,3.5"
   id="path8770"
   sodipodi:nodetypes="czc" /><path
   style="fill:none;stroke:#ff0000;stroke-width:0.8px"
   d="M 18,4 8.4737184,6.5000004"
   id="path5947" />
</g><g
   id="g5959"
   transform="translate(145.6788,20.499999)">
<text
   x="38.366669"
   y="21"
   style="font-size:3.52777px;line-height:1.25;font-family:sans-serif;stroke-width:0.264583"
   id="text5953"><tspan
     id="tspan5951">2&lt;32&gt;3</tspan></text>

<path
   style="fill:none;stroke:#00ff00;stroke-width:0.8px"
   d="M 45.71281,14 39.25,16"
   id="path8824" /><path
   style="fill:none;stroke:#00ff00;stroke-width:0.4;stroke-dasharray:0.4,0.4;stroke-dashoffset:0"
   d="m 45.71281,8.0000003 c 0,0 3.175,1.5439539 3.175,2.9999997 0,1.456046 -3.175,3 -3.175,3"
   id="path8822"
   sodipodi:nodetypes="czc" /><path
   style="fill:none;stroke:#00ff00;stroke-width:0.8px"
   d="m 42.25,4 3.46281,4.0000003"
   id="path5955" />
<path
   style="fill:none;stroke:#ff0000;stroke-width:0.8px"
   d="M 32.722429,13.5 42.25,16"
   id="path8818" /><path
   style="fill:none;stroke:#ff0000;stroke-width:0.4;stroke-dasharray:0.4,0.4;stroke-dashoffset:0"
   d="m 32.722429,4.5000004 c 0,0 -3.175,2.664225 -3.175,4.4999998 0,1.8357748 3.175,4.4999998 3.175,4.4999998"
   id="path8816"
   sodipodi:nodetypes="czc" /><path
   style="fill:none;stroke:#ff0000;stroke-width:0.8px"
   d="M 39.25,4 32.722429,4.5000004"
   id="path5957" />
</g><g
   id="g5969"
   transform="translate(145.6788,41.499999)">
<text
   x="14.116667"
   y="21"
   style="font-size:3.52777px;line-height:1.25;font-family:sans-serif;stroke-width:0.264583"
   id="text5963"><tspan
     id="tspan5961">2&lt;23&gt;3</tspan></text>

<path
   style="fill:none;stroke:#00ff00;stroke-width:0.8px"
   d="M 8.4737184,13.5 15,16"
   id="path8778" /><path
   style="fill:none;stroke:#00ff00;stroke-width:0.4;stroke-dasharray:0.4,0.4;stroke-dashoffset:0"
   d="m 8.4737184,4.5 c 0,0 -3.175,2.6642251 -3.175,4.5 0,1.835775 3.175,4.5 3.175,4.5"
   id="path8776"
   sodipodi:nodetypes="czc" /><path
   style="fill:none;stroke:#00ff00;stroke-width:0.8px"
   d="M 15,4 8.4737184,4.5"
   id="path5965" />
<path
   style="fill:none;stroke:#ff0000;stroke-width:0.8px"
   d="M 22.330125,14.5 18,16"
   id="path8800" /><path
   style="fill:none;stroke:#ff0000;stroke-width:0.4;stroke-dasharray:0.4,0.4;stroke-dashoffset:0"
   d="m 22.330125,6.4999999 c 0,0 3.175,2.2976936 3.175,4.0000001 0,1.702306 -3.175,4 -3.175,4"
   id="path8798"
   sodipodi:nodetypes="czc" /><path
   style="fill:none;stroke:#ff0000;stroke-width:0.8px"
   d="m 18,4 4.330125,2.4999999"
   id="path5967" />
</g><g
   id="g5979"
   transform="translate(145.6788,41.499999)"
   style="opacity:0.4">
<text
   x="38.366669"
   y="21"
   style="font-size:3.52777px;line-height:1.25;font-family:sans-serif;stroke-width:0.264583"
   id="text5973"><tspan
     id="tspan5971">3&lt;32&gt;2</tspan></text>

<path
   style="fill:none;stroke:#00ff00;stroke-width:0.8px"
   d="M 32.722429,13.5 39.25,16"
   id="path8806" /><path
   style="fill:none;stroke:#00ff00;stroke-width:0.4;stroke-dasharray:0.4,0.4;stroke-dashoffset:0"
   d="m 32.722429,8.4999999 c 0,0 -3.175,1.1529612 -3.175,2.5000001 0,1.347039 3.175,2.5 3.175,2.5"
   id="path8804"
   sodipodi:nodetypes="czc" /><path
   style="fill:none;stroke:#00ff00;stroke-width:0.8px"
   d="M 42.25,4 32.722429,8.4999999"
   id="path5975" />
<path
   style="fill:none;stroke:#ff0000;stroke-width:0.8px"
   d="M 45.71281,14 42.25,16"
   id="path8812" /><path
   style="fill:none;stroke:#ff0000;stroke-width:0.4;stroke-dasharray:0.4,0.4;stroke-dashoffset:0"
   d="m 45.71281,7.9999999 c 0,0 3.175,1.5439543 3.175,3.0000001 0,1.456046 -3.175,3 -3.175,3"
   id="path8810"
   sodipodi:nodetypes="czc" /><path
   style="fill:none;stroke:#ff0000;stroke-width:0.8px"
   d="m 39.25,4 6.46281,3.9999999"
   id="path5977" />
</g><g
   id="g5989"
   transform="translate(145.6788,62.499998)">
<text
   x="14.116667"
   y="21"
   style="font-size:3.52777px;line-height:1.25;font-family:sans-serif;stroke-width:0.264583"
   id="text5983"><tspan
     id="tspan5981">23-2z-</tspan></text>

<path
   style="fill:none;stroke:#00ff00;stroke-width:0.8px"
   d="M 8.4737184,10.5 15,16"
   id="path8788" /><path
   style="fill:none;stroke:#00ff00;stroke-width:0.4;stroke-dasharray:0.4,0.4;stroke-dashoffset:0"
   d="m 8.4737184,4.5000005 c 0,0 -3.175,1.543954 -3.175,2.9999998 0,1.4560458 3.175,2.9999997 3.175,2.9999997"
   id="path8786"
   sodipodi:nodetypes="czc" /><path
   style="fill:none;stroke:#00ff00;stroke-width:0.8px"
   d="M 22.330125,14.5 8.4737184,4.5000005"
   id="path8784" /><path
   style="fill:none;stroke:#00ff00;stroke-width:0.4;stroke-dasharray:0.4,0.4;stroke-dashoffset:0"
   d="m 22.330125,7.5000004 c 0,0 3.175,1.9248233 3.175,3.4999996 0,1.575176 -3.175,3.5 -3.175,3.5"
   id="path8782"
   sodipodi:nodetypes="czc" /><path
   style="fill:none;stroke:#00ff00;stroke-width:0.8px"
   d="m 15,4 7.330125,3.5000004"
   id="path5985" />
<path
   style="fill:none;stroke:#ff0000;stroke-width:0.8px"
   d="M 18,4 V 16"
   id="path5987" />
</g><g
   id="g5999"
   transform="translate(145.6788,62.499998)">
<text
   x="38.366669"
   y="21"
   style="font-size:3.52777px;line-height:1.25;font-family:sans-serif;stroke-width:0.264583"
   id="text5993"><tspan
     id="tspan5991">32-2z</tspan></text>

<path
   style="fill:none;stroke:#00ff00;stroke-width:0.8px"
   d="m 42.25,4 -3,12"
   id="path5995" />
<path
   style="fill:none;stroke:#ff0000;stroke-width:0.8px"
   d="M 32.722429,13.5 42.25,16"
   id="path8834" /><path
   style="fill:none;stroke:#ff0000;stroke-width:0.4;stroke-dasharray:0.4,0.4;stroke-dashoffset:0"
   d="m 32.722429,4.5000005 c 0,0 -3.175,2.664225 -3.175,4.4999998 0,1.8357747 3.175,4.4999997 3.175,4.4999997"
   id="path8832"
   sodipodi:nodetypes="czc" /><path
   style="fill:none;stroke:#ff0000;stroke-width:0.8px"
   d="M 45.71281,14 32.722429,4.5000005"
   id="path8830" /><path
   style="fill:none;stroke:#ff0000;stroke-width:0.4;stroke-dasharray:0.4,0.4;stroke-dashoffset:0"
   d="m 45.71281,8.0000004 c 0,0 3.175,1.5439538 3.175,2.9999996 0,1.456046 -3.175,3 -3.175,3"
   id="path8828"
   sodipodi:nodetypes="czc" /><path
   style="fill:none;stroke:#ff0000;stroke-width:0.8px"
   d="m 39.25,4 6.46281,4.0000004"
   id="path5997" />
</g></g></svg>
