<?xml version="1.0" encoding="UTF-8" standalone="no"?>
<!-- Created with Inkscape (http://www.inkscape.org/) -->

<svg
   width="118mm"
   height="31mm"
   viewBox="0 0 236 62"
   version="1.1"
   id="svg5"
   inkscape:version="1.2.2 (732a01da63, 2022-12-09, custom)"
   sodipodi:docname="3-pair-permutations.svg"
   xml:space="preserve"
   xmlns:inkscape="http://www.inkscape.org/namespaces/inkscape"
   xmlns:sodipodi="http://sodipodi.sourceforge.net/DTD/sodipodi-0.dtd"
   xmlns="http://www.w3.org/2000/svg"
   xmlns:svg="http://www.w3.org/2000/svg"><sodipodi:namedview
     id="namedview7"
     pagecolor="#ffffff"
     bordercolor="#666666"
     borderopacity="1.0"
     inkscape:showpageshadow="2"
     inkscape:pageopacity="0.0"
     inkscape:pagecheckerboard="0"
     inkscape:deskcolor="#d1d1d1"
     inkscape:document-units="mm"
     showgrid="true"
     inkscape:zoom="5.2718078"
     inkscape:cx="132.97146"
     inkscape:cy="79.763909"
     inkscape:window-width="1920"
     inkscape:window-height="1140"
     inkscape:window-x="0"
     inkscape:window-y="36"
     inkscape:window-maximized="1"
     inkscape:current-layer="g20073"
     showguides="true"
     inkscape:pageshadow="2"><inkscape:grid
   type="axonomgrid"
   id="grid2793"
   empspacing="7"
   spacingy="1"
   originx="0"
   originy="0" />
</sodipodi:namedview><defs
     id="defs2"><rect
   x="-11.456084"
   y="59.527561"
   width="22.912169"
   height="92.598427"
   id="rect14527" />
</defs><g
     inkscape:label="Layer 1"
     inkscape:groupmode="layer"
     id="layer1">














































<g
   id="123">
<text
   x="12"
   y="21"
   style="font-size:3.52777px;line-height:1.25;font-family:sans-serif;stroke-width:0.264583"
   id="text19862"><tspan
     id="tspan19860">123 bdpq</tspan></text>
<path
   style="fill:none;stroke:#0080FF;stroke-width:0.8px"
   id="123_1"
   d="m 13.856407,6 v 9" />
<path
   style="fill:none;stroke:#2ca02c;stroke-width:0.8px;stroke-opacity:1"
   id="123_2"
   d="m 18.186533,4.5 v 12" />
<path
   style="fill:none;stroke:#ff0000;stroke-width:0.8px"
   id="123_3"
   d="m 22.516661,6 v 9" />
</g>
<g
   id="132">
<text
   x="36.25"
   y="21"
   style="font-size:3.52777px;line-height:1.25;font-family:sans-serif;stroke-width:0.264583"
   id="text19870"><tspan
     id="tspan19868">132 bp</tspan></text>
<path
   style="fill:none;stroke:#0080FF;stroke-width:0.8px"
   id="132_1"
   d="m 38.106407,6 v 9" />
<path
   style="fill:none;stroke:#2ca02c;stroke-width:0.8px;stroke-opacity:1"
   id="132_3"
   d="M 46.766661,6 42.436533,16.5" />
<path
   style="fill:none;stroke:#ff0000;stroke-width:0.8px"
   id="132_2"
   d="M 42.436533,4.5 46.766661,15" />
</g>
<g
   id="213"
   style="opacity:0.2">
<text
   x="60.5"
   y="21"
   style="font-size:3.52777px;line-height:1.25;font-family:sans-serif;stroke-width:0.264583"
   id="text19878"><tspan
     id="tspan19876">213 bp</tspan></text>
<path
   style="fill:none;stroke:#0080FF;stroke-width:0.8px"
   id="213_2"
   d="M 66.686533,4.5 62.356407,15" />
<path
   style="fill:none;stroke:#2ca02c;stroke-width:0.8px;stroke-opacity:1"
   id="213_1"
   d="m 62.356407,6 4.330126,10.5" />
<path
   style="fill:none;stroke:#ff0000;stroke-width:0.8px"
   id="213_3"
   d="m 71.016661,6 v 9" />
</g>
<g
   id="231">
<text
   x="84.75"
   y="21"
   style="font-size:3.52777px;line-height:1.25;font-family:sans-serif;stroke-width:0.264583"
   id="text19886"><tspan
     id="tspan19884">231 </tspan></text>
<path
   style="fill:none;stroke:#0080FF;stroke-width:0.8px"
   id="231_2"
   d="M 90.936533,4.5 86.606407,15" />
<path
   style="fill:none;stroke:#2ca02c;stroke-width:0.8px;stroke-opacity:1"
   id="231_3"
   d="M 95.266661,6 90.936533,16.5" />
<path
   style="fill:none;stroke:#ff0000;stroke-width:0.8px"
   id="231_1"
   d="m 86.606407,6 8.660254,9" />
</g>
<g
   id="312"
   style="opacity:0.2">
<text
   x="109"
   y="21"
   style="font-size:3.52777px;line-height:1.25;font-family:sans-serif;stroke-width:0.264583"
   id="text19894"><tspan
     id="tspan19892">312 </tspan></text>
<path
   style="fill:none;stroke:#0080FF;stroke-width:0.8px"
   id="312_3"
   d="m 119.51666,6 -8.66025,9" />
<path
   style="fill:none;stroke:#2ca02c;stroke-width:0.8px;stroke-opacity:1"
   id="312_1"
   d="m 110.85641,6 4.33012,10.5" />
<path
   style="fill:none;stroke:#ff0000;stroke-width:0.8px"
   id="312_2"
   d="M 115.18653,4.5 119.51666,15" />
</g>
<g
   id="321">
<text
   x="133.25"
   y="21"
   style="font-size:3.52777px;line-height:1.25;font-family:sans-serif;stroke-width:0.264583"
   id="text19902"><tspan
     id="tspan19900">321 bdpq</tspan></text>
<path
   style="fill:none;stroke:#0080FF;stroke-width:0.8px"
   id="321_3"
   d="m 143.76666,6 -8.66025,9" />
<path
   style="fill:none;stroke:#2ca02c;stroke-width:0.8px;stroke-opacity:1"
   id="321_2"
   d="m 139.43653,4.5 v 12" />
<path
   style="fill:none;stroke:#ff0000;stroke-width:0.8px"
   id="321_1"
   d="m 135.10641,6 8.66025,9" />
</g>
<g
   id="g20049"
   transform="translate(-5.394489e-7,21)">

<path
   style="fill:none;stroke:#0080FF;stroke-width:0.8px"
   id="path20043"
   d="m 13.856407,6 c 5.196152,-9e-7 6.928203,1.999999 6.928203,3.999999 0,3 -4.218656,1.560226 -6.928203,5.000001"
   sodipodi:nodetypes="csc" />
<path
   style="fill:none;stroke:#2ca02c;stroke-width:0.8px;stroke-opacity:1"
   id="path20045"
   d="m 18.186533,4.5 c -2.598075,3.5 2.882043,7.977908 0,12"
   sodipodi:nodetypes="cc" />
<path
   style="fill:none;stroke:#ff0000;stroke-width:0.8px"
   id="path20047"
   d="m 22.516661,6 c -2.598077,3.499999 -6.928204,1.999999 -6.928204,4.999999 0,2 1.732051,4 6.928204,4.000001"
   sodipodi:nodetypes="csc" />
</g><g
   id="g20061"
   transform="translate(-5.394489e-7,21)">

<path
   style="fill:none;stroke:#0080FF;stroke-width:0.8px"
   id="path20055"
   d="m 38.106407,6 c 8.063176,2.219064 10.348488,4.997727 0,9"
   sodipodi:nodetypes="cc" />
<path
   style="fill:none;stroke:#2ca02c;stroke-width:0.8px;stroke-opacity:1"
   id="path20057"
   d="m 46.766661,6 c -6.929492,4 -6.929492,6 -4.330128,10.5"
   sodipodi:nodetypes="cc" />
<path
   style="fill:none;stroke:#ff0000;stroke-width:0.8px"
   id="path20059"
   d="M 42.436533,4.5 C 39.742046,7.940539 39.837169,10 46.766661,15"
   sodipodi:nodetypes="cc" />
</g><g
   id="g20073"
   transform="translate(-5.394489e-7,21)">

<path
   style="fill:none;stroke:#0080FF;stroke-width:0.8px"
   id="path20067"
   d="M 90.936533,4.5 C 91.798693,8 95.262795,11 86.606407,15"
   sodipodi:nodetypes="cc" />
<path
   style="fill:none;stroke:#2ca02c;stroke-width:0.8px;stroke-opacity:1"
   id="path20069"
   d="M 95.266661,6 C 91.094234,7.1434646 85.706143,7.0031216 90.936533,16.5"
   sodipodi:nodetypes="cc" />
<path
   style="fill:none;stroke:#ff0000;stroke-width:0.8px"
   id="path20071"
   d="m 86.606407,6 8.660254,9" />
</g><g
   id="g20085"
   transform="translate(-5.394489e-7,21)">

<path
   style="fill:none;stroke:#0080FF;stroke-width:0.8px"
   id="path20079"
   d="m 143.76666,6 c -3.35208,2.6146668 -8.66025,4.151597 -8.66025,9"
   sodipodi:nodetypes="cc" />
<path
   style="fill:none;stroke:#2ca02c;stroke-width:0.8px;stroke-opacity:1"
   id="path20081"
   d="m 139.43653,4.5 v 12" />
<path
   style="fill:none;stroke:#ff0000;stroke-width:0.8px"
   id="path20083"
   d="m 135.10641,6 c 0.53966,4.527396 3.69525,7.352443 8.66025,9"
   sodipodi:nodetypes="cc" />
</g><g
   id="g20093"
   transform="translate(-5.3944898e-7,42)">

<path
   style="fill:none;stroke:#0080FF;stroke-width:0.8px"
   id="path20087"
   d="m 13.856407,6 c 1.274831,1.6386209 7.116667,5.363249 0,9"
   sodipodi:nodetypes="cc" />
<path
   style="fill:none;stroke:#2ca02c;stroke-width:0.8px;stroke-opacity:1"
   id="path20089"
   d="m 18.186533,4.5 c 2.848975,4.8106826 1.707439,8.485856 0,12"
   sodipodi:nodetypes="cc" />
<path
   style="fill:none;stroke:#ff0000;stroke-width:0.8px"
   id="path20091"
   d="m 22.516661,6 c -9.526279,1.5000014 -9.700237,7.455616 0,9"
   sodipodi:nodetypes="cc" />
</g><g
   id="g20163"
   transform="translate(-5.394489e-7,21)">

<path
   style="fill:none;stroke:#0080FF;stroke-width:0.8px"
   id="path20157"
   d="m 143.76666,6 c -3.35208,2.6146668 -8.66025,4.151597 -8.66025,9"
   sodipodi:nodetypes="cc" />
<path
   style="fill:none;stroke:#2ca02c;stroke-width:0.8px;stroke-opacity:1"
   id="path20159"
   d="m 139.43653,4.5 v 12" />
<path
   style="fill:none;stroke:#ff0000;stroke-width:0.8px"
   id="path20161"
   d="m 135.10641,6 c 0.53966,4.527396 3.69525,7.352443 8.66025,9"
   sodipodi:nodetypes="cc" />
</g><g
   id="g20171"
   transform="translate(-5.394489e-7,42.166668)">

<path
   style="fill:none;stroke:#0080FF;stroke-width:0.8px"
   id="path20165"
   d="m 38.106407,6 c 6.06089,5.333333 8.739422,4.144961 0,9"
   sodipodi:nodetypes="cc" />
<path
   style="fill:none;stroke:#2ca02c;stroke-width:0.8px;stroke-opacity:1"
   id="path20167"
   d="M 46.766661,6 C 35.507043,5.3333333 39.83717,12.18062 42.436533,16.5"
   sodipodi:nodetypes="cc" />
<path
   style="fill:none;stroke:#ff0000;stroke-width:0.8px"
   id="path20169"
   d="m 42.436533,4.5 c -1.264076,8.132697 -2.099967,7.138165 4.330128,10.5"
   sodipodi:nodetypes="cc" />
</g><g
   id="g20355"
   transform="translate(-0.00386662,42)">

<path
   style="fill:none;stroke:#0080FF;stroke-width:0.8px"
   id="path20349"
   d="M 90.936533,4.5 C 90.436326,7.542558 93.050474,10.257169 86.606407,15"
   sodipodi:nodetypes="cc" />
<path
   style="fill:none;stroke:#2ca02c;stroke-width:0.8px;stroke-opacity:1"
   id="path20351"
   d="M 95.266661,6 C 91.137415,7.2326147 86.657793,8.9678865 90.936533,16.5"
   sodipodi:nodetypes="cc" />
<path
   style="fill:none;stroke:#ff0000;stroke-width:0.8px"
   id="path20353"
   d="M 86.606407,6 C 91.802241,6.9999387 94.400636,5.5 93.683441,8.8826444 93.243194,10.959066 86.606407,9.0000001 86.606407,12 c 0,1.288993 2.598076,3.5 8.660254,3"
   sodipodi:nodetypes="cssc" />
</g><g
   id="g480"
   transform="translate(157.61662)">
<text
   x="12"
   y="21"
   style="font-size:3.52777px;line-height:1.25;font-family:sans-serif;stroke-width:0.264583"
   id="text472"><tspan
     id="tspan470">2&lt;23</tspan></text>


<path
   style="fill:none;stroke:#2ca02c;stroke-width:0.8px;stroke-opacity:1"
   d="m 12.124356,12 6.062177,4.5"
   id="path723" /><path
   style="fill:none;stroke:#2ca02c;stroke-width:0.5;stroke-dasharray:0.5, 0.5;stroke-dashoffset:0;stroke-opacity:1"
   d="m 12.124356,9 c -3.8855755,1.086134 -3.0196068,2.066937 0,3"
   id="path721"
   sodipodi:nodetypes="cc" /><path
   style="fill:none;stroke:#2ca02c;stroke-width:0.8px;stroke-opacity:1"
   d="M 18.186533,4.5 12.124356,9"
   id="path476" /><path
   style="fill:none;stroke:#ff0000;stroke-width:0.8px"
   id="path478"
   d="m 22.516661,6 v 9" />
</g><g
   id="g492"
   transform="translate(181.86404,1.2129998e-5)"><path
   style="fill:none;stroke:#ff0000;stroke-width:0.5;stroke-dasharray:0.5, 0.5;stroke-dashoffset:0"
   d="m 36.373067,9 c -2.935243,0.921869 -3.96045,1.89458 0,3"
   id="path727"
   sodipodi:nodetypes="cc" /><path
   style="fill:none;stroke:#ff0000;stroke-width:0.8px"
   d="M 42.436533,4.5 36.373067,9"
   id="path490" />
<text
   x="36.25"
   y="21"
   style="font-size:3.52777px;line-height:1.25;font-family:sans-serif;stroke-width:0.264583"
   id="text484"><tspan
     id="tspan482">2&lt;32</tspan></text>

<path
   style="fill:none;stroke:#2ca02c;stroke-width:0.8px;stroke-opacity:1"
   id="path488"
   d="M 46.766661,6 42.436533,16.5" />

<path
   style="fill:none;stroke:#ff0000;stroke-width:0.8px"
   d="m 36.373067,12 10.393594,3"
   id="path729" /></g><g
   id="g504"
   transform="translate(181.86533)"><path
   style="fill:none;stroke:#ff0000;stroke-width:0.5;stroke-dasharray:0.5, 0.5;stroke-dashoffset:0"
   d="m 12.124356,9 c -3.5081957,1.007438 -3.4197758,2.00725 0,3"
   id="path715"
   sodipodi:nodetypes="cc" /><path
   style="fill:none;stroke:#ff0000;stroke-width:0.8px"
   d="M 22.516661,6 12.124356,9"
   id="path502" />
<text
   x="12"
   y="21"
   style="font-size:3.52777px;line-height:1.25;font-family:sans-serif;stroke-width:0.264583"
   id="text496"><tspan
     id="tspan494">3&lt;23</tspan></text>

<path
   style="fill:none;stroke:#2ca02c;stroke-width:0.8px;stroke-opacity:1"
   id="path500"
   d="m 18.186533,4.5 v 12" />

<path
   style="fill:none;stroke:#ff0000;stroke-width:0.8px"
   d="m 12.124356,12 10.392305,3"
   id="path717" /></g></g></svg>
