<?xml version="1.0" encoding="UTF-8" standalone="no"?>
<!-- Created with Inkscape (http://www.inkscape.org/) -->

<svg
   width="297mm"
   height="46mm"
   viewBox="0 0 594 92"
   version="1.1"
   id="svg5"
   inkscape:version="1.2.2 (732a01da63, 2022-12-09, custom)"
   sodipodi:docname="654321.svg"
   xml:space="preserve"
   xmlns:inkscape="http://www.inkscape.org/namespaces/inkscape"
   xmlns:sodipodi="http://sodipodi.sourceforge.net/DTD/sodipodi-0.dtd"
   xmlns="http://www.w3.org/2000/svg"
   xmlns:svg="http://www.w3.org/2000/svg"><sodipodi:namedview
     id="namedview7"
     pagecolor="#ffffff"
     bordercolor="#666666"
     borderopacity="1.0"
     inkscape:showpageshadow="2"
     inkscape:pageopacity="0.0"
     inkscape:pagecheckerboard="0"
     inkscape:deskcolor="#d1d1d1"
     inkscape:document-units="mm"
     showgrid="true"
     inkscape:zoom="3.541277"
     inkscape:cx="322.76492"
     inkscape:cy="126.93161"
     inkscape:window-width="2560"
     inkscape:window-height="1380"
     inkscape:window-x="0"
     inkscape:window-y="36"
     inkscape:window-maximized="1"
     inkscape:current-layer="layer1"><inkscape:grid
       type="axonomgrid"
       id="grid2793"
       empspacing="7"
       spacingy="4"
       originx="0"
       originy="0" /></sodipodi:namedview><defs
     id="defs2" /><g
     inkscape:label="Layer 1"
     inkscape:groupmode="layer"
     id="layer1"><path
       style="fill:#d7eef4;stroke:none;stroke-width:0.529168px;stroke-linecap:butt;stroke-linejoin:miter;stroke-opacity:1"
       d="m 99.880227,49.368728 c -3.168319,4.967488 2.218283,6.299508 5.763583,8.436098 3.71024,2.11428 9.79288,7.325824 13.70927,1.46976 2.65499,-3.96993 -8.45183,-8.89003 -11.03099,-11.022742 -3.03329,-1.967237 -7.60277,-2.119243 -8.441863,1.116884 z"
       id="path1760"
       sodipodi:nodetypes="ccscc" /><path
       style="fill:#ffd5d5;stroke:none;stroke-width:0.529168px;stroke-linecap:butt;stroke-linejoin:miter;stroke-opacity:1"
       d="m 101.99695,35.610397 c -3.168316,4.967489 1.77729,7.543979 5.4182,9.513258 3.66026,1.97975 8.95266,2.906886 10.90143,-1.337549 1.10714,-2.411353 -1.16983,-4.989802 -5.19388,-8.353924 -5.8165,-4.86262 -10.28666,-3.057912 -11.12575,0.178215 z"
       id="path1714"
       sodipodi:nodetypes="csssc" /><path
       style="fill:#ffd5d5;stroke:none;stroke-width:0.529168px;stroke-linecap:butt;stroke-linejoin:miter;stroke-opacity:1"
       d="m 112.85684,16.130355 c -0.55883,1.435644 10.89397,4.983012 14.96381,10.840811 2.61715,3.766908 12.37994,11.409734 14.9492,4.287774 2.64007,-7.318251 -28.75946,-18.092133 -29.91301,-15.128585 z"
       id="path1710"
       sodipodi:nodetypes="ssss" /><path
       style="fill:#ffeeaa;stroke:none;stroke-width:0.529168px;stroke-linecap:butt;stroke-linejoin:miter;stroke-opacity:1"
       d="m 113.01596,33.453721 c 6.53894,2.998513 7.52196,3.423332 10.88556,0.03283 3.3636,-3.3905 3.37557,-4.861734 -1.13626,-8.619593 -5.5902,-4.656019 -4.91692,-9.170853 -15.07158,-2.390679 -3.38331,2.259009 -3.43715,6.639497 5.32228,10.97744 z"
       id="path1712"
       sodipodi:nodetypes="csssc" /><path
       style="fill:#ffeeaa;stroke:none;stroke-width:0.529168px;stroke-linecap:butt;stroke-linejoin:miter;stroke-opacity:1"
       d="m 126.84217,60.023696 c 5.60931,2.431054 14.09431,-2.61526 7.91288,-8.2199 -14.95191,-13.556757 -13.77983,-9.031717 -17.56093,-1.813945 -1.8878,3.603625 0.6794,6.146855 9.64805,10.033845 z"
       id="path2634"
       sodipodi:nodetypes="ssss" /><path
       style="fill:#d7eef4;stroke:none;stroke-width:0.529168px;stroke-linecap:butt;stroke-linejoin:miter;stroke-opacity:1"
       d="m 125.51408,35.118359 c -3.1683,4.967489 4.78415,9.947095 8.32945,12.083687 3.71024,2.11428 3.78745,4.89437 7.70384,-0.961691 2.65499,-3.969928 2.16221,-5.380799 -0.41695,-7.513511 -3.03329,-1.967237 -14.77725,-6.844612 -15.61634,-3.608485 z"
       id="path2636"
       sodipodi:nodetypes="ccscc" /><g
       id="g25750"
       transform="matrix(4,0,0,4,-24.248705,1.9999696)"><path
         style="fill:none;stroke:#000000;stroke-width:0.7;stroke-linecap:round;stroke-linejoin:miter;stroke-dasharray:none;stroke-opacity:1"
         d="M 12.124356,7 V 7"
         id="path3078"
         sodipodi:nodetypes="cc" /><path
         style="fill:none;stroke:#000000;stroke-width:0.7;stroke-linecap:round;stroke-linejoin:miter;stroke-dasharray:none;stroke-opacity:1"
         d="m 12.124356,14 v 0"
         id="path3636"
         sodipodi:nodetypes="cc" /><path
         style="fill:none;stroke:#000000;stroke-width:0.7;stroke-linecap:round;stroke-linejoin:miter;stroke-dasharray:none;stroke-opacity:1"
         d="m 18.186534,3.5 v 0"
         id="path3638"
         sodipodi:nodetypes="cc" /><path
         style="fill:none;stroke:#000000;stroke-width:0.7;stroke-linecap:round;stroke-linejoin:miter;stroke-dasharray:none;stroke-opacity:1"
         d="m 24.248711,14 v 0"
         id="path3640"
         sodipodi:nodetypes="cc" /><path
         style="fill:none;stroke:#000000;stroke-width:0.7;stroke-linecap:round;stroke-linejoin:miter;stroke-dasharray:none;stroke-opacity:1"
         d="M 24.248711,7 V 7"
         id="path3642"
         sodipodi:nodetypes="cc" /><path
         style="fill:none;stroke:#000000;stroke-width:0.7;stroke-linecap:round;stroke-linejoin:miter;stroke-dasharray:none;stroke-opacity:1"
         d="m 18.186534,17.5 v 0"
         id="path3644"
         sodipodi:nodetypes="cc" /></g><g
       id="563412"
       transform="matrix(4,0,0,4,-800.2487,-1006)"><text
         x="207.42339"
         y="272.77917"
         style="font-size:2.46944px;line-height:1.25;font-family:sans-serif;stroke-width:0.264583"
         id="text22560"><tspan
           id="tspan22558"
           style="font-size:2.46944px">563412</tspan></text><path
         style="fill:none;stroke:#000000;stroke-width:0.3px"
         id="563412_5"
         d="m 216.51666,258 -10.3923,6" /><path
         style="fill:none;stroke:#0000ff;stroke-width:0.3px"
         id="563412_6"
         d="m 218.24871,261 -10.3923,6" /><path
         style="fill:none;stroke:#00ff00;stroke-width:0.3px"
         id="563412_3"
         d="m 210.45448,256.5 v 12" /><path
         style="fill:none;stroke:#ff0000;stroke-width:0.3px"
         id="563412_4"
         d="m 213.91858,256.5 v 12" /><path
         style="fill:none;stroke:#ff00ff;stroke-width:0.3px"
         id="563412_1"
         d="m 206.12436,261 10.3923,6" /><path
         style="fill:none;stroke:#ffb380;stroke-width:0.3px"
         id="563412_2"
         d="m 207.85641,258 10.3923,6" /></g><g
       id="g2658"
       transform="matrix(4,0,0,4,412.22811,1.99997)"><path
         style="fill:none;stroke:#000000;stroke-width:0.7;stroke-linecap:round;stroke-linejoin:miter;stroke-dasharray:none;stroke-opacity:1"
         d="M 12.124356,7 V 7"
         id="path2646"
         sodipodi:nodetypes="cc" /><path
         style="fill:none;stroke:#000000;stroke-width:0.7;stroke-linecap:round;stroke-linejoin:miter;stroke-dasharray:none;stroke-opacity:1"
         d="m 12.124356,14 v 0"
         id="path2648"
         sodipodi:nodetypes="cc" /><path
         style="fill:none;stroke:#000000;stroke-width:0.7;stroke-linecap:round;stroke-linejoin:miter;stroke-dasharray:none;stroke-opacity:1"
         d="m 18.186534,3.5 v 0"
         id="path2650"
         sodipodi:nodetypes="cc" /><path
         style="fill:none;stroke:#000000;stroke-width:0.7;stroke-linecap:round;stroke-linejoin:miter;stroke-dasharray:none;stroke-opacity:1"
         d="m 24.248711,14 v 0"
         id="path2652"
         sodipodi:nodetypes="cc" /><path
         style="fill:none;stroke:#000000;stroke-width:0.7;stroke-linecap:round;stroke-linejoin:miter;stroke-dasharray:none;stroke-opacity:1"
         d="M 24.248711,7 V 7"
         id="path2654"
         sodipodi:nodetypes="cc" /><path
         style="fill:none;stroke:#000000;stroke-width:0.7;stroke-linecap:round;stroke-linejoin:miter;stroke-dasharray:none;stroke-opacity:1"
         d="m 18.186534,17.5 v 0"
         id="path2656"
         sodipodi:nodetypes="cc" /></g><g
       id="g746"
       transform="translate(388.55244,13.000001)"><path
         style="fill:none;stroke:#000000;stroke-width:1.2px"
         id="path2664"
         d="M 113.74232,13 72.173111,37" /><path
         style="fill:none;stroke:#0000ff;stroke-width:1.2px"
         id="path2666"
         d="M 120.67052,25 79.101314,49" /><path
         style="fill:none;stroke:#00ff00;stroke-width:1.2px"
         id="path2668"
         d="m 89.493597,7 c 17.852243,15.6986 19.089563,31.67768 0,48"
         sodipodi:nodetypes="cc" /><path
         style="fill:none;stroke:#ff0000;stroke-width:1.2px"
         id="path2670"
         d="m 103.35,7 c -19.239766,16.40684 -17.697366,32.37424 0,48"
         sodipodi:nodetypes="cc" /><path
         style="fill:none;stroke:#ff00ff;stroke-width:1.2px"
         id="path2672"
         d="M 72.173111,25 113.74232,49" /><path
         style="fill:none;stroke:#ffb380;stroke-width:1.2px"
         id="path2674"
         d="M 79.101314,13 120.67052,37" /></g><g
       id="g762"
       transform="translate(-128.18461,13.000001)"><path
         style="fill:none;stroke:#000000;stroke-width:1.2px"
         id="path2840"
         d="m 339.49479,13 c -5.58456,17.906 -12.4072,34.32928 -41.5692,24"
         sodipodi:nodetypes="cc" /><path
         style="fill:none;stroke:#0000ff;stroke-width:1.2px"
         id="path2842"
         d="m 346.42299,25 c -23.04256,-7.96564 -36.95428,-0.0616 -41.5692,24"
         sodipodi:nodetypes="cc" /><path
         style="fill:none;stroke:#00ff00;stroke-width:1.2px"
         id="path2844"
         d="M 315.24607,6.9999998 C 333.09831,22.6986 334.33563,38.67768 315.24607,55"
         sodipodi:nodetypes="cc" /><path
         style="fill:none;stroke:#ff0000;stroke-width:1.2px"
         id="path2846"
         d="M 329.10247,6.9999998 C 309.86271,23.40684 311.40511,39.37424 329.10247,55"
         sodipodi:nodetypes="cc" /><path
         style="fill:none;stroke:#ff00ff;stroke-width:1.2px"
         id="path2848"
         d="m 297.92559,25 c 24.31744,-8.95512 36.64388,1.52928 41.5692,24"
         sodipodi:nodetypes="cc" /><path
         style="fill:none;stroke:#ffb380;stroke-width:1.2px"
         id="path2850"
         d="m 304.85379,13 c 4.75124,27.10524 20.945,30.20088 41.5692,24"
         sodipodi:nodetypes="cc" /></g><g
       id="g2838"
       transform="matrix(4,0,0,4,121.24361,1.9999703)"><path
         style="fill:none;stroke:#000000;stroke-width:0.7;stroke-linecap:round;stroke-linejoin:miter;stroke-dasharray:none;stroke-opacity:1"
         d="M 12.124356,7 V 7"
         id="path2826"
         sodipodi:nodetypes="cc" /><path
         style="fill:none;stroke:#000000;stroke-width:0.7;stroke-linecap:round;stroke-linejoin:miter;stroke-dasharray:none;stroke-opacity:1"
         d="m 12.124356,14 v 0"
         id="path2828"
         sodipodi:nodetypes="cc" /><path
         style="fill:none;stroke:#000000;stroke-width:0.7;stroke-linecap:round;stroke-linejoin:miter;stroke-dasharray:none;stroke-opacity:1"
         d="m 18.186534,3.5 v 0"
         id="path2830"
         sodipodi:nodetypes="cc" /><path
         style="fill:none;stroke:#000000;stroke-width:0.7;stroke-linecap:round;stroke-linejoin:miter;stroke-dasharray:none;stroke-opacity:1"
         d="m 24.248711,14 v 0"
         id="path2832"
         sodipodi:nodetypes="cc" /><path
         style="fill:none;stroke:#000000;stroke-width:0.7;stroke-linecap:round;stroke-linejoin:miter;stroke-dasharray:none;stroke-opacity:1"
         d="M 24.248711,7 V 7"
         id="path2834"
         sodipodi:nodetypes="cc" /><path
         style="fill:none;stroke:#000000;stroke-width:0.7;stroke-linecap:round;stroke-linejoin:miter;stroke-dasharray:none;stroke-opacity:1"
         d="m 18.186534,17.5 v 0"
         id="path2836"
         sodipodi:nodetypes="cc" /></g><g
       id="g2864"
       transform="matrix(4,0,0,4,266.73593,1.9999906)"><path
         style="fill:none;stroke:#000000;stroke-width:0.7;stroke-linecap:round;stroke-linejoin:miter;stroke-dasharray:none;stroke-opacity:1"
         d="M 12.124356,7 V 7"
         id="path2852"
         sodipodi:nodetypes="cc" /><path
         style="fill:none;stroke:#000000;stroke-width:0.7;stroke-linecap:round;stroke-linejoin:miter;stroke-dasharray:none;stroke-opacity:1"
         d="m 12.124356,14 v 0"
         id="path2854"
         sodipodi:nodetypes="cc" /><path
         style="fill:none;stroke:#000000;stroke-width:0.7;stroke-linecap:round;stroke-linejoin:miter;stroke-dasharray:none;stroke-opacity:1"
         d="m 18.186534,3.5 v 0"
         id="path2856"
         sodipodi:nodetypes="cc" /><path
         style="fill:none;stroke:#000000;stroke-width:0.7;stroke-linecap:round;stroke-linejoin:miter;stroke-dasharray:none;stroke-opacity:1"
         d="m 24.248711,14 v 0"
         id="path2858"
         sodipodi:nodetypes="cc" /><path
         style="fill:none;stroke:#000000;stroke-width:0.7;stroke-linecap:round;stroke-linejoin:miter;stroke-dasharray:none;stroke-opacity:1"
         d="M 24.248711,7 V 7"
         id="path2860"
         sodipodi:nodetypes="cc" /><path
         style="fill:none;stroke:#000000;stroke-width:0.7;stroke-linecap:round;stroke-linejoin:miter;stroke-dasharray:none;stroke-opacity:1"
         d="m 18.186534,17.5 v 0"
         id="path2862"
         sodipodi:nodetypes="cc" /></g><g
       id="g2882"
       transform="matrix(4,0,0,4,-509.26418,-1006)"><path
         style="fill:none;stroke:#000000;stroke-width:0.3px"
         id="path2870"
         d="m 216.51666,258 c -1.06454,4.78126 -4.65349,6.52148 -10.3923,6"
         sodipodi:nodetypes="cc" /><path
         style="fill:none;stroke:#0000ff;stroke-width:0.3px"
         id="path2872"
         d="m 218.24871,261 c -2.91411,5.18009 -6.92158,5.69253 -10.3923,6"
         sodipodi:nodetypes="cc" /><path
         style="fill:none;stroke:#00ff00;stroke-width:0.3px"
         id="path2874"
         d="m 210.45448,256.5 c -2.22112,3.00152 -2.47682,6.47259 0,12"
         sodipodi:nodetypes="cc" /><path
         style="fill:none;stroke:#ff0000;stroke-width:0.3px"
         id="path2876"
         d="m 213.91858,256.5 c -4.23745,3.19691 -5.03062,6.98785 0,12"
         sodipodi:nodetypes="cc" /><path
         style="fill:none;stroke:#ff00ff;stroke-width:0.3px"
         id="path2878"
         d="m 206.12436,261 c 5.01375,-0.51189 8.9669,0.40288 10.3923,6"
         sodipodi:nodetypes="cc" /><path
         style="fill:none;stroke:#ffb380;stroke-width:0.3px"
         id="path2880"
         d="m 207.85641,258 c 4.22708,0.66611 8.28835,1.92035 10.3923,6"
         sodipodi:nodetypes="cc" /></g><g
       id="g770"
       transform="translate(159.52689,11)"><path
         style="fill:none;stroke:#000000;stroke-width:1.2px"
         id="path554"
         d="m 415.514,13 c -5.58456,17.906 -12.4072,34.32928 -41.5692,24"
         sodipodi:nodetypes="cc" /><path
         style="fill:none;stroke:#0000ff;stroke-width:1.2px"
         id="path556"
         d="M 422.4422,25 C 399.39964,17.03436 385.48792,24.9384 380.873,49"
         sodipodi:nodetypes="cc" /><path
         style="fill:none;stroke:#00ff00;stroke-width:1.2px"
         id="path558"
         d="M 391.26528,7 V 55"
         sodipodi:nodetypes="cc" /><path
         style="fill:none;stroke:#ff0000;stroke-width:1.2px"
         id="path560"
         d="M 405.12168,7 V 55"
         sodipodi:nodetypes="cc" /><path
         style="fill:none;stroke:#ff00ff;stroke-width:1.2px"
         id="path562"
         d="m 373.9448,25 c 24.31744,-8.95512 36.64388,1.52928 41.5692,24"
         sodipodi:nodetypes="cc" /><path
         style="fill:none;stroke:#ffb380;stroke-width:1.2px"
         id="path564"
         d="m 380.873,13 c 4.75124,27.10524 20.945,30.20088 41.5692,24"
         sodipodi:nodetypes="cc" /></g><g
       id="g578"
       transform="matrix(4,0,0,4,484.97431,-2.9516989e-5)"><path
         style="fill:none;stroke:#000000;stroke-width:0.7;stroke-linecap:round;stroke-linejoin:miter;stroke-dasharray:none;stroke-opacity:1"
         d="M 12.124356,7 V 7"
         id="path566"
         sodipodi:nodetypes="cc" /><path
         style="fill:none;stroke:#000000;stroke-width:0.7;stroke-linecap:round;stroke-linejoin:miter;stroke-dasharray:none;stroke-opacity:1"
         d="m 12.124356,14 v 0"
         id="path568"
         sodipodi:nodetypes="cc" /><path
         style="fill:none;stroke:#000000;stroke-width:0.7;stroke-linecap:round;stroke-linejoin:miter;stroke-dasharray:none;stroke-opacity:1"
         d="m 18.186534,3.5 v 0"
         id="path570"
         sodipodi:nodetypes="cc" /><path
         style="fill:none;stroke:#000000;stroke-width:0.7;stroke-linecap:round;stroke-linejoin:miter;stroke-dasharray:none;stroke-opacity:1"
         d="m 24.248711,14 v 0"
         id="path572"
         sodipodi:nodetypes="cc" /><path
         style="fill:none;stroke:#000000;stroke-width:0.7;stroke-linecap:round;stroke-linejoin:miter;stroke-dasharray:none;stroke-opacity:1"
         d="M 24.248711,7 V 7"
         id="path574"
         sodipodi:nodetypes="cc" /><path
         style="fill:none;stroke:#000000;stroke-width:0.7;stroke-linecap:round;stroke-linejoin:miter;stroke-dasharray:none;stroke-opacity:1"
         d="m 18.186534,17.5 v 0"
         id="path576"
         sodipodi:nodetypes="cc" /></g><g
       id="g754"
       transform="translate(239.97812,11)"><path
         style="fill:none;stroke:#000000;stroke-width:1.2px"
         id="path580"
         d="m 189.5705,13 c -3.46412,6 -34.64104,24 -41.5692,24"
         sodipodi:nodetypes="cc" /><path
         style="fill:none;stroke:#0000ff;stroke-width:1.2px"
         id="path582"
         d="m 196.4987,25 c -6.92824,0 -38.23064,16.75852 -41.5692,24"
         sodipodi:nodetypes="cc" /><path
         style="fill:none;stroke:#00ff00;stroke-width:1.2px"
         id="path584"
         d="m 165.32178,7 c 27.36384,16.29288 28.07144,32.23884 0,48"
         sodipodi:nodetypes="cc" /><path
         style="fill:none;stroke:#ff0000;stroke-width:1.2px"
         id="path586"
         d="m 179.17818,7 c -29.46732,17.15504 -25.90112,32.9744 0,48"
         sodipodi:nodetypes="cc" /><path
         style="fill:none;stroke:#ff00ff;stroke-width:1.2px"
         id="path588"
         d="m 148.0013,25 c 7.38824,-0.154 38.10508,18 41.5692,24"
         sodipodi:nodetypes="cc" /><path
         style="fill:none;stroke:#ffb380;stroke-width:1.2px"
         id="path590"
         d="m 154.9295,13 c 3.6786,6.0572 34.64096,24 41.5692,24"
         sodipodi:nodetypes="cc" /></g><g
       id="g604"
       transform="matrix(4,0,0,4,339.48197,-3.2053671e-5)"><path
         style="fill:none;stroke:#000000;stroke-width:0.7;stroke-linecap:round;stroke-linejoin:miter;stroke-dasharray:none;stroke-opacity:1"
         d="M 12.124356,7 V 7"
         id="path592"
         sodipodi:nodetypes="cc" /><path
         style="fill:none;stroke:#000000;stroke-width:0.7;stroke-linecap:round;stroke-linejoin:miter;stroke-dasharray:none;stroke-opacity:1"
         d="m 12.124356,14 v 0"
         id="path594"
         sodipodi:nodetypes="cc" /><path
         style="fill:none;stroke:#000000;stroke-width:0.7;stroke-linecap:round;stroke-linejoin:miter;stroke-dasharray:none;stroke-opacity:1"
         d="m 18.186534,3.5 v 0"
         id="path596"
         sodipodi:nodetypes="cc" /><path
         style="fill:none;stroke:#000000;stroke-width:0.7;stroke-linecap:round;stroke-linejoin:miter;stroke-dasharray:none;stroke-opacity:1"
         d="m 24.248711,14 v 0"
         id="path598"
         sodipodi:nodetypes="cc" /><path
         style="fill:none;stroke:#000000;stroke-width:0.7;stroke-linecap:round;stroke-linejoin:miter;stroke-dasharray:none;stroke-opacity:1"
         d="M 24.248711,7 V 7"
         id="path600"
         sodipodi:nodetypes="cc" /><path
         style="fill:none;stroke:#000000;stroke-width:0.7;stroke-linecap:round;stroke-linejoin:miter;stroke-dasharray:none;stroke-opacity:1"
         d="m 18.186534,17.5 v 0"
         id="path602"
         sodipodi:nodetypes="cc" /></g><g
       id="g800"
       transform="matrix(4,0,0,4,193.98982,2.6883011e-5)"><path
         style="fill:none;stroke:#000000;stroke-width:0.7;stroke-linecap:round;stroke-linejoin:miter;stroke-dasharray:none;stroke-opacity:1"
         d="M 12.124356,7 V 7"
         id="path788"
         sodipodi:nodetypes="cc" /><path
         style="fill:none;stroke:#000000;stroke-width:0.7;stroke-linecap:round;stroke-linejoin:miter;stroke-dasharray:none;stroke-opacity:1"
         d="m 12.124356,14 v 0"
         id="path790"
         sodipodi:nodetypes="cc" /><path
         style="fill:none;stroke:#000000;stroke-width:0.7;stroke-linecap:round;stroke-linejoin:miter;stroke-dasharray:none;stroke-opacity:1"
         d="m 18.186534,3.5 v 0"
         id="path792"
         sodipodi:nodetypes="cc" /><path
         style="fill:none;stroke:#000000;stroke-width:0.7;stroke-linecap:round;stroke-linejoin:miter;stroke-dasharray:none;stroke-opacity:1"
         d="m 24.248711,14 v 0"
         id="path794"
         sodipodi:nodetypes="cc" /><path
         style="fill:none;stroke:#000000;stroke-width:0.7;stroke-linecap:round;stroke-linejoin:miter;stroke-dasharray:none;stroke-opacity:1"
         d="M 24.248711,7 V 7"
         id="path796"
         sodipodi:nodetypes="cc" /><path
         style="fill:none;stroke:#000000;stroke-width:0.7;stroke-linecap:round;stroke-linejoin:miter;stroke-dasharray:none;stroke-opacity:1"
         d="m 18.186534,17.5 v 0"
         id="path798"
         sodipodi:nodetypes="cc" /></g><g
       id="g814"
       transform="matrix(4,0,0,4,-582.01029,-1008)"><path
         style="fill:none;stroke:#000000;stroke-width:0.3px"
         id="path802"
         d="m 216.51666,258 c -1.771,2.38772 -7.65721,5.88719 -10.3923,6"
         sodipodi:nodetypes="cc" /><path
         style="fill:none;stroke:#0000ff;stroke-width:0.3px"
         id="path804"
         d="m 218.24871,261 c -2.91411,5.18009 -6.92158,5.69253 -10.3923,6"
         sodipodi:nodetypes="cc" /><path
         style="fill:none;stroke:#00ff00;stroke-width:0.3px"
         id="path806"
         d="m 210.45448,256.5 c -2.22112,3.00152 -2.47682,6.47259 0,12"
         sodipodi:nodetypes="cc" /><path
         style="fill:none;stroke:#ff0000;stroke-width:0.3px"
         id="path808"
         d="m 213.91858,256.5 c -1.47009,2.45835 -1.56186,9.55669 0,12"
         sodipodi:nodetypes="cc" /><path
         style="fill:none;stroke:#ff00ff;stroke-width:0.3px"
         id="path810"
         d="m 206.12436,261 c 2.45377,0.38543 8.59576,3.73565 10.3923,6"
         sodipodi:nodetypes="cc" /><path
         style="fill:none;stroke:#ffb380;stroke-width:0.3px"
         id="path812"
         d="m 207.85641,258 c 4.22708,0.66611 8.28835,1.92035 10.3923,6"
         sodipodi:nodetypes="cc" /></g><g
       id="g933"
       transform="matrix(4,0,0,4,48.497524,5.3883019e-5)"><path
         style="fill:none;stroke:#000000;stroke-width:0.7;stroke-linecap:round;stroke-linejoin:miter;stroke-dasharray:none;stroke-opacity:1"
         d="M 12.124356,7 V 7"
         id="path921"
         sodipodi:nodetypes="cc" /><path
         style="fill:none;stroke:#000000;stroke-width:0.7;stroke-linecap:round;stroke-linejoin:miter;stroke-dasharray:none;stroke-opacity:1"
         d="m 12.124356,14 v 0"
         id="path923"
         sodipodi:nodetypes="cc" /><path
         style="fill:none;stroke:#000000;stroke-width:0.7;stroke-linecap:round;stroke-linejoin:miter;stroke-dasharray:none;stroke-opacity:1"
         d="m 18.186534,3.5 v 0"
         id="path925"
         sodipodi:nodetypes="cc" /><path
         style="fill:none;stroke:#000000;stroke-width:0.7;stroke-linecap:round;stroke-linejoin:miter;stroke-dasharray:none;stroke-opacity:1"
         d="m 24.248711,14 v 0"
         id="path927"
         sodipodi:nodetypes="cc" /><path
         style="fill:none;stroke:#000000;stroke-width:0.7;stroke-linecap:round;stroke-linejoin:miter;stroke-dasharray:none;stroke-opacity:1"
         d="M 24.248711,7 V 7"
         id="path929"
         sodipodi:nodetypes="cc" /><path
         style="fill:none;stroke:#000000;stroke-width:0.7;stroke-linecap:round;stroke-linejoin:miter;stroke-dasharray:none;stroke-opacity:1"
         d="m 18.186534,17.5 v 0"
         id="path931"
         sodipodi:nodetypes="cc" /></g><g
       id="g947"
       transform="matrix(4,0,0,4,-727.50256,-1008)"><path
         style="fill:none;stroke:#000000;stroke-width:0.3px"
         id="path935"
         d="m 216.51666,258 c 1.13621,5.3414 -1.36711,8.52148 -3.6865,8.8268 -2.56154,0.33718 -5.09756,-2.51835 -6.7058,-2.8268"
         sodipodi:nodetypes="csc" /><path
         style="fill:none;stroke:#0000ff;stroke-width:0.3px"
         id="path937"
         d="m 218.24871,261 c -11.31776,-9.83193 -9.94123,5.03968 -10.3923,6"
         sodipodi:nodetypes="cc" /><path
         style="fill:none;stroke:#00ff00;stroke-width:0.3px"
         id="path939"
         d="m 210.45448,256.5 c 0.39021,2.1 3.9355,2.70158 3.65424,4.69025 -0.37059,2.62024 -2.52577,3.25856 -3.65424,7.30975"
         sodipodi:nodetypes="csc" /><path
         style="fill:none;stroke:#ff0000;stroke-width:0.3px"
         id="path941"
         d="m 213.91858,256.5 c -1.15162,2.85482 -6.23333,6.99439 -2.52672,8.65789 1.4219,0.63814 2.46869,1.3143 2.52672,3.34211"
         sodipodi:nodetypes="csc" /><path
         style="fill:none;stroke:#ff00ff;stroke-width:0.3px"
         id="path943"
         d="m 206.12436,261 c 2.45377,0.38543 8.59576,3.73565 10.3923,6"
         sodipodi:nodetypes="cc" /><path
         style="fill:none;stroke:#ffb380;stroke-width:0.3px"
         id="path945"
         d="m 207.85641,258 10.3923,6"
         sodipodi:nodetypes="cc" /></g></g></svg>
