<?xml version="1.0" encoding="UTF-8" standalone="no"?>
<!-- Created with Inkscape (http://www.inkscape.org/) -->

<svg
   width="246mm"
   height="68mm"
   viewBox="0 0 492 136"
   version="1.1"
   id="svg5"
   inkscape:version="1.2.2 (732a01da63, 2022-12-09, custom)"
   sodipodi:docname="654321.svg"
   xml:space="preserve"
   xmlns:inkscape="http://www.inkscape.org/namespaces/inkscape"
   xmlns:sodipodi="http://sodipodi.sourceforge.net/DTD/sodipodi-0.dtd"
   xmlns="http://www.w3.org/2000/svg"
   xmlns:svg="http://www.w3.org/2000/svg"><sodipodi:namedview
     id="namedview7"
     pagecolor="#ffffff"
     bordercolor="#666666"
     borderopacity="1.0"
     inkscape:showpageshadow="2"
     inkscape:pageopacity="0.0"
     inkscape:pagecheckerboard="0"
     inkscape:deskcolor="#d1d1d1"
     inkscape:document-units="mm"
     showgrid="true"
     inkscape:zoom="1.2520305"
     inkscape:cx="473.63064"
     inkscape:cy="259.97769"
     inkscape:window-width="1680"
     inkscape:window-height="990"
     inkscape:window-x="0"
     inkscape:window-y="36"
     inkscape:window-maximized="1"
     inkscape:current-layer="layer1"><inkscape:grid
       type="axonomgrid"
       id="grid2793"
       empspacing="7"
       spacingy="4"
       originx="0"
       originy="0" /></sodipodi:namedview><defs
     id="defs2" /><g
     inkscape:label="Layer 1"
     inkscape:groupmode="layer"
     id="layer1"><path
       style="fill:#ffeeaa;stroke:none;stroke-width:0.529168px;stroke-linecap:butt;stroke-linejoin:miter;stroke-opacity:1"
       d="m 130.04649,57.761979 c 5.44345,2.782673 11.98688,-4.242237 16.81301,-11.124674 4.38591,-6.254639 -9.64504,3.341555 -16.33089,2.418116 -4.37122,-0.603746 -9.22454,-1.394479 -10.13656,0.20386 -1.28222,2.247138 2.68209,4.938461 9.65444,8.502698 z"
       id="path2634"
       sodipodi:nodetypes="sssss" /><path
       style="fill:#d7eef4;stroke:none;stroke-width:0.529168px;stroke-linecap:butt;stroke-linejoin:miter;stroke-opacity:1"
       d="m 113.52683,35.917641 c -1.83018,3.411116 4.98727,1.2847 15.88277,8.592025 3.71024,2.11428 9.61204,5.763625 12.13777,1.730689 2.57217,-4.107086 -10.52781,-13.411762 -14.05717,-11.368347 -7.78566,4.5077 -12.59793,-1.49928 -13.96337,1.045633 z"
       id="path2636"
       sodipodi:nodetypes="scsss" /><path
       style="fill:#d7eef4;stroke:none;stroke-width:0.529168px;stroke-linecap:butt;stroke-linejoin:miter;stroke-opacity:1"
       d="m 101.8831,48.566815 c -3.168321,4.967488 0.21541,8.159754 3.76071,10.296344 3.71024,2.11428 20.07933,13.704936 24.20781,7.996409 4.29986,-5.945512 -3.6718,-10.721924 -7.90891,-13.896645 -2.89331,-2.167859 -19.22052,-7.632235 -20.05961,-4.396108 z"
       id="path1760"
       sodipodi:nodetypes="ccssc" /><path
       style="fill:#ffd5d5;stroke:none;stroke-width:0.529168px;stroke-linecap:butt;stroke-linejoin:miter;stroke-opacity:1"
       d="m 101.99695,35.610397 c -1.73392,7.157469 6.29744,9.601384 10.05932,11.328395 5.06545,2.325458 15.08677,5.629929 17.7439,0.03513 1.13831,-2.396794 -14.08545,-6.807547 -18.1095,-10.171669 -5.8165,-4.86262 -8.9066,-4.441015 -9.69372,-1.191856 z"
       id="path1714"
       sodipodi:nodetypes="sssss" /><path
       style="fill:#ffd5d5;stroke:none;stroke-width:0.529168px;stroke-linecap:butt;stroke-linejoin:miter;stroke-opacity:1"
       d="m 113.59267,17.270497 c -2.43067,2.74218 -2.7412,5.554506 6.42749,11.89271 4.27131,2.952698 20.18043,9.217693 22.74969,2.095733 2.64007,-7.318251 -27.06771,-16.368246 -29.17718,-13.988443 z"
       id="path1710"
       sodipodi:nodetypes="ssss" /><path
       style="fill:#ffeeaa;stroke:none;stroke-width:0.529168px;stroke-linecap:butt;stroke-linejoin:miter;stroke-opacity:1"
       d="m 123.11934,34.549594 c 2.64947,-2.484154 -7.35,-6.605321 -11.86183,-10.36318 -5.5902,-4.656019 -17.029202,9.244924 -14.314252,12.422259 2.64276,3.09285 5.587392,-8.408728 13.136712,-4.630663 4.16496,2.172041 9.55534,5.838215 13.03937,2.571584 z"
       id="path1712"
       sodipodi:nodetypes="ssscs" /><g
       id="g25750"
       transform="matrix(4,0,0,4,-24.248718,41.999967)"><path
         style="fill:none;stroke:#000000;stroke-width:0.7;stroke-linecap:round;stroke-linejoin:miter;stroke-dasharray:none;stroke-opacity:1"
         d="M 12.124356,7 V 7"
         id="path3078"
         sodipodi:nodetypes="cc" /><path
         style="fill:none;stroke:#000000;stroke-width:0.7;stroke-linecap:round;stroke-linejoin:miter;stroke-dasharray:none;stroke-opacity:1"
         d="m 12.124356,14 v 0"
         id="path3636"
         sodipodi:nodetypes="cc" /><path
         style="fill:none;stroke:#000000;stroke-width:0.7;stroke-linecap:round;stroke-linejoin:miter;stroke-dasharray:none;stroke-opacity:1"
         d="m 18.186534,3.5 v 0"
         id="path3638"
         sodipodi:nodetypes="cc" /><path
         style="fill:none;stroke:#000000;stroke-width:0.7;stroke-linecap:round;stroke-linejoin:miter;stroke-dasharray:none;stroke-opacity:1"
         d="m 24.248711,14 v 0"
         id="path3640"
         sodipodi:nodetypes="cc" /><path
         style="fill:none;stroke:#000000;stroke-width:0.7;stroke-linecap:round;stroke-linejoin:miter;stroke-dasharray:none;stroke-opacity:1"
         d="M 24.248711,7 V 7"
         id="path3642"
         sodipodi:nodetypes="cc" /><path
         style="fill:none;stroke:#000000;stroke-width:0.7;stroke-linecap:round;stroke-linejoin:miter;stroke-dasharray:none;stroke-opacity:1"
         d="m 18.186534,17.5 v 0"
         id="path3644"
         sodipodi:nodetypes="cc" /></g><g
       id="563412"
       transform="matrix(4,0,0,4,-800.24871,-966)"><text
         x="207.42339"
         y="272.77917"
         style="font-size:2.46944px;line-height:1.25;font-family:sans-serif;stroke-width:0.264583"
         id="text22560"><tspan
           id="tspan22558"
           style="font-size:2.46944px">563412</tspan></text><path
         style="fill:none;stroke:#000000;stroke-width:0.3px"
         id="563412_5"
         d="m 216.51666,258 -10.3923,6" /><path
         style="fill:none;stroke:#0000ff;stroke-width:0.3px"
         id="563412_6"
         d="m 218.24871,261 -10.3923,6" /><path
         style="fill:none;stroke:#00ff00;stroke-width:0.3px"
         id="563412_3"
         d="m 210.45448,256.5 v 12" /><path
         style="fill:none;stroke:#ff0000;stroke-width:0.3px"
         id="563412_4"
         d="m 213.91858,256.5 v 12" /><path
         style="fill:none;stroke:#ff00ff;stroke-width:0.3px"
         id="563412_1"
         d="m 206.12436,261 10.3923,6" /><path
         style="fill:none;stroke:#ffb380;stroke-width:0.3px"
         id="563412_2"
         d="m 207.85641,258 10.3923,6" /></g><g
       id="g2658"
       transform="matrix(4,0,0,4,339.48195,-3.1719143e-5)"><path
         style="fill:none;stroke:#000000;stroke-width:0.7;stroke-linecap:round;stroke-linejoin:miter;stroke-dasharray:none;stroke-opacity:1"
         d="M 12.124356,7 V 7"
         id="path2646"
         sodipodi:nodetypes="cc" /><path
         style="fill:none;stroke:#000000;stroke-width:0.7;stroke-linecap:round;stroke-linejoin:miter;stroke-dasharray:none;stroke-opacity:1"
         d="m 12.124356,14 v 0"
         id="path2648"
         sodipodi:nodetypes="cc" /><path
         style="fill:none;stroke:#000000;stroke-width:0.7;stroke-linecap:round;stroke-linejoin:miter;stroke-dasharray:none;stroke-opacity:1"
         d="m 18.186534,3.5 v 0"
         id="path2650"
         sodipodi:nodetypes="cc" /><path
         style="fill:none;stroke:#000000;stroke-width:0.7;stroke-linecap:round;stroke-linejoin:miter;stroke-dasharray:none;stroke-opacity:1"
         d="m 24.248711,14 v 0"
         id="path2652"
         sodipodi:nodetypes="cc" /><path
         style="fill:none;stroke:#000000;stroke-width:0.7;stroke-linecap:round;stroke-linejoin:miter;stroke-dasharray:none;stroke-opacity:1"
         d="M 24.248711,7 V 7"
         id="path2654"
         sodipodi:nodetypes="cc" /><path
         style="fill:none;stroke:#000000;stroke-width:0.7;stroke-linecap:round;stroke-linejoin:miter;stroke-dasharray:none;stroke-opacity:1"
         d="m 18.186534,17.5 v 0"
         id="path2656"
         sodipodi:nodetypes="cc" /></g><g
       id="g746"
       transform="translate(315.80628,10.999999)"><path
         style="fill:none;stroke:#000000;stroke-width:1.2px"
         id="path2664"
         d="M 113.74232,13 72.173111,37" /><path
         style="fill:none;stroke:#0000ff;stroke-width:1.2px"
         id="path2666"
         d="M 120.67052,25 79.101314,49" /><path
         style="fill:none;stroke:#00ff00;stroke-width:1.2px"
         id="path2668"
         d="m 89.493597,7 c 17.852243,15.6986 19.089563,31.67768 0,48"
         sodipodi:nodetypes="cc" /><path
         style="fill:none;stroke:#ff0000;stroke-width:1.2px"
         id="path2670"
         d="m 103.35,7 c -19.239766,16.40684 -17.697366,32.37424 0,48"
         sodipodi:nodetypes="cc" /><path
         style="fill:none;stroke:#ff00ff;stroke-width:1.2px"
         id="path2672"
         d="M 72.173111,25 113.74232,49" /><path
         style="fill:none;stroke:#ffb380;stroke-width:1.2px"
         id="path2674"
         d="M 79.101314,13 120.67052,37" /></g><g
       id="g762"
       transform="translate(-103.93588,11)"><path
         style="fill:none;stroke:#000000;stroke-width:1.2px"
         id="path2840"
         d="m 339.49479,13 c -5.58456,17.906 -12.4072,34.32928 -41.5692,24"
         sodipodi:nodetypes="cc" /><path
         style="fill:none;stroke:#0000ff;stroke-width:1.2px"
         id="path2842"
         d="m 346.42299,25 c -23.04256,-7.96564 -36.95428,-0.0616 -41.5692,24"
         sodipodi:nodetypes="cc" /><path
         style="fill:none;stroke:#00ff00;stroke-width:1.2px"
         id="path2844"
         d="M 315.24607,6.9999998 C 333.09831,22.6986 334.33563,38.67768 315.24607,55"
         sodipodi:nodetypes="cc" /><path
         style="fill:none;stroke:#ff0000;stroke-width:1.2px"
         id="path2846"
         d="M 329.10247,6.9999998 C 309.86271,23.40684 311.40511,39.37424 329.10247,55"
         sodipodi:nodetypes="cc" /><path
         style="fill:none;stroke:#ff00ff;stroke-width:1.2px"
         id="path2848"
         d="m 297.92559,25 c 24.31744,-8.95512 36.64388,1.52928 41.5692,24"
         sodipodi:nodetypes="cc" /><path
         style="fill:none;stroke:#ffb380;stroke-width:1.2px"
         id="path2850"
         d="m 304.85379,13 c 4.75124,27.10524 20.945,30.20088 41.5692,24"
         sodipodi:nodetypes="cc" /></g><g
       id="g2838"
       transform="matrix(4,0,0,4,145.49234,-3.0700003e-5)"><path
         style="fill:none;stroke:#000000;stroke-width:0.7;stroke-linecap:round;stroke-linejoin:miter;stroke-dasharray:none;stroke-opacity:1"
         d="M 12.124356,7 V 7"
         id="path2826"
         sodipodi:nodetypes="cc" /><path
         style="fill:none;stroke:#000000;stroke-width:0.7;stroke-linecap:round;stroke-linejoin:miter;stroke-dasharray:none;stroke-opacity:1"
         d="m 12.124356,14 v 0"
         id="path2828"
         sodipodi:nodetypes="cc" /><path
         style="fill:none;stroke:#000000;stroke-width:0.7;stroke-linecap:round;stroke-linejoin:miter;stroke-dasharray:none;stroke-opacity:1"
         d="m 18.186534,3.5 v 0"
         id="path2830"
         sodipodi:nodetypes="cc" /><path
         style="fill:none;stroke:#000000;stroke-width:0.7;stroke-linecap:round;stroke-linejoin:miter;stroke-dasharray:none;stroke-opacity:1"
         d="m 24.248711,14 v 0"
         id="path2832"
         sodipodi:nodetypes="cc" /><path
         style="fill:none;stroke:#000000;stroke-width:0.7;stroke-linecap:round;stroke-linejoin:miter;stroke-dasharray:none;stroke-opacity:1"
         d="M 24.248711,7 V 7"
         id="path2834"
         sodipodi:nodetypes="cc" /><path
         style="fill:none;stroke:#000000;stroke-width:0.7;stroke-linecap:round;stroke-linejoin:miter;stroke-dasharray:none;stroke-opacity:1"
         d="m 18.186534,17.5 v 0"
         id="path2836"
         sodipodi:nodetypes="cc" /></g><g
       id="g2864"
       transform="matrix(4,0,0,4,242.48721,-9.3999958e-6)"><path
         style="fill:none;stroke:#000000;stroke-width:0.7;stroke-linecap:round;stroke-linejoin:miter;stroke-dasharray:none;stroke-opacity:1"
         d="M 12.124356,7 V 7"
         id="path2852"
         sodipodi:nodetypes="cc" /><path
         style="fill:none;stroke:#000000;stroke-width:0.7;stroke-linecap:round;stroke-linejoin:miter;stroke-dasharray:none;stroke-opacity:1"
         d="m 12.124356,14 v 0"
         id="path2854"
         sodipodi:nodetypes="cc" /><path
         style="fill:none;stroke:#000000;stroke-width:0.7;stroke-linecap:round;stroke-linejoin:miter;stroke-dasharray:none;stroke-opacity:1"
         d="m 18.186534,3.5 v 0"
         id="path2856"
         sodipodi:nodetypes="cc" /><path
         style="fill:none;stroke:#000000;stroke-width:0.7;stroke-linecap:round;stroke-linejoin:miter;stroke-dasharray:none;stroke-opacity:1"
         d="m 24.248711,14 v 0"
         id="path2858"
         sodipodi:nodetypes="cc" /><path
         style="fill:none;stroke:#000000;stroke-width:0.7;stroke-linecap:round;stroke-linejoin:miter;stroke-dasharray:none;stroke-opacity:1"
         d="M 24.248711,7 V 7"
         id="path2860"
         sodipodi:nodetypes="cc" /><path
         style="fill:none;stroke:#000000;stroke-width:0.7;stroke-linecap:round;stroke-linejoin:miter;stroke-dasharray:none;stroke-opacity:1"
         d="m 18.186534,17.5 v 0"
         id="path2862"
         sodipodi:nodetypes="cc" /></g><g
       id="g2882"
       transform="matrix(4,0,0,4,-533.5129,-1008)"><path
         style="fill:none;stroke:#000000;stroke-width:0.3px"
         id="path2870"
         d="m 216.51666,258 c -1.06454,4.78126 -4.65349,6.52148 -10.3923,6"
         sodipodi:nodetypes="cc" /><path
         style="fill:none;stroke:#0000ff;stroke-width:0.3px"
         id="path2872"
         d="m 218.24871,261 c -2.91411,5.18009 -6.92158,5.69253 -10.3923,6"
         sodipodi:nodetypes="cc" /><path
         style="fill:none;stroke:#00ff00;stroke-width:0.3px"
         id="path2874"
         d="m 210.45448,256.5 c -2.22112,3.00152 -2.47682,6.47259 0,12"
         sodipodi:nodetypes="cc" /><path
         style="fill:none;stroke:#ff0000;stroke-width:0.3px"
         id="path2876"
         d="m 213.91858,256.5 c -4.23745,3.19691 -5.03062,6.98785 0,12"
         sodipodi:nodetypes="cc" /><path
         style="fill:none;stroke:#ff00ff;stroke-width:0.3px"
         id="path2878"
         d="m 206.12436,261 c 5.01375,-0.51189 8.9669,0.40288 10.3923,6"
         sodipodi:nodetypes="cc" /><path
         style="fill:none;stroke:#ffb380;stroke-width:0.3px"
         id="path2880"
         d="m 207.85641,258 c 4.22708,0.66611 8.28835,1.92035 10.3923,6"
         sodipodi:nodetypes="cc" /></g><g
       id="g770"
       transform="translate(62.532012,66.999997)"><path
         style="fill:none;stroke:#000000;stroke-width:1.2px"
         id="path554"
         d="m 415.514,13 c -5.58456,17.906 -12.4072,34.32928 -41.5692,24"
         sodipodi:nodetypes="cc" /><path
         style="fill:none;stroke:#0000ff;stroke-width:1.2px"
         id="path556"
         d="M 422.4422,25 C 399.39964,17.03436 385.48792,24.9384 380.873,49"
         sodipodi:nodetypes="cc" /><path
         style="fill:none;stroke:#00ff00;stroke-width:1.2px"
         id="path558"
         d="M 391.26528,7 V 55"
         sodipodi:nodetypes="cc" /><path
         style="fill:none;stroke:#ff0000;stroke-width:1.2px"
         id="path560"
         d="M 405.12168,7 V 55"
         sodipodi:nodetypes="cc" /><path
         style="fill:none;stroke:#ff00ff;stroke-width:1.2px"
         id="path562"
         d="m 373.9448,25 c 24.31744,-8.95512 36.64388,1.52928 41.5692,24"
         sodipodi:nodetypes="cc" /><path
         style="fill:none;stroke:#ffb380;stroke-width:1.2px"
         id="path564"
         d="m 380.873,13 c 4.75124,27.10524 20.945,30.20088 41.5692,24"
         sodipodi:nodetypes="cc" /></g><g
       id="g578"
       transform="matrix(4,0,0,4,387.97943,55.999967)"><path
         style="fill:none;stroke:#000000;stroke-width:0.7;stroke-linecap:round;stroke-linejoin:miter;stroke-dasharray:none;stroke-opacity:1"
         d="M 12.124356,7 V 7"
         id="path566"
         sodipodi:nodetypes="cc" /><path
         style="fill:none;stroke:#000000;stroke-width:0.7;stroke-linecap:round;stroke-linejoin:miter;stroke-dasharray:none;stroke-opacity:1"
         d="m 12.124356,14 v 0"
         id="path568"
         sodipodi:nodetypes="cc" /><path
         style="fill:none;stroke:#000000;stroke-width:0.7;stroke-linecap:round;stroke-linejoin:miter;stroke-dasharray:none;stroke-opacity:1"
         d="m 18.186534,3.5 v 0"
         id="path570"
         sodipodi:nodetypes="cc" /><path
         style="fill:none;stroke:#000000;stroke-width:0.7;stroke-linecap:round;stroke-linejoin:miter;stroke-dasharray:none;stroke-opacity:1"
         d="m 24.248711,14 v 0"
         id="path572"
         sodipodi:nodetypes="cc" /><path
         style="fill:none;stroke:#000000;stroke-width:0.7;stroke-linecap:round;stroke-linejoin:miter;stroke-dasharray:none;stroke-opacity:1"
         d="M 24.248711,7 V 7"
         id="path574"
         sodipodi:nodetypes="cc" /><path
         style="fill:none;stroke:#000000;stroke-width:0.7;stroke-linecap:round;stroke-linejoin:miter;stroke-dasharray:none;stroke-opacity:1"
         d="m 18.186534,17.5 v 0"
         id="path576"
         sodipodi:nodetypes="cc" /></g><g
       id="g754"
       transform="translate(191.48069,67)"><path
         style="fill:none;stroke:#000000;stroke-width:1.2px"
         id="path580"
         d="m 189.5705,13 c -3.46412,6 -34.64104,24 -41.5692,24"
         sodipodi:nodetypes="cc" /><path
         style="fill:none;stroke:#0000ff;stroke-width:1.2px"
         id="path582"
         d="m 196.4987,25 c -6.92824,0 -38.23064,16.75852 -41.5692,24"
         sodipodi:nodetypes="cc" /><path
         style="fill:none;stroke:#00ff00;stroke-width:1.2px"
         id="path584"
         d="m 165.32178,7 c 27.36384,16.29288 28.07144,32.23884 0,48"
         sodipodi:nodetypes="cc" /><path
         style="fill:none;stroke:#ff0000;stroke-width:1.2px"
         id="path586"
         d="m 179.17818,7 c -29.46732,17.15504 -25.90112,32.9744 0,48"
         sodipodi:nodetypes="cc" /><path
         style="fill:none;stroke:#ff00ff;stroke-width:1.2px"
         id="path588"
         d="m 148.0013,25 c 7.38824,-0.154 38.10508,18 41.5692,24"
         sodipodi:nodetypes="cc" /><path
         style="fill:none;stroke:#ffb380;stroke-width:1.2px"
         id="path590"
         d="m 154.9295,13 c 3.6786,6.0572 34.64096,24 41.5692,24"
         sodipodi:nodetypes="cc" /></g><g
       id="g604"
       transform="matrix(4,0,0,4,290.98454,55.999968)"><path
         style="fill:none;stroke:#000000;stroke-width:0.7;stroke-linecap:round;stroke-linejoin:miter;stroke-dasharray:none;stroke-opacity:1"
         d="M 12.124356,7 V 7"
         id="path592"
         sodipodi:nodetypes="cc" /><path
         style="fill:none;stroke:#000000;stroke-width:0.7;stroke-linecap:round;stroke-linejoin:miter;stroke-dasharray:none;stroke-opacity:1"
         d="m 12.124356,14 v 0"
         id="path594"
         sodipodi:nodetypes="cc" /><path
         style="fill:none;stroke:#000000;stroke-width:0.7;stroke-linecap:round;stroke-linejoin:miter;stroke-dasharray:none;stroke-opacity:1"
         d="m 18.186534,3.5 v 0"
         id="path596"
         sodipodi:nodetypes="cc" /><path
         style="fill:none;stroke:#000000;stroke-width:0.7;stroke-linecap:round;stroke-linejoin:miter;stroke-dasharray:none;stroke-opacity:1"
         d="m 24.248711,14 v 0"
         id="path598"
         sodipodi:nodetypes="cc" /><path
         style="fill:none;stroke:#000000;stroke-width:0.7;stroke-linecap:round;stroke-linejoin:miter;stroke-dasharray:none;stroke-opacity:1"
         d="M 24.248711,7 V 7"
         id="path600"
         sodipodi:nodetypes="cc" /><path
         style="fill:none;stroke:#000000;stroke-width:0.7;stroke-linecap:round;stroke-linejoin:miter;stroke-dasharray:none;stroke-opacity:1"
         d="m 18.186534,17.5 v 0"
         id="path602"
         sodipodi:nodetypes="cc" /></g><g
       id="g800"
       transform="matrix(4,0,0,4,193.98979,56.000027)"><path
         style="fill:none;stroke:#000000;stroke-width:0.7;stroke-linecap:round;stroke-linejoin:miter;stroke-dasharray:none;stroke-opacity:1"
         d="M 12.124356,7 V 7"
         id="path788"
         sodipodi:nodetypes="cc" /><path
         style="fill:none;stroke:#000000;stroke-width:0.7;stroke-linecap:round;stroke-linejoin:miter;stroke-dasharray:none;stroke-opacity:1"
         d="m 12.124356,14 v 0"
         id="path790"
         sodipodi:nodetypes="cc" /><path
         style="fill:none;stroke:#000000;stroke-width:0.7;stroke-linecap:round;stroke-linejoin:miter;stroke-dasharray:none;stroke-opacity:1"
         d="m 18.186534,3.5 v 0"
         id="path792"
         sodipodi:nodetypes="cc" /><path
         style="fill:none;stroke:#000000;stroke-width:0.7;stroke-linecap:round;stroke-linejoin:miter;stroke-dasharray:none;stroke-opacity:1"
         d="m 24.248711,14 v 0"
         id="path794"
         sodipodi:nodetypes="cc" /><path
         style="fill:none;stroke:#000000;stroke-width:0.7;stroke-linecap:round;stroke-linejoin:miter;stroke-dasharray:none;stroke-opacity:1"
         d="M 24.248711,7 V 7"
         id="path796"
         sodipodi:nodetypes="cc" /><path
         style="fill:none;stroke:#000000;stroke-width:0.7;stroke-linecap:round;stroke-linejoin:miter;stroke-dasharray:none;stroke-opacity:1"
         d="m 18.186534,17.5 v 0"
         id="path798"
         sodipodi:nodetypes="cc" /></g><g
       id="g814"
       transform="matrix(4,0,0,4,-582.01032,-952)"><path
         style="fill:none;stroke:#000000;stroke-width:0.3px"
         id="path802"
         d="m 216.51666,258 c -1.771,2.38772 -7.65721,5.88719 -10.3923,6"
         sodipodi:nodetypes="cc" /><path
         style="fill:none;stroke:#0000ff;stroke-width:0.3px"
         id="path804"
         d="m 218.24871,261 c -2.91411,5.18009 -6.92158,5.69253 -10.3923,6"
         sodipodi:nodetypes="cc" /><path
         style="fill:none;stroke:#00ff00;stroke-width:0.3px"
         id="path806"
         d="m 210.45448,256.5 c -2.22112,3.00152 -2.47682,6.47259 0,12"
         sodipodi:nodetypes="cc" /><path
         style="fill:none;stroke:#ff0000;stroke-width:0.3px"
         id="path808"
         d="m 213.91858,256.5 c -1.47009,2.45835 -1.56186,9.55669 0,12"
         sodipodi:nodetypes="cc" /><path
         style="fill:none;stroke:#ff00ff;stroke-width:0.3px"
         id="path810"
         d="m 206.12436,261 c 2.45377,0.38543 8.59576,3.73565 10.3923,6"
         sodipodi:nodetypes="cc" /><path
         style="fill:none;stroke:#ffb380;stroke-width:0.3px"
         id="path812"
         d="m 207.85641,258 c 4.22708,0.66611 8.28835,1.92035 10.3923,6"
         sodipodi:nodetypes="cc" /></g><g
       id="g933"
       transform="matrix(4,0,0,4,48.497524,5.3883019e-5)"><path
         style="fill:none;stroke:#000000;stroke-width:0.7;stroke-linecap:round;stroke-linejoin:miter;stroke-dasharray:none;stroke-opacity:1"
         d="M 12.124356,7 V 7"
         id="path921"
         sodipodi:nodetypes="cc" /><path
         style="fill:none;stroke:#000000;stroke-width:0.7;stroke-linecap:round;stroke-linejoin:miter;stroke-dasharray:none;stroke-opacity:1"
         d="m 12.124356,14 v 0"
         id="path923"
         sodipodi:nodetypes="cc" /><path
         style="fill:none;stroke:#000000;stroke-width:0.7;stroke-linecap:round;stroke-linejoin:miter;stroke-dasharray:none;stroke-opacity:1"
         d="m 18.186534,3.5 v 0"
         id="path925"
         sodipodi:nodetypes="cc" /><path
         style="fill:none;stroke:#000000;stroke-width:0.7;stroke-linecap:round;stroke-linejoin:miter;stroke-dasharray:none;stroke-opacity:1"
         d="m 24.248711,14 v 0"
         id="path927"
         sodipodi:nodetypes="cc" /><path
         style="fill:none;stroke:#000000;stroke-width:0.7;stroke-linecap:round;stroke-linejoin:miter;stroke-dasharray:none;stroke-opacity:1"
         d="M 24.248711,7 V 7"
         id="path929"
         sodipodi:nodetypes="cc" /><path
         style="fill:none;stroke:#000000;stroke-width:0.7;stroke-linecap:round;stroke-linejoin:miter;stroke-dasharray:none;stroke-opacity:1"
         d="m 18.186534,17.5 v 0"
         id="path931"
         sodipodi:nodetypes="cc" /></g><g
       id="g947"
       transform="matrix(4,0,0,4,-727.50256,-1008)"><path
         style="fill:none;stroke:#000000;stroke-width:0.3px"
         id="path935"
         d="m 216.51666,258 c 1.13621,5.3414 -1.36711,8.52148 -3.6865,8.8268 -2.56154,0.33718 -5.09756,-2.51835 -6.7058,-2.8268"
         sodipodi:nodetypes="csc" /><path
         style="fill:none;stroke:#0000ff;stroke-width:0.3px"
         id="path937"
         d="m 218.24871,261 c -11.31776,-9.83193 -9.94123,5.03968 -10.3923,6"
         sodipodi:nodetypes="cc" /><path
         style="fill:none;stroke:#00ff00;stroke-width:0.3px"
         id="path939"
         d="m 210.45448,256.5 c 0.39021,2.1 3.9355,2.70158 3.65424,4.69025 -0.37059,2.62024 -2.52577,3.25856 -3.65424,7.30975"
         sodipodi:nodetypes="csc" /><path
         style="fill:none;stroke:#ff0000;stroke-width:0.3px"
         id="path941"
         d="m 213.91858,256.5 c -1.15162,2.85482 -6.23333,6.99439 -2.52672,8.65789 1.4219,0.63814 2.46869,1.3143 2.52672,3.34211"
         sodipodi:nodetypes="csc" /><path
         style="fill:none;stroke:#ff00ff;stroke-width:0.3px"
         id="path943"
         d="m 206.12436,261 c 2.45377,0.38543 8.59576,3.73565 10.3923,6"
         sodipodi:nodetypes="cc" /><path
         style="fill:none;stroke:#ffb380;stroke-width:0.3px"
         id="path945"
         d="m 207.85641,258 10.3923,6"
         sodipodi:nodetypes="cc" /></g><text
       xml:space="preserve"
       style="font-size:9.87778px;line-height:1.25;font-family:sans-serif;letter-spacing:0px;word-spacing:0px;stroke-width:0.529167"
       x="79.419456"
       y="11.199647"
       id="text565"><tspan
         sodipodi:role="line"
         id="tspan563"
         style="font-size:9.87778px;stroke-width:0.529167"
         x="79.419456"
         y="11.199647">rclc,cr,cr,lcr,c,crcl</tspan></text><text
       xml:space="preserve"
       style="font-size:7.05554px;line-height:1.25;font-family:sans-serif;letter-spacing:0px;word-spacing:0px;stroke-width:0.529167"
       x="80.197487"
       y="-13.944158"
       id="text619"><tspan
         sodipodi:role="line"
         id="tspan617"
         style="stroke-width:0.529167"
         x="80.197487"
         y="-13.944158">+</tspan></text><g
       id="g950"
       transform="translate(-2.5090041,67)"><path
         style="fill:none;stroke:#000000;stroke-width:1.2px"
         id="path938"
         d="M 189.5705,13 C 187.81496,16.040671 176.95604,41.547772 167.72881,46.847637 158.74842,52.005723 151.41842,37 148.0013,37"
         sodipodi:nodetypes="csc" /><path
         style="fill:none;stroke:#0000ff;stroke-width:1.2px"
         id="path940"
         d="M 196.4987,25 C 193.09895,25 183.9569,13.708563 175.00306,18.674582 165.71017,23.828647 156.6298,45.311982 154.9295,49"
         sodipodi:nodetypes="csc" /><path
         style="fill:none;stroke:#00ff00;stroke-width:1.2px"
         id="path942"
         d="m 165.32178,7 c 12.29481,7.320531 21.63151,16.797189 20.86078,24.075306 C 185.24869,39.894001 180.78048,46.320465 165.32178,55"
         sodipodi:nodetypes="csc" /><path
         style="fill:none;stroke:#ff0000;stroke-width:1.2px"
         id="path944"
         d="M 179.17818,7 C 168.64982,13.129313 160.47156,20.107813 157.88907,25.920829 153.24356,36.377584 162.53125,45.342887 179.17818,55"
         sodipodi:nodetypes="csc" /><path
         style="fill:none;stroke:#ff00ff;stroke-width:1.2px"
         id="path946"
         d="m 148.0013,25 c 7.38824,-0.154 38.10508,18 41.5692,24"
         sodipodi:nodetypes="cc" /><path
         style="fill:none;stroke:#ffb380;stroke-width:1.2px"
         id="path948"
         d="m 154.9295,13 c 3.6786,6.0572 34.64096,24 41.5692,24"
         sodipodi:nodetypes="cc" /></g><g
       id="g964"
       transform="matrix(4,0,0,4,96.99485,55.999968)"><path
         style="fill:none;stroke:#000000;stroke-width:0.7;stroke-linecap:round;stroke-linejoin:miter;stroke-dasharray:none;stroke-opacity:1"
         d="M 12.124356,7 V 7"
         id="path952"
         sodipodi:nodetypes="cc" /><path
         style="fill:none;stroke:#000000;stroke-width:0.7;stroke-linecap:round;stroke-linejoin:miter;stroke-dasharray:none;stroke-opacity:1"
         d="m 12.124356,14 v 0"
         id="path954"
         sodipodi:nodetypes="cc" /><path
         style="fill:none;stroke:#000000;stroke-width:0.7;stroke-linecap:round;stroke-linejoin:miter;stroke-dasharray:none;stroke-opacity:1"
         d="m 18.186534,3.5 v 0"
         id="path956"
         sodipodi:nodetypes="cc" /><path
         style="fill:none;stroke:#000000;stroke-width:0.7;stroke-linecap:round;stroke-linejoin:miter;stroke-dasharray:none;stroke-opacity:1"
         d="m 24.248711,14 v 0"
         id="path958"
         sodipodi:nodetypes="cc" /><path
         style="fill:none;stroke:#000000;stroke-width:0.7;stroke-linecap:round;stroke-linejoin:miter;stroke-dasharray:none;stroke-opacity:1"
         d="M 24.248711,7 V 7"
         id="path960"
         sodipodi:nodetypes="cc" /><path
         style="fill:none;stroke:#000000;stroke-width:0.7;stroke-linecap:round;stroke-linejoin:miter;stroke-dasharray:none;stroke-opacity:1"
         d="m 18.186534,17.5 v 0"
         id="path962"
         sodipodi:nodetypes="cc" /></g></g></svg>
