<?xml version="1.0" encoding="UTF-8" standalone="no"?>
<!-- Created with Inkscape (http://www.inkscape.org/) -->

<svg
   width="73mm"
   height="87mm"
   viewBox="0 0 146 174"
   version="1.1"
   id="svg5"
   inkscape:version="1.2.2 (732a01da63, 2022-12-09, custom)"
   sodipodi:docname="blobs.svg"
   xml:space="preserve"
   xmlns:inkscape="http://www.inkscape.org/namespaces/inkscape"
   xmlns:sodipodi="http://sodipodi.sourceforge.net/DTD/sodipodi-0.dtd"
   xmlns="http://www.w3.org/2000/svg"
   xmlns:svg="http://www.w3.org/2000/svg"><sodipodi:namedview
     id="namedview7"
     pagecolor="#ffffff"
     bordercolor="#666666"
     borderopacity="1.0"
     inkscape:showpageshadow="2"
     inkscape:pageopacity="0.0"
     inkscape:pagecheckerboard="0"
     inkscape:deskcolor="#d1d1d1"
     inkscape:document-units="mm"
     showgrid="true"
     inkscape:zoom="1"
     inkscape:cx="275"
     inkscape:cy="159.5"
     inkscape:window-width="1920"
     inkscape:window-height="1140"
     inkscape:window-x="0"
     inkscape:window-y="36"
     inkscape:window-maximized="1"
     inkscape:current-layer="g30441"><inkscape:grid
       type="axonomgrid"
       id="grid2793"
       empspacing="7"
       spacingy="4"
       originx="0"
       originy="0" /></sodipodi:namedview><defs
     id="defs2" /><g
     inkscape:label="Layer 1"
     inkscape:groupmode="layer"
     id="layer1"><g
       id="g30441"
       transform="matrix(2,0,0,2,-24.248714,-42)"><path
         style="fill:#d7eef4;stroke:none;stroke-width:0.529168px;stroke-linecap:butt;stroke-linejoin:miter;stroke-opacity:1"
         d="m 48.497429,56 c -2.75299,6.357755 -0.10995,6.600151 9.33397,15.058333 4.98995,4.469107 13.82992,-10.9373 11.45064,-15.058333 -6.92821,-12 -16.57935,-9.711632 -20.78461,0 z"
         id="path21004"
         sodipodi:nodetypes="ssss" /><path
         style="fill:#ffd5d5;fill-opacity:1;stroke:none;stroke-width:0.529168px;stroke-linecap:butt;stroke-linejoin:miter;stroke-opacity:1"
         d="m 29.137009,62.566815 c -3.16832,4.967488 0.21541,8.159754 3.76071,10.296344 3.71024,2.11428 20.07932,13.704936 24.2078,7.996409 4.29986,-5.945512 -3.177687,-12.534463 -7.414797,-15.709184 -2.8933,-2.167859 -19.714623,-5.819696 -20.553713,-2.583569 z"
         id="path21006"
         sodipodi:nodetypes="ccssc" /><path
         style="fill:#ffd5d5;stroke:none;stroke-width:0.529168px;stroke-linecap:butt;stroke-linejoin:miter;stroke-opacity:1"
         d="m 40.846579,31.270497 c -2.43067,2.74218 -2.7412,5.554506 6.42748,11.89271 4.27131,2.952698 20.18043,9.217693 22.74969,2.095733 2.64007,-7.318251 -27.0677,-16.368246 -29.17717,-13.988443 z"
         id="path21010"
         sodipodi:nodetypes="ssss" /><path
         style="fill:#ffeeaa;stroke:none;stroke-width:0.529168px;stroke-linecap:butt;stroke-linejoin:miter;stroke-opacity:1"
         d="m 50.373239,48.549594 c 2.64947,-2.484154 -7.49099,-6.442214 -11.86182,-10.36318 -2.20061,-1.974115 -7.28295,3.204913 -10.7986,9.813586 -1.91063,3.591574 -0.62112,8.221935 6.9282,12 10.39231,6 12.2482,-8.183775 15.73222,-11.450406 z"
         id="path21012"
         sodipodi:nodetypes="ssscs" /><g
         id="g21038"
         transform="matrix(4,0,0,4,-800.24867,-994)"><path
           style="fill:none;stroke:#000000;stroke-width:0.5;stroke-dasharray:none"
           id="path21014"
           d="m 216.51666,258 c 1.13621,5.3414 -1.36711,8.52148 -3.6865,8.8268 -2.56154,0.33718 -5.09756,-2.51835 -6.7058,-2.8268"
           sodipodi:nodetypes="csc" /><path
           style="fill:none;stroke:#0080ff;stroke-width:0.5;stroke-dasharray:none"
           id="path21016"
           d="m 218.24871,261 c -11.31776,-9.83193 -9.94123,5.03968 -10.3923,6"
           sodipodi:nodetypes="cc" /><path
           style="fill:none;stroke:#2ca02c;stroke-width:0.5;stroke-dasharray:none;stroke-opacity:1"
           id="path21018"
           d="m 210.45448,256.5 c 0.39021,2.1 3.9355,2.70158 3.65424,4.69025 -0.37059,2.62024 -2.52577,3.25856 -3.65424,7.30975"
           sodipodi:nodetypes="csc" /><path
           style="fill:none;stroke:#ff0000;stroke-width:0.5;stroke-dasharray:none"
           id="path21020"
           d="m 213.91858,256.5 c -1.15162,2.85482 -6.23333,6.99439 -2.52672,8.65789 1.4219,0.63814 2.46869,1.3143 2.52672,3.34211"
           sodipodi:nodetypes="csc" /><path
           style="fill:none;stroke:#9955ff;stroke-width:0.5;stroke-dasharray:none;stroke-opacity:1"
           id="path21022"
           d="m 206.12436,261 c 2.45377,0.38543 8.59576,3.73565 10.3923,6"
           sodipodi:nodetypes="cc" /><path
           style="fill:none;stroke:#ffb380;stroke-width:0.5;stroke-dasharray:none"
           id="path21024"
           d="m 207.85641,258 10.3923,6"
           sodipodi:nodetypes="cc" /><circle
           style="opacity:0.9;fill:#000000;stroke:none;stroke-width:0.5;stroke-linecap:round;stroke-dasharray:none;stroke-opacity:1"
           id="circle21026"
           cx="212.18652"
           cy="255.5"
           r="0.63397455" /><circle
           style="opacity:0.9;fill:#000000;stroke:none;stroke-width:0.5;stroke-linecap:round;stroke-dasharray:none;stroke-opacity:1"
           id="circle21028"
           cx="206.12434"
           cy="259"
           r="0.63397455" /><circle
           style="opacity:0.9;fill:#000000;stroke:none;stroke-width:0.5;stroke-linecap:round;stroke-dasharray:none;stroke-opacity:1"
           id="circle21030"
           cx="206.12434"
           cy="266"
           r="0.63397455" /><circle
           style="opacity:0.9;fill:#000000;stroke:none;stroke-width:0.5;stroke-linecap:round;stroke-dasharray:none;stroke-opacity:1"
           id="circle21032"
           cx="212.18652"
           cy="269.5"
           r="0.63397455" /><circle
           style="opacity:0.9;fill:#000000;stroke:none;stroke-width:0.5;stroke-linecap:round;stroke-dasharray:none;stroke-opacity:1"
           id="circle21034"
           cx="218.2487"
           cy="266"
           r="0.63397455" /><circle
           style="opacity:0.9;fill:#000000;stroke:none;stroke-width:0.5;stroke-linecap:round;stroke-dasharray:none;stroke-opacity:1"
           id="circle21036"
           cx="218.2487"
           cy="259"
           r="0.63397455" /></g></g><g
       id="563412"
       transform="matrix(4,0,0,4,-800.24873,-994)"><g
         id="g5850" /></g><text
       xml:space="preserve"
       style="font-size:9.87778px;line-height:1.25;font-family:sans-serif;letter-spacing:0px;word-spacing:0px;stroke-width:0.529167"
       x="34.190029"
       y="157.49132"
       id="text21042"><tspan
         sodipodi:role="line"
         id="tspan21040"
         style="font-size:9.87778px;stroke-width:0.529167"
         x="34.190029"
         y="157.49132">rclc,ctc,ctc,crcl</tspan></text></g></svg>
