<?xml version="1.0" encoding="UTF-8" standalone="no"?>
<!-- Created with Inkscape (http://www.inkscape.org/) -->

<svg
   width="51mm"
   height="58mm"
   viewBox="0 0 102 116"
   version="1.1"
   id="svg5"
   inkscape:version="1.2.2 (732a01da63, 2022-12-09, custom)"
   sodipodi:docname="blobs.svg"
   xml:space="preserve"
   xmlns:inkscape="http://www.inkscape.org/namespaces/inkscape"
   xmlns:sodipodi="http://sodipodi.sourceforge.net/DTD/sodipodi-0.dtd"
   xmlns="http://www.w3.org/2000/svg"
   xmlns:svg="http://www.w3.org/2000/svg"><sodipodi:namedview
     id="namedview7"
     pagecolor="#ffffff"
     bordercolor="#666666"
     borderopacity="1.0"
     inkscape:showpageshadow="2"
     inkscape:pageopacity="0.0"
     inkscape:pagecheckerboard="0"
     inkscape:deskcolor="#d1d1d1"
     inkscape:document-units="mm"
     showgrid="true"
     inkscape:zoom="2.4141311"
     inkscape:cx="137.73071"
     inkscape:cy="143.11567"
     inkscape:window-width="1920"
     inkscape:window-height="1140"
     inkscape:window-x="0"
     inkscape:window-y="36"
     inkscape:window-maximized="1"
     inkscape:current-layer="layer1"><inkscape:grid
       type="axonomgrid"
       id="grid2793"
       empspacing="7"
       spacingy="3.0000001"
       originx="0"
       originy="0" /></sodipodi:namedview><defs
     id="defs2" /><g
     inkscape:label="Layer 1"
     inkscape:groupmode="layer"
     id="layer1"><g
       id="g30441"
       transform="matrix(2,0,0,2,-42.435238,-59.5)"><path
         style="fill:#d7eef4;stroke:none;stroke-width:0.396876px;stroke-linecap:butt;stroke-linejoin:miter;stroke-opacity:1"
         d="m 48.497428,56 c -2.064743,4.768316 -0.08246,4.950113 7.000477,11.29375 C 59.240368,70.64558 65.870345,59.090775 64.085885,56 58.889728,47 51.651373,48.716276 48.497428,56 Z"
         id="path21004"
         sodipodi:nodetypes="ssss" /><path
         style="fill:#ffd5d5;fill-opacity:1;stroke:none;stroke-width:0.396876px;stroke-linecap:butt;stroke-linejoin:miter;stroke-opacity:1"
         d="m 33.977113,60.925111 c -2.37624,3.725616 0.161557,6.119816 2.820532,7.722258 2.78268,1.58571 15.05949,10.278702 18.15585,5.997307 C 58.17839,70.185542 52.57023,65.243829 49.392397,62.862788 47.222422,61.236894 34.60643,58.498016 33.977113,60.925111 Z"
         id="path21006"
         sodipodi:nodetypes="ccssc" /><path
         style="fill:#ffd5d5;stroke:none;stroke-width:0.396876px;stroke-linecap:butt;stroke-linejoin:miter;stroke-opacity:1"
         d="m 42.75929,37.452873 c -1.823002,2.056635 -2.0559,4.165879 4.82061,8.919532 3.203483,2.214524 15.135323,6.91327 17.062268,1.5718 C 66.62222,42.455517 44.341393,35.668021 42.75929,37.452873 Z"
         id="path21010"
         sodipodi:nodetypes="ssss" /><path
         style="fill:#ffeeaa;stroke:none;stroke-width:0.396876px;stroke-linecap:butt;stroke-linejoin:miter;stroke-opacity:1"
         d="M 49.904285,50.412196 C 51.891388,48.54908 44.286043,45.580535 41.00792,42.639811 39.357463,41.159224 35.545708,45.043495 32.90897,50 c -1.432972,2.693681 -0.46584,6.166451 5.19615,9 7.794233,4.5 9.18615,-6.137831 11.799165,-8.587804 z"
         id="path21012"
         sodipodi:nodetypes="ssscs" /><g
         id="g21038"
         transform="matrix(3,0,0,3,-588.06215,-731.5)"><path
           style="fill:none;stroke:#000000;stroke-width:0.5;stroke-dasharray:none"
           id="path21014"
           d="m 216.51666,258 c 1.13621,5.3414 -1.36711,8.52148 -3.6865,8.8268 -2.56154,0.33718 -5.09756,-2.51835 -6.7058,-2.8268"
           sodipodi:nodetypes="csc" /><path
           style="fill:none;stroke:#0080ff;stroke-width:0.5;stroke-dasharray:none"
           id="path21016"
           d="m 218.24871,261 c -11.31776,-9.83193 -9.94123,5.03968 -10.3923,6"
           sodipodi:nodetypes="cc" /><path
           style="fill:none;stroke:#2ca02c;stroke-width:0.5;stroke-dasharray:none;stroke-opacity:1"
           id="path21018"
           d="m 210.45448,256.5 c 0.39021,2.1 3.9355,2.70158 3.65424,4.69025 -0.37059,2.62024 -2.52577,3.25856 -3.65424,7.30975"
           sodipodi:nodetypes="csc" /><path
           style="fill:none;stroke:#ff0000;stroke-width:0.5;stroke-dasharray:none"
           id="path21020"
           d="m 213.91858,256.5 c -1.15162,2.85482 -6.23333,6.99439 -2.52672,8.65789 1.4219,0.63814 2.46869,1.3143 2.52672,3.34211"
           sodipodi:nodetypes="csc" /><path
           style="fill:none;stroke:#9955ff;stroke-width:0.5;stroke-dasharray:none;stroke-opacity:1"
           id="path21022"
           d="m 206.12436,261 c 2.45377,0.38543 8.59576,3.73565 10.3923,6"
           sodipodi:nodetypes="cc" /><path
           style="fill:none;stroke:#ffb380;stroke-width:0.5;stroke-dasharray:none"
           id="path21024"
           d="m 207.85641,258 10.3923,6"
           sodipodi:nodetypes="cc" /><circle
           style="opacity:0.9;fill:#000000;stroke:none;stroke-width:0.5;stroke-linecap:round;stroke-dasharray:none;stroke-opacity:1"
           id="circle21026"
           cx="212.18652"
           cy="255.5"
           r="0.63397455" /><circle
           style="opacity:0.9;fill:#000000;stroke:none;stroke-width:0.5;stroke-linecap:round;stroke-dasharray:none;stroke-opacity:1"
           id="circle21028"
           cx="206.12434"
           cy="259"
           r="0.63397455" /><circle
           style="opacity:0.9;fill:#000000;stroke:none;stroke-width:0.5;stroke-linecap:round;stroke-dasharray:none;stroke-opacity:1"
           id="circle21030"
           cx="206.12434"
           cy="266"
           r="0.63397455" /><circle
           style="opacity:0.9;fill:#000000;stroke:none;stroke-width:0.5;stroke-linecap:round;stroke-dasharray:none;stroke-opacity:1"
           id="circle21032"
           cx="212.18652"
           cy="269.5"
           r="0.63397455" /><circle
           style="opacity:0.9;fill:#000000;stroke:none;stroke-width:0.5;stroke-linecap:round;stroke-dasharray:none;stroke-opacity:1"
           id="circle21034"
           cx="218.2487"
           cy="266"
           r="0.63397455" /><circle
           style="opacity:0.9;fill:#000000;stroke:none;stroke-width:0.5;stroke-linecap:round;stroke-dasharray:none;stroke-opacity:1"
           id="circle21036"
           cx="218.2487"
           cy="259"
           r="0.63397455" /></g></g><g
       id="563412"
       transform="matrix(4,0,0,4,-818.43526,-1011.5)"><g
         id="g5850" /></g><text
       xml:space="preserve"
       style="font-size:9.87778px;line-height:1.25;font-family:sans-serif;letter-spacing:0px;word-spacing:0px;stroke-width:0.529167"
       x="16.003506"
       y="108.24133"
       id="text21042"><tspan
         sodipodi:role="line"
         id="tspan21040"
         style="font-size:9.87778px;stroke-width:0.529167"
         x="16.003506"
         y="108.24133">rclc,ctc,ctc,crcl</tspan></text></g></svg>
