<?xml version="1.0" encoding="UTF-8" standalone="no"?>
<!-- Created with Inkscape (http://www.inkscape.org/) -->

<svg
   width="247mm"
   height="87mm"
   viewBox="0 0 494 174"
   version="1.1"
   id="svg5"
   inkscape:version="1.2.2 (732a01da63, 2022-12-09, custom)"
   sodipodi:docname="blobs.svg"
   xml:space="preserve"
   xmlns:inkscape="http://www.inkscape.org/namespaces/inkscape"
   xmlns:sodipodi="http://sodipodi.sourceforge.net/DTD/sodipodi-0.dtd"
   xmlns="http://www.w3.org/2000/svg"
   xmlns:svg="http://www.w3.org/2000/svg"><sodipodi:namedview
     id="namedview7"
     pagecolor="#ffffff"
     bordercolor="#666666"
     borderopacity="1.0"
     inkscape:showpageshadow="2"
     inkscape:pageopacity="0.0"
     inkscape:pagecheckerboard="0"
     inkscape:deskcolor="#d1d1d1"
     inkscape:document-units="mm"
     showgrid="true"
     inkscape:zoom="3.8122175"
     inkscape:cx="274.90562"
     inkscape:cy="158.30681"
     inkscape:window-width="2560"
     inkscape:window-height="1380"
     inkscape:window-x="0"
     inkscape:window-y="36"
     inkscape:window-maximized="1"
     inkscape:current-layer="layer1"><inkscape:grid
       type="axonomgrid"
       id="grid2793"
       empspacing="7"
       spacingy="4"
       originx="0"
       originy="0" /></sodipodi:namedview><defs
     id="defs2" /><g
     inkscape:label="Layer 1"
     inkscape:groupmode="layer"
     id="layer1"><g
       id="g30441"
       transform="matrix(2,0,0,2,-24.248714,-42)"><path
         style="fill:#d7eef4;stroke:none;stroke-width:0.529168px;stroke-linecap:butt;stroke-linejoin:miter;stroke-opacity:1"
         d="m 48.497429,56 c -2.75299,6.357755 -0.10995,6.600151 9.33397,15.058333 4.98995,4.469107 13.82992,-10.9373 11.45064,-15.058333 -6.92821,-12 -16.57935,-9.711632 -20.78461,0 z"
         id="path21004"
         sodipodi:nodetypes="ssss" /><path
         style="fill:#ffd5d5;fill-opacity:1;stroke:none;stroke-width:0.529168px;stroke-linecap:butt;stroke-linejoin:miter;stroke-opacity:1"
         d="m 29.137009,62.566815 c -3.16832,4.967488 0.21541,8.159754 3.76071,10.296344 3.71024,2.11428 20.07932,13.704936 24.2078,7.996409 4.29986,-5.945512 -3.177687,-12.534463 -7.414797,-15.709184 -2.8933,-2.167859 -19.714623,-5.819696 -20.553713,-2.583569 z"
         id="path21006"
         sodipodi:nodetypes="ccssc" /><path
         style="fill:#ffd5d5;stroke:none;stroke-width:0.529168px;stroke-linecap:butt;stroke-linejoin:miter;stroke-opacity:1"
         d="m 40.846579,31.270497 c -2.43067,2.74218 -2.7412,5.554506 6.42748,11.89271 4.27131,2.952698 20.18043,9.217693 22.74969,2.095733 2.64007,-7.318251 -27.0677,-16.368246 -29.17717,-13.988443 z"
         id="path21010"
         sodipodi:nodetypes="ssss" /><path
         style="fill:#ffeeaa;stroke:none;stroke-width:0.529168px;stroke-linecap:butt;stroke-linejoin:miter;stroke-opacity:1"
         d="m 50.373239,48.549594 c 2.64947,-2.484154 -7.49099,-6.442214 -11.86182,-10.36318 -2.20061,-1.974115 -7.28295,3.204913 -10.7986,9.813586 -1.91063,3.591574 -0.62112,8.221935 6.9282,12 10.39231,6 12.2482,-8.183775 15.73222,-11.450406 z"
         id="path21012"
         sodipodi:nodetypes="ssscs" /><g
         id="g21038"
         transform="matrix(4,0,0,4,-800.24867,-994)"><path
           style="fill:none;stroke:#000000;stroke-width:0.5;stroke-dasharray:none"
           id="path21014"
           d="m 216.51666,258 c 1.13621,5.3414 -1.36711,8.52148 -3.6865,8.8268 -2.56154,0.33718 -5.09756,-2.51835 -6.7058,-2.8268"
           sodipodi:nodetypes="csc" /><path
           style="fill:none;stroke:#0000ff;stroke-width:0.5;stroke-dasharray:none"
           id="path21016"
           d="m 218.24871,261 c -11.31776,-9.83193 -9.94123,5.03968 -10.3923,6"
           sodipodi:nodetypes="cc" /><path
           style="fill:none;stroke:#00ff00;stroke-width:0.5;stroke-dasharray:none"
           id="path21018"
           d="m 210.45448,256.5 c 0.39021,2.1 3.9355,2.70158 3.65424,4.69025 -0.37059,2.62024 -2.52577,3.25856 -3.65424,7.30975"
           sodipodi:nodetypes="csc" /><path
           style="fill:none;stroke:#ff0000;stroke-width:0.5;stroke-dasharray:none"
           id="path21020"
           d="m 213.91858,256.5 c -1.15162,2.85482 -6.23333,6.99439 -2.52672,8.65789 1.4219,0.63814 2.46869,1.3143 2.52672,3.34211"
           sodipodi:nodetypes="csc" /><path
           style="fill:none;stroke:#9955ff;stroke-width:0.5;stroke-dasharray:none;stroke-opacity:1"
           id="path21022"
           d="m 206.12436,261 c 2.45377,0.38543 8.59576,3.73565 10.3923,6"
           sodipodi:nodetypes="cc" /><path
           style="fill:none;stroke:#ffb380;stroke-width:0.5;stroke-dasharray:none"
           id="path21024"
           d="m 207.85641,258 10.3923,6"
           sodipodi:nodetypes="cc" /><circle
           style="opacity:0.9;fill:#000000;stroke:none;stroke-width:0.5;stroke-linecap:round;stroke-dasharray:none;stroke-opacity:1"
           id="circle21026"
           cx="212.18652"
           cy="255.5"
           r="0.63397455" /><circle
           style="opacity:0.9;fill:#000000;stroke:none;stroke-width:0.5;stroke-linecap:round;stroke-dasharray:none;stroke-opacity:1"
           id="circle21028"
           cx="206.12434"
           cy="259"
           r="0.63397455" /><circle
           style="opacity:0.9;fill:#000000;stroke:none;stroke-width:0.5;stroke-linecap:round;stroke-dasharray:none;stroke-opacity:1"
           id="circle21030"
           cx="206.12434"
           cy="266"
           r="0.63397455" /><circle
           style="opacity:0.9;fill:#000000;stroke:none;stroke-width:0.5;stroke-linecap:round;stroke-dasharray:none;stroke-opacity:1"
           id="circle21032"
           cx="212.18652"
           cy="269.5"
           r="0.63397455" /><circle
           style="opacity:0.9;fill:#000000;stroke:none;stroke-width:0.5;stroke-linecap:round;stroke-dasharray:none;stroke-opacity:1"
           id="circle21034"
           cx="218.2487"
           cy="266"
           r="0.63397455" /><circle
           style="opacity:0.9;fill:#000000;stroke:none;stroke-width:0.5;stroke-linecap:round;stroke-dasharray:none;stroke-opacity:1"
           id="circle21036"
           cx="218.2487"
           cy="259"
           r="0.63397455" /></g></g><g
       id="563412"
       transform="matrix(4,0,0,4,-800.24873,-994)"><g
         id="g5850" /></g><g
       id="g30462"
       transform="matrix(2,0,0,2,-72.746127,-42)"><path
         style="fill:#ffeeaa;stroke:none;stroke-width:0.529168px;stroke-linecap:butt;stroke-linejoin:miter;stroke-opacity:1"
         d="m 154.29522,71.761979 c 5.44345,2.782673 11.98688,-4.242237 16.81301,-11.124674 4.38591,-6.254639 -9.64504,3.341555 -16.33089,2.418116 -4.37122,-0.603746 -11.68931,-1.318886 -12.60133,0.279453 -1.28222,2.247138 5.14686,4.862868 12.11921,8.427105 z"
         id="path2634"
         sodipodi:nodetypes="sssss" /><path
         style="fill:#d7eef4;stroke:none;stroke-width:0.529168px;stroke-linecap:butt;stroke-linejoin:miter;stroke-opacity:1"
         d="m 137.77556,49.917641 c -1.83018,3.411116 4.98727,1.2847 15.88277,8.592025 3.71024,2.11428 9.61204,5.763625 12.13777,1.730689 2.57217,-4.107086 -10.52781,-13.411762 -14.05717,-11.368347 -7.78566,4.5077 -12.59793,-1.49928 -13.96337,1.045633 z"
         id="path2636"
         sodipodi:nodetypes="scsss" /><path
         style="fill:#d7eef4;stroke:none;stroke-width:0.529168px;stroke-linecap:butt;stroke-linejoin:miter;stroke-opacity:1"
         d="m 126.13183,62.566815 c -3.16832,4.967488 0.21541,8.159754 3.76071,10.296344 3.71024,2.11428 20.07933,13.704936 24.20781,7.996409 4.29986,-5.945512 -3.17059,-11.690433 -7.4077,-14.865154 -2.89331,-2.167859 -19.72173,-6.663726 -20.56082,-3.427599 z"
         id="path1760"
         sodipodi:nodetypes="ccssc" /><path
         style="fill:#ffd5d5;stroke:none;stroke-width:0.529168px;stroke-linecap:butt;stroke-linejoin:miter;stroke-opacity:1"
         d="m 126.24568,49.610397 c -1.73392,7.157469 6.29744,9.601384 10.05932,11.328395 5.06545,2.325458 15.08677,5.629929 17.7439,0.03513 1.13831,-2.396794 -14.08545,-6.807547 -18.1095,-10.171669 -5.8165,-4.86262 -8.9066,-4.441015 -9.69372,-1.191856 z"
         id="path1714"
         sodipodi:nodetypes="sssss" /><path
         style="fill:#ffd5d5;stroke:none;stroke-width:0.529168px;stroke-linecap:butt;stroke-linejoin:miter;stroke-opacity:1"
         d="m 137.8414,31.270497 c -2.43067,2.74218 -2.7412,5.554506 6.42749,11.89271 4.27131,2.952698 20.18043,9.217693 22.74969,2.095733 2.64007,-7.318251 -27.06771,-16.368246 -29.17718,-13.988443 z"
         id="path1710"
         sodipodi:nodetypes="ssss" /><path
         style="fill:#ffeeaa;stroke:none;stroke-width:0.529168px;stroke-linecap:butt;stroke-linejoin:miter;stroke-opacity:1"
         d="m 147.36807,48.549594 c 2.64947,-2.484154 -7.35,-6.605321 -11.86183,-10.36318 -5.5902,-4.656019 -17.0292,9.244924 -14.31425,12.422259 2.64276,3.09285 5.58739,-8.408728 13.13671,-4.630663 4.16496,2.172041 9.55534,5.838215 13.03937,2.571584 z"
         id="path1712"
         sodipodi:nodetypes="ssscs" /><g
         id="g947"
         transform="matrix(4,0,0,4,-703.25383,-994)"><path
           style="fill:none;stroke:#000000;stroke-width:0.5;stroke-dasharray:none"
           id="path935"
           d="m 216.51666,258 c 1.13621,5.3414 -1.36711,8.52148 -3.6865,8.8268 -2.56154,0.33718 -5.09756,-2.51835 -6.7058,-2.8268"
           sodipodi:nodetypes="csc" /><path
           style="fill:none;stroke:#0000ff;stroke-width:0.5;stroke-dasharray:none"
           id="path937"
           d="m 218.24871,261 c -11.31776,-9.83193 -9.94123,5.03968 -10.3923,6"
           sodipodi:nodetypes="cc" /><path
           style="fill:none;stroke:#00ff00;stroke-width:0.5;stroke-dasharray:none"
           id="path939"
           d="m 210.45448,256.5 c 0.39021,2.1 3.9355,2.70158 3.65424,4.69025 -0.37059,2.62024 -2.52577,3.25856 -3.65424,7.30975"
           sodipodi:nodetypes="csc" /><path
           style="fill:none;stroke:#ff0000;stroke-width:0.5;stroke-dasharray:none"
           id="path941"
           d="m 213.91858,256.5 c -1.15162,2.85482 -6.23333,6.99439 -2.52672,8.65789 1.4219,0.63814 2.46869,1.3143 2.52672,3.34211"
           sodipodi:nodetypes="csc" /><path
           style="fill:none;stroke:#9955ff;stroke-width:0.5;stroke-dasharray:none;stroke-opacity:1"
           id="path943"
           d="m 206.12436,261 c 2.45377,0.38543 8.59576,3.73565 10.3923,6"
           sodipodi:nodetypes="cc" /><path
           style="fill:none;stroke:#ffb380;stroke-width:0.5;stroke-dasharray:none"
           id="path945"
           d="m 207.85641,258 10.3923,6"
           sodipodi:nodetypes="cc" /><circle
           style="opacity:0.9;fill:#000000;stroke:none;stroke-width:0.5;stroke-linecap:round;stroke-dasharray:none;stroke-opacity:1"
           id="path3212-7"
           cx="212.18652"
           cy="255.5"
           r="0.63397455" /><circle
           style="opacity:0.9;fill:#000000;stroke:none;stroke-width:0.5;stroke-linecap:round;stroke-dasharray:none;stroke-opacity:1"
           id="circle3318-65"
           cx="206.12434"
           cy="259"
           r="0.63397455" /><circle
           style="opacity:0.9;fill:#000000;stroke:none;stroke-width:0.5;stroke-linecap:round;stroke-dasharray:none;stroke-opacity:1"
           id="circle3320-69"
           cx="206.12434"
           cy="266"
           r="0.63397455" /><circle
           style="opacity:0.9;fill:#000000;stroke:none;stroke-width:0.5;stroke-linecap:round;stroke-dasharray:none;stroke-opacity:1"
           id="circle3322-3"
           cx="212.18652"
           cy="269.5"
           r="0.63397455" /><circle
           style="opacity:0.9;fill:#000000;stroke:none;stroke-width:0.5;stroke-linecap:round;stroke-dasharray:none;stroke-opacity:1"
           id="circle3324-7"
           cx="218.2487"
           cy="266"
           r="0.63397455" /><circle
           style="opacity:0.9;fill:#000000;stroke:none;stroke-width:0.5;stroke-linecap:round;stroke-dasharray:none;stroke-opacity:1"
           id="circle3326-45"
           cx="218.2487"
           cy="259"
           r="0.63397455" /></g></g><text
       xml:space="preserve"
       style="font-size:9.87778px;line-height:1.25;font-family:sans-serif;letter-spacing:0px;word-spacing:0px;stroke-width:0.529167"
       x="175.63484"
       y="157.49132"
       id="text565"><tspan
         sodipodi:role="line"
         id="tspan563"
         style="font-size:9.87778px;stroke-width:0.529167"
         x="175.63484"
         y="157.49132">rclc,cr,cr,lcr,c,crcl</tspan></text><text
       xml:space="preserve"
       style="font-size:9.87778px;line-height:1.25;font-family:sans-serif;letter-spacing:0px;word-spacing:0px;stroke-width:0.529167"
       x="34.190029"
       y="157.49132"
       id="text21042"><tspan
         sodipodi:role="line"
         id="tspan21040"
         style="font-size:9.87778px;stroke-width:0.529167"
         x="34.190029"
         y="157.49132">rclc,ctc,ctc,crcl</tspan></text></g></svg>
