<?xml version="1.0" encoding="UTF-8" standalone="no"?>
<!-- Created with Inkscape (http://www.inkscape.org/) -->

<svg
   width="210mm"
   height="297mm"
   viewBox="0 0 420 594"
   version="1.1"
   id="svg5"
   inkscape:version="1.2.2 (732a01da63, 2022-12-09, custom)"
   sodipodi:docname="6-pair.svg"
   xml:space="preserve"
   xmlns:inkscape="http://www.inkscape.org/namespaces/inkscape"
   xmlns:sodipodi="http://sodipodi.sourceforge.net/DTD/sodipodi-0.dtd"
   xmlns="http://www.w3.org/2000/svg"
   xmlns:svg="http://www.w3.org/2000/svg"><sodipodi:namedview
     id="namedview7"
     pagecolor="#ffffff"
     bordercolor="#666666"
     borderopacity="1.0"
     inkscape:showpageshadow="2"
     inkscape:pageopacity="0.0"
     inkscape:pagecheckerboard="0"
     inkscape:deskcolor="#d1d1d1"
     inkscape:document-units="mm"
     showgrid="true"
     inkscape:zoom="5.2443793"
     inkscape:cx="351.23317"
     inkscape:cy="951.97156"
     inkscape:window-width="2560"
     inkscape:window-height="1380"
     inkscape:window-x="0"
     inkscape:window-y="36"
     inkscape:window-maximized="1"
     inkscape:current-layer="layer1"><inkscape:grid
       type="axonomgrid"
       id="grid2793"
       empspacing="7"
       spacingy="1" /></sodipodi:namedview><defs
     id="defs2" /><g
     inkscape:label="Layer 1"
     inkscape:groupmode="layer"
     id="layer1"><g
   id="g25750"><path
     style="fill:none;stroke:#000000;stroke-width:0.7;stroke-linecap:round;stroke-linejoin:miter;stroke-dasharray:none;stroke-opacity:1"
     d="M 12.124356,7 V 7"
     id="path3078"
     sodipodi:nodetypes="cc" /><path
     style="fill:none;stroke:#000000;stroke-width:0.7;stroke-linecap:round;stroke-linejoin:miter;stroke-dasharray:none;stroke-opacity:1"
     d="m 12.124356,14 v 0"
     id="path3636"
     sodipodi:nodetypes="cc" /><path
     style="fill:none;stroke:#000000;stroke-width:0.7;stroke-linecap:round;stroke-linejoin:miter;stroke-dasharray:none;stroke-opacity:1"
     d="m 18.186534,3.5 v 0"
     id="path3638"
     sodipodi:nodetypes="cc" /><path
     style="fill:none;stroke:#000000;stroke-width:0.7;stroke-linecap:round;stroke-linejoin:miter;stroke-dasharray:none;stroke-opacity:1"
     d="m 24.248711,14 v 0"
     id="path3640"
     sodipodi:nodetypes="cc" /><path
     style="fill:none;stroke:#000000;stroke-width:0.7;stroke-linecap:round;stroke-linejoin:miter;stroke-dasharray:none;stroke-opacity:1"
     d="M 24.248711,7 V 7"
     id="path3642"
     sodipodi:nodetypes="cc" /><path
     style="fill:none;stroke:#000000;stroke-width:0.7;stroke-linecap:round;stroke-linejoin:miter;stroke-dasharray:none;stroke-opacity:1"
     d="m 18.186534,17.5 v 0"
     id="path3644"
     sodipodi:nodetypes="cc" /></g>
<g id="12345">
<svg:text x="12.0" y="21" style="font-size:3.52777px;line-height:1.25;font-family:sans-serif;stroke-width:0.264583"><svg:tspan>12345 *+</svg:tspan></svg:text>
<path style="fill:none;stroke:#000000;stroke-width:0.3px" id="12345_1" d="M 12.124356,9 12.124356,12" />
<path style="fill:none;stroke:#0000FF;stroke-width:0.3px" id="12345_2" d="M 13.856407,6 13.856407,15" />
<path style="fill:none;stroke:#00FF00;stroke-width:0.3px" id="12345_3" d="M 16.454483,4.5 16.454483,16.5" />
<path style="fill:none;stroke:#FF0000;stroke-width:0.3px" id="12345_4" d="M 19.918584,4.5 19.918584,16.5" />
<path style="fill:none;stroke:#000000;stroke-width:0.3px" id="12345_5" d="M 22.516661,6 22.516661,15" />
</g>
<g id="12354">
<svg:text x="12.0" y="42" style="font-size:3.52777px;line-height:1.25;font-family:sans-serif;stroke-width:0.264583"><svg:tspan>12354 +</svg:tspan></svg:text>
<path style="fill:none;stroke:#000000;stroke-width:0.3px" id="12354_1" d="M 12.124356,30 12.124356,33" />
<path style="fill:none;stroke:#0000FF;stroke-width:0.3px" id="12354_2" d="M 13.856407,27 13.856407,36" />
<path style="fill:none;stroke:#00FF00;stroke-width:0.3px" id="12354_3" d="M 16.454483,25.5 16.454483,37.5" />
<path style="fill:none;stroke:#FF0000;stroke-width:0.3px" id="12354_5" d="M 22.516661,27 19.918584,37.5" />
<path style="fill:none;stroke:#000000;stroke-width:0.3px" id="12354_4" d="M 19.918584,25.5 22.516661,36" />
</g>
<g id="12435">
<svg:text x="12.0" y="63" style="font-size:3.52777px;line-height:1.25;font-family:sans-serif;stroke-width:0.264583"><svg:tspan>12435 +</svg:tspan></svg:text>
<path style="fill:none;stroke:#000000;stroke-width:0.3px" id="12435_1" d="M 12.124356,51 12.124356,54" />
<path style="fill:none;stroke:#0000FF;stroke-width:0.3px" id="12435_2" d="M 13.856407,48 13.856407,57" />
<path style="fill:none;stroke:#00FF00;stroke-width:0.3px" id="12435_4" d="M 19.918584,46.5 16.454483,58.5" />
<path style="fill:none;stroke:#FF0000;stroke-width:0.3px" id="12435_3" d="M 16.454483,46.5 19.918584,58.5" />
<path style="fill:none;stroke:#000000;stroke-width:0.3px" id="12435_5" d="M 22.516661,48 22.516661,57" />
</g>
<g id="12453">
<svg:text x="12.0" y="84" style="font-size:3.52777px;line-height:1.25;font-family:sans-serif;stroke-width:0.264583"><svg:tspan>12453 </svg:tspan></svg:text>
<path style="fill:none;stroke:#000000;stroke-width:0.3px" id="12453_1" d="M 12.124356,72 12.124356,75" />
<path style="fill:none;stroke:#0000FF;stroke-width:0.3px" id="12453_2" d="M 13.856407,69 13.856407,78" />
<path style="fill:none;stroke:#00FF00;stroke-width:0.3px" id="12453_4" d="M 19.918584,67.5 16.454483,79.5" />
<path style="fill:none;stroke:#FF0000;stroke-width:0.3px" id="12453_5" d="M 22.516661,69 19.918584,79.5" />
<path style="fill:none;stroke:#000000;stroke-width:0.3px" id="12453_3" d="M 16.454483,67.5 22.516661,78" />
</g>
<g id="12543">
<svg:text x="12.0" y="105" style="font-size:3.52777px;line-height:1.25;font-family:sans-serif;stroke-width:0.264583"><svg:tspan>12543 +</svg:tspan></svg:text>
<path style="fill:none;stroke:#000000;stroke-width:0.3px" id="12543_1" d="M 12.124356,93 12.124356,96" />
<path style="fill:none;stroke:#0000FF;stroke-width:0.3px" id="12543_2" d="M 13.856407,90 13.856407,99" />
<path style="fill:none;stroke:#00FF00;stroke-width:0.3px" id="12543_5" d="M 22.516661,90 16.454483,100.5" />
<path style="fill:none;stroke:#FF0000;stroke-width:0.3px" id="12543_4" d="M 19.918584,88.5 19.918584,100.5" />
<path style="fill:none;stroke:#000000;stroke-width:0.3px" id="12543_3" d="M 16.454483,88.5 22.516661,99" />
</g>
<g id="13254">
<svg:text x="12.0" y="126" style="font-size:3.52777px;line-height:1.25;font-family:sans-serif;stroke-width:0.264583"><svg:tspan>13254 +</svg:tspan></svg:text>
<path style="fill:none;stroke:#000000;stroke-width:0.3px" id="13254_1" d="M 12.124356,114 12.124356,117" />
<path style="fill:none;stroke:#0000FF;stroke-width:0.3px" id="13254_3" d="M 16.454483,109.5 13.856407,120" />
<path style="fill:none;stroke:#00FF00;stroke-width:0.3px" id="13254_2" d="M 13.856407,111 16.454483,121.5" />
<path style="fill:none;stroke:#FF0000;stroke-width:0.3px" id="13254_5" d="M 22.516661,111 19.918584,121.5" />
<path style="fill:none;stroke:#000000;stroke-width:0.3px" id="13254_4" d="M 19.918584,109.5 22.516661,120" />
</g>
<g id="13425">
<svg:text x="12.0" y="147" style="font-size:3.52777px;line-height:1.25;font-family:sans-serif;stroke-width:0.264583"><svg:tspan>13425 </svg:tspan></svg:text>
<path style="fill:none;stroke:#000000;stroke-width:0.3px" id="13425_1" d="M 12.124356,135 12.124356,138" />
<path style="fill:none;stroke:#0000FF;stroke-width:0.3px" id="13425_3" d="M 16.454483,130.5 13.856407,141" />
<path style="fill:none;stroke:#00FF00;stroke-width:0.3px" id="13425_4" d="M 19.918584,130.5 16.454483,142.5" />
<path style="fill:none;stroke:#FF0000;stroke-width:0.3px" id="13425_2" d="M 13.856407,132 19.918584,142.5" />
<path style="fill:none;stroke:#000000;stroke-width:0.3px" id="13425_5" d="M 22.516661,132 22.516661,141" />
</g>
<g id="13452">
<svg:text x="12.0" y="168" style="font-size:3.52777px;line-height:1.25;font-family:sans-serif;stroke-width:0.264583"><svg:tspan>13452 </svg:tspan></svg:text>
<path style="fill:none;stroke:#000000;stroke-width:0.3px" id="13452_1" d="M 12.124356,156 12.124356,159" />
<path style="fill:none;stroke:#0000FF;stroke-width:0.3px" id="13452_3" d="M 16.454483,151.5 13.856407,162" />
<path style="fill:none;stroke:#00FF00;stroke-width:0.3px" id="13452_4" d="M 19.918584,151.5 16.454483,163.5" />
<path style="fill:none;stroke:#FF0000;stroke-width:0.3px" id="13452_5" d="M 22.516661,153 19.918584,163.5" />
<path style="fill:none;stroke:#000000;stroke-width:0.3px" id="13452_2" d="M 13.856407,153 22.516661,162" />
</g>
<g id="13524">
<svg:text x="12.0" y="189" style="font-size:3.52777px;line-height:1.25;font-family:sans-serif;stroke-width:0.264583"><svg:tspan>13524 </svg:tspan></svg:text>
<path style="fill:none;stroke:#000000;stroke-width:0.3px" id="13524_1" d="M 12.124356,177 12.124356,180" />
<path style="fill:none;stroke:#0000FF;stroke-width:0.3px" id="13524_3" d="M 16.454483,172.5 13.856407,183" />
<path style="fill:none;stroke:#00FF00;stroke-width:0.3px" id="13524_5" d="M 22.516661,174 16.454483,184.5" />
<path style="fill:none;stroke:#FF0000;stroke-width:0.3px" id="13524_2" d="M 13.856407,174 19.918584,184.5" />
<path style="fill:none;stroke:#000000;stroke-width:0.3px" id="13524_4" d="M 19.918584,172.5 22.516661,183" />
</g>
<g id="13542">
<svg:text x="12.0" y="210" style="font-size:3.52777px;line-height:1.25;font-family:sans-serif;stroke-width:0.264583"><svg:tspan>13542 </svg:tspan></svg:text>
<path style="fill:none;stroke:#000000;stroke-width:0.3px" id="13542_1" d="M 12.124356,198 12.124356,201" />
<path style="fill:none;stroke:#0000FF;stroke-width:0.3px" id="13542_3" d="M 16.454483,193.5 13.856407,204" />
<path style="fill:none;stroke:#00FF00;stroke-width:0.3px" id="13542_5" d="M 22.516661,195 16.454483,205.5" />
<path style="fill:none;stroke:#FF0000;stroke-width:0.3px" id="13542_4" d="M 19.918584,193.5 19.918584,205.5" />
<path style="fill:none;stroke:#000000;stroke-width:0.3px" id="13542_2" d="M 13.856407,195 22.516661,204" />
</g>
<g id="14325">
<svg:text x="36.25" y="21" style="font-size:3.52777px;line-height:1.25;font-family:sans-serif;stroke-width:0.264583"><svg:tspan>14325 *+</svg:tspan></svg:text>
<path style="fill:none;stroke:#000000;stroke-width:0.3px" id="14325_1" d="M 36.374356,9 36.374356,12" />
<path style="fill:none;stroke:#0000FF;stroke-width:0.3px" id="14325_4" d="M 44.168583999999996,4.5 38.106407000000004,15" />
<path style="fill:none;stroke:#00FF00;stroke-width:0.3px" id="14325_3" d="M 40.704482999999996,4.5 40.704482999999996,16.5" />
<path style="fill:none;stroke:#FF0000;stroke-width:0.3px" id="14325_2" d="M 38.106407000000004,6 44.168583999999996,16.5" />
<path style="fill:none;stroke:#000000;stroke-width:0.3px" id="14325_5" d="M 46.766661,6 46.766661,15" />
</g>
<g id="14352">
<svg:text x="36.25" y="42" style="font-size:3.52777px;line-height:1.25;font-family:sans-serif;stroke-width:0.264583"><svg:tspan>14352 </svg:tspan></svg:text>
<path style="fill:none;stroke:#000000;stroke-width:0.3px" id="14352_1" d="M 36.374356,30 36.374356,33" />
<path style="fill:none;stroke:#0000FF;stroke-width:0.3px" id="14352_4" d="M 44.168583999999996,25.5 38.106407000000004,36" />
<path style="fill:none;stroke:#00FF00;stroke-width:0.3px" id="14352_3" d="M 40.704482999999996,25.5 40.704482999999996,37.5" />
<path style="fill:none;stroke:#FF0000;stroke-width:0.3px" id="14352_5" d="M 46.766661,27 44.168583999999996,37.5" />
<path style="fill:none;stroke:#000000;stroke-width:0.3px" id="14352_2" d="M 38.106407000000004,27 46.766661,36" />
</g>
<g id="14523">
<svg:text x="36.25" y="63" style="font-size:3.52777px;line-height:1.25;font-family:sans-serif;stroke-width:0.264583"><svg:tspan>14523 +</svg:tspan></svg:text>
<path style="fill:none;stroke:#000000;stroke-width:0.3px" id="14523_1" d="M 36.374356,51 36.374356,54" />
<path style="fill:none;stroke:#0000FF;stroke-width:0.3px" id="14523_4" d="M 44.168583999999996,46.5 38.106407000000004,57" />
<path style="fill:none;stroke:#00FF00;stroke-width:0.3px" id="14523_5" d="M 46.766661,48 40.704482999999996,58.5" />
<path style="fill:none;stroke:#FF0000;stroke-width:0.3px" id="14523_2" d="M 38.106407000000004,48 44.168583999999996,58.5" />
<path style="fill:none;stroke:#000000;stroke-width:0.3px" id="14523_3" d="M 40.704482999999996,46.5 46.766661,57" />
</g>
<g id="14532">
<svg:text x="36.25" y="84" style="font-size:3.52777px;line-height:1.25;font-family:sans-serif;stroke-width:0.264583"><svg:tspan>14532 </svg:tspan></svg:text>
<path style="fill:none;stroke:#000000;stroke-width:0.3px" id="14532_1" d="M 36.374356,72 36.374356,75" />
<path style="fill:none;stroke:#0000FF;stroke-width:0.3px" id="14532_4" d="M 44.168583999999996,67.5 38.106407000000004,78" />
<path style="fill:none;stroke:#00FF00;stroke-width:0.3px" id="14532_5" d="M 46.766661,69 40.704482999999996,79.5" />
<path style="fill:none;stroke:#FF0000;stroke-width:0.3px" id="14532_3" d="M 40.704482999999996,67.5 44.168583999999996,79.5" />
<path style="fill:none;stroke:#000000;stroke-width:0.3px" id="14532_2" d="M 38.106407000000004,69 46.766661,78" />
</g>
<g id="15342">
<svg:text x="36.25" y="105" style="font-size:3.52777px;line-height:1.25;font-family:sans-serif;stroke-width:0.264583"><svg:tspan>15342 +</svg:tspan></svg:text>
<path style="fill:none;stroke:#000000;stroke-width:0.3px" id="15342_1" d="M 36.374356,93 36.374356,96" />
<path style="fill:none;stroke:#0000FF;stroke-width:0.3px" id="15342_5" d="M 46.766661,90 38.106407000000004,99" />
<path style="fill:none;stroke:#00FF00;stroke-width:0.3px" id="15342_3" d="M 40.704482999999996,88.5 40.704482999999996,100.5" />
<path style="fill:none;stroke:#FF0000;stroke-width:0.3px" id="15342_4" d="M 44.168583999999996,88.5 44.168583999999996,100.5" />
<path style="fill:none;stroke:#000000;stroke-width:0.3px" id="15342_2" d="M 38.106407000000004,90 46.766661,99" />
</g>
<g id="15432">
<svg:text x="36.25" y="126" style="font-size:3.52777px;line-height:1.25;font-family:sans-serif;stroke-width:0.264583"><svg:tspan>15432 +</svg:tspan></svg:text>
<path style="fill:none;stroke:#000000;stroke-width:0.3px" id="15432_1" d="M 36.374356,114 36.374356,117" />
<path style="fill:none;stroke:#0000FF;stroke-width:0.3px" id="15432_5" d="M 46.766661,111 38.106407000000004,120" />
<path style="fill:none;stroke:#00FF00;stroke-width:0.3px" id="15432_4" d="M 44.168583999999996,109.5 40.704482999999996,121.5" />
<path style="fill:none;stroke:#FF0000;stroke-width:0.3px" id="15432_3" d="M 40.704482999999996,109.5 44.168583999999996,121.5" />
<path style="fill:none;stroke:#000000;stroke-width:0.3px" id="15432_2" d="M 38.106407000000004,111 46.766661,120" />
</g>
<g id="21354">
<svg:text x="36.25" y="147" style="font-size:3.52777px;line-height:1.25;font-family:sans-serif;stroke-width:0.264583"><svg:tspan>21354 *+</svg:tspan></svg:text>
<path style="fill:none;stroke:#000000;stroke-width:0.3px" id="21354_2" d="M 38.106407000000004,132 36.374356,138" />
<path style="fill:none;stroke:#0000FF;stroke-width:0.3px" id="21354_1" d="M 36.374356,135 38.106407000000004,141" />
<path style="fill:none;stroke:#00FF00;stroke-width:0.3px" id="21354_3" d="M 40.704482999999996,130.5 40.704482999999996,142.5" />
<path style="fill:none;stroke:#FF0000;stroke-width:0.3px" id="21354_5" d="M 46.766661,132 44.168583999999996,142.5" />
<path style="fill:none;stroke:#000000;stroke-width:0.3px" id="21354_4" d="M 44.168583999999996,130.5 46.766661,141" />
</g>
<g id="21453">
<svg:text x="36.25" y="168" style="font-size:3.52777px;line-height:1.25;font-family:sans-serif;stroke-width:0.264583"><svg:tspan>21453 </svg:tspan></svg:text>
<path style="fill:none;stroke:#000000;stroke-width:0.3px" id="21453_2" d="M 38.106407000000004,153 36.374356,159" />
<path style="fill:none;stroke:#0000FF;stroke-width:0.3px" id="21453_1" d="M 36.374356,156 38.106407000000004,162" />
<path style="fill:none;stroke:#00FF00;stroke-width:0.3px" id="21453_4" d="M 44.168583999999996,151.5 40.704482999999996,163.5" />
<path style="fill:none;stroke:#FF0000;stroke-width:0.3px" id="21453_5" d="M 46.766661,153 44.168583999999996,163.5" />
<path style="fill:none;stroke:#000000;stroke-width:0.3px" id="21453_3" d="M 40.704482999999996,151.5 46.766661,162" />
</g>
<g id="21543">
<svg:text x="36.25" y="189" style="font-size:3.52777px;line-height:1.25;font-family:sans-serif;stroke-width:0.264583"><svg:tspan>21543 +</svg:tspan></svg:text>
<path style="fill:none;stroke:#000000;stroke-width:0.3px" id="21543_2" d="M 38.106407000000004,174 36.374356,180" />
<path style="fill:none;stroke:#0000FF;stroke-width:0.3px" id="21543_1" d="M 36.374356,177 38.106407000000004,183" />
<path style="fill:none;stroke:#00FF00;stroke-width:0.3px" id="21543_5" d="M 46.766661,174 40.704482999999996,184.5" />
<path style="fill:none;stroke:#FF0000;stroke-width:0.3px" id="21543_4" d="M 44.168583999999996,172.5 44.168583999999996,184.5" />
<path style="fill:none;stroke:#000000;stroke-width:0.3px" id="21543_3" d="M 40.704482999999996,172.5 46.766661,183" />
</g>
<g id="23451">
<svg:text x="36.25" y="210" style="font-size:3.52777px;line-height:1.25;font-family:sans-serif;stroke-width:0.264583"><svg:tspan>23451 </svg:tspan></svg:text>
<path style="fill:none;stroke:#000000;stroke-width:0.3px" id="23451_2" d="M 38.106407000000004,195 36.374356,201" />
<path style="fill:none;stroke:#0000FF;stroke-width:0.3px" id="23451_3" d="M 40.704482999999996,193.5 38.106407000000004,204" />
<path style="fill:none;stroke:#00FF00;stroke-width:0.3px" id="23451_4" d="M 44.168583999999996,193.5 40.704482999999996,205.5" />
<path style="fill:none;stroke:#FF0000;stroke-width:0.3px" id="23451_5" d="M 46.766661,195 44.168583999999996,205.5" />
<path style="fill:none;stroke:#000000;stroke-width:0.3px" id="23451_1" d="M 36.374356,198 46.766661,204" />
</g>
<g id="23514">
<svg:text x="60.5" y="21" style="font-size:3.52777px;line-height:1.25;font-family:sans-serif;stroke-width:0.264583"><svg:tspan>23514 </svg:tspan></svg:text>
<path style="fill:none;stroke:#000000;stroke-width:0.3px" id="23514_2" d="M 62.356407000000004,6 60.624356,12" />
<path style="fill:none;stroke:#0000FF;stroke-width:0.3px" id="23514_3" d="M 64.954483,4.5 62.356407000000004,15" />
<path style="fill:none;stroke:#00FF00;stroke-width:0.3px" id="23514_5" d="M 71.016661,6 64.954483,16.5" />
<path style="fill:none;stroke:#FF0000;stroke-width:0.3px" id="23514_1" d="M 60.624356,9 68.418584,16.5" />
<path style="fill:none;stroke:#000000;stroke-width:0.3px" id="23514_4" d="M 68.418584,4.5 71.016661,15" />
</g>
<g id="23541">
<svg:text x="60.5" y="42" style="font-size:3.52777px;line-height:1.25;font-family:sans-serif;stroke-width:0.264583"><svg:tspan>23541 </svg:tspan></svg:text>
<path style="fill:none;stroke:#000000;stroke-width:0.3px" id="23541_2" d="M 62.356407000000004,27 60.624356,33" />
<path style="fill:none;stroke:#0000FF;stroke-width:0.3px" id="23541_3" d="M 64.954483,25.5 62.356407000000004,36" />
<path style="fill:none;stroke:#00FF00;stroke-width:0.3px" id="23541_5" d="M 71.016661,27 64.954483,37.5" />
<path style="fill:none;stroke:#FF0000;stroke-width:0.3px" id="23541_4" d="M 68.418584,25.5 68.418584,37.5" />
<path style="fill:none;stroke:#000000;stroke-width:0.3px" id="23541_1" d="M 60.624356,30 71.016661,36" />
</g>
<g id="24153">
<svg:text x="60.5" y="63" style="font-size:3.52777px;line-height:1.25;font-family:sans-serif;stroke-width:0.264583"><svg:tspan>24153 </svg:tspan></svg:text>
<path style="fill:none;stroke:#000000;stroke-width:0.3px" id="24153_2" d="M 62.356407000000004,48 60.624356,54" />
<path style="fill:none;stroke:#0000FF;stroke-width:0.3px" id="24153_4" d="M 68.418584,46.5 62.356407000000004,57" />
<path style="fill:none;stroke:#00FF00;stroke-width:0.3px" id="24153_1" d="M 60.624356,51 64.954483,58.5" />
<path style="fill:none;stroke:#FF0000;stroke-width:0.3px" id="24153_5" d="M 71.016661,48 68.418584,58.5" />
<path style="fill:none;stroke:#000000;stroke-width:0.3px" id="24153_3" d="M 64.954483,46.5 71.016661,57" />
</g>
<g id="24351">
<svg:text x="60.5" y="84" style="font-size:3.52777px;line-height:1.25;font-family:sans-serif;stroke-width:0.264583"><svg:tspan>24351 </svg:tspan></svg:text>
<path style="fill:none;stroke:#000000;stroke-width:0.3px" id="24351_2" d="M 62.356407000000004,69 60.624356,75" />
<path style="fill:none;stroke:#0000FF;stroke-width:0.3px" id="24351_4" d="M 68.418584,67.5 62.356407000000004,78" />
<path style="fill:none;stroke:#00FF00;stroke-width:0.3px" id="24351_3" d="M 64.954483,67.5 64.954483,79.5" />
<path style="fill:none;stroke:#FF0000;stroke-width:0.3px" id="24351_5" d="M 71.016661,69 68.418584,79.5" />
<path style="fill:none;stroke:#000000;stroke-width:0.3px" id="24351_1" d="M 60.624356,72 71.016661,78" />
</g>
<g id="24513">
<svg:text x="60.5" y="105" style="font-size:3.52777px;line-height:1.25;font-family:sans-serif;stroke-width:0.264583"><svg:tspan>24513 </svg:tspan></svg:text>
<path style="fill:none;stroke:#000000;stroke-width:0.3px" id="24513_2" d="M 62.356407000000004,90 60.624356,96" />
<path style="fill:none;stroke:#0000FF;stroke-width:0.3px" id="24513_4" d="M 68.418584,88.5 62.356407000000004,99" />
<path style="fill:none;stroke:#00FF00;stroke-width:0.3px" id="24513_5" d="M 71.016661,90 64.954483,100.5" />
<path style="fill:none;stroke:#FF0000;stroke-width:0.3px" id="24513_1" d="M 60.624356,93 68.418584,100.5" />
<path style="fill:none;stroke:#000000;stroke-width:0.3px" id="24513_3" d="M 64.954483,88.5 71.016661,99" />
</g>
<g id="24531">
<svg:text x="60.5" y="126" style="font-size:3.52777px;line-height:1.25;font-family:sans-serif;stroke-width:0.264583"><svg:tspan>24531 </svg:tspan></svg:text>
<path style="fill:none;stroke:#000000;stroke-width:0.3px" id="24531_2" d="M 62.356407000000004,111 60.624356,117" />
<path style="fill:none;stroke:#0000FF;stroke-width:0.3px" id="24531_4" d="M 68.418584,109.5 62.356407000000004,120" />
<path style="fill:none;stroke:#00FF00;stroke-width:0.3px" id="24531_5" d="M 71.016661,111 64.954483,121.5" />
<path style="fill:none;stroke:#FF0000;stroke-width:0.3px" id="24531_3" d="M 64.954483,109.5 68.418584,121.5" />
<path style="fill:none;stroke:#000000;stroke-width:0.3px" id="24531_1" d="M 60.624356,114 71.016661,120" />
</g>
<g id="25143">
<svg:text x="60.5" y="147" style="font-size:3.52777px;line-height:1.25;font-family:sans-serif;stroke-width:0.264583"><svg:tspan>25143 </svg:tspan></svg:text>
<path style="fill:none;stroke:#000000;stroke-width:0.3px" id="25143_2" d="M 62.356407000000004,132 60.624356,138" />
<path style="fill:none;stroke:#0000FF;stroke-width:0.3px" id="25143_5" d="M 71.016661,132 62.356407000000004,141" />
<path style="fill:none;stroke:#00FF00;stroke-width:0.3px" id="25143_1" d="M 60.624356,135 64.954483,142.5" />
<path style="fill:none;stroke:#FF0000;stroke-width:0.3px" id="25143_4" d="M 68.418584,130.5 68.418584,142.5" />
<path style="fill:none;stroke:#000000;stroke-width:0.3px" id="25143_3" d="M 64.954483,130.5 71.016661,141" />
</g>
<g id="25314">
<svg:text x="60.5" y="168" style="font-size:3.52777px;line-height:1.25;font-family:sans-serif;stroke-width:0.264583"><svg:tspan>25314 *</svg:tspan></svg:text>
<path style="fill:none;stroke:#000000;stroke-width:0.3px" id="25314_2" d="M 62.356407000000004,153 60.624356,159" />
<path style="fill:none;stroke:#0000FF;stroke-width:0.3px" id="25314_5" d="M 71.016661,153 62.356407000000004,162" />
<path style="fill:none;stroke:#00FF00;stroke-width:0.3px" id="25314_3" d="M 64.954483,151.5 64.954483,163.5" />
<path style="fill:none;stroke:#FF0000;stroke-width:0.3px" id="25314_1" d="M 60.624356,156 68.418584,163.5" />
<path style="fill:none;stroke:#000000;stroke-width:0.3px" id="25314_4" d="M 68.418584,151.5 71.016661,162" />
</g>
<g id="25341">
<svg:text x="60.5" y="189" style="font-size:3.52777px;line-height:1.25;font-family:sans-serif;stroke-width:0.264583"><svg:tspan>25341 </svg:tspan></svg:text>
<path style="fill:none;stroke:#000000;stroke-width:0.3px" id="25341_2" d="M 62.356407000000004,174 60.624356,180" />
<path style="fill:none;stroke:#0000FF;stroke-width:0.3px" id="25341_5" d="M 71.016661,174 62.356407000000004,183" />
<path style="fill:none;stroke:#00FF00;stroke-width:0.3px" id="25341_3" d="M 64.954483,172.5 64.954483,184.5" />
<path style="fill:none;stroke:#FF0000;stroke-width:0.3px" id="25341_4" d="M 68.418584,172.5 68.418584,184.5" />
<path style="fill:none;stroke:#000000;stroke-width:0.3px" id="25341_1" d="M 60.624356,177 71.016661,183" />
</g>
<g id="25413">
<svg:text x="60.5" y="210" style="font-size:3.52777px;line-height:1.25;font-family:sans-serif;stroke-width:0.264583"><svg:tspan>25413 </svg:tspan></svg:text>
<path style="fill:none;stroke:#000000;stroke-width:0.3px" id="25413_2" d="M 62.356407000000004,195 60.624356,201" />
<path style="fill:none;stroke:#0000FF;stroke-width:0.3px" id="25413_5" d="M 71.016661,195 62.356407000000004,204" />
<path style="fill:none;stroke:#00FF00;stroke-width:0.3px" id="25413_4" d="M 68.418584,193.5 64.954483,205.5" />
<path style="fill:none;stroke:#FF0000;stroke-width:0.3px" id="25413_1" d="M 60.624356,198 68.418584,205.5" />
<path style="fill:none;stroke:#000000;stroke-width:0.3px" id="25413_3" d="M 64.954483,193.5 71.016661,204" />
</g>
<g id="25431">
<svg:text x="84.75" y="21" style="font-size:3.52777px;line-height:1.25;font-family:sans-serif;stroke-width:0.264583"><svg:tspan>25431 </svg:tspan></svg:text>
<path style="fill:none;stroke:#000000;stroke-width:0.3px" id="25431_2" d="M 86.606407,6 84.874356,12" />
<path style="fill:none;stroke:#0000FF;stroke-width:0.3px" id="25431_5" d="M 95.266661,6 86.606407,15" />
<path style="fill:none;stroke:#00FF00;stroke-width:0.3px" id="25431_4" d="M 92.668584,4.5 89.204483,16.5" />
<path style="fill:none;stroke:#FF0000;stroke-width:0.3px" id="25431_3" d="M 89.204483,4.5 92.668584,16.5" />
<path style="fill:none;stroke:#000000;stroke-width:0.3px" id="25431_1" d="M 84.874356,9 95.266661,15" />
</g>
<g id="32541">
<svg:text x="84.75" y="42" style="font-size:3.52777px;line-height:1.25;font-family:sans-serif;stroke-width:0.264583"><svg:tspan>32541 </svg:tspan></svg:text>
<path style="fill:none;stroke:#000000;stroke-width:0.3px" id="32541_3" d="M 89.204483,25.5 84.874356,33" />
<path style="fill:none;stroke:#0000FF;stroke-width:0.3px" id="32541_2" d="M 86.606407,27 86.606407,36" />
<path style="fill:none;stroke:#00FF00;stroke-width:0.3px" id="32541_5" d="M 95.266661,27 89.204483,37.5" />
<path style="fill:none;stroke:#FF0000;stroke-width:0.3px" id="32541_4" d="M 92.668584,25.5 92.668584,37.5" />
<path style="fill:none;stroke:#000000;stroke-width:0.3px" id="32541_1" d="M 84.874356,30 95.266661,36" />
</g>
<g id="34512">
<svg:text x="84.75" y="63" style="font-size:3.52777px;line-height:1.25;font-family:sans-serif;stroke-width:0.264583"><svg:tspan>34512 </svg:tspan></svg:text>
<path style="fill:none;stroke:#000000;stroke-width:0.3px" id="34512_3" d="M 89.204483,46.5 84.874356,54" />
<path style="fill:none;stroke:#0000FF;stroke-width:0.3px" id="34512_4" d="M 92.668584,46.5 86.606407,57" />
<path style="fill:none;stroke:#00FF00;stroke-width:0.3px" id="34512_5" d="M 95.266661,48 89.204483,58.5" />
<path style="fill:none;stroke:#FF0000;stroke-width:0.3px" id="34512_1" d="M 84.874356,51 92.668584,58.5" />
<path style="fill:none;stroke:#000000;stroke-width:0.3px" id="34512_2" d="M 86.606407,48 95.266661,57" />
</g>
<g id="34521">
<svg:text x="84.75" y="84" style="font-size:3.52777px;line-height:1.25;font-family:sans-serif;stroke-width:0.264583"><svg:tspan>34521 </svg:tspan></svg:text>
<path style="fill:none;stroke:#000000;stroke-width:0.3px" id="34521_3" d="M 89.204483,67.5 84.874356,75" />
<path style="fill:none;stroke:#0000FF;stroke-width:0.3px" id="34521_4" d="M 92.668584,67.5 86.606407,78" />
<path style="fill:none;stroke:#00FF00;stroke-width:0.3px" id="34521_5" d="M 95.266661,69 89.204483,79.5" />
<path style="fill:none;stroke:#FF0000;stroke-width:0.3px" id="34521_2" d="M 86.606407,69 92.668584,79.5" />
<path style="fill:none;stroke:#000000;stroke-width:0.3px" id="34521_1" d="M 84.874356,72 95.266661,78" />
</g>
<g id="35142">
<svg:text x="84.75" y="105" style="font-size:3.52777px;line-height:1.25;font-family:sans-serif;stroke-width:0.264583"><svg:tspan>35142 +</svg:tspan></svg:text>
<path style="fill:none;stroke:#000000;stroke-width:0.3px" id="35142_3" d="M 89.204483,88.5 84.874356,96" />
<path style="fill:none;stroke:#0000FF;stroke-width:0.3px" id="35142_5" d="M 95.266661,90 86.606407,99" />
<path style="fill:none;stroke:#00FF00;stroke-width:0.3px" id="35142_1" d="M 84.874356,93 89.204483,100.5" />
<path style="fill:none;stroke:#FF0000;stroke-width:0.3px" id="35142_4" d="M 92.668584,88.5 92.668584,100.5" />
<path style="fill:none;stroke:#000000;stroke-width:0.3px" id="35142_2" d="M 86.606407,90 95.266661,99" />
</g>
<g id="35241">
<svg:text x="84.75" y="126" style="font-size:3.52777px;line-height:1.25;font-family:sans-serif;stroke-width:0.264583"><svg:tspan>35241 </svg:tspan></svg:text>
<path style="fill:none;stroke:#000000;stroke-width:0.3px" id="35241_3" d="M 89.204483,109.5 84.874356,117" />
<path style="fill:none;stroke:#0000FF;stroke-width:0.3px" id="35241_5" d="M 95.266661,111 86.606407,120" />
<path style="fill:none;stroke:#00FF00;stroke-width:0.3px" id="35241_2" d="M 86.606407,111 89.204483,121.5" />
<path style="fill:none;stroke:#FF0000;stroke-width:0.3px" id="35241_4" d="M 92.668584,109.5 92.668584,121.5" />
<path style="fill:none;stroke:#000000;stroke-width:0.3px" id="35241_1" d="M 84.874356,114 95.266661,120" />
</g>
<g id="35412">
<svg:text x="84.75" y="147" style="font-size:3.52777px;line-height:1.25;font-family:sans-serif;stroke-width:0.264583"><svg:tspan>35412 </svg:tspan></svg:text>
<path style="fill:none;stroke:#000000;stroke-width:0.3px" id="35412_3" d="M 89.204483,130.5 84.874356,138" />
<path style="fill:none;stroke:#0000FF;stroke-width:0.3px" id="35412_5" d="M 95.266661,132 86.606407,141" />
<path style="fill:none;stroke:#00FF00;stroke-width:0.3px" id="35412_4" d="M 92.668584,130.5 89.204483,142.5" />
<path style="fill:none;stroke:#FF0000;stroke-width:0.3px" id="35412_1" d="M 84.874356,135 92.668584,142.5" />
<path style="fill:none;stroke:#000000;stroke-width:0.3px" id="35412_2" d="M 86.606407,132 95.266661,141" />
</g>
<g id="35421">
<svg:text x="84.75" y="168" style="font-size:3.52777px;line-height:1.25;font-family:sans-serif;stroke-width:0.264583"><svg:tspan>35421 </svg:tspan></svg:text>
<path style="fill:none;stroke:#000000;stroke-width:0.3px" id="35421_3" d="M 89.204483,151.5 84.874356,159" />
<path style="fill:none;stroke:#0000FF;stroke-width:0.3px" id="35421_5" d="M 95.266661,153 86.606407,162" />
<path style="fill:none;stroke:#00FF00;stroke-width:0.3px" id="35421_4" d="M 92.668584,151.5 89.204483,163.5" />
<path style="fill:none;stroke:#FF0000;stroke-width:0.3px" id="35421_2" d="M 86.606407,153 92.668584,163.5" />
<path style="fill:none;stroke:#000000;stroke-width:0.3px" id="35421_1" d="M 84.874356,156 95.266661,162" />
</g>
<g id="45231">
<svg:text x="84.75" y="189" style="font-size:3.52777px;line-height:1.25;font-family:sans-serif;stroke-width:0.264583"><svg:tspan>45231 </svg:tspan></svg:text>
<path style="fill:none;stroke:#000000;stroke-width:0.3px" id="45231_4" d="M 92.668584,172.5 84.874356,180" />
<path style="fill:none;stroke:#0000FF;stroke-width:0.3px" id="45231_5" d="M 95.266661,174 86.606407,183" />
<path style="fill:none;stroke:#00FF00;stroke-width:0.3px" id="45231_2" d="M 86.606407,174 89.204483,184.5" />
<path style="fill:none;stroke:#FF0000;stroke-width:0.3px" id="45231_3" d="M 89.204483,172.5 92.668584,184.5" />
<path style="fill:none;stroke:#000000;stroke-width:0.3px" id="45231_1" d="M 84.874356,177 95.266661,183" />
</g>
<g id="45312">
<svg:text x="84.75" y="210" style="font-size:3.52777px;line-height:1.25;font-family:sans-serif;stroke-width:0.264583"><svg:tspan>45312 *+</svg:tspan></svg:text>
<path style="fill:none;stroke:#000000;stroke-width:0.3px" id="45312_4" d="M 92.668584,193.5 84.874356,201" />
<path style="fill:none;stroke:#0000FF;stroke-width:0.3px" id="45312_5" d="M 95.266661,195 86.606407,204" />
<path style="fill:none;stroke:#00FF00;stroke-width:0.3px" id="45312_3" d="M 89.204483,193.5 89.204483,205.5" />
<path style="fill:none;stroke:#FF0000;stroke-width:0.3px" id="45312_1" d="M 84.874356,198 92.668584,205.5" />
<path style="fill:none;stroke:#000000;stroke-width:0.3px" id="45312_2" d="M 86.606407,195 95.266661,204" />
</g>
<g id="45321">
<svg:text x="109.0" y="21" style="font-size:3.52777px;line-height:1.25;font-family:sans-serif;stroke-width:0.264583"><svg:tspan>45321 </svg:tspan></svg:text>
<path style="fill:none;stroke:#000000;stroke-width:0.3px" id="45321_4" d="M 116.918584,4.5 109.124356,12" />
<path style="fill:none;stroke:#0000FF;stroke-width:0.3px" id="45321_5" d="M 119.516661,6 110.856407,15" />
<path style="fill:none;stroke:#00FF00;stroke-width:0.3px" id="45321_3" d="M 113.454483,4.5 113.454483,16.5" />
<path style="fill:none;stroke:#FF0000;stroke-width:0.3px" id="45321_2" d="M 110.856407,6 116.918584,16.5" />
<path style="fill:none;stroke:#000000;stroke-width:0.3px" id="45321_1" d="M 109.124356,9 119.516661,15" />
</g>
<g id="52341">
<svg:text x="109.0" y="42" style="font-size:3.52777px;line-height:1.25;font-family:sans-serif;stroke-width:0.264583"><svg:tspan>52341 *+</svg:tspan></svg:text>
<path style="fill:none;stroke:#000000;stroke-width:0.3px" id="52341_5" d="M 119.516661,27 109.124356,33" />
<path style="fill:none;stroke:#0000FF;stroke-width:0.3px" id="52341_2" d="M 110.856407,27 110.856407,36" />
<path style="fill:none;stroke:#00FF00;stroke-width:0.3px" id="52341_3" d="M 113.454483,25.5 113.454483,37.5" />
<path style="fill:none;stroke:#FF0000;stroke-width:0.3px" id="52341_4" d="M 116.918584,25.5 116.918584,37.5" />
<path style="fill:none;stroke:#000000;stroke-width:0.3px" id="52341_1" d="M 109.124356,30 119.516661,36" />
</g>
<g id="52431">
<svg:text x="109.0" y="63" style="font-size:3.52777px;line-height:1.25;font-family:sans-serif;stroke-width:0.264583"><svg:tspan>52431 +</svg:tspan></svg:text>
<path style="fill:none;stroke:#000000;stroke-width:0.3px" id="52431_5" d="M 119.516661,48 109.124356,54" />
<path style="fill:none;stroke:#0000FF;stroke-width:0.3px" id="52431_2" d="M 110.856407,48 110.856407,57" />
<path style="fill:none;stroke:#00FF00;stroke-width:0.3px" id="52431_4" d="M 116.918584,46.5 113.454483,58.5" />
<path style="fill:none;stroke:#FF0000;stroke-width:0.3px" id="52431_3" d="M 113.454483,46.5 116.918584,58.5" />
<path style="fill:none;stroke:#000000;stroke-width:0.3px" id="52431_1" d="M 109.124356,51 119.516661,57" />
</g>
<g id="53421">
<svg:text x="109.0" y="84" style="font-size:3.52777px;line-height:1.25;font-family:sans-serif;stroke-width:0.264583"><svg:tspan>53421 </svg:tspan></svg:text>
<path style="fill:none;stroke:#000000;stroke-width:0.3px" id="53421_5" d="M 119.516661,69 109.124356,75" />
<path style="fill:none;stroke:#0000FF;stroke-width:0.3px" id="53421_3" d="M 113.454483,67.5 110.856407,78" />
<path style="fill:none;stroke:#00FF00;stroke-width:0.3px" id="53421_4" d="M 116.918584,67.5 113.454483,79.5" />
<path style="fill:none;stroke:#FF0000;stroke-width:0.3px" id="53421_2" d="M 110.856407,69 116.918584,79.5" />
<path style="fill:none;stroke:#000000;stroke-width:0.3px" id="53421_1" d="M 109.124356,72 119.516661,78" />
</g>
<g id="54321">
<svg:text x="109.0" y="105" style="font-size:3.52777px;line-height:1.25;font-family:sans-serif;stroke-width:0.264583"><svg:tspan>54321 *+</svg:tspan></svg:text>
<path style="fill:none;stroke:#000000;stroke-width:0.3px" id="54321_5" d="M 119.516661,90 109.124356,96" />
<path style="fill:none;stroke:#0000FF;stroke-width:0.3px" id="54321_4" d="M 116.918584,88.5 110.856407,99" />
<path style="fill:none;stroke:#00FF00;stroke-width:0.3px" id="54321_3" d="M 113.454483,88.5 113.454483,100.5" />
<path style="fill:none;stroke:#FF0000;stroke-width:0.3px" id="54321_2" d="M 110.856407,90 116.918584,100.5" />
<path style="fill:none;stroke:#000000;stroke-width:0.3px" id="54321_1" d="M 109.124356,93 119.516661,99" />
</g>
  </g></svg>
