<?xml version="1.0" standalone="no"?>
<!DOCTYPE svg PUBLIC "-//W3C//DTD SVG 20010904//EN"
 "http://www.w3.org/TR/2001/REC-SVG-20010904/DTD/svg10.dtd">
<svg version="1.0" xmlns="http://www.w3.org/2000/svg"
 width="260.000000pt" height="260.000000pt" viewBox="0 0 260.000000 260.000000"
 preserveAspectRatio="xMidYMid meet">
<metadata>
Created by potrace 1.11, written by Peter Selinger 2001-2013
</metadata>
<g transform="translate(0.000000,260.000000) scale(0.100000,-0.100000)"
fill="#000000" stroke="none">
<path d="M119 2582 c6 -12 16 -24 22 -28 8 -4 8 -1 0 14 -6 12 -16 24 -22 28
-8 4 -8 1 0 -14z"/>
<path d="M200 2590 c8 -5 20 -10 25 -10 6 0 3 5 -5 10 -8 5 -19 10 -25 10 -5
0 -3 -5 5 -10z"/>
<path d="M248 2570 c-3 -19 -9 -44 -12 -55 -4 -11 1 -5 9 14 9 18 15 43 13 55
-3 15 -5 11 -10 -14z"/>
<path d="M480 2540 c-17 -33 -28 -60 -25 -60 2 0 18 27 35 60 17 33 28 60 25
60 -2 0 -18 -27 -35 -60z"/>
<path d="M901 2584 c0 -11 3 -14 6 -6 3 7 2 16 -1 19 -3 4 -6 -2 -5 -13z"/>
<path d="M1013 2550 c11 -27 23 -48 25 -46 4 5 -35 96 -42 96 -2 0 5 -22 17
-50z"/>
<path d="M1241 2598 c-1 -11 70 -172 81 -183 12 -13 -1 20 -45 115 -20 41 -36
72 -36 68z"/>
<path d="M1347 2572 c-26 -13 -46 -26 -44 -29 6 -5 96 37 103 48 8 13 -6 9
-59 -19z"/>
<path d="M1721 2595 c0 -5 8 -26 19 -45 11 -19 19 -30 19 -25 0 6 -8 26 -19
45 -11 19 -19 31 -19 25z"/>
<path d="M1792 2555 c-30 -62 -27 -71 4 -12 14 27 24 51 22 53 -3 2 -14 -17
-26 -41z"/>
<path d="M2016 2587 c3 -10 9 -15 12 -12 3 3 0 11 -7 18 -10 9 -11 8 -5 -6z"/>
<path d="M2056 2585 c-3 -9 -6 -22 -5 -28 0 -7 5 -1 10 12 5 13 8 26 5 28 -2
2 -6 -3 -10 -12z"/>
<path d="M2135 2570 c-4 -17 -5 -34 -2 -36 3 -3 8 9 12 26 4 17 5 34 2 36 -3
3 -8 -9 -12 -26z"/>
<path d="M2380 2559 c-12 -22 -20 -45 -18 -50 2 -6 13 12 25 40 26 61 21 67
-7 10z"/>
<path d="M2430 2596 c0 -10 70 -146 75 -146 3 0 -11 33 -31 73 -38 74 -44 85
-44 73z"/>
<path d="M171 2573 c-1 -6 -4 -20 -7 -30 -5 -17 -5 -17 6 0 6 10 9 23 6 30 -3
9 -5 9 -5 0z"/>
<path d="M531 2575 c0 -5 33 -75 74 -155 41 -80 74 -140 74 -135 0 6 -33 75
-74 155 -41 80 -74 141 -74 135z"/>
<path d="M1042 2575 c4 -4 40 -13 80 -21 40 -7 84 -16 98 -19 17 -4 20 -3 10
4 -8 4 -46 14 -85 21 -38 6 -79 14 -90 17 -11 3 -17 2 -13 -2z"/>
<path d="M925 2551 c-37 -17 -149 -121 -131 -121 5 0 27 21 49 47 24 26 63 56
92 69 27 13 46 23 40 23 -5 0 -28 -8 -50 -18z"/>
<path d="M2160 2556 c0 -5 10 -25 22 -45 13 -20 26 -61 29 -91 l6 -55 1 50 c1
39 -5 61 -28 100 -16 28 -30 46 -30 41z"/>
<path d="M1355 2475 c-10 -42 -15 -78 -13 -80 3 -3 12 30 21 72 9 42 15 78 13
81 -2 2 -12 -31 -21 -73z"/>
<path d="M2050 2487 l5 -52 3 44 c2 24 0 47 -5 52 -4 4 -6 -15 -3 -44z"/>
<path d="M270 2528 c0 -4 9 -22 20 -40 12 -19 20 -51 20 -75 0 -23 4 -44 8
-47 17 -10 -5 102 -26 135 -12 19 -22 31 -22 27z"/>
<path d="M1070 2488 c-20 -24 -42 -52 -50 -63 -14 -20 -14 -20 6 -2 21 17 21
17 28 -37 3 -31 1 -67 -4 -82 -6 -15 -9 -29 -6 -31 2 -2 9 11 15 30 8 24 9 52
2 93 l-9 59 36 38 c20 20 32 37 26 37 -5 0 -25 -19 -44 -42z"/>
<path d="M2089 2511 c26 -20 94 -45 86 -31 -3 5 -18 11 -34 15 -16 3 -35 13
-42 21 -6 8 -17 14 -23 14 -6 0 0 -9 13 -19z"/>
<path d="M163 2475 c0 -27 2 -38 4 -22 2 15 2 37 0 50 -2 12 -4 0 -4 -28z"/>
<path d="M189 2497 c14 -18 79 -42 88 -33 4 3 0 6 -8 6 -8 0 -32 10 -54 21
-28 15 -36 17 -26 6z"/>
<path d="M891 2461 c-1 -30 7 -58 26 -92 14 -27 28 -47 31 -45 2 3 -6 22 -19
43 -13 21 -27 61 -30 88 l-6 50 -2 -44z"/>
<path d="M1750 2422 c-7 -37 -15 -74 -17 -82 -4 -13 -3 -13 5 -1 12 16 37 140
30 146 -2 3 -10 -26 -18 -63z"/>
<path d="M1794 2437 c17 -42 45 -94 46 -86 0 11 -49 119 -55 119 -3 0 1 -15 9
-33z"/>
<path d="M2072 2438 c-12 -18 -32 -44 -46 -57 -14 -14 -26 -29 -26 -35 0 -5
17 10 38 34 50 58 65 80 59 86 -3 3 -14 -10 -25 -28z"/>
<path d="M2273 2463 c15 -2 37 -2 50 0 12 2 0 4 -28 4 -27 0 -38 -2 -22 -4z"/>
<path d="M2375 2461 c31 -9 102 -14 94 -7 -2 2 -31 6 -64 9 -39 4 -50 3 -30
-2z"/>
<path d="M420 2451 c41 -5 95 -11 120 -14 38 -6 41 -5 15 3 -16 6 -70 12 -120
14 l-90 5 75 -8z"/>
<path d="M156 2388 l-48 -63 42 45 c39 41 66 80 57 80 -2 0 -25 -28 -51 -62z"/>
<path d="M2267 2397 c-31 -36 -58 -58 -86 -67 -23 -7 -41 -17 -41 -21 0 -4 18
0 40 9 40 17 149 117 138 127 -3 3 -26 -19 -51 -48z"/>
<path d="M2510 2436 c0 -10 70 -146 75 -146 3 0 -11 33 -31 73 -38 74 -44 85
-44 73z"/>
<path d="M2540 2436 c0 -2 13 -6 29 -8 17 -2 28 -1 25 4 -5 8 -54 12 -54 4z"/>
<path d="M370 2384 c-25 -26 -64 -55 -88 -66 -24 -11 -41 -22 -39 -25 12 -11
105 50 140 92 49 58 43 58 -13 -1z"/>
<path d="M655 2420 c17 -6 73 -12 125 -15 l95 -4 -80 8 c-44 5 -100 11 -125
14 -38 6 -41 5 -15 -3z"/>
<path d="M945 2390 c11 -5 27 -9 35 -9 9 0 8 4 -5 9 -11 5 -27 9 -35 9 -9 0
-8 -4 5 -9z"/>
<path d="M721 2319 c-29 -60 -78 -241 -61 -222 4 4 15 40 23 80 9 40 30 100
47 134 17 33 29 63 26 67 -3 3 -19 -24 -35 -59z"/>
<path d="M1012 2364 c10 -10 20 -15 24 -12 3 4 -5 12 -18 18 -22 12 -22 12 -6
-6z"/>
<path d="M1302 2315 c-17 -36 -30 -65 -27 -65 7 0 67 121 63 126 -2 2 -18 -26
-36 -61z"/>
<path d="M2070 2377 c0 -12 81 -192 91 -202 5 -5 -11 37 -36 95 -45 101 -55
120 -55 107z"/>
<path d="M180 2363 c0 -14 71 -176 82 -188 5 -5 2 8 -7 30 -10 22 -28 67 -42
100 -26 63 -33 75 -33 58z"/>
<path d="M970 2324 c-11 -29 -11 -66 1 -109 5 -21 6 -13 3 25 -3 30 -1 67 5
83 6 15 8 27 6 27 -3 0 -10 -12 -15 -26z"/>
<path d="M1369 2313 c10 -21 26 -56 35 -77 9 -22 19 -37 22 -34 6 6 -63 148
-71 148 -3 0 3 -17 14 -37z"/>
<path d="M1841 2335 c0 -5 8 -26 19 -45 11 -19 19 -30 19 -25 0 6 -8 26 -19
45 -11 19 -19 31 -19 25z"/>
<path d="M1895 2330 c17 -4 41 -8 55 -8 22 0 22 1 -5 8 -16 4 -41 8 -55 8 -22
0 -22 -1 5 -8z"/>
<path d="M20 2320 c14 -4 36 -8 50 -8 22 0 22 1 -5 8 -16 4 -39 8 -50 8 -16 0
-15 -2 5 -8z"/>
<path d="M1755 2316 c-16 -8 -55 -40 -85 -72 l-55 -59 58 55 c31 30 76 62 100
72 23 9 35 17 27 17 -8 0 -28 -6 -45 -13z"/>
<path d="M2000 2310 c25 -8 87 -13 79 -6 -2 2 -26 6 -54 9 -34 4 -42 3 -25 -3z"/>
<path d="M115 2300 c19 -8 73 -14 64 -6 -2 2 -22 6 -44 9 -28 5 -34 4 -20 -3z"/>
<path d="M2205 2298 c-3 -7 -11 -46 -20 -86 -8 -39 -29 -99 -46 -133 -16 -34
-28 -63 -26 -66 10 -10 69 137 86 214 16 74 19 105 6 71z"/>
<path d="M307 2283 c-3 -10 -11 -45 -18 -78 -7 -33 -25 -86 -41 -117 -38 -78
-35 -88 4 -13 27 53 73 213 63 223 -2 2 -6 -5 -8 -15z"/>
<path d="M1080 2296 c0 -2 11 -24 25 -47 14 -24 25 -39 25 -32 0 12 -39 83
-46 83 -2 0 -4 -2 -4 -4z"/>
<path d="M1912 2256 c-22 -24 -45 -54 -51 -67 -11 -24 -11 -24 6 1 10 14 35
44 57 68 21 23 36 42 34 42 -3 0 -24 -20 -46 -44z"/>
<path d="M32 2251 c-43 -54 -40 -60 4 -11 20 22 35 43 32 45 -3 3 -19 -13 -36
-34z"/>
<path d="M990 2276 c0 -3 11 -13 24 -21 30 -20 89 -37 81 -24 -4 5 -13 9 -22
9 -9 0 -31 9 -49 21 -19 11 -34 18 -34 15z"/>
<path d="M1732 2222 c-2 -41 4 -64 24 -98 15 -25 29 -43 31 -40 3 3 -5 20 -18
38 -16 22 -26 53 -30 93 l-6 60 -1 -53z"/>
<path d="M2581 2179 c-7 -38 -11 -72 -9 -75 3 -2 10 28 17 67 7 38 11 72 9 75
-3 2 -10 -28 -17 -67z"/>
<path d="M1223 2223 c9 -2 23 -2 30 0 6 3 -1 5 -18 5 -16 0 -22 -2 -12 -5z"/>
<path d="M727 2160 c15 -33 28 -58 30 -56 5 4 -44 116 -51 116 -2 0 7 -27 21
-60z"/>
<path d="M975 2173 c-61 -71 -72 -94 -20 -39 40 43 72 86 62 86 -1 0 -21 -21
-42 -47z"/>
<path d="M1305 2209 c22 -4 54 -8 70 -7 22 0 19 3 -15 9 -60 10 -108 9 -55 -2z"/>
<path d="M1133 2160 c0 -25 2 -35 4 -22 2 12 2 32 0 45 -2 12 -4 2 -4 -23z"/>
<path d="M1185 2149 c-28 -28 -69 -59 -92 -70 -54 -23 -57 -33 -4 -12 31 12
168 133 150 133 -2 0 -27 -23 -54 -51z"/>
<path d="M1460 2190 c0 -10 190 -33 220 -28 15 3 5 6 -25 7 -27 1 -83 8 -122
15 -40 7 -73 10 -73 6z"/>
<path d="M1893 2150 c0 -30 2 -43 4 -27 2 15 2 39 0 55 -2 15 -4 2 -4 -28z"/>
<path d="M13 2145 c0 -27 2 -38 4 -22 2 15 2 37 0 50 -2 12 -4 0 -4 -28z"/>
<path d="M1430 2184 c0 -11 74 -144 78 -140 4 5 -66 146 -73 146 -3 0 -5 -3
-5 -6z"/>
<path d="M1804 2144 c21 -8 45 -19 53 -25 7 -7 16 -9 19 -7 7 7 -78 48 -97 47
-8 0 4 -7 25 -15z"/>
<path d="M1551 2081 c-17 -34 -38 -94 -46 -133 -9 -40 -18 -82 -21 -93 -4 -15
-3 -17 5 -6 5 8 15 44 22 80 6 36 27 97 46 135 19 37 32 70 29 73 -2 3 -19
-22 -35 -56z"/>
<path d="M990 2123 c0 -15 82 -205 87 -200 2 2 -17 51 -42 108 -24 57 -45 99
-45 92z"/>
<path d="M2191 2112 c-1 -14 146 -312 154 -312 3 0 -26 62 -63 138 -37 75 -73
148 -79 162 -7 14 -12 19 -12 12z"/>
<path d="M290 2106 c0 -11 139 -296 145 -296 3 0 -1 12 -9 28 -32 62 -116 245
-116 253 0 4 -4 11 -10 14 -5 3 -10 4 -10 1z"/>
<path d="M1806 2088 c-3 -13 -5 -48 -4 -78 1 -52 1 -51 8 20 8 79 7 96 -4 58z"/>
<path d="M796 2090 c5 -4 29 -11 54 -14 53 -7 44 -1 -19 13 -24 5 -39 6 -35 1z"/>
<path d="M6 2075 c-3 -9 -6 -22 -5 -28 0 -7 5 -1 10 12 5 13 8 26 5 28 -2 2
-6 -3 -10 -12z"/>
<path d="M685 2075 c-16 -8 -23 -14 -15 -14 8 0 26 6 40 14 32 18 15 18 -25 0z"/>
<path d="M760 2088 c0 -11 30 -78 35 -78 3 0 -2 17 -10 37 -15 36 -25 52 -25
41z"/>
<path d="M1886 2064 c-4 -14 -5 -28 -3 -31 3 -2 8 8 11 23 4 14 5 28 3 31 -3
2 -8 -8 -11 -23z"/>
<path d="M2515 2018 l-60 -63 55 51 c30 28 64 56 75 62 14 8 16 11 5 12 -9 0
-42 -28 -75 -62z"/>
<path d="M51 2034 c13 -21 27 -61 30 -89 l6 -50 2 43 c1 43 -27 113 -51 128
-6 4 -1 -10 13 -32z"/>
<path d="M925 2060 c17 -4 39 -8 50 -8 16 0 15 2 -5 8 -14 4 -36 8 -50 8 -22
0 -22 -1 5 -8z"/>
<path d="M1931 2033 c13 -21 26 -63 29 -93 l7 -55 2 49 c1 37 -6 60 -24 93
-14 23 -28 43 -31 43 -3 0 4 -17 17 -37z"/>
<path d="M595 2010 c-27 -27 -47 -52 -44 -55 3 -2 27 18 54 45 27 27 47 52 44
55 -3 2 -27 -18 -54 -45z"/>
<path d="M1105 1983 c-10 -43 -29 -100 -42 -126 -30 -60 -44 -97 -37 -97 21 0
115 282 100 297 -2 3 -12 -31 -21 -74z"/>
<path d="M828 2012 c-19 -20 -42 -51 -52 -67 l-18 -30 26 30 c43 48 88 105 83
105 -2 0 -19 -17 -39 -38z"/>
<path d="M1845 2022 c11 -12 36 -24 55 -27 l35 -6 -38 14 c-20 8 -45 21 -55
28 -12 9 -11 6 3 -9z"/>
<path d="M652 1979 c-2 -44 4 -67 23 -100 28 -49 34 -46 8 4 -10 18 -20 59
-24 92 l-6 60 -1 -56z"/>
<path d="M2561 1987 c-1 -45 24 -116 36 -103 3 3 0 13 -8 22 -8 10 -17 42 -20
73 l-6 56 -2 -48z"/>
<path d="M5 2010 c7 -11 45 -20 45 -10 0 4 -11 10 -25 12 -13 3 -22 2 -20 -2z"/>
<path d="M190 1981 c47 -5 99 -11 115 -15 29 -6 29 -6 5 5 -14 6 -65 13 -115
14 l-90 4 85 -8z"/>
<path d="M2066 1981 c163 -19 181 -21 144 -11 -19 5 -75 11 -125 14 -86 5 -87
5 -19 -3z"/>
<path d="M1557 1920 c15 -33 28 -58 31 -56 5 5 -44 116 -52 116 -2 0 7 -27 21
-60z"/>
<path d="M1840 1971 c0 -5 -20 -31 -45 -59 -25 -27 -45 -54 -45 -58 0 -5 16 9
35 31 55 63 77 95 66 95 -6 0 -11 -4 -11 -9z"/>
<path d="M136 1921 c-27 -27 -65 -54 -87 -61 -21 -7 -37 -15 -35 -18 13 -13
79 25 126 73 30 30 52 55 49 55 -2 0 -26 -22 -53 -49z"/>
<path d="M406 1950 c12 -5 43 -11 70 -14 48 -5 47 -5 -11 9 -67 16 -91 18 -59
5z"/>
<path d="M2021 1906 c-31 -31 -69 -59 -92 -66 -21 -7 -39 -17 -39 -21 0 -20
86 32 137 84 32 31 55 57 52 57 -2 0 -29 -24 -58 -54z"/>
<path d="M2315 1949 c17 -5 75 -12 130 -14 l100 -4 -90 8 c-49 5 -108 11 -130
15 -37 5 -38 5 -10 -5z"/>
<path d="M801 1934 c0 -11 3 -14 6 -6 3 7 2 16 -1 19 -3 4 -6 -2 -5 -13z"/>
<path d="M541 1929 c13 -8 88 -14 78 -5 -2 2 -24 6 -48 9 -29 4 -40 2 -30 -4z"/>
<path d="M695 1910 c11 -5 27 -9 35 -9 9 0 8 4 -5 9 -11 5 -27 9 -35 9 -9 0
-8 -4 5 -9z"/>
<path d="M809 1870 c-4 -25 -10 -54 -13 -65 -3 -11 1 -5 9 14 9 18 15 48 13
65 -3 27 -4 25 -9 -14z"/>
<path d="M472 1832 c-30 -63 -68 -199 -59 -209 3 -2 13 31 22 74 10 43 31 104
47 137 16 32 28 60 26 62 -3 2 -19 -27 -36 -64z"/>
<path d="M762 1884 c10 -10 20 -16 22 -13 3 3 -5 11 -17 18 -21 13 -21 12 -5
-5z"/>
<path d="M2382 1832 c-30 -63 -69 -208 -59 -218 2 -2 12 33 22 78 10 46 31
109 47 142 16 32 28 60 26 62 -3 2 -19 -27 -36 -64z"/>
<path d="M1835 1853 c15 -36 25 -52 25 -41 0 11 -30 78 -35 78 -3 0 2 -17 10
-37z"/>
<path d="M726 1855 c-3 -9 -6 -22 -5 -28 0 -7 5 -1 10 12 5 13 8 26 5 28 -2 2
-6 -3 -10 -12z"/>
<path d="M1100 1867 c0 -11 150 -307 155 -307 4 0 -142 300 -151 309 -2 2 -4
1 -4 -2z"/>
<path d="M1518 1832 c-43 -19 -148 -108 -148 -124 0 -6 29 17 64 50 35 34 71
62 78 62 8 0 23 7 34 15 24 18 18 18 -28 -3z"/>
<path d="M1590 1843 c1 -11 39 -80 40 -72 0 11 -30 79 -35 79 -3 0 -5 -3 -5
-7z"/>
<path d="M1645 1840 c17 -4 41 -8 55 -8 22 0 22 1 -5 8 -16 4 -41 8 -55 8 -22
0 -22 -1 5 -8z"/>
<path d="M61 1780 c-7 -36 -23 -89 -37 -119 -13 -29 -24 -58 -23 -65 0 -6 11
14 25 44 27 58 57 175 51 193 -2 6 -9 -18 -16 -53z"/>
<path d="M1755 1820 c17 -4 41 -8 55 -8 22 0 22 1 -5 8 -16 4 -41 8 -55 8 -22
0 -22 -1 5 -8z"/>
<path d="M830 1816 c0 -10 43 -77 47 -73 2 3 -6 21 -18 41 -19 33 -29 43 -29
32z"/>
<path d="M1951 1784 c-5 -22 -14 -58 -20 -80 -6 -23 -25 -71 -41 -107 -39 -86
-38 -99 2 -22 28 55 82 234 73 243 -2 2 -8 -13 -14 -34z"/>
<path d="M717 1765 c3 -27 7 -52 9 -54 8 -9 2 65 -6 84 -6 13 -7 2 -3 -30z"/>
<path d="M1651 1754 c-28 -30 -51 -60 -51 -66 0 -6 10 2 22 18 12 16 37 46 57
67 19 20 32 37 29 37 -3 0 -29 -25 -57 -56z"/>
<path d="M740 1796 c0 -3 11 -13 24 -21 30 -20 89 -37 81 -24 -4 5 -13 9 -22
9 -9 0 -31 9 -49 21 -19 11 -34 18 -34 15z"/>
<path d="M1860 1799 c0 -4 11 -31 24 -60 14 -30 25 -47 25 -39 0 14 -48 112
-49 99z"/>
<path d="M6 1770 c3 -14 11 -32 16 -40 6 -10 7 -7 2 10 -3 14 -11 32 -16 40
-6 10 -7 7 -2 -10z"/>
<path d="M1482 1730 c-2 -43 4 -64 23 -95 13 -22 25 -35 25 -30 0 6 -8 22 -17
35 -10 14 -21 52 -24 85 l-6 60 -1 -55z"/>
<path d="M463 1738 c3 -7 22 -55 42 -106 21 -51 40 -91 42 -88 5 5 -77 206
-84 206 -3 0 -3 -6 0 -12z"/>
<path d="M2374 1734 c11 -38 86 -199 86 -187 0 7 -18 54 -41 105 -40 91 -58
124 -45 82z"/>
<path d="M712 1680 c-29 -33 -50 -60 -45 -60 8 0 81 82 97 108 14 23 1 11 -52
-48z"/>
<path d="M1002 1731 c54 -5 110 -12 125 -15 23 -5 25 -4 10 4 -9 6 -66 13
-125 15 l-107 4 97 -8z"/>
<path d="M883 1680 c0 -25 2 -35 4 -22 2 12 2 32 0 45 -2 12 -4 2 -4 -23z"/>
<path d="M935 1670 c-27 -28 -69 -57 -92 -66 -51 -20 -52 -30 -1 -12 35 13
156 113 147 123 -3 2 -27 -18 -54 -45z"/>
<path d="M1235 1700 c17 -6 73 -13 125 -15 l95 -4 -85 8 c-47 5 -103 11 -125
15 -37 5 -38 5 -10 -4z"/>
<path d="M1642 1655 c-1 -33 -5 -71 -7 -85 l-6 -25 11 25 c6 13 9 51 7 85 l-3
60 -2 -60z"/>
<path d="M1515 1669 c4 -5 14 -9 23 -9 9 0 32 -9 50 -20 37 -23 44 -18 8 5
-30 20 -89 37 -81 24z"/>
<path d="M117 1518 c36 -79 70 -147 75 -153 5 -5 -1 15 -15 45 -14 30 -44 99
-68 152 -24 54 -47 98 -51 98 -4 0 23 -64 59 -142z"/>
<path d="M1297 1594 c-31 -63 -73 -211 -63 -221 2 -3 12 31 21 74 10 43 32
107 51 142 18 36 32 67 29 69 -2 2 -19 -27 -38 -64z"/>
<path d="M746 1630 c3 -14 11 -32 16 -40 6 -10 7 -7 2 10 -3 14 -11 32 -16 40
-6 10 -7 7 -2 -10z"/>
<path d="M2587 1643 c-4 -3 -7 -11 -7 -17 0 -6 5 -5 12 2 6 6 9 14 7 17 -3 3
-9 2 -12 -2z"/>
<path d="M1941 1626 c-1 -14 141 -297 146 -292 2 2 -30 71 -71 152 -41 82 -75
145 -75 140z"/>
<path d="M435 1605 c-25 -12 -26 -14 -5 -9 28 7 60 23 45 23 -5 0 -23 -6 -40
-14z"/>
<path d="M555 1616 c26 -12 87 -24 79 -16 -5 4 -27 11 -49 14 -22 3 -35 4 -30
2z"/>
<path d="M1556 1605 c-3 -9 -6 -22 -5 -28 0 -7 5 -1 10 12 5 13 8 26 5 28 -2
2 -6 -3 -10 -12z"/>
<path d="M2350 1599 c-44 -20 -140 -104 -140 -123 0 -5 29 19 64 52 35 34 71
62 78 62 13 0 60 29 48 29 -3 1 -25 -9 -50 -20z"/>
<path d="M2515 1604 c33 -7 67 -13 75 -12 23 1 -82 26 -110 26 -14 0 2 -6 35
-14z"/>
<path d="M650 1596 c3 -2 25 -9 49 -15 24 -5 39 -6 35 -1 -10 8 -92 25 -84 16z"/>
<path d="M350 1545 c-24 -25 -42 -45 -39 -45 3 0 25 20 49 45 24 25 42 45 39
45 -3 0 -25 -20 -49 -45z"/>
<path d="M562 1523 c-28 -31 -49 -59 -47 -62 3 -2 6 -2 8 0 1 2 24 28 51 56
28 29 47 55 44 58 -3 3 -28 -20 -56 -52z"/>
<path d="M861 1544 c-5 -22 -12 -57 -15 -79 -3 -22 3 -6 14 35 11 41 17 76 15
78 -2 2 -8 -13 -14 -34z"/>
<path d="M1681 1543 c13 -21 26 -63 29 -93 l7 -55 2 49 c1 37 -6 60 -24 93
-14 23 -28 43 -31 43 -3 0 4 -17 17 -37z"/>
<path d="M2492 1536 c-22 -24 -45 -54 -51 -67 -12 -23 -11 -23 4 -4 34 44 49
61 73 88 14 15 23 27 20 27 -3 0 -24 -20 -46 -44z"/>
<path d="M770 1569 c0 -12 52 -120 57 -116 2 3 -9 31 -26 63 -16 33 -30 56
-31 53z"/>
<path d="M403 1515 c0 -27 2 -38 4 -22 2 15 2 37 0 50 -2 12 -4 0 -4 -28z"/>
<path d="M1553 1515 c0 -27 2 -38 4 -22 2 15 2 37 0 50 -2 12 -4 0 -4 -28z"/>
<path d="M1595 1531 c17 -11 44 -22 60 -25 23 -5 21 -3 -10 9 -22 9 -44 20
-49 25 -6 6 -15 10 -20 10 -6 0 3 -9 19 -19z"/>
<path d="M2311 1506 c-1 -37 6 -60 24 -93 14 -23 28 -43 31 -43 3 0 -4 17 -17
38 -13 20 -26 62 -29 92 l-7 55 -2 -49z"/>
<path d="M5 1536 c26 -12 87 -24 79 -16 -5 4 -27 11 -49 14 -22 3 -36 4 -30 2z"/>
<path d="M160 1502 c25 -15 134 -34 165 -29 25 3 24 4 -10 6 -22 0 -56 5 -75
10 -66 17 -96 22 -80 13z"/>
<path d="M1280 1496 c0 -10 50 -116 55 -116 3 0 -2 17 -11 38 -9 20 -20 47
-25 60 -7 19 -19 30 -19 18z"/>
<path d="M1741 1496 c2 -2 58 -6 124 -8 75 -4 101 -3 70 2 -51 8 -202 13 -194
6z"/>
<path d="M1540 1428 c-37 -44 -42 -53 -16 -28 35 32 82 90 74 90 -2 0 -28 -28
-58 -62z"/>
<path d="M1771 1426 c-31 -31 -69 -59 -92 -66 -22 -8 -42 -17 -45 -21 -3 -5
16 -1 41 8 28 11 67 39 102 75 32 32 55 58 52 58 -2 0 -29 -24 -58 -54z"/>
<path d="M2474 1436 c2 -27 0 -62 -5 -79 -5 -17 -7 -33 -4 -35 11 -11 22 78
15 118 l-9 45 3 -49z"/>
<path d="M562 1428 c-1 -26 -6 -58 -12 -73 -6 -16 -6 -24 0 -20 13 8 22 64 17
106 -3 29 -4 27 -5 -13z"/>
<path d="M2090 1459 c60 -10 108 -9 55 2 -22 4 -53 8 -70 7 -22 0 -19 -3 15
-9z"/>
<path d="M410 1456 c0 -10 40 -76 46 -76 3 0 -2 12 -10 28 -22 40 -36 58 -36
48z"/>
<path d="M470 1440 c24 -12 51 -26 60 -33 13 -11 13 -10 0 7 -14 18 -34 28
-80 40 -14 3 -5 -3 20 -14z"/>
<path d="M2213 1453 c15 -2 39 -2 55 0 15 2 2 4 -28 4 -30 0 -43 -2 -27 -4z"/>
<path d="M232 1392 c-29 -55 -69 -189 -58 -199 2 -2 12 29 21 69 9 40 30 97
46 127 17 29 28 55 26 57 -2 2 -18 -22 -35 -54z"/>
<path d="M2355 1439 c4 -5 13 -9 21 -9 8 0 28 -7 44 -15 17 -9 30 -13 30 -11
0 8 -38 27 -72 36 -17 5 -26 5 -23 -1z"/>
<path d="M800 1360 c-17 -33 -28 -60 -25 -60 2 0 18 27 35 60 17 33 28 60 25
60 -2 0 -18 -27 -35 -60z"/>
<path d="M2136 1367 c-29 -51 -66 -173 -65 -212 0 -11 9 16 20 60 11 44 33
106 50 138 39 73 34 84 -5 14z"/>
<path d="M475 1390 c-4 -12 -5 -24 -2 -27 3 -2 8 5 12 17 4 12 5 24 2 27 -3 2
-8 -5 -12 -17z"/>
<path d="M1570 1402 c0 -16 81 -194 86 -189 2 2 -16 48 -41 103 -25 54 -45 93
-45 86z"/>
<path d="M851 1395 c0 -5 33 -75 74 -155 41 -80 74 -140 74 -135 0 6 -33 75
-74 155 -41 80 -74 141 -74 135z"/>
<path d="M2390 1374 c-6 -14 -9 -49 -9 -77 l2 -52 7 65 c3 36 10 71 14 78 4 7
5 12 1 12 -3 0 -10 -12 -15 -26z"/>
<path d="M1254 1354 c-23 -8 -61 -36 -90 -66 l-49 -52 53 45 c64 52 67 55 112
73 45 19 27 19 -26 0z"/>
<path d="M1340 1361 c0 -13 28 -71 35 -71 4 0 -24 71 -31 79 -2 2 -4 -1 -4 -8z"/>
<path d="M1450 1349 c47 -10 94 -18 105 -18 11 1 -18 9 -65 20 -47 10 -94 18
-105 18 -11 -1 18 -9 65 -20z"/>
<path d="M580 1356 c0 -10 43 -77 47 -73 2 3 -6 21 -18 41 -19 33 -29 43 -29
32z"/>
<path d="M470 1302 l5 -47 3 39 c2 21 0 42 -5 47 -4 4 -6 -13 -3 -39z"/>
<path d="M2500 1343 c0 -5 9 -19 20 -33 12 -16 20 -43 22 -75 l2 -50 3 46 c3
34 -2 56 -17 83 -21 35 -30 44 -30 29z"/>
<path d="M490 1336 c0 -3 11 -13 24 -21 30 -20 89 -37 81 -24 -4 5 -13 9 -22
9 -9 0 -31 9 -49 21 -19 11 -34 18 -34 15z"/>
<path d="M1687 1268 c-10 -39 -16 -73 -13 -75 2 -2 11 28 21 67 10 39 15 73
13 75 -2 3 -12 -27 -21 -67z"/>
<path d="M1404 1288 c-43 -47 -69 -78 -62 -78 2 0 27 27 56 60 61 69 65 80 6
18z"/>
<path d="M2425 1313 c11 -12 38 -24 60 -27 l40 -6 -43 14 c-23 8 -50 20 -60
27 -11 8 -10 5 3 -8z"/>
<path d="M220 1304 c0 -15 42 -116 46 -111 2 2 -7 30 -21 63 -13 32 -24 54
-25 48z"/>
<path d="M1221 1262 c-1 -40 5 -61 24 -92 14 -22 28 -40 31 -40 3 0 -5 17 -18
38 -13 21 -26 61 -29 92 l-6 55 -2 -53z"/>
<path d="M468 1230 c-53 -55 -66 -81 -17 -34 28 27 75 84 67 84 -2 0 -24 -23
-50 -50z"/>
<path d="M735 1271 c44 -5 98 -11 120 -15 37 -5 37 -5 10 4 -16 6 -70 12 -120
15 l-90 4 80 -8z"/>
<path d="M633 1230 c0 -25 2 -35 4 -22 2 12 2 32 0 45 -2 12 -4 2 -4 -23z"/>
<path d="M2120 1266 c0 -13 83 -197 87 -192 3 3 -74 186 -83 195 -2 2 -4 1 -4
-3z"/>
<path d="M2376 1207 c-41 -52 -42 -56 -10 -22 59 61 78 85 68 84 -5 0 -31 -28
-58 -62z"/>
<path d="M681 1209 c-30 -26 -73 -55 -95 -63 -23 -8 -34 -15 -26 -15 27 -1 87
33 135 77 27 23 46 44 44 46 -2 2 -28 -18 -58 -45z"/>
<path d="M1025 1225 c39 -7 93 -13 120 -13 48 1 48 1 -15 8 -182 21 -181 20
-105 5z"/>
<path d="M1381 1193 c-1 -23 3 -44 7 -47 4 -2 6 12 4 32 -5 56 -10 62 -11 15z"/>
<path d="M2569 1184 c-13 -14 -41 -33 -62 -41 -21 -9 -36 -17 -34 -20 3 -2 25
5 50 17 45 21 85 56 75 65 -2 3 -15 -7 -29 -21z"/>
<path d="M491 1190 c0 -8 6 -26 15 -40 l15 -25 -7 25 c-3 14 -10 32 -15 40 -7
13 -8 13 -8 0z"/>
<path d="M1294 1184 c21 -8 45 -19 53 -25 7 -7 16 -9 19 -6 8 8 -71 47 -93 46
-10 0 0 -7 21 -15z"/>
<path d="M1042 1133 c-28 -54 -63 -164 -61 -194 0 -8 10 22 23 66 12 45 34
102 50 129 15 26 26 50 23 52 -2 2 -18 -22 -35 -53z"/>
<path d="M2402 1180 c21 -56 83 -181 85 -173 4 10 -70 170 -83 182 -4 3 -5 -1
-2 -9z"/>
<path d="M185 1170 c-25 -11 1 -11 35 0 20 6 21 8 5 8 -11 0 -29 -3 -40 -8z"/>
<path d="M276 1160 c3 -14 11 -32 16 -40 6 -10 7 -7 2 10 -3 14 -11 32 -16 40
-6 10 -7 7 -2 -10z"/>
<path d="M315 1172 c31 -14 83 -24 65 -13 -8 5 -31 11 -50 15 -24 4 -28 3 -15
-2z"/>
<path d="M1631 1118 c-19 -34 -29 -58 -22 -54 13 8 64 106 59 112 -2 2 -19
-24 -37 -58z"/>
<path d="M110 1119 c-25 -22 -36 -36 -25 -30 19 9 84 71 74 71 -2 0 -24 -19
-49 -41z"/>
<path d="M1680 1156 c0 -10 139 -269 152 -281 11 -11 -130 265 -144 280 -4 5
-8 6 -8 1z"/>
<path d="M440 1136 c25 -7 47 -11 49 -9 8 6 -5 11 -49 17 l-45 5 45 -13z"/>
<path d="M1296 1128 c-3 -13 -5 -45 -4 -73 1 -46 1 -44 8 20 8 74 7 91 -4 53z"/>
<path d="M2215 1142 c24 -11 185 -35 191 -29 3 3 -32 10 -78 16 -46 7 -94 14
-108 17 -21 4 -22 3 -5 -4z"/>
<path d="M2094 1127 c-32 -12 -156 -117 -138 -117 5 0 32 23 59 50 27 28 54
50 60 50 14 1 73 28 60 28 -5 0 -24 -5 -41 -11z"/>
<path d="M161 1087 c-1 -43 28 -127 44 -127 3 0 -2 15 -12 33 -9 17 -20 57
-24 87 l-6 55 -2 -48z"/>
<path d="M335 1102 c-16 -15 -39 -38 -50 -52 -11 -14 4 -2 33 25 47 46 57 56
50 55 -2 -1 -16 -13 -33 -28z"/>
<path d="M611 1093 c-6 -22 -13 -55 -16 -74 -3 -18 4 -3 14 36 11 38 18 71 16
73 -2 2 -8 -14 -14 -35z"/>
<path d="M1381 1123 c-1 -6 -4 -20 -7 -30 -5 -17 -5 -17 6 0 6 10 9 23 6 30
-3 9 -5 9 -5 0z"/>
<path d="M520 1117 c0 -11 49 -107 55 -107 5 0 -35 93 -46 105 -5 5 -9 6 -9 2z"/>
<path d="M2520 1059 c-7 -34 -28 -93 -47 -132 -18 -38 -32 -71 -30 -73 2 -2
20 31 39 73 35 75 65 179 56 189 -3 2 -11 -23 -18 -57z"/>
<path d="M1410 1105 c0 -6 8 -22 17 -35 10 -14 21 -47 24 -75 l6 -50 1 45 c1
32 -6 57 -23 85 -14 22 -25 35 -25 30z"/>
<path d="M2244 1068 c-43 -47 -69 -78 -62 -78 2 0 27 27 56 60 61 69 65 80 6
18z"/>
<path d="M1320 1075 c0 -2 10 -10 23 -16 20 -11 21 -11 8 4 -13 16 -31 23 -31
12z"/>
<path d="M2062 1033 c-1 -37 4 -62 19 -88 12 -20 24 -34 26 -31 3 3 -4 18 -15
34 -13 18 -22 49 -25 83 l-3 54 -2 -52z"/>
<path d="M15 1061 c11 -5 43 -11 70 -14 31 -4 40 -3 25 2 -36 11 -119 22 -95
12z"/>
<path d="M313 1005 c0 -27 2 -38 4 -22 2 15 2 37 0 50 -2 12 -4 0 -4 -28z"/>
<path d="M1371 1046 c2 -2 18 -6 34 -10 22 -5 26 -4 15 4 -14 9 -59 15 -49 6z"/>
<path d="M1036 1020 c7 -29 43 -100 43 -85 0 6 -11 33 -25 60 -13 28 -21 39
-18 25z"/>
<path d="M1496 1032 c-2 -4 12 -6 32 -4 62 6 69 10 20 11 -26 0 -49 -3 -52 -7z"/>
<path d="M10 1009 c-7 -11 -10 -23 -7 -25 2 -2 9 7 15 21 14 30 7 33 -8 4z"/>
<path d="M210 1016 c28 -17 50 -21 35 -7 -6 5 -21 12 -35 15 l-25 7 25 -15z"/>
<path d="M1285 970 l-49 -55 54 52 c30 29 52 54 50 56 -3 1 -27 -22 -55 -53z"/>
<path d="M1601 1026 c2 -2 33 -6 69 -9 41 -3 54 -2 35 3 -31 8 -112 13 -104 6z"/>
<path d="M1512 966 c-26 -24 -66 -52 -90 -61 -24 -10 -41 -20 -38 -22 10 -10
94 38 141 80 28 26 46 46 42 47 -4 0 -29 -20 -55 -44z"/>
<path d="M1815 1000 c17 -6 73 -12 125 -15 l95 -4 -80 8 c-44 5 -100 11 -125
14 -38 6 -41 5 -15 -3z"/>
<path d="M2223 965 c0 -27 2 -38 4 -22 2 15 2 37 0 50 -2 12 -4 0 -4 -28z"/>
<path d="M260 996 c0 -2 7 -9 15 -16 9 -7 15 -8 15 -2 0 5 -7 12 -15 16 -8 3
-15 4 -15 2z"/>
<path d="M568 958 c-23 -35 -52 -94 -40 -83 13 14 65 105 59 105 -3 0 -11 -10
-19 -22z"/>
<path d="M2120 966 c19 -6 46 -18 60 -25 23 -13 24 -13 11 2 -7 9 -30 21 -50
27 -49 13 -65 11 -21 -4z"/>
<path d="M226 955 c-3 -9 -5 -38 -5 -63 2 -46 2 -46 9 13 7 64 6 76 -4 50z"/>
<path d="M600 957 c0 -17 140 -280 146 -275 2 2 -30 67 -71 144 -41 76 -75
135 -75 131z"/>
<path d="M1898 938 c-23 -35 -52 -94 -40 -83 13 14 65 105 59 105 -3 0 -11
-10 -19 -22z"/>
<path d="M306 935 c-9 -26 -7 -32 5 -12 6 10 9 21 6 23 -2 3 -7 -2 -11 -11z"/>
<path d="M1311 948 c-1 -15 79 -181 85 -176 3 3 -15 46 -40 94 -25 49 -45 86
-45 82z"/>
<path d="M2520 946 c0 -12 72 -147 77 -143 2 3 -14 38 -36 78 -23 41 -41 70
-41 65z"/>
<path d="M338 914 c6 -11 18 -28 27 -39 15 -19 15 -18 1 12 -9 17 -21 35 -27
39 -8 4 -8 1 -1 -12z"/>
<path d="M2132 901 c-6 -17 -9 -31 -6 -31 7 0 25 52 20 57 -2 2 -8 -10 -14
-26z"/>
<path d="M1000 909 c-19 -6 -60 -33 -90 -61 -42 -38 -45 -42 -10 -14 42 34 66
48 130 74 31 13 17 13 -30 1z"/>
<path d="M1080 917 c0 -11 30 -67 35 -67 6 0 -16 52 -27 65 -4 5 -8 6 -8 2z"/>
<path d="M1111 916 c2 -2 42 -11 89 -21 47 -9 94 -19 105 -22 11 -3 17 -2 13
2 -4 4 -47 16 -95 26 -88 18 -120 23 -112 15z"/>
<path d="M259 897 c14 -18 79 -42 88 -33 4 3 0 6 -8 6 -8 0 -32 10 -54 21 -28
15 -36 17 -26 6z"/>
<path d="M2216 895 c-3 -9 -6 -22 -5 -28 0 -7 5 -1 10 12 5 13 8 26 5 28 -2 2
-6 -3 -10 -12z"/>
<path d="M2263 857 c16 -21 27 -51 30 -78 l4 -44 1 43 c2 41 -31 112 -52 112
-4 0 3 -15 17 -33z"/>
<path d="M1130 825 c-30 -30 -51 -55 -48 -55 10 0 110 101 106 106 -3 2 -29
-21 -58 -51z"/>
<path d="M1447 873 c-3 -5 -12 -35 -22 -68 -9 -33 -30 -84 -46 -114 -17 -29
-28 -55 -26 -57 8 -9 69 118 86 181 17 60 19 77 8 58z"/>
<path d="M2159 857 c14 -18 84 -41 104 -34 7 2 -6 7 -27 11 -21 4 -51 15 -65
24 -25 16 -25 16 -12 -1z"/>
<path d="M0 855 c0 -13 53 -145 57 -141 2 2 -8 34 -22 72 -25 66 -35 86 -35
69z"/>
<path d="M220 813 c-34 -35 -38 -41 -15 -26 35 24 70 61 64 68 -3 2 -25 -17
-49 -42z"/>
<path d="M412 854 c3 -2 41 -9 84 -14 44 -5 95 -11 114 -14 20 -3 13 0 -15 8
-52 13 -192 29 -183 20z"/>
<path d="M963 820 c0 -25 2 -35 4 -22 2 12 2 32 0 45 -2 12 -4 2 -4 -23z"/>
<path d="M2133 825 c0 -22 2 -30 4 -17 2 12 2 30 0 40 -3 9 -5 -1 -4 -23z"/>
<path d="M383 810 c0 -25 2 -35 4 -22 2 12 2 32 0 45 -2 12 -4 2 -4 -23z"/>
<path d="M1826 774 c-9 -37 -15 -68 -13 -71 3 -2 12 26 21 63 9 37 15 68 13
71 -3 2 -12 -26 -21 -63z"/>
<path d="M432 789 c-28 -22 -70 -46 -94 -54 -38 -13 -39 -14 -8 -8 45 7 75 23
125 67 55 48 39 45 -23 -5z"/>
<path d="M2345 824 c45 -7 216 -9 199 -3 -11 4 -64 7 -119 7 -55 0 -91 -2 -80
-4z"/>
<path d="M707 810 c8 -7 109 -25 193 -34 l45 -5 -40 9 c-78 18 -207 38 -198
30z"/>
<path d="M1861 819 c-1 -3 19 -48 44 -100 24 -52 44 -87 44 -79 0 14 -87 191
-88 179z"/>
<path d="M2120 755 c-29 -30 -50 -55 -44 -55 9 0 65 55 93 93 24 31 7 18 -49
-38z"/>
<path d="M2348 761 c-30 -28 -73 -57 -97 -67 -23 -9 -40 -18 -38 -21 11 -10
99 40 147 85 30 28 52 51 48 52 -3 0 -31 -22 -60 -49z"/>
<path d="M241 787 c-2 -16 72 -167 81 -167 5 0 -4 24 -19 53 -16 28 -37 68
-45 87 -9 19 -17 31 -17 27z"/>
<path d="M144 749 c49 -16 90 -28 93 -26 4 5 -160 58 -173 56 -5 -1 31 -14 80
-30z"/>
<path d="M1128 745 c2 -19 -1 -49 -7 -67 -9 -25 -9 -30 0 -21 15 15 25 108 12
116 -5 3 -7 -10 -5 -28z"/>
<path d="M970 765 c0 -5 12 -23 26 -40 14 -16 21 -21 15 -10 -14 30 -40 61
-41 50z"/>
<path d="M1005 759 c4 -5 14 -9 23 -9 9 0 32 -9 50 -20 37 -23 44 -18 8 5 -30
20 -89 37 -81 24z"/>
<path d="M786 712 c-27 -44 -70 -171 -62 -180 4 -3 36 98 36 113 0 3 16 30 35
60 19 30 31 55 27 55 -4 0 -20 -22 -36 -48z"/>
<path d="M69 689 l-44 -41 50 38 c28 21 52 40 54 41 2 2 0 3 -6 3 -6 0 -30
-18 -54 -41z"/>
<path d="M2150 726 c0 -13 81 -158 86 -153 3 2 -16 40 -41 83 -25 43 -45 75
-45 70z"/>
<path d="M355 665 c-9 -32 -14 -59 -12 -61 2 -3 11 21 20 53 9 31 15 58 13 61
-2 2 -12 -22 -21 -53z"/>
<path d="M1036 695 c-3 -9 -5 -38 -5 -63 2 -47 2 -47 9 13 8 62 7 78 -4 50z"/>
<path d="M1430 706 c0 -13 107 -200 130 -227 11 -13 1 10 -23 51 -24 41 -58
100 -75 130 -17 30 -32 51 -32 46z"/>
<path d="M1840 684 l-35 -14 35 6 c19 3 39 10 45 15 13 13 -3 10 -45 -7z"/>
<path d="M1970 690 c25 -8 87 -13 79 -6 -2 2 -26 6 -54 9 -34 4 -42 3 -25 -3z"/>
<path d="M1150 676 c0 -4 11 -24 25 -44 14 -20 26 -52 26 -72 1 -25 3 -28 6
-11 3 12 2 33 -1 45 -5 21 -56 96 -56 82z"/>
<path d="M2061 676 c2 -2 24 -6 48 -9 29 -4 40 -2 30 4 -13 8 -88 14 -78 5z"/>
<path d="M2266 614 c-9 -37 -31 -90 -47 -120 -17 -30 -29 -54 -26 -54 21 0
110 220 95 235 -2 2 -12 -25 -22 -61z"/>
<path d="M1745 624 c-28 -25 -41 -40 -29 -32 33 21 87 68 83 73 -3 2 -27 -17
-54 -41z"/>
<path d="M1060 651 c0 -13 64 -41 92 -40 18 1 16 3 -9 9 -18 4 -44 15 -58 24
-14 9 -25 12 -25 7z"/>
<path d="M1982 624 c-23 -20 -47 -45 -53 -57 -6 -12 14 3 45 33 31 30 56 56
56 57 0 7 -9 1 -48 -33z"/>
<path d="M66 620 c8 -43 14 -51 14 -19 0 13 -5 31 -10 39 -7 11 -8 5 -4 -20z"/>
<path d="M1802 597 c-2 -34 4 -57 21 -82 12 -19 26 -35 30 -35 4 0 -3 15 -17
33 -16 21 -26 49 -29 82 l-3 50 -2 -48z"/>
<path d="M4 621 c4 -6 16 -16 28 -22 15 -8 18 -8 14 0 -4 6 -16 16 -28 22 -15
8 -18 8 -14 0z"/>
<path d="M794 578 c29 -67 65 -135 66 -126 0 12 -78 178 -84 178 -3 0 5 -24
18 -52z"/>
<path d="M1253 603 c15 -2 39 -2 55 0 15 2 2 4 -28 4 -30 0 -43 -2 -27 -4z"/>
<path d="M1347 599 c9 -8 128 -20 120 -12 -3 3 -33 8 -67 12 -33 4 -57 4 -53
0z"/>
<path d="M1027 555 c-27 -25 -45 -45 -40 -45 12 1 110 90 98 89 -5 0 -32 -20
-58 -44z"/>
<path d="M306 550 c-28 -43 -35 -68 -10 -35 19 24 46 75 41 75 -3 0 -16 -18
-31 -40z"/>
<path d="M1255 545 c-22 -19 -62 -42 -88 -51 -27 -9 -46 -18 -44 -20 9 -9 91
27 130 58 59 44 63 48 52 48 -6 0 -28 -16 -50 -35z"/>
<path d="M1600 565 c41 -8 98 -13 125 -13 48 1 47 1 -15 8 -36 4 -92 10 -125
13 -56 6 -55 5 15 -8z"/>
<path d="M56 554 c-4 -9 -4 -19 -1 -22 2 -3 7 3 11 12 4 9 4 19 1 22 -2 3 -7
-3 -11 -12z"/>
<path d="M1961 549 c0 -13 4 -33 9 -44 7 -14 8 -8 3 20 -7 46 -13 59 -12 24z"/>
<path d="M381 503 c51 -89 109 -179 109 -169 0 5 -17 37 -39 70 -21 34 -50 82
-65 109 -15 26 -29 47 -32 47 -3 0 9 -26 27 -57z"/>
<path d="M90 543 c0 -5 9 -19 20 -33 11 -14 20 -41 21 -60 l2 -35 4 33 c3 21
-3 44 -17 67 -21 34 -30 43 -30 28z"/>
<path d="M1850 539 c14 -6 40 -18 59 -25 18 -8 35 -13 38 -11 5 6 -57 33 -92
40 -29 6 -29 6 -5 -4z"/>
<path d="M9 527 c14 -18 79 -42 88 -33 4 3 0 6 -8 6 -8 0 -32 10 -54 21 -28
15 -36 17 -26 6z"/>
<path d="M1065 500 c9 -16 18 -30 21 -30 2 0 -2 14 -11 30 -9 17 -18 30 -21
30 -2 0 2 -13 11 -30z"/>
<path d="M1631 508 c-8 -13 -21 -33 -29 -45 -27 -43 -3 -23 28 22 17 25 27 45
23 45 -5 0 -14 -10 -22 -22z"/>
<path d="M740 510 c-20 -6 -21 -8 -5 -8 11 0 31 4 45 8 20 6 21 8 5 8 -11 0
-31 -4 -45 -8z"/>
<path d="M865 511 c11 -4 36 -11 55 -15 24 -4 29 -3 15 3 -11 4 -36 11 -55 15
-24 4 -29 3 -15 -3z"/>
<path d="M2270 514 c0 -11 87 -141 126 -187 38 -46 28 -19 -15 37 -21 28 -55
76 -75 106 -20 30 -36 50 -36 44z"/>
<path d="M656 465 c-27 -19 -46 -35 -42 -35 9 0 96 59 96 65 0 8 -3 6 -54 -30z"/>
<path d="M1876 485 c-9 -26 -7 -32 5 -12 6 10 9 21 6 23 -2 3 -7 -2 -11 -11z"/>
<path d="M985 480 c17 -4 41 -8 55 -8 22 0 22 1 -5 8 -16 4 -41 8 -55 8 -22 0
-22 -1 5 -8z"/>
<path d="M193 473 c15 -2 37 -2 50 0 12 2 0 4 -28 4 -27 0 -38 -2 -22 -4z"/>
<path d="M1957 461 c-4 -17 -3 -21 5 -13 5 5 8 16 6 23 -3 8 -7 3 -11 -10z"/>
<path d="M275 465 c21 -9 116 -22 108 -15 -4 4 -33 11 -63 14 -30 3 -50 4 -45
1z"/>
<path d="M712 431 c-2 -41 32 -120 45 -107 3 3 -4 18 -15 34 -11 15 -22 48
-25 73 l-4 44 -1 -44z"/>
<path d="M879 438 c-23 -18 -44 -40 -47 -48 -2 -8 11 0 29 18 19 18 43 39 54
47 11 8 17 15 13 15 -3 0 -26 -15 -49 -32z"/>
<path d="M1187 463 c-2 -5 -12 -33 -22 -63 -10 -30 -28 -68 -40 -85 -28 -38
-38 -55 -31 -55 13 0 65 91 84 148 18 54 22 78 9 55z"/>
<path d="M1990 463 c0 -4 10 -17 22 -30 12 -13 25 -42 29 -66 6 -41 7 -41 8
-8 1 23 -8 48 -25 73 -26 37 -34 45 -34 31z"/>
<path d="M2560 439 l-35 -31 32 22 c29 19 50 40 41 40 -2 0 -19 -14 -38 -31z"/>
<path d="M1090 456 c0 -8 42 -76 46 -76 3 0 -5 18 -16 40 -18 35 -30 49 -30
36z"/>
<path d="M182 426 c-18 -13 -36 -27 -40 -31 -10 -11 50 21 73 39 32 25 3 17
-33 -8z"/>
<path d="M1873 415 c0 -22 2 -30 4 -17 2 12 2 30 0 40 -3 9 -5 -1 -4 -23z"/>
<path d="M466 430 c12 -4 43 -11 70 -14 61 -7 20 8 -46 17 -30 4 -38 3 -24 -3z"/>
<path d="M1900 436 c0 -3 9 -10 20 -16 11 -6 20 -8 20 -6 0 3 -9 10 -20 16
-11 6 -20 8 -20 6z"/>
<path d="M1566 374 c-10 -31 -16 -58 -14 -60 3 -2 12 21 22 52 10 31 16 58 14
60 -3 2 -12 -21 -22 -52z"/>
<path d="M0 411 c0 -18 61 -124 67 -117 3 3 1 11 -5 18 -5 7 -22 36 -36 63
-14 28 -26 44 -26 36z"/>
<path d="M1959 407 c5 -5 19 -7 32 -5 20 3 19 5 -9 9 -20 3 -29 2 -23 -4z"/>
<path d="M591 406 c2 -2 24 -6 49 -9 30 -4 38 -3 25 3 -19 8 -83 14 -74 6z"/>
<path d="M1600 406 c0 -7 52 -96 56 -96 2 0 -7 23 -21 50 -22 43 -35 60 -35
46z"/>
<path d="M2093 403 c15 -2 39 -2 55 0 15 2 2 4 -28 4 -30 0 -43 -2 -27 -4z"/>
<path d="M2207 403 c18 -2 50 -2 70 0 21 2 7 4 -32 4 -38 0 -55 -2 -38 -4z"/>
<path d="M2410 399 c45 -8 197 -12 189 -5 -2 2 -56 6 -119 8 -72 3 -98 2 -70
-3z"/>
<path d="M70 380 c-20 -6 -21 -8 -5 -8 11 0 31 4 45 8 20 6 21 8 5 8 -11 0
-31 -4 -45 -8z"/>
<path d="M544 362 c-27 -36 -36 -52 -31 -52 8 0 59 71 55 76 -3 2 -13 -9 -24
-24z"/>
<path d="M745 382 c9 -8 23 -14 90 -37 18 -6 18 -5 3 5 -24 15 -105 43 -93 32z"/>
<path d="M872 353 c-1 -23 -5 -50 -8 -60 -5 -17 -5 -17 6 0 6 9 9 36 7 60 l-4
42 -1 -42z"/>
<path d="M1865 344 c-27 -26 -36 -37 -20 -26 28 19 84 72 74 72 -2 -1 -26 -21
-54 -46z"/>
<path d="M2094 350 c-27 -22 -64 -45 -84 -51 -19 -6 -39 -16 -45 -21 -5 -5 13
-1 42 10 54 20 165 102 139 102 -2 0 -26 -18 -52 -40z"/>
<path d="M2464 331 c-26 -39 -55 -121 -53 -150 0 -9 8 11 18 45 9 33 26 74 37
90 29 41 36 54 30 54 -3 0 -17 -18 -32 -39z"/>
<path d="M104 325 c-7 -19 -14 -38 -14 -43 0 -5 -7 -15 -15 -22 -9 -7 -25 -27
-37 -44 -21 -31 -21 -31 15 4 20 19 45 59 56 88 23 57 19 73 -5 17z"/>
<path d="M774 305 c-3 -13 -2 -36 3 -51 8 -24 9 -20 9 24 0 58 -3 64 -12 27z"/>
<path d="M1191 285 c12 -22 29 -47 37 -55 20 -20 -13 37 -40 71 -17 20 -16 18
3 -16z"/>
<path d="M1899 302 c6 -12 16 -24 22 -28 8 -4 8 -1 0 14 -6 12 -16 24 -22 28
-8 4 -8 1 0 -14z"/>
<path d="M491 269 c-6 -18 -11 -39 -10 -48 0 -9 7 4 14 29 16 51 13 67 -4 19z"/>
<path d="M900 294 c0 -6 9 -19 19 -28 11 -10 22 -32 24 -50 l4 -31 1 30 c1 18
-8 42 -23 60 -14 17 -25 25 -25 19z"/>
<path d="M1559 290 c-29 -8 -139 -80 -124 -80 6 0 33 15 61 34 28 19 70 39 95
44 25 6 33 10 19 10 -14 0 -37 -3 -51 -8z"/>
<path d="M1661 295 c0 -5 6 -21 14 -35 8 -14 14 -20 14 -15 0 6 -6 21 -14 35
-8 14 -14 21 -14 15z"/>
<path d="M1715 290 c17 -4 41 -8 55 -8 22 0 22 1 -5 8 -16 4 -41 8 -55 8 -22
0 -22 -1 5 -8z"/>
<path d="M555 213 c37 -66 55 -93 55 -81 0 10 -81 148 -87 148 -2 0 12 -30 32
-67z"/>
<path d="M835 260 c22 -11 51 -19 65 -19 17 0 11 4 -20 13 -25 7 -54 16 -65
20 -11 3 -2 -3 20 -14z"/>
<path d="M1810 274 c37 -8 88 -9 84 -2 -3 4 -26 7 -52 7 -26 -1 -40 -3 -32 -5z"/>
<path d="M2012 220 c-12 -33 -36 -80 -54 -103 -20 -26 -24 -35 -10 -23 32 28
60 76 77 132 21 70 11 66 -13 -6z"/>
<path d="M1729 239 c-19 -16 -20 -18 -4 -10 34 17 51 31 39 31 -7 0 -22 -9
-35 -21z"/>
<path d="M1930 259 c0 -3 11 -20 25 -39 14 -19 25 -30 25 -24 0 10 -49 73 -50
63z"/>
<path d="M2455 250 c18 -33 86 -130 91 -130 6 0 0 11 -45 75 -37 53 -60 81
-46 55z"/>
<path d="M1534 236 c-3 -8 -4 -25 -2 -38 3 -17 5 -13 9 15 5 38 2 47 -7 23z"/>
<path d="M106 228 c32 -52 80 -109 116 -137 l43 -34 -35 38 c-34 36 -34 37
-10 32 14 -3 48 -8 75 -11 45 -5 43 -4 -15 9 -36 8 -71 12 -77 10 -7 -2 -31
20 -54 50 -38 50 -61 74 -43 43z"/>
<path d="M775 204 c-27 -18 -45 -34 -39 -34 12 0 94 57 94 65 0 7 -1 7 -55
-31z"/>
<path d="M1070 230 c52 -5 105 -11 118 -13 13 -3 20 -1 15 4 -4 4 -58 10 -118
13 l-110 5 95 -9z"/>
<path d="M985 185 c-33 -19 -69 -35 -80 -35 -11 0 -27 -5 -35 -10 -26 -17 51
1 95 22 37 18 96 58 85 57 -3 0 -32 -15 -65 -34z"/>
<path d="M1275 209 c5 -7 214 -34 220 -28 2 3 -47 11 -110 20 -62 8 -112 12
-110 8z"/>
<path d="M1674 199 c-19 -22 -19 -22 4 -10 12 6 22 16 22 21 0 15 -5 12 -26
-11z"/>
<path d="M1257 179 c10 -17 27 -38 37 -47 11 -9 5 4 -13 31 -36 53 -52 64 -24
16z"/>
<path d="M485 181 c-33 -8 -115 -48 -115 -56 0 -3 19 4 43 16 23 12 65 28 92
34 28 7 41 13 30 13 -11 0 -33 -3 -50 -7z"/>
<path d="M1702 153 c-1 -23 -5 -50 -8 -60 -5 -17 -5 -17 6 0 6 9 9 36 7 60
l-4 42 -1 -42z"/>
<path d="M625 172 c31 -14 83 -24 65 -13 -8 5 -31 11 -50 15 -24 4 -28 3 -15
-2z"/>
<path d="M800 175 c0 -10 59 -93 72 -101 7 -5 8 -3 2 7 -17 28 -74 100 -74 94z"/>
<path d="M30 160 c51 -13 133 -22 98 -11 -15 5 -51 12 -80 15 -43 4 -46 4 -18
-4z"/>
<path d="M1351 131 c-29 -36 -76 -131 -66 -131 3 0 16 24 29 52 12 29 30 59
40 67 17 15 40 51 32 51 -2 0 -18 -17 -35 -39z"/>
<path d="M1549 153 c12 -24 31 -39 31 -25 0 5 -10 17 -21 28 -22 19 -22 19
-10 -3z"/>
<path d="M1620 150 c30 -10 57 -17 59 -14 7 6 -67 34 -91 34 -13 -1 0 -9 32
-20z"/>
<path d="M2435 156 c-42 -13 -129 -66 -121 -73 3 -3 25 9 50 26 25 17 59 34
76 37 17 4 33 11 36 15 3 5 4 9 2 8 -2 0 -21 -6 -43 -13z"/>
<path d="M2540 166 c0 -2 13 -6 29 -8 17 -2 28 -1 25 4 -5 8 -54 12 -54 4z"/>
<path d="M716 150 c10 -8 92 -25 84 -16 -3 2 -25 9 -49 15 -24 5 -39 6 -35 1z"/>
<path d="M461 109 c-1 -27 5 -41 26 -60 25 -22 26 -22 9 -1 -11 12 -22 39 -26
60 l-8 37 -1 -36z"/>
<path d="M644 125 c-10 -8 -14 -14 -9 -14 6 0 19 6 29 14 11 8 15 15 10 15 -6
0 -19 -7 -30 -15z"/>
<path d="M2071 87 c50 -46 119 -95 119 -84 0 2 -19 17 -42 32 -24 16 -58 45
-76 67 -19 21 -39 38 -45 38 -7 -1 13 -24 44 -53z"/>
<path d="M916 95 c-22 -52 -19 -58 5 -12 11 22 18 41 15 44 -3 3 -12 -12 -20
-32z"/>
<path d="M1606 115 c-3 -9 -6 -26 -5 -38 1 -14 4 -9 9 13 9 37 7 52 -4 25z"/>
<path d="M2555 94 c-22 -18 -35 -34 -30 -34 11 1 79 60 73 65 -1 2 -21 -12
-43 -31z"/>
<path d="M370 100 c14 -4 34 -8 45 -8 16 0 15 2 -5 8 -14 4 -34 8 -45 8 -16 0
-15 -2 5 -8z"/>
<path d="M594 88 l-19 -23 23 19 c21 18 27 26 19 26 -2 0 -12 -10 -23 -22z"/>
<path d="M2401 84 c-1 -31 10 -50 44 -74 13 -9 10 -4 -7 15 -14 17 -28 44 -31
60 l-4 30 -2 -31z"/>
<path d="M1730 92 c0 -6 9 -16 21 -23 16 -8 20 -18 17 -39 -2 -16 -1 -27 4
-24 17 10 7 51 -17 74 -14 13 -25 18 -25 12z"/>
<path d="M301 64 c-12 -15 -20 -36 -20 -48 1 -20 2 -20 6 -1 3 11 14 32 25 48
25 35 16 35 -11 1z"/>
<path d="M504 73 c11 -11 99 -43 104 -38 5 5 -33 21 -82 36 -16 5 -26 5 -22 2z"/>
<path d="M620 61 c0 -11 4 -22 9 -25 4 -3 6 6 3 19 -5 30 -12 33 -12 6z"/>
<path d="M1644 66 c12 -10 37 -15 60 -15 l41 2 -45 6 c-25 4 -52 10 -60 15 -8
4 -6 0 4 -8z"/>
<path d="M1340 53 c0 -5 10 -19 21 -33 l20 -25 -16 33 c-15 30 -25 41 -25 25z"/>
<path d="M1873 53 c37 -2 97 -2 135 0 37 2 6 3 -68 3 -74 0 -105 -1 -67 -3z"/>
<path d="M2173 53 c20 -2 54 -2 75 0 20 2 3 4 -38 4 -41 0 -58 -2 -37 -4z"/>
<path d="M2308 53 c12 -2 32 -2 45 0 12 2 2 4 -23 4 -25 0 -35 -2 -22 -4z"/>
<path d="M2572 40 c0 -14 2 -19 5 -12 2 6 2 18 0 25 -3 6 -5 1 -5 -13z"/>
<path d="M2490 35 c30 -7 57 -12 58 -10 6 5 -71 25 -93 24 -11 0 5 -7 35 -14z"/>
<path d="M874 18 l-19 -23 23 19 c21 18 27 26 19 26 -2 0 -12 -10 -23 -22z"/>
<path d="M1618 24 c-38 -20 -36 -28 2 -9 17 9 30 18 30 20 0 7 -1 6 -32 -11z"/>
<path d="M1840 20 c-19 -11 -30 -19 -25 -19 6 0 26 8 45 19 19 11 31 19 25 19
-5 0 -26 -8 -45 -19z"/>
<path d="M535 19 c-4 -6 -5 -12 -2 -15 2 -3 7 2 10 11 7 17 1 20 -8 4z"/>
<path d="M2246 14 c-5 -14 -4 -15 9 -4 17 14 19 20 6 20 -5 0 -12 -7 -15 -16z"/>
</g>
</svg>
