<?xml version="1.0" standalone="no"?>
<!DOCTYPE svg PUBLIC "-//W3C//DTD SVG 20010904//EN"
 "http://www.w3.org/TR/2001/REC-SVG-20010904/DTD/svg10.dtd">
<svg version="1.0" xmlns="http://www.w3.org/2000/svg"
 width="260.000000pt" height="260.000000pt" viewBox="0 0 260.000000 260.000000"
 preserveAspectRatio="xMidYMid meet">
<metadata>
Created by potrace 1.11, written by Peter Selinger 2001-2013
</metadata>
<g transform="translate(0.000000,260.000000) scale(0.100000,-0.100000)"
fill="#000000" stroke="none">
<path d="M18 2593 c-13 -3 -18 -15 -18 -40 0 -34 1 -35 23 -21 12 8 30 17 39
21 16 6 16 3 4 -31 -12 -33 -19 -56 -41 -140 -4 -12 -10 -20 -15 -17 -5 3 -9
-40 -9 -96 0 -96 1 -100 18 -85 16 15 18 13 35 -27 21 -48 56 -122 74 -152 6
-11 18 -38 28 -60 18 -45 61 -140 77 -170 6 -11 17 -32 24 -46 21 -42 40 -54
59 -38 12 10 12 5 -3 -22 -19 -33 -30 -72 -53 -189 -6 -30 -14 -67 -17 -83 -3
-15 0 -34 7 -41 9 -12 6 -18 -17 -30 -41 -21 -175 -164 -167 -178 5 -8 -4 -9
-29 -5 l-37 6 0 -70 c0 -38 4 -69 9 -69 17 0 33 30 28 51 -5 20 -2 21 74 18
52 -2 83 1 91 9 18 18 25 15 37 -15 20 -52 61 -118 84 -135 20 -16 22 -23 19
-106 -2 -57 0 -92 7 -97 21 -12 10 -35 -40 -86 -30 -30 -48 -57 -45 -65 3 -8
0 -14 -7 -14 -18 0 -125 35 -133 43 -11 11 -49 8 -61 -4 -15 -15 -32 -3 -26
19 2 10 -5 26 -18 37 l-22 20 6 -82 c5 -85 31 -143 63 -143 32 0 29 31 -7 103
-8 16 -7 16 13 6 50 -26 59 -29 88 -29 l31 0 -53 -47 c-30 -27 -74 -69 -97
-95 -37 -40 -41 -50 -31 -63 12 -14 15 -14 30 0 26 24 30 19 30 -37 l-1 -53
-27 33 c-34 41 -42 40 -42 -1 0 -42 32 -76 54 -58 23 20 29 -5 10 -45 -16 -33
-16 -37 -1 -52 15 -14 18 -14 35 1 21 19 32 12 46 -27 5 -14 3 -17 -11 -11
-10 3 -31 9 -48 12 -16 3 -37 11 -45 18 -35 28 -40 27 -40 -8 0 -24 5 -36 17
-41 10 -3 25 -9 33 -14 60 -35 97 -41 118 -20 9 9 12 7 12 -10 0 -19 6 -22 36
-22 32 0 35 2 28 23 -4 12 -16 33 -26 47 -11 14 -26 40 -33 57 -8 18 -25 38
-39 44 -28 13 -41 38 -28 51 12 12 3 138 -10 155 -7 8 7 27 46 64 31 29 56 60
56 70 0 21 3 23 28 10 41 -21 146 -40 165 -30 10 6 20 9 22 7 10 -10 45 -80
45 -89 0 -20 33 -84 57 -110 l25 -27 -24 -39 c-13 -21 -29 -48 -36 -58 -6 -11
-15 -27 -19 -35 -3 -8 -15 -28 -26 -43 -16 -23 -17 -30 -6 -44 12 -14 9 -15
-26 -9 -114 17 -182 4 -154 -30 9 -11 51 -14 187 -14 157 0 174 2 156 15 -10
8 -39 15 -64 15 -60 0 -76 11 -51 34 10 10 22 29 26 44 3 14 15 32 25 39 10 7
20 23 22 35 3 19 5 18 20 -13 9 -19 19 -41 22 -49 3 -8 19 -37 35 -65 23 -41
35 -51 60 -53 l31 -3 -17 33 c-9 18 -21 42 -26 52 -5 11 -20 39 -33 62 -13 24
-24 49 -24 58 0 8 -12 23 -27 34 -27 19 -27 21 -10 39 9 11 17 27 17 36 0 9 5
19 10 22 6 3 10 19 10 34 0 15 7 51 16 80 11 38 12 57 5 64 -16 16 -13 27 5
27 9 0 47 32 83 70 37 39 72 70 78 70 6 0 16 7 23 15 10 12 10 18 0 30 -17 20
-6 20 110 -5 113 -24 134 -25 150 -4 11 12 11 17 -1 28 -19 18 -97 36 -153 36
-25 0 -46 3 -46 8 1 4 14 23 30 42 17 19 30 38 30 43 0 16 32 77 40 77 5 0 18
-21 30 -47 13 -27 29 -59 36 -73 8 -14 24 -45 35 -70 12 -25 28 -56 35 -70 8
-14 24 -45 35 -70 36 -76 75 -147 91 -168 8 -9 14 -10 25 -1 17 14 9 61 -16
99 -9 14 -25 43 -35 65 -11 22 -23 48 -28 58 -9 19 -5 21 20 8 9 -5 40 -14 67
-19 109 -23 108 -23 96 -35 -6 -6 -11 -19 -11 -28 0 -10 -10 -30 -23 -46 -37
-45 -87 -158 -97 -216 -4 -29 -16 -79 -25 -111 -16 -54 -16 -59 0 -75 15 -15
18 -14 34 6 10 12 21 48 25 80 9 78 18 91 39 59 10 -14 17 -32 17 -40 0 -8 8
-29 17 -48 9 -18 20 -41 25 -50 4 -10 12 -26 17 -35 5 -10 19 -39 30 -65 24
-55 38 -66 57 -46 13 13 13 18 -1 44 -25 48 -20 57 23 49 66 -12 68 -18 27
-64 l-37 -41 39 0 c40 0 83 31 83 60 0 10 15 11 71 6 39 -3 80 -11 91 -17 15
-8 24 -7 37 5 13 12 20 13 29 4 7 -7 12 -17 12 -24 0 -18 27 -36 49 -32 19 3
20 5 5 38 -19 41 -63 138 -74 160 -10 20 -30 19 -44 -2 -8 -13 -6 -25 7 -47
25 -43 22 -54 -13 -47 -16 3 -44 9 -61 12 l-31 6 91 92 c50 50 91 99 91 109 0
19 -30 23 -47 6 -9 -9 -13 -2 -18 24 -11 55 -3 60 37 27 33 -28 88 -46 159
-53 13 -1 18 -16 22 -65 3 -39 11 -70 22 -81 16 -18 14 -20 -22 -32 -44 -14
-111 -48 -118 -59 -3 -4 2 -13 10 -20 18 -15 72 -2 132 30 64 34 227 186 217
202 -6 10 7 9 168 -13 68 -9 90 -9 102 0 10 8 16 9 21 1 3 -5 11 -10 17 -10
19 0 2 116 -21 149 -12 16 -21 34 -21 40 0 6 -9 16 -19 23 -10 6 -17 17 -15
23 3 7 -9 27 -26 45 -33 36 -33 35 1 102 5 10 9 29 9 42 0 14 4 27 9 30 15 10
24 135 11 151 -10 12 -8 17 11 24 48 20 69 47 69 88 l-1 38 -27 -32 -27 -31 3
85 c3 63 6 83 15 74 20 -20 37 -12 37 19 0 30 -21 42 -35 20 -3 -5 -10 -10
-14 -10 -8 0 -71 96 -71 108 0 3 -12 19 -27 34 -26 27 -27 32 -24 122 2 59 -1
96 -8 101 -21 12 -11 32 49 93 33 33 60 65 60 71 0 6 15 7 35 4 l35 -6 0 67
c0 36 -4 66 -9 66 -16 0 -33 -30 -28 -49 4 -17 1 -18 -17 -12 -38 15 -183 23
-191 12 -12 -20 -25 -11 -25 17 0 15 -9 38 -20 52 -11 14 -20 33 -20 42 0 9
-4 19 -9 23 -5 3 -12 18 -16 34 -3 16 -17 39 -30 51 -28 26 -26 56 8 103 10
16 17 31 13 34 -3 3 3 18 14 33 11 16 20 31 20 35 0 4 9 20 21 36 15 21 18 33
10 42 -8 10 9 12 82 9 77 -4 95 -1 106 12 12 14 11 19 -4 36 -14 15 -31 20
-69 20 l-50 0 64 65 65 66 10 -88 c10 -86 28 -137 59 -162 14 -11 15 2 9 126
-4 99 -10 143 -20 155 -13 14 -12 17 6 23 31 9 29 55 -2 55 -28 0 -243 -213
-232 -230 7 -12 -61 -6 -140 11 -58 12 -109 11 -124 -3 -10 -11 -16 -8 -31 12
-11 14 -20 31 -20 38 0 7 -4 20 -9 30 -5 9 -24 47 -42 85 -29 59 -36 67 -61
67 -34 0 -34 -3 -2 -65 15 -27 33 -63 41 -80 8 -16 18 -38 24 -47 14 -27 11
-33 -9 -16 -9 8 -53 21 -97 27 -113 18 -112 17 -88 44 12 12 24 33 28 47 4 14
16 37 26 52 25 35 24 38 -15 38 -31 0 -36 -4 -47 -37 -6 -21 -21 -51 -31 -66
-19 -26 -19 -29 -4 -46 16 -18 13 -18 -76 -13 -78 4 -96 2 -107 -12 -21 -25 3
-44 57 -48 l46 -3 -55 -56 -55 -57 -12 86 c-7 57 -17 92 -30 106 -11 12 -23
33 -28 47 -25 75 -115 128 -129 77 -15 -54 -26 -66 -54 -59 -14 5 -32 6 -38 4
-15 -6 -18 33 -3 42 6 3 10 13 10 21 0 10 -14 14 -55 14 -55 0 -67 -8 -41 -29
8 -7 16 -45 20 -99 4 -50 14 -97 23 -111 14 -22 13 -25 -21 -60 -20 -20 -36
-42 -36 -48 0 -6 -7 -13 -15 -17 -8 -3 -20 -16 -26 -30 -12 -26 -21 -27 -133
-5 -61 12 -87 -2 -60 -32 10 -11 27 -19 40 -19 13 0 34 -5 46 -11 l24 -10 -35
-39 c-27 -30 -38 -37 -48 -28 -7 6 -13 17 -13 24 0 13 -33 78 -51 100 -5 6 -6
14 -2 17 3 4 -3 26 -14 49 -33 69 -53 115 -53 125 0 5 -11 20 -24 32 -26 24
-25 38 4 81 9 14 22 44 27 68 10 40 10 42 -11 42 -16 0 -28 -11 -42 -39 l-20
-38 -18 38 c-16 32 -24 39 -48 39 -26 0 -28 -3 -22 -22 13 -43 42 -83 58 -82
19 2 19 3 5 -33 -39 -97 -66 -251 -50 -281 9 -17 6 -23 -17 -38 -53 -35 -183
-178 -178 -196 5 -22 -10 -33 -27 -20 -7 5 -28 12 -47 15 -19 4 -66 13 -105
22 -46 10 -73 11 -79 5 -17 -17 -24 -11 -37 28 -7 20 -20 51 -30 68 -9 17 -22
40 -28 50 -6 11 -20 41 -31 67 -12 26 -27 51 -35 54 -16 6 -20 38 -7 47 5 3
14 31 21 63 7 32 17 69 21 83 16 48 21 112 10 125 -8 9 -8 15 0 20 33 20 -34
33 -92 18z m1425 -124 c4 -14 -1 -15 -30 -9 -46 11 -48 14 -27 45 l18 27 17
-24 c10 -12 20 -30 22 -39z m-63 -53 c24 -4 50 -12 57 -18 9 -7 17 -7 28 2 13
11 15 2 15 -70 0 -63 4 -88 16 -101 16 -17 15 -19 -10 -29 -15 -5 -35 -10 -45
-10 -9 0 -32 -13 -51 -29 -31 -26 -33 -31 -20 -45 14 -14 20 -13 64 9 27 14
50 25 52 25 1 0 -6 -18 -17 -40 -10 -21 -19 -54 -19 -72 0 -43 -21 -118 -28
-98 -5 16 -22 56 -47 115 -9 19 -20 37 -25 40 -6 3 -10 21 -10 38 0 18 -9 43
-20 57 -11 14 -20 32 -20 41 0 9 -8 23 -19 33 -15 14 -20 14 -29 3 -12 -14 1
-83 19 -101 18 -19 8 -24 -28 -14 -21 5 -51 13 -68 17 l-30 7 31 22 c16 13 50
50 75 83 24 33 55 74 68 90 22 28 23 32 8 47 -15 14 -18 14 -35 -2 -19 -16
-20 -16 -26 6 -14 55 -8 61 32 30 22 -18 55 -32 82 -36z m366 -35 c5 -5 29
-11 54 -14 25 -3 71 -9 102 -13 42 -5 62 -3 74 7 14 11 19 9 35 -11 10 -14 19
-29 19 -34 0 -13 80 -176 103 -209 11 -16 25 -26 33 -23 17 6 17 2 4 -22 -5
-9 -14 -39 -20 -67 -16 -72 -27 -123 -39 -179 -6 -27 -13 -52 -16 -54 -3 -3 0
-11 6 -18 6 -8 8 -21 4 -31 -5 -10 -7 -21 -7 -25 1 -5 -2 -8 -8 -8 -5 0 -10
-4 -10 -10 0 -18 19 -10 25 11 5 15 10 17 19 10 17 -14 105 14 129 41 20 24 7
50 -21 41 -23 -7 -63 -23 -87 -36 -20 -10 -20 -9 -1 11 18 21 31 64 43 150 7
54 22 50 43 -14 10 -27 29 -70 44 -96 14 -26 26 -54 26 -62 0 -15 32 -79 52
-104 8 -9 14 -10 25 -1 16 14 9 60 -14 95 -13 21 -13 21 24 13 21 -4 53 -12
71 -16 l33 -8 -76 -75 c-41 -41 -75 -79 -75 -84 0 -5 -9 -20 -21 -32 -14 -15
-19 -29 -14 -43 7 -22 29 -28 40 -11 12 19 25 -1 25 -37 l0 -37 -27 26 c-33
30 -169 82 -178 68 -15 -25 -20 -4 -17 73 4 88 -7 114 -42 101 -15 -6 -17 -21
-15 -103 1 -89 4 -99 30 -132 15 -20 31 -48 34 -62 8 -28 39 -62 52 -54 4 3 9
-40 9 -95 1 -59 6 -104 13 -111 6 -6 11 -14 11 -19 0 -4 -30 -37 -66 -73 -56
-55 -65 -67 -54 -80 10 -12 10 -15 -4 -15 -9 0 -24 4 -34 10 -9 5 -46 16 -82
24 -57 13 -67 13 -81 0 -14 -13 -18 -12 -32 10 -9 13 -19 37 -22 52 -8 35 -24
71 -47 105 -10 14 -15 29 -11 33 3 3 -2 15 -12 26 -18 20 -18 23 -3 53 8 18
30 64 47 102 18 39 36 77 41 86 5 10 5 20 -1 26 -6 6 24 8 78 5 80 -4 90 -2
107 17 28 31 7 51 -55 51 -29 0 -49 5 -49 11 0 6 27 38 61 71 33 33 57 63 54
66 -4 4 -10 1 -12 -5 -3 -7 -11 -13 -18 -13 -12 0 -34 -19 -71 -62 -6 -7 -21
-20 -33 -28 -11 -8 -21 -21 -21 -28 0 -12 -16 -13 -92 -7 -51 3 -97 11 -102
16 -14 13 -70 11 -83 -2 -13 -13 -33 -4 -33 14 0 7 -13 39 -30 70 -16 32 -30
63 -30 68 0 6 -13 30 -30 54 -16 24 -30 48 -30 52 0 5 -5 14 -12 21 -9 9 -15
9 -27 -1 -9 -7 -7 0 5 18 13 18 24 54 27 91 4 34 11 73 16 85 27 71 35 111 23
129 -10 16 2 32 93 126 57 58 104 109 103 113 -2 22 11 28 28 12z m-960 -69
c6 -33 33 -90 54 -117 5 -5 11 -27 15 -48 4 -20 11 -40 16 -43 5 -3 9 -13 9
-22 0 -9 14 -30 30 -47 l30 -31 -39 -32 c-40 -32 -57 -75 -36 -92 7 -6 19 -4
34 6 27 20 33 15 29 -25 -3 -29 -4 -30 -28 -16 -14 7 -41 21 -60 30 -19 9 -43
21 -52 26 -24 12 -52 11 -66 -3 -9 -9 -12 7 -12 72 0 61 -4 88 -15 100 -18 20
-10 29 45 50 19 7 48 22 63 33 26 17 27 21 14 35 -14 13 -21 13 -63 -2 -51
-17 -63 -16 -39 4 8 7 15 21 15 31 0 33 33 139 41 133 5 -2 11 -21 15 -42z
m1373 1 c31 -6 70 -12 87 -12 43 -1 46 -8 22 -49 -37 -64 -48 -87 -48 -97 0
-5 -7 -18 -14 -28 -12 -16 -15 -15 -29 15 -9 18 -25 47 -37 63 -11 17 -20 37
-20 45 -1 8 -14 30 -30 49 -30 35 -31 63 -3 39 9 -7 41 -18 72 -25z m-1019
-204 c94 -20 120 -22 135 -9 12 10 16 7 26 -16 11 -27 17 -41 38 -81 16 -31
41 -91 41 -99 0 -4 10 -18 22 -31 l22 -23 -22 -16 c-12 -8 -22 -22 -22 -31 0
-8 -6 -27 -14 -41 -60 -117 -64 -130 -44 -150 9 -9 16 -8 30 5 10 9 18 22 18
30 0 7 8 26 18 40 9 15 22 40 27 57 13 37 35 46 35 14 0 -13 4 -28 9 -34 15
-15 61 -102 61 -114 0 -7 10 -26 22 -43 20 -30 21 -31 1 -14 -22 19 -180 42
-220 32 -12 -3 -25 -1 -28 5 -3 5 -39 10 -79 10 -58 0 -76 -4 -89 -18 -24 -27
-3 -42 57 -42 l51 0 -85 -85 c-55 -56 -92 -85 -107 -85 -12 0 -25 -4 -28 -10
-3 -5 -13 -10 -22 -10 -8 0 -28 -9 -44 -21 -24 -17 -28 -24 -18 -35 12 -15 75
-10 93 7 23 21 22 5 0 -68 -13 -43 -24 -89 -24 -103 0 -22 -2 -21 -20 13 -11
20 -20 42 -20 48 0 6 -8 23 -19 37 -10 15 -32 65 -49 112 -32 91 -52 115 -77
90 -13 -14 -13 -19 0 -44 8 -15 15 -33 15 -40 0 -6 9 -22 19 -35 10 -13 16
-32 13 -43 -2 -10 0 -24 6 -31 19 -23 62 -106 62 -119 0 -7 13 -30 30 -50 26
-32 28 -37 14 -49 -14 -11 -54 -89 -54 -104 0 -4 -14 -27 -31 -51 -26 -38 -29
-48 -18 -60 12 -14 3 -15 -78 -13 -65 2 -96 -1 -107 -10 -28 -23 -1 -41 61
-41 l55 0 -58 -57 -59 -58 -7 61 c-4 34 -16 82 -27 107 -12 25 -21 49 -21 52
0 4 -16 26 -35 49 -33 41 -35 47 -35 120 0 66 -3 80 -22 99 l-23 22 63 62 c34
35 62 71 62 82 0 24 17 36 33 23 7 -6 35 -13 62 -17 28 -4 58 -12 69 -17 13
-7 23 -6 34 6 20 20 3 42 -41 51 -67 14 -67 13 -52 42 7 14 37 51 67 82 67 70
92 115 74 130 -9 7 -19 6 -34 -5 -21 -15 -22 -14 -22 15 0 16 -3 37 -6 46 -5
12 4 9 32 -10 66 -45 159 -80 169 -64 16 25 25 2 25 -65 0 -82 15 -111 46 -85
28 23 3 181 -38 241 -10 14 -18 30 -18 35 0 6 -9 18 -20 28 -16 15 -22 16 -35
5 -14 -12 -14 -10 -4 16 14 38 2 189 -16 204 -18 15 -4 41 62 109 43 45 50 57
40 70 -10 12 -9 14 8 7 11 -4 40 -12 65 -17z m-473 -221 c7 -8 10 -18 7 -21
-3 -3 3 -19 15 -35 12 -17 21 -34 21 -38 0 -15 42 -52 54 -48 13 5 16 -30 4
-42 -4 -3 -4 -38 -1 -78 4 -49 11 -77 24 -91 18 -21 18 -22 -51 -90 -50 -50
-68 -74 -64 -87 6 -21 -6 -24 -24 -5 -7 6 -44 17 -82 23 -59 8 -72 8 -85 -5
-13 -14 -15 -14 -15 1 0 9 -6 29 -14 45 -8 15 -19 40 -25 56 -24 60 -36 83
-58 114 -17 23 -21 37 -15 50 5 10 17 36 28 58 10 22 26 51 35 65 24 36 34 96
18 105 -12 8 -59 -39 -59 -60 0 -5 -9 -21 -20 -35 -11 -14 -20 -33 -20 -42 0
-27 -19 -21 -30 10 -6 15 -21 48 -35 74 -14 27 -25 53 -25 59 0 6 -10 25 -22
41 l-21 31 24 -17 c39 -25 196 -53 219 -38 11 6 21 8 24 3 10 -15 135 -24 152
-10 24 20 -10 49 -60 49 l-40 0 59 60 60 61 5 -74 c3 -41 11 -81 17 -89z m108
-48 c3 -5 16 -10 27 -10 20 0 20 -1 5 -18 -10 -10 -17 -27 -18 -38 0 -15 -2
-14 -11 6 -5 14 -14 33 -19 42 -5 10 -9 20 -9 23 0 9 19 5 25 -5z m91 -41 c12
-13 27 -19 42 -16 22 4 23 3 17 -37 -4 -22 -12 -49 -17 -59 -5 -9 -6 -23 -2
-29 4 -6 -9 1 -29 16 -20 15 -41 25 -48 21 -13 -8 -6 24 14 63 8 18 8 28 -1
43 -16 25 0 24 24 -2z m124 -125 c15 -38 13 -44 -14 -44 -27 0 -42 15 -26 25
5 3 10 15 10 26 0 27 19 24 30 -7z m-604 -236 c13 -27 24 -56 24 -66 0 -10 4
-22 8 -27 5 -6 15 -26 22 -45 7 -19 22 -48 33 -63 17 -25 21 -27 34 -14 14 14
11 44 -12 99 -6 14 -2 15 27 8 84 -20 84 -20 28 -75 -27 -27 -50 -54 -50 -60
0 -6 -16 -26 -35 -45 -19 -19 -35 -42 -35 -52 0 -24 26 -34 45 -18 13 11 15 7
15 -24 l0 -36 -37 23 c-77 47 -134 69 -149 56 -12 -10 -14 1 -14 68 0 67 -3
83 -20 98 -25 23 -26 35 -1 28 10 -3 22 0 25 6 4 6 16 11 28 11 11 0 33 9 49
21 41 29 23 52 -34 42 l-40 -6 7 53 c4 29 11 61 17 71 5 10 9 28 9 41 0 19 3
17 16 -12 9 -19 27 -56 40 -82z m999 92 c33 -6 80 -16 103 -21 32 -7 48 -6 58
2 8 7 16 10 17 8 1 -2 12 -22 23 -44 11 -22 26 -49 32 -60 6 -11 20 -41 31
-66 12 -26 32 -61 47 -78 22 -27 29 -30 42 -19 10 8 7 0 -6 -19 -12 -17 -22
-46 -22 -64 0 -18 -12 -76 -27 -127 -21 -75 -24 -98 -15 -113 10 -15 7 -23
-14 -44 -14 -14 -29 -25 -35 -25 -12 0 -154 -148 -154 -160 0 -17 -15 -22 -29
-11 -10 8 -178 41 -212 41 -1 0 -9 -7 -18 -15 -13 -13 -17 -10 -36 32 -26 56
-34 72 -66 129 -13 24 -24 48 -24 54 0 7 -14 31 -31 55 -24 33 -29 47 -21 61
6 11 16 39 22 64 7 25 16 56 20 70 17 53 21 112 8 128 -11 13 -10 16 2 20 8 3
62 53 120 112 58 60 110 107 115 105 6 -1 37 -8 70 -15z m438 -75 c16 -7 25
-15 19 -19 -6 -3 -17 -19 -25 -34 -7 -15 -18 -36 -24 -47 -6 -11 -16 -32 -22
-47 -14 -37 -23 -35 -43 10 -10 20 -24 48 -32 62 -17 28 -46 91 -46 98 0 8
144 -10 173 -23z m487 -84 c23 -18 45 -28 54 -25 20 8 20 -6 1 -32 -31 -41 -6
-114 30 -84 8 7 16 22 16 34 1 20 2 20 6 1 3 -11 18 -36 33 -56 l29 -37 -39
19 c-21 11 -45 19 -52 20 -7 0 -26 9 -43 20 -47 30 -56 32 -67 21 -14 -14 28
-70 67 -87 41 -18 112 -27 120 -15 17 27 25 2 25 -77 0 -66 4 -91 17 -105 14
-16 14 -18 0 -18 -8 0 -32 -8 -54 -19 -21 -10 -51 -25 -68 -32 -16 -7 -33 -15
-37 -17 -4 -2 -10 13 -14 32 -3 20 -10 39 -15 42 -5 3 -9 13 -9 23 0 10 -7 24
-15 31 -19 16 -45 -3 -45 -31 0 -17 30 -79 51 -105 5 -6 6 -14 2 -17 -5 -6 18
-62 60 -142 6 -11 17 -32 24 -46 7 -15 20 -32 28 -39 12 -10 11 -16 -6 -46
-10 -19 -28 -50 -39 -69 -11 -19 -20 -38 -21 -43 -1 -4 -13 -22 -27 -40 -20
-26 -22 -35 -12 -47 11 -13 1 -15 -78 -15 -67 0 -93 -4 -102 -15 -20 -25 5
-44 63 -47 40 -3 47 -5 32 -12 -11 -5 -41 -29 -66 -53 l-47 -45 -3 74 c-4 65
-8 79 -44 133 -22 33 -50 64 -62 70 -22 9 -22 13 -17 90 6 66 3 88 -11 119
l-18 37 63 64 c34 35 60 67 56 73 -7 12 18 23 30 13 11 -9 107 -31 139 -31 12
0 28 7 35 15 19 23 -5 45 -49 45 -90 0 -90 4 8 105 90 93 112 128 92 148 -8 8
-18 4 -36 -13 l-25 -23 -2 59 c-4 97 -1 124 13 150 11 21 10 27 -5 42 -16 16
-18 16 -34 -4 l-17 -20 -22 27 c-12 14 -19 30 -15 34 15 15 85 -4 122 -34z
m-2090 -192 c0 -59 -2 -69 -14 -60 -7 6 -33 14 -58 17 l-44 6 56 54 c30 29 56
54 58 54 1 0 2 -32 2 -71z m1556 -96 c4 -16 15 -40 25 -55 11 -14 19 -35 19
-46 0 -12 5 -24 10 -27 6 -3 10 -10 10 -16 0 -5 -9 -4 -20 3 -15 10 -22 10
-32 0 -6 -6 -22 -12 -34 -12 -13 0 -26 -4 -29 -10 -3 -5 -10 -10 -15 -10 -4 0
0 18 11 40 10 21 19 52 19 68 0 43 11 92 21 92 5 0 12 -12 15 -27z m-1423 -53
c23 0 26 -11 11 -40 -9 -17 -14 -19 -14 -9 0 9 -7 22 -16 29 -8 8 -20 23 -26
34 -11 20 -10 20 9 4 11 -10 27 -18 36 -18z m104 -53 c12 -10 26 -16 32 -12 6
3 11 -1 11 -9 0 -8 -4 -18 -10 -21 -15 -9 -12 -61 4 -74 10 -9 16 -8 26 4 15
18 22 14 50 -25 l21 -29 -33 10 c-49 16 -79 31 -116 58 -26 19 -35 21 -47 11
-20 -16 -19 -12 6 39 11 24 18 52 16 62 -6 21 5 18 40 -14z m1413 -120 c0 -5
12 -26 26 -44 22 -29 29 -33 40 -21 11 11 11 20 0 53 -14 38 -13 40 7 43 11 2
38 -2 58 -8 l37 -13 -69 -66 c-38 -36 -69 -70 -69 -75 0 -6 -12 -23 -27 -38
-25 -26 -26 -29 -10 -45 15 -16 18 -16 36 1 18 17 19 16 22 -27 4 -49 4 -49
-51 -6 -36 27 -136 53 -146 38 -16 -27 -24 1 -24 85 0 54 -4 98 -10 101 -19
12 1 24 49 31 27 3 61 16 77 29 l28 22 13 -24 c7 -14 13 -30 13 -36z m610 1
c0 -6 -4 -25 -10 -42 -5 -17 -16 -50 -23 -74 l-13 -42 -29 57 c-15 32 -32 66
-37 77 -6 11 -6 16 0 12 6 -3 23 1 38 9 35 18 74 20 74 3z m-2022 -55 c73 -41
122 -56 139 -42 11 9 13 -1 13 -56 0 -51 4 -73 17 -88 17 -18 17 -19 -2 -33
-10 -8 -31 -14 -46 -14 -15 0 -31 -4 -34 -10 -3 -5 -14 -10 -24 -10 -10 0 -24
-7 -31 -15 -11 -13 -15 -10 -31 20 -11 19 -19 43 -19 54 0 10 -7 24 -16 31
-22 19 -54 -12 -38 -38 6 -10 15 -33 19 -52 7 -34 7 -35 -12 -17 -11 9 -25 17
-31 17 -6 0 -23 5 -38 10 l-27 11 71 68 c40 38 72 74 72 81 0 8 7 21 15 30 14
15 14 18 0 30 -13 11 -19 10 -35 -5 -20 -18 -20 -17 -20 25 0 40 1 42 18 29 9
-8 27 -20 40 -26z m1191 -158 c5 -5 21 -32 36 -60 35 -64 65 -97 83 -90 7 3
10 0 6 -6 -10 -17 -5 -182 6 -193 16 -16 13 -19 -50 -86 -33 -34 -57 -67 -54
-71 8 -14 -15 -11 -86 11 -74 23 -111 25 -128 8 -9 -9 -13 -7 -17 8 -4 10 -13
31 -21 46 -8 14 -14 31 -14 37 0 21 -51 122 -65 127 -17 7 -5 52 24 93 12 16
21 32 21 35 0 4 11 25 26 47 14 22 24 50 22 62 -3 21 0 22 52 19 30 -2 67 -5
81 -8 17 -3 31 2 43 15 27 30 6 51 -51 51 l-44 0 20 26 c11 14 37 38 58 53
l38 28 3 -71 c2 -38 7 -75 11 -81z m148 -57 c15 -7 45 -23 65 -36 24 -16 44
-21 57 -17 23 7 25 3 12 -23 -35 -68 -35 -72 -17 -90 16 -16 18 -16 36 5 l18
23 28 -37 27 -36 -24 6 c-13 4 -34 7 -46 7 -12 0 -38 14 -58 31 -23 21 -42 29
-55 26 -15 -4 -20 0 -20 13 0 11 5 22 10 25 6 3 10 21 10 40 0 39 -24 53 -50
30 -17 -15 -19 -14 -34 7 -28 40 -13 50 41 26z m705 -152 c6 -11 21 -38 33
-61 l23 -41 -86 14 c-48 8 -98 16 -111 18 l-24 5 21 22 c11 12 23 33 27 47 4
14 16 31 26 38 11 7 19 19 19 26 0 6 5 17 12 24 9 9 16 2 31 -31 11 -23 24
-51 29 -61z m-1976 54 c13 0 26 5 29 10 3 6 15 10 26 10 17 0 19 -5 13 -42 -4
-24 -10 -47 -15 -52 -5 -6 -9 -21 -9 -34 0 -13 -5 -22 -11 -20 -15 5 -30 33
-77 143 -3 6 1 4 9 -2 7 -7 23 -13 35 -13z"/>
<path d="M0 1985 c0 -32 0 -33 58 -38 115 -10 99 39 -20 63 -38 7 -38 7 -38
-25z"/>
<path d="M1305 156 c-54 -20 -119 -58 -157 -90 -20 -17 -47 -39 -60 -48 -23
-17 -23 -17 21 -18 36 0 51 6 74 28 l29 27 -7 -27 c-7 -26 -5 -28 24 -28 35 0
39 14 15 48 -14 20 -14 22 3 22 11 0 23 4 29 8 5 5 28 15 52 22 53 17 69 34
52 55 -14 17 -32 17 -75 1z"/>
<path d="M2047 72 c-10 -10 -17 -25 -17 -33 0 -8 -6 -21 -12 -28 -11 -10 -6
-12 21 -9 28 2 36 8 42 31 8 29 3 57 -11 57 -4 0 -14 -8 -23 -18z"/>
<path d="M0 30 c0 -20 5 -30 15 -30 21 0 30 27 15 45 -19 23 -30 18 -30 -15z"/>
</g>
</svg>
