<?xml version="1.0" encoding="UTF-8"?>
<!--?xml version="1.0" encoding="UTF-8" standalone="no"?-->
<svg width="150" height="125" version="1.1" xmlns="http://www.w3.org/2000/svg">
 <g transform="matrix(.24968 0 0 .24973 -20.714 -39.733)" fill="none">
  <g stroke="#000" stroke-width="4.0047">
   <path class="link thread62 WhiteStart" d="m104.92 638.69 11.978 29.133"/>
   <path class="link thread8 WhiteEnd" d="m155.24 631.67-9.7232 23.487"/>
   <path class="link thread54 WhiteStart" d="m195.03 635.42 15.745 29.222"/>
   <path class="link thread12 WhiteEnd" d="m258.56 629.18-12.121 23.783"/>
   <path class="link thread14 WhiteEnd" d="m277.66 646.62 5.8048 17.042"/>
   <path class="link thread46 WhiteStart" d="m303.27 633.16 17.48 29.42"/>
   <path class="link thread16 WhiteEnd" d="m373.07 627.62-13.322 23.843"/>
   <path class="link thread18 WhiteEnd" d="m392.83 645.16 5.7437 17.093"/>
   <path class="link thread38 WhiteStart" d="m419.09 631.89 17.427 29.552"/>
   <path class="link thread20 WhiteEnd" d="m489.09 626.75-13.38 23.788"/>
   <path class="link thread49 WhiteStart" d="m504.36 649.2-10.211 12.568"/>
   <path class="link thread22 WhiteEnd" d="m508.15 644.54 5.1786 17.149"/>
   <path class="link thread3 WhiteStart" d="m533.14 631.42 15.728 29.697"/>
   <path class="link thread24 WhiteEnd" d="m597.14 626.61-12.137 23.6"/>
   <path class="link thread26 WhiteEnd" d="m614.05 644.96 4.0942 17.308"/>
   <path class="link thread7 WhiteStart" d="m635.47 631.85 12.321 30.01"/>
   <path class="link thread30 WhiteEnd" d="m674.98 598.26 9.353 23.549"/>
   <path class="link thread26 WhiteStart" d="m601.2 631.02 12.842 13.939"/>
   <path class="link thread57 WhiteEnd" d="m633.2 626.3-14.852 14.471"/>
   <path class="link thread7 WhiteEnd" d="m613.92 608.37 14.88 13.844"/>
   <path class="link thread57 WhiteStart" d="m645.79 596.29-12.591 30.011"/>
   <path class="link thread26 WhiteEnd" d="m582.28 597.47 12.137 23.791"/>
   <path class="link thread24 WhiteStart" d="m609.86 612.78-12.72 13.823"/>
   <path class="link thread7 WhiteStart" d="m604.99 596.25 8.9359 12.114"/>
   <path class="link thread24 WhiteEnd" d="m619.33 584.64-4.0766 17.881"/>
   <path class="link thread68 WhiteEnd" d="m648.11 590.76 21.097 5.8917"/>
   <path class="link thread30 WhiteStart" d="m678.84 580.08-3.8603 18.182"/>
   <path class="link thread68 WhiteStart" d="m625.2 585.89 22.907 4.8706"/>
   <path class="link thread57 WhiteEnd" d="m662.88 554.64-12.501 30.566"/>
   <path class="link thread22 WhiteStart" d="m493.48 630.85 14.671 13.694"/>
   <path class="link thread49 WhiteEnd" d="m530.33 626.11-17.567 14.593"/>
   <path class="link thread3 WhiteEnd" d="m507.78 608.81 17.787 13.654"/>
   <path class="link thread49 WhiteStart" d="m546.19 596.12-15.865 29.992"/>
   <path class="link thread22 WhiteEnd" d="m472.44 597.74 13.661 23.808"/>
   <path class="link thread20 WhiteStart" d="m503.45 612.96-14.365 13.792"/>
   <path class="link thread3 WhiteStart" d="m497.53 596.41 10.252 12.391"/>
   <path class="link thread20 WhiteEnd" d="m514.4 585.25-4.9929 17.778"/>
   <path class="link thread68 WhiteEnd" d="m601.43 591.43 12.298-4.6617"/>
   <path class="link thread24 WhiteStart" d="m608.47 560.38 10.867 24.256"/>
   <path class="link thread68 WhiteStart" d="m588 595.66 13.428-4.2385"/>
   <path class="link thread7 WhiteEnd" d="m588.92 573.77 9.0357 12.762"/>
   <path class="link thread68 WhiteEnd" d="m549 590.82 27.393 5.477"/>
   <path class="link thread26 WhiteStart" d="m587.3 579.54-5.0266 17.926"/>
   <path class="link thread68 WhiteStart" d="m520.32 586.2 28.678 4.6133"/>
   <path class="link thread49 WhiteEnd" d="m567.55 554.99-15.793 30.495"/>
   <path class="link thread68 WhiteEnd" d="m493.71 591.79 14.971-4.7317"/>
   <path class="link thread20 WhiteStart" d="m501.43 560.79 12.967 24.464"/>
   <path class="link thread68 WhiteStart" d="m478.22 596.12 15.485-4.3332"/>
   <path class="link thread3 WhiteEnd" d="m479.62 574.13 10.342 12.969"/>
   <path class="link thread18 WhiteStart" d="m377.56 631.61 15.269 13.555"/>
   <path class="link thread41 WhiteEnd" d="m416.05 626.72-18.519 14.707"/>
   <path class="link thread38 WhiteEnd" d="m392.16 609.69 18.997 13.548"/>
   <path class="link thread41 WhiteStart" d="m433.22 596.67-17.172 30.056"/>
   <path class="link thread18 WhiteEnd" d="m356.02 598.74 14.006 23.719"/>
   <path class="link thread16 WhiteStart" d="m387.79 613.8-14.718 13.825"/>
   <path class="link thread38 WhiteStart" d="m381.49 597.26 10.677 12.434"/>
   <path class="link thread16 WhiteEnd" d="m399.15 586.15-5.2816 17.787"/>
   <path class="link thread68 WhiteEnd" d="m436.19 591.46 30.337 5.2586"/>
   <path class="link thread22 WhiteStart" d="m477.88 579.87-5.4346 17.87"/>
   <path class="link thread68 WhiteStart" d="m405.09 587 31.101 4.4542"/>
   <path class="link thread41 WhiteEnd" d="m456.28 555.7-17.144 30.525"/>
   <path class="link thread14 WhiteStart" d="m262.99 633.22 14.673 13.4"/>
   <path class="link thread33 WhiteEnd" d="m300.2 628-17.911 14.803"/>
   <path class="link thread46 WhiteEnd" d="m276.74 611.06 18.595 13.427"/>
   <path class="link thread33 WhiteStart" d="m316.94 597.88-16.738 30.118"/>
   <path class="link thread14 WhiteEnd" d="m242.55 600.48 13.083 23.452"/>
   <path class="link thread12 WhiteStart" d="m272.49 615.29-13.93 13.883"/>
   <path class="link thread46 WhiteStart" d="m266.55 598.8 10.195 12.252"/>
   <path class="link thread12 WhiteEnd" d="m283.46 587.47-5.0742 17.818"/>
   <path class="link thread68 WhiteEnd" d="m377.58 592.71 15.834-4.809"/>
   <path class="link thread16 WhiteStart" d="m385.35 561.65 13.809 24.504"/>
   <path class="link thread68 WhiteStart" d="m361.79 597.12 15.784-4.4162"/>
   <path class="link thread38 WhiteEnd" d="m363.03 575.11 10.725 12.971"/>
   <path class="link thread68 WhiteEnd" d="m319.85 592.63 30.247 5.1059"/>
   <path class="link thread18 WhiteStart" d="m361.32 580.86-5.3063 17.876"/>
   <path class="link thread68 WhiteStart" d="m289.4 588.31 30.454 4.3226"/>
   <path class="link thread33 WhiteEnd" d="m339.5 556.8-16.766 30.573"/>
   <path class="link thread68 WhiteEnd" d="m262.71 594.19 15.043-4.8748"/>
   <path class="link thread12 WhiteStart" d="m270.02 563.09 13.437 24.381"/>
   <path class="link thread68 WhiteStart" d="m248.28 598.7 14.426-4.5038"/>
   <path class="link thread46 WhiteEnd" d="m248.77 576.78 10.191 12.732"/>
   <path class="link thread10 WhiteStart" d="m159.39 636 12.688 13.259"/>
   <path class="link thread29 WhiteEnd" d="m192.18 630.14-15.753 14.988"/>
   <path class="link thread54 WhiteEnd" d="m171.05 613.1 16.457 13.267"/>
   <path class="link thread29 WhiteStart" d="m206.88 599.9-14.701 30.236"/>
   <path class="link thread10 WhiteEnd" d="m142.09 603.27 10.635 22.956"/>
   <path class="link thread8 WhiteStart" d="m167.16 617.67-11.917 13.994"/>
   <path class="link thread54 WhiteStart" d="m162.39 601.28 8.6666 11.819"/>
   <path class="link thread8 WhiteEnd" d="m176.92 589.36-4.4268 17.919"/>
   <path class="link thread68 WhiteEnd" d="m209.5 594.5 27.146 4.9118"/>
   <path class="link thread14 WhiteStart" d="m247.25 582.58-4.6918 17.904"/>
   <path class="link thread68 WhiteStart" d="m182.84 590.3 26.66 4.2086"/>
   <path class="link thread29 WhiteEnd" d="m226.83 558.45-14.73 30.65"/>
   <path class="link thread25 WhiteEnd" d="m102.64 633.14-11.751 15.422"/>
   <path class="link thread62 WhiteEnd" d="m86.317 615.39 12.263 13.336"/>
   <path class="link thread25 WhiteStart" d="m113.64 602.7-10.994 30.442"/>
   <path class="link thread4 WhiteEnd" d="m90.742 591.25-3.3434 18.237"/>
   <path class="link thread68 WhiteEnd" d="m158.84 596.45 12.494-4.8963"/>
   <path class="link thread8 WhiteStart" d="m165.18 565.28 11.741 24.078"/>
   <path class="link thread68 WhiteStart" d="m147.64 601 11.193-4.5575"/>
   <path class="link thread54 WhiteEnd" d="m146.75 579.36 8.6202 12.188"/>
   <path class="link thread68 WhiteEnd" d="m115.67 597.06 20.573 4.8357"/>
   <path class="link thread10 WhiteStart" d="m145.6 585.25-3.5162 18.018"/>
   <path class="link thread68 WhiteStart" d="m96.586 592.61 19.088 4.4458"/>
   <path class="link thread25 WhiteEnd" d="m128.54 560.69-10.865 30.714"/>
   <path class="link thread4 WhiteStart" d="m82.441 568 8.3013 23.251"/>
   <path class="link thread6 WhiteStart" d="m88.428 538.77-8.0049 23.583"/>
   <path class="link thread54 WhiteStart" d="m132.73 564.98 14.023 14.377"/>
   <path class="link thread10 WhiteEnd" d="m162.55 559.89-12.015 14.811"/>
   <path class="link thread8 WhiteEnd" d="m146.23 541.57 12.324 13.839"/>
   <path class="link thread10 WhiteStart" d="m174.05 535.52-11.504 24.37"/>
   <path class="link thread54 WhiteEnd" d="m114.73 524.9 11.648 30.192"/>
   <path class="link thread25 WhiteStart" d="m142.16 545.97-13.618 14.714"/>
   <path class="link thread8 WhiteStart" d="m142.38 523.61 3.8498 17.964"/>
   <path class="link thread25 WhiteEnd" d="m158.16 524.14-8.535 12.48"/>
   <path class="link thread63 WhiteEnd" d="m90.357 533.08-7.9348-3.8022"/>
   <path class="link thread6 WhiteEnd" d="m85.252 508.98 3.862 18.234"/>
   <path class="link thread63 WhiteStart" d="m109.04 526.81-18.688 6.2773"/>
   <path class="link thread54 WhiteStart" d="m102.91 494.25 11.82 30.647"/>
   <path class="link thread63 WhiteEnd" d="m141.13 517.74-20.603 5.5875"/>
   <path class="link thread46 WhiteStart" d="m231.44 562.29 17.33 14.482"/>
   <path class="link thread14 WhiteEnd" d="m267.13 557.83-14.183 14.635"/>
   <path class="link thread12 WhiteEnd" d="m248.31 539.88 14.471 13.815"/>
   <path class="link thread14 WhiteStart" d="m280.45 533.3-13.32 24.532"/>
   <path class="link thread46 WhiteEnd" d="m208.58 522.85 15.513 30.262"/>
   <path class="link thread29 WhiteStart" d="m243.78 543.8-16.942 14.647"/>
   <path class="link thread12 WhiteStart" d="m243.35 522.02 4.9672 17.857"/>
   <path class="link thread29 WhiteEnd" d="m262.16 522.25-10.141 12.911"/>
   <path class="link thread8 WhiteEnd" d="m153.34 487.87-9.9414 24.318"/>
   <path class="link thread63 WhiteStart" d="m152.54 522.03-11.412-4.2872"/>
   <path class="link thread25 WhiteStart" d="m166.6 511.33-8.447 12.807"/>
   <path class="link thread63 WhiteEnd" d="m176.61 530.09-12.747-4.114"/>
   <path class="link thread10 WhiteEnd" d="m169.91 506.32 5.0774 17.997"/>
   <path class="link thread63 WhiteStart" d="m202.73 524.17-26.119 5.9214"/>
   <path class="link thread46 WhiteStart" d="m192.95 492.21 15.633 30.639"/>
   <path class="link thread63 WhiteEnd" d="m241.74 516.24-27.272 5.4347"/>
   <path class="link thread38 WhiteStart" d="m344.24 560.48 18.792 14.625"/>
   <path class="link thread18 WhiteEnd" d="m382.4 556.42-15.051 14.522"/>
   <path class="link thread16 WhiteEnd" d="m362.73 538.52 15.234 13.863"/>
   <path class="link thread18 WhiteStart" d="m396.29 531.9-13.894 24.523"/>
   <path class="link thread38 WhiteEnd" d="m319.12 521.21 17.402 30.385"/>
   <path class="link thread33 WhiteStart" d="m358.01 542.23-18.509 14.568"/>
   <path class="link thread16 WhiteStart" d="m357.28 520.65 5.4515 17.875"/>
   <path class="link thread33 WhiteEnd" d="m377.32 520.87-10.773 13.027"/>
   <path class="link thread12 WhiteEnd" d="m256.8 486.15-12.376 24.718"/>
   <path class="link thread63 WhiteStart" d="m256.41 520.55-14.667-4.315"/>
   <path class="link thread29 WhiteStart" d="m272.14 509.12-9.9782 13.127"/>
   <path class="link thread63 WhiteEnd" d="m283.31 528.03-15.359-4.1998"/>
   <path class="link thread14 WhiteEnd" d="m275.77 504.34 5.7178 17.968"/>
   <path class="link thread63 WhiteStart" d="m313.23 522.33-29.918 5.6983"/>
   <path class="link thread38 WhiteStart" d="m301.54 490.48 17.584 30.732"/>
   <path class="link thread63 WhiteEnd" d="m355.53 514.91-30.493 5.2778"/>
   <path class="link thread16 WhiteEnd" d="m371.85 484.79-13.462 24.839"/>
   <path class="link thread63 WhiteStart" d="m371.54 519.29-16.011-4.3806"/>
   <path class="link thread33 WhiteStart" d="m387.87 507.67-10.55 13.203"/>
   <path class="link thread63 WhiteEnd" d="m399.25 526.68-16.127-4.2716"/>
   <path class="link thread3 WhiteStart" d="m460.99 559.42 18.638 14.712"/>
   <path class="link thread22 WhiteEnd" d="m498.62 555.49-14.716 14.442"/>
   <path class="link thread20 WhiteEnd" d="m479.48 537.48 14.768 13.893"/>
   <path class="link thread22 WhiteStart" d="m511.84 531.09-13.218 24.393"/>
   <path class="link thread3 WhiteEnd" d="m435.76 520.03 17.525 30.473"/>
   <path class="link thread41 WhiteStart" d="m474.76 541.19-18.488 14.515"/>
   <path class="link thread20 WhiteStart" d="m474.06 519.57 5.4286 17.916"/>
   <path class="link thread41 WhiteEnd" d="m493.74 519.87-10.484 12.952"/>
   <path class="link thread18 WhiteEnd" d="m391.62 502.98 5.7926 17.987"/>
   <path class="link thread63 WhiteStart" d="m429.86 521.1-30.607 5.5755"/>
   <path class="link thread3 WhiteStart" d="m417.99 489.22 17.77 30.804"/>
   <path class="link thread63 WhiteEnd" d="m472.32 513.82-30.64 5.2002"/>
   <path class="link thread20 WhiteEnd" d="m488.5 483.72-13.348 24.824"/>
   <path class="link thread63 WhiteStart" d="m487.97 518.24-15.652-4.4143"/>
   <path class="link thread41 WhiteStart" d="m503.98 506.78-10.237 13.083"/>
   <path class="link thread63 WhiteEnd" d="m514.7 525.82-15.184-4.312"/>
   <path class="link thread7 WhiteStart" d="m572.06 558.95 16.863 14.813"/>
   <path class="link thread26 WhiteEnd" d="m606.01 554.91-13.062 14.415"/>
   <path class="link thread24 WhiteEnd" d="m588.9 536.57 13.018 13.948"/>
   <path class="link thread26 WhiteStart" d="m617.14 530.8-11.13 24.104"/>
   <path class="link thread7 WhiteEnd" d="m548.83 519.13 15.942 30.543"/>
   <path class="link thread49 WhiteStart" d="m584.36 540.49-16.807 14.503"/>
   <path class="link thread24 WhiteStart" d="m583.97 518.56 4.9305 18.011"/>
   <path class="link thread49 WhiteEnd" d="m601.61 519.03-9.1854 12.68"/>
   <path class="link thread22 WhiteEnd" d="m507.68 502.06 5.3206 18.006"/>
   <path class="link thread63 WhiteStart" d="m542.94 520.29-28.246 5.5315"/>
   <path class="link thread7 WhiteStart" d="m532.65 488.31 16.179 30.821"/>
   <path class="link thread63 WhiteEnd" d="m582.39 512.77-27.659 5.2417"/>
   <path class="link thread24 WhiteEnd" d="m596.98 482.68-11.979 24.692"/>
   <path class="link thread63 WhiteStart" d="m595.9 517.17-13.515-4.401"/>
   <path class="link thread49 WhiteStart" d="m610.58 506.31-8.9712 12.719"/>
   <path class="link thread63 WhiteEnd" d="m619.66 525.35-12.39-4.3389"/>
   <path class="link thread11 WhiteStart" d="m666.84 559.14 13.248 15.068"/>
   <path class="link thread11 WhiteEnd" d="m648.06 518.36 12.555 30.727"/>
   <path class="link thread57 WhiteStart" d="m676.09 540.05-13.212 14.59"/>
   <path class="link thread28 WhiteStart" d="m676.34 517.26 3.7836 18.336"/>
   <path class="link thread26 WhiteEnd" d="m614.04 501.41 4.2513 18.103"/>
   <path class="link thread63 WhiteStart" d="m642.23 519.79-22.572 5.5632"/>
   <path class="link thread11 WhiteStart" d="m635.35 487.48 12.706 30.876"/>
   <path class="link thread63 WhiteEnd" d="m675.12 511.39-21.257 5.4729"/>
   <path class="link thread63 WhiteStart" d="m684.39 515.77-9.265-4.3861"/>
   <path class="link thread30 WhiteEnd" d="m674.87 452.15 9.4951 23.774"/>
   <path class="link thread26 WhiteStart" d="m601.02 487.12 13.012 14.291"/>
   <path class="link thread49 WhiteEnd" d="m633.07 481.93-14.838 15.188"/>
   <path class="link thread11 WhiteEnd" d="m613.59 463.74 15.092 14.099"/>
   <path class="link thread49 WhiteStart" d="m645.5 451.04-12.434 30.887"/>
   <path class="link thread26 WhiteEnd" d="m581.83 453.11 12.421 24.233"/>
   <path class="link thread24 WhiteStart" d="m609.64 468.25-12.652 14.435"/>
   <path class="link thread11 WhiteStart" d="m604.52 451.49 9.07 12.244"/>
   <path class="link thread24 WhiteEnd" d="m618.82 439.71-3.9546 18.159"/>
   <path class="link thread60 WhiteEnd" d="m647.74 445.48 21.303 5.2388"/>
   <path class="link thread30 WhiteStart" d="m678.6 433.79-3.7237 18.359"/>
   <path class="link thread60 WhiteStart" d="m624.71 440.89 23.035 4.5904"/>
   <path class="link thread49 WhiteEnd" d="m662.28 409.12-12.312 30.787"/>
   <path class="link thread22 WhiteStart" d="m492.84 487.86 14.837 14.195"/>
   <path class="link thread41 WhiteEnd" d="m529.87 483-17.636 15.149"/>
   <path class="link thread7 WhiteEnd" d="m507.13 465.16 18.016 14.132"/>
   <path class="link thread41 WhiteStart" d="m545.58 452.22-15.718 30.778"/>
   <path class="link thread22 WhiteEnd" d="m471.64 454.11 13.896 24.387"/>
   <path class="link thread20 WhiteStart" d="m502.88 469.4-14.372 14.316"/>
   <path class="link thread7 WhiteStart" d="m496.73 452.53 10.393 12.634"/>
   <path class="link thread20 WhiteEnd" d="m513.6 441.32-4.8992 18.056"/>
   <path class="link thread60 WhiteEnd" d="m600.95 446.67 12.281-4.7799"/>
   <path class="link thread24 WhiteStart" d="m607.71 415.72 11.112 23.994"/>
   <path class="link thread60 WhiteStart" d="m587.51 451.2 13.437-4.5251"/>
   <path class="link thread11 WhiteEnd" d="m588.24 429.21 9.1816 12.615"/>
   <path class="link thread60 WhiteEnd" d="m548.31 446.88 27.616 5.1362"/>
   <path class="link thread26 WhiteStart" d="m586.68 435-4.8565 18.11"/>
   <path class="link thread60 WhiteStart" d="m519.52 442.27 28.789 4.6107"/>
   <path class="link thread41 WhiteEnd" d="m566.62 410.94-15.585 30.596"/>
   <path class="link thread60 WhiteEnd" d="m492.92 447.9 14.958-4.76"/>
   <path class="link thread20 WhiteStart" d="m500.41 416.98 13.186 24.338"/>
   <path class="link thread60 WhiteStart" d="m477.4 452.43 15.525-4.5351"/>
   <path class="link thread7 WhiteEnd" d="m478.66 430.32 10.482 12.918"/>
   <path class="link thread18 WhiteStart" d="m376.26 488.85 15.357 14.126"/>
   <path class="link thread33 WhiteEnd" d="m414.99 484.03-18.713 15.175"/>
   <path class="link thread3 WhiteEnd" d="m390.99 466.34 19.169 14.13"/>
   <path class="link thread33 WhiteStart" d="m432.2 453.26-17.209 30.77"/>
   <path class="link thread18 WhiteEnd" d="m354.78 455.24 14.069 24.353"/>
   <path class="link thread16 WhiteStart" d="m386.67 470.5-14.828 14.292"/>
   <path class="link thread3 WhiteStart" d="m380.26 453.61 10.736 12.723"/>
   <path class="link thread16 WhiteEnd" d="m397.99 442.53-5.3006 18.047"/>
   <path class="link thread60 WhiteEnd" d="m435.13 448.02 30.591 5.1066"/>
   <path class="link thread22 WhiteStart" d="m476.96 436.07-5.3239 18.041"/>
   <path class="link thread60 WhiteStart" d="m403.92 443.41 31.209 4.6104"/>
   <path class="link thread33 WhiteEnd" d="m455.13 412.23-17.077 30.555"/>
   <path class="link thread14 WhiteStart" d="m261.13 490.31 14.638 14.036"/>
   <path class="link thread29 WhiteEnd" d="m298.56 485.27-18.184 15.223"/>
   <path class="link thread38 WhiteEnd" d="m275.12 467.59 18.644 14.067"/>
   <path class="link thread29 WhiteStart" d="m315.52 454.47-16.967 30.794"/>
   <path class="link thread14 WhiteEnd" d="m240.99 456.72 12.97 24.149"/>
   <path class="link thread12 WhiteStart" d="m270.91 471.86-14.106 14.296"/>
   <path class="link thread38 WhiteStart" d="m264.97 455.01 10.154 12.579"/>
   <path class="link thread12 WhiteEnd" d="m281.99 443.76-5.2069 18.063"/>
   <path class="link thread60 WhiteEnd" d="m376.39 449.03 15.852-4.7673"/>
   <path class="link thread16 WhiteStart" d="m384.1 418.09 13.881 24.448"/>
   <path class="link thread60 WhiteStart" d="m360.54 453.59 15.845-4.557"/>
   <path class="link thread3 WhiteEnd" d="m361.78 431.46 10.772 12.957"/>
   <path class="link thread60 WhiteEnd" d="m318.42 449.22 30.438 5.0436"/>
   <path class="link thread18 WhiteStart" d="m360.08 437.21-5.3086 18.03"/>
   <path class="link thread60 WhiteStart" d="m287.92 444.65 30.495 4.5703"/>
   <path class="link thread29 WhiteEnd" d="m338.2 413.4-16.883 30.566"/>
   <path class="link thread60 WhiteEnd" d="m261.2 450.34 15.071-4.7696"/>
   <path class="link thread12 WhiteStart" d="m268.65 419.38 13.337 24.377"/>
   <path class="link thread60 WhiteStart" d="m246.71 454.91 14.484-4.5738"/>
   <path class="link thread38 WhiteEnd" d="m247.32 432.88 10.146 12.762"/>
   <path class="link thread10 WhiteStart" d="m157.35 492.33 12.559 13.989"/>
   <path class="link thread25 WhiteEnd" d="m190.22 486.86-15.984 15.31"/>
   <path class="link thread46 WhiteEnd" d="m169.26 468.94 16.403 14.02"/>
   <path class="link thread25 WhiteStart" d="m205.23 456.03-15.005 30.827"/>
   <path class="link thread10 WhiteEnd" d="m140.43 458.67 10.479 23.706"/>
   <path class="link thread8 WhiteStart" d="m165.4 473.53-12.059 14.333"/>
   <path class="link thread46 WhiteStart" d="m160.66 456.74 8.597 12.199"/>
   <path class="link thread8 WhiteEnd" d="m175.31 444.99-4.5829 18.14"/>
   <path class="link thread60 WhiteEnd" d="m207.85 450.64 27.238 4.998"/>
   <path class="link thread14 WhiteStart" d="m245.78 438.68-4.7872 18.04"/>
   <path class="link thread60 WhiteStart" d="m181.22 446.01 26.63 4.6264"/>
   <path class="link thread25 WhiteEnd" d="m225.44 414.69-14.951 30.564"/>
   <path class="link thread60 WhiteEnd" d="m157.21 451.84 12.495-4.7299"/>
   <path class="link thread8 WhiteStart" d="m163.72 420.84 11.595 24.151"/>
   <path class="link thread60 WhiteStart" d="m145.99 456.41 11.217-4.5696"/>
   <path class="link thread46 WhiteEnd" d="m145.21 434.64 8.5651 12.275"/>
   <path class="link thread21 WhiteEnd" d="m100.75 488.65-11.864 15.558"/>
   <path class="link thread54 WhiteEnd" d="m84.662 469.88 12.186 14.218"/>
   <path class="link thread21 WhiteStart" d="m111.96 457.78-11.209 30.876"/>
   <path class="link thread4 WhiteEnd" d="m89.187 445.56-3.4272 18.423"/>
   <path class="link thread60 WhiteEnd" d="m114.01 452.14 20.599 5.0964"/>
   <path class="link thread10 WhiteStart" d="m144.04 440.53-3.6055 18.144"/>
   <path class="link thread60 WhiteStart" d="m94.987 447.09 19.023 5.0424"/>
   <path class="link thread21 WhiteEnd" d="m127.07 415.96-11.023 30.537"/>
   <path class="link thread4 WhiteStart" d="m80.917 422.14 8.2705 23.415"/>
   <path class="link thread55 WhiteEnd" d="m88.925 387.77-7.9972-3.9635"/>
   <path class="link thread46 WhiteStart" d="m131.25 420.26 13.96 14.384"/>
   <path class="link thread10 WhiteEnd" d="m161.12 415.43-12.086 14.597"/>
   <path class="link thread8 WhiteEnd" d="m144.87 397.15 12.267 13.791"/>
   <path class="link thread10 WhiteStart" d="m172.76 391.54-11.637 23.886"/>
   <path class="link thread46 WhiteEnd" d="m113.41 380.47 11.501 29.883"/>
   <path class="link thread21 WhiteStart" d="m140.74 401.51-13.672 14.445"/>
   <path class="link thread8 WhiteStart" d="m141.07 379.62 3.7939 17.528"/>
   <path class="link thread21 WhiteEnd" d="m156.88 380.04-8.5702 12.202"/>
   <path class="link thread6 WhiteEnd" d="m83.837 364.15 3.8246 17.751"/>
   <path class="link thread55 WhiteStart" d="m107.66 382.19-18.738 5.58"/>
   <path class="link thread46 WhiteStart" d="m101.73 350.77 11.682 29.699"/>
   <path class="link thread55 WhiteEnd" d="m139.8 373.76-20.574 5.2335"/>
   <path class="link thread8 WhiteEnd" d="m152.21 345.12-10.021 23.133"/>
   <path class="link thread55 WhiteStart" d="m151.25 377.97-11.45-4.2098"/>
   <path class="link thread21 WhiteStart" d="m165.35 367.83-8.4699 12.209"/>
   <path class="link thread55 WhiteEnd" d="m175.38 386.15-12.803-4.2255"/>
   <path class="link thread38 WhiteStart" d="m230.05 418.52 17.265 14.359"/>
   <path class="link thread14 WhiteEnd" d="m265.77 414.12-14.247 14.484"/>
   <path class="link thread12 WhiteEnd" d="m247 396.31 14.42 13.684"/>
   <path class="link thread14 WhiteStart" d="m279.19 390.02-13.42 24.101"/>
   <path class="link thread38 WhiteEnd" d="m207.4 379.53 15.3 29.815"/>
   <path class="link thread25 WhiteStart" d="m242.44 400.2-16.994 14.488"/>
   <path class="link thread12 WhiteStart" d="m242.11 378.91 4.896 17.396"/>
   <path class="link thread25 WhiteEnd" d="m260.93 378.94-10.174 12.682"/>
   <path class="link thread10 WhiteEnd" d="m168.77 362.9 4.9695 17.473"/>
   <path class="link thread55 WhiteStart" d="m201.53 380.75-26.141 5.4001"/>
   <path class="link thread38 WhiteStart" d="m192.01 350.03 15.393 29.5"/>
   <path class="link thread55 WhiteEnd" d="m240.48 373.13-27.187 5.2594"/>
   <path class="link thread3 WhiteStart" d="m342.97 417.05 18.813 14.408"/>
   <path class="link thread18 WhiteEnd" d="m381.14 412.87-15.034 14.435"/>
   <path class="link thread16 WhiteEnd" d="m361.4 395.19 15.27 13.671"/>
   <path class="link thread18 WhiteStart" d="m394.99 388.73-13.852 24.135"/>
   <path class="link thread3 WhiteEnd" d="m317.91 378.38 17.289 29.835"/>
   <path class="link thread29 WhiteStart" d="m356.68 398.9-18.478 14.502"/>
   <path class="link thread16 WhiteStart" d="m355.94 377.81 5.4638 17.383"/>
   <path class="link thread29 WhiteEnd" d="m375.98 377.75-10.727 12.84"/>
   <path class="link thread12 WhiteEnd" d="m255.74 344.27-12.453 23.559"/>
   <path class="link thread55 WhiteStart" d="m255.16 377.3-14.678-4.1699"/>
   <path class="link thread25 WhiteStart" d="m270.92 366.36-9.9929 12.579"/>
   <path class="link thread55 WhiteEnd" d="m282.11 384.78-15.399-4.2404"/>
   <path class="link thread14 WhiteEnd" d="m274.65 361.67 5.6154 17.4"/>
   <path class="link thread55 WhiteStart" d="m312 379.43-29.886 5.3451"/>
   <path class="link thread3 WhiteStart" d="m300.52 348.91 17.384 29.463"/>
   <path class="link thread55 WhiteEnd" d="m354.14 372.09-30.322 5.2618"/>
   <path class="link thread16 WhiteEnd" d="m370.51 343.16-13.412 23.705"/>
   <path class="link thread55 WhiteStart" d="m370.17 376.24-16.029-4.1568"/>
   <path class="link thread29 WhiteStart" d="m386.47 365.07-10.49 12.676"/>
   <path class="link thread55 WhiteEnd" d="m397.98 383.53-16.201-4.2542"/>
   <path class="link thread7 WhiteStart" d="m459.89 415.89 18.77 14.434"/>
   <path class="link thread22 WhiteEnd" d="m497.55 411.7-14.619 14.404"/>
   <path class="link thread20 WhiteEnd" d="m478.23 394.02 14.901 13.634"/>
   <path class="link thread22 WhiteStart" d="m510.6 387.65-13.046 24.051"/>
   <path class="link thread7 WhiteEnd" d="m434.46 377.2 17.62 29.858"/>
   <path class="link thread33 WhiteStart" d="m473.51 397.74-18.38 14.492"/>
   <path class="link thread20 WhiteStart" d="m472.67 376.63 5.5572 17.391"/>
   <path class="link thread33 WhiteEnd" d="m492.37 376.56-10.365 12.794"/>
   <path class="link thread18 WhiteEnd" d="m390.29 360.45 5.7919 17.384"/>
   <path class="link thread55 WhiteStart" d="m428.55 378.23-30.573 5.3009"/>
   <path class="link thread7 WhiteStart" d="m416.71 347.75 17.758 29.456"/>
   <path class="link thread55 WhiteEnd" d="m470.84 370.91-30.466 5.2663"/>
   <path class="link thread11 WhiteStart" d="m571.2 414.81 17.035 14.397"/>
   <path class="link thread26 WhiteEnd" d="m605.19 410.28-12.949 14.459"/>
   <path class="link thread24 WhiteEnd" d="m587.81 392.41 13.194 13.567"/>
   <path class="link thread26 WhiteStart" d="m616.16 386.44-10.97 23.836"/>
   <path class="link thread11 WhiteEnd" d="m547.58 375.85 16.177 29.807"/>
   <path class="link thread41 WhiteStart" d="m583.3 396.36-16.676 14.578"/>
   <path class="link thread24 WhiteStart" d="m582.7 374.98 5.1126 17.43"/>
   <path class="link thread41 WhiteEnd" d="m600.41 374.95-9.0843 12.588"/>
   <path class="link thread20 WhiteEnd" d="m486.91 341.95-13.156 23.717"/>
   <path class="link thread55 WhiteStart" d="m486.56 375.04-15.722-4.1272"/>
   <path class="link thread33 WhiteStart" d="m502.48 363.97-10.111 12.595"/>
   <path class="link thread55 WhiteEnd" d="m513.46 382.38-15.308-4.2204"/>
   <path class="link thread22 WhiteEnd" d="m506.24 359.29 5.4332 17.363"/>
   <path class="link thread55 WhiteStart" d="m541.69 376.98-28.228 5.3981"/>
   <path class="link thread11 WhiteStart" d="m531.24 346.49 16.346 29.368"/>
   <path class="link thread55 WhiteEnd" d="m581.01 369.22-27.545 5.4659"/>
   <path class="link thread24 WhiteEnd" d="m595.46 340.18-11.774 23.665"/>
   <path class="link thread55 WhiteStart" d="m594.65 373.25-13.643-4.0328"/>
   <path class="link thread41 WhiteStart" d="m609.29 362.64-8.8822 12.318"/>
   <path class="link thread55 WhiteEnd" d="m618.67 380.99-12.563-4.1521"/>
   <path class="link thread15 WhiteStart" d="m666.37 413.51 13.417 14.4"/>
   <path class="link thread15 WhiteEnd" d="m647.1 373.84 12.807 29.768"/>
   <path class="link thread49 WhiteStart" d="m675.4 394.27-13.116 14.847"/>
   <path class="link thread28 WhiteStart" d="m675.4 372.09 3.9666 17.689"/>
   <path class="link thread26 WhiteEnd" d="m612.8 357.77 4.3979 17.403"/>
   <path class="link thread55 WhiteStart" d="m641.28 375.3-22.617 5.6869"/>
   <path class="link thread15 WhiteStart" d="m634.19 344.58 12.912 29.257"/>
   <path class="link thread55 WhiteEnd" d="m674.09 366.23-21.212 5.9791"/>
   <path class="link thread28 WhiteEnd" d="m685.52 337.19-9.2366 23.465"/>
   <path class="link thread55 WhiteStart" d="m683.49 370.16-9.4028-3.9298"/>
   <path class="link thread30 WhiteEnd" d="m673.45 309.6 9.6696 22.093"/>
   <path class="link thread26 WhiteStart" d="m599.67 344.46 13.129 13.313"/>
   <path class="link thread41 WhiteEnd" d="m631.77 339.09-14.694 14.467"/>
   <path class="link thread15 WhiteEnd" d="m612.09 322.1 15.134 13.069"/>
   <path class="link thread41 WhiteStart" d="m643.88 309.86-12.108 29.236"/>
   <path class="link thread26 WhiteEnd" d="m579.94 312.33 12.599 22.611"/>
   <path class="link thread24 WhiteStart" d="m608.03 326.52-12.573 13.666"/>
   <path class="link thread15 WhiteStart" d="m602.97 310.65 9.1201 11.454"/>
   <path class="link thread24 WhiteEnd" d="m617.29 299.37-3.859 16.882"/>
   <path class="link thread52 WhiteEnd" d="m646.17 304.31 21.386 4.1408"/>
   <path class="link thread30 WhiteStart" d="m677.06 292.55-3.61 17.047"/>
   <path class="link thread52 WhiteStart" d="m623.2 300.38 22.969 3.9295"/>
   <path class="link thread41 WhiteEnd" d="m660.42 270.35-11.931 28.435"/>
   <path class="link thread22 WhiteStart" d="m491.37 345.96 14.861 13.333"/>
   <path class="link thread33 WhiteEnd" d="m528.32 341.24-17.436 14.249"/>
   <path class="link thread11 WhiteEnd" d="m505.53 324.38 17.962 13.294"/>
   <path class="link thread33 WhiteStart" d="m543.66 312.33-15.346 28.918"/>
   <path class="link thread22 WhiteEnd" d="m469.82 314 13.956 22.835"/>
   <path class="link thread20 WhiteStart" d="m501.17 328.5-14.259 13.452"/>
   <path class="link thread11 WhiteStart" d="m495.16 312.47 10.375 11.911"/>
   <path class="link thread20 WhiteEnd" d="m512 301.87-4.8122 16.745"/>
   <path class="link thread52 WhiteEnd" d="m599.24 305.96 12.417-4.5278"/>
   <path class="link thread24 WhiteStart" d="m606.01 277.81 11.277 21.56"/>
   <path class="link thread52 WhiteStart" d="m585.64 310.45 13.601-4.4939"/>
   <path class="link thread15 WhiteEnd" d="m586.25 289.83 9.2191 11.45"/>
   <path class="link thread52 WhiteEnd" d="m546.48 307.03 27.537 4.3664"/>
   <path class="link thread26 WhiteStart" d="m584.63 295.61-4.6942 16.723"/>
   <path class="link thread52 WhiteStart" d="m517.94 302.76 28.54 4.2695"/>
   <path class="link thread33 WhiteEnd" d="m564.49 273.79-15.155 27.964"/>
   <path class="link thread52 WhiteEnd" d="m491.22 307.95 15.027-4.3931"/>
   <path class="link thread20 WhiteStart" d="m498.77 279.92 13.237 21.946"/>
   <path class="link thread52 WhiteStart" d="m475.6 312.36 15.618-4.4172"/>
   <path class="link thread11 WhiteEnd" d="m476.8 291.65 10.441 11.801"/>
   <path class="link thread18 WhiteStart" d="m375.02 347.11 15.268 13.343"/>
   <path class="link thread29 WhiteEnd" d="m413.61 342.61-18.552 14.197"/>
   <path class="link thread7 WhiteEnd" d="m389.73 325.75 18.98 13.396"/>
   <path class="link thread29 WhiteStart" d="m430.51 313.77-16.905 28.833"/>
   <path class="link thread18 WhiteEnd" d="m353.41 315.16 13.965 22.875"/>
   <path class="link thread16 WhiteStart" d="m385.28 329.78-14.774 13.381"/>
   <path class="link thread7 WhiteStart" d="m379.11 313.7 10.617 12.049"/>
   <path class="link thread16 WhiteEnd" d="m396.82 303.31-5.2874 16.725"/>
   <path class="link thread52 WhiteEnd" d="m433.55 308.6 30.342 4.5143"/>
   <path class="link thread22 WhiteStart" d="m475.01 297.38-5.1869 16.617"/>
   <path class="link thread52 WhiteStart" d="m402.76 304.16 30.787 4.4369"/>
   <path class="link thread29 WhiteEnd" d="m453.33 275.63-16.694 27.822"/>
   <path class="link thread52 WhiteEnd" d="m375.14 309.2 15.89-4.3208"/>
   <path class="link thread16 WhiteStart" d="m383.05 281.19 13.769 22.118"/>
   <path class="link thread52 WhiteStart" d="m359.2 313.58 15.943-4.3753"/>
   <path class="link thread7 WhiteEnd" d="m360.49 292.85 10.646 11.886"/>
   <path class="link thread14 WhiteStart" d="m260.15 348.33 14.502 13.335"/>
   <path class="link thread25 WhiteEnd" d="m297.47 343.74-18.099 14.216"/>
   <path class="link thread3 WhiteEnd" d="m274.23 326.8 18.394 13.411"/>
   <path class="link thread25 WhiteStart" d="m314.3 314.9-16.825 28.842"/>
   <path class="link thread14 WhiteEnd" d="m239.98 316.26 12.814 22.778"/>
   <path class="link thread12 WhiteStart" d="m269.87 330.92-14.132 13.352"/>
   <path class="link thread3 WhiteStart" d="m264.23 314.83 10.005 11.966"/>
   <path class="link thread12 WhiteEnd" d="m281.3 304.33-5.2714 16.749"/>
   <path class="link thread52 WhiteEnd" d="m317.32 309.72 30.161 4.5497"/>
   <path class="link thread18 WhiteStart" d="m358.68 298.56-5.2658 16.6"/>
   <path class="link thread52 WhiteStart" d="m287.24 305.21 30.084 4.5054"/>
   <path class="link thread25 WhiteEnd" d="m337.05 276.76-16.65 27.813"/>
   <path class="link thread10 WhiteStart" d="m156.3 349.51 12.476 13.391"/>
   <path class="link thread21 WhiteEnd" d="m189.23 344.71-15.975 14.203"/>
   <path class="link thread38 WhiteEnd" d="m168.41 327.38 16.212 13.498"/>
   <path class="link thread21 WhiteStart" d="m204.23 315.9-14.992 28.817"/>
   <path class="link thread10 WhiteEnd" d="m139.31 317.19 10.387 22.487"/>
   <path class="link thread8 WhiteStart" d="m164.37 331.81-12.157 13.314"/>
   <path class="link thread38 WhiteStart" d="m159.9 315.68 8.5105 11.692"/>
   <path class="link thread8 WhiteEnd" d="m174.72 304.78-4.6967 16.817"/>
   <path class="link thread52 WhiteEnd" d="m260.38 310.23 15.151-4.2744"/>
   <path class="link thread12 WhiteStart" d="m268.13 282.17 13.168 22.159"/>
   <path class="link thread52 WhiteStart" d="m245.73 314.56 14.642-4.332"/>
   <path class="link thread3 WhiteEnd" d="m246.47 293.88 10.016 11.774"/>
   <path class="link thread52 WhiteEnd" d="m206.99 310.57 27.073 4.6705"/>
   <path class="link thread14 WhiteStart" d="m244.8 299.65-4.8206 16.616"/>
   <path class="link thread52 WhiteStart" d="m180.63 305.84 26.368 4.7324"/>
   <path class="link thread21 WhiteEnd" d="m224.68 277.49-14.859 27.79"/>
   <path class="link thread17 WhiteEnd" d="m99.535 345.19-11.872 14.337"/>
   <path class="link thread46 WhiteEnd" d="m83.47 326.78 12.12 13.886"/>
   <path class="link thread17 WhiteStart" d="m110.72 316.39-11.188 28.803"/>
   <path class="link thread4 WhiteEnd" d="m88.183 303.79-3.5087 17.116"/>
   <path class="link thread52 WhiteEnd" d="m156.37 310.83 12.654-4.173"/>
   <path class="link thread8 WhiteStart" d="m163.25 282.67 11.468 22.113"/>
   <path class="link thread52 WhiteStart" d="m144.93 315.09 11.441-4.2608"/>
   <path class="link thread38 WhiteEnd" d="m144.26 294.6 8.523 11.419"/>
   <path class="link thread52 WhiteEnd" d="m112.9 310.79 20.579 4.9814"/>
   <path class="link thread10 WhiteStart" d="m142.97 300.47-3.6668 16.722"/>
   <path class="link thread52 WhiteStart" d="m93.956 305.43 18.939 5.3677"/>
   <path class="link thread17 WhiteEnd" d="m126.06 277.46-10.96 27.758"/>
   <path class="link thread4 WhiteStart" d="m79.784 282.1 8.3991 21.688"/>
   <path class="link thread38 WhiteStart" d="m130.43 281.57 13.832 13.035"/>
   <path class="link thread10 WhiteEnd" d="m160.49 277.34-12.124 12.893"/>
   <path class="link thread8 WhiteEnd" d="m144.02 260.66 12.254 12.413"/>
   <path class="link thread10 WhiteStart" d="m172.13 256.13-11.639 21.212"/>
   <path class="link thread38 WhiteEnd" d="m112.45 244.86 11.297 27.057"/>
   <path class="link thread17 WhiteStart" d="m139.64 264.76-13.581 12.699"/>
   <path class="link thread8 WhiteStart" d="m140.21 245.16 3.8119 15.502"/>
   <path class="link thread17 WhiteEnd" d="m156.21 245.02-8.4984 10.906"/>
   <path class="link thread47 WhiteStart" d="m106.6 246.17-18.768 4.2056"/>
   <path class="link thread38 WhiteStart" d="m100.95 218.75 11.501 26.11"/>
   <path class="link thread47 WhiteEnd" d="m138.78 239.33-20.455 4.2982"/>
   <path class="link thread3 WhiteStart" d="m229.48 281.1 16.995 12.786"/>
   <path class="link thread14 WhiteEnd" d="m265.07 277.01-14.153 12.844"/>
   <path class="link thread12 WhiteEnd" d="m246.18 260.96 14.314 12.159"/>
   <path class="link thread14 WhiteStart" d="m278.39 255.62-13.317 21.393"/>
   <path class="link thread3 WhiteEnd" d="m206.82 245.59 14.931 26.67"/>
   <path class="link thread21 WhiteStart" d="m241.43 264.62-16.742 12.87"/>
   <path class="link thread12 WhiteStart" d="m241.31 245.68 4.8768 15.288"/>
   <path class="link thread21 WhiteEnd" d="m260.15 245.05-10.011 11.402"/>
   <path class="link thread8 WhiteEnd" d="m151.5 214.35-9.9991 19.634"/>
   <path class="link thread47 WhiteStart" d="m150.5 243.16-11.727-3.8276"/>
   <path class="link thread17 WhiteStart" d="m164.56 234.5-8.3504 10.52"/>
   <path class="link thread47 WhiteEnd" d="m175.02 250.87-13.079-4.0681"/>
   <path class="link thread10 WhiteEnd" d="m168.29 229.8 4.9025 15.354"/>
   <path class="link thread47 WhiteStart" d="m200.9 246.57-25.886 4.2997"/>
   <path class="link thread3 WhiteStart" d="m191.84 220.08 14.983 25.503"/>
   <path class="link thread47 WhiteEnd" d="m239.48 239.96-26.748 4.6071"/>
   <path class="link thread12 WhiteEnd" d="m254.98 214.91-12.337 19.95"/>
   <path class="link thread47 WhiteStart" d="m254.33 243.62-14.844-3.6583"/>
   <path class="link thread21 WhiteStart" d="m269.95 234.17-9.8016 10.884"/>
   <path class="link thread47 WhiteEnd" d="m281.56 250.52-15.591-3.982"/>
   <path class="link thread7 WhiteStart" d="m342 280.15 18.495 12.692"/>
   <path class="link thread18 WhiteEnd" d="m379.88 276.09-14.848 12.828"/>
   <path class="link thread16 WhiteEnd" d="m360.04 260.32 15.148 12.041"/>
   <path class="link thread18 WhiteStart" d="m393.53 254.67-13.646 21.422"/>
   <path class="link thread7 WhiteEnd" d="m316.92 245.2 16.902 26.497"/>
   <path class="link thread25 WhiteStart" d="m355.16 263.81-18.105 12.948"/>
   <path class="link thread16 WhiteStart" d="m354.58 245.11 5.4603 15.21"/>
   <path class="link thread25 WhiteEnd" d="m374.55 244.31-10.487 11.569"/>
   <path class="link thread14 WhiteEnd" d="m273.97 229.71 5.5324 15.173"/>
   <path class="link thread47 WhiteStart" d="m310.99 246.09-29.433 4.4263"/>
   <path class="link thread7 WhiteStart" d="m299.97 219.97 16.951 25.229"/>
   <path class="link thread47 WhiteEnd" d="m352.55 239.46-29.703 4.7859"/>
   <path class="link thread11 WhiteStart" d="m458.28 279.01 18.514 12.637"/>
   <path class="link thread22 WhiteEnd" d="m495.67 274.78-14.394 12.868"/>
   <path class="link thread20 WhiteEnd" d="m476.12 259.1 14.868 11.934"/>
   <path class="link thread22 WhiteStart" d="m508.45 253.36-12.783 21.425"/>
   <path class="link thread11 WhiteEnd" d="m432.72 244.21 17.317 26.407"/>
   <path class="link thread29 WhiteStart" d="m471.26 262.62-17.934 13.013"/>
   <path class="link thread20 WhiteStart" d="m470.5 243.91 5.6163 15.184"/>
   <path class="link thread29 WhiteEnd" d="m490.15 242.99-10.089 11.58"/>
   <path class="link thread16 WhiteEnd" d="m369.04 214.38-13.19 20.073"/>
   <path class="link thread47 WhiteStart" d="m368.69 243.02-16.145-3.5536"/>
   <path class="link thread25 WhiteStart" d="m384.79 233.31-10.232 10.997"/>
   <path class="link thread47 WhiteEnd" d="m396.75 249.61-16.362-3.9112"/>
   <path class="link thread18 WhiteEnd" d="m388.87 228.92 5.7433 15.088"/>
   <path class="link thread47 WhiteStart" d="m426.79 245.1-30.036 4.5128"/>
   <path class="link thread11 WhiteStart" d="m415.34 219.12 17.385 25.085"/>
   <path class="link thread47 WhiteEnd" d="m468.42 238.28-29.782 4.9412"/>
   <path class="link thread20 WhiteEnd" d="m484.5 213.08-12.855 20.149"/>
   <path class="link thread47 WhiteStart" d="m484.29 241.72-15.864-3.437"/>
   <path class="link thread29 WhiteStart" d="m499.99 232.01-9.8382 10.984"/>
   <path class="link thread47 WhiteEnd" d="m511.52 248.21-15.545-3.7934"/>
   <path class="link thread15 WhiteStart" d="m569.32 277.35 16.935 12.486"/>
   <path class="link thread26 WhiteEnd" d="m603.23 272.5-12.78 13.05"/>
   <path class="link thread24 WhiteEnd" d="m585.43 256.77 13.307 11.757"/>
   <path class="link thread26 WhiteStart" d="m613.96 251.08-10.729 21.418"/>
   <path class="link thread15 WhiteEnd" d="m545.27 242.41 16.084 26.261"/>
   <path class="link thread33 WhiteStart" d="m580.77 260.55-16.283 13.236"/>
   <path class="link thread24 WhiteStart" d="m580.16 241.58 5.2736 15.19"/>
   <path class="link thread33 WhiteEnd" d="m597.94 240.51-8.8534 11.505"/>
   <path class="link thread22 WhiteEnd" d="m503.99 227.54 5.478 15.032"/>
   <path class="link thread47 WhiteStart" d="m539.36 243.43-27.836 4.7822"/>
   <path class="link thread15 WhiteStart" d="m529.11 217.5 16.165 24.913"/>
   <path class="link thread47 WhiteEnd" d="m578.19 235.91-27.029 5.3393"/>
   <path class="link thread24 WhiteEnd" d="m592.61 210.39-11.471 20.29"/>
   <path class="link thread47 WhiteStart" d="m592.1 239.15-13.91-3.2379"/>
   <path class="link thread33 WhiteStart" d="m606.64 229.62-8.6947 10.883"/>
   <path class="link thread47 WhiteEnd" d="m616.65 245.71-12.926-3.5988"/>
   <path class="link thread19 WhiteStart" d="m664.85 274.39 13.448 12.285"/>
   <path class="link thread19 WhiteEnd" d="m644.94 238.89 12.839 26.078"/>
   <path class="link thread41 WhiteStart" d="m673.29 256.51-12.867 13.833"/>
   <path class="link thread28 WhiteStart" d="m673.21 236.71 4.1727 15.409"/>
   <path class="link thread26 WhiteEnd" d="m610.38 224.93 4.5343 15.034"/>
   <path class="link thread47 WhiteStart" d="m639.1 240.29-22.455 5.4199"/>
   <path class="link thread19 WhiteStart" d="m632.06 214.2 12.88 24.691"/>
   <path class="link thread47 WhiteEnd" d="m671.64 230.92-20.952 6.2508"/>
   <path class="link thread28 WhiteEnd" d="m683.27 204.97-9.1753 20.478"/>
   <path class="link thread47 WhiteStart" d="m681.39 233.95-9.7506-3.0291"/>
   <path class="link thread30 WhiteEnd" d="m670.61 181.63 9.7912 18.058"/>
   <path class="link thread26 WhiteStart" d="m597.26 214.19 13.126 10.74"/>
   <path class="link thread33 WhiteEnd" d="m629.28 208.88-14.327 12.174"/>
   <path class="link thread19 WhiteEnd" d="m609.45 194.96 14.915 10.468"/>
   <path class="link thread33 WhiteStart" d="m640.85 184.22-11.57 24.657"/>
   <path class="link thread26 WhiteEnd" d="m576.6 186.92 12.626 18.513"/>
   <path class="link thread24 WhiteStart" d="m605.03 199.01-12.419 11.381"/>
   <path class="link thread19 WhiteStart" d="m600.45 185.38 9.0049 9.5834"/>
   <path class="link thread24 WhiteEnd" d="m614.87 175.37-3.8134 13.81"/>
   <path class="link thread23 WhiteEnd" d="m675.66 161.83 6.7646 8.1892"/>
   <path class="link thread44 WhiteEnd" d="m643.4 178.79 21.247 2.2236"/>
   <path class="link thread30 WhiteStart" d="m674.18 167.65-3.5675 13.989"/>
   <path class="link thread44 WhiteStart" d="m620.82 176.08 22.577 2.7057"/>
   <path class="link thread33 WhiteEnd" d="m657.44 150.51-11.37 22.9"/>
   <path class="link thread22 WhiteStart" d="m489.32 216.65 14.669 10.885"/>
   <path class="link thread29 WhiteEnd" d="m525.84 212.46-16.912 11.668"/>
   <path class="link thread15 WhiteEnd" d="m503.24 198.39 17.507 10.902"/>
   <path class="link thread29 WhiteStart" d="m540.52 188.48-14.676 23.987"/>
   <path class="link thread22 WhiteEnd" d="m467.12 189.5 13.826 18.748"/>
   <path class="link thread20 WhiteStart" d="m498.52 202.09-14.015 10.987"/>
   <path class="link thread15 WhiteStart" d="m493.11 188.31 10.129 10.078"/>
   <path class="link thread20 WhiteEnd" d="m509.96 179.15-4.7431 13.579"/>
   <path class="link thread44 WhiteEnd" d="m596.34 181 12.784-3.8906"/>
   <path class="link thread24 WhiteStart" d="m603.56 158.96 11.307 16.405"/>
   <path class="link thread44 WhiteStart" d="m582.35 185.2 13.989-4.1966"/>
   <path class="link thread19 WhiteEnd" d="m583.03 167.72 9.0681 9.0462"/>
   <path class="link thread44 WhiteEnd" d="m543.65 183.36 26.992 2.9214"/>
   <path class="link thread26 WhiteStart" d="m581.12 173.41-4.518 13.514"/>
   <path class="link thread44 WhiteStart" d="m515.92 179.89 27.732 3.4673"/>
   <path class="link thread29 WhiteEnd" d="m561.36 156.34-14.426 22.002"/>
   <path class="link thread44 WhiteEnd" d="m488.86 184.08 15.261-3.5669"/>
   <path class="link thread20 WhiteStart" d="m496.84 162.42 13.127 16.726"/>
   <path class="link thread44 WhiteStart" d="m472.94 188.05 15.92-3.9702"/>
   <path class="link thread15 WhiteEnd" d="m474.26 170.59 10.192 9.4137"/>
   <path class="link thread18 WhiteStart" d="m373.87 217.92 14.999 10.994"/>
   <path class="link thread25 WhiteEnd" d="m411.92 214.19-17.989 11.495"/>
   <path class="link thread11 WhiteEnd" d="m388.38 199.96 18.402 11.13"/>
   <path class="link thread25 WhiteStart" d="m428.17 190.46-16.254 23.731"/>
   <path class="link thread18 WhiteEnd" d="m351.73 190.65 13.77 18.879"/>
   <path class="link thread16 WhiteStart" d="m383.57 203.54-14.536 10.834"/>
   <path class="link thread11 WhiteStart" d="m378.08 189.69 10.306 10.27"/>
   <path class="link thread16 WhiteEnd" d="m395.8 180.85-5.245 13.513"/>
   <path class="link thread44 WhiteEnd" d="m431.56 185.51 29.592 3.3214"/>
   <path class="link thread22 WhiteStart" d="m472.14 176.21-5.0224 13.294"/>
   <path class="link thread44 WhiteStart" d="m401.75 181.63 29.815 3.8842"/>
   <path class="link thread25 WhiteEnd" d="m451.11 159.05-15.978 21.636"/>
   <path class="link thread44 WhiteEnd" d="m373.83 185.45 16.099-3.3709"/>
   <path class="link thread16 WhiteStart" d="m382.23 163.9 13.572 16.95"/>
   <path class="link thread44 WhiteStart" d="m357.57 189.28 16.256-3.8241"/>
   <path class="link thread11 WhiteEnd" d="m359.07 171.82 10.353 9.5596"/>
   <path class="link thread14 WhiteStart" d="m259.71 218.6 14.261 11.115"/>
   <path class="link thread21 WhiteEnd" d="m296.63 214.99-17.625 11.449"/>
   <path class="link thread7 WhiteEnd" d="m273.72 200.49 17.836 11.294"/>
   <path class="link thread21 WhiteStart" d="m312.93 191.32-16.299 23.675"/>
   <path class="link thread14 WhiteEnd" d="m239.04 190.93 12.61 18.978"/>
   <path class="link thread12 WhiteStart" d="m268.96 204.15-13.989 10.76"/>
   <path class="link thread7 WhiteStart" d="m264.02 190.18 9.7004 10.306"/>
   <path class="link thread12 WhiteEnd" d="m281.21 181.36-5.3022 13.54"/>
   <path class="link thread44 WhiteEnd" d="m316.33 186.38 29.445 3.5534"/>
   <path class="link thread18 WhiteStart" d="m356.89 177.41-5.1579 13.237"/>
   <path class="link thread44 WhiteStart" d="m287.15 182.21 29.177 4.1654"/>
   <path class="link thread21 WhiteEnd" d="m335.98 160.04-16.061 21.532"/>
   <path class="link thread44 WhiteEnd" d="m259.91 185.81 15.43-3.2242"/>
   <path class="link thread12 WhiteStart" d="m268.29 164.19 12.918 17.17"/>
   <path class="link thread44 WhiteStart" d="m244.87 189.5 15.036-3.6884"/>
   <path class="link thread7 WhiteEnd" d="m245.89 172.02 9.742 9.59"/>
   <path class="link thread10 WhiteStart" d="m155.91 218.41 12.375 11.388"/>
   <path class="link thread17 WhiteEnd" d="m188.8 214.91-15.655 11.365"/>
   <path class="link thread3 WhiteEnd" d="m168.19 199.71 15.779 11.635"/>
   <path class="link thread17 WhiteStart" d="m203.41 191.26-14.615 23.65"/>
   <path class="link thread10 WhiteEnd" d="m138.31 190.03 10.33 19.048"/>
   <path class="link thread8 WhiteStart" d="m163.68 203.67-12.18 10.679"/>
   <path class="link thread3 WhiteStart" d="m159.84 189.45 8.3481 10.259"/>
   <path class="link thread8 WhiteEnd" d="m174.96 180.41-4.7868 13.644"/>
   <path class="link thread44 WhiteEnd" d="m206.57 186.16 26.54 3.9039"/>
   <path class="link thread14 WhiteStart" d="m243.85 177.66-4.8039 13.275"/>
   <path class="link thread44 WhiteStart" d="m180.87 181.48 25.701 4.6746"/>
   <path class="link thread17 WhiteEnd" d="m224.37 159.66-14.451 21.514"/>
   <path class="link thread13 WhiteEnd" d="m98.531 213.26-11.759 11.373"/>
   <path class="link thread38 WhiteEnd" d="m82.324 196.56 12.029 12.398"/>
   <path class="link thread13 WhiteStart" d="m109.45 189.6-10.923 23.659"/>
   <path class="link thread4 WhiteEnd" d="m87.454 176.74-3.6267 14.009"/>
   <path class="link thread44 WhiteEnd" d="m156.06 184.8 13.064-3.0355"/>
   <path class="link thread8 WhiteStart" d="m163.66 162.92 11.301 17.491"/>
   <path class="link thread44 WhiteStart" d="m144.06 188.33 11.991-3.5308"/>
   <path class="link thread3 WhiteEnd" d="m143.62 170.8 8.4528 9.5174"/>
   <path class="link thread44 WhiteEnd" d="m111.97 184.15 20.484 4.5668"/>
   <path class="link thread10 WhiteStart" d="m142.02 176.58-3.7128 13.446"/>
   <path class="link thread44 WhiteStart" d="m93.197 178.48 18.772 5.6775"/>
   <path class="link thread13 WhiteEnd" d="m125.33 157.17-10.698 21.602"/>
   <path class="link thread4 WhiteStart" d="m78.858 158.96 8.5963 17.783"/>
   <path class="link thread3 WhiteStart" d="m130.14 160.76 13.478 10.039"/>
   <path class="link thread7 WhiteStart" d="m229.57 162.65 16.321 9.3676"/>
   <path class="link thread11 WhiteStart" d="m341.32 162.76 17.745 9.0579"/>
   <path class="link thread15 WhiteStart" d="m456.47 161.72 17.785 8.8692"/>
  </g>
  <rect transform="matrix(1 -.0011738 -.00042724 -1 0 0)" x="90.902" y="-651.74" width="584.55" height="483.83" stroke="#fafafa" stroke-linejoin="round" stroke-width="16.019"/>
 </g>
</svg>
