<?xml version="1.0" encoding="UTF-8"?>
<!--?xml version="1.0" encoding="UTF-8" standalone="no"?-->
<svg width="150" height="125" version="1.1" xmlns="http://www.w3.org/2000/svg">
 <g transform="matrix(.24983 0 0 .24972 -94.833 -64.501)" fill="none">
  <g stroke="#000" stroke-width="4.0036">
   <path class="link thread26 WhiteEnd" d="m962.26 751.37 20.614 13.734"/>
   <path class="link thread57 WhiteEnd" d="m942.61 731.79-5.5787 31.584"/>
   <path class="link thread59 WhiteStart" d="m957.3 754.75-21.314 14.529"/>
   <path class="link thread26 WhiteStart" d="m946.86 736.03 15.4 15.349"/>
   <path class="link thread59 WhiteEnd" d="m982.32 730.89-15.867 16.2"/>
   <path class="link thread20 WhiteEnd" d="m972.99 701.5 7.5191 23.673"/>
   <path class="link thread96 WhiteEnd" d="m949.7 702.26 17.287-0.56547"/>
   <path class="link thread20 WhiteStart" d="m959.44 677.08 13.553 24.411"/>
   <path class="link thread26 WhiteEnd" d="m925.75 702.69 13.856 23.909"/>
   <path class="link thread57 WhiteStart" d="m948.3 708.09-5.6932 23.699"/>
   <path class="link thread96 WhiteStart" d="m931.74 702.58 17.96-0.32409"/>
   <path class="link thread57 WhiteEnd" d="m956.52 671.84-5.5067 24.564"/>
   <path class="link thread22 WhiteEnd" d="m856.79 752.05 20.986 13.962"/>
   <path class="link thread16 WhiteStart" d="m877.87 737.4 4.8982 31.943"/>
   <path class="link thread53 WhiteEnd" d="m836.86 732.29-5.4772 31.763"/>
   <path class="link thread55 WhiteStart" d="m851.82 755.42-21.457 14.55"/>
   <path class="link thread22 WhiteStart" d="m841.13 736.52 15.666 15.534"/>
   <path class="link thread55 WhiteEnd" d="m876.96 731.46-15.974 16.303"/>
   <path class="link thread96 WhiteEnd" d="m896.86 702.45 22.888 0.19209"/>
   <path class="link thread26 WhiteStart" d="m918.44 678.28 7.3035 24.411"/>
   <path class="link thread16 WhiteEnd" d="m867.4 701.86 7.7185 23.898"/>
   <path class="link thread55 WhiteStart" d="m893.46 707.4-16.5 24.068"/>
   <path class="link thread96 WhiteStart" d="m873.4 701.98 23.456 0.47039"/>
   <path class="link thread55 WhiteEnd" d="m916.72 672.53-16.546 24.919"/>
   <path class="link thread96 WhiteEnd" d="m843.89 702.59 17.518-0.54622"/>
   <path class="link thread16 WhiteStart" d="m853.6 677.21 13.799 24.648"/>
   <path class="link thread22 WhiteEnd" d="m819.74 702.99 14.093 24.122"/>
   <path class="link thread53 WhiteStart" d="m842.51 708.43-5.6416 23.865"/>
   <path class="link thread96 WhiteStart" d="m825.74 702.89 18.143-0.30191"/>
   <path class="link thread53 WhiteEnd" d="m850.67 671.97-5.4874 24.759"/>
   <path class="link thread18 WhiteEnd" d="m750.6 752.31 21.196 14.155"/>
   <path class="link thread12 WhiteStart" d="m771.7 737.66 5.0877 32.137"/>
   <path class="link thread49 WhiteEnd" d="m730.51 732.43-5.338 31.781"/>
   <path class="link thread51 WhiteStart" d="m745.62 755.67-21.446 14.462"/>
   <path class="link thread18 WhiteStart" d="m734.77 736.65 15.824 15.66"/>
   <path class="link thread51 WhiteEnd" d="m770.76 731.74-15.96 16.291"/>
   <path class="link thread96 WhiteEnd" d="m790.66 702.66 23.088 0.26429"/>
   <path class="link thread22 WhiteStart" d="m812.31 678.39 7.4322 24.603"/>
   <path class="link thread12 WhiteEnd" d="m761.03 702.01 7.8605 24.021"/>
   <path class="link thread51 WhiteStart" d="m787.27 707.61-16.512 24.127"/>
   <path class="link thread96 WhiteStart" d="m767.03 702.15 23.628 0.51408"/>
   <path class="link thread51 WhiteEnd" d="m810.58 672.65-16.602 25.015"/>
   <path class="link thread14 WhiteEnd" d="m644.26 752.18 21.264 14.239"/>
   <path class="link thread8 WhiteStart" d="m665.27 737.59 5.2471 32.162"/>
   <path class="link thread45 WhiteEnd" d="m624.11 732.29-5.1408 31.646"/>
   <path class="link thread47 WhiteStart" d="m639.29 755.53-21.282 14.333"/>
   <path class="link thread14 WhiteStart" d="m628.38 736.51 15.885 15.671"/>
   <path class="link thread47 WhiteEnd" d="m664.3 731.67-15.843 16.214"/>
   <path class="link thread96 WhiteEnd" d="m737.43 702.68 17.607-0.49914"/>
   <path class="link thread12 WhiteStart" d="m747.1 677.24 13.932 24.771"/>
   <path class="link thread18 WhiteEnd" d="m713.23 703.05 14.24 24.212"/>
   <path class="link thread49 WhiteStart" d="m736.07 708.53-5.5583 23.906"/>
   <path class="link thread96 WhiteStart" d="m719.23 702.96 18.2-0.27559"/>
   <path class="link thread49 WhiteEnd" d="m744.16 672.01-5.4448 24.809"/>
   <path class="link thread96 WhiteEnd" d="m684.1 702.64 23.131 0.32658"/>
   <path class="link thread18 WhiteStart" d="m705.71 678.39 7.5135 24.658"/>
   <path class="link thread8 WhiteEnd" d="m654.45 701.97 7.9592 24.005"/>
   <path class="link thread47 WhiteStart" d="m680.72 707.6-16.415 24.076"/>
   <path class="link thread96 WhiteStart" d="m660.45 702.11 23.644 0.53251"/>
   <path class="link thread47 WhiteEnd" d="m703.96 672.65-16.554 24.985"/>
   <path class="link thread96 WhiteEnd" d="m630.88 702.61 17.578-0.47666"/>
   <path class="link thread8 WhiteStart" d="m640.47 677.24 13.985 24.736"/>
   <path class="link thread14 WhiteEnd" d="m606.75 702.99 14.3 24.142"/>
   <path class="link thread45 WhiteStart" d="m629.54 708.46-5.4353 23.833"/>
   <path class="link thread96 WhiteStart" d="m612.75 702.89 18.128-0.28435"/>
   <path class="link thread45 WhiteEnd" d="m637.52 672.01-5.3655 24.734"/>
   <path class="link thread10 WhiteEnd" d="m538.42 751.88 21.185 14.177"/>
   <path class="link thread4 WhiteStart" d="m559.2 737.39 5.3875 32"/>
   <path class="link thread41 WhiteEnd" d="m518.3 732.12-4.8868 31.384"/>
   <path class="link thread43 WhiteStart" d="m533.45 755.24-20.956 14.191"/>
   <path class="link thread10 WhiteStart" d="m522.58 736.33 15.834 15.553"/>
   <path class="link thread43 WhiteEnd" d="m558.2 731.48-15.611 16.095"/>
   <path class="link thread96 WhiteEnd" d="m577.75 702.56 22.998 0.3371"/>
   <path class="link thread14 WhiteStart" d="m599.2 678.43 7.5556 24.561"/>
   <path class="link thread4 WhiteEnd" d="m548.28 701.94 8.0093 23.845"/>
   <path class="link thread43 WhiteStart" d="m574.39 707.53-16.19 23.941"/>
   <path class="link thread96 WhiteStart" d="m554.28 702.07 23.472 0.49495"/>
   <path class="link thread43 WhiteEnd" d="m597.43 672.69-16.377 24.86"/>
   <path class="link thread6 WhiteEnd" d="m433.88 751.75 20.856 13.961"/>
   <path class="link thread64 WhiteStart" d="m454.25 737.35 5.4714 31.701"/>
   <path class="link thread37 WhiteEnd" d="m414.01 732.24-4.5622 31.087"/>
   <path class="link thread39 WhiteStart" d="m428.95 755.16-20.369 14.097"/>
   <path class="link thread6 WhiteStart" d="m418.29 736.44 15.589 15.308"/>
   <path class="link thread39 WhiteEnd" d="m453.23 731.44-15.212 15.97"/>
   <path class="link thread96 WhiteEnd" d="m524.88 702.61 17.407-0.49278"/>
   <path class="link thread4 WhiteStart" d="m534.34 677.4 13.947 24.545"/>
   <path class="link thread10 WhiteEnd" d="m500.99 703.04 14.243 23.923"/>
   <path class="link thread41 WhiteStart" d="m523.57 708.46-5.2729 23.659"/>
   <path class="link thread96 WhiteStart" d="m506.99 702.93 17.891-0.32756"/>
   <path class="link thread41 WhiteEnd" d="m531.37 672.18-5.241 24.556"/>
   <path class="link thread96 WhiteEnd" d="m472.37 702.68 22.624 0.28641"/>
   <path class="link thread10 WhiteStart" d="m493.44 678.7 7.55 24.342"/>
   <path class="link thread64 WhiteEnd" d="m443.34 702.18 7.9685 23.574"/>
   <path class="link thread39 WhiteStart" d="m469.04 707.68-15.809 23.76"/>
   <path class="link thread96 WhiteStart" d="m449.34 702.28 23.023 0.39926"/>
   <path class="link thread39 WhiteEnd" d="m491.66 672.97-16.028 24.678"/>
   <path class="link thread96 WhiteEnd" d="m420.35 702.93 17-0.55578"/>
   <path class="link thread64 WhiteStart" d="m429.59 677.95 13.757 24.222"/>
   <path class="link thread6 WhiteEnd" d="m396.99 703.5 13.965 23.577"/>
   <path class="link thread37 WhiteStart" d="m419.08 708.79-5.0662 23.444"/>
   <path class="link thread96 WhiteStart" d="m402.99 703.35 17.358-0.42284"/>
   <path class="link thread37 WhiteEnd" d="m426.62 672.74-5.055 24.317"/>
   <path class="link thread96 WhiteEnd" d="m369.19 703.33 21.8 0.12879"/>
   <path class="link thread6 WhiteStart" d="m389.55 679.46 7.4441 24.038"/>
   <path class="link thread35 WhiteEnd" d="m387.77 673.73-15.391 24.523"/>
   <path class="link thread64 WhiteEnd" d="m407.13 653.87 15.178 14.691"/>
   <path class="link thread37 WhiteStart" d="m432.15 640.68-5.5234 32.058"/>
   <path class="link thread6 WhiteEnd" d="m381.17 635.77 5.5771 32.047"/>
   <path class="link thread35 WhiteStart" d="m402.94 658.17-15.172 15.559"/>
   <path class="link thread64 WhiteStart" d="m386.09 639.2 21.045 14.672"/>
   <path class="link thread35 WhiteEnd" d="m433.17 634.77-21.195 15.557"/>
   <path class="link thread4 WhiteEnd" d="m511.52 653.06 15.531 14.961"/>
   <path class="link thread41 WhiteStart" d="m537.1 639.84-5.728 32.341"/>
   <path class="link thread10 WhiteEnd" d="m484.92 634.65 5.7007 32.406"/>
   <path class="link thread39 WhiteStart" d="m507.28 657.31-15.621 15.664"/>
   <path class="link thread4 WhiteStart" d="m489.86 638.07 21.664 14.989"/>
   <path class="link thread39 WhiteEnd" d="m538.15 633.93-21.754 15.625"/>
   <path class="link thread31 WhiteStart" d="m389.22 573.65-13.97 24.22"/>
   <path class="link thread89 WhiteEnd" d="m392.22 568.46-17.301 0.15855"/>
   <path class="link thread4 WhiteEnd" d="m459.02 616.76 20.965 14.484"/>
   <path class="link thread10 WhiteStart" d="m479.8 602.35 5.1213 32.304"/>
   <path class="link thread37 WhiteEnd" d="m439.35 596.57-5.2256 32.275"/>
   <path class="link thread35 WhiteStart" d="m454.1 620.19-20.931 14.577"/>
   <path class="link thread4 WhiteStart" d="m443.54 600.87 15.484 15.894"/>
   <path class="link thread35 WhiteEnd" d="m478.86 596.42-15.651 16.041"/>
   <path class="link thread8 WhiteEnd" d="m617.53 652.71 15.665 15.131"/>
   <path class="link thread45 WhiteStart" d="m643.36 639.47-5.8454 32.543"/>
   <path class="link thread14 WhiteEnd" d="m590.69 634.05 5.7075 32.732"/>
   <path class="link thread43 WhiteStart" d="m613.28 656.94-15.848 15.751"/>
   <path class="link thread8 WhiteStart" d="m595.62 637.48 21.915 15.237"/>
   <path class="link thread43 WhiteEnd" d="m644.42 633.56-21.999 15.668"/>
   <path class="link thread4 WhiteEnd" d="m420.35 567.76 15.699 23.801"/>
   <path class="link thread37 WhiteStart" d="m447.19 572.27-7.8432 24.296"/>
   <path class="link thread31 WhiteEnd" d="m401.41 538.44-7.4297 24.274"/>
   <path class="link thread89 WhiteStart" d="m414.35 567.91-22.127 0.54788"/>
   <path class="link thread4 WhiteStart" d="m404.66 543.48 15.684 24.275"/>
   <path class="link thread89 WhiteEnd" d="m449.04 566.56-22.694 0.94608"/>
   <path class="link thread8 WhiteEnd" d="m564.46 615.9 21.296 14.739"/>
   <path class="link thread14 WhiteStart" d="m585.53 601.44 5.1611 32.611"/>
   <path class="link thread41 WhiteEnd" d="m544.5 595.44-5.3779 32.568"/>
   <path class="link thread39 WhiteStart" d="m559.51 619.29-21.368 14.643"/>
   <path class="link thread8 WhiteStart" d="m548.69 599.74 15.771 16.159"/>
   <path class="link thread39 WhiteEnd" d="m584.59 595.51-15.914 16.114"/>
   <path class="link thread10 WhiteEnd" d="m472.35 566.95 5.2204 23.617"/>
   <path class="link thread35 WhiteStart" d="m493.23 572.02-14.373 24.404"/>
   <path class="link thread37 WhiteEnd" d="m466.06 536.85-14.044 24.507"/>
   <path class="link thread89 WhiteStart" d="m466.35 566.85-17.31-0.28693"/>
   <path class="link thread10 WhiteStart" d="m467.29 542.72 5.0561 24.225"/>
   <path class="link thread89 WhiteEnd" d="m496.28 566.85-17.934 0.0741"/>
   <path class="link thread12 WhiteEnd" d="m724.17 652.64 15.681 15.201"/>
   <path class="link thread49 WhiteStart" d="m750.06 639.42-5.903 32.599"/>
   <path class="link thread18 WhiteEnd" d="m697.27 633.82 5.6772 32.92"/>
   <path class="link thread47 WhiteStart" d="m719.91 656.86-15.942 15.792"/>
   <path class="link thread12 WhiteStart" d="m702.18 637.26 21.984 15.379"/>
   <path class="link thread47 WhiteEnd" d="m751.13 633.51-22.067 15.655"/>
   <path class="link thread8 WhiteEnd" d="m525.07 566.29 16.105 24.159"/>
   <path class="link thread41 WhiteStart" d="m552.47 570.97-7.9666 24.471"/>
   <path class="link thread35 WhiteEnd" d="m505.65 536.64-7.595 24.483"/>
   <path class="link thread89 WhiteStart" d="m519.07 566.41-22.791 0.44099"/>
   <path class="link thread8 WhiteStart" d="m508.94 541.66 16.131 24.637"/>
   <path class="link thread89 WhiteEnd" d="m554.33 565.27-23.261 0.81502"/>
   <path class="link thread14 WhiteEnd" d="m577.99 565.78 5.304 23.874"/>
   <path class="link thread39 WhiteStart" d="m599.14 570.98-14.542 24.531"/>
   <path class="link thread41 WhiteEnd" d="m571.58 535.43-14.246 24.644"/>
   <path class="link thread89 WhiteStart" d="m571.99 565.65-17.664-0.38451"/>
   <path class="link thread14 WhiteStart" d="m572.82 541.3 5.1731 24.484"/>
   <path class="link thread89 WhiteEnd" d="m602.2 565.82-18.206-0.029"/>
   <path class="link thread12 WhiteEnd" d="m670.93 615.5 21.414 14.89"/>
   <path class="link thread18 WhiteStart" d="m692.1 601.04 5.1657 32.783"/>
   <path class="link thread45 WhiteEnd" d="m650.86 594.86-5.4548 32.788"/>
   <path class="link thread43 WhiteStart" d="m665.97 618.88-21.547 14.682"/>
   <path class="link thread12 WhiteStart" d="m655.04 599.16 15.884 16.343"/>
   <path class="link thread43 WhiteEnd" d="m691.17 595.11-16.014 16.136"/>
   <path class="link thread16 WhiteEnd" d="m830.77 652.64 15.598 15.15"/>
   <path class="link thread53 WhiteStart" d="m856.58 639.49-5.9126 32.488"/>
   <path class="link thread22 WhiteEnd" d="m803.95 633.81 5.6152 32.919"/>
   <path class="link thread51 WhiteStart" d="m826.51 656.87-15.929 15.779"/>
   <path class="link thread16 WhiteStart" d="m808.86 637.26 21.906 15.384"/>
   <path class="link thread51 WhiteEnd" d="m857.66 633.58-21.994 15.591"/>
   <path class="link thread12 WhiteEnd" d="m631.25 565.42 16.281 24.447"/>
   <path class="link thread45 WhiteStart" d="m658.88 570.28-8.0142 24.577"/>
   <path class="link thread39 WhiteEnd" d="m611.61 535.45-7.6347 24.638"/>
   <path class="link thread89 WhiteStart" d="m625.25 565.5-23.06 0.32107"/>
   <path class="link thread12 WhiteStart" d="m614.9 540.47 16.359 24.947"/>
   <path class="link thread89 WhiteEnd" d="m660.74 564.58-23.483 0.66933"/>
   <path class="link thread18 WhiteEnd" d="m684.53 565.21 5.3399 24.043"/>
   <path class="link thread43 WhiteStart" d="m705.75 570.55-14.584 24.562"/>
   <path class="link thread45 WhiteEnd" d="m678.03 534.68-14.29 24.706"/>
   <path class="link thread89 WhiteStart" d="m678.53 565.05-17.794-0.47325"/>
   <path class="link thread18 WhiteStart" d="m679.28 540.54 5.2493 24.664"/>
   <path class="link thread89 WhiteEnd" d="m708.82 565.39-18.288-0.13501"/>
   <path class="link thread16 WhiteEnd" d="m777.65 615.46 21.381 14.916"/>
   <path class="link thread22 WhiteStart" d="m798.81 601.04 5.1405 32.77"/>
   <path class="link thread49 WhiteEnd" d="m757.59 594.73-5.4713 32.861"/>
   <path class="link thread47 WhiteStart" d="m772.69 618.84-21.562 14.674"/>
   <path class="link thread16 WhiteStart" d="m761.76 599.04 15.893 16.419"/>
   <path class="link thread47 WhiteEnd" d="m797.88 595.11-16.001 16.094"/>
   <path class="link thread20 WhiteEnd" d="m936.81 652.64 15.417 15.017"/>
   <path class="link thread57 WhiteStart" d="m962.41 639.65-5.8838 32.187"/>
   <path class="link thread26 WhiteEnd" d="m910.21 633.88 5.5125 32.73"/>
   <path class="link thread55 WhiteStart" d="m932.55 656.86-15.824 15.673"/>
   <path class="link thread20 WhiteStart" d="m915.12 637.34 21.692 15.294"/>
   <path class="link thread55 WhiteEnd" d="m963.49 633.75-21.78 15.419"/>
   <path class="link thread16 WhiteEnd" d="m737.93 565.12 16.336 24.61"/>
   <path class="link thread49 WhiteStart" d="m765.58 570.16-7.9957 24.57"/>
   <path class="link thread43 WhiteEnd" d="m718.19 534.96-7.6112 24.698"/>
   <path class="link thread89 WhiteStart" d="m731.93 565.18-23.117 0.21137"/>
   <path class="link thread16 WhiteStart" d="m721.48 539.98 16.454 25.145"/>
   <path class="link thread89 WhiteEnd" d="m767.44 564.46-23.508 0.53093"/>
   <path class="link thread22 WhiteEnd" d="m791.23 565.18 5.3541 24.077"/>
   <path class="link thread47 WhiteStart" d="m812.41 570.62-14.532 24.489"/>
   <path class="link thread49 WhiteEnd" d="m784.67 534.6-14.232 24.656"/>
   <path class="link thread89 WhiteStart" d="m785.23 565-17.791-0.54118"/>
   <path class="link thread22 WhiteStart" d="m785.93 540.47 5.299 24.71"/>
   <path class="link thread89 WhiteEnd" d="m815.48 565.46-18.25-0.21419"/>
   <path class="link thread20 WhiteEnd" d="m884.07 615.61 21.223 14.84"/>
   <path class="link thread26 WhiteStart" d="m905.14 601.33 5.0718 32.559"/>
   <path class="link thread53 WhiteEnd" d="m864.1 594.9-5.4533 32.76"/>
   <path class="link thread51 WhiteStart" d="m879.11 618.98-21.453 14.601"/>
   <path class="link thread20 WhiteStart" d="m868.26 599.22 15.808 16.384"/>
   <path class="link thread51 WhiteEnd" d="m904.22 595.4-15.909 15.96"/>
   <path class="link thread20 WhiteEnd" d="m844.5 565.29 16.282 24.611"/>
   <path class="link thread53 WhiteStart" d="m872.04 570.48-7.9453 24.426"/>
   <path class="link thread47 WhiteEnd" d="m824.78 535.1-7.5446 24.628"/>
   <path class="link thread89 WhiteStart" d="m838.5 565.33-23.029 0.13898"/>
   <path class="link thread20 WhiteStart" d="m828.06 540.12 16.444 25.167"/>
   <path class="link thread89 WhiteEnd" d="m873.9 564.77-23.395 0.41089"/>
   <path class="link thread57 WhiteEnd" d="m969.87 595.36-5.4036 32.474"/>
   <path class="link thread55 WhiteStart" d="m984.66 619.33-21.176 14.425"/>
   <path class="link thread26 WhiteEnd" d="m897.58 565.58 5.3301 23.963"/>
   <path class="link thread51 WhiteStart" d="m918.62 571.13-14.404 24.27"/>
   <path class="link thread53 WhiteEnd" d="m891 535.12-14.104 24.458"/>
   <path class="link thread89 WhiteStart" d="m891.59 565.37-17.689-0.60064"/>
   <path class="link thread26 WhiteStart" d="m892.27 540.98 5.3163 24.596"/>
   <path class="link thread89 WhiteEnd" d="m921.68 565.97-18.099-0.29297"/>
   <path class="link thread24 WhiteEnd" d="m950.46 565.88 16.112 24.469"/>
   <path class="link thread57 WhiteStart" d="m977.7 571.19-7.8269 24.164"/>
   <path class="link thread51 WhiteEnd" d="m930.87 535.81-7.4362 24.419"/>
   <path class="link thread89 WhiteStart" d="m944.46 565.9-22.779 0.0707"/>
   <path class="link thread24 WhiteStart" d="m934.14 540.84 16.319 25.042"/>
   <path class="link thread89 WhiteEnd" d="m979.55 565.49-23.088 0.31139"/>
   <path class="link thread24 WhiteEnd" d="m911.03 515.93 15.599 15.632"/>
   <path class="link thread51 WhiteStart" d="m936.54 503.75-5.67 32.055"/>
   <path class="link thread26 WhiteEnd" d="m884.3 496.92 5.6666 32.285"/>
   <path class="link thread53 WhiteStart" d="m906.7 520.08-15.697 15.037"/>
   <path class="link thread24 WhiteStart" d="m889.19 500.4 21.844 15.531"/>
   <path class="link thread53 WhiteEnd" d="m937.58 497.84-21.593 14.707"/>
   <path class="link thread28 WhiteEnd" d="m963.63 480.25 21.094 14.526"/>
   <path class="link thread51 WhiteEnd" d="m943.63 460.42-5.0872 31.501"/>
   <path class="link thread53 WhiteStart" d="m958.66 483.61-21.077 14.239"/>
   <path class="link thread28 WhiteStart" d="m947.89 464.64 15.744 15.604"/>
   <path class="link thread53 WhiteEnd" d="m983.27 460.37-15.421 15.608"/>
   <path class="link thread30 WhiteEnd" d="m973.37 431.15 7.9751 23.541"/>
   <path class="link thread20 WhiteEnd" d="m804.86 515.21 15.669 15.646"/>
   <path class="link thread47 WhiteStart" d="m830.6 502.75-5.8244 32.349"/>
   <path class="link thread22 WhiteEnd" d="m778.03 496.3 5.6186 32.393"/>
   <path class="link thread49 WhiteStart" d="m800.54 519.37-15.866 15.233"/>
   <path class="link thread20 WhiteStart" d="m782.93 499.75 21.934 15.46"/>
   <path class="link thread49 WhiteEnd" d="m831.67 496.85-21.854 14.977"/>
   <path class="link thread24 WhiteEnd" d="m858.03 478.98 21.314 14.554"/>
   <path class="link thread26 WhiteStart" d="m878.96 464.77 5.3394 32.153"/>
   <path class="link thread47 WhiteEnd" d="m837.91 459.16-5.2652 31.768"/>
   <path class="link thread49 WhiteStart" d="m853.06 482.35-21.395 14.496"/>
   <path class="link thread24 WhiteStart" d="m842.19 463.37 15.843 15.614"/>
   <path class="link thread49 WhiteEnd" d="m877.97 458.85-15.724 15.872"/>
   <path class="link thread84 WhiteEnd" d="m950.14 431.44 17.23-0.21315"/>
   <path class="link thread30 WhiteStart" d="m959.42 407.53 13.95 23.614"/>
   <path class="link thread28 WhiteEnd" d="m926.3 431.42 14.247 23.847"/>
   <path class="link thread51 WhiteStart" d="m948.82 437.29-5.1985 23.131"/>
   <path class="link thread84 WhiteStart" d="m932.3 431.43 17.838 0.01"/>
   <path class="link thread51 WhiteEnd" d="m956.37 402.37-4.9701 23.201"/>
   <path class="link thread16 WhiteEnd" d="m698.29 515.17 15.644 15.554"/>
   <path class="link thread43 WhiteStart" d="m724.12 502.47-5.924 32.486"/>
   <path class="link thread18 WhiteEnd" d="m671.48 496.48 5.5355 32.286"/>
   <path class="link thread45 WhiteStart" d="m693.97 519.33-15.942 15.343"/>
   <path class="link thread16 WhiteStart" d="m676.4 499.91 21.893 15.264"/>
   <path class="link thread45 WhiteEnd" d="m725.19 496.57-21.965 15.191"/>
   <path class="link thread84 WhiteEnd" d="m897.42 430.6 22.885 0.65402"/>
   <path class="link thread28 WhiteStart" d="m918.67 408.01 7.6329 23.413"/>
   <path class="link thread26 WhiteEnd" d="m868.12 429.5 7.9408 23.661"/>
   <path class="link thread49 WhiteStart" d="m894.02 435.54-16.044 23.311"/>
   <path class="link thread84 WhiteStart" d="m874.12 429.73 23.3 0.87125"/>
   <path class="link thread49 WhiteEnd" d="m916.81 402.3-15.998 23.343"/>
   <path class="link thread84 WhiteEnd" d="m844.64 429.95 17.487-0.33049"/>
   <path class="link thread26 WhiteStart" d="m854.17 405.82 13.954 23.68"/>
   <path class="link thread24 WhiteEnd" d="m820.6 430.13 14.24 23.877"/>
   <path class="link thread47 WhiteStart" d="m843.29 435.79-5.3799 23.367"/>
   <path class="link thread84 WhiteStart" d="m826.6 430.08 18.04-0.13798"/>
   <path class="link thread47 WhiteEnd" d="m851.12 400.65-5.1892 23.435"/>
   <path class="link thread20 WhiteEnd" d="m751.7 478.47 21.357 14.464"/>
   <path class="link thread22 WhiteStart" d="m772.78 464.03 5.2461 32.27"/>
   <path class="link thread43 WhiteEnd" d="m731.58 458.77-5.3864 31.879"/>
   <path class="link thread45 WhiteStart" d="m746.74 481.85-21.551 14.716"/>
   <path class="link thread20 WhiteStart" d="m735.87 462.97 15.833 15.499"/>
   <path class="link thread45 WhiteEnd" d="m771.82 458.11-15.9 16.095"/>
   <path class="link thread12 WhiteEnd" d="m591.82 515.88 15.523 15.356"/>
   <path class="link thread39 WhiteStart" d="m617.6 503.03-5.9918 32.424"/>
   <path class="link thread14 WhiteEnd" d="m565.17 497.49 5.4031 32.019"/>
   <path class="link thread41 WhiteStart" d="m587.5 520.05-15.926 15.383"/>
   <path class="link thread12 WhiteStart" d="m570.11 500.9 21.705 14.976"/>
   <path class="link thread41 WhiteEnd" d="m618.69 497.13-21.95 15.316"/>
   <path class="link thread84 WhiteEnd" d="m791.52 429.55 23.078 0.46145"/>
   <path class="link thread24 WhiteStart" d="m813.06 406.66 7.5379 23.47"/>
   <path class="link thread22 WhiteEnd" d="m762.06 428.77 7.8644 23.644"/>
   <path class="link thread45 WhiteStart" d="m788.11 434.49-16.298 23.619"/>
   <path class="link thread84 WhiteStart" d="m768.06 428.93 23.466 0.62057"/>
   <path class="link thread45 WhiteEnd" d="m811.23 400.95-16.3 23.66"/>
   <path class="link thread84 WhiteEnd" d="m738.46 429.43 17.601-0.49622"/>
   <path class="link thread22 WhiteStart" d="m748.19 405.19 13.872 23.578"/>
   <path class="link thread20 WhiteEnd" d="m714.35 429.88 14.158 23.74"/>
   <path class="link thread43 WhiteStart" d="m737.09 435.28-5.5104 23.498"/>
   <path class="link thread84 WhiteStart" d="m720.35 429.77 18.112-0.33471"/>
   <path class="link thread43 WhiteEnd" d="m745.14 400.02-5.3545 23.564"/>
   <path class="link thread16 WhiteEnd" d="m645.22 478.88 21.279 14.259"/>
   <path class="link thread18 WhiteStart" d="m666.35 464.29 5.1341 32.188"/>
   <path class="link thread39 WhiteEnd" d="m625.19 459.41-5.4795 31.803"/>
   <path class="link thread41 WhiteStart" d="m640.27 482.28-21.585 14.849"/>
   <path class="link thread16 WhiteStart" d="m629.49 463.59 15.727 15.284"/>
   <path class="link thread41 WhiteEnd" d="m665.4 458.36-15.976 16.237"/>
   <path class="link thread8 WhiteEnd" d="m486.12 517.31 15.262 15.102"/>
   <path class="link thread35 WhiteStart" d="m511.66 504.4-6.0088 32.232"/>
   <path class="link thread10 WhiteEnd" d="m459.89 499.26 5.2027 31.673"/>
   <path class="link thread37 WhiteStart" d="m481.83 521.5-15.763 15.35"/>
   <path class="link thread8 WhiteStart" d="m464.83 502.66 21.294 14.656"/>
   <path class="link thread37 WhiteEnd" d="m512.76 498.51-21.734 15.347"/>
   <path class="link thread84 WhiteEnd" d="m685.24 429.6 23.11 0.22014"/>
   <path class="link thread20 WhiteStart" d="m706.93 406.49 7.4164 23.388"/>
   <path class="link thread18 WhiteEnd" d="m655.78 429.17 7.7437 23.492"/>
   <path class="link thread41 WhiteStart" d="m681.83 434.54-16.433 23.823"/>
   <path class="link thread84 WhiteStart" d="m661.78 429.26 23.462 0.34072"/>
   <path class="link thread41 WhiteEnd" d="m705.12 400.77-16.473 23.891"/>
   <path class="link thread84 WhiteEnd" d="m632.19 430.07 17.591-0.66955"/>
   <path class="link thread18 WhiteStart" d="m642.08 405.82 13.699 23.355"/>
   <path class="link thread16 WhiteEnd" d="m608.14 430.78 13.975 23.475"/>
   <path class="link thread39 WhiteStart" d="m630.8 435.91-5.6123 23.504"/>
   <path class="link thread84 WhiteStart" d="m614.14 430.6 18.053-0.5324"/>
   <path class="link thread39 WhiteEnd" d="m639.04 400.64-5.4913 23.584"/>
   <path class="link thread12 WhiteEnd" d="m539.14 480.19 21.041 13.985"/>
   <path class="link thread14 WhiteStart" d="m560.21 465.55 4.9658 31.945"/>
   <path class="link thread35 WhiteEnd" d="m519.32 461-5.527 31.598"/>
   <path class="link thread37 WhiteStart" d="m534.21 483.61-21.448 14.896"/>
   <path class="link thread12 WhiteStart" d="m523.63 465.17 15.505 15.016"/>
   <path class="link thread37 WhiteEnd" d="m559.29 459.62-15.951 16.281"/>
   <path class="link thread84 WhiteEnd" d="m579.16 430.79 22.976-5e-3"/>
   <path class="link thread16 WhiteStart" d="m600.91 407.59 7.2359 23.194"/>
   <path class="link thread14 WhiteEnd" d="m549.88 430.68 7.5541 23.235"/>
   <path class="link thread37 WhiteStart" d="m575.76 435.73-16.473 23.893"/>
   <path class="link thread84 WhiteStart" d="m555.88 430.7 23.288 0.0857"/>
   <path class="link thread37 WhiteEnd" d="m599.12 401.86-16.547 23.989"/>
   <path class="link thread4 WhiteEnd" d="m382.41 519.36 14.762 14.831"/>
   <path class="link thread31 WhiteStart" d="m407.34 506.47-5.9321 31.977"/>
   <path class="link thread33 WhiteEnd" d="m408.43 500.57-21.158 15.281"/>
   <path class="link thread84 WhiteEnd" d="m526.44 431.77 17.448-0.81403"/>
   <path class="link thread14 WhiteStart" d="m536.45 407.64 13.425 23.039"/>
   <path class="link thread12 WhiteEnd" d="m502.6 432.68 13.671 23.148"/>
   <path class="link thread35 WhiteStart" d="m525.02 437.6-5.6954 23.394"/>
   <path class="link thread84 WhiteStart" d="m508.59 432.45 17.842-0.68101"/>
   <path class="link thread35 WhiteEnd" d="m533.43 402.46-5.6034 23.481"/>
   <path class="link thread8 WhiteEnd" d="m434.34 482.24 20.551 13.687"/>
   <path class="link thread10 WhiteStart" d="m455.15 467.64 4.7417 31.618"/>
   <path class="link thread31 WhiteEnd" d="m414.94 463.32-5.4767 31.333"/>
   <path class="link thread33 WhiteStart" d="m429.44 485.71-21.011 14.86"/>
   <path class="link thread8 WhiteStart" d="m419.24 467.51 15.104 14.73"/>
   <path class="link thread33 WhiteEnd" d="m454.26 461.7-15.737 16.231"/>
   <path class="link thread84 WhiteEnd" d="m473.99 432.92 22.606-0.18482"/>
   <path class="link thread12 WhiteStart" d="m495.6 409.76 7.0029 22.924"/>
   <path class="link thread10 WhiteEnd" d="m445.15 433.06 7.2882 22.93"/>
   <path class="link thread33 WhiteStart" d="m470.6 437.87-16.344 23.839"/>
   <path class="link thread84 WhiteStart" d="m451.15 433.03 22.842-0.11065"/>
   <path class="link thread33 WhiteEnd" d="m493.84 404.02-16.452 23.951"/>
   <path class="link thread84 WhiteEnd" d="m422.1 434.29 17.063-0.90914"/>
   <path class="link thread10 WhiteStart" d="m432.14 410.36 13.009 22.697"/>
   <path class="link thread8 WhiteEnd" d="m398.77 435.3 13.172 22.824"/>
   <path class="link thread31 WhiteStart" d="m420.66 440.11-5.7174 23.213"/>
   <path class="link thread84 WhiteStart" d="m404.77 435.04 17.329-0.75678"/>
   <path class="link thread31 WhiteEnd" d="m429.16 405.15-5.6483 23.3"/>
   <path class="link thread84 WhiteEnd" d="m370.98 435.65 21.793-0.27082"/>
   <path class="link thread8 WhiteStart" d="m392.09 412.65 6.6832 22.656"/>
   <path class="link thread29 WhiteEnd" d="m390.39 406.89-16.054 23.783"/>
   <path class="link thread10 WhiteEnd" d="m410.21 387.51 14.559 13.552"/>
   <path class="link thread31 WhiteStart" d="m435.25 375.19-6.0904 29.964"/>
   <path class="link thread8 WhiteEnd" d="m384.86 371.36 4.6079 29.603"/>
   <path class="link thread29 WhiteStart" d="m405.92 391.71-15.526 15.184"/>
   <path class="link thread10 WhiteStart" d="m389.92 374.59 20.286 12.927"/>
   <path class="link thread29 WhiteEnd" d="m436.44 369.31-21.307 14.783"/>
   <path class="link thread8 WhiteStart" d="m380.76 342.66 4.1061 28.704"/>
   <path class="link thread14 WhiteEnd" d="m513.96 384.59 15.047 13.812"/>
   <path class="link thread35 WhiteStart" d="m539.44 372.29-6.0132 30.164"/>
   <path class="link thread12 WhiteEnd" d="m487.89 368.18 4.9734 29.918"/>
   <path class="link thread33 WhiteStart" d="m509.65 388.76-15.806 15.265"/>
   <path class="link thread14 WhiteStart" d="m492.96 371.38 21.001 13.209"/>
   <path class="link thread33 WhiteEnd" d="m540.62 366.41-21.696 14.798"/>
   <path class="link thread14 WhiteEnd" d="m462.47 352.1 20.341 12.874"/>
   <path class="link thread12 WhiteStart" d="m483.41 339.2 4.478 28.989"/>
   <path class="link thread31 WhiteEnd" d="m443.36 334.07-5.7592 29.35"/>
   <path class="link thread29 WhiteStart" d="m457.47 355.41-21.026 13.901"/>
   <path class="link thread14 WhiteStart" d="m447.72 338.19 14.751 13.912"/>
   <path class="link thread29 WhiteEnd" d="m482.49 333.27-15.647 14.724"/>
   <path class="link thread25 WhiteStart" d="m394.1 314.87-14.198 21.846"/>
   <path class="link thread77 WhiteEnd" d="m397.37 309.84-17.014 0.36458"/>
   <path class="link thread18 WhiteEnd" d="m619.3 382.49 15.332 14.096"/>
   <path class="link thread39 WhiteStart" d="m644.91 370.38-5.8637 30.266"/>
   <path class="link thread16 WhiteEnd" d="m592.84 365.7 5.2546 30.251"/>
   <path class="link thread37 WhiteStart" d="m614.97 386.64-15.848 15.217"/>
   <path class="link thread18 WhiteStart" d="m597.9 368.91 21.392 13.575"/>
   <path class="link thread37 WhiteEnd" d="m646.05 364.49-21.775 14.651"/>
   <path class="link thread14 WhiteEnd" d="m425.23 308.45 14.667 20.728"/>
   <path class="link thread31 WhiteStart" d="m451.38 312.28-8.0231 21.795"/>
   <path class="link thread25 WhiteEnd" d="m407.02 283.35-7.5972 20.85"/>
   <path class="link thread77 WhiteStart" d="m419.23 308.75-21.86 1.0943"/>
   <path class="link thread14 WhiteStart" d="m410.55 288.21 14.678 20.236"/>
   <path class="link thread77 WhiteEnd" d="m453.45 306.65-22.241 1.4181"/>
   <path class="link thread12 WhiteEnd" d="m476.56 306.67 4.626 20.744"/>
   <path class="link thread29 WhiteStart" d="m496.88 311.27-14.386 21.995"/>
   <path class="link thread31 WhiteEnd" d="m470.76 280.41-13.999 21.23"/>
   <path class="link thread77 WhiteStart" d="m470.56 306.66-17.105-0.0141"/>
   <path class="link thread12 WhiteStart" d="m472.05 286.27 4.509 20.4"/>
   <path class="link thread77 WhiteEnd" d="m500.16 306.25-17.603 0.31051"/>
   <path class="link thread18 WhiteEnd" d="m566.96 349.27 20.815 13.211"/>
   <path class="link thread16 WhiteStart" d="m588.07 336.41 4.7718 29.286"/>
   <path class="link thread35 WhiteEnd" d="m547.4 330.95-5.6546 29.565"/>
   <path class="link thread33 WhiteStart" d="m561.93 352.54-21.309 13.865"/>
   <path class="link thread18 WhiteStart" d="m551.78 335.05 15.178 14.219"/>
   <path class="link thread33 WhiteEnd" d="m587.1 330.49-15.756 14.69"/>
   <path class="link thread18 WhiteEnd" d="m528.63 305 15.249 21.086"/>
   <path class="link thread35 WhiteStart" d="m555.35 309.06-7.9467 21.885"/>
   <path class="link thread29 WhiteEnd" d="m509.78 279.61-7.5767 20.993"/>
   <path class="link thread77 WhiteStart" d="m522.64 305.26-22.479 0.98483"/>
   <path class="link thread18 WhiteStart" d="m513.35 284.43 15.282 20.572"/>
   <path class="link thread77 WhiteEnd" d="m557.39 303.42-22.769 1.2485"/>
   <path class="link thread22 WhiteEnd" d="m725.23 381.58 15.508 14.359"/>
   <path class="link thread43 WhiteStart" d="m750.83 369.81-5.6886 30.21"/>
   <path class="link thread20 WhiteEnd" d="m698.57 364.38 5.483 30.489"/>
   <path class="link thread41 WhiteStart" d="m720.89 385.72-15.773 15.047"/>
   <path class="link thread22 WhiteStart" d="m703.62 367.63 21.618 13.952"/>
   <path class="link thread41 WhiteEnd" d="m751.94 363.91-21.706 14.36"/>
   <path class="link thread16 WhiteEnd" d="m580.85 303.65 4.8883 20.999"/>
   <path class="link thread33 WhiteStart" d="m601.45 308.51-14.352 21.976"/>
   <path class="link thread35 WhiteEnd" d="m574.71 277.17-14.013 21.243"/>
   <path class="link thread77 WhiteStart" d="m574.85 303.59-17.458-0.16512"/>
   <path class="link thread16 WhiteStart" d="m576.07 283.02 4.7847 20.629"/>
   <path class="link thread77 WhiteEnd" d="m604.73 303.49-17.881 0.1172"/>
   <path class="link thread22 WhiteEnd" d="m672.44 347.56 21.088 13.568"/>
   <path class="link thread20 WhiteStart" d="m693.57 334.89 5.0051 29.49"/>
   <path class="link thread39 WhiteEnd" d="m652.62 328.91-5.4839 29.675"/>
   <path class="link thread37 WhiteStart" d="m667.39 350.8-21.34 13.685"/>
   <path class="link thread22 WhiteStart" d="m656.99 333.02 15.447 14.539"/>
   <path class="link thread37 WhiteEnd" d="m692.56 328.97-15.718 14.52"/>
   <path class="link thread26 WhiteEnd" d="m831.17 382.01 15.571 14.545"/>
   <path class="link thread47 WhiteStart" d="m856.59 370.62-5.463 30.027"/>
   <path class="link thread24 WhiteEnd" d="m804.48 364.47 5.6572 30.581"/>
   <path class="link thread45 WhiteStart" d="m826.82 386.14-15.592 14.804"/>
   <path class="link thread26 WhiteStart" d="m809.49 367.76 21.678 14.249"/>
   <path class="link thread45 WhiteEnd" d="m857.66 364.72-21.468 14.011"/>
   <path class="link thread22 WhiteEnd" d="m633.47 302.58 15.624 21.479"/>
   <path class="link thread39 WhiteStart" d="m660.43 307.05-7.8121 21.862"/>
   <path class="link thread33 WhiteEnd" d="m614.19 276.82-7.4507 21.017"/>
   <path class="link thread77 WhiteStart" d="m627.47 302.77-22.739 0.7195"/>
   <path class="link thread22 WhiteStart" d="m617.78 281.62 15.686 20.959"/>
   <path class="link thread77 WhiteEnd" d="m662.45 301.4-22.99 0.93645"/>
   <path class="link thread26 WhiteEnd" d="m778.25 347.32 21.21 13.868"/>
   <path class="link thread24 WhiteStart" d="m799.28 334.91 5.1943 29.556"/>
   <path class="link thread43 WhiteEnd" d="m758.28 328.37-5.2822 29.636"/>
   <path class="link thread41 WhiteStart" d="m773.17 350.52-21.229 13.396"/>
   <path class="link thread26 WhiteStart" d="m762.63 332.5 15.616 14.815"/>
   <path class="link thread41 WhiteEnd" d="m798.25 329-15.574 14.262"/>
   <path class="link thread20 WhiteEnd" d="m686.07 301.93 5.095 21.205"/>
   <path class="link thread37 WhiteStart" d="m706.78 307.17-14.22 21.801"/>
   <path class="link thread39 WhiteEnd" d="m679.65 275.28-13.901 21.112"/>
   <path class="link thread77 WhiteStart" d="m680.07 301.8-17.615-0.39757"/>
   <path class="link thread20 WhiteStart" d="m681.06 281.11 5.0098 20.822"/>
   <path class="link thread77 WhiteEnd" d="m710.06 302.15-17.995-0.15939"/>
   <path class="link thread26 WhiteEnd" d="m738.87 301.68 15.879 21.835"/>
   <path class="link thread43 WhiteStart" d="m765.9 306.65-7.626 21.722"/>
   <path class="link thread37 WhiteEnd" d="m719.32 275.55-7.287 20.932"/>
   <path class="link thread77 WhiteStart" d="m732.87 301.78-22.809 0.36701"/>
   <path class="link thread26 WhiteStart" d="m722.92 280.35 15.955 21.33"/>
   <path class="link thread77 WhiteEnd" d="m767.89 300.99-23.023 0.55133"/>
   <path class="link thread30 WhiteEnd" d="m936.45 383.65 15.541 14.607"/>
   <path class="link thread51 WhiteStart" d="m961.52 372.66-5.1565 29.709"/>
   <path class="link thread28 WhiteEnd" d="m909.88 365.89 5.8053 30.522"/>
   <path class="link thread49 WhiteStart" d="m932.1 387.78-15.293 14.522"/>
   <path class="link thread30 WhiteStart" d="m914.87 369.22 21.582 14.428"/>
   <path class="link thread49 WhiteEnd" d="m962.55 366.75-21.06 13.642"/>
   <path class="link thread30 WhiteEnd" d="m883.71 348.49 21.176 14.074"/>
   <path class="link thread28 WhiteStart" d="m904.54 336.41 5.3486 29.479"/>
   <path class="link thread47 WhiteEnd" d="m863.71 329.34-5.0378 29.47"/>
   <path class="link thread45 WhiteStart" d="m878.62 351.67-20.956 13.056"/>
   <path class="link thread30 WhiteStart" d="m868.04 333.49 15.667 15.006"/>
   <path class="link thread45 WhiteEnd" d="m903.46 330.51-15.317 13.948"/>
   <path class="link thread24 WhiteEnd" d="m791.53 301.86 5.2769 21.315"/>
   <path class="link thread41 WhiteStart" d="m812.23 307.47-13.981 21.533"/>
   <path class="link thread43 WhiteEnd" d="m784.88 275.11-13.692 20.864"/>
   <path class="link thread77 WhiteStart" d="m785.53 301.64-17.639-0.65283"/>
   <path class="link thread24 WhiteStart" d="m786.32 280.93 5.2035 20.933"/>
   <path class="link thread77 WhiteEnd" d="m815.49 302.44-17.969-0.43021"/>
   <path class="link thread30 WhiteEnd" d="m844.19 302.4 16.003 22.079"/>
   <path class="link thread47 WhiteStart" d="m871.1 307.85-7.3899 21.492"/>
   <path class="link thread41 WhiteEnd" d="m824.5 276-7.0751 20.754"/>
   <path class="link thread77 WhiteStart" d="m838.19 302.41-22.692 0.028"/>
   <path class="link thread30 WhiteStart" d="m828.09 280.81 16.095 21.588"/>
   <path class="link thread77 WhiteEnd" d="m873.05 302.17-22.866 0.18139"/>
   <path class="link thread28 WhiteEnd" d="m896.56 303.37 5.423 21.324"/>
   <path class="link thread45 WhiteStart" d="m917.1 309.32-13.634 21.19"/>
   <path class="link thread47 WhiteEnd" d="m889.71 276.61-13.384 20.535"/>
   <path class="link thread77 WhiteStart" d="m890.57 303.06-17.518-0.89087"/>
   <path class="link thread28 WhiteStart" d="m891.2 282.42 5.362 20.945"/>
   <path class="link thread77 WhiteEnd" d="m920.35 304.27-17.787-0.67528"/>
   <path class="link thread51 WhiteEnd" d="m968.24 331.64-4.7273 29.182"/>
   <path class="link thread49 WhiteStart" d="m983.06 354.03-20.505 12.715"/>
   <path class="link thread34 WhiteStart" d="m972.55 335.81 15.601 15.061"/>
   <path class="link thread34 WhiteEnd" d="m948.72 304.6 16.007 22.174"/>
   <path class="link thread51 WhiteStart" d="m975.31 310.44-7.0748 21.199"/>
   <path class="link thread45 WhiteEnd" d="m929.04 278.07-6.8024 20.509"/>
   <path class="link thread77 WhiteStart" d="m942.72 304.53-22.373-0.26223"/>
   <path class="link thread34 WhiteStart" d="m932.61 282.88 16.107 21.718"/>
   <path class="link thread77 WhiteEnd" d="m977.21 304.75-22.494-0.11762"/>
   <path class="link thread34 WhiteEnd" d="m909.26 260.34 15.307 13.725"/>
   <path class="link thread45 WhiteStart" d="m934 252.02-4.9596 26.048"/>
   <path class="link thread28 WhiteEnd" d="m882.86 244.35 5.609 26.39"/>
   <path class="link thread47 WhiteStart" d="m904.65 264.17-14.939 12.435"/>
   <path class="link thread30 WhiteEnd" d="m804.72 258.49 15.288 13.538"/>
   <path class="link thread41 WhiteStart" d="m829.79 249.69-5.2855 26.308"/>
   <path class="link thread24 WhiteEnd" d="m778.23 242.87 5.4306 26.361"/>
   <path class="link thread43 WhiteStart" d="m800.12 262.34-15.249 12.768"/>
   <path class="link thread26 WhiteEnd" d="m699.66 258.33 15.143 13.262"/>
   <path class="link thread37 WhiteStart" d="m724.86 249.05-5.5346 26.498"/>
   <path class="link thread20 WhiteEnd" d="m673.29 243.19 5.2011 26.207"/>
   <path class="link thread39 WhiteStart" d="m695.09 262.21-15.432 13.068"/>
   <path class="link thread22 WhiteEnd" d="m594.77 259.96 14.886 12.922"/>
   <path class="link thread33 WhiteStart" d="m619.94 250.25-5.749 26.563"/>
   <path class="link thread16 WhiteEnd" d="m568.68 245.31 4.9136 25.97"/>
   <path class="link thread35 WhiteStart" d="m590.22 263.87-15.506 13.303"/>
   <path class="link thread18 WhiteEnd" d="m490.75 263.07 14.499 12.607"/>
   <path class="link thread29 WhiteStart" d="m515.72 253.09-5.9405 26.518"/>
   <path class="link thread12 WhiteEnd" d="m465.17 248.8 4.5396 25.695"/>
   <path class="link thread31 WhiteStart" d="m486.21 267-15.46 13.407"/>
   <path class="link thread14 WhiteEnd" d="m388.64 266.99 13.905 12.378"/>
   <path class="link thread25 WhiteStart" d="m413.1 256.99-6.0729 26.367"/>
   <path class="link thread27 WhiteStart" d="m384.13 270.94-15.167 13.317"/>
   <path class="link thread14 WhiteStart" d="m369.17 255.84 19.471 11.145"/>
   <path class="link thread27 WhiteEnd" d="m414.44 251.14-20.694 12.707"/>
  </g>
  <rect transform="matrix(1 -.0011745 -.00042696 -1 0 0)" x="387.49" y="-751.29" width="584.2" height="483.85" stroke="#fafafa" stroke-linejoin="round" stroke-width="16.014"/>
 </g>
</svg>
