<?xml version="1.0" encoding="UTF-8"?>
<!--?xml version="1.0" encoding="UTF-8" standalone="no"?-->
<svg width="187" height="125" version="1.1" xmlns="http://www.w3.org/2000/svg">
 <g transform="matrix(.24987 0 0 .24988 -108.64 -126.51)" fill="none">
  <g stroke="#000" stroke-width="4.0021">
   <path class="link thread11 WhiteStart" d="m1169.8 975.32 19.226-2.4315"/>
   <path class="link thread67 WhiteEnd" d="m1129.1 987.11-22.087 34.657"/>
   <path class="link thread12 WhiteStart" d="m1133.9 990.81 11.426 8.9414"/>
   <path class="link thread68 WhiteEnd" d="m1163.8 976.07-14.85 18.951"/>
   <path class="link thread11 WhiteEnd" d="m1148 967.51 10.564 5.7144"/>
   <path class="link thread68 WhiteStart" d="m1169.5 960.97-5.676 15.101"/>
   <path class="link thread12 WhiteEnd" d="m1131.5 951.27-1.9781 29.857"/>
   <path class="link thread67 WhiteStart" d="m1143.8 971.83-14.701 15.28"/>
   <path class="link thread11 WhiteStart" d="m1135.8 955.48 12.212 12.029"/>
   <path class="link thread67 WhiteEnd" d="m1171.6 955.36-18.292 9.4046"/>
   <path class="link thread67 WhiteStart" d="m1186.9 949.98-15.27 5.3811"/>
   <path class="link thread8 WhiteEnd" d="m1167.4 915.73 12.085 12.104"/>
   <path class="link thread63 WhiteEnd" d="m991.55 981.9 8.9503 10.93"/>
   <path class="link thread66 WhiteStart" d="m1029.1 960.59-24.777 36.874"/>
   <path class="link thread64 WhiteEnd" d="m954.97 984.32 12.089 12.068"/>
   <path class="link thread65 WhiteStart" d="m987.15 985.97-15.842 14.657"/>
   <path class="link thread63 WhiteStart" d="m960.95 983.92 30.595-2.028"/>
   <path class="link thread65 WhiteEnd" d="m1032.4 955.61-35.828 23.037"/>
   <path class="link thread7 WhiteEnd" d="m1139.5 923.38 22.116-6.0562"/>
   <path class="link thread8 WhiteStart" d="m1147.9 900.88 19.473 14.853"/>
   <path class="link thread11 WhiteEnd" d="m1113.4 927 14.512 19.453"/>
   <path class="link thread12 WhiteStart" d="m1137.8 929.14-6.3359 22.122"/>
   <path class="link thread7 WhiteStart" d="m1119.3 926.18 20.144-2.8011"/>
   <path class="link thread12 WhiteEnd" d="m1143.2 897.24-2.8275 20.191"/>
   <path class="link thread8 WhiteEnd" d="m1117.5 901.58 19.754-3.3341"/>
   <path class="link thread12 WhiteStart" d="m1144.7 863.9-1.55 33.338"/>
   <path class="link thread7 WhiteEnd" d="m1073.8 928.5 33.57-1.2661"/>
   <path class="link thread11 WhiteStart" d="m1116.5 907.5-3.1267 19.503"/>
   <path class="link thread8 WhiteStart" d="m1098.3 904 19.227-2.4281"/>
   <path class="link thread11 WhiteEnd" d="m1120.9 876.57-2.6005 19.063"/>
   <path class="link thread63 WhiteEnd" d="m927.1 992.27 22.099-6.2995"/>
   <path class="link thread64 WhiteStart" d="m935.56 969.58 19.411 14.736"/>
   <path class="link thread6 WhiteEnd" d="m901.06 996.07 14.538 19.457"/>
   <path class="link thread63 WhiteStart" d="m906.99 995.2 20.105-2.9388"/>
   <path class="link thread5 WhiteEnd" d="m930.78 965.96-2.8482 20.366"/>
   <path class="link thread64 WhiteEnd" d="m905.13 970.56 19.743-3.5432"/>
   <path class="link thread5 WhiteStart" d="m932.51 932.3-1.7328 33.658"/>
   <path class="link thread63 WhiteEnd" d="m861.58 997.67 33.485-1.3536"/>
   <path class="link thread6 WhiteStart" d="m904.18 976.48-3.1269 19.587"/>
   <path class="link thread64 WhiteStart" d="m885.93 973.11 19.2-2.5489"/>
   <path class="link thread6 WhiteEnd" d="m908.64 945.43-2.6774 19.187"/>
   <path class="link thread62 WhiteEnd" d="m845.39 985.08-21.845 34.586"/>
   <path class="link thread63 WhiteStart" d="m850.13 988.76 11.449 8.904"/>
   <path class="link thread61 WhiteEnd" d="m879.98 973.9-14.732 19.025"/>
   <path class="link thread64 WhiteEnd" d="m864.13 965.42 10.557 5.6489"/>
   <path class="link thread61 WhiteStart" d="m885.63 958.67-5.649 15.227"/>
   <path class="link thread63 WhiteEnd" d="m847.65 949.26-1.8795 29.835"/>
   <path class="link thread62 WhiteStart" d="m859.99 969.76-14.603 15.318"/>
   <path class="link thread64 WhiteStart" d="m851.93 953.46 12.202 11.962"/>
   <path class="link thread62 WhiteEnd" d="m887.72 953.05-18.27 9.5854"/>
   <path class="link thread66 WhiteEnd" d="m1057.7 915.83-22.02 34.722"/>
   <path class="link thread65 WhiteStart" d="m1068.8 931.78-36.396 23.832"/>
   <path class="link thread7 WhiteStart" d="m1062.4 919.52 11.459 8.9716"/>
   <path class="link thread65 WhiteEnd" d="m1092.3 904.76-14.779 19.003"/>
   <path class="link thread8 WhiteEnd" d="m1076.4 896.18 10.578 5.7241"/>
   <path class="link thread65 WhiteStart" d="m1097.9 889.61-5.6211 15.149"/>
   <path class="link thread7 WhiteEnd" d="m1060 879.91-1.9226 29.932"/>
   <path class="link thread66 WhiteStart" d="m1072.3 900.51-14.644 15.313"/>
   <path class="link thread8 WhiteStart" d="m1064.2 884.12 12.214 12.055"/>
   <path class="link thread66 WhiteEnd" d="m1100 883.98-18.234 9.4368"/>
   <path class="link thread61 WhiteEnd" d="m899.82 929.52-9.3587 18.192"/>
   <path class="link thread62 WhiteStart" d="m903 947.48-15.28 5.5628"/>
   <path class="link thread6 WhiteStart" d="m902.73 934.77 5.9073 10.663"/>
   <path class="link thread62 WhiteEnd" d="m932.82 926.31-19.477 15.402"/>
   <path class="link thread5 WhiteEnd" d="m920.06 910.76 8.9507 10.908"/>
   <path class="link thread62 WhiteStart" d="m957.58 889.37-24.76 36.933"/>
   <path class="link thread6 WhiteEnd" d="m883.5 913.27 12.072 12.018"/>
   <path class="link thread61 WhiteStart" d="m915.66 914.84-15.841 14.68"/>
   <path class="link thread5 WhiteStart" d="m889.48 912.86 30.58-2.0969"/>
   <path class="link thread61 WhiteEnd" d="m960.92 884.39-35.816 23.116"/>
   <path class="link thread65 WhiteEnd" d="m1112 860.63-9.2758 18.014"/>
   <path class="link thread66 WhiteStart" d="m1115.2 878.58-15.229 5.4063"/>
   <path class="link thread11 WhiteStart" d="m1114.9 865.88 5.9449 10.691"/>
   <path class="link thread66 WhiteEnd" d="m1145 857.91-19.344 14.982"/>
   <path class="link thread12 WhiteEnd" d="m1132.2 842.3 8.9846 10.968"/>
   <path class="link thread66 WhiteStart" d="m1169.4 821.82-24.427 36.096"/>
   <path class="link thread11 WhiteEnd" d="m1095.7 844.24 12.089 12.143"/>
   <path class="link thread65 WhiteStart" d="m1127.8 846.34-15.722 14.295"/>
   <path class="link thread12 WhiteStart" d="m1101.7 843.92 30.492-1.6183"/>
   <path class="link thread65 WhiteEnd" d="m1172.8 816.85-35.494 22.267"/>
   <path class="link thread5 WhiteEnd" d="m855.61 921.25 22.117-6.3279"/>
   <path class="link thread6 WhiteStart" d="m864.13 898.6 19.369 14.665"/>
   <path class="link thread64 WhiteEnd" d="m829.54 925.1 14.509 19.355"/>
   <path class="link thread63 WhiteStart" d="m853.97 927.02-6.3225 22.24"/>
   <path class="link thread5 WhiteStart" d="m835.48 924.22 20.136-2.9774"/>
   <path class="link thread63 WhiteEnd" d="m859.34 894.98-2.8887 20.325"/>
   <path class="link thread6 WhiteEnd" d="m833.7 899.65 19.744-3.5957"/>
   <path class="link thread63 WhiteStart" d="m861.16 861.38-1.8133 33.596"/>
   <path class="link thread5 WhiteEnd" d="m790.01 926.78 33.535-1.4268"/>
   <path class="link thread64 WhiteStart" d="m832.73 905.57-3.1898 19.528"/>
   <path class="link thread6 WhiteStart" d="m814.49 902.26 19.207-2.6077"/>
   <path class="link thread64 WhiteEnd" d="m837.29 874.57-2.742 19.138"/>
   <path class="link thread57 WhiteEnd" d="m720.53 995.36-19.431 15.161"/>
   <path class="link thread71 WhiteEnd" d="m707.66 979.87 9.0361 10.871"/>
   <path class="link thread57 WhiteStart" d="m745.22 958.77-24.691 36.589"/>
   <path class="link thread72 WhiteEnd" d="m671.03 982.24 12.125 11.931"/>
   <path class="link thread58 WhiteStart" d="m703.23 983.92-15.796 14.456"/>
   <path class="link thread71 WhiteStart" d="m677.02 981.85 30.636-1.9808"/>
   <path class="link thread58 WhiteEnd" d="m748.58 953.79-35.859 22.853"/>
   <path class="link thread12 WhiteEnd" d="m1067.9 851.93 22.046-6.0961"/>
   <path class="link thread11 WhiteStart" d="m1076.3 829.36 19.46 14.883"/>
   <path class="link thread8 WhiteEnd" d="m1041.8 855.62 14.533 19.48"/>
   <path class="link thread7 WhiteStart" d="m1066.2 857.71-6.284 22.199"/>
   <path class="link thread12 WhiteStart" d="m1047.8 854.78 20.098-2.8428"/>
   <path class="link thread7 WhiteEnd" d="m1071.5 825.71-2.7862 20.278"/>
   <path class="link thread11 WhiteEnd" d="m1045.9 830.12 19.697-3.3948"/>
   <path class="link thread7 WhiteStart" d="m1072.9 792.21-1.4422 33.5"/>
   <path class="link thread12 WhiteEnd" d="m1002.3 857.18 33.54-1.3269"/>
   <path class="link thread8 WhiteStart" d="m1044.9 836.05-3.0946 19.566"/>
   <path class="link thread11 WhiteStart" d="m1026.7 832.6 19.186-2.4794"/>
   <path class="link thread8 WhiteEnd" d="m1049.2 805.04-2.5606 19.133"/>
   <path class="link thread57 WhiteEnd" d="m773.85 914.27-22.043 34.465"/>
   <path class="link thread58 WhiteStart" d="m784.98 930.06-36.408 23.734"/>
   <path class="link thread5 WhiteStart" d="m778.6 917.95 11.414 8.8361"/>
   <path class="link thread58 WhiteEnd" d="m808.54 903.07-14.84 18.988"/>
   <path class="link thread6 WhiteEnd" d="m792.72 894.66 10.526 5.5932"/>
   <path class="link thread58 WhiteStart" d="m814.25 887.86-5.7008 15.211"/>
   <path class="link thread5 WhiteEnd" d="m776.3 878.59-2.0351 29.696"/>
   <path class="link thread57 WhiteStart" d="m788.56 898.98-14.709 15.292"/>
   <path class="link thread6 WhiteStart" d="m780.59 882.79 12.134 11.871"/>
   <path class="link thread57 WhiteEnd" d="m816.35 882.24-18.32 9.6294"/>
   <path class="link thread71 WhiteEnd" d="m643.19 989.97 22.065-6.1274"/>
   <path class="link thread72 WhiteStart" d="m651.63 967.63 19.407 14.61"/>
   <path class="link thread14 WhiteEnd" d="m617.18 993.55 14.618 19.25"/>
   <path class="link thread71 WhiteStart" d="m623.13 992.74 20.062-2.764"/>
   <path class="link thread13 WhiteEnd" d="m646.83 964.02-2.8114 20.01"/>
   <path class="link thread72 WhiteEnd" d="m621.2 968.43 19.723-3.3912"/>
   <path class="link thread13 WhiteStart" d="m648.65 930.82-1.8206 33.199"/>
   <path class="link thread71 WhiteEnd" d="m577.89 994.54 33.291-0.83825"/>
   <path class="link thread14 WhiteStart" d="m620.25 974.35-3.0685 19.202"/>
   <path class="link thread72 WhiteStart" d="m602.09 970.75 19.11-2.3254"/>
   <path class="link thread14 WhiteEnd" d="m624.74 943.64-2.6903 18.848"/>
   <path class="link thread62 WhiteEnd" d="m986.14 844.53-22.01 34.787"/>
   <path class="link thread61 WhiteStart" d="m997.3 860.48-36.376 23.914"/>
   <path class="link thread12 WhiteStart" d="m990.86 848.23 11.446 8.9511"/>
   <path class="link thread61 WhiteEnd" d="m1020.7 833.37-14.758 19.063"/>
   <path class="link thread11 WhiteEnd" d="m1004.9 824.83 10.557 5.6929"/>
   <path class="link thread61 WhiteStart" d="m1026.3 818.17-5.5953 15.201"/>
   <path class="link thread12 WhiteEnd" d="m988.46 808.6-1.9319 29.95"/>
   <path class="link thread62 WhiteStart" d="m1000.8 829.18-14.627 15.356"/>
   <path class="link thread11 WhiteStart" d="m992.73 812.81 12.177 12.021"/>
   <path class="link thread62 WhiteEnd" d="m1028.4 812.54-18.188 9.511"/>
   <path class="link thread58 WhiteEnd" d="m828.53 858.72-9.4195 18.189"/>
   <path class="link thread57 WhiteStart" d="m831.66 876.64-15.305 5.6008"/>
   <path class="link thread64 WhiteStart" d="m831.43 863.97 5.8587 10.602"/>
   <path class="link thread57 WhiteEnd" d="m861.48 855.39-19.489 15.453"/>
   <path class="link thread63 WhiteEnd" d="m848.77 839.91 8.9044 10.847"/>
   <path class="link thread57 WhiteStart" d="m886.26 818.41-24.777 36.982"/>
   <path class="link thread64 WhiteEnd" d="m812.26 842.58 12.008 11.915"/>
   <path class="link thread58 WhiteStart" d="m844.37 843.99-15.845 14.726"/>
   <path class="link thread63 WhiteStart" d="m818.25 842.14 30.523-2.2321"/>
   <path class="link thread58 WhiteEnd" d="m889.6 813.43-35.794 23.218"/>
   <path class="link thread61 WhiteEnd" d="m1040.4 789.1-9.2371 18.093"/>
   <path class="link thread62 WhiteStart" d="m1043.6 807.08-15.18 5.4644"/>
   <path class="link thread8 WhiteStart" d="m1043.3 794.35 5.9446 10.695"/>
   <path class="link thread62 WhiteEnd" d="m1073.2 786.22-19.236 15.12"/>
   <path class="link thread7 WhiteEnd" d="m1060.4 770.61 8.9755 10.965"/>
   <path class="link thread62 WhiteStart" d="m1097.4 749.83-24.2 36.381"/>
   <path class="link thread8 WhiteEnd" d="m1024.1 772.74 12.059 12.114"/>
   <path class="link thread61 WhiteStart" d="m1056 774.68-15.628 14.427"/>
   <path class="link thread7 WhiteStart" d="m1030.1 772.39 30.34-1.7797"/>
   <path class="link thread61 WhiteEnd" d="m1100.7 744.84-35.244 22.536"/>
   <path class="link thread54 WhiteEnd" d="m561.74 982.03-21.398 33.165"/>
   <path class="link thread71 WhiteStart" d="m566.49 985.7 11.406 8.8393"/>
   <path class="link thread53 WhiteEnd" d="m596.13 971.48-14.517 18.36"/>
   <path class="link thread72 WhiteEnd" d="m580.35 962.99 10.498 5.6494"/>
   <path class="link thread53 WhiteStart" d="m601.72 956.61-5.5883 14.864"/>
   <path class="link thread71 WhiteEnd" d="m563.94 947.03-1.8233 29.008"/>
   <path class="link thread54 WhiteStart" d="m576.16 967.28-14.412 14.752"/>
   <path class="link thread72 WhiteStart" d="m568.25 951.22 12.104 11.769"/>
   <path class="link thread54 WhiteEnd" d="m603.83 951-18.138 9.2594"/>
   <path class="link thread53 WhiteEnd" d="m615.97 927.89-9.3481 17.795"/>
   <path class="link thread54 WhiteStart" d="m619.08 945.63-15.245 5.3661"/>
   <path class="link thread14 WhiteStart" d="m618.89 933.13 5.8479 10.506"/>
   <path class="link thread54 WhiteEnd" d="m648.98 924.83-19.507 15.132"/>
   <path class="link thread13 WhiteEnd" d="m636.27 909.42 8.8961 10.781"/>
   <path class="link thread54 WhiteStart" d="m673.89 888.36-24.911 36.468"/>
   <path class="link thread14 WhiteEnd" d="m599.77 911.87 11.93 11.799"/>
   <path class="link thread53 WhiteStart" d="m631.83 913.46-15.861 14.432"/>
   <path class="link thread13 WhiteStart" d="m605.76 911.47 30.508-2.0495"/>
   <path class="link thread53 WhiteEnd" d="m677.28 883.41-35.943 22.8"/>
   <path class="link thread63 WhiteEnd" d="m784.38 850.65 22.121-6.4005"/>
   <path class="link thread64 WhiteStart" d="m793.01 828.06 19.254 14.521"/>
   <path class="link thread6 WhiteEnd" d="m758.32 854.59 14.381 19.199"/>
   <path class="link thread5 WhiteStart" d="m782.71 856.41-6.4139 22.18"/>
   <path class="link thread63 WhiteStart" d="m764.25 853.69 20.127-3.045"/>
   <path class="link thread5 WhiteEnd" d="m788.22 824.45-2.9704 20.265"/>
   <path class="link thread64 WhiteEnd" d="m762.62 829.24 19.699-3.6884"/>
   <path class="link thread5 WhiteStart" d="m790.19 790.96-1.9684 33.481"/>
   <path class="link thread63 WhiteEnd" d="m718.85 856.43 33.479-1.5615"/>
   <path class="link thread6 WhiteStart" d="m761.62 835.15-3.2994 19.436"/>
   <path class="link thread64 WhiteStart" d="m743.46 831.94 19.163-2.7013"/>
   <path class="link thread6 WhiteEnd" d="m766.36 804.25-2.8502 19.057"/>
   <path class="link thread7 WhiteEnd" d="m996.34 780.57 21.961-6.1974"/>
   <path class="link thread8 WhiteStart" d="m1004.7 757.94 19.382 14.8"/>
   <path class="link thread11 WhiteEnd" d="m970.38 784.37 14.486 19.421"/>
   <path class="link thread12 WhiteStart" d="m994.72 786.34-6.264 22.255"/>
   <path class="link thread7 WhiteStart" d="m976.32 783.5 20.026-2.9314"/>
   <path class="link thread12 WhiteEnd" d="m999.93 754.3-2.7736 20.323"/>
   <path class="link thread8 WhiteEnd" d="m974.42 758.86 19.604-3.5078"/>
   <path class="link thread12 WhiteStart" d="m1001.3 720.75-1.4118 33.547"/>
   <path class="link thread7 WhiteEnd" d="m930.95 786.1 33.441-1.4721"/>
   <path class="link thread11 WhiteStart" d="m973.48 764.79-3.0992 19.578"/>
   <path class="link thread8 WhiteStart" d="m955.31 761.44 19.107-2.5801"/>
   <path class="link thread11 WhiteEnd" d="m977.78 733.77-2.565 19.149"/>
   <path class="link thread57 WhiteEnd" d="m914.82 773.52-22.02 34.836"/>
   <path class="link thread58 WhiteStart" d="m925.94 789.41-36.343 24.017"/>
   <path class="link thread7 WhiteStart" d="m919.55 777.21 11.393 8.8914"/>
   <path class="link thread58 WhiteEnd" d="m949.37 762.25-14.753 19.108"/>
   <path class="link thread8 WhiteEnd" d="m933.58 753.78 10.501 5.632"/>
   <path class="link thread58 WhiteStart" d="m954.96 747-5.5899 15.241"/>
   <path class="link thread7 WhiteEnd" d="m917.22 737.61-1.9968 29.925"/>
   <path class="link thread57 WhiteStart" d="m929.44 758.13-14.622 15.392"/>
   <path class="link thread8 WhiteStart" d="m921.49 741.83 12.091 11.952"/>
   <path class="link thread57 WhiteEnd" d="m957.02 741.37-18.141 9.5998"/>
   <path class="link thread13 WhiteEnd" d="m571.97 919.61 22.024-6.1279"/>
   <path class="link thread14 WhiteStart" d="m580.65 897.44 19.122 14.436"/>
   <path class="link thread72 WhiteEnd" d="m546.06 923.19 14.282 19.04"/>
   <path class="link thread71 WhiteStart" d="m570.28 925.37-6.3397 21.666"/>
   <path class="link thread13 WhiteStart" d="m552 922.37 19.964-2.7623"/>
   <path class="link thread71 WhiteEnd" d="m575.86 893.82-2.9984 19.855"/>
   <path class="link thread14 WhiteEnd" d="m550.35 898.28 19.599-3.4249"/>
   <path class="link thread71 WhiteStart" d="m578.04 860.91-2.1809 32.908"/>
   <path class="link thread13 WhiteEnd" d="m507.07 924.2 32.996-0.85029"/>
   <path class="link thread72 WhiteStart" d="m549.34 904.19-3.2736 19.002"/>
   <path class="link thread14 WhiteStart" d="m531.39 900.63 18.961-2.3538"/>
   <path class="link thread72 WhiteEnd" d="m554.18 873.69-2.9034 18.665"/>
   <path class="link thread49 WhiteStart" d="m462.92 954.46-24.1 34.818"/>
   <path class="link thread50 WhiteEnd" d="m466.33 949.53-34.84 21.102"/>
   <path class="link thread54 WhiteEnd" d="m702.77 844.04-22.23 34.334"/>
   <path class="link thread53 WhiteStart" d="m713.81 859.7-36.535 23.71"/>
   <path class="link thread63 WhiteStart" d="m707.52 847.7 11.326 8.7316"/>
   <path class="link thread53 WhiteEnd" d="m737.52 832.78-14.954 18.944"/>
   <path class="link thread64 WhiteEnd" d="m721.76 824.47 10.446 5.5055"/>
   <path class="link thread53 WhiteStart" d="m743.29 817.59-5.7721 15.188"/>
   <path class="link thread63 WhiteEnd" d="m705.49 808.54-2.2628 29.51"/>
   <path class="link thread54 WhiteStart" d="m717.58 828.78-14.815 15.257"/>
   <path class="link thread64 WhiteStart" d="m709.78 812.74 11.986 11.733"/>
   <path class="link thread54 WhiteEnd" d="m745.42 811.98-18.352 9.6918"/>
   <path class="link thread53 WhiteEnd" d="m757.71 788.48-9.5084 18.186"/>
   <path class="link thread54 WhiteStart" d="m760.73 806.33-15.31 5.6545"/>
   <path class="link thread6 WhiteStart" d="m760.6 793.74 5.7646 10.509"/>
   <path class="link thread54 WhiteEnd" d="m790.54 784.97-19.487 15.533"/>
   <path class="link thread5 WhiteEnd" d="m777.93 769.58 8.8039 10.75"/>
   <path class="link thread54 WhiteStart" d="m815.35 747.93-24.815 37.041"/>
   <path class="link thread6 WhiteEnd" d="m741.58 772.49 11.872 11.762"/>
   <path class="link thread53 WhiteStart" d="m773.55 773.68-15.839 14.799"/>
   <path class="link thread5 WhiteStart" d="m747.56 772.01 30.377-2.4318"/>
   <path class="link thread53 WhiteEnd" d="m818.69 742.95-35.737 23.352"/>
   <path class="link thread58 WhiteEnd" d="m968.96 717.86-9.2242 18.16"/>
   <path class="link thread57 WhiteStart" d="m972.15 735.83-15.125 5.5412"/>
   <path class="link thread11 WhiteStart" d="m971.87 723.11 5.9082 10.657"/>
   <path class="link thread57 WhiteEnd" d="m1001.6 714.76-19.124 15.267"/>
   <path class="link thread12 WhiteEnd" d="m988.87 699.2 8.9223 10.913"/>
   <path class="link thread57 WhiteStart" d="m1025.6 678.14-23.997 36.612"/>
   <path class="link thread11 WhiteEnd" d="m952.75 701.57 11.984 12.04"/>
   <path class="link thread58 WhiteStart" d="m984.5 703.3-15.533 14.561"/>
   <path class="link thread12 WhiteStart" d="m958.73 701.18 30.139-1.9784"/>
   <path class="link thread58 WhiteEnd" d="m1028.9 673.13-34.979 22.795"/>
   <path class="link thread49 WhiteEnd" d="m491.13 911.76-21.503 32.751"/>
   <path class="link thread50 WhiteStart" d="m501.97 927.37-35.638 22.164"/>
   <path class="link thread13 WhiteStart" d="m495.86 915.46 11.206 8.7428"/>
   <path class="link thread50 WhiteEnd" d="m525.44 901.37-14.608 18.152"/>
   <path class="link thread14 WhiteEnd" d="m509.84 892.94 10.323 5.5797"/>
   <path class="link thread50 WhiteStart" d="m531.14 886.61-5.7025 14.762"/>
   <path class="link thread13 WhiteEnd" d="m493.77 877.09-2.1808 28.691"/>
   <path class="link thread49 WhiteStart" d="m505.61 897.2-14.476 14.569"/>
   <path class="link thread14 WhiteStart" d="m498.04 881.3 11.798 11.635"/>
   <path class="link thread49 WhiteEnd" d="m533.3 881.01-18.117 9.208"/>
   <path class="link thread12 WhiteEnd" d="m925.13 709.55 21.856-6.3154"/>
   <path class="link thread11 WhiteStart" d="m933.5 686.91 19.244 14.658"/>
   <path class="link thread8 WhiteEnd" d="m899.26 713.49 14.373 19.307"/>
   <path class="link thread7 WhiteStart" d="m923.5 715.32-6.2797 22.282"/>
   <path class="link thread12 WhiteStart" d="m905.2 712.58 19.932-3.0344"/>
   <path class="link thread7 WhiteEnd" d="m928.73 683.28-2.7885 20.33"/>
   <path class="link thread11 WhiteEnd" d="m903.35 688.01 19.482-3.6325"/>
   <path class="link thread7 WhiteStart" d="m930.17 649.78-1.4348 33.501"/>
   <path class="link thread12 WhiteEnd" d="m859.99 715.47 33.285-1.6792"/>
   <path class="link thread8 WhiteStart" d="m902.4 693.93-3.1365 19.555"/>
   <path class="link thread11 WhiteStart" d="m884.35 690.72 18.997-2.7085"/>
   <path class="link thread8 WhiteEnd" d="m906.76 662.94-2.5993 19.12"/>
   <path class="link thread50 WhiteEnd" d="m545.64 858.03-9.4964 17.692"/>
   <path class="link thread49 WhiteStart" d="m548.52 875.67-15.215 5.3408"/>
   <path class="link thread72 WhiteStart" d="m548.51 863.3 5.6679 10.384"/>
   <path class="link thread49 WhiteEnd" d="m578.44 854.93-19.515 15.088"/>
   <path class="link thread71 WhiteEnd" d="m565.96 839.61 8.6897 10.667"/>
   <path class="link thread49 WhiteStart" d="m603.51 818.64-25.074 36.282"/>
   <path class="link thread72 WhiteEnd" d="m529.75 842.15 11.646 11.641"/>
   <path class="link thread50 WhiteStart" d="m561.52 843.64-15.88 14.397"/>
   <path class="link thread71 WhiteStart" d="m535.73 841.73 30.228-2.124"/>
   <path class="link thread50 WhiteEnd" d="m606.93 813.71-35.893 22.693"/>
   <path class="link thread20 WhiteEnd" d="m1141.5 718.35 33.441-0.64037"/>
   <path class="link thread19 WhiteStart" d="m1165.5 694.23 19.072-2.0229"/>
   <path class="link thread5 WhiteEnd" d="m713.75 780.7 22.074-6.5065"/>
   <path class="link thread6 WhiteStart" d="m722.54 758.2 19.035 14.292"/>
   <path class="link thread64 WhiteEnd" d="m687.77 784.76 14.137 18.975"/>
   <path class="link thread63 WhiteStart" d="m712.04 786.45-6.5511 22.095"/>
   <path class="link thread5 WhiteStart" d="m693.7 783.83 20.051-3.1344"/>
   <path class="link thread63 WhiteEnd" d="m717.74 754.6-3.0878 20.167"/>
   <path class="link thread6 WhiteEnd" d="m692.27 759.56 19.584-3.814"/>
   <path class="link thread63 WhiteStart" d="m719.94 721.33-2.1952 33.269"/>
   <path class="link thread5 WhiteEnd" d="m648.5 786.81 33.272-1.7396"/>
   <path class="link thread64 WhiteStart" d="m691.21 765.47-3.4461 19.291"/>
   <path class="link thread6 WhiteStart" d="m673.22 762.38 19.046-2.8233"/>
   <path class="link thread64 WhiteEnd" d="m696.2 734.71-2.9923 18.928"/>
   <path class="link thread71 WhiteEnd" d="m502.1 849.88 21.872-6.1168"/>
   <path class="link thread72 WhiteStart" d="m511.05 827.92 18.696 14.227"/>
   <path class="link thread14 WhiteEnd" d="m476.43 853.43 13.789 18.822"/>
   <path class="link thread13 WhiteStart" d="m500.34 855.62-6.5736 21.47"/>
   <path class="link thread71 WhiteStart" d="m482.38 852.61 19.721-2.7239"/>
   <path class="link thread13 WhiteEnd" d="m506.28 824.29-3.2127 19.672"/>
   <path class="link thread72 WhiteEnd" d="m481.02 828.78 19.346-3.4371"/>
   <path class="link thread13 WhiteStart" d="m508.88 791.74-2.6016 32.553"/>
   <path class="link thread71 WhiteEnd" d="m438.03 854.36 32.4-0.78227"/>
   <path class="link thread14 WhiteStart" d="m479.92 834.68-3.492 18.753"/>
   <path class="link thread72 WhiteStart" d="m462.36 831.11 18.665-2.3348"/>
   <path class="link thread14 WhiteEnd" d="m485.17 804.42-3.1409 18.44"/>
   <path class="link thread54 WhiteEnd" d="m843.94 703-22.044 34.874"/>
   <path class="link thread53 WhiteStart" d="m854.99 718.79-36.298 24.156"/>
   <path class="link thread12 WhiteStart" d="m848.68 706.68 11.305 8.784"/>
   <path class="link thread53 WhiteEnd" d="m878.41 691.56-14.764 19.153"/>
   <path class="link thread11 WhiteEnd" d="m862.7 683.22 10.411 5.5312"/>
   <path class="link thread53 WhiteStart" d="m884.01 676.3-5.5958 15.265"/>
   <path class="link thread12 WhiteEnd" d="m846.49 667.2-2.1186 29.816"/>
   <path class="link thread54 WhiteStart" d="m858.58 687.57-14.632 15.432"/>
   <path class="link thread11 WhiteStart" d="m850.76 671.42 11.947 11.799"/>
   <path class="link thread54 WhiteEnd" d="m886.07 670.67-18.085 9.713"/>
   <path class="link thread49 WhiteEnd" d="m632.57 774.56-22.354 34.129"/>
   <path class="link thread50 WhiteStart" d="m643.47 790.07-36.541 23.639"/>
   <path class="link thread5 WhiteStart" d="m637.32 778.22 11.18 8.5939"/>
   <path class="link thread50 WhiteEnd" d="m667.29 763.26-15.042 18.857"/>
   <path class="link thread6 WhiteEnd" d="m651.65 755.09 10.317 5.394"/>
   <path class="link thread50 WhiteStart" d="m673.13 748.12-5.8453 15.145"/>
   <path class="link thread5 WhiteEnd" d="m635.61 739.32-2.5259 29.26"/>
   <path class="link thread49 WhiteStart" d="m647.45 759.37-14.887 15.186"/>
   <path class="link thread6 WhiteStart" d="m639.89 743.53 11.765 11.561"/>
   <path class="link thread49 WhiteEnd" d="m675.29 742.52-18.342 9.7519"/>
   <path class="link thread62 WhiteEnd" d="m1125.3 705.46-21.392 34.287"/>
   <path class="link thread61 WhiteStart" d="m1136.5 721.61-35.804 23.226"/>
   <path class="link thread20 WhiteStart" d="m1130 709.19 11.566 9.1607"/>
   <path class="link thread61 WhiteEnd" d="m1159.5 694.87-14.295 18.713"/>
   <path class="link thread19 WhiteEnd" d="m1143.6 686.04 10.642 5.9143"/>
   <path class="link thread61 WhiteStart" d="m1164.7 679.95-5.2387 14.922"/>
   <path class="link thread20 WhiteEnd" d="m1127 669.64-1.4281 29.824"/>
   <path class="link thread62 WhiteStart" d="m1139.5 690.4-14.203 15.059"/>
   <path class="link thread19 WhiteStart" d="m1131.3 673.86 12.336 12.178"/>
   <path class="link thread62 WhiteEnd" d="m1166.7 674.28-17.765 9.0346"/>
   <path class="link thread53 WhiteEnd" d="m898.01 647.12-9.226 18.196"/>
   <path class="link thread54 WhiteStart" d="m901.14 665.04-15.063 5.6235"/>
   <path class="link thread8 WhiteStart" d="m900.92 652.37 5.8425 10.574"/>
   <path class="link thread54 WhiteEnd" d="m930.42 643.78-19.002 15.387"/>
   <path class="link thread7 WhiteEnd" d="m917.79 628.31 8.8377 10.821"/>
   <path class="link thread54 WhiteStart" d="m954.22 607.04-23.801 36.744"/>
   <path class="link thread8 WhiteEnd" d="m881.92 630.99 11.853 11.878"/>
   <path class="link thread53 WhiteStart" d="m913.44 632.45-15.428 14.67"/>
   <path class="link thread7 WhiteStart" d="m887.91 630.55 29.884-2.2327"/>
   <path class="link thread53 WhiteEnd" d="m957.49 602-34.695 22.997"/>
   <path class="link thread45 WhiteEnd" d="m456.4 831.86-14.575 17.851"/>
   <path class="link thread72 WhiteEnd" d="m441.09 823.43 10.056 5.5359"/>
   <path class="link thread45 WhiteStart" d="m462.2 817.24-5.7997 14.622"/>
   <path class="link thread72 WhiteStart" d="m429.74 811.89 11.352 11.534"/>
   <path class="link thread46 WhiteEnd" d="m464.42 811.66-17.968 9.067"/>
   <path class="link thread50 WhiteEnd" d="m687.7 719.05-9.6027 18.163"/>
   <path class="link thread49 WhiteStart" d="m690.58 736.81-15.285 5.7137"/>
   <path class="link thread64 WhiteStart" d="m690.56 724.33 5.6353 10.38"/>
   <path class="link thread49 WhiteEnd" d="m720.33 715.34-19.455 15.608"/>
   <path class="link thread63 WhiteEnd" d="m707.89 700.08 8.6548 10.615"/>
   <path class="link thread49 WhiteStart" d="m745.18 678.3-24.846 37.04"/>
   <path class="link thread64 WhiteEnd" d="m671.77 703.26 11.667 11.566"/>
   <path class="link thread50 WhiteStart" d="m703.51 704.19-15.814 14.866"/>
   <path class="link thread63 WhiteStart" d="m677.75 702.74 30.138-2.6579"/>
   <path class="link thread50 WhiteEnd" d="m748.52 673.32-35.623 23.458"/>
   <path class="link thread61 WhiteEnd" d="m1178.1 651.29-8.7358 17.619"/>
   <path class="link thread62 WhiteStart" d="m1181.6 669.23-14.856 5.0528"/>
   <path class="link thread16 WhiteEnd" d="m1161.7 634.66 12.174 12.352"/>
   <path class="link thread15 WhiteStart" d="m1167.7 634.48 29.941-0.91365"/>
   <path class="link thread45 WhiteEnd" d="m476.94 788.86-9.6338 17.541"/>
   <path class="link thread46 WhiteStart" d="m479.51 806.4-15.09 5.2599"/>
   <path class="link thread14 WhiteStart" d="m479.74 794.16 5.4279 10.262"/>
   <path class="link thread46 WhiteEnd" d="m509.36 785.76-19.435 15"/>
   <path class="link thread13 WhiteEnd" d="m497.23 770.5 8.3932 10.558"/>
   <path class="link thread46 WhiteStart" d="m534.52 749.73-25.159 36.03"/>
   <path class="link thread14 WhiteEnd" d="m461.52 773.04 11.228 11.523"/>
   <path class="link thread45 WhiteStart" d="m492.78 774.53-15.842 14.329"/>
   <path class="link thread13 WhiteStart" d="m467.51 772.61 29.722-2.1096"/>
   <path class="link thread45 WhiteEnd" d="m537.95 744.81-35.646 22.493"/>
   <path class="link thread63 WhiteEnd" d="m644.07 711.61 21.959-6.6176"/>
   <path class="link thread64 WhiteStart" d="m653.06 689.26 18.713 14.007"/>
   <path class="link thread6 WhiteEnd" d="m618.26 715.79 13.792 18.705"/>
   <path class="link thread5 WhiteStart" d="m642.32 717.35-6.7081 21.972"/>
   <path class="link thread63 WhiteStart" d="m624.18 714.83 19.89-3.2187"/>
   <path class="link thread5 WhiteEnd" d="m648.26 685.66-3.2316 20.028"/>
   <path class="link thread64 WhiteEnd" d="m622.99 690.79 19.386-3.9372"/>
   <path class="link thread5 WhiteStart" d="m650.74 652.7-2.4855 32.96"/>
   <path class="link thread63 WhiteEnd" d="m579.37 718.05 32.893-1.9165"/>
   <path class="link thread6 WhiteStart" d="m621.87 696.69-3.6184 19.102"/>
   <path class="link thread64 WhiteStart" d="m604.16 693.73 18.835-2.9388"/>
   <path class="link thread6 WhiteEnd" d="m627.16 666.13-3.1722 18.747"/>
   <path class="link thread15 WhiteEnd" d="m1134.3 641.87 21.585-5.677"/>
   <path class="link thread16 WhiteStart" d="m1142.1 619.49 19.592 15.171"/>
   <path class="link thread19 WhiteEnd" d="m1108.6 645.23 14.775 19.624"/>
   <path class="link thread20 WhiteStart" d="m1132.8 647.67-5.8116 21.976"/>
   <path class="link thread15 WhiteStart" d="m1114.6 644.45 19.78-2.5831"/>
   <path class="link thread20 WhiteEnd" d="m1137.4 615.82-2.3533 20.088"/>
   <path class="link thread16 WhiteEnd" d="m1112.1 619.79 19.387-3.043"/>
   <path class="link thread20 WhiteStart" d="m1137.8 582.65-0.4188 33.169"/>
   <path class="link thread15 WhiteEnd" d="m1069.4 646.31 33.191-0.91568"/>
   <path class="link thread19 WhiteStart" d="m1111.3 625.74-2.6558 19.489"/>
   <path class="link thread16 WhiteStart" d="m1093.2 621.99 18.908-2.193"/>
   <path class="link thread19 WhiteEnd" d="m1114.7 594.85-2.0287 18.975"/>
   <path class="link thread7 WhiteEnd" d="m854.45 639.18 21.719-6.4764"/>
   <path class="link thread8 WhiteStart" d="m862.9 616.61 19.024 14.383"/>
   <path class="link thread11 WhiteEnd" d="m828.73 643.32 14.176 19.065"/>
   <path class="link thread12 WhiteStart" d="m852.81 644.95-6.325 22.248"/>
   <path class="link thread7 WhiteStart" d="m834.66 642.37 19.798-3.1859"/>
   <path class="link thread12 WhiteEnd" d="m858.11 612.99-2.8288 20.25"/>
   <path class="link thread8 WhiteEnd" d="m832.92 617.96 19.303-3.8101"/>
   <path class="link thread12 WhiteStart" d="m859.62 579.73-1.5088 33.264"/>
   <path class="link thread7 WhiteEnd" d="m789.71 645.68 33.03-1.997"/>
   <path class="link thread11 WhiteStart" d="m831.94 623.88-3.2126 19.44"/>
   <path class="link thread8 WhiteStart" d="m814.09 620.86 18.836-2.8999"/>
   <path class="link thread11 WhiteEnd" d="m836.42 593.03-2.6661 18.991"/>
   <path class="link thread46 WhiteEnd" d="m563.65 705.95-22.394 33.857"/>
   <path class="link thread45 WhiteStart" d="m574.33 721.31-36.383 23.499"/>
   <path class="link thread63 WhiteStart" d="m568.41 709.61 10.965 8.4453"/>
   <path class="link thread45 WhiteEnd" d="m598.23 694.66-15.089 18.727"/>
   <path class="link thread64 WhiteEnd" d="m582.79 686.61 10.12 5.2741"/>
   <path class="link thread45 WhiteStart" d="m604.15 679.58-5.9252 15.075"/>
   <path class="link thread63 WhiteEnd" d="m567.08 671.02-2.8368 28.959"/>
   <path class="link thread46 WhiteStart" d="m578.57 690.87-14.913 15.074"/>
   <path class="link thread64 WhiteStart" d="m571.33 675.24 11.452 11.365"/>
   <path class="link thread46 WhiteEnd" d="m606.35 674-18.271 9.7802"/>
   <path class="link thread57 WhiteEnd" d="m1053.2 633.54-21.192 34.479"/>
   <path class="link thread58 WhiteStart" d="m1064.4 649.62-35.536 23.507"/>
   <path class="link thread15 WhiteStart" d="m1057.9 637.25 11.495 9.0594"/>
   <path class="link thread58 WhiteEnd" d="m1087.2 622.68-14.178 18.837"/>
   <path class="link thread16 WhiteEnd" d="m1071.4 613.98 10.556 5.808"/>
   <path class="link thread58 WhiteStart" d="m1092.4 607.69-5.1781 14.992"/>
   <path class="link thread15 WhiteEnd" d="m1054.9 597.72-1.3974 29.826"/>
   <path class="link thread57 WhiteStart" d="m1067.3 618.37-14.095 15.163"/>
   <path class="link thread16 WhiteStart" d="m1059.2 601.93 12.228 12.05"/>
   <path class="link thread57 WhiteEnd" d="m1094.3 602.01-17.63 9.1894"/>
   <path class="link thread13 WhiteEnd" d="m434.19 780.67 21.552-6.0154"/>
   <path class="link thread14 WhiteStart" d="m443.43 758.97 18.093 14.067"/>
   <path class="link thread71 WhiteStart" d="m441.74 723.15-3.0518 32.14"/>
   <path class="link thread49 WhiteEnd" d="m773.78 633.42-22.049 34.828"/>
   <path class="link thread50 WhiteStart" d="m784.73 649.02-36.209 24.295"/>
   <path class="link thread7 WhiteStart" d="m778.53 637.08 11.178 8.6005"/>
   <path class="link thread50 WhiteEnd" d="m808.16 621.78-14.779 19.155"/>
   <path class="link thread8 WhiteEnd" d="m792.55 613.62 10.287 5.3755"/>
   <path class="link thread50 WhiteStart" d="m813.76 606.53-5.6076 15.243"/>
   <path class="link thread7 WhiteEnd" d="m776.5 597.85-2.2647 29.588"/>
   <path class="link thread49 WhiteStart" d="m788.42 617.98-14.644 15.447"/>
   <path class="link thread8 WhiteStart" d="m780.78 602.06 11.77 11.564"/>
   <path class="link thread49 WhiteEnd" d="m815.84 600.9-18.019 9.8434"/>
   <path class="link thread58 WhiteEnd" d="m1105.6 578.91-8.6507 17.712"/>
   <path class="link thread57 WhiteStart" d="m1109.1 596.84-14.737 5.1744"/>
   <path class="link thread19 WhiteStart" d="m1108.6 584.12 6.1361 10.732"/>
   <path class="link thread57 WhiteEnd" d="m1137.9 576.65-18.427 14.492"/>
   <path class="link thread20 WhiteEnd" d="m1125 560.97 9.1158 11.051"/>
   <path class="link thread57 WhiteStart" d="m1160.4 541.39-22.5 35.264"/>
   <path class="link thread19 WhiteEnd" d="m1089.3 562.43 12.086 12.216"/>
   <path class="link thread58 WhiteStart" d="m1120.6 565.06-14.926 13.856"/>
   <path class="link thread20 WhiteStart" d="m1095.3 562.18 29.634-1.2121"/>
   <path class="link thread58 WhiteEnd" d="m1163.6 536.33-33.601 21.418"/>
   <path class="link thread45 WhiteEnd" d="m618.88 650.61-9.7005 18.101"/>
   <path class="link thread46 WhiteStart" d="m621.55 668.25-15.204 5.7462"/>
   <path class="link thread6 WhiteStart" d="m621.71 655.9 5.4578 10.229"/>
   <path class="link thread46 WhiteEnd" d="m651.19 646.72-19.362 15.642"/>
   <path class="link thread5 WhiteEnd" d="m638.98 631.59 8.4403 10.46"/>
   <path class="link thread46 WhiteStart" d="m676.01 609.78-24.816 36.938"/>
   <path class="link thread6 WhiteEnd" d="m603.25 635.02 11.381 11.347"/>
   <path class="link thread45 WhiteStart" d="m634.63 635.71-15.745 14.896"/>
   <path class="link thread5 WhiteStart" d="m609.22 634.45 29.761-2.8619"/>
   <path class="link thread45 WhiteEnd" d="m679.36 604.8-35.371 23.471"/>
   <path class="link thread50 WhiteEnd" d="m827.77 577.36-9.2243 18.19"/>
   <path class="link thread49 WhiteStart" d="m830.82 595.17-14.983 5.7285"/>
   <path class="link thread11 WhiteStart" d="m830.67 582.61 5.7496 10.417"/>
   <path class="link thread49 WhiteEnd" d="m859.89 573.73-18.835 15.487"/>
   <path class="link thread12 WhiteEnd" d="m847.37 558.44 8.7193 10.651"/>
   <path class="link thread49 WhiteStart" d="m883.44 537.01-23.55 36.727"/>
   <path class="link thread11 WhiteEnd" d="m811.82 561.51 11.696 11.623"/>
   <path class="link thread50 WhiteStart" d="m843.06 562.61-15.282 14.754"/>
   <path class="link thread12 WhiteStart" d="m817.8 560.99 29.573-2.5524"/>
   <path class="link thread50 WhiteEnd" d="m886.68 531.95-34.333 23.132"/>
   <path class="link thread20 WhiteEnd" d="m1062.2 569.9 21.38-5.8751"/>
   <path class="link thread19 WhiteStart" d="m1069.9 547.52 19.442 14.91"/>
   <path class="link thread16 WhiteEnd" d="m1036.6 573.47 14.663 19.452"/>
   <path class="link thread15 WhiteStart" d="m1060.6 575.7-5.7485 22.015"/>
   <path class="link thread20 WhiteStart" d="m1042.6 572.64 19.597-2.7451"/>
   <path class="link thread15 WhiteEnd" d="m1065.1 543.87-2.284 20.064"/>
   <path class="link thread19 WhiteEnd" d="m1040 548.08 19.168-3.2212"/>
   <path class="link thread15 WhiteStart" d="m1065.4 510.87-0.266 33.003"/>
   <path class="link thread20 WhiteEnd" d="m997.72 574.92 32.898-1.2222"/>
   <path class="link thread16 WhiteStart" d="m1039.2 554.03-2.6158 19.441"/>
   <path class="link thread19 WhiteStart" d="m1021.3 550.45 18.716-2.3694"/>
   <path class="link thread16 WhiteEnd" d="m1042.6 523.22-1.9695 18.898"/>
   <path class="link thread41 WhiteEnd" d="m442.31 717.17-19.224 14.795"/>
   <path class="link thread41 WhiteStart" d="m467.4 681.56-25.092 35.614"/>
   <path class="link thread42 WhiteEnd" d="m470.86 676.66-35.131 22.096"/>
   <path class="link thread5 WhiteEnd" d="m575.77 643.5 21.751-6.7057"/>
   <path class="link thread6 WhiteStart" d="m584.96 621.35 18.295 13.672"/>
   <path class="link thread64 WhiteEnd" d="m550.22 647.76 13.336 18.395"/>
   <path class="link thread63 WhiteStart" d="m573.96 649.22-6.8841 21.799"/>
   <path class="link thread5 WhiteStart" d="m556.14 646.78 19.631-3.2797"/>
   <path class="link thread63 WhiteEnd" d="m580.15 617.76-3.3759 19.822"/>
   <path class="link thread6 WhiteEnd" d="m555.19 623.04 19.087-4.0416"/>
   <path class="link thread63 WhiteStart" d="m582.89 585.26-2.742 32.496"/>
   <path class="link thread5 WhiteEnd" d="m511.9 650.2 32.325-2.0573"/>
   <path class="link thread64 WhiteStart" d="m554.01 628.93-3.7916 18.839"/>
   <path class="link thread6 WhiteStart" d="m536.66 626.08 18.53-3.035"/>
   <path class="link thread64 WhiteEnd" d="m559.59 598.66-3.3315 18.482"/>
   <path class="link thread12 WhiteEnd" d="m784.54 569.95 21.551-6.671"/>
   <path class="link thread11 WhiteStart" d="m793.05 547.51 18.773 13.993"/>
   <path class="link thread8 WhiteEnd" d="m759 574.32 13.922 18.722"/>
   <path class="link thread7 WhiteStart" d="m782.88 575.72-6.376 22.134"/>
   <path class="link thread12 WhiteStart" d="m764.91 573.31 19.625-3.3524"/>
   <path class="link thread7 WhiteEnd" d="m788.24 543.93-2.8547 20.083"/>
   <path class="link thread11 WhiteEnd" d="m763.29 549.16 19.073-3.9983"/>
   <path class="link thread7 WhiteStart" d="m789.79 511.07-1.548 32.855"/>
   <path class="link thread12 WhiteEnd" d="m720.34 577.08 32.678-2.3358"/>
   <path class="link thread8 WhiteStart" d="m762.28 555.07-3.2841 19.242"/>
   <path class="link thread11 WhiteStart" d="m744.67 552.25 18.618-3.0964"/>
   <path class="link thread8 WhiteEnd" d="m766.86 524.44-2.7141 18.779"/>
   <path class="link thread41 WhiteEnd" d="m496.45 638.27-22.261 33.396"/>
   <path class="link thread42 WhiteStart" d="m506.86 653.45-36.001 23.202"/>
   <path class="link thread5 WhiteStart" d="m501.2 641.93 10.707 8.2688"/>
   <path class="link thread42 WhiteEnd" d="m530.74 627.05-15.051 18.5"/>
   <path class="link thread6 WhiteEnd" d="m515.54 619.14 9.8817 5.1407"/>
   <path class="link thread42 WhiteStart" d="m536.7 612.11-5.9626 14.938"/>
   <path class="link thread5 WhiteEnd" d="m500.2 603.78-3.1041 28.524"/>
   <path class="link thread41 WhiteStart" d="m511.3 623.39-14.851 14.881"/>
   <path class="link thread6 WhiteStart" d="m504.44 608.02 11.097 11.115"/>
   <path class="link thread41 WhiteEnd" d="m538.93 606.54-18.109 9.7555"/>
   <path class="link thread46 WhiteEnd" d="m704.53 565.07-21.966 34.659"/>
   <path class="link thread45 WhiteStart" d="m715.37 580.44-36.011 24.358"/>
   <path class="link thread12 WhiteStart" d="m709.31 568.7 11.026 8.3772"/>
   <path class="link thread45 WhiteEnd" d="m738.76 553.24-14.751 19.092"/>
   <path class="link thread11 WhiteEnd" d="m723.28 545.3 10.137 5.1972"/>
   <path class="link thread45 WhiteStart" d="m744.34 538.07-5.588 15.169"/>
   <path class="link thread12 WhiteEnd" d="m707.4 529.87-2.3838 29.225"/>
   <path class="link thread46 WhiteStart" d="m719.15 549.66-14.617 15.414"/>
   <path class="link thread11 WhiteStart" d="m711.71 534.05 11.573 11.255"/>
   <path class="link thread46 WhiteEnd" d="m746.42 532.44-17.894 9.9493"/>
   <path class="link thread54 WhiteEnd" d="m981.59 562.33-20.985 34.546"/>
   <path class="link thread53 WhiteStart" d="m992.75 578.27-35.261 23.733"/>
   <path class="link thread20 WhiteStart" d="m986.32 566.02 11.408 8.9004"/>
   <path class="link thread53 WhiteEnd" d="m1015.4 551.21-14.059 18.896"/>
   <path class="link thread19 WhiteEnd" d="m999.63 542.68 10.457 5.6657"/>
   <path class="link thread53 WhiteStart" d="m1020.5 536.21-5.0965 14.996"/>
   <path class="link thread20 WhiteEnd" d="m983.23 526.67-1.3715 29.665"/>
   <path class="link thread54 WhiteStart" d="m995.57 547.1-13.988 15.224"/>
   <path class="link thread19 WhiteStart" d="m987.53 530.86 12.106 11.824"/>
   <path class="link thread54 WhiteEnd" d="m1022.4 530.53-17.466 9.3265"/>
   <path class="link thread53 WhiteEnd" d="m1033.5 507.41-8.532 17.712"/>
   <path class="link thread54 WhiteStart" d="m1037 525.26-14.59 5.2726"/>
   <path class="link thread16 WhiteStart" d="m1036.5 512.61 6.104 10.605"/>
   <path class="link thread54 WhiteEnd" d="m1065.4 504.87-18.134 14.591"/>
   <path class="link thread45 WhiteEnd" d="m758.3 508.98-9.1752 18.108"/>
   <path class="link thread46 WhiteStart" d="m761.28 526.63-14.86 5.8126"/>
   <path class="link thread8 WhiteStart" d="m761.21 514.23 5.6543 10.212"/>
   <path class="link thread46 WhiteEnd" d="m790.07 505.08-18.596 15.516"/>
   <path class="link thread42 WhiteEnd" d="m551.52 583.32-9.7342 17.948"/>
   <path class="link thread41 WhiteStart" d="m553.98 600.8-15.054 5.7427"/>
   <path class="link thread64 WhiteStart" d="m554.32 588.63 5.2733 10.03"/>
   <path class="link thread41 WhiteEnd" d="m583.4 579.28-19.154 15.585"/>
   <path class="link thread63 WhiteEnd" d="m571.45 564.34 8.2041 10.263"/>
   <path class="link thread41 WhiteStart" d="m608 542.67-24.607 36.619"/>
   <path class="link thread64 WhiteEnd" d="m536.23 568 11.055 11.07"/>
   <path class="link thread42 WhiteStart" d="m567.1 568.47-15.578 14.842"/>
   <path class="link thread63 WhiteStart" d="m542.2 567.38 29.249-3.0442"/>
   <path class="link thread42 WhiteEnd" d="m611.35 537.69-34.914 23.317"/>
   <path class="link thread11 WhiteEnd" d="m690.15 506.81 13.658 18.256"/>
   <path class="link thread12 WhiteStart" d="m713.78 507.96-6.3784 21.907"/>
   <path class="link thread19 WhiteEnd" d="m965.08 502.77 14.526 19.123"/>
   <path class="link thread20 WhiteStart" d="m988.9 504.74-5.6635 21.929"/>
   <path class="link thread63 WhiteEnd" d="m509.08 576.56 21.43-6.7566"/>
   <path class="link thread64 WhiteStart" d="m518.41 554.73 17.814 13.274"/>
   <path class="link thread6 WhiteEnd" d="m483.91 580.85 12.812 18.033"/>
   <path class="link thread5 WhiteStart" d="m507.22 582.27-7.0152 21.512"/>
   <path class="link thread63 WhiteStart" d="m489.83 579.84 19.248-3.2837"/>
   <path class="link thread5 WhiteEnd" d="m513.6 551.14-3.4746 19.512"/>
   <path class="link thread64 WhiteEnd" d="m489.07 556.51 18.671-4.0863"/>
   <path class="link thread5 WhiteStart" d="m516.52 519.3-2.9175 31.84"/>
   <path class="link thread63 WhiteEnd" d="m446.42 583.31 31.507-2.0676"/>
   <path class="link thread6 WhiteStart" d="m487.83 562.38-3.9136 18.473"/>
   <path class="link thread64 WhiteStart" d="m470.98 559.56 18.088-3.053"/>
   <path class="link thread6 WhiteEnd" d="m493.63 532.5-3.442 18.113"/>
   <path class="link thread57 WhiteEnd" d="m1186.4 498.03-19.68 33.144"/>
   <path class="link thread58 WhiteStart" d="m1197.7 514.27-34.136 22.058"/>
   <path class="link thread41 WhiteEnd" d="m636.24 498.38-21.677 34.24"/>
   <path class="link thread42 WhiteStart" d="m646.99 513.39-35.637 24.291"/>
   <path class="link thread49 WhiteEnd" d="m910.47 492.36-20.698 34.448"/>
   <path class="link thread50 WhiteStart" d="m921.6 508.06-34.915 23.896"/>
   <path class="link thread37 WhiteStart" d="m441.37 586.56-35.233 22.625"/>
   <path class="link thread63 WhiteStart" d="m436.03 575.21 10.39 8.1022"/>
   <path class="link thread37 WhiteEnd" d="m465.07 560.56-14.843 18.111"/>
   <path class="link thread64 WhiteEnd" d="m450.17 552.75 9.5794 5.0283"/>
   <path class="link thread37 WhiteStart" d="m471 545.86-5.93 14.706"/>
   <path class="link thread38 WhiteStart" d="m445.92 556.98-14.622 14.545"/>
   <path class="link thread64 WhiteStart" d="m439.52 541.9 10.655 10.847"/>
   <path class="link thread38 WhiteEnd" d="m473.24 540.29-17.786 9.6034"/>
   <path class="link thread37 WhiteEnd" d="m485.81 517.37-9.6838 17.663"/>
   <path class="link thread38 WhiteStart" d="m488.03 534.64-14.788 5.6473"/>
   <path class="link thread6 WhiteStart" d="m488.56 522.7 5.0694 9.8062"/>
   <path class="link thread38 WhiteEnd" d="m517.07 513.33-18.792 15.377"/>
   <path class="link thread6 WhiteEnd" d="m470.95 502.32 10.64 10.782"/>
   <path class="link thread37 WhiteStart" d="m501.1 502.72-15.288 14.65"/>
   <path class="link thread63 WhiteStart" d="m442.4 516.53-7.0881 21.087"/>
   <path class="link thread5 WhiteStart" d="m425.64 514.03 18.676-3.1901"/>
  </g>
  <rect transform="matrix(1 .00093662 -.00053542 1 0 0)" x="443.32" y="513.87" width="732.15" height="483.56" stroke="#fafafa" stroke-linejoin="round" stroke-width="16.008"/>
 </g>
</svg>
