<?xml version="1.0" encoding="UTF-8"?>
<!--?xml version="1.0" encoding="UTF-8" standalone="no"?-->
<svg width="153" height="153" version="1.1" xmlns="http://www.w3.org/2000/svg">
 <g transform="matrix(.24983 0 0 .24966 -93.923 -104.2)" fill="none">
  <g stroke="#000" stroke-width="4.004">
   <path class="link thread7 WhiteEnd" d="m420.6 1020.7 18.733 28.809"/>
   <path class="link thread40 WhiteEnd" d="m487.16 1016.1 11.327 19.074"/>
   <path class="link thread42 WhiteEnd" d="m447.34 1023.9 17.01 6.9724"/>
   <path class="link thread21 WhiteStart" d="m482.89 1020.4-12.987 12.836"/>
   <path class="link thread40 WhiteStart" d="m450.68 1000.7 36.478 15.427"/>
   <path class="link thread21 WhiteEnd" d="m529.62 1001.7-36.784 12.503"/>
   <path class="link thread48 WhiteEnd" d="m919.18 1020.2 10.608 18.429"/>
   <path class="link thread29 WhiteStart" d="m915 1024.5-13.583 14.032"/>
   <path class="link thread48 WhiteStart" d="m883.28 1007.6 35.9 12.559"/>
   <path class="link thread29 WhiteEnd" d="m961.92 1002-37.225 15.833"/>
   <path class="link thread44 WhiteEnd" d="m703.64 1023.1 11.02 18.943"/>
   <path class="link thread25 WhiteStart" d="m699.45 1027.4-13.235 13.59"/>
   <path class="link thread44 WhiteStart" d="m667.35 1009 36.29 14.111"/>
   <path class="link thread25 WhiteEnd" d="m746.23 1006.4-36.999 14.45"/>
   <path class="link thread16 WhiteStart" d="m745.99 1012.4-0.95066 24.427"/>
   <path class="link thread47 WhiteEnd" d="m771.87 998.9-0.49222 24.197"/>
   <path class="link thread26 WhiteStart" d="m807.1 1016.3-35.845 12.81"/>
   <path class="link thread16 WhiteEnd" d="m769.9 968.58-20.494 32.762"/>
   <path class="link thread25 WhiteStart" d="m766.11 1000.6-19.884 5.8376"/>
   <path class="link thread47 WhiteStart" d="m770.29 974.57 1.5777 24.334"/>
   <path class="link thread25 WhiteEnd" d="m799.47 989.3-21.934 7.632"/>
   <path class="link thread45 WhiteEnd" d="m661.76 1006.8 1.4458 19.688"/>
   <path class="link thread44 WhiteEnd" d="m635.6 1005.7 20.165 0.8191"/>
   <path class="link thread45 WhiteStart" d="m642.93 975.85 18.829 30.926"/>
   <path class="link thread46 WhiteEnd" d="m596.37 1012.7 34.937 15.132"/>
   <path class="link thread11 WhiteStart" d="m635.89 1011.7 0.92157 18.476"/>
   <path class="link thread44 WhiteStart" d="m619.28 998.94 16.311 6.7776"/>
   <path class="link thread11 WhiteEnd" d="m627.11 984.79 6.2305 15.367"/>
   <path class="link thread49 WhiteEnd" d="m877.61 1005.6 1.0107 19.351"/>
   <path class="link thread48 WhiteEnd" d="m851.64 1005.6 19.976-0.03"/>
   <path class="link thread49 WhiteStart" d="m859.35 975.71 18.265 29.899"/>
   <path class="link thread50 WhiteEnd" d="m812.75 1014.3 33.903 13.415"/>
   <path class="link thread15 WhiteStart" d="m851.78 1011.6 0.44673 18.247"/>
   <path class="link thread48 WhiteStart" d="m835.64 999.58 16 6.0684"/>
   <path class="link thread15 WhiteEnd" d="m843.4 985.01 6.0113 15.069"/>
   <path class="link thread12 WhiteStart" d="m529.49 1007.7-0.50597 23.869"/>
   <path class="link thread22 WhiteEnd" d="m555.37 1025.2-20.545 4.9263"/>
   <path class="link thread43 WhiteEnd" d="m555.31 995.47 0.0498 23.779"/>
   <path class="link thread22 WhiteStart" d="m590.64 1014.4-35.269 10.819"/>
   <path class="link thread12 WhiteEnd" d="m552.86 965.44-19.998 31.215"/>
   <path class="link thread21 WhiteStart" d="m549.47 996.88-19.854 4.8213"/>
   <path class="link thread43 WhiteStart" d="m553.34 971.42 1.9622 24.05"/>
   <path class="link thread21 WhiteEnd" d="m582.86 987.39-21.802 6.39"/>
   <path class="link thread42 WhiteStart" d="m426.56 1021.4 20.78 2.5502"/>
   <path class="link thread41 WhiteEnd" d="m445.15 998.37 1.6761 19.592"/>
   <path class="link thread40 WhiteEnd" d="m419.03 996.31 20.141 1.5908"/>
   <path class="link thread41 WhiteStart" d="m425.94 967.07 19.209 31.305"/>
   <path class="link thread42 WhiteEnd" d="m380.49 1001.6 34.69 16.472"/>
   <path class="link thread7 WhiteStart" d="m419.42 1002.3 1.1868 18.365"/>
   <path class="link thread40 WhiteStart" d="m402.75 988.98 16.282 7.3346"/>
   <path class="link thread7 WhiteEnd" d="m410.35 975.42 6.3758 15.346"/>
   <path class="link thread20 WhiteStart" d="m961.58 1008-1.3984 24.426"/>
   <path class="link thread30 WhiteEnd" d="m986.4 1023.7-20.521 6.7664"/>
   <path class="link thread20 WhiteEnd" d="m986.15 963.5-21.03 33.389"/>
   <path class="link thread29 WhiteStart" d="m981.88 995.46-19.959 6.5129"/>
   <path class="link thread42 WhiteStart" d="m369.5 981.66 10.996 19.959"/>
   <path class="link thread18 WhiteEnd" d="m397.28 986.51-12.324 11.091"/>
   <path class="link thread40 WhiteEnd" d="m383.38 966.94 10.423 14.677"/>
   <path class="link thread18 WhiteStart" d="m405.78 979.31-8.4982 7.2072"/>
   <path class="link thread40 WhiteStart" d="m371.29 953.16 12.093 13.788"/>
   <path class="link thread17 WhiteEnd" d="m400.91 954.81-12.6 8.7201"/>
   <path class="link thread46 WhiteStart" d="m585.69 992.68 10.68 19.987"/>
   <path class="link thread22 WhiteEnd" d="m613.74 996.64-12.961 11.962"/>
   <path class="link thread44 WhiteEnd" d="m600.12 977.13 10.185 14.587"/>
   <path class="link thread22 WhiteStart" d="m622.62 988.77-8.877 7.8676"/>
   <path class="link thread46 WhiteEnd" d="m584.26 959.08-1.1009 22.314"/>
   <path class="link thread21 WhiteStart" d="m594.97 980.2-12.101 7.1931"/>
   <path class="link thread44 WhiteStart" d="m588.22 963.59 11.901 13.541"/>
   <path class="link thread21 WhiteEnd" d="m618.01 963.99-13.049 9.5913"/>
   <path class="link thread50 WhiteStart" d="m802.29 994.6 10.463 19.673"/>
   <path class="link thread26 WhiteEnd" d="m830.03 997.45-12.98 12.634"/>
   <path class="link thread48 WhiteEnd" d="m816.76 978.32 9.8479 14.204"/>
   <path class="link thread26 WhiteStart" d="m839.01 989.09-8.9827 8.3586"/>
   <path class="link thread50 WhiteEnd" d="m801.23 960.8-1.3908 22.517"/>
   <path class="link thread25 WhiteStart" d="m811.7 981.53-12.228 7.7663"/>
   <path class="link thread48 WhiteStart" d="m805.21 965.29 11.552 13.032"/>
   <path class="link thread25 WhiteEnd" d="m834.62 964.38-13.127 10.242"/>
   <path class="link thread15 WhiteStart" d="m836.97 969.9 6.4332 15.102"/>
   <path class="link thread26 WhiteEnd" d="m856.22 970.59-8.831 9.9322"/>
   <path class="link thread49 WhiteEnd" d="m845.68 953.58 7.3763 11.909"/>
   <path class="link thread26 WhiteStart" d="m849.35 941.39 6.8688 29.202"/>
   <path class="link thread15 WhiteEnd" d="m837.35 937.87-2.1206 20.548"/>
   <path class="link thread25 WhiteStart" d="m841.39 957.77-6.7736 6.613"/>
   <path class="link thread49 WhiteStart" d="m840.17 943.17 5.5198 10.411"/>
   <path class="link thread25 WhiteEnd" d="m847.98 935.55-1.5362 12.081"/>
   <path class="link thread26 WhiteEnd" d="m841.9 920.69 3.8082 9.3089"/>
   <path class="link thread25 WhiteStart" d="m844.17 904.24 3.812 31.312"/>
   <path class="link thread49 WhiteEnd" d="m832.16 911.33 4.0424 20.646"/>
   <path class="link thread15 WhiteStart" d="m840.36 926.49-3.0097 11.383"/>
   <path class="link thread26 WhiteStart" d="m836.49 915.49 5.4107 5.1952"/>
   <path class="link thread15 WhiteEnd" d="m843.44 898.28-1.1307 16.42"/>
   <path class="link thread25 WhiteEnd" d="m835.74 884.61 4.752 8.437"/>
   <path class="link thread15 WhiteStart" d="m842.99 860.34 0.44905 37.939"/>
   <path class="link thread26 WhiteEnd" d="m814.69 905.88 11.738 3.6677"/>
   <path class="link thread49 WhiteStart" d="m834.95 890.56-2.7872 20.773"/>
   <path class="link thread25 WhiteStart" d="m825.65 881.05 10.099 3.5625"/>
   <path class="link thread49 WhiteEnd" d="m842.92 854.34-5.7924 24.435"/>
   <path class="link thread48 WhiteEnd" d="m786.54 946.53 10.386 10.084"/>
   <path class="link thread50 WhiteStart" d="m801.49 935.12-0.26344 25.676"/>
   <path class="link thread47 WhiteEnd" d="m779.03 922.92-7.9498 39.784"/>
   <path class="link thread16 WhiteStart" d="m782.92 951.32-13.024 17.262"/>
   <path class="link thread48 WhiteStart" d="m780.85 928.63 5.6932 17.898"/>
   <path class="link thread16 WhiteEnd" d="m801.55 929.12-11.097 12.868"/>
   <path class="link thread50 WhiteEnd" d="m801.57 901.85-0.0103 21.275"/>
   <path class="link thread16 WhiteStart" d="m811.74 911.1-10.187 18.02"/>
   <path class="link thread48 WhiteEnd" d="m777.98 880.61 0.89706 36.303"/>
   <path class="link thread47 WhiteStart" d="m784.53 901.23-5.5009 21.687"/>
   <path class="link thread11 WhiteStart" d="m620.41 969.48 6.6976 15.307"/>
   <path class="link thread22 WhiteEnd" d="m639.81 970.73-8.6754 9.6082"/>
   <path class="link thread45 WhiteEnd" d="m629 953.4 7.6283 12.234"/>
   <path class="link thread22 WhiteStart" d="m632.32 941.17 7.4909 29.557"/>
   <path class="link thread11 WhiteEnd" d="m620.27 937.57-1.7511 20.437"/>
   <path class="link thread21 WhiteStart" d="m624.68 957.56-6.6733 6.423"/>
   <path class="link thread45 WhiteStart" d="m623.17 942.83 5.8348 10.577"/>
   <path class="link thread21 WhiteEnd" d="m630.84 935.36-1.23 12.078"/>
   <path class="link thread22 WhiteEnd" d="m624.42 920.38 4.0597 9.4598"/>
   <path class="link thread21 WhiteStart" d="m626.41 903.91 4.4328 31.448"/>
   <path class="link thread45 WhiteEnd" d="m614.48 910.93 4.5157 20.774"/>
   <path class="link thread11 WhiteStart" d="m623.01 926.22-2.7384 11.356"/>
   <path class="link thread22 WhiteStart" d="m618.83 915.07 5.5872 5.3134"/>
   <path class="link thread11 WhiteEnd" d="m625.57 897.97-0.8467 16.423"/>
   <path class="link thread21 WhiteEnd" d="m617.56 884.23 4.9859 8.5533"/>
   <path class="link thread11 WhiteStart" d="m624.52 860.04 1.0525 37.928"/>
   <path class="link thread22 WhiteEnd" d="m596.93 904.77 11.888 4.1773"/>
   <path class="link thread45 WhiteStart" d="m616.88 890.19-2.3949 20.744"/>
   <path class="link thread21 WhiteStart" d="m607.33 880.3 10.233 3.9298"/>
   <path class="link thread45 WhiteEnd" d="m624.35 854.04-5.4723 24.335"/>
   <path class="link thread7 WhiteStart" d="m403.41 960.26 6.9403 15.16"/>
   <path class="link thread18 WhiteEnd" d="m422.81 961.96-8.3801 9.0634"/>
   <path class="link thread41 WhiteEnd" d="m411.74 944.63 7.837 12.269"/>
   <path class="link thread18 WhiteStart" d="m414.72 932.62 8.087 29.334"/>
   <path class="link thread7 WhiteEnd" d="m402.56 928.93-1.2659 19.89"/>
   <path class="link thread17 WhiteStart" d="m407.37 948.74-6.4535 6.0688"/>
   <path class="link thread41 WhiteStart" d="m405.59 934.11 6.1493 10.519"/>
   <path class="link thread17 WhiteEnd" d="m413.12 926.84-0.91954 11.811"/>
   <path class="link thread18 WhiteEnd" d="m406.33 911.99 4.301 9.3944"/>
   <path class="link thread17 WhiteStart" d="m408.13 895.88 4.9891 30.954"/>
   <path class="link thread41 WhiteEnd" d="m396.2 902.62 4.9471 20.477"/>
   <path class="link thread7 WhiteStart" d="m405.02 917.84-2.4629 11.087"/>
   <path class="link thread18 WhiteStart" d="m400.61 906.7 5.7165 5.2902"/>
   <path class="link thread7 WhiteEnd" d="m407.18 889.96-0.62212 16.033"/>
   <path class="link thread17 WhiteEnd" d="m398.87 876.36 5.182 8.4814"/>
   <path class="link thread7 WhiteStart" d="m405.65 852.9 1.5272 37.057"/>
   <path class="link thread18 WhiteEnd" d="m378.89 895.73 11.738 4.672"/>
   <path class="link thread41 WhiteStart" d="m398.26 882.33-2.0591 20.295"/>
   <path class="link thread17 WhiteStart" d="m388.66 872.1 10.212 4.2534"/>
   <path class="link thread41 WhiteEnd" d="m405.41 846.91-5.2359 23.593"/>
   <path class="link thread44 WhiteEnd" d="m569.35 944.34 10.649 10.526"/>
   <path class="link thread46 WhiteStart" d="m584.15 933.55 0.10731 25.535"/>
   <path class="link thread43 WhiteEnd" d="m561.36 920.7-7.3867 38.839"/>
   <path class="link thread12 WhiteStart" d="m565.65 949.07-12.796 16.37"/>
   <path class="link thread44 WhiteStart" d="m563.28 926.39 6.0628 17.951"/>
   <path class="link thread12 WhiteEnd" d="m584.13 927.55-10.819 12.288"/>
   <path class="link thread46 WhiteEnd" d="m583.65 900.45 0.37448 21.102"/>
   <path class="link thread12 WhiteStart" d="m593.99 910-9.8634 17.55"/>
   <path class="link thread44 WhiteEnd" d="m559.61 878.88 1.5055 35.834"/>
   <path class="link thread43 WhiteStart" d="m566.56 899.42-5.2008 21.285"/>
   <path class="link thread8 WhiteEnd" d="m383.12 869.8-3.261 20.012"/>
   <path class="link thread8 WhiteStart" d="m382.78 847.78 0.33662 22.022"/>
   <path class="link thread42 WhiteEnd" d="m382.69 841.78-9.9149 18.321"/>
   <path class="link thread26 WhiteStart" d="m807.3 903.61 7.3914 2.2702"/>
   <path class="link thread16 WhiteEnd" d="m819.99 879.06-4.1311 20.935"/>
   <path class="link thread25 WhiteEnd" d="m806.96 875.1 7.2846 2.2108"/>
   <path class="link thread16 WhiteStart" d="m820.33 856.28-0.34084 22.779"/>
   <path class="link thread26 WhiteEnd" d="m786 895.41 10.019 4.1403"/>
   <path class="link thread50 WhiteStart" d="m805.77 880.98-4.2075 20.861"/>
   <path class="link thread25 WhiteStart" d="m794.79 871.01 12.172 4.0895"/>
   <path class="link thread50 WhiteEnd" d="m820.42 850.28-10.597 19.55"/>
   <path class="link thread22 WhiteStart" d="m589.35 902.3 7.5782 2.4647"/>
   <path class="link thread12 WhiteEnd" d="m601.73 878.15-3.7336 20.714"/>
   <path class="link thread21 WhiteEnd" d="m588.57 873.94 7.4493 2.3801"/>
   <path class="link thread12 WhiteStart" d="m601.69 855.47 0.039 22.677"/>
   <path class="link thread22 WhiteEnd" d="m567.99 893.59 10.164 4.4504"/>
   <path class="link thread46 WhiteStart" d="m587.47 879.84-3.8228 20.605"/>
   <path class="link thread21 WhiteStart" d="m576.25 869.53 12.311 4.4126"/>
   <path class="link thread46 WhiteEnd" d="m601.68 849.47-10.281 19.182"/>
   <path class="link thread11 WhiteEnd" d="m616.64 831.03 5.8084 17.32"/>
   <path class="link thread45 WhiteStart" d="m632.53 810.53-8.1768 43.512"/>
   <path class="link thread12 WhiteEnd" d="m601.19 815.85 0.40428 27.628"/>
   <path class="link thread46 WhiteStart" d="m612.86 835.69-11.176 13.78"/>
   <path class="link thread11 WhiteStart" d="m605.47 820.05 11.169 10.981"/>
   <path class="link thread46 WhiteEnd" d="m633.64 804.63-13.753 21.356"/>
   <path class="link thread45 WhiteEnd" d="m631.31 772.17 1.8962 26.477"/>
   <path class="link thread46 WhiteStart" d="m655.09 767.31-21.454 37.319"/>
   <path class="link thread11 WhiteEnd" d="m585.33 797.65 11.916 13.674"/>
   <path class="link thread12 WhiteStart" d="m602.65 790.57-1.4648 25.272"/>
   <path class="link thread26 WhiteStart" d="m780.84 885.89 5.1622 9.5241"/>
   <path class="link thread47 WhiteEnd" d="m789.1 869.1-2.3964 20.352"/>
   <path class="link thread25 WhiteEnd" d="m779.55 859.54 5.3148 5.3198"/>
   <path class="link thread47 WhiteStart" d="m784.87 847.48 4.2351 21.622"/>
   <path class="link thread26 WhiteEnd" d="m773.04 842.77 4.1662 31.897"/>
   <path class="link thread48 WhiteStart" d="m779.1 865.52-1.1199 15.093"/>
   <path class="link thread25 WhiteStart" d="m775.21 848.36 4.3367 11.176"/>
   <path class="link thread48 WhiteEnd" d="m783.71 841.59-2.81 12.102"/>
   <path class="link thread47 WhiteEnd" d="m775.35 825.27 5.6254 10.979"/>
   <path class="link thread48 WhiteStart" d="m785.96 819.46-2.2452 22.137"/>
   <path class="link thread25 WhiteEnd" d="m764.36 804.84 7.3396 32.075"/>
   <path class="link thread26 WhiteStart" d="m774.56 831.22-1.5264 11.546"/>
   <path class="link thread47 WhiteStart" d="m767.2 810.13 8.148 15.146"/>
   <path class="link thread26 WhiteEnd" d="m786.56 813.49-7.077 7.4402"/>
   <path class="link thread48 WhiteEnd" d="m777.76 790.36 6.6656 17.518"/>
   <path class="link thread26 WhiteStart" d="m800.28 802.27-13.719 11.22"/>
   <path class="link thread47 WhiteEnd" d="m742.04 763.69 19.456 35.884"/>
   <path class="link thread25 WhiteStart" d="m773.69 794.76-9.3283 10.08"/>
   <path class="link thread48 WhiteStart" d="m771.28 771.96 6.4851 18.402"/>
   <path class="link thread25 WhiteEnd" d="m791.75 777.01-9.6462 9.2038"/>
   <path class="link thread7 WhiteEnd" d="m397.44 824.16 5.981 17.086"/>
   <path class="link thread41 WhiteStart" d="m413.16 804.79-7.7584 42.116"/>
   <path class="link thread8 WhiteEnd" d="m381.99 808.98 0.57312 26.8"/>
   <path class="link thread42 WhiteStart" d="m393.59 828.76-10.9 13.017"/>
   <path class="link thread7 WhiteStart" d="m386.27 813.18 11.173 10.976"/>
   <path class="link thread42 WhiteEnd" d="m414.25 798.89-13.486 20.272"/>
   <path class="link thread41 WhiteEnd" d="m411.73 767.15 2.0487 25.759"/>
   <path class="link thread42 WhiteStart" d="m435.27 763.29-21.014 35.605"/>
   <path class="link thread8 WhiteStart" d="m383.4 784.43-1.4152 24.549"/>
   <path class="link thread15 WhiteEnd" d="m835.59 831.47 5.4953 17.153"/>
   <path class="link thread49 WhiteStart" d="m851.64 810.55-8.717 43.793"/>
   <path class="link thread16 WhiteEnd" d="m820.37 816.54 0.039 27.739"/>
   <path class="link thread50 WhiteStart" d="m831.83 836.14-11.409 14.135"/>
   <path class="link thread15 WhiteStart" d="m824.65 820.74 10.942 10.734"/>
   <path class="link thread50 WhiteEnd" d="m852.81 804.66-13.972 21.762"/>
   <path class="link thread49 WhiteEnd" d="m850.88 772.13 1.57 26.544"/>
   <path class="link thread50 WhiteStart" d="m874.65 766.76-21.841 37.906"/>
   <path class="link thread15 WhiteEnd" d="m804.93 798.47 11.546 13.51"/>
   <path class="link thread16 WhiteStart" d="m822.17 791.09-1.8019 25.445"/>
   <path class="link thread29 WhiteEnd" d="m983.4 801.19 6.8134 31.486"/>
   <path class="link thread51 WhiteEnd" d="m961.53 761.05 19.006 34.869"/>
   <path class="link thread29 WhiteStart" d="m992.91 791.18-9.503 10.017"/>
   <path class="link thread22 WhiteStart" d="m562.58 884.09 5.4125 9.5018"/>
   <path class="link thread43 WhiteEnd" d="m570.61 867.51-2.0193 20.115"/>
   <path class="link thread21 WhiteEnd" d="m560.82 857.99 5.4886 5.3353"/>
   <path class="link thread43 WhiteStart" d="m565.94 846.01 4.6629 21.491"/>
   <path class="link thread22 WhiteEnd" d="m553.99 841.29 4.7281 31.654"/>
   <path class="link thread44 WhiteStart" d="m560.47 863.98-0.86299 14.897"/>
   <path class="link thread21 WhiteStart" d="m556.26 846.84 4.5549 11.147"/>
   <path class="link thread44 WhiteEnd" d="m564.67 840.15-2.5881 11.973"/>
   <path class="link thread43 WhiteEnd" d="m555.96 823.9 5.8736 10.964"/>
   <path class="link thread44 WhiteStart" d="m566.6 818.29-1.9285 21.859"/>
   <path class="link thread21 WhiteEnd" d="m544.74 803.49 7.8266 31.97"/>
   <path class="link thread22 WhiteStart" d="m555.29 829.86-1.2967 11.427"/>
   <path class="link thread43 WhiteStart" d="m547.63 808.75 8.3349 15.153"/>
   <path class="link thread22 WhiteEnd" d="m567.13 812.32-6.9993 7.2632"/>
   <path class="link thread44 WhiteEnd" d="m558.01 789.26 6.91 17.476"/>
   <path class="link thread22 WhiteStart" d="m580.66 801.41-13.531 10.903"/>
   <path class="link thread43 WhiteEnd" d="m522.06 762.19 19.79 36.035"/>
   <path class="link thread21 WhiteStart" d="m553.92 793.65-9.1804 9.8416"/>
   <path class="link thread44 WhiteStart" d="m551.37 770.91 6.6376 18.346"/>
   <path class="link thread21 WhiteEnd" d="m571.9 776.18-9.5217 8.9688"/>
   <path class="link thread11 WhiteStart" d="m575.08 781.26 10.248 16.384"/>
   <path class="link thread22 WhiteEnd" d="m603 784.58-12.846 9.4974"/>
   <path class="link thread12 WhiteEnd" d="m589.5 755.71 10.956 23.433"/>
   <path class="link thread22 WhiteStart" d="m625.82 774.58-22.817 10.003"/>
   <path class="link thread11 WhiteEnd" d="m549.33 765.27 17.166 8.2946"/>
   <path class="link thread21 WhiteStart" d="m585.59 760.26-13.69 15.914"/>
   <path class="link thread12 WhiteStart" d="m552.29 738.15 37.215 17.567"/>
   <path class="link thread21 WhiteEnd" d="m633.35 736.3-38.356 16.987"/>
   <path class="link thread18 WhiteEnd" d="m383.75 778.44-12.531 8.906"/>
   <path class="link thread8 WhiteEnd" d="m370.4 750.03 10.796 22.977"/>
   <path class="link thread18 WhiteStart" d="m406.16 769.4-22.413 9.0427"/>
   <path class="link thread17 WhiteEnd" d="m413.49 732.24-37.54 15.501"/>
   <path class="link thread15 WhiteStart" d="m794.89 782.13 10.035 16.34"/>
   <path class="link thread26 WhiteEnd" d="m822.6 785.11-12.883 9.7406"/>
   <path class="link thread16 WhiteEnd" d="m809.42 756.22 10.686 23.427"/>
   <path class="link thread26 WhiteStart" d="m845.43 774.63-22.836 10.476"/>
   <path class="link thread15 WhiteEnd" d="m769.28 766.3 17.051 8.1319"/>
   <path class="link thread25 WhiteStart" d="m805.53 760.79-13.783 16.22"/>
   <path class="link thread16 WhiteStart" d="m772.43 738.97 36.987 17.249"/>
   <path class="link thread25 WhiteEnd" d="m853.22 736.12-38.347 17.603"/>
   <path class="link thread45 WhiteStart" d="m633.01 742.29-1.6936 29.882"/>
   <path class="link thread22 WhiteEnd" d="m658.08 762.11-21.153 7.9488"/>
   <path class="link thread46 WhiteEnd" d="m659.5 726.73-1.1773 29.383"/>
   <path class="link thread22 WhiteStart" d="m695.75 745.86-37.668 16.249"/>
   <path class="link thread45 WhiteEnd" d="m657.89 692.51-21.614 38.555"/>
   <path class="link thread21 WhiteStart" d="m653.86 728.79-20.519 7.5037"/>
   <path class="link thread46 WhiteStart" d="m658.17 698.5 1.3244 28.23"/>
   <path class="link thread21 WhiteEnd" d="m688.03 714.53-23.019 9.8465"/>
   <path class="link thread15 WhiteStart" d="m748.02 764.26 21.268 2.0415"/>
   <path class="link thread48 WhiteEnd" d="m767 736.44 1.8307 23.88"/>
   <path class="link thread16 WhiteEnd" d="m740.47 734.54 20.542 1.4699"/>
   <path class="link thread48 WhiteStart" d="m747.74 699.76 19.254 36.679"/>
   <path class="link thread15 WhiteEnd" d="m701.26 743.49 35.408 17.536"/>
   <path class="link thread47 WhiteStart" d="m740.79 740.53 1.2523 23.154"/>
   <path class="link thread16 WhiteStart" d="m724.01 726.37 16.454 8.1707"/>
   <path class="link thread47 WhiteEnd" d="m732.25 710.1 6.3031 18.752"/>
   <path class="link thread49 WhiteStart" d="m852.83 742.1-1.9467 30.026"/>
   <path class="link thread26 WhiteEnd" d="m877.65 761.56-21.18 8.3671"/>
   <path class="link thread50 WhiteEnd" d="m879.35 726.11-1.4183 29.459"/>
   <path class="link thread26 WhiteStart" d="m915.44 744.43-37.794 17.129"/>
   <path class="link thread49 WhiteEnd" d="m877.87 691.91-21.729 38.965"/>
   <path class="link thread25 WhiteStart" d="m873.75 728.25-20.53 7.864"/>
   <path class="link thread50 WhiteStart" d="m878.13 697.91 1.2218 28.2"/>
   <path class="link thread25 WhiteEnd" d="m907.89 713.32-23.064 10.334"/>
   <path class="link thread41 WhiteStart" d="m413.19 738.23-1.4589 28.918"/>
   <path class="link thread18 WhiteEnd" d="m438.31 758.12-20.907 7.1023"/>
   <path class="link thread42 WhiteEnd" d="m439.4 723.63-0.8932 28.487"/>
   <path class="link thread18 WhiteStart" d="m475.63 743.45-37.313 14.673"/>
   <path class="link thread41 WhiteEnd" d="m437.55 690.21-21.08 36.826"/>
   <path class="link thread17 WhiteStart" d="m433.7 725.53-20.214 6.7144"/>
   <path class="link thread42 WhiteStart" d="m437.88 696.2 1.5163 27.437"/>
   <path class="link thread17 WhiteEnd" d="m467.72 712.56-22.738 8.8902"/>
   <path class="link thread19 WhiteStart" d="m967.51 761.52 21.214 1.6626"/>
   <path class="link thread20 WhiteEnd" d="m960.27 732.31 20.476 1.1489"/>
   <path class="link thread52 WhiteStart" d="m967.72 697.88 19.015 35.919"/>
   <path class="link thread19 WhiteEnd" d="m920.9 741.95 35.192 16.549"/>
   <path class="link thread51 WhiteStart" d="m960.53 738.31 0.99318 22.748"/>
   <path class="link thread20 WhiteStart" d="m943.89 724.55 16.385 7.7624"/>
   <path class="link thread51 WhiteEnd" d="m952.15 708.23 6.2041 18.395"/>
   <path class="link thread11 WhiteStart" d="m528.02 762.87 21.311 2.4047"/>
   <path class="link thread44 WhiteEnd" d="m546.86 735.59 1.9725 23.706"/>
   <path class="link thread12 WhiteEnd" d="m520.25 733.26 20.636 1.8045"/>
   <path class="link thread44 WhiteStart" d="m527.44 699.08 19.424 36.511"/>
   <path class="link thread11 WhiteEnd" d="m481.21 741.25 35.509 18.206"/>
   <path class="link thread43 WhiteStart" d="m520.62 739.25 1.4358 22.947"/>
   <path class="link thread12 WhiteStart" d="m503.73 724.86 16.521 8.3975"/>
   <path class="link thread43 WhiteEnd" d="m511.89 709.01 6.4004 18.58"/>
   <path class="link thread11 WhiteStart" d="m470.27 717.99 10.937 23.261"/>
   <path class="link thread18 WhiteEnd" d="m498.38 722.14-13.157 14.645"/>
   <path class="link thread12 WhiteEnd" d="m485.05 700.4 10.193 16.629"/>
   <path class="link thread18 WhiteStart" d="m507.59 713.19-9.2132 8.9552"/>
   <path class="link thread11 WhiteEnd" d="m469.21 681.06-1.2068 25.506"/>
   <path class="link thread17 WhiteStart" d="m480.14 703.85-12.418 8.7149"/>
   <path class="link thread12 WhiteStart" d="m473.01 685.7 12.037 14.696"/>
   <path class="link thread17 WhiteEnd" d="m503.18 685.58-13.486 11.02"/>
   <path class="link thread15 WhiteStart" d="m690.53 719.99 10.732 23.5"/>
   <path class="link thread22 WhiteEnd" d="m718.64 723.7-13.421 15.278"/>
   <path class="link thread16 WhiteEnd" d="m705.5 701.82 10.052 16.735"/>
   <path class="link thread22 WhiteStart" d="m728.01 714.34-9.3684 9.3591"/>
   <path class="link thread15 WhiteEnd" d="m689.73 682.4-1.3823 26.138"/>
   <path class="link thread21 WhiteStart" d="m700.65 705.35-12.612 9.1765"/>
   <path class="link thread16 WhiteStart" d="m693.51 687.06 11.984 14.764"/>
   <path class="link thread21 WhiteEnd" d="m723.72 686.42-13.637 11.525"/>
   <path class="link thread19 WhiteStart" d="m910.37 718.78 10.531 23.171"/>
   <path class="link thread26 WhiteEnd" d="m938.46 721.98-13.598 15.466"/>
   <path class="link thread20 WhiteEnd" d="m925.44 700.4 9.9263 16.442"/>
   <path class="link thread26 WhiteStart" d="m947.92 712.48-9.4527 9.4963"/>
   <path class="link thread19 WhiteEnd" d="m909.73 681.31-1.4912 26.022"/>
   <path class="link thread25 WhiteStart" d="m920.61 703.96-12.714 9.3598"/>
   <path class="link thread20 WhiteStart" d="m913.54 685.94 11.899 14.462"/>
   <path class="link thread25 WhiteEnd" d="m943.7 684.84-13.695 11.673"/>
   <path class="link thread43 WhiteStart" d="m505.27 691.21 6.6203 17.8"/>
   <path class="link thread18 WhiteEnd" d="m524.62 693.78-8.8784 10.624"/>
   <path class="link thread44 WhiteEnd" d="m514.05 674.05 7.7388 14.438"/>
   <path class="link thread18 WhiteStart" d="m517.26 660.93 7.3608 32.848"/>
   <path class="link thread43 WhiteEnd" d="m505.68 656.92-1.9793 22.689"/>
   <path class="link thread17 WhiteStart" d="m509.93 678.42-6.7499 7.1638"/>
   <path class="link thread44 WhiteStart" d="m508.31 662.31 5.7319 11.744"/>
   <path class="link thread17 WhiteEnd" d="m515.95 655.08-1.3025 13.006"/>
   <path class="link thread18 WhiteEnd" d="m509.8 638.84 4.0235 10.627"/>
   <path class="link thread17 WhiteStart" d="m511.99 621.41 3.958 33.663"/>
   <path class="link thread44 WhiteEnd" d="m500.24 628.57 4.3116 22.458"/>
   <path class="link thread43 WhiteStart" d="m508.47 644.69-2.7842 12.229"/>
   <path class="link thread18 WhiteStart" d="m504.33 632.96 5.4715 5.8791"/>
   <path class="link thread43 WhiteEnd" d="m511.29 615.45-1.1079 17.395"/>
   <path class="link thread17 WhiteEnd" d="m503.7 600.81 4.8263 9.3148"/>
   <path class="link thread43 WhiteStart" d="m511.07 575.82 0.21574 39.63"/>
   <path class="link thread18 WhiteEnd" d="m482.56 622.03 12.056 4.455"/>
   <path class="link thread44 WhiteStart" d="m502.96 606.77-2.7192 21.8"/>
   <path class="link thread17 WhiteStart" d="m493.47 596.49 10.236 4.3215"/>
   <path class="link thread44 WhiteEnd" d="m511.04 569.82-5.9556 25.149"/>
   <path class="link thread51 WhiteStart" d="m945.74 690.48 6.4126 17.751"/>
   <path class="link thread26 WhiteEnd" d="m964.92 692.57-8.9748 11.007"/>
   <path class="link thread52 WhiteEnd" d="m954.59 673 7.5308 14.266"/>
   <path class="link thread26 WhiteStart" d="m957.8 659.8 7.1193 32.771"/>
   <path class="link thread51 WhiteEnd" d="m946.42 655.91-2.1575 22.952"/>
   <path class="link thread25 WhiteStart" d="m950.52 677.42-6.8238 7.4185"/>
   <path class="link thread52 WhiteStart" d="m949.01 661.33 5.58 11.678"/>
   <path class="link thread25 WhiteEnd" d="m956.52 653.94-1.3316 13.093"/>
   <path class="link thread26 WhiteEnd" d="m950.56 637.73 3.8889 10.58"/>
   <path class="link thread25 WhiteStart" d="m952.52 620.23 4.0035 33.706"/>
   <path class="link thread52 WhiteEnd" d="m941.05 627.5 4.2535 22.512"/>
   <path class="link thread51 WhiteStart" d="m949.23 643.58-2.8125 12.332"/>
   <path class="link thread26 WhiteStart" d="m945.14 631.9 5.427 5.8331"/>
   <path class="link thread51 WhiteEnd" d="m951.81 614.28-0.92898 17.461"/>
   <path class="link thread25 WhiteEnd" d="m944.28 599.64 4.7881 9.2993"/>
   <path class="link thread51 WhiteStart" d="m951.16 574.57 0.65129 39.711"/>
   <path class="link thread26 WhiteEnd" d="m923.32 621.26 12.073 4.2478"/>
   <path class="link thread52 WhiteStart" d="m943.59 605.6-2.5367 21.901"/>
   <path class="link thread25 WhiteStart" d="m934.06 595.34 10.22 4.2984"/>
   <path class="link thread52 WhiteEnd" d="m951.06 568.57-5.5052 25.215"/>
   <path class="link thread12 WhiteEnd" d="m454.31 665.61 10.735 11.131"/>
   <path class="link thread11 WhiteStart" d="m469.31 652.7-0.0981 28.364"/>
   <path class="link thread42 WhiteEnd" d="m446.87 640.58-8.2102 43.729"/>
   <path class="link thread41 WhiteStart" d="m450.93 670.57-13.384 19.639"/>
   <path class="link thread12 WhiteStart" d="m448.58 646.33 5.735 19.278"/>
   <path class="link thread41 WhiteEnd" d="m469.33 646.7-11.288 14.215"/>
   <path class="link thread11 WhiteEnd" d="m469.39 617.67-0.0466 23.028"/>
   <path class="link thread41 WhiteStart" d="m479.72 627.32-10.39 19.378"/>
   <path class="link thread12 WhiteEnd" d="m446.09 595.82 0.66808 38.766"/>
   <path class="link thread42 WhiteStart" d="m452.41 616.87-5.5461 23.713"/>
   <path class="link thread20 WhiteEnd" d="m894.86 666.07 10.675 10.943"/>
   <path class="link thread19 WhiteStart" d="m909.98 652.47-0.25049 28.833"/>
   <path class="link thread50 WhiteEnd" d="m887.52 640.58-8.5438 45.43"/>
   <path class="link thread49 WhiteStart" d="m891.57 671.08-13.695 20.829"/>
   <path class="link thread20 WhiteStart" d="m889.18 646.35 5.678 19.719"/>
   <path class="link thread49 WhiteEnd" d="m910.03 646.47-11.494 14.85"/>
   <path class="link thread19 WhiteEnd" d="m910.16 616.94-0.10422 23.534"/>
   <path class="link thread49 WhiteStart" d="m920.52 626.57-10.491 19.902"/>
   <path class="link thread20 WhiteEnd" d="m886.76 594.62 0.66656 39.969"/>
   <path class="link thread50 WhiteStart" d="m893.17 615.99-5.6479 24.594"/>
   <path class="link thread47 WhiteStart" d="m725.75 692.07 6.5 18.033"/>
   <path class="link thread22 WhiteEnd" d="m744.95 694.45-8.9192 10.995"/>
   <path class="link thread48 WhiteEnd" d="m734.54 674.58 7.6276 14.556"/>
   <path class="link thread22 WhiteStart" d="m737.71 661.23 7.2472 33.214"/>
   <path class="link thread47 WhiteEnd" d="m726.33 657.3-2.079 23.148"/>
   <path class="link thread21 WhiteStart" d="m730.49 679.01-6.775 7.4178"/>
   <path class="link thread48 WhiteStart" d="m728.91 662.72 5.6314 11.857"/>
   <path class="link thread21 WhiteEnd" d="m736.43 655.37-1.2997 13.234"/>
   <path class="link thread22 WhiteEnd" d="m730.41 638.99 3.945 10.748"/>
   <path class="link thread21 WhiteStart" d="m732.43 621.25 3.9918 34.122"/>
   <path class="link thread48 WhiteEnd" d="m720.94 628.62 4.2824 22.785"/>
   <path class="link thread47 WhiteStart" d="m729.11 644.85-2.7746 12.453"/>
   <path class="link thread22 WhiteStart" d="m724.99 633.05 5.4246 5.9417"/>
   <path class="link thread47 WhiteEnd" d="m731.74 615.29-0.9889 17.71"/>
   <path class="link thread21 WhiteEnd" d="m724.23 600.5 4.7893 9.4417"/>
   <path class="link thread47 WhiteStart" d="m731.27 575.04 0.46481 40.245"/>
   <path class="link thread22 WhiteEnd" d="m703.22 622.14 12.088 4.4163"/>
   <path class="link thread48 WhiteStart" d="m723.54 606.46-2.5928 22.161"/>
   <path class="link thread21 WhiteStart" d="m713.99 596.12 10.241 4.375"/>
   <path class="link thread48 WhiteEnd" d="m731.2 569.04-5.6714 25.594"/>
   <path class="link thread16 WhiteEnd" d="m674.85 666.9 10.73 11.173"/>
   <path class="link thread15 WhiteStart" d="m689.92 653.38-0.19065 29.017"/>
   <path class="link thread46 WhiteEnd" d="m667.47 641.34-8.4683 45.272"/>
   <path class="link thread45 WhiteStart" d="m671.54 671.9-13.642 20.609"/>
   <path class="link thread16 WhiteStart" d="m669.13 647.1 5.7171 19.793"/>
   <path class="link thread45 WhiteEnd" d="m689.96 647.38-11.442 14.772"/>
   <path class="link thread15 WhiteEnd" d="m690.06 617.76-0.0742 23.626"/>
   <path class="link thread45 WhiteStart" d="m700.43 627.45-10.467 19.929"/>
   <path class="link thread16 WhiteEnd" d="m666.71 595.41 0.6607 39.927"/>
   <path class="link thread46 WhiteStart" d="m673.07 616.78-5.6081 24.557"/>
   <path class="link thread26 WhiteStart" d="m915.86 618.81 7.458 2.4512"/>
   <path class="link thread49 WhiteEnd" d="m928.53 593.02-4.1212 22.346"/>
   <path class="link thread25 WhiteEnd" d="m915.46 588.71 7.3648 2.4318"/>
   <path class="link thread49 WhiteStart" d="m928.67 569.26-0.1439 23.762"/>
   <path class="link thread26 WhiteEnd" d="m894.51 610.14 10.142 4.406"/>
   <path class="link thread19 WhiteStart" d="m914.36 594.6-4.1972 22.338"/>
   <path class="link thread25 WhiteStart" d="m903.24 584.14 12.224 4.5623"/>
   <path class="link thread19 WhiteEnd" d="m928.71 563.26-10.473 20.126"/>
   <path class="link thread22 WhiteStart" d="m695.75 619.65 7.4713 2.489"/>
   <path class="link thread45 WhiteEnd" d="m708.48 593.76-4.1623 22.477"/>
   <path class="link thread21 WhiteEnd" d="m695.42 589.42 7.3664 2.453"/>
   <path class="link thread45 WhiteStart" d="m708.75 569.81-0.27393 23.952"/>
   <path class="link thread22 WhiteEnd" d="m674.41 610.93 10.147 4.4238"/>
   <path class="link thread15 WhiteStart" d="m694.3 595.31-4.2445 22.445"/>
   <path class="link thread21 WhiteStart" d="m683.18 584.91 12.239 4.506"/>
   <path class="link thread15 WhiteEnd" d="m708.82 563.81-10.619 20.287"/>
   <path class="link thread18 WhiteStart" d="m475.09 619.56 7.471 2.4755"/>
   <path class="link thread41 WhiteEnd" d="m487.94 594.16-4.2446 21.983"/>
   <path class="link thread17 WhiteEnd" d="m474.89 589.85 7.3544 2.426"/>
   <path class="link thread41 WhiteStart" d="m488.43 570.67-0.4968 23.486"/>
   <path class="link thread18 WhiteEnd" d="m453.78 611.03 10.09 4.2925"/>
   <path class="link thread11 WhiteStart" d="m473.72 595.74-4.3332 21.931"/>
   <path class="link thread17 WhiteStart" d="m462.7 585.56 12.187 4.2913"/>
   <path class="link thread11 WhiteEnd" d="m488.56 564.67-10.812 19.906"/>
   <path class="link thread51 WhiteEnd" d="m943.65 544.57 5.6412 18.265"/>
   <path class="link thread52 WhiteStart" d="m959.48 524.15-8.4132 44.417"/>
   <path class="link thread49 WhiteEnd" d="m928.54 528.6 0.14114 28.656"/>
   <path class="link thread19 WhiteStart" d="m939.9 549.25-11.197 14.002"/>
   <path class="link thread51 WhiteStart" d="m932.66 532.96 10.99 11.61"/>
   <path class="link thread19 WhiteEnd" d="m960.59 518.25-13.694 21.269"/>
   <path class="link thread52 WhiteEnd" d="m958.37 485.51 1.819 26.758"/>
   <path class="link thread19 WhiteStart" d="m982.02 481.17-21.432 37.088"/>
   <path class="link thread51 WhiteEnd" d="m912.97 509.76 11.747 14.218"/>
   <path class="link thread49 WhiteStart" d="m930.05 503.04-1.5152 25.564"/>
   <path class="link thread43 WhiteEnd" d="m503.94 546 5.3853 18.075"/>
   <path class="link thread44 WhiteStart" d="m520.25 525.29-9.2132 44.533"/>
   <path class="link thread41 WhiteEnd" d="m489.02 530.5-0.38096 28.175"/>
   <path class="link thread11 WhiteStart" d="m500.13 550.63-11.565 14.043"/>
   <path class="link thread43 WhiteStart" d="m493.18 534.82 10.757 11.178"/>
   <path class="link thread11 WhiteEnd" d="m521.47 519.41-14.225 21.574"/>
   <path class="link thread44 WhiteEnd" d="m519.98 486.79 1.2142 26.626"/>
   <path class="link thread11 WhiteStart" d="m543.81 481.72-22.346 37.694"/>
   <path class="link thread43 WhiteEnd" d="m473.81 512.19 11.382 13.694"/>
   <path class="link thread41 WhiteStart" d="m491.19 505.22-2.169 25.272"/>
   <path class="link thread22 WhiteStart" d="m669.37 600.79 5.0362 10.145"/>
   <path class="link thread46 WhiteEnd" d="m677.55 582.84-2.4717 22.135"/>
   <path class="link thread21 WhiteEnd" d="m668.29 572.83 5.1806 5.6046"/>
   <path class="link thread46 WhiteStart" d="m673.42 560.07 4.1314 22.761"/>
   <path class="link thread22 WhiteEnd" d="m661.97 555.68 4.0232 33.78"/>
   <path class="link thread16 WhiteStart" d="m667.87 578.81-1.1674 16.604"/>
   <path class="link thread21 WhiteStart" d="m664.05 561.31 4.2459 11.519"/>
   <path class="link thread16 WhiteEnd" d="m672.34 554.17-2.7772 12.791"/>
   <path class="link thread46 WhiteEnd" d="m664.24 537.5 5.4803 11.276"/>
   <path class="link thread16 WhiteStart" d="m674.63 531.28-2.2868 22.887"/>
   <path class="link thread21 WhiteEnd" d="m653.44 516.97 7.2449 32.85"/>
   <path class="link thread22 WhiteStart" d="m663.5 543.45-1.5254 12.224"/>
   <path class="link thread46 WhiteStart" d="m656.23 522.28 8.0111 15.222"/>
   <path class="link thread22 WhiteEnd" d="m675.23 525.31-6.9684 7.7286"/>
   <path class="link thread16 WhiteEnd" d="m666.62 501.99 6.5275 17.694"/>
   <path class="link thread22 WhiteStart" d="m688.92 514.07-13.692 11.244"/>
   <path class="link thread46 WhiteEnd" d="m631.3 476.01 19.286 35.683"/>
   <path class="link thread21 WhiteStart" d="m662.66 506.49-9.2225 10.474"/>
   <path class="link thread16 WhiteStart" d="m660.3 483.83 6.3184 18.164"/>
   <path class="link thread21 WhiteEnd" d="m680.56 488.66-9.5976 9.1789"/>
   <path class="link thread47 WhiteEnd" d="m723.93 544.87 5.5434 18.426"/>
   <path class="link thread48 WhiteStart" d="m739.97 523.88-8.7677 45.166"/>
   <path class="link thread45 WhiteEnd" d="m708.87 529.04-0.0437 28.776"/>
   <path class="link thread15 WhiteStart" d="m720.19 549.56-11.371 14.25"/>
   <path class="link thread47 WhiteStart" d="m713.01 533.38 10.926 11.488"/>
   <path class="link thread15 WhiteEnd" d="m741.11 517.99-13.952 21.829"/>
   <path class="link thread48 WhiteEnd" d="m739.24 484.92 1.5381 27.075"/>
   <path class="link thread15 WhiteStart" d="m762.99 479.94-21.876 38.05"/>
   <path class="link thread47 WhiteEnd" d="m693.56 510.26 11.522 14.126"/>
   <path class="link thread45 WhiteStart" d="m710.7 503.23-1.8335 25.808"/>
   <path class="link thread26 WhiteStart" d="m889.44 599.98 5.0758 10.159"/>
   <path class="link thread50 WhiteEnd" d="m897.62 582.05-2.4462 22.134"/>
   <path class="link thread25 WhiteEnd" d="m888.34 572.02 5.2037 5.6236"/>
   <path class="link thread50 WhiteStart" d="m893.37 559.28 4.2486 22.763"/>
   <path class="link thread26 WhiteEnd" d="m881.85 554.84 4.1709 33.82"/>
   <path class="link thread20 WhiteStart" d="m887.92 578-1.1645 16.614"/>
   <path class="link thread25 WhiteStart" d="m883.97 560.45 4.3688 11.564"/>
   <path class="link thread20 WhiteEnd" d="m892.27 553.38-2.6913 12.763"/>
   <path class="link thread50 WhiteEnd" d="m884 536.68 5.6088 11.33"/>
   <path class="link thread20 WhiteStart" d="m894.37 530.6-2.0952 22.789"/>
   <path class="link thread25 WhiteEnd" d="m872.97 516.03 7.5453 32.96"/>
   <path class="link thread26 WhiteStart" d="m883.29 542.64-1.4433 12.206"/>
   <path class="link thread50 WhiteStart" d="m875.8 521.32 8.2042 15.353"/>
   <path class="link thread26 WhiteEnd" d="m894.91 524.62-6.8885 7.6088"/>
   <path class="link thread20 WhiteEnd" d="m886.04 501.2 6.7484 17.805"/>
   <path class="link thread26 WhiteStart" d="m908.34 513.57-13.421 11.049"/>
   <path class="link thread50 WhiteEnd" d="m850.39 474.7 19.702 36.071"/>
   <path class="link thread25 WhiteStart" d="m882.07 505.71-9.1045 10.327"/>
   <path class="link thread20 WhiteStart" d="m879.51 482.87 6.5336 18.332"/>
   <path class="link thread25 WhiteEnd" d="m899.77 488.1-9.3864 8.9626"/>
   <path class="link thread18 WhiteStart" d="m448.8 601.17 4.9785 9.8548"/>
   <path class="link thread42 WhiteEnd" d="m457.04 583.57-2.5531 21.502"/>
   <path class="link thread17 WhiteEnd" d="m447.74 573.77 5.1668 5.4443"/>
   <path class="link thread42 WhiteStart" d="m453.12 561.39 3.9183 22.175"/>
   <path class="link thread18 WhiteEnd" d="m441.64 556.92 3.7682 32.936"/>
   <path class="link thread12 WhiteStart" d="m447.29 579.75-1.2003 16.063"/>
   <path class="link thread17 WhiteStart" d="m443.69 562.56 4.056 11.208"/>
   <path class="link thread12 WhiteEnd" d="m452.08 555.48-2.9509 12.449"/>
   <path class="link thread42 WhiteEnd" d="m444.14 539.08 5.3206 11.003"/>
   <path class="link thread12 WhiteStart" d="m454.69 533.15-2.6111 22.331"/>
   <path class="link thread17 WhiteEnd" d="m433.7 518.99 6.7141 32.061"/>
   <path class="link thread18 WhiteStart" d="m443.31 545.02-1.6671 11.899"/>
   <path class="link thread42 WhiteStart" d="m436.47 524.31 7.6764 14.769"/>
   <path class="link thread18 WhiteEnd" d="m455.38 527.19-7.1181 7.5273"/>
   <path class="link thread12 WhiteEnd" d="m447.09 504.29 6.2544 17.261"/>
   <path class="link thread18 WhiteStart" d="m469.15 515.98-13.769 11.214"/>
   <path class="link thread42 WhiteEnd" d="m412.52 479.03 18.374 34.655"/>
   <path class="link thread17 WhiteStart" d="m443.05 508.73-9.3457 10.261"/>
   <path class="link thread12 WhiteStart" d="m441.13 486.67 5.9562 17.624"/>
   <path class="link thread17 WhiteEnd" d="m461.2 491.01-9.747 9.1705"/>
   <path class="link thread47 WhiteStart" d="m683.65 493.81 9.9048 16.456"/>
   <path class="link thread22 WhiteEnd" d="m711.13 497.24-12.752 9.4466"/>
   <path class="link thread45 WhiteEnd" d="m698.14 468.45 10.524 23.323"/>
   <path class="link thread22 WhiteStart" d="m733.74 487.33-22.611 9.912"/>
   <path class="link thread47 WhiteEnd" d="m658.33 478.16 16.799 7.9404"/>
   <path class="link thread21 WhiteStart" d="m694.2 472.98-13.644 15.686"/>
   <path class="link thread45 WhiteStart" d="m661.8 451.68 36.334 16.768"/>
   <path class="link thread21 WhiteEnd" d="m741.31 449.33-37.687 16.694"/>
   <path class="link thread51 WhiteStart" d="m902.89 493.22 10.079 16.535"/>
   <path class="link thread26 WhiteEnd" d="m930.41 497.05-12.59 9.1769"/>
   <path class="link thread49 WhiteEnd" d="m916.99 468.24 10.88 23.364"/>
   <path class="link thread26 WhiteStart" d="m952.82 487.8-22.414 9.2477"/>
   <path class="link thread51 WhiteEnd" d="m877.49 477.22 16.882 8.2444"/>
   <path class="link thread25 WhiteStart" d="m913.06 472.77-13.296 15.324"/>
   <path class="link thread49 WhiteStart" d="m880.41 450.64 36.585 17.607"/>
   <path class="link thread25 WhiteEnd" d="m959.84 450.42-37.306 15.517"/>
   <path class="link thread43 WhiteStart" d="m464.27 496.16 9.535 16.025"/>
   <path class="link thread18 WhiteEnd" d="m491.71 499.25-13.037 9.4264"/>
   <path class="link thread41 WhiteEnd" d="m479.23 470.99 10.05 22.772"/>
   <path class="link thread18 WhiteStart" d="m514.49 489.21-22.784 10.034"/>
   <path class="link thread43 WhiteEnd" d="m439.21 480.98 16.535 7.5375"/>
   <path class="link thread17 WhiteStart" d="m475.22 475.44-14.015 15.563"/>
   <path class="link thread41 WhiteStart" d="m443.43 455.13 35.806 15.861"/>
   <path class="link thread17 WhiteEnd" d="m522.66 451.56-37.947 16.972"/>
   <path class="link thread47 WhiteStart" d="m637.28 476.48 21.056 1.6774"/>
   <path class="link thread16 WhiteEnd" d="m656.36 449.17 1.569 23.004"/>
   <path class="link thread45 WhiteEnd" d="m629.87 447.36 20.498 1.3998"/>
   <path class="link thread16 WhiteStart" d="m637.85 414.48 18.502 34.693"/>
   <path class="link thread47 WhiteEnd" d="m589.9 457.01 35.941 16.495"/>
   <path class="link thread46 WhiteStart" d="m630.17 453.35 1.1263 22.653"/>
   <path class="link thread45 WhiteStart" d="m613.33 439.73 16.539 7.6339"/>
   <path class="link thread46 WhiteEnd" d="m621.77 423.83 6.1479 17.855"/>
   <path class="link thread44 WhiteStart" d="m522.2 457.55-2.2222 29.247"/>
   <path class="link thread18 WhiteEnd" d="m546.87 476.56-21.285 8.1014"/>
   <path class="link thread11 WhiteEnd" d="m548.75 441.86-1.5505 28.703"/>
   <path class="link thread18 WhiteStart" d="m584.44 459.49-37.565 17.068"/>
   <path class="link thread44 WhiteEnd" d="m547.52 409.32-21.821 37.071"/>
   <path class="link thread17 WhiteStart" d="m543.12 443.96-20.466 7.6095"/>
   <path class="link thread11 WhiteStart" d="m547.75 415.32 0.99959 26.546"/>
   <path class="link thread17 WhiteEnd" d="m577.21 429.09-22.988 10.317"/>
   <path class="link thread43 WhiteStart" d="m418.5 479.47 20.709 1.5141"/>
   <path class="link thread12 WhiteEnd" d="m437.94 452.7 0.99834 22.292"/>
   <path class="link thread41 WhiteEnd" d="m411.67 451.14 20.285 1.2037"/>
   <path class="link thread12 WhiteStart" d="m420.36 419.26 17.584 33.436"/>
   <path class="link thread43 WhiteEnd" d="m372.17 460.3 34.906 16.201"/>
   <path class="link thread42 WhiteStart" d="m411.85 457.13 0.6652 21.896"/>
   <path class="link thread41 WhiteStart" d="m395.53 443.72 16.136 7.4129"/>
   <path class="link thread42 WhiteEnd" d="m404 428.18 5.7644 17.266"/>
   <path class="link thread52 WhiteStart" d="m959.59 456.42-1.2217 29.094"/>
   <path class="link thread26 WhiteEnd" d="m985.03 475.97-21.011 7.518"/>
   <path class="link thread52 WhiteEnd" d="m983.12 409.07-20.337 36.121"/>
   <path class="link thread25 WhiteStart" d="m980.05 443.43-20.211 6.9876"/>
   <path class="link thread19 WhiteStart" d="m983.6 415.05 2.1212 26.421"/>
   <path class="link thread51 WhiteStart" d="m856.36 475.25 21.129 1.9691"/>
   <path class="link thread20 WhiteEnd" d="m875 448.03 1.9795 23.209"/>
   <path class="link thread49 WhiteEnd" d="m848.51 445.83 20.513 1.7035"/>
   <path class="link thread20 WhiteStart" d="m855.82 412.68 19.184 35.349"/>
   <path class="link thread51 WhiteEnd" d="m808.75 455.25 36.2 16.905"/>
   <path class="link thread50 WhiteStart" d="m848.9 451.82 1.4893 22.875"/>
   <path class="link thread49 WhiteStart" d="m831.83 437.97 16.678 7.8657"/>
   <path class="link thread50 WhiteEnd" d="m840.06 422.1 6.4379 18.084"/>
   <path class="link thread48 WhiteStart" d="m740.96 455.32-1.7261 29.605"/>
   <path class="link thread22 WhiteEnd" d="m765.98 474.74-21.138 8.0505"/>
   <path class="link thread15 WhiteEnd" d="m767.28 439.71-1.0749 29.029"/>
   <path class="link thread22 WhiteStart" d="m803.29 457.74-37.312 16.998"/>
   <path class="link thread48 WhiteEnd" d="m765.38 406.85-21.113 37.258"/>
   <path class="link thread21 WhiteStart" d="m761.65 441.8-20.34 7.5326"/>
   <path class="link thread15 WhiteStart" d="m765.73 412.84 1.55 26.872"/>
   <path class="link thread21 WhiteEnd" d="m795.58 427.07-22.829 10.199"/>
   <path class="link thread47 WhiteStart" d="m579.69 434.55 10.208 22.456"/>
   <path class="link thread18 WhiteEnd" d="m607.89 437.21-13.949 15.355"/>
   <path class="link thread45 WhiteEnd" d="m594.95 416.33 9.7756 15.78"/>
   <path class="link thread18 WhiteStart" d="m617.45 428-9.5645 9.2166"/>
   <path class="link thread47 WhiteEnd" d="m579.45 398.47-1.7992 24.641"/>
   <path class="link thread17 WhiteStart" d="m590.08 419.84-12.869 9.2554"/>
   <path class="link thread14 WhiteEnd" d="m390.08 441.22-13.806 14.709"/>
   <path class="link thread41 WhiteEnd" d="m377.71 420.75 9.2645 15.33"/>
   <path class="link thread14 WhiteStart" d="m399.62 432.28-9.5447 8.9385"/>
   <path class="link thread51 WhiteStart" d="m798.12 432.5 10.628 22.749"/>
   <path class="link thread22 WhiteEnd" d="m826.41 435.41-13.665 15.36"/>
   <path class="link thread49 WhiteEnd" d="m813.08 414.32 10.124 16.016"/>
   <path class="link thread22 WhiteStart" d="m835.76 426.29-9.358 9.1232"/>
   <path class="link thread21 WhiteStart" d="m808.23 417.85-12.641 9.2118"/>
   <path class="link thread46 WhiteStart" d="m615.45 406.93 6.3238 16.906"/>
   <path class="link thread50 WhiteStart" d="m833.4 405.02 6.6588 17.077"/>
   <path class="link thread42 WhiteStart" d="m398.07 411.77 5.9304 16.405"/>
   <path class="link thread14 WhiteEnd" d="m417.57 413.95-9.4222 9.8866"/>
  </g>
  <rect transform="matrix(1 -.0014176 -.00035377 -1 0 0)" x="383.8" y="-1022.7" width="596.18" height="595.95" stroke="#fafafa" stroke-linejoin="round" stroke-width="16.016"/>
 </g>
</svg>
