<?xml version="1.0" encoding="UTF-8"?>
<!--?xml version="1.0" encoding="UTF-8" standalone="no"?-->
<svg width="153" height="153" version="1.1" xmlns="http://www.w3.org/2000/svg">
 <g transform="matrix(.25 0 0 .24986 -109.63 -75.261)" fill="none">
  <g stroke="#000" stroke-width="4.0011">
   <path class="link thread21 WhiteStart" d="m618.32 909.88 21.142 18.673"/>
   <path class="link thread29 WhiteStart" d="m883.37 909.95 20.703 19.041"/>
   <path class="link thread34 WhiteEnd" d="m613.82 905.91-1.9609 23.994"/>
   <path class="link thread21 WhiteEnd" d="m594.4 901.29 13.589 3.2315"/>
   <path class="link thread34 WhiteStart" d="m606.55 869.67 7.267 36.244"/>
   <path class="link thread15 WhiteEnd" d="m567.91 905.29 20.41 24.141"/>
   <path class="link thread20 WhiteStart" d="m593.99 907.28-1.7951 26.735"/>
   <path class="link thread21 WhiteStart" d="m573.85 904.39 20.548-3.103"/>
   <path class="link thread20 WhiteEnd" d="m605.37 863.78-9.2939 31.749"/>
   <path class="link thread17 WhiteEnd" d="m954.41 911.19 1.9226 29.051"/>
   <path class="link thread35 WhiteEnd" d="m944.9 872.47-9.8374 36.912"/>
   <path class="link thread48 WhiteStart" d="m948.52 912.31-15.003 2.8663"/>
   <path class="link thread17 WhiteStart" d="m946.33 878.3 8.0825 32.891"/>
   <path class="link thread48 WhiteEnd" d="m981.09 912.31-20.685-0.87174"/>
   <path class="link thread42 WhiteEnd" d="m878.96 905.89-2.0989 24.597"/>
   <path class="link thread29 WhiteEnd" d="m859.78 901.16 13.346 3.2924"/>
   <path class="link thread42 WhiteStart" d="m871.9 868.77 7.0547 37.119"/>
   <path class="link thread23 WhiteEnd" d="m833.6 905.28 19.921 24.602"/>
   <path class="link thread28 WhiteStart" d="m859.34 907.14-2.0455 27.402"/>
   <path class="link thread29 WhiteStart" d="m839.52 904.35 20.262-3.1881"/>
   <path class="link thread28 WhiteEnd" d="m870.78 862.87-9.3401 32.517"/>
   <path class="link thread32 WhiteEnd" d="m450.24 911.79-20.917-0.89143"/>
   <path class="link thread9 WhiteEnd" d="m690.24 911.48 2.2041 28.606"/>
   <path class="link thread27 WhiteEnd" d="m680.42 873.33-9.6955 36.152"/>
   <path class="link thread40 WhiteStart" d="m684.33 912.55-15.16 2.7286"/>
   <path class="link thread9 WhiteStart" d="m681.92 879.14 8.3208 32.345"/>
   <path class="link thread40 WhiteEnd" d="m717.06 912.65-20.833-0.90142"/>
   <path class="link thread22 WhiteEndLeft" d="m1006.5 893.69s-8.3862-1.293-24.766 14.43"/>
   <path class="link thread48 WhiteStartRight" d="m1005.9 897.88s-16.38 15.723-24.766 14.43"/>
   <path class="link thread31 WhiteEnd" d="m1039.5 881.24 26.87 6.1975"/>
   <path class="link thread48 WhiteEnd" d="m1021.4 868.77-11.803 19.77"/>
   <path class="link thread22 WhiteStart" d="m1033.9 883.36-27.351 10.33"/>
   <path class="link thread31 WhiteStart" d="m1026.3 872.17 13.146 9.0665"/>
   <path class="link thread22 WhiteEnd" d="m1057.7 865.83-13.649 11.538"/>
   <path class="link thread37 WhiteEnd" d="m1039.7 853.73 13.036 8.755"/>
   <path class="link thread22 WhiteStart" d="m1070.2 846.04-12.502 19.787"/>
   <path class="link thread31 WhiteEnd" d="m1006.2 845.83 11.89 17.936"/>
   <path class="link thread48 WhiteStart" d="m1035 857.54-13.664 11.229"/>
   <path class="link thread37 WhiteStart" d="m1012 847.21 27.665 6.5216"/>
   <path class="link thread48 WhiteEnd" d="m1073.4 840.97-28.112 10.636"/>
   <path class="link thread37 WhiteEndLeft" d="m981.2 830.55s1.9877 8.2492 20.852 16.271"/>
   <path class="link thread31 WhiteStartRight" d="m985.33 829.56s18.865 8.022 20.852 16.271"/>
   <path class="link thread31 WhiteEnd" d="m955.9 835.04 19.394-3.4357"/>
   <path class="link thread37 WhiteStart" d="m961.71 805.5 19.491 25.057"/>
   <path class="link thread29 WhiteEndLeft" d="m808.5 889.94s1.9898 8.2487 20.967 16.333"/>
   <path class="link thread23 WhiteStartRight" d="m812.63 888.95s18.977 8.0846 20.967 16.333"/>
   <path class="link thread14 WhiteEndLeft" d="m742.53 894.35s-8.3736-1.3719-24.778 14.108"/>
   <path class="link thread40 WhiteStartRight" d="m741.84 898.54s-16.404 15.479-24.778 14.108"/>
   <path class="link thread23 WhiteEnd" d="m775.6 882.19 27.065 6.3742"/>
   <path class="link thread29 WhiteStart" d="m797.07 871.93 11.432 18.015"/>
   <path class="link thread40 WhiteEnd" d="m757.4 869.73-11.767 19.482"/>
   <path class="link thread14 WhiteStart" d="m769.97 884.26-27.441 10.09"/>
   <path class="link thread23 WhiteStart" d="m762.35 873.12 13.252 9.0693"/>
   <path class="link thread14 WhiteEnd" d="m793.86 866.86-13.664 11.473"/>
   <path class="link thread29 WhiteEnd" d="m775.71 854.77 13.157 8.7598"/>
   <path class="link thread14 WhiteStart" d="m806.36 846.99-12.505 19.87"/>
   <path class="link thread23 WhiteEnd" d="m741.97 847.06 12.053 17.71"/>
   <path class="link thread40 WhiteStart" d="m771.06 858.57-13.664 11.162"/>
   <path class="link thread29 WhiteStart" d="m747.82 848.4 27.89 6.3751"/>
   <path class="link thread40 WhiteEnd" d="m809.56 841.91-28.244 10.732"/>
   <path class="link thread14 WhiteEndLeft" d="m835.12 823.32s-8.3816-1.3228-24.902 14.403"/>
   <path class="link thread40 WhiteStartRight" d="m834.46 827.51s-16.52 15.726-24.902 14.403"/>
   <path class="link thread29 WhiteEndLeft" d="m716.79 832.04s2.0775 8.227 21.064 16.064"/>
   <path class="link thread23 WhiteStartRight" d="m720.9 831s18.986 7.837 21.064 16.064"/>
   <path class="link thread40 WhiteEnd" d="m859.34 789.15-20.752 29.268"/>
   <path class="link thread14 WhiteStart" d="m855.4 824.94-20.278-1.6219"/>
   <path class="link thread23 WhiteEnd" d="m691.34 836.44 19.534-3.3814"/>
   <path class="link thread29 WhiteStart" d="m697.18 807.33 19.61 24.712"/>
   <path class="link thread21 WhiteEndLeft" d="m542.43 890.3s2.1287 8.2139 21.372 16.055"/>
   <path class="link thread15 WhiteStartRight" d="m546.54 889.24s19.244 7.8416 21.372 16.055"/>
   <path class="link thread6 WhiteEndLeft" d="m475.85 894.25s-8.3408-1.5594-24.829 13.371"/>
   <path class="link thread32 WhiteStartRight" d="m475.07 898.42s-16.488 14.93-24.829 13.371"/>
   <path class="link thread15 WhiteEnd" d="m509.16 882.62 27.427 6.3278"/>
   <path class="link thread21 WhiteStart" d="m530.81 872.67 11.628 17.63"/>
   <path class="link thread32 WhiteEnd" d="m490.82 870.46-11.772 18.713"/>
   <path class="link thread6 WhiteStart" d="m503.5 884.6-27.646 9.6492"/>
   <path class="link thread15 WhiteStart" d="m495.82 873.77 13.344 8.8493"/>
   <path class="link thread6 WhiteEnd" d="m527.5 867.66-13.692 11.17"/>
   <path class="link thread21 WhiteEnd" d="m509.2 855.85 13.258 8.5538"/>
   <path class="link thread6 WhiteStart" d="m540.1 848.24-12.598 19.417"/>
   <path class="link thread15 WhiteEnd" d="m475.18 848.56 12.147 17.017"/>
   <path class="link thread32 WhiteStart" d="m504.5 859.59-13.687 10.872"/>
   <path class="link thread21 WhiteStart" d="m481.05 849.82 28.152 6.0384"/>
   <path class="link thread32 WhiteEnd" d="m543.37 843.21-28.536 10.561"/>
   <path class="link thread6 WhiteEndLeft" d="m569.24 825.03s-8.3585-1.4613-25.147 13.997"/>
   <path class="link thread32 WhiteStartRight" d="m568.51 829.21s-16.789 15.458-25.147 13.997"/>
   <path class="link thread21 WhiteEndLeft" d="m449.82 834.19s2.2648 8.1774 21.276 15.495"/>
   <path class="link thread15 WhiteStartRight" d="m453.91 833.06s19.011 7.3172 21.276 15.495"/>
   <path class="link thread32 WhiteEnd" d="m593.84 791.53-21.049 28.669"/>
   <path class="link thread6 WhiteStart" d="m589.8 826.62-20.555-1.5858"/>
   <path class="link thread15 WhiteEnd" d="m424.28 838.48 19.624-3.2952"/>
   <path class="link thread21 WhiteStart" d="m430.23 810.45 19.588 23.749"/>
   <path class="link thread9 WhiteEnd" d="m671.66 831.54 7.5305 35.912"/>
   <path class="link thread27 WhiteStart" d="m689.64 842.19-9.2189 31.133"/>
   <path class="link thread23 WhiteStart" d="m677.48 832.99 13.862 3.4492"/>
   <path class="link thread27 WhiteEnd" d="m693.45 802.63-1.7338 27.828"/>
   <path class="link thread29 WhiteEnd" d="m674.62 801.87 12.836 0.51513"/>
   <path class="link thread27 WhiteStart" d="m685.34 755.71 8.1075 46.919"/>
   <path class="link thread23 WhiteEnd" d="m646.58 809.2 20.6 18.352"/>
   <path class="link thread9 WhiteStart" d="m674.02 807.84-2.3645 23.704"/>
   <path class="link thread29 WhiteStart" d="m665.64 794.69 8.9793 7.1812"/>
   <path class="link thread9 WhiteEnd" d="m672.95 775.32 1.2944 20.563"/>
   <path class="link thread17 WhiteEnd" d="m936.41 829.95 7.3184 36.633"/>
   <path class="link thread35 WhiteStart" d="m954.21 840.79-9.309 31.679"/>
   <path class="link thread31 WhiteStart" d="m942.21 831.47 13.688 3.5682"/>
   <path class="link thread35 WhiteEnd" d="m958.03 800.76-1.7557 28.287"/>
   <path class="link thread37 WhiteEnd" d="m939.36 799.86 12.672 0.61344"/>
   <path class="link thread35 WhiteStart" d="m949.81 753.14 8.2206 47.62"/>
   <path class="link thread31 WhiteEnd" d="m911.72 807.11 20.281 18.773"/>
   <path class="link thread17 WhiteStart" d="m938.78 805.83-2.3698 24.126"/>
   <path class="link thread37 WhiteStart" d="m930.54 792.48 8.826 7.3758"/>
   <path class="link thread17 WhiteEnd" d="m937.75 772.95 1.2522 20.922"/>
   <path class="link thread34 WhiteEnd" d="m595.78 827.08 8.0763 30.898"/>
   <path class="link thread20 WhiteStart" d="m615.58 828.29-10.203 35.494"/>
   <path class="link thread34 WhiteStart" d="m594.17 797.52 1.6102 29.561"/>
   <path class="link thread6 WhiteEnd" d="m617.24 822.52-15.586 3.3105"/>
   <path class="link thread20 WhiteEnd" d="m616.11 787.51 0.93061 29.021"/>
   <path class="link thread6 WhiteStart" d="m641.12 811.68-23.88 10.843"/>
   <path class="link thread34 WhiteEnd" d="m601.2 734.08-6.5963 51.5"/>
   <path class="link thread32 WhiteStart" d="m610.21 788.57-16.364 2.9558"/>
   <path class="link thread20 WhiteStart" d="m615.37 758.29 0.74343 29.22"/>
   <path class="link thread32 WhiteEnd" d="m638.69 784-16.651 2.5883"/>
   <path class="link thread42 WhiteEnd" d="m861.38 825.42 7.9406 31.637"/>
   <path class="link thread28 WhiteStart" d="m881.01 826.52-10.224 36.354"/>
   <path class="link thread42 WhiteStart" d="m859.68 795.14 1.7002 30.272"/>
   <path class="link thread14 WhiteEnd" d="m882.63 820.74-15.39 3.3844"/>
   <path class="link thread28 WhiteEnd" d="m881.48 785.04 0.95465 29.709"/>
   <path class="link thread14 WhiteStart" d="m906.29 809.65-23.659 11.091"/>
   <path class="link thread42 WhiteEnd" d="m866.32 730.48-6.2684 52.717"/>
   <path class="link thread40 WhiteStart" d="m875.58 786.13-16.24 3.0195"/>
   <path class="link thread28 WhiteStart" d="m880.56 755.12 0.92136 29.915"/>
   <path class="link thread40 WhiteEnd" d="m903.98 781.48-16.57 2.6237"/>
   <path class="link thread23 WhiteStart" d="m640.48 789.72 6.0946 19.478"/>
   <path class="link thread6 WhiteEnd" d="m660.95 790.94-10.663 13.545"/>
   <path class="link thread29 WhiteEnd" d="m654.57 773.14 4.3564 12.152"/>
   <path class="link thread6 WhiteStart" d="m669.29 780.08-8.34 10.863"/>
   <path class="link thread23 WhiteEnd" d="m639.44 760.57-0.55351 17.433"/>
   <path class="link thread32 WhiteStart" d="m649.62 776.53-10.926 7.4694"/>
   <path class="link thread29 WhiteStart" d="m653.48 762.52 1.0936 10.62"/>
   <path class="link thread32 WhiteEnd" d="m665.62 757.59-7.5754 10.664"/>
   <path class="link thread31 WhiteStart" d="m905.71 787.22 6.0081 19.886"/>
   <path class="link thread14 WhiteEnd" d="m925.93 788.63-10.552 13.717"/>
   <path class="link thread37 WhiteEnd" d="m919.76 770.53 4.2367 12.42"/>
   <path class="link thread14 WhiteStart" d="m934.14 777.74-8.2088 10.896"/>
   <path class="link thread31 WhiteEnd" d="m904.6 757.66-0.46497 17.816"/>
   <path class="link thread40 WhiteStart" d="m914.83 773.95-10.849 7.5223"/>
   <path class="link thread37 WhiteStart" d="m918.63 759.69 1.1309 10.843"/>
   <path class="link thread40 WhiteEnd" d="m930.67 754.9-7.4778 10.715"/>
   <path class="link thread17 WhiteStart" d="m932.86 760.49 4.8898 12.461"/>
   <path class="link thread14 WhiteEnd" d="m948.79 747.23-8.669 20.204"/>
   <path class="link thread35 WhiteEnd" d="m934.74 729.73 10.292 12.819"/>
   <path class="link thread14 WhiteStart" d="m955.31 694.95-6.5199 52.281"/>
   <path class="link thread17 WhiteEnd" d="m918.01 753.72 6.6905 0.62096"/>
   <path class="link thread40 WhiteStart" d="m933.78 735.65-3.1104 19.247"/>
   <path class="link thread35 WhiteStart" d="m925.1 733.65 9.6397-3.9192"/>
   <path class="link thread40 WhiteEnd" d="m933.77 693.71 0.80604 30.023"/>
   <path class="link thread9 WhiteStart" d="m667.91 763.13 5.0342 12.188"/>
   <path class="link thread6 WhiteEnd" d="m684.32 749.79-8.9314 20.045"/>
   <path class="link thread27 WhiteEnd" d="m670.01 732.71 10.461 12.489"/>
   <path class="link thread6 WhiteStart" d="m691.34 698.04-7.016 51.755"/>
   <path class="link thread9 WhiteEnd" d="m652.86 756.55 6.778 0.54882"/>
   <path class="link thread32 WhiteStart" d="m668.97 738.61-3.3431 18.972"/>
   <path class="link thread27 WhiteStart" d="m660.17 736.7 9.8402-3.9921"/>
   <path class="link thread32 WhiteEnd" d="m669.55 697.14 0.38217 29.569"/>
   <path class="link thread17 WhiteStart" d="m910.36 755.97 7.6486-2.2465"/>
   <path class="link thread37 WhiteEnd" d="m919.54 735.91-1.0197 11.838"/>
   <path class="link thread35 WhiteEnd" d="m907.56 739.45 6.2261-1.8378"/>
   <path class="link thread37 WhiteStart" d="m913.67 726.26 5.8707 9.6452"/>
   <path class="link thread17 WhiteEnd" d="m895.46 743.21 5.9364 9.383"/>
   <path class="link thread31 WhiteStart" d="m906.6 745.37-1.9972 12.294"/>
   <path class="link thread35 WhiteStart" d="m901.19 741.43 6.3742-1.9817"/>
   <path class="link thread31 WhiteEnd" d="m910.55 721.14-2.0232 12.385"/>
   <path class="link thread37 WhiteEnd" d="m897.11 725.32 7.7109-2.4015"/>
   <path class="link thread31 WhiteStart" d="m911.2 703.35-0.64806 17.786"/>
   <path class="link thread35 WhiteEnd" d="m880.38 749.13 9.4938-3.726"/>
   <path class="link thread17 WhiteStart" d="m896.56 731.3-1.1019 11.91"/>
   <path class="link thread37 WhiteStart" d="m890.55 724.63 6.5645 0.69135"/>
   <path class="link thread17 WhiteEnd" d="m895.57 708.39 0.99754 10.961"/>
   <path class="link thread9 WhiteStart" d="m645.19 758.85 7.6788-2.2953"/>
   <path class="link thread29 WhiteEnd" d="m654.61 738.95-1.1515 11.629"/>
   <path class="link thread27 WhiteEnd" d="m642.48 742.55 6.3712-1.8878"/>
   <path class="link thread29 WhiteStart" d="m648.79 729.55 5.8178 9.4046"/>
   <path class="link thread9 WhiteEnd" d="m630.29 746.37 5.894 9.1532"/>
   <path class="link thread23 WhiteStart" d="m641.48 748.46-2.0461 12.105"/>
   <path class="link thread27 WhiteStart" d="m636.02 744.57 6.4635-2.0274"/>
   <path class="link thread23 WhiteEnd" d="m645.63 724.45-2.121 12.188"/>
   <path class="link thread29 WhiteEnd" d="m632.18 728.74 7.7356-2.468"/>
   <path class="link thread23 WhiteStart" d="m646.62 707.03-0.98548 17.418"/>
   <path class="link thread27 WhiteEnd" d="m615.22 752.29 9.4925-3.7273"/>
   <path class="link thread9 WhiteStart" d="m631.54 734.7-1.2481 11.665"/>
   <path class="link thread29 WhiteStart" d="m625.63 728.11 6.5535 0.6304"/>
   <path class="link thread9 WhiteEnd" d="m630.88 712.03 0.83607 10.725"/>
   <path class="link thread27 WhiteStart" d="m604.86 738.83 10.355 13.456"/>
   <path class="link thread20 WhiteEnd" d="m619.65 727.53-3.3792 18.85"/>
   <path class="link thread29 WhiteEnd" d="m612.7 709.59 4.7873 12.345"/>
   <path class="link thread20 WhiteStart" d="m627.36 716.89-7.7049 10.642"/>
   <path class="link thread27 WhiteEnd" d="m592.2 682.53 7.9687 45.632"/>
   <path class="link thread34 WhiteStart" d="m610.15 715.02-8.9451 19.053"/>
   <path class="link thread29 WhiteStart" d="m611.52 689.51 1.1825 20.086"/>
   <path class="link thread34 WhiteEnd" d="m624.89 694.3-8.455 10.603"/>
   <path class="link thread35 WhiteStart" d="m869.93 735.27 10.445 13.856"/>
   <path class="link thread28 WhiteEnd" d="m884.58 724-3.2123 19.204"/>
   <path class="link thread37 WhiteEnd" d="m877.58 705.73 4.8554 12.676"/>
   <path class="link thread28 WhiteStart" d="m892.12 713.29-7.5371 10.71"/>
   <path class="link thread35 WhiteEnd" d="m856.9 677.61 8.3687 46.963"/>
   <path class="link thread42 WhiteStart" d="m875.09 711.19-8.7732 19.293"/>
   <path class="link thread37 WhiteStart" d="m876.25 685.1 1.3305 20.624"/>
   <path class="link thread42 WhiteEnd" d="m889.5 690.35-8.2415 10.63"/>
   <path class="link thread17 WhiteStart" d="m891.41 696.04 4.1589 12.348"/>
   <path class="link thread28 WhiteEnd" d="m911.42 697.36-10.923 7.6038"/>
   <path class="link thread31 WhiteEnd" d="m903.6 671.55 6.0738 20.065"/>
   <path class="link thread28 WhiteStart" d="m927.85 694.67-16.433 2.6809"/>
   <path class="link thread17 WhiteEnd" d="m875.86 679.11 9.0049 7.4232"/>
   <path class="link thread42 WhiteStart" d="m900 676.35-10.508 14.006"/>
   <path class="link thread31 WhiteStart" d="m883.1 652.87 20.503 18.68"/>
   <path class="link thread42 WhiteEnd" d="m932.97 657.97-23.918 11.061"/>
   <path class="link thread9 WhiteStart" d="m626.81 699.98 4.0658 12.047"/>
   <path class="link thread20 WhiteEnd" d="m646.96 701.04-11.126 7.6066"/>
   <path class="link thread23 WhiteEnd" d="m639.43 675.68 5.8209 19.606"/>
   <path class="link thread20 WhiteStart" d="m663.63 698.16-16.678 2.8801"/>
   <path class="link thread9 WhiteEnd" d="m611.16 683.52 9.0117 7.076"/>
   <path class="link thread34 WhiteStart" d="m635.74 680.41-10.842 13.89"/>
   <path class="link thread23 WhiteStart" d="m618.96 657.8 20.469 17.884"/>
   <path class="link thread34 WhiteEnd" d="m669.21 661.89-24.34 11.272"/>
   <path class="link thread9 WhiteStart" d="m598.19 682.85 12.969 0.67229"/>
   <path class="link thread29 WhiteEnd" d="m614.44 653.85-2.6191 23.706"/>
   <path class="link thread23 WhiteEnd" d="m595.22 649.87 13.35 2.7626"/>
   <path class="link thread29 WhiteStart" d="m608.14 618.43 6.2976 35.422"/>
   <path class="link thread9 WhiteEnd" d="m569 654.76 19.36 23.174"/>
   <path class="link thread27 WhiteStart" d="m594.66 655.84-2.4619 26.691"/>
   <path class="link thread23 WhiteStart" d="m574.89 653.66 20.322-3.7876"/>
   <path class="link thread27 WhiteEnd" d="m607.09 612.52-10.06 31.633"/>
   <path class="link thread40 WhiteStart" d="m933.1 663.97 0.66768 29.742"/>
   <path class="link thread28 WhiteEnd" d="m956.05 688.99-16.408 3.4738"/>
   <path class="link thread14 WhiteEnd" d="m953.8 654.12 1.8605 28.885"/>
   <path class="link thread28 WhiteStart" d="m976.82 660.16-20.771 28.832"/>
   <path class="link thread40 WhiteEnd" d="m944.41 615.82-9.8731 36.359"/>
   <path class="link thread42 WhiteStart" d="m947.9 655.21-14.934 2.7588"/>
   <path class="link thread14 WhiteStart" d="m945.84 621.65 7.9604 32.473"/>
   <path class="link thread42 WhiteEnd" d="m980.33 655.29-20.53-0.90701"/>
   <path class="link thread12 WhiteStart" d="m447.76 670.69-21.839 28.389"/>
   <path class="link thread26 WhiteEnd" d="m451.42 665.93-20.844 0.054"/>
   <path class="link thread17 WhiteStart" d="m862.88 678.08 12.98 1.0298"/>
   <path class="link thread37 WhiteEnd" d="m878.67 648.83-2.2523 24.312"/>
   <path class="link thread31 WhiteEnd" d="m859.57 644.37 13.251 3.0909"/>
   <path class="link thread37 WhiteStart" d="m871.81 612.36 6.8575 36.47"/>
   <path class="link thread17 WhiteEnd" d="m833.57 648.76 19.559 24.184"/>
   <path class="link thread35 WhiteStart" d="m859.09 650.35-2.192 27.255"/>
   <path class="link thread31 WhiteStart" d="m839.48 647.76 20.089-3.3889"/>
   <path class="link thread35 WhiteEnd" d="m870.7 606.46-9.4382 32.155"/>
   <path class="link thread32 WhiteStart" d="m669.27 667.89 0.27762 29.25"/>
   <path class="link thread20 WhiteEnd" d="m692.14 692.09-16.74 3.7368"/>
   <path class="link thread6 WhiteEnd" d="m690.29 657.77 1.526 28.336"/>
   <path class="link thread20 WhiteStart" d="m713.49 663.06-21.345 29.031"/>
   <path class="link thread32 WhiteEnd" d="m681.39 620.23-10.498 35.894"/>
   <path class="link thread34 WhiteStart" d="m684.41 658.92-15.193 2.9701"/>
   <path class="link thread6 WhiteStart" d="m682.78 626.07 7.515 31.694"/>
   <path class="link thread34 WhiteEnd" d="m717.04 658.23-20.748-0.35846"/>
   <path class="link thread28 WhiteEndLeft" d="m1005.6 636.91s-8.3806-1.3285-24.646 14.193"/>
   <path class="link thread42 WhiteStartRight" d="m1005 641.1s-16.265 15.522-24.646 14.193"/>
   <path class="link thread25 WhiteEnd" d="m1038.5 624.83 26.875 6.4274"/>
   <path class="link thread42 WhiteEnd" d="m1020.4 612.3-11.718 19.468"/>
   <path class="link thread28 WhiteStart" d="m1032.8 626.9-27.202 10.01"/>
   <path class="link thread25 WhiteStart" d="m1025.4 615.72 13.094 9.1016"/>
   <path class="link thread28 WhiteEnd" d="m1056.5 609.76-13.439 11.218"/>
   <path class="link thread39 WhiteEnd" d="m1038.6 597.57 12.984 8.8178"/>
   <path class="link thread28 WhiteStart" d="m1068.6 590.5-12.114 19.26"/>
   <path class="link thread25 WhiteEnd" d="m1005.4 589.55 11.738 17.742"/>
   <path class="link thread42 WhiteStart" d="m1033.9 601.36-13.463 10.941"/>
   <path class="link thread39 WhiteStart" d="m1011.2 590.96 27.336 6.6098"/>
   <path class="link thread42 WhiteEnd" d="m1071.8 585.42-27.62 10.091"/>
   <path class="link thread39 WhiteEndLeft" d="m980.63 574.47s2.003 8.2455 20.644 16.088"/>
   <path class="link thread25 WhiteStartRight" d="m984.76 573.47s18.641 7.842 20.644 16.088"/>
   <path class="link thread25 WhiteEnd" d="m955.47 578.91 19.258-3.3983"/>
   <path class="link thread39 WhiteStart" d="m961.41 550 19.226 24.465"/>
   <path class="link thread23 WhiteEndLeft" d="m543.98 640.81s2.3182 8.1625 20.929 15.105"/>
   <path class="link thread9 WhiteStartRight" d="m548.07 639.65s18.611 6.943 20.929 15.105"/>
   <path class="link thread12 WhiteEndLeft" d="m477.49 647.45s-8.3649-1.4244-25.36 14.302"/>
   <path class="link thread26 WhiteStartRight" d="m476.78 651.63s-16.995 15.727-25.36 14.302"/>
   <path class="link thread9 WhiteEnd" d="m511.15 634.53 26.945 5.1503"/>
   <path class="link thread23 WhiteStart" d="m533.02 623.95 10.961 16.863"/>
   <path class="link thread26 WhiteEnd" d="m493.26 623.32-12.492 19.112"/>
   <path class="link thread12 WhiteStart" d="m505.54 636.68-28.056 10.767"/>
   <path class="link thread9 WhiteStart" d="m498.35 626.5 12.8 8.0293"/>
   <path class="link thread12 WhiteEnd" d="m529.75 618.92-14.012 11.76"/>
   <path class="link thread23 WhiteEnd" d="m511.9 608.01 12.732 7.7786"/>
   <path class="link thread12 WhiteStart" d="m542.76 599.26-13.009 19.652"/>
   <path class="link thread9 WhiteEnd" d="m478.63 602.26 11.205 16.123"/>
   <path class="link thread26 WhiteStart" d="m507.26 611.82-14.002 11.498"/>
   <path class="link thread23 WhiteStart" d="m484.55 603.29 27.355 4.7235"/>
   <path class="link thread26 WhiteEnd" d="m546.07 594.26-28.606 11.509"/>
   <path class="link thread12 WhiteEndLeft" d="m572.1 575.53s-8.3746-1.3662-25.344 14.539"/>
   <path class="link thread26 WhiteStartRight" d="m571.42 579.72s-16.97 15.905-25.344 14.539"/>
   <path class="link thread23 WhiteEndLeft" d="m453.93 589.28s2.5206 8.1023 20.653 14.241"/>
   <path class="link thread9 WhiteStartRight" d="m457.98 588.02s18.132 6.1385 20.653 14.241"/>
   <path class="link thread26 WhiteEnd" d="m597.42 541.95-21.702 28.79"/>
   <path class="link thread12 WhiteStart" d="m592.49 576.4-20.384-0.8669"/>
   <path class="link thread9 WhiteEnd" d="m428.63 594.68 19.436-4.145"/>
   <path class="link thread23 WhiteStart" d="m435.8 567.17 18.135 22.119"/>
   <path class="link thread31 WhiteEndLeft" d="m808.66 633.89s2.0761 8.2274 20.788 15.905"/>
   <path class="link thread17 WhiteStartRight" d="m812.78 632.86s18.712 7.6774 20.788 15.905"/>
   <path class="link thread20 WhiteEndLeft" d="m742.72 639.51s-8.3828-1.315-25.022 14.524"/>
   <path class="link thread34 WhiteStartRight" d="m742.06 643.7s-16.64 15.839-25.022 14.524"/>
   <path class="link thread17 WhiteEnd" d="m775.94 626.8 26.858 5.8233"/>
   <path class="link thread31 WhiteStart" d="m797.47 616.33 11.192 17.564"/>
   <path class="link thread34 WhiteEnd" d="m757.99 614.84-12.113 19.568"/>
   <path class="link thread20 WhiteStart" d="m770.34 628.94-27.618 10.569"/>
   <path class="link thread17 WhiteStart" d="m762.99 618.17 12.957 8.6306"/>
   <path class="link thread20 WhiteEnd" d="m794.25 611.27-13.73 11.648"/>
   <path class="link thread31 WhiteEnd" d="m776.35 599.64 12.87 8.3582"/>
   <path class="link thread20 WhiteStart" d="m806.76 591.52-12.508 19.752"/>
   <path class="link thread17 WhiteEnd" d="m743.15 592.75 11.5 17.116"/>
   <path class="link thread34 WhiteStart" d="m771.72 603.47-13.732 11.372"/>
   <path class="link thread31 WhiteStart" d="m749.02 593.97 27.325 5.6775"/>
   <path class="link thread34 WhiteEnd" d="m809.97 586.45-28.036 11.003"/>
   <path class="link thread20 WhiteEndLeft" d="m835.41 567.89s-8.3834-1.3109-24.79 14.372"/>
   <path class="link thread34 WhiteStartRight" d="m834.76 572.08s-16.407 15.683-24.79 14.372"/>
   <path class="link thread31 WhiteEndLeft" d="m718.39 578.59s2.2288 8.1873 20.658 15.274"/>
   <path class="link thread17 WhiteStartRight" d="m722.49 577.47s18.43 7.0865 20.658 15.274"/>
   <path class="link thread34 WhiteEnd" d="m859.65 534.25-20.726 28.77"/>
   <path class="link thread20 WhiteStart" d="m855.53 569.27-20.114-1.3861"/>
   <path class="link thread17 WhiteEnd" d="m693.12 583.63 19.393-3.8722"/>
   <path class="link thread31 WhiteStart" d="m699.66 555.07 18.733 23.518"/>
   <path class="link thread37 WhiteEnd" d="m861.51 569.68 7.7336 30.956"/>
   <path class="link thread35 WhiteStart" d="m880.98 570.6-10.28 35.858"/>
   <path class="link thread37 WhiteStart" d="m859.96 540.24 1.551 29.445"/>
   <path class="link thread20 WhiteEnd" d="m882.63 564.84-15.273 3.5061"/>
   <path class="link thread35 WhiteEnd" d="m881.71 529.87 0.76501 28.971"/>
   <path class="link thread20 WhiteStart" d="m906.4 553.89-23.77 10.942"/>
   <path class="link thread37 WhiteEnd" d="m866.81 477.23-6.4162 51.062"/>
   <path class="link thread34 WhiteStart" d="m875.82 531.03-16.179 3.2122"/>
   <path class="link thread35 WhiteStart" d="m880.99 500.89 0.7204 28.976"/>
   <path class="link thread34 WhiteEnd" d="m904.1 526.08-16.478 2.7879"/>
   <path class="link thread14 WhiteEnd" d="m936.04 573.93 7.1967 36.01"/>
   <path class="link thread40 WhiteStart" d="m953.75 584.66-9.3313 31.162"/>
   <path class="link thread25 WhiteStart" d="m941.85 575.42 13.613 3.4927"/>
   <path class="link thread40 WhiteEnd" d="m957.7 545.29-1.8361 27.637"/>
   <path class="link thread39 WhiteEnd" d="m939.17 544.29 12.541 0.6766"/>
   <path class="link thread40 WhiteStart" d="m949.66 499.11 8.0383 46.178"/>
   <path class="link thread25 WhiteEnd" d="m911.85 551.38 19.799 18.45"/>
   <path class="link thread14 WhiteStart" d="m938.54 550.25-2.4968 23.673"/>
   <path class="link thread39 WhiteStart" d="m930.47 537 8.6947 7.286"/>
   <path class="link thread14 WhiteEnd" d="m937.67 517.92 1.1601 20.377"/>
   <path class="link thread29 WhiteEnd" d="m598.48 576.66 7.2114 30.029"/>
   <path class="link thread27 WhiteStart" d="m618.09 577.23-10.992 35.292"/>
   <path class="link thread29 WhiteStart" d="m597.6 547.95 0.88088 28.706"/>
   <path class="link thread12 WhiteEnd" d="m619.87 571.5-15.556 3.7512"/>
   <path class="link thread27 WhiteEnd" d="m619.72 537.18 0.12642 28.319"/>
   <path class="link thread12 WhiteStart" d="m644.04 560.2-24.173 11.296"/>
   <path class="link thread29 WhiteEnd" d="m606.14 485.84-7.8048 50.188"/>
   <path class="link thread26 WhiteStart" d="m613.85 538.43-16.434 3.5172"/>
   <path class="link thread27 WhiteStart" d="m619.87 508.87-0.15182 28.314"/>
   <path class="link thread26 WhiteEnd" d="m642.2 532.88-16.587 3.173"/>
   <path class="link thread6 WhiteEnd" d="m673.62 579.26 6.6567 35.078"/>
   <path class="link thread32 WhiteStart" d="m691.29 589.35-9.8921 30.886"/>
   <path class="link thread17 WhiteStart" d="m679.47 580.57 13.643 3.0592"/>
   <path class="link thread32 WhiteEnd" d="m695.92 550.37-2.3015 27.28"/>
   <path class="link thread31 WhiteEnd" d="m677.32 550.06 12.605 0.21633"/>
   <path class="link thread32 WhiteStart" d="m688.9 505.13 7.02 45.242"/>
   <path class="link thread17 WhiteEnd" d="m649.48 557.66 19.669 17.599"/>
   <path class="link thread6 WhiteStart" d="m676.56 556.01-2.9453 23.253"/>
   <path class="link thread31 WhiteStart" d="m668.65 543.14 8.6663 6.9178"/>
   <path class="link thread6 WhiteEnd" d="m676.24 524.04 0.83039 20.018"/>
   <path class="link thread25 WhiteStart" d="m905.86 531.81 5.9927 19.57"/>
   <path class="link thread20 WhiteEnd" d="m925.87 533.15-10.364 13.481"/>
   <path class="link thread39 WhiteEnd" d="m919.78 515.25 4.1588 12.217"/>
   <path class="link thread20 WhiteStart" d="m933.99 522.66-8.1186 10.484"/>
   <path class="link thread25 WhiteEnd" d="m904.83 502.61-0.53956 17.469"/>
   <path class="link thread34 WhiteStart" d="m914.84 518.66-10.741 7.4182"/>
   <path class="link thread39 WhiteStart" d="m918.73 504.58 1.0507 10.672"/>
   <path class="link thread34 WhiteEnd" d="m930.74 500.08-7.4443 10.305"/>
   <path class="link thread17 WhiteStart" d="m643.89 538.64 5.5908 19.026"/>
   <path class="link thread12 WhiteEnd" d="m663.96 539.39-10.757 13.566"/>
   <path class="link thread31 WhiteEnd" d="m658.06 521.84 3.9936 11.872"/>
   <path class="link thread12 WhiteStart" d="m672.49 528.73-8.5293 10.666"/>
   <path class="link thread17 WhiteEnd" d="m643.58 509.88-1.0218 17.014"/>
   <path class="link thread26 WhiteStart" d="m653.13 525.26-10.936 7.6144"/>
   <path class="link thread31 WhiteStart" d="m657.25 511.48 0.80486 10.355"/>
   <path class="link thread26 WhiteEnd" d="m669.4 506.57-7.7638 10.454"/>
   <path class="link thread6 WhiteStart" d="m671.58 512.15 4.6546 11.89"/>
   <path class="link thread12 WhiteEnd" d="m687.98 499.2-9.1787 19.414"/>
   <path class="link thread32 WhiteEnd" d="m674.25 482.44 9.9309 12.119"/>
   <path class="link thread12 WhiteStart" d="m695.66 449.47-7.6808 49.732"/>
   <path class="link thread6 WhiteEnd" d="m656.79 505.5 6.6324 0.56096"/>
   <path class="link thread26 WhiteStart" d="m673.07 488.33-3.6682 18.239"/>
   <path class="link thread32 WhiteStart" d="m664.62 486.22 9.6279-3.7733"/>
   <path class="link thread26 WhiteEnd" d="m674.37 448.4-0.0979 28.042"/>
   <path class="link thread14 WhiteStart" d="m932.91 505.67 4.755 12.245"/>
   <path class="link thread20 WhiteEnd" d="m948.63 493.2-8.5337 19.238"/>
   <path class="link thread40 WhiteEnd" d="m934.86 475.79 10.047 12.705"/>
   <path class="link thread20 WhiteStart" d="m954.91 443.32-6.2731 49.875"/>
   <path class="link thread14 WhiteEnd" d="m918.14 498.61 6.6369 0.77661"/>
   <path class="link thread34 WhiteStart" d="m933.86 481.7-3.1202 18.38"/>
   <path class="link thread40 WhiteStart" d="m925.39 479.18 9.474-3.3909"/>
   <path class="link thread34 WhiteEnd" d="m933.78 441.34 0.89742 28.446"/>
   <path class="link thread6 WhiteStart" d="m649.27 507.99 7.5134-2.4896"/>
   <path class="link thread31 WhiteEnd" d="m659.03 488.41-1.4657 11.143"/>
   <path class="link thread32 WhiteEnd" d="m646.9 492.08 6.3877-1.9359"/>
   <path class="link thread31 WhiteStart" d="m653.56 479.55 5.4749 8.8604"/>
   <path class="link thread6 WhiteEnd" d="m634.72 496.16 5.6001 8.6709"/>
   <path class="link thread17 WhiteStart" d="m645.8 497.98-2.2244 11.894"/>
   <path class="link thread32 WhiteStart" d="m640.41 494.26 6.4934-2.1752"/>
   <path class="link thread17 WhiteEnd" d="m650.41 474.44-2.333 11.756"/>
   <path class="link thread31 WhiteEnd" d="m637.23 479.1 7.5168-2.6585"/>
   <path class="link thread17 WhiteStart" d="m651.72 458.18-1.3182 16.261"/>
   <path class="link thread32 WhiteEnd" d="m619.9 502.87 9.3546-4.2294"/>
   <path class="link thread6 WhiteStart" d="m636.36 485.04-1.6369 11.127"/>
   <path class="link thread31 WhiteStart" d="m630.82 478.83 6.4084 0.27106"/>
   <path class="link thread6 WhiteEnd" d="m636.24 463.1 0.62396 10.015"/>
   <path class="link thread14 WhiteStart" d="m910.57 500.88 7.5689-2.2764"/>
   <path class="link thread39 WhiteEnd" d="m919.74 481.2-1.0492 11.434"/>
   <path class="link thread40 WhiteEnd" d="m907.77 484.66 6.2075-1.7974"/>
   <path class="link thread39 WhiteStart" d="m914.01 471.97 5.7334 9.2241"/>
   <path class="link thread14 WhiteEnd" d="m895.71 488.54 5.8582 9.0343"/>
   <path class="link thread25 WhiteStart" d="m906.8 490.59-1.971 12.026"/>
   <path class="link thread40 WhiteStart" d="m901.42 486.71 6.3519-2.0418"/>
   <path class="link thread25 WhiteEnd" d="m910.84 466.88-2.0494 11.874"/>
   <path class="link thread39 WhiteEnd" d="m897.56 471.14 7.5704-2.4282"/>
   <path class="link thread25 WhiteStart" d="m911.53 450.25-0.68819 16.626"/>
   <path class="link thread40 WhiteEnd" d="m880.84 494.89 9.348-3.9925"/>
   <path class="link thread14 WhiteStart" d="m896.92 477.11-1.2159 11.437"/>
   <path class="link thread39 WhiteStart" d="m891.07 470.71 6.4883 0.42753"/>
   <path class="link thread14 WhiteEnd" d="m896.03 454.87 0.96288 10.297"/>
   <path class="link thread32 WhiteStart" d="m609.91 490.5 9.9874 12.363"/>
   <path class="link thread27 WhiteEnd" d="m624.83 478.58-3.7357 18.408"/>
   <path class="link thread31 WhiteEnd" d="m618.07 461.45 4.5555 11.542"/>
   <path class="link thread27 WhiteStart" d="m632.68 467.93-7.8467 10.648"/>
   <path class="link thread32 WhiteEnd" d="m598.58 436.75 6.6528 43.151"/>
   <path class="link thread29 WhiteStart" d="m615.43 466.84-9.2918 18.992"/>
   <path class="link thread31 WhiteStart" d="m617.28 442.47 0.78667 18.98"/>
   <path class="link thread29 WhiteEnd" d="m630.57 446.22-8.69 10.595"/>
   <path class="link thread40 WhiteStart" d="m870.54 481.93 10.298 12.962"/>
   <path class="link thread35 WhiteEnd" d="m885.08 470.32-3.2204 18.662"/>
   <path class="link thread39 WhiteEnd" d="m878.03 452.84 4.8098 11.916"/>
   <path class="link thread35 WhiteStart" d="m892.56 459.76-7.4835 10.555"/>
   <path class="link thread40 WhiteEnd" d="m857.83 426.71 7.9273 44.611"/>
   <path class="link thread37 WhiteStart" d="m875.52 458.29-8.7092 18.943"/>
   <path class="link thread39 WhiteStart" d="m876.79 433.37 1.2356 19.469"/>
   <path class="link thread37 WhiteEnd" d="m889.96 437.7-8.2205 10.422"/>
   <path class="link thread14 WhiteStart" d="m891.96 443.36 4.0717 11.507"/>
   <path class="link thread35 WhiteEnd" d="m911.78 444.26-10.766 7.2566"/>
   <path class="link thread25 WhiteEnd" d="m904.02 419.83 5.9404 18.705"/>
   <path class="link thread35 WhiteStart" d="m927.83 442.13-16.053 2.1271"/>
   <path class="link thread14 WhiteEnd" d="m876.41 427.38 8.7792 6.6883"/>
   <path class="link thread37 WhiteStart" d="m900.31 424.55-10.348 13.154"/>
   <path class="link thread25 WhiteStart" d="m883.97 402.75 20.052 17.084"/>
   <path class="link thread37 WhiteEnd" d="m932.88 407.49-23.342 9.9838"/>
   <path class="link thread6 WhiteStart" d="m632.48 451.91 3.7589 11.192"/>
   <path class="link thread27 WhiteEnd" d="m652.21 452.2-11.017 7.5158"/>
   <path class="link thread17 WhiteEnd" d="m645.22 428.25 5.3047 18.196"/>
   <path class="link thread27 WhiteStart" d="m668.45 449.42-16.245 2.785"/>
   <path class="link thread6 WhiteEnd" d="m617.04 436.48 8.6607 6.2347"/>
   <path class="link thread29 WhiteStart" d="m641.43 432.89-10.867 13.324"/>
   <path class="link thread17 WhiteStart" d="m625.56 412.26 19.666 15.981"/>
   <path class="link thread29 WhiteEnd" d="m674.46 414.93-23.776 10.83"/>
   <path class="link thread19 WhiteStart" d="m457.98 431.14-22.3 28.201"/>
   <path class="link thread21 WhiteEnd" d="m461.7 426.43-20.277 1.1102"/>
   <path class="link thread14 WhiteStart" d="m863.83 426.93 12.581 0.45174"/>
   <path class="link thread39 WhiteEnd" d="m879.4 398.86-2.3649 22.554"/>
   <path class="link thread25 WhiteEnd" d="m860.56 395.06 12.96 2.6099"/>
   <path class="link thread39 WhiteStart" d="m872.7 365.56 6.6966 33.295"/>
   <path class="link thread14 WhiteEnd" d="m835.24 399.33 18.775 22.756"/>
   <path class="link thread40 WhiteStart" d="m860.04 401.04-2.211 25.671"/>
   <path class="link thread25 WhiteStart" d="m841.16 398.33 19.402-3.2682"/>
   <path class="link thread40 WhiteEnd" d="m871.52 359.68-9.1866 29.652"/>
   <path class="link thread6 WhiteStart" d="m604.57 436.66 12.461-0.1857"/>
   <path class="link thread31 WhiteEnd" d="m620.9 408.48-3.0457 22.055"/>
   <path class="link thread17 WhiteEnd" d="m602.06 405.49 12.914 2.0497"/>
   <path class="link thread31 WhiteStart" d="m615.19 376.22 5.7076 32.265"/>
   <path class="link thread6 WhiteEnd" d="m576.69 410.89 18.011 21.283"/>
   <path class="link thread32 WhiteStart" d="m601.4 411.45-2.8219 25.301"/>
   <path class="link thread17 WhiteStart" d="m582.56 409.64 19.506-4.1522"/>
   <path class="link thread32 WhiteEnd" d="m614.15 370.31-10.138 29.508"/>
   <path class="link thread26 WhiteStart" d="m674.44 420.93-0.077 27.475"/>
   <path class="link thread27 WhiteEnd" d="m696.58 443.54-16.35 3.5779"/>
   <path class="link thread12 WhiteEnd" d="m695.21 410.83 1.118 26.715"/>
   <path class="link thread27 WhiteStart" d="m717.73 415.3-21.152 28.246"/>
   <path class="link thread26 WhiteEnd" d="m686.89 375.82-10.613 33.389"/>
   <path class="link thread29 WhiteStart" d="m689.32 411.99-14.862 2.9336"/>
   <path class="link thread12 WhiteStart" d="m688.28 381.66 6.9318 29.174"/>
   <path class="link thread29 WhiteEnd" d="m721.33 410.49-20.118 0.26056"/>
   <path class="link thread34 WhiteStart" d="m933.04 413.49 0.73937 27.853"/>
   <path class="link thread35 WhiteEnd" d="m955.66 437.37-15.974 2.9017"/>
   <path class="link thread20 WhiteEnd" d="m953.4 404.12 1.8517 27.257"/>
   <path class="link thread35 WhiteStart" d="m975.74 409.98-20.081 27.388"/>
   <path class="link thread34 WhiteEnd" d="m944.13 368.29-9.5995 33.437"/>
   <path class="link thread37 WhiteStart" d="m947.48 405.1-14.597 2.395"/>
   <path class="link thread20 WhiteStart" d="m945.64 374.1 7.7613 30.029"/>
   <path class="link thread37 WhiteEnd" d="m979.28 405.14-19.891-0.78146"/>
   <path class="link thread35 WhiteEndLeft" d="m1004 387.7s-8.3618-1.442-23.992 13.262"/>
   <path class="link thread37 WhiteStartRight" d="m1003.3 391.88s-15.63 14.704-23.992 13.262"/>
   <path class="link thread22 WhiteEnd" d="m1036 376.49 26.204 6.3208"/>
   <path class="link thread33 WhiteStart" d="m1056.9 367.41 11.188 16.809"/>
   <path class="link thread37 WhiteEnd" d="m1018.4 364.44-11.285 18.161"/>
   <path class="link thread35 WhiteStart" d="m1030.4 378.47-26.377 9.228"/>
   <path class="link thread22 WhiteStart" d="m1023.4 367.83 12.639 8.657"/>
   <path class="link thread35 WhiteEnd" d="m1053.6 362.41-12.846 10.318"/>
   <path class="link thread33 WhiteEnd" d="m1036 350.61 12.536 8.4472"/>
   <path class="link thread35 WhiteStart" d="m1065 344.98-11.4 17.434"/>
   <path class="link thread22 WhiteEnd" d="m1003.8 343.11 11.21 16.383"/>
   <path class="link thread37 WhiteStart" d="m1031.3 354.32-12.883 10.121"/>
   <path class="link thread33 WhiteStart" d="m1009.7 344.47 26.357 6.1448"/>
   <path class="link thread37 WhiteEnd" d="m1068.2 339.96-26.499 8.7706"/>
   <path class="link thread33 WhiteEndLeft" d="m979.65 329.43s2.2712 8.1757 20.115 14.815"/>
   <path class="link thread22 WhiteStartRight" d="m983.73 328.29s17.844 6.6392 20.115 14.815"/>
   <path class="link thread22 WhiteEnd" d="m955.04 333.94 18.707-3.4304"/>
   <path class="link thread33 WhiteStart" d="m961.17 307.66 18.478 21.763"/>
   <path class="link thread25 WhiteEndLeft" d="m810.95 385.51s2.2471 8.1823 20.194 14.944"/>
   <path class="link thread14 WhiteStartRight" d="m815.05 384.39s17.947 6.7614 20.194 14.944"/>
   <path class="link thread27 WhiteEndLeft" d="m746.54 392.07s-8.3846-1.3036-24.555 14.231"/>
   <path class="link thread29 WhiteStartRight" d="m745.88 396.26s-16.171 15.535-24.555 14.231"/>
   <path class="link thread14 WhiteEnd" d="m779.07 379.36 25.994 5.0111"/>
   <path class="link thread25 WhiteStart" d="m800.23 369.32 10.725 16.186"/>
   <path class="link thread29 WhiteEnd" d="m761.65 368.36-11.892 18.647"/>
   <path class="link thread27 WhiteStart" d="m773.48 381.55-26.945 10.525"/>
   <path class="link thread14 WhiteStart" d="m766.73 371.57 12.343 7.794"/>
   <path class="link thread27 WhiteEnd" d="m796.92 364.32-13.259 11.174"/>
   <path class="link thread25 WhiteEnd" d="m779.55 353.56 12.268 7.6008"/>
   <path class="link thread27 WhiteStart" d="m808.87 346.07-11.955 18.249"/>
   <path class="link thread14 WhiteEnd" d="m747.5 347.94 10.739 15.492"/>
   <path class="link thread29 WhiteStart" d="m774.92 357.39-13.271 10.979"/>
   <path class="link thread25 WhiteStart" d="m753.41 348.98 26.141 4.5829"/>
   <path class="link thread29 WhiteEnd" d="m812.16 341.05-27.009 10.358"/>
   <path class="link thread27 WhiteEndLeft" d="m836.94 323.97s-8.3455-1.5339-24.018 12.916"/>
   <path class="link thread29 WhiteStartRight" d="m836.18 328.14s-15.673 14.45-24.018 12.916"/>
   <path class="link thread25 WhiteEndLeft" d="m723.43 335.74s2.6366 8.0653 20.029 13.524"/>
   <path class="link thread14 WhiteStartRight" d="m727.47 334.42s17.392 5.4587 20.029 13.524"/>
   <path class="link thread29 WhiteEnd" d="m860.41 293.48-19.803 25.733"/>
   <path class="link thread27 WhiteStart" d="m856.44 325.31-19.498-1.3489"/>
   <path class="link thread14 WhiteEnd" d="m698.81 341.44 18.777-4.353"/>
   <path class="link thread25 WhiteStart" d="m705.77 315.31 17.661 20.429"/>
   <path class="link thread17 WhiteEndLeft" d="m552.51 398.55s2.6155 8.0721 20.139 13.65"/>
   <path class="link thread6 WhiteStartRight" d="m556.55 397.24s17.523 5.5782 20.139 13.65"/>
   <path class="link thread19 WhiteEndLeft" d="m487.55 407.67s-8.3801-1.3318-25.188 14.573"/>
   <path class="link thread21 WhiteStartRight" d="m486.89 411.86s-16.808 15.905-25.188 14.573"/>
   <path class="link thread6 WhiteEnd" d="m520.72 393.97 25.857 3.7239"/>
   <path class="link thread17 WhiteStart" d="m542.32 383.32 10.192 15.233"/>
   <path class="link thread21 WhiteEnd" d="m503.52 384.14-12.592 18.56"/>
   <path class="link thread19 WhiteStart" d="m515.17 396.26-27.619 11.409"/>
   <path class="link thread6 WhiteStart" d="m508.73 387.12 11.993 6.8494"/>
   <path class="link thread19 WhiteEnd" d="m538.98 378.33-13.709 11.738"/>
   <path class="link thread17 WhiteEnd" d="m521.8 368.72 11.95 6.683"/>
   <path class="link thread19 WhiteStart" d="m551.61 359.76-12.63 18.568"/>
   <path class="link thread6 WhiteEnd" d="m489.9 364.97 10.145 14.286"/>
   <path class="link thread21 WhiteStart" d="m517.21 372.59-13.697 11.557"/>
   <path class="link thread17 WhiteStart" d="m495.86 365.67 25.942 3.0508"/>
   <path class="link thread21 WhiteEnd" d="m554.99 354.8-27.658 11.597"/>
   <path class="link thread19 WhiteEndLeft" d="m580.35 336.85s-8.3639-1.4304-24.642 13.769"/>
   <path class="link thread21 WhiteStartRight" d="m579.63 341.03s-16.278 15.199-24.642 13.769"/>
   <path class="link thread17 WhiteEndLeft" d="m466.04 354.45s3.0702 7.9104 19.906 12.053"/>
   <path class="link thread6 WhiteStartRight" d="m469.99 352.91s16.836 4.1428 19.906 12.053"/>
   <path class="link thread21 WhiteEnd" d="m605.06 305.67-20.99 26.482"/>
   <path class="link thread19 WhiteStart" d="m600.04 337.19-19.689-0.34219"/>
   <path class="link thread6 WhiteEnd" d="m441.41 361 18.825-5.0082"/>
   <path class="link thread17 WhiteStart" d="m449.38 335.69 16.658 18.757"/>
   <path class="link thread18 WhiteStart" d="m439.22 366.58-10.936 27.854"/>
   <path class="link thread6 WhiteStart" d="m428.43 359.18 12.985 1.8241"/>
   <path class="link thread18 WhiteEnd" d="m445.39 331.2-3.1866 23.847"/>
   <path class="link thread18 WhiteStart" d="m440.65 293.47 4.7401 37.737"/>
   <path class="link thread39 WhiteEnd" d="m862.43 325.73 7.5409 28.158"/>
   <path class="link thread40 WhiteStart" d="m881.48 326.94-9.9592 32.744"/>
   <path class="link thread39 WhiteStart" d="m860.78 299.47 1.646 26.263"/>
   <path class="link thread27 WhiteEnd" d="m883.23 321.2-14.936 3.2537"/>
   <path class="link thread40 WhiteEnd" d="m882.18 289.11 0.84794 26.095"/>
   <path class="link thread27 WhiteStart" d="m906.36 311.13-23.135 10.064"/>
   <path class="link thread31 WhiteEnd" d="m606.03 337.3 6.6827 27.185"/>
   <path class="link thread32 WhiteStart" d="m625.15 337.68-10.996 32.626"/>
   <path class="link thread31 WhiteStart" d="m605.25 311.66 0.78723 25.633"/>
   <path class="link thread19 WhiteEnd" d="m627.06 332-15.209 3.8334"/>
   <path class="link thread32 WhiteEnd" d="m627.11 300.38-0.0347 25.619"/>
   <path class="link thread19 WhiteStart" d="m650.6 320.99-23.538 11.008"/>
   <path class="link thread12 WhiteEnd" d="m679.67 337.94 6.0953 31.99"/>
   <path class="link thread26 WhiteStart" d="m696.85 347.11-9.9546 28.707"/>
   <path class="link thread14 WhiteStart" d="m685.57 339.02 13.237 2.4262"/>
   <path class="link thread26 WhiteEnd" d="m701.85 310.77-2.4459 24.705"/>
   <path class="link thread25 WhiteEnd" d="m683.74 310.94 12.112-0.11141"/>
   <path class="link thread14 WhiteEnd" d="m656.04 318.45 19.009 15.673"/>
   <path class="link thread12 WhiteStart" d="m682.84 316.87-3.1712 21.068"/>
   <path class="link thread25 WhiteStart" d="m675.3 304.77 8.442 6.1684"/>
   <path class="link thread20 WhiteEnd" d="m935.84 329.48 7.0374 32.938"/>
   <path class="link thread34 WhiteStart" d="m953.22 339.66-9.0882 28.628"/>
   <path class="link thread22 WhiteStart" d="m941.69 330.84 13.35 3.1011"/>
   <path class="link thread34 WhiteEnd" d="m957.28 303.09-1.8111 24.866"/>
   <path class="link thread22 WhiteEnd" d="m911.86 308.74 19.442 16.816"/>
   <path class="link thread20 WhiteStart" d="m938.39 308.11-2.5476 21.37"/>
   <path class="link thread14 WhiteStart" d="m650.81 301.1 5.2237 17.347"/>
   <path class="link thread19 WhiteEnd" d="m670.45 301.23-10.564 12.619"/>
  </g>
  <rect transform="matrix(1 -.0014174 -.0003538 -1 0 0)" x="446.39" y="-906.18" width="595.78" height="595.48" stroke="#fafafa" stroke-linejoin="round" stroke-width="16.005"/>
 </g>
</svg>
