<?xml version="1.0" encoding="UTF-8"?>
<svg width="47.937mm" height="52.178mm" version="1.1" viewBox="0 0 47.937 52.178" xmlns="http://www.w3.org/2000/svg" xmlns:cc="http://creativecommons.org/ns#" xmlns:dc="http://purl.org/dc/elements/1.1/" xmlns:rdf="http://www.w3.org/1999/02/22-rdf-syntax-ns#">
 <metadata>
  <rdf:RDF>
   <cc:Work rdf:about="">
    <dc:format>image/svg+xml</dc:format>
    <dc:type rdf:resource="http://purl.org/dc/dcmitype/StillImage"/>
   </cc:Work>
  </rdf:RDF>
 </metadata>
 <g transform="translate(0 8.9751)">
  <g transform="matrix(2.0052 0 0 2.0052 -17.083 -17.083)" fill="none" stroke="#000" stroke-linecap="round" stroke-linejoin="round" stroke-width=".12468">
   <path d="m25 15-4 4 4 4 4-4z"/>
   <path d="m21 7-4 4 4 4 4-4z"/>
   <path d="m13 11-4 4 4 4 4-4z"/>
   <path d="m17 19-4 4 4 4 4-4z"/>
   <path d="m9 23-4 4 4 4 4-4z"/>
   <path d="m33 11-4 4 4 4 4-4z"/>
   <path d="m29 23-4 4 4 4 4-4z"/>
   <path d="m21 27-4 4 4 4 4-4z"/>
   <path d="m5 15-4 4 4 4 4-4z"/>
   <path d="m9 3-4 4 4 4 4-4z"/>
   <path d="m17-1-4 4 4 4 4-4z"/>
   <path d="m29 3-4 4 4 4 4-4z"/>
   <path d="m17 7h4"/>
   <path d="m19 5v4"/>
   <path d="m23 9h4"/>
   <path d="m25 7v4"/>
   <path d="m25 3h4"/>
   <path d="m27 1v4"/>
   <path d="m31 5h4"/>
   <path d="m33 3v4"/>
   <path d="m29 11h4"/>
   <path d="m31 9v4"/>
   <path d="m27 17h4"/>
   <path d="m29 15v4"/>
   <path d="m21 15h4"/>
   <path d="m23 13v4"/>
   <path d="m15 13h4"/>
   <path d="m17 11v4"/>
   <path d="m11 5h4"/>
   <path d="m13 3v4"/>
   <path d="m9 11h4"/>
   <path d="m11 9v4"/>
   <path d="m13 19h4"/>
   <path d="m15 17v4"/>
   <path d="m7 17h4"/>
   <path d="m9 15v4"/>
   <path d="m5 23h4"/>
   <path d="m11 25h4"/>
   <path d="m13 23v4"/>
   <path d="m11 29v4"/>
   <path d="m17 27h4"/>
   <path d="m19 25v4"/>
   <path d="m19 21h4"/>
   <path d="m21 19v4"/>
   <path d="m23 29h4"/>
   <path d="m25 27v4"/>
   <path d="m31 29v4"/>
   <path d="m31 25h4"/>
   <path d="m33 23v4"/>
   <path d="m25 23h4"/>
   <path d="m27 21v4"/>
   <path d="m13 27 4 4"/>
   <path d="m13 31 4-4"/>
   <path d="m21 23 4 4"/>
   <path d="m21 27 4-4"/>
   <path d="m9 19 4 4"/>
   <path d="m9 23 4-4"/>
   <path d="m29 19 4 4"/>
   <path d="m29 23 4-4"/>
   <path d="m17 15 4 4"/>
   <path d="m17 19 4-4"/>
   <path d="m5 11 4 4"/>
   <path d="m5 15 4-4"/>
   <path d="m11 13 4 4"/>
   <path d="m11 17 4-4"/>
   <path d="m7 5 4 4"/>
   <path d="m7 9 4-4"/>
   <path d="m7 25 4 4"/>
   <path d="m7 29 4-4"/>
   <path d="m15 21 4 4"/>
   <path d="m15 25 4-4"/>
   <path d="m19 9 4 4"/>
   <path d="m19 13 4-4"/>
   <path d="m15 1 4 4"/>
   <path d="m15 5 4-4"/>
   <path d="m27 5 4 4"/>
   <path d="m27 9 4-4"/>
   <path d="m31 13 4 4"/>
   <path d="m31 17 4-4"/>
   <path d="m23 17 4 4"/>
   <path d="m23 21 4-4"/>
   <path d="m19 29 4 4"/>
   <path d="m19 33 4-4"/>
   <path d="m27 25 4 4"/>
   <path d="m27 29 4-4"/>
   <path d="m13 7 4 4"/>
   <path d="m13 11 4-4"/>
   <path d="m25 11 4 4"/>
   <path d="m25 15 4-4"/>
   <path d="m21 3 4 4"/>
   <path d="m21 7 4-4"/>
  </g>
  <g transform="translate(-15.011 -119.07)">
   <circle cx="32.011" cy="128.07" r=".32232" fill="#fafafa" fill-opacity=".98039" stroke="#fafafa" stroke-dashoffset="37.795" stroke-linejoin="round" stroke-opacity=".98039" stroke-width="1.1054" style="paint-order:normal"/>
   <circle cx="32.011" cy="128.07" r=".24174" fill-opacity=".9759" style="paint-order:normal"/>
  </g>
  <g transform="translate(-11.011 -131.07)">
   <circle cx="32.011" cy="128.07" r=".32232" fill="#fafafa" fill-opacity=".98039" stroke="#fafafa" stroke-dashoffset="37.795" stroke-linejoin="round" stroke-opacity=".98039" stroke-width="1.1054" style="paint-order:normal"/>
   <circle cx="32.011" cy="128.07" r=".24174" fill-opacity=".9759" style="paint-order:normal"/>
  </g>
  <g transform="translate(-15.064 -143.02)">
   <circle cx="48.111" cy="143.98" r=".32232" fill="#fafafa" fill-opacity=".98039" stroke="#fafafa" stroke-dashoffset="37.795" stroke-linejoin="round" stroke-opacity=".98039" stroke-width="1.1054" style="paint-order:normal"/>
   <circle cx="48.111" cy="143.98" r=".24174" fill-opacity=".9759" style="paint-order:normal"/>
  </g>
  <g transform="translate(-2.9742 -115.08)">
   <circle cx="32.011" cy="128.07" r=".32232" fill="#fafafa" fill-opacity=".98039" stroke="#fafafa" stroke-dashoffset="37.795" stroke-linejoin="round" stroke-opacity=".98039" stroke-width="1.1054" style="paint-order:normal"/>
   <circle cx="32.011" cy="128.07" r=".24174" fill-opacity=".9759" style="paint-order:normal"/>
  </g>
  <g transform="translate(-27.037 -123.1)">
   <circle cx="32.011" cy="128.07" r=".32232" fill="#fafafa" fill-opacity=".98039" stroke="#fafafa" stroke-dashoffset="37.795" stroke-linejoin="round" stroke-opacity=".98039" stroke-width="1.1054" style="paint-order:normal"/>
   <circle cx="32.011" cy="128.07" r=".24174" fill-opacity=".9759" style="paint-order:normal"/>
  </g>
  <g transform="translate(-47.148 -126.98)">
   <circle cx="48.111" cy="143.98" r=".32232" fill="#fafafa" fill-opacity=".98039" stroke="#fafafa" stroke-dashoffset="37.795" stroke-linejoin="round" stroke-opacity=".98039" stroke-width="1.1054" style="paint-order:normal"/>
   <circle cx="48.111" cy="143.98" r=".24174" fill-opacity=".9759" style="paint-order:normal"/>
  </g>
  <g transform="translate(-23.026 -95.028)">
   <circle cx="32.011" cy="128.07" r=".32232" fill="#fafafa" fill-opacity=".98039" stroke="#fafafa" stroke-dashoffset="37.795" stroke-linejoin="round" stroke-opacity=".98039" stroke-width="1.1054" style="paint-order:normal"/>
   <circle cx="32.011" cy="128.07" r=".24174" fill-opacity=".9759" style="paint-order:normal"/>
  </g>
  <g transform="translate(-23.085 -118.96)">
   <circle cx="48.111" cy="143.98" r=".32232" fill="#fafafa" fill-opacity=".98039" stroke="#fafafa" stroke-dashoffset="37.795" stroke-linejoin="round" stroke-opacity=".98039" stroke-width="1.1054" style="paint-order:normal"/>
   <circle cx="48.111" cy="143.98" r=".24174" fill-opacity=".9759" style="paint-order:normal"/>
  </g>
  <g transform="translate(-7.0852 -126.95)">
   <circle cx="48.111" cy="143.98" r=".32232" fill="#fafafa" fill-opacity=".98039" stroke="#fafafa" stroke-dashoffset="37.795" stroke-linejoin="round" stroke-opacity=".98039" stroke-width="1.1054" style="paint-order:normal"/>
   <circle cx="48.111" cy="143.98" r=".24174" fill-opacity=".9759" style="paint-order:normal"/>
  </g>
  <g transform="translate(-11.111 -114.98)">
   <circle cx="48.111" cy="143.98" r=".32232" fill="#fafafa" fill-opacity=".98039" stroke="#fafafa" stroke-dashoffset="37.795" stroke-linejoin="round" stroke-opacity=".98039" stroke-width="1.1054" style="paint-order:normal"/>
   <circle cx="48.111" cy="143.98" r=".24174" fill-opacity=".9759" style="paint-order:normal"/>
  </g>
  <g transform="translate(-15.085 -102.87)">
   <circle cx="48.111" cy="143.98" r=".32232" fill="#fafafa" fill-opacity=".98039" stroke="#fafafa" stroke-dashoffset="37.795" stroke-linejoin="round" stroke-opacity=".98039" stroke-width="1.1054" style="paint-order:normal"/>
   <circle cx="48.111" cy="143.98" r=".24174" fill-opacity=".9759" style="paint-order:normal"/>
  </g>
  <g transform="translate(-3.1112 -138.98)">
   <circle cx="48.111" cy="143.98" r=".32232" fill="#fafafa" fill-opacity=".98039" stroke="#fafafa" stroke-dashoffset="37.795" stroke-linejoin="round" stroke-opacity=".98039" stroke-width="1.1054" style="paint-order:normal"/>
   <circle cx="48.111" cy="143.98" r=".24174" fill-opacity=".9759" style="paint-order:normal"/>
  </g>
  <g transform="translate(-39.224 -150.98)">
   <circle cx="48.111" cy="143.98" r=".32232" fill="#fafafa" fill-opacity=".98039" stroke="#fafafa" stroke-dashoffset="37.795" stroke-linejoin="round" stroke-opacity=".98039" stroke-width="1.1054" style="paint-order:normal"/>
   <circle cx="48.111" cy="143.98" r=".24174" fill-opacity=".9759" style="paint-order:normal"/>
  </g>
  <g transform="translate(-11.011 -91.075)">
   <circle cx="32.011" cy="128.07" r=".32232" fill="#fafafa" fill-opacity=".98039" stroke="#fafafa" stroke-dashoffset="37.795" stroke-linejoin="round" stroke-opacity=".98039" stroke-width="1.1054" style="paint-order:normal"/>
   <circle cx="32.011" cy="128.07" r=".24174" fill-opacity=".9759" style="paint-order:normal"/>
  </g>
  <g transform="translate(-19 -107.11)">
   <circle cx="32.011" cy="128.07" r=".32232" fill="#fafafa" fill-opacity=".98039" stroke="#fafafa" stroke-dashoffset="37.795" stroke-linejoin="round" stroke-opacity=".98039" stroke-width="1.1054" style="paint-order:normal"/>
   <circle cx="32.011" cy="128.07" r=".24174" fill-opacity=".9759" style="paint-order:normal"/>
  </g>
 </g>
 <g transform="translate(-33.875 -112.9)" display="none">
  <g transform="translate(19.989 -4.0745)">
   <circle cx="32.011" cy="128.07" r=".32232" fill="#fafafa" fill-opacity=".98039" stroke="#fafafa" stroke-dashoffset="37.795" stroke-linejoin="round" stroke-opacity=".98039" stroke-width="1.1054" style="paint-order:normal"/>
   <circle cx="32.011" cy="128.07" r=".24174" fill-opacity=".9759" style="paint-order:normal"/>
  </g>
 </g>
</svg>
